<svg width="20" height="20" viewBox="0 0 20 20" fill="none" xmlns="http://www.w3.org/2000/svg">
<path d="M9.11576 8.98389C9.11576 9.11302 8.98663 9.24216 8.66378 9.50044C8.47008 9.62957 8.34094 9.82328 8.14723 9.95242C8.08266 10.017 7.95353 10.0816 7.88896 10.017C7.75982 9.95242 7.82439 9.82328 7.82439 9.69414C7.82439 9.43587 7.88896 9.17759 8.14723 9.04846C8.14723 9.04846 8.14723 9.04846 8.14723 8.98389H8.08267C8.0181 8.98389 7.95353 9.04846 7.88896 9.04846C7.82439 9.04846 7.75982 9.04846 7.75982 8.98389H7.30784C7.30784 9.04846 7.30784 9.04846 7.30784 9.11302C7.30784 9.24216 6.85586 9.3713 6.79129 9.30673C6.72672 9.24216 6.66215 9.11302 6.66215 9.04846C6.66215 9.04846 6.66215 9.04846 6.66215 8.98389H0V9.95242C0.258275 10.017 0.322844 10.0816 0.645687 10.4044C0.645687 10.4044 0.774825 10.5335 0.774825 10.5981C0.839394 10.7272 0.903962 10.8564 0.903962 10.9209H7.37241C7.37241 10.8564 7.43698 10.8564 7.43698 10.7918C7.56612 10.7918 7.63068 10.7272 7.69525 10.7272C7.75982 10.7272 7.88896 10.6627 7.95353 10.7272C8.08267 10.7918 8.0181 10.8564 7.95353 10.9855H8.53465C8.53465 10.9855 8.66378 10.9855 8.72835 10.9855C8.72835 10.9855 8.72835 10.9855 8.72835 11.0501H9.18033C9.2449 10.9855 9.2449 10.9209 9.30947 10.8564C9.37404 10.7918 9.43861 10.7918 9.56775 10.7918C9.56775 10.8564 9.56775 10.9209 9.56775 10.9209C9.56775 10.9855 9.50318 10.9855 9.43861 11.0501H9.95516C10.0197 10.9855 10.1489 10.9209 10.2134 10.8564C10.4071 10.7918 10.6654 10.8564 10.7946 11.0501H14.1223L14.0577 10.9855C13.9931 10.9209 13.9286 10.8564 13.9931 10.7918C14.1223 10.5335 13.9286 10.5335 13.7349 10.4044C13.2829 10.1461 12.96 9.82328 12.7663 9.3713C12.7018 9.30673 12.7018 9.17759 12.7663 9.11302H9.11576V8.98389ZM5.17707 9.69414C4.9188 9.82328 4.59595 9.88785 4.33768 9.95242C4.33768 9.95242 4.20854 9.75871 4.20854 9.62957C4.20854 9.56501 4.27311 9.43587 4.33768 9.43587C4.46682 9.3713 4.59595 9.3713 4.72509 9.30673C4.9188 9.30673 5.04793 9.24216 5.24164 9.24216C5.30621 9.24216 5.37078 9.30673 5.37078 9.3713C5.24164 9.3713 5.24164 9.62957 5.17707 9.69414ZM5.88733 9.56501C5.88733 9.56501 5.82276 9.50044 5.69362 9.50044C5.75819 9.43587 5.82276 9.3713 5.88733 9.30673C5.9519 9.30673 6.01647 9.3713 6.01647 9.43587C6.01647 9.43587 5.9519 9.50044 5.88733 9.56501ZM6.53302 10.017C6.40388 10.0816 6.27474 10.0816 6.27474 10.0816C6.21017 9.95242 6.1456 9.82328 6.08103 9.69414C6.1456 9.69414 6.21017 9.62957 6.27474 9.62957C6.40388 9.82328 6.72672 9.43587 6.79129 9.75871C6.72672 9.82328 6.59758 9.95242 6.53302 10.017ZM9.89059 10.2107C9.63232 10.4044 9.50318 10.4044 9.37404 10.2753C9.18033 10.017 9.18033 9.88785 9.43861 9.69414C9.63231 9.565 9.69688 9.56501 9.89059 9.82328C10.0197 9.95242 10.0843 10.0816 9.89059 10.2107Z" fill="#867197"/>
<path d="M12.4443 2.46239C12.3797 2.46239 12.3797 2.46239 12.4443 2.46239C12.3152 2.46239 12.186 2.46239 12.1215 2.39782C12.1215 2.39782 12.1215 2.39782 12.1215 2.33325L10.8301 3.56006L16.2539 8.98383H14.5751C14.6396 8.98383 14.7042 9.0484 14.8333 9.11297C14.8333 9.17754 14.8979 9.37125 14.8979 9.37125C14.7688 9.50038 14.6396 9.56495 14.5105 9.62952C14.4459 9.56495 14.3814 9.50038 14.3814 9.43581C14.3814 9.37125 14.4459 9.30668 14.4459 9.24211C14.4459 9.11297 14.3814 9.0484 14.4459 8.98383H13.3483C13.4774 9.11297 13.542 9.30668 13.6711 9.43581C13.9939 9.82323 14.3814 10.2106 14.7042 10.5981C14.7688 10.7272 14.8333 10.7918 14.9625 10.9209H15.8664C15.8019 10.7918 15.9956 10.4043 16.1893 10.4043C16.4476 10.4043 16.6413 10.5335 16.9641 10.5981C16.9641 10.7918 16.9641 10.9209 16.9641 11.05C17.0287 11.3083 16.9641 11.502 16.9641 11.7603C16.8995 11.954 16.835 12.0186 16.7058 11.8894C16.4476 11.6312 16.2539 11.3729 16.0601 11.1146L15.5436 11.6312C15.5436 11.6957 15.6082 11.7603 15.6082 11.8249C15.6082 12.0831 15.7373 12.2123 15.8664 12.3414C15.8664 12.2768 15.931 12.2123 15.9956 12.2123C16.1247 12.2123 16.2539 12.2768 16.383 12.2768C16.3184 12.3414 16.2539 12.406 16.1893 12.4705C16.3184 12.5351 16.4476 12.6643 16.5767 12.7288C16.7058 12.858 16.7704 12.9871 16.835 13.1162L17.3515 12.5997C17.3515 12.5997 17.3515 12.5351 17.4161 12.5351L17.4807 12.4705C17.4161 12.2768 17.4807 12.1477 17.5452 12.0186C17.4807 11.954 17.4161 11.8249 17.3515 11.7603C17.3515 11.6957 17.4161 11.6312 17.4161 11.5666C17.4807 11.6312 17.5452 11.6957 17.6744 11.7603C17.6744 11.8249 17.6098 11.8894 17.6098 11.954C17.6744 11.8894 17.7389 11.8249 17.8035 11.7603C17.9326 11.6312 18.0618 11.5666 18.1909 11.6957C18.1909 11.6957 18.1909 11.6957 18.2555 11.6957C18.3201 11.502 18.1909 11.3083 18.3846 11.2437C18.5138 11.2437 18.5783 11.2437 18.5783 11.3083L19.9343 9.95236L17.1578 7.17591C17.0932 7.17591 17.0287 7.17591 16.9641 7.17591C16.8995 7.30505 16.7704 7.36961 16.6413 7.43418C16.5767 7.49875 16.5121 7.43418 16.383 7.43418C16.383 7.36961 16.383 7.36961 16.383 7.30505C16.3184 7.43418 16.1893 7.49875 16.1247 7.49875C16.0601 7.49875 15.931 7.36961 15.8664 7.30505C15.8664 7.17591 15.8664 7.04677 15.931 6.9822C16.0601 6.85306 16.1247 6.9822 16.1893 7.11134L16.2539 7.17591C16.3184 7.17591 16.383 7.17591 16.4476 7.24048C16.4476 7.17591 16.4476 7.04677 16.5121 6.9822C16.5121 6.85306 16.6413 6.85306 16.7704 6.91763C16.7704 6.91763 16.7704 6.91763 16.835 6.91763V6.85306L13.2191 3.23721C13.1546 3.23721 13.1546 3.23721 13.09 3.23721C13.0254 3.23721 12.8317 3.04351 12.7671 2.8498C12.7671 2.8498 12.7671 2.78523 12.7671 2.72066L12.4443 2.46239ZM15.2208 10.0169C15.0916 10.0815 14.9625 10.0815 14.9625 9.95236C14.9625 9.8878 15.0916 9.82323 15.1562 9.69409C15.2853 9.75866 15.3499 9.82323 15.4145 9.82323C15.4145 9.8878 15.3499 9.95236 15.2208 10.0169ZM18.7075 9.62952C18.772 9.56495 18.772 9.56495 18.772 9.56495C18.8366 9.50038 18.8366 9.50038 18.9012 9.43581C19.0303 9.37125 19.1594 9.17754 19.2886 9.37125C19.4177 9.50038 19.5469 9.62952 19.4177 9.8878C19.3532 10.0169 19.2886 10.0815 19.1594 10.1461C18.9012 10.3398 18.8366 10.3398 18.6429 10.1461C18.4492 9.95236 18.4492 9.8878 18.7075 9.62952ZM17.5452 8.46728C17.8035 8.53185 18.0618 8.46728 18.2555 8.66099C18.4492 8.8547 18.3846 9.0484 18.4492 9.24211C18.4492 9.37125 18.2555 9.50038 18.1263 9.37125C17.9326 9.24211 17.8035 9.11297 17.6744 8.98383C17.6098 8.8547 17.4807 8.79013 17.4161 8.66099C17.4161 8.66099 17.4161 8.46728 17.5452 8.46728ZM14.7042 5.56169C15.027 5.49712 15.2208 5.62626 15.1562 5.9491C15.1562 6.07824 15.027 6.07824 14.9625 6.01367C14.8979 5.9491 14.8333 5.88453 14.7688 5.88453C14.7042 5.81996 14.6396 5.7554 14.5751 5.69083C14.6396 5.62626 14.7042 5.56169 14.7042 5.56169ZM12.7671 3.43092C12.8317 3.43092 12.8963 3.49549 12.8963 3.49549C12.8963 3.56006 12.8317 3.62463 12.8317 3.6892C12.7671 3.62463 12.7026 3.62463 12.7026 3.56006C12.638 3.56006 12.7026 3.43092 12.7671 3.43092Z" fill="#867197"/>
<path d="M15.0914 12.083L14.3166 12.8578C14.252 12.9224 14.1874 12.987 14.1229 13.0515L13.0252 14.1492C13.0898 14.1492 13.1543 14.2138 13.2835 14.3429C13.4126 14.4721 13.4126 14.6012 13.1543 14.7949C13.0252 14.924 12.896 14.924 12.7669 14.7949C12.7669 14.7949 12.7669 14.7949 12.7669 14.8595C12.7023 14.8595 12.7023 14.7949 12.6378 14.7949C12.6378 14.7303 12.7023 14.7303 12.7023 14.7303L12.6378 14.6658L10.959 16.3445L11.0236 16.4091C11.0881 16.4091 11.2173 16.4091 11.3464 16.5383C11.4755 16.6028 11.5401 16.6028 11.6047 16.4737C11.7338 16.1508 12.0567 16.0863 12.3149 16.28C12.4441 16.4091 12.5086 16.4091 12.5732 16.2154C12.7023 15.9571 12.7023 15.9571 12.896 16.1508C13.0898 16.28 13.1543 16.28 13.2835 16.0863C13.2835 16.0217 13.348 16.0217 13.348 15.9571C13.2189 15.8926 13.1543 15.828 13.2835 15.6343C13.4126 15.4406 13.6063 15.376 13.8 15.5052C13.9291 15.6343 14.0583 15.6989 14.1229 15.828H14.1874L14.6394 15.376C14.6394 15.3114 14.5748 15.3114 14.4457 15.2469C14.3811 15.2469 14.3166 15.1177 14.3166 15.1177C14.1874 14.9886 14.1229 14.8595 13.9937 14.7949C13.9291 14.7303 13.8646 14.6012 13.7354 14.5366C13.4772 14.2138 13.4772 14.2138 13.8 13.8909C14.1229 13.5681 14.4457 13.6972 14.7685 13.8264C14.9622 13.8909 15.0914 14.0201 15.2851 13.9555C15.4142 13.9555 15.6079 14.2138 15.6079 14.4075L16.1891 13.8264C16.0599 13.6972 15.9308 13.5681 15.8016 13.3744C15.8016 13.3098 15.7371 13.2452 15.7371 13.2452C15.8016 12.6641 15.2851 12.4704 15.0914 12.083Z" fill="#867197"/>
<path d="M12.3141 16.8612C12.185 16.7321 12.0558 16.7321 11.9913 16.9258C11.9267 17.1195 11.8621 17.1195 11.6684 16.9904C11.5393 16.8612 11.4747 16.8612 11.4102 16.9904L11.9267 17.5069C11.9267 17.4424 11.9913 17.3778 12.1204 17.2487C12.185 17.2487 12.2496 17.1195 12.3141 17.1195C12.3787 17.1195 12.5078 17.1195 12.5078 17.1841V17.2487L12.9598 16.7967C12.8307 17.0549 12.5078 17.0549 12.3141 16.8612Z" fill="#867197"/>
<path d="M13.2188 16.7323L13.4127 16.5383C13.3481 16.5383 13.2834 16.603 13.2188 16.7323C13.2188 16.6677 13.2188 16.6677 13.2188 16.7323Z" fill="#867197"/>
<path d="M15.0903 14.6658C15.0257 14.6658 14.8966 14.6658 14.832 14.6658C14.832 14.7303 14.832 14.8595 14.8966 14.924C14.8966 14.924 14.8966 14.924 14.9612 14.9886L15.284 14.6658C15.2194 14.6658 15.1549 14.6658 15.0903 14.6658Z" fill="#867197"/>
</svg>
