<svg width="50" height="50" viewBox="0 0 50 50" fill="none" xmlns="http://www.w3.org/2000/svg">
<g clip-path="url(#clip0_801_28100)">
<path d="M25 50C38.8071 50 50 38.8071 50 25C50 11.1929 38.8071 0 25 0C11.1929 0 0 11.1929 0 25C0 38.8071 11.1929 50 25 50Z" fill="#867197"/>
<path d="M15.2266 26.7532C15.2915 26.7532 15.324 26.7532 15.324 26.7207C15.324 26.7207 15.324 26.6882 15.324 26.6558C15.2915 26.7207 15.259 26.7207 15.2266 26.7532Z" fill="#FEFEFE"/>
<path d="M5.25997 40.3569C5.29244 40.1621 5.19503 40.0322 5.09763 39.9023C5.0327 39.8374 5.00023 39.7725 4.93529 39.7075C4.90283 39.74 4.87036 39.7725 4.83789 39.8049C5.00023 39.9673 5.1301 40.1621 5.25997 40.3569Z" fill="#FEFEFE"/>
<path d="M7.33799 42.1105C7.04578 42.2404 6.94838 42.0456 6.78604 41.8832C6.59124 41.656 6.39643 41.4611 6.20163 41.2663C6.10423 41.2014 6.00682 41.1365 5.87695 41.104C6.36397 41.6884 6.88345 42.2728 7.43539 42.7923C7.46786 42.5975 7.46786 42.4027 7.46786 42.2079C7.50033 42.2079 7.37046 42.1105 7.33799 42.1105Z" fill="#FEFEFE"/>
<path d="M35.7475 35.5845C35.7151 35.5845 35.6501 35.5845 35.6177 35.5845C33.7021 36.8507 30.3904 37.7273 26.4943 37.9546C26.754 38.3117 27.241 39.4156 27.4683 39.6754C27.5657 39.7728 27.6307 39.9027 27.6956 40.0001C27.7281 40.065 27.6307 40.1949 27.5657 40.2273C27.1436 40.3572 26.4294 39.9351 26.2995 39.4806C26.267 39.4156 26.2995 39.3182 26.332 39.2533C26.3644 39.1234 26.0722 38.1494 26.0073 37.9546C25.8125 37.9546 25.6501 37.9546 25.4553 37.9546C25.1956 37.9546 24.9034 37.9871 24.6436 37.9871C23.9294 37.9871 23.2475 37.9546 22.5982 37.8897C19.6112 37.6624 17.0138 37.0455 15.1956 36.1689C15.1956 36.2014 15.1956 36.2338 15.1956 36.2663C15.1956 36.2988 15.1307 36.3637 15.0982 36.3637C15.0008 36.3637 14.8384 36.3637 14.806 36.2988C14.6761 36.0715 14.254 36.2338 14.319 35.8767C14.319 35.8117 14.3514 35.7793 14.4164 35.7468C14.319 35.6819 14.2216 35.6494 14.1566 35.5845C14.1566 35.5845 14.1566 35.5845 14.1242 35.5845C12.8579 35.7468 11.6242 36.0715 10.4553 36.4936C10.4553 36.526 10.4878 36.591 10.4878 36.6234C10.4878 36.6884 10.4229 36.8182 10.4229 36.8507C10.6177 37.2078 10.3255 37.3702 10.1307 37.5325C10.0657 37.5975 9.90338 37.565 9.83845 37.5325C9.80598 37.5001 9.80598 37.3702 9.80598 37.2728C9.80598 37.1429 9.83845 36.9806 9.87092 36.8507C9.90338 36.7858 9.90338 36.7533 9.93585 36.6884C8.92936 37.1104 7.92286 37.5975 7.01377 38.1819C7.07871 38.2793 7.11118 38.3767 7.07871 38.4416C7.01377 38.6364 6.91637 38.7988 6.85144 38.9936C6.6891 38.8637 6.52676 38.7338 6.36442 38.604C6.10468 38.7988 5.81247 38.9936 5.55273 39.2208C5.61767 39.2208 5.65014 39.2533 5.6826 39.2858C5.94234 39.578 6.23455 39.8377 6.49429 40.1299C6.49429 40.0001 6.46183 39.8702 6.46183 39.7728C6.46183 39.6429 6.36442 39.4806 6.36442 39.3507C6.36442 39.2533 6.42936 39.1559 6.49429 39.026C6.55923 39.091 6.65663 39.1559 6.72157 39.2208C6.7865 39.3832 6.81897 39.5455 6.85144 39.6754C6.91637 39.8702 6.94884 40.0325 7.20858 40.065C7.24105 40.065 7.24105 40.065 7.27351 40.0975C7.27351 40.0325 7.27351 40.0001 7.27351 39.9351C7.27351 39.8702 7.27351 39.7728 7.27351 39.7079C7.24105 39.4481 7.40338 39.1884 7.63066 39.1884C7.76053 39.1884 7.92286 39.3182 8.02027 39.4156C8.24754 39.6104 8.11767 39.7728 7.95533 39.9351C7.92286 39.9676 7.85793 40.0325 7.82546 40.0975C7.72806 40.1624 7.66312 40.2273 7.56572 40.2598C7.53325 40.2923 7.46832 40.2923 7.40338 40.2923C7.50079 40.4221 7.59819 40.552 7.79299 40.5195C7.79299 40.5845 7.79299 40.7143 7.76053 40.7143C7.56572 40.8442 7.37092 40.9416 7.17611 41.0066C7.14364 41.0066 7.14364 41.0066 7.11118 41.0066C7.11118 41.0715 7.11118 41.1364 7.07871 41.2338C7.01377 41.4286 7.14364 41.526 7.37092 41.5585C7.92286 41.6234 8.44234 42.2079 8.47481 42.7273C8.50728 43.2793 9.15663 44.1884 9.64364 44.3507C9.70858 44.3832 9.80598 44.3182 9.87092 44.3507C9.96832 44.3832 10.1307 44.3832 10.1631 44.4481C10.2605 44.5455 10.3255 44.6429 10.4229 44.7403C10.4553 44.7079 10.4878 44.7078 10.4878 44.7078C10.8449 44.6429 11.0073 44.7403 11.0722 45.0001C11.1047 45.1624 11.0722 45.2923 10.9423 45.3897C11.1047 45.5845 11.267 45.7793 11.4294 45.9416C12.1436 46.3962 12.8579 46.8182 13.6371 47.2078C13.5722 47.1104 13.5073 47.0455 13.4423 46.9481C13.4099 46.9156 13.4423 46.8507 13.4748 46.8182C13.5722 46.6884 14.3514 46.7208 14.3514 46.8832C14.3839 47.013 14.254 47.1754 14.2216 47.3053C14.1242 47.3377 14.0268 47.3702 13.9618 47.4027C14.8709 47.8572 15.8125 48.2468 16.7865 48.604C16.8514 48.539 16.9813 48.539 17.0787 48.5065C17.241 48.4416 17.3384 48.4091 17.4034 48.1819C17.4683 47.9221 17.6307 47.8897 17.8255 48.0845C17.9878 48.2143 18.0527 48.2468 18.1826 48.052C18.28 47.9221 18.5073 47.8247 18.6696 47.7273C18.8969 47.5975 18.9618 47.8247 19.1242 47.8897C19.319 48.0195 20.0008 47.8247 20.1307 47.565C20.293 47.3053 20.4229 47.2728 20.6826 47.4351C20.7475 47.4676 20.9423 47.4351 21.0073 47.3702C21.1371 47.1429 21.2346 47.0455 21.4294 47.3053C21.5917 47.5001 21.754 47.4351 21.819 47.2078C21.8514 46.9806 22.0138 46.9481 22.1436 46.9156C22.4683 46.8182 22.7605 46.7533 23.0852 46.6559C23.4099 46.5585 23.4099 46.8182 23.4748 47.013C23.5397 47.2728 23.4748 47.4027 23.2151 47.4351C23.0527 47.4351 22.8579 47.4027 22.7281 47.3053C22.5657 47.2078 22.4359 47.1754 22.306 47.3377C22.241 47.4351 22.1761 47.6299 22.0787 47.6624C21.9164 47.6949 21.6891 47.6949 21.4943 47.6299C21.267 47.5325 21.1372 47.5325 21.1047 47.8247C21.1047 47.8897 20.9423 47.9871 20.8449 48.0195C20.6177 48.0845 20.3904 48.1169 20.1956 48.1819C19.9359 48.2793 19.6112 48.2468 19.5787 48.6364C19.5787 48.6689 19.2865 48.7014 19.2865 48.6689C19.1566 48.4416 18.9618 48.5066 18.767 48.539C18.3774 48.6364 17.9553 48.6364 17.5657 48.7988C18.4099 49.0585 19.2865 49.2858 20.1631 49.4481C20.6501 49.3182 21.1372 49.1559 21.5917 49.026C21.6566 48.9936 21.7865 49.026 21.8514 49.0585C21.9813 49.1234 22.1112 49.1884 22.2086 49.2858C22.2735 49.3507 22.3384 49.4481 22.3384 49.513C22.3384 49.578 22.241 49.6754 22.2086 49.7403H22.1761C23.0527 49.9351 24.0268 50.0001 25.0008 50.0001C30.3904 50.0001 35.3579 48.3117 39.4164 45.4221C39.3839 45.3897 39.3514 45.3572 39.2865 45.2923C39.0592 45.0325 39.0592 44.9351 39.319 44.7078C39.5787 44.513 39.6436 44.513 39.8384 44.7403C39.9359 44.8377 39.9683 44.9027 40.0008 45.0001C41.9164 43.5715 43.6047 41.8507 45.0333 39.9351C42.4683 37.5975 39.254 36.0715 35.7475 35.5845ZM10.5527 43.1819C10.4229 43.3117 10.2605 43.3442 10.1307 43.1819C9.90338 42.9221 9.67611 42.6624 9.44884 42.4027C9.25403 42.1754 9.2865 41.9806 9.54624 41.8507C9.44884 41.7858 9.2865 41.6559 9.22157 41.6884C8.89689 41.8507 8.79949 41.6234 8.66962 41.4286C8.57222 41.2988 8.47481 41.2014 8.37741 41.0715C8.02027 40.6169 8.28001 39.9351 8.83196 39.8377C8.89689 39.8377 9.02676 39.9351 9.0917 40.0001C9.22157 40.1624 9.31897 40.3897 9.48131 40.5195C9.93585 40.8117 9.70858 41.2663 9.74105 41.6234C9.74105 41.6884 9.61118 41.7533 9.54624 41.8182C9.67611 41.9481 9.77351 42.078 10.0008 41.9481C10.0982 41.9156 10.293 41.9806 10.3904 42.0455C10.5527 42.2403 10.6826 42.4676 10.8125 42.6624C10.9099 42.9546 10.6826 43.052 10.5527 43.1819ZM12.8579 36.1364C12.9229 36.1364 13.0527 36.2338 13.0527 36.2663C13.0527 36.3637 12.9553 36.4286 12.9229 36.526C12.8579 36.4611 12.793 36.4286 12.6956 36.3312C12.7281 36.2663 12.793 36.1364 12.8579 36.1364ZM11.3644 39.1234C11.332 39.1559 11.2021 39.1559 11.0397 39.1559C11.0722 39.026 11.0722 38.8962 11.1371 38.8637C11.2021 38.7988 11.2995 38.8312 11.3969 38.7988C11.3969 38.9286 11.4294 39.0585 11.3644 39.1234ZM12.0787 45.1299C12.0138 45.065 11.8514 45.0001 11.8514 44.9351C11.8514 44.7728 11.9164 44.6104 11.9488 44.4481C12.0462 44.5455 12.1436 44.6429 12.306 44.7728C12.2086 44.9351 12.1436 45.0325 12.0787 45.1299ZM13.4099 40.6494C13.2475 40.7793 12.6307 40.8767 12.5008 40.7793C12.4359 40.7143 12.3709 40.6169 12.4034 40.5195C12.4359 40.3572 12.5008 40.1624 12.5657 40.0001C12.5982 39.9676 12.6956 39.9027 12.7605 39.9351C13.0203 40.065 13.2151 40.2273 13.5073 40.2923C13.7346 40.3572 13.4748 40.552 13.4099 40.6494ZM14.1242 44.5455C13.8644 44.6429 13.832 44.4156 13.7346 44.1559C13.767 44.091 13.7995 43.8962 13.8969 43.8637C14.0917 43.7663 14.1891 43.9286 14.2216 44.091C14.2865 44.2533 14.3839 44.4481 14.1242 44.5455ZM16.7216 43.2468C16.754 43.2468 16.819 43.3117 16.8514 43.3442C16.8514 43.3767 16.819 43.4416 16.7865 43.4416C16.7216 43.4416 16.6891 43.4092 16.5917 43.3767C16.6566 43.3117 16.6891 43.2468 16.7216 43.2468ZM14.6112 39.7403C14.7086 39.7728 14.8384 39.7728 14.8384 39.8053C14.8709 39.8702 14.806 39.9676 14.806 40.065C14.7086 40.0325 14.6112 40.0325 14.5787 40.0001C14.5462 39.9351 14.6112 39.8377 14.6112 39.7403ZM14.8709 44.4156C14.741 44.3832 14.6436 44.2208 14.5787 44.091C14.5138 43.9286 14.4813 43.7663 14.6761 43.6689C14.7735 43.604 14.9034 43.5715 15.0657 43.5066C15.1956 43.5066 15.3579 43.5066 15.4878 43.5066C15.7151 43.539 15.7475 43.5715 15.5852 43.7988C15.5527 43.8637 15.4878 43.9286 15.4553 43.9936C15.3904 44.3182 15.1631 44.4806 14.8709 44.4156ZM15.7151 47.6299C15.5527 47.6949 15.3904 47.5975 15.4229 47.4351C15.4229 47.2403 15.293 46.9806 15.5527 46.8832C15.8125 46.7858 15.8125 47.0455 15.8774 47.2078C15.8774 47.3702 15.9748 47.5325 15.7151 47.6299ZM15.5203 38.7988C15.4553 38.7988 15.3255 38.6364 15.2605 38.5715C15.2281 38.4091 15.2281 38.3117 15.2281 38.2143C15.2281 38.1494 15.293 38.052 15.3579 38.0195C15.4229 37.9871 15.5527 38.0195 15.6177 38.0845C15.6826 38.1494 15.7475 38.2468 15.78 38.3117C15.8449 38.4091 15.9423 38.4741 16.0073 38.5715C15.8449 38.6364 15.6826 38.7663 15.5203 38.7988ZM16.5268 44.8053C16.332 44.8053 16.1696 44.8053 16.0073 44.8053C16.1047 44.6429 16.1371 44.4481 16.267 44.3182C16.2995 44.2858 16.5592 44.3182 16.5917 44.3832C16.6566 44.4806 16.5592 44.6104 16.5268 44.8053ZM17.7281 47.078C17.4359 47.1754 17.1436 47.2403 16.8514 47.2728C16.819 47.2728 16.6891 47.2078 16.6891 47.1429C16.6891 47.078 16.7216 46.9481 16.7865 46.9156C16.9164 46.8507 17.0787 46.8507 17.2086 46.7858C17.3384 46.7533 17.5008 46.7208 17.6307 46.7208C17.6956 46.7208 17.8255 46.7858 17.8579 46.8507C17.8579 46.9156 17.793 47.078 17.7281 47.078ZM17.8904 46.1689C17.8579 46.2014 17.7281 46.2014 17.7281 46.1689C17.6956 46.104 17.7281 46.039 17.7281 45.9091C17.8579 45.9416 17.9229 45.9416 17.9878 45.9741C17.9229 46.039 17.9229 46.1364 17.8904 46.1689ZM20.4553 46.7533C20.4229 46.7858 20.3579 46.7533 20.293 46.7208C20.3255 46.6559 20.3255 46.5585 20.3579 46.526C20.3904 46.4936 20.4553 46.526 20.5852 46.526C20.5527 46.6234 20.5203 46.7208 20.4553 46.7533ZM20.4553 46.3962C20.3904 46.4611 20.2605 46.4611 20.0982 46.526C20.0333 46.4936 19.8384 46.4936 19.8384 46.4286C19.806 46.2338 19.8384 46.0066 19.8384 45.8117C19.9034 45.8117 20.0008 45.8117 20.0657 45.8442C20.1956 45.9091 20.293 45.9741 20.4229 46.039C20.4878 46.0715 20.5527 46.1364 20.6501 46.2014C20.5527 46.2338 20.5203 46.3312 20.4553 46.3962ZM21.2021 42.5325C21.2346 42.5325 21.332 42.5975 21.332 42.6299C21.332 42.6949 21.2995 42.7598 21.267 42.8247C21.2021 42.7923 21.1696 42.7923 20.9423 42.6949C21.0722 42.5975 21.1372 42.5325 21.2021 42.5325ZM21.2346 46.1689C21.1696 46.2014 21.1047 46.104 20.9748 46.039C21.0722 45.9416 21.1371 45.8442 21.1696 45.8442C21.2346 45.8442 21.3644 45.9092 21.3644 45.9741C21.3969 46.039 21.2995 46.1689 21.2346 46.1689ZM22.1761 40.0325C22.2086 40.0001 22.4034 40.0975 22.4359 40.1949C22.5333 40.4221 22.3384 40.4546 22.1761 40.552C22.0462 40.5195 21.7865 40.4871 21.7865 40.4221C21.7216 40.1299 22.0462 40.1299 22.1761 40.0325ZM22.4359 41.8832C22.4034 41.9481 22.4034 42.013 22.3709 42.0455C22.306 42.078 22.241 42.0455 22.1112 42.0455C22.1761 41.9481 22.2086 41.8832 22.241 41.8507C22.306 41.8182 22.3709 41.8507 22.4359 41.8832ZM22.4683 45.8442C22.4034 45.8117 22.3384 45.7793 22.1761 45.7143C22.2735 45.6494 22.3384 45.5845 22.3709 45.5845C22.4359 45.5845 22.5008 45.6494 22.5333 45.6819C22.5333 45.7143 22.4683 45.7793 22.4683 45.8442ZM22.5333 43.4091C22.3384 43.4091 22.1112 43.3767 21.9164 43.3442C21.8839 43.3442 21.819 43.2468 21.819 43.2143C21.819 43.1494 21.8514 43.0845 21.8839 43.052C21.9488 43.052 22.0138 43.0195 22.0462 43.0195C22.2086 43.0195 22.4034 43.0195 22.5657 43.052C22.6307 43.0845 22.6956 43.1494 22.7605 43.2143C22.6307 43.2793 22.5657 43.4091 22.5333 43.4091ZM22.9229 49.513C22.8904 49.5455 22.7605 49.4481 22.7281 49.3832C22.6956 49.3182 22.7605 49.1884 22.7605 49.0585C22.9553 49.2208 23.0203 49.2533 23.1177 49.3182C23.0527 49.3832 23.0203 49.4806 22.9229 49.513ZM35.9099 41.6559C36.0397 41.6884 36.2346 41.6884 36.2995 41.7858C36.3969 41.9156 36.3969 42.1104 36.3969 42.3053C36.3969 42.3053 36.2021 42.3702 36.1372 42.3702C36.0397 42.3377 35.9748 42.2403 35.9099 42.1429C35.8125 42.078 35.7151 42.013 35.6501 41.9481C35.7151 41.8507 35.8125 41.7533 35.9099 41.6559ZM34.6436 39.3832C34.7086 39.3832 34.806 39.4156 34.8709 39.4156C34.9683 39.4156 35.0657 39.4481 35.1631 39.4156C35.4553 39.3832 35.5852 39.6104 35.6501 39.8053C35.6826 39.8702 35.5527 40.065 35.4878 40.1624C35.3255 40.3572 35.1631 40.2273 35.0008 40.0975C34.9359 40.0325 34.8709 40.0001 34.806 39.9351C34.7735 39.8377 34.7086 39.7403 34.6761 39.6104C34.6436 39.578 34.6436 39.4806 34.6436 39.3832ZM33.0852 42.8572C33.1177 42.8572 33.2475 42.9546 33.2475 42.9546C33.2475 43.0195 33.1826 43.1169 33.1177 43.1494C33.0852 43.1819 32.9878 43.0845 32.8904 43.052C32.9878 42.9546 33.0203 42.8897 33.0852 42.8572ZM32.2735 45.3897C32.3709 45.4871 32.5008 45.6169 32.5657 45.7143C32.5982 45.8117 32.5657 45.9091 32.5657 46.0065C32.4683 46.0065 32.3709 45.9741 32.2735 45.9416C32.2086 45.9091 32.1761 45.8442 32.0787 45.7143C32.1112 45.7468 32.0138 45.6819 32.0138 45.6169C31.9813 45.552 31.9813 45.4221 32.0462 45.3572C32.0787 45.3572 32.2086 45.3572 32.2735 45.3897ZM32.0138 44.578C31.9813 44.6429 31.9164 44.7079 31.8514 44.7403C31.7865 44.7728 31.6891 44.7079 31.5268 44.6754C31.6566 44.578 31.7216 44.4806 31.7865 44.4806C31.8839 44.4481 31.9488 44.513 32.0138 44.578ZM31.1696 40.6494C31.3969 40.4871 31.4943 40.6169 31.6242 40.7793C31.7865 41.0066 31.7216 41.104 31.4618 41.2988C31.2346 41.4936 31.1047 41.3312 30.9748 41.1689C30.8449 40.9741 30.9099 40.8442 31.1696 40.6494ZM30.7151 40.0975C30.78 40.1299 30.8449 40.1624 30.8449 40.1949C30.8449 40.2598 30.78 40.2923 30.78 40.3247C30.7475 40.2923 30.6826 40.2598 30.6826 40.2273C30.6501 40.1949 30.6826 40.1624 30.7151 40.0975ZM30.4229 43.1819C30.4878 43.2468 30.5527 43.3117 30.6826 43.4416C30.7475 43.539 30.8449 43.6689 30.9099 43.7988C30.9423 43.8637 30.9423 43.9611 30.9099 44.026C30.8774 44.0585 30.78 44.091 30.6826 44.0585C30.5852 44.0585 30.4878 43.9611 30.4229 43.9936C30.2281 44.091 30.0657 44.1884 29.9359 43.9286C29.8384 43.7014 29.741 43.4416 29.9683 43.2143C30.0982 43.0195 30.2281 42.9871 30.4229 43.1819ZM29.8384 42.565C29.9359 42.6949 29.9034 42.8247 29.741 42.8897C29.5787 42.9546 29.4164 43.0195 29.254 43.0845C29.2216 43.052 29.1891 43.0195 29.1566 42.9871C29.254 42.8247 29.3514 42.6624 29.4813 42.5325C29.6436 42.3702 29.741 42.4351 29.8384 42.565ZM29.0917 40.4221C29.1242 40.3897 29.2865 40.4871 29.2865 40.552C29.2865 40.6494 29.2216 40.7468 29.1566 40.8117C29.1242 40.8442 29.0268 40.7468 28.8969 40.6819C28.9943 40.5845 29.0268 40.4546 29.0917 40.4221ZM23.3774 40.0325C23.3774 40.0001 23.3774 39.9351 23.3774 39.9027C23.4099 39.9351 23.4748 39.9351 23.4748 39.9676C23.5073 40.0001 23.4748 40.065 23.4748 40.1299C23.4423 40.065 23.4099 40.065 23.3774 40.0325ZM23.6047 48.8962C23.5722 48.8962 23.5073 48.8637 23.4099 48.8637C23.5073 48.7663 23.5397 48.7338 23.6047 48.7014C23.6371 48.7014 23.6696 48.7338 23.7021 48.7663C23.6696 48.8312 23.6371 48.8637 23.6047 48.8962ZM24.2216 46.9806C24.2216 46.9156 24.254 46.8182 24.319 46.7533C24.3514 46.7208 24.4488 46.7208 24.5138 46.6884C24.5787 46.6884 24.6761 46.6559 24.741 46.6559C24.7735 46.6559 24.8384 46.6559 24.8709 46.6884C24.9034 46.7208 24.9359 46.8507 24.9359 46.8507C24.7735 46.9481 24.5787 47.0455 24.3839 47.1104C24.3514 47.1104 24.2216 47.013 24.2216 46.9806ZM25.4878 49.3507C25.4229 49.4806 25.3579 49.6104 25.2605 49.7403C25.2281 49.8053 25.1307 49.8702 25.0982 49.8702C25.0333 49.8702 24.9359 49.8053 24.9359 49.7403C24.8709 49.6104 24.8709 49.4481 24.8384 49.3182C24.8384 49.2533 24.806 49.1884 24.806 49.1234C24.806 48.9936 24.7735 48.7663 24.806 48.7338C24.9683 48.6364 25.1956 48.5715 25.3904 48.5715C25.5203 48.5715 25.6177 49.1234 25.4878 49.3507ZM24.9034 45.2598C24.7086 45.2598 24.6436 45.1624 24.7086 44.9676C24.9034 44.4806 24.9034 44.4806 25.2605 44.3832C25.293 44.3832 25.4229 44.3507 25.4878 44.3507C25.5527 44.3507 25.6177 44.4481 25.6177 44.513C25.6501 44.8053 25.1956 45.2598 24.9034 45.2598ZM27.4359 48.4416C27.2086 48.5715 27.1112 48.5066 27.0138 48.0845C27.0138 48.052 26.9813 47.9871 26.9813 47.8897C26.9813 47.8247 27.0462 47.7273 27.1112 47.6949C27.1761 47.6624 27.2735 47.6949 27.3384 47.7273C27.4034 47.7923 27.4359 47.8897 27.5333 47.9546C27.6307 48.0195 27.7281 48.0845 27.8255 48.1494C27.6631 48.2793 27.5657 48.3767 27.4359 48.4416ZM27.8255 45.7793C27.7281 45.8442 27.5982 45.8767 27.4683 45.9091C27.0462 46.039 26.5917 46.1364 26.1696 46.2663C26.1696 46.2988 26.2021 46.3637 26.1696 46.3962C26.1047 46.4611 26.0397 46.526 25.9423 46.591L25.8449 46.4936C25.9099 46.4286 25.9423 46.3637 26.0073 46.2988C26.0397 46.2663 26.1047 46.2663 26.1371 46.2663C26.1047 46.104 26.0073 45.9416 26.2346 45.8442C26.7216 45.6819 27.241 45.552 27.7281 45.4221C27.8255 45.3897 27.9229 45.4871 28.0203 45.4871C27.9553 45.6169 27.8904 45.7143 27.8255 45.7793ZM28.0852 41.4936C27.9553 41.526 27.5657 41.2014 27.5982 41.0715C27.6631 40.8767 27.8255 40.7143 27.9553 40.552C27.9878 40.5195 28.1826 40.5845 28.2475 40.6494C28.4099 40.8117 28.5722 41.039 28.7346 41.2338C28.7346 41.2338 28.7346 41.2338 28.7021 41.2338C28.8969 41.4611 29.0917 41.6559 29.254 41.8832C29.319 41.9481 29.2865 42.078 29.2865 42.2078C29.1891 42.1754 29.0592 42.2079 28.9943 42.1429C28.8644 42.0455 28.7346 41.8832 28.6047 41.7533C28.5073 41.5585 28.3774 41.3962 28.0852 41.4936ZM28.832 47.6299C28.7346 47.5975 28.6696 47.5975 28.6371 47.5325C28.6047 47.5001 28.6696 47.3702 28.6696 47.3702C28.7346 47.3702 28.7995 47.4027 28.8644 47.4027C28.8969 47.5001 28.8644 47.565 28.832 47.6299ZM29.1891 45.8767C29.1242 45.9091 29.0268 45.8442 28.8644 45.7793C28.9943 45.6494 29.0592 45.552 29.1566 45.552C29.2216 45.552 29.319 45.6169 29.3839 45.6494C29.319 45.7143 29.2865 45.8442 29.1891 45.8767ZM30.3255 47.6299C29.9034 47.7273 29.8384 47.6949 29.741 47.3377C29.6761 47.078 29.7735 46.9806 30.0008 46.9156C30.3904 46.8182 30.6177 46.9156 30.7151 47.3053C30.78 47.6624 30.4553 47.5325 30.3255 47.6299ZM31.0722 45.4221C30.8449 45.4871 30.6177 45.5195 30.4229 45.5845V45.6169C30.293 45.6494 30.1307 45.6819 30.0008 45.6494C29.9034 45.6494 29.7735 45.552 29.741 45.4871C29.7086 45.4221 29.806 45.2598 29.8709 45.2273C30.1307 45.1299 30.3904 45.065 30.5527 44.7728C30.6177 44.6754 30.9099 44.6429 31.0722 44.6754C31.1047 44.6754 31.1047 44.7078 31.1371 44.7078C31.2021 44.8053 31.2346 44.9351 31.267 45.065C31.3644 45.2923 31.2346 45.3897 31.0722 45.4221ZM32.4683 47.2078C32.306 47.3053 32.2086 47.4351 32.0787 47.565C31.9813 47.4027 31.8839 47.2403 31.7865 47.078C31.7216 47.013 31.6242 46.9806 31.5592 46.9156C31.4943 46.8507 31.4294 46.8182 31.3644 46.7533C31.4294 46.6884 31.4943 46.591 31.5917 46.526C31.6891 46.4611 31.819 46.4286 31.8839 46.4286C32.2735 46.3312 32.4683 46.3312 32.5657 46.4936C32.5982 46.4286 32.6631 46.3962 32.6956 46.3312C32.793 46.3312 32.9878 46.2663 33.0203 46.2988C33.1826 46.4611 33.2475 46.6884 33.3774 46.8832C33.3774 46.8832 33.3449 46.9481 33.3125 46.9481C33.0852 46.9156 32.8579 46.9481 32.6307 46.8832C32.6631 47.013 32.5982 47.1104 32.4683 47.2078ZM33.4748 46.104C33.5722 46.104 33.6696 46.2338 33.832 46.3312C33.767 46.526 33.7346 46.7533 33.6696 46.7533C33.4423 46.8507 33.4423 46.591 33.3774 46.4611C33.3125 46.3312 33.28 46.1364 33.4748 46.104ZM34.1566 47.3702C34.1566 47.5001 33.7346 47.8247 33.6371 47.8247C33.5073 47.8247 33.4099 47.7923 33.28 47.7923C33.3449 47.6624 33.3774 47.5325 33.4423 47.4351C33.4748 47.3702 33.5397 47.3377 33.6696 47.2403C33.6696 47.2403 33.7346 47.1754 33.832 47.1429C33.9294 47.1104 34.0268 47.1104 34.1566 47.078C34.1566 47.1754 34.1566 47.2728 34.1566 47.3702ZM35.3255 44.3507C35.0333 44.4156 34.741 44.513 34.4164 44.578C34.1566 44.6104 33.8644 44.7403 33.6696 44.4156C33.6371 44.3832 33.5722 44.3832 33.5397 44.3507C33.4423 44.2858 33.3449 44.2208 33.2475 44.1884C33.3449 44.1234 33.4423 43.9936 33.5397 43.9611C33.8644 43.8637 34.2216 43.6689 34.5138 44.026C34.5787 44.091 34.7735 44.0585 34.9359 44.0585C35.0982 44.026 35.2605 43.9611 35.4229 43.9611C35.5203 43.9611 35.5852 44.0585 35.6826 44.091C35.6177 44.1884 35.5852 44.2533 35.4878 44.3182C35.4553 44.3507 35.3904 44.3507 35.3255 44.3507C35.3255 44.3832 35.3255 44.3507 35.3255 44.3507ZM36.0722 46.1689C35.9099 46.2663 35.8774 46.3962 35.8774 46.591C35.8774 46.6559 35.8125 46.7533 35.7475 46.7533C35.6826 46.7533 35.5852 46.7208 35.5527 46.6559C35.3255 46.3637 35.4553 45.7468 35.7475 45.552C35.9099 45.4546 36.0722 45.552 36.1696 45.9091C36.1371 45.9416 36.1371 46.104 36.0722 46.1689ZM36.819 43.4416C36.754 43.539 36.6242 43.604 36.4943 43.7338C36.332 43.7014 36.0722 43.7014 36.0397 43.604C35.9099 43.3442 36.2346 43.3117 36.3644 43.2468C36.4618 43.1819 36.6242 43.2143 36.754 43.2468C36.7865 43.2468 36.8514 43.4091 36.819 43.4416ZM36.8839 41.7533C36.7865 41.8507 36.6566 41.9806 36.5268 41.8182C36.4943 41.7533 36.5592 41.591 36.5917 41.4286C36.754 41.4286 36.8839 41.4286 37.0138 41.4286C36.9813 41.526 36.9488 41.6559 36.8839 41.7533ZM37.9878 43.6689C37.9229 43.7014 37.8579 43.7014 37.793 43.7014C37.6307 43.7014 37.3709 43.7988 37.3384 43.539C37.306 43.4416 37.5333 43.3117 37.6307 43.1819C37.6631 43.2143 37.6631 43.2143 37.6956 43.2468C37.7605 43.2468 37.8255 43.2143 37.8904 43.2143C38.0527 43.2468 38.3774 43.2468 38.3774 43.3117C38.4099 43.604 38.1177 43.5715 37.9878 43.6689ZM41.4294 38.5066C41.2021 38.539 40.9423 38.3442 40.7151 38.2468C40.7151 38.0195 40.7475 37.7598 40.7475 37.5325C40.8125 37.5325 40.9099 37.5325 40.9748 37.565C41.2021 37.6624 41.3644 37.9221 41.6891 37.7923C41.7216 37.7923 41.8839 37.9546 41.8839 37.9546C41.7216 38.1819 41.5917 38.5066 41.4294 38.5066Z" fill="#FEFEFE"/>
<path d="M26.3062 13.3906L27.0448 4H22.7188L23.4925 13.3906H26.3062Z" fill="#FEFEFE"/>
<path d="M28.6978 10.7528C28.7682 10.7176 28.8737 10.8583 28.944 10.9287C29.2606 11.2452 29.5419 11.5266 29.8233 11.8783C30.2453 12.3707 30.6322 12.8982 31.0191 13.4258C31.1246 13.6016 31.3005 13.7775 31.0894 13.9885C30.9136 14.1644 30.7729 14.4457 30.4564 14.1995C30.4212 14.1644 30.3509 14.1644 30.3157 14.1644C30.0343 14.3402 29.8936 14.1995 29.753 13.9885C29.6123 13.7775 29.4716 13.6368 29.6474 13.3554C29.7881 13.1444 29.6123 13.0037 29.4012 13.0389C28.9792 13.1444 28.8033 12.863 28.5923 12.6168C28.4868 12.4762 28.3813 12.3355 28.2406 12.1948L27.9944 15.2195H21.8044L21.6989 14.094C21.6285 14.094 21.4878 14.094 21.4878 14.0589C21.4527 13.9885 21.4878 13.8478 21.4878 13.7071C21.5582 13.7071 21.6285 13.7423 21.6989 13.7423L21.2065 7.58743C16.6343 9.09977 13.293 13.3554 13.1172 18.3849V18.42C13.1172 18.5607 13.1172 18.7014 13.1172 18.8421V20.3192C13.4337 20.7061 13.7151 21.093 14.0316 21.5151C14.102 21.5854 14.102 21.7261 14.1371 21.7964C14.1723 22.1833 14.2778 22.3591 14.524 22.4647C14.524 22.3591 14.5592 22.2536 14.6999 22.2536C14.8757 22.2536 15.0516 22.324 15.1923 22.3943C15.1219 22.4647 15.0164 22.5702 14.9461 22.6405C15.1219 22.746 15.2978 22.8867 15.4385 23.0274C15.6495 23.2384 15.755 23.5198 15.9308 23.7308C16.0715 23.9067 16.2122 24.0473 16.1419 24.2935C16.1067 24.3639 16.2474 24.5397 16.2826 24.5397C16.8101 24.5046 17.0211 24.9618 17.3377 25.2432C17.7597 25.63 18.0411 26.1576 18.428 26.6148C18.5687 26.7907 18.7445 26.8962 18.8852 27.072C19.4479 27.7754 19.9755 28.4789 20.5382 29.1471C21.0306 29.745 21.523 30.3077 21.945 30.8001C22.2616 31.1167 22.5078 31.3629 22.754 31.6091C23.0002 31.8553 23.1409 32.3828 22.965 32.6994C22.9298 32.7697 22.754 32.8049 22.7188 32.7697C22.543 32.6642 22.4023 32.5587 22.2264 32.418C22.0506 32.2773 21.9099 32.0311 21.5933 32.1366C21.3823 32.207 20.9603 31.6794 21.0658 31.4684C21.1713 31.187 21.0658 31.0463 20.9251 30.8705C20.8196 30.7298 20.7492 30.5891 20.8548 30.3781C20.9954 29.9912 20.6789 29.6747 20.292 29.6395C20.1513 29.6395 19.9403 29.6043 19.8348 29.4988C19.6238 29.2878 19.4128 29.2526 19.1666 29.323C19.1314 29.1119 19.1666 28.8657 19.061 28.6899C18.85 28.3382 18.5335 28.0568 18.2521 27.7403C18.1818 27.6699 18.1114 27.5996 18.0411 27.6348C17.3728 27.7403 17.3025 27.1072 16.986 26.7907C16.9508 26.7907 16.9508 26.7203 16.9508 26.6852C16.9156 26.6852 16.8805 26.6852 16.8101 26.7203C16.7398 26.7203 16.5991 26.65 16.5639 26.5796C16.5288 26.5093 16.5991 26.3686 16.6694 26.3334C16.7749 26.2983 16.8805 26.2631 16.986 26.2631C16.9156 26.0521 16.7046 25.9114 16.5639 25.7004C16.4232 25.4893 16.2474 25.3135 16.0715 25.1376C15.8957 24.9266 15.755 24.6804 15.4033 24.8211C15.3329 24.8563 15.1923 24.7508 15.1219 24.6804C14.8757 24.3991 14.6647 24.1177 14.4185 23.8363C14.3833 23.766 14.313 23.6956 14.313 23.6605C14.4888 22.8867 13.7503 22.6405 13.4689 22.1481C13.4337 22.0778 13.293 22.0778 13.1875 22.0778C13.1875 22.0778 13.1875 22.0778 13.1524 22.0778V24.5046C13.293 24.5749 13.4337 24.6804 13.6447 24.6101C13.8558 24.5749 14.1723 25.0673 14.102 25.3135C14.0316 25.5597 13.6799 25.7355 13.4337 25.7004C13.3282 25.7004 13.2227 25.7004 13.1172 25.7004V25.9114C13.1172 25.9466 13.1524 26.0169 13.1524 26.0521C13.293 26.2631 13.4689 26.4038 13.5744 26.6148V26.65H13.6096C13.8206 26.6148 13.9965 26.5796 14.2075 26.5093C14.1723 26.4741 14.1371 26.4038 14.102 26.3686C13.9261 26.1224 13.9965 25.9817 14.2075 25.8059C14.3833 25.63 14.5592 25.5597 14.7702 25.7707C14.8757 25.8762 14.9812 26.0169 15.0516 26.0521C15.1571 26.1928 15.2274 26.2983 15.2978 26.3686C15.3329 26.439 15.4033 26.5093 15.4385 26.5796C15.4385 26.5796 15.4385 26.5796 15.4736 26.5796C15.7902 26.5445 16.0715 26.7555 16.0715 27.072C16.0715 27.1424 16.0012 27.2831 15.9308 27.3182C15.7198 27.3534 15.5088 27.4941 15.2626 27.3534C15.2274 27.3886 15.1923 27.4237 15.1571 27.4237C14.735 27.7403 14.735 27.7403 15.0516 28.2327C15.1219 28.3734 15.2274 28.514 15.0516 28.5844C14.9812 28.6195 14.8054 28.5492 14.735 28.514C14.5944 28.4085 14.524 28.2678 14.4185 28.1623C14.2778 28.0216 14.1371 27.8106 13.8558 27.9161C13.8206 27.9161 13.7854 27.9161 13.7503 27.881C13.6096 27.9161 13.5041 27.8458 13.3986 27.6699C13.293 27.5293 13.2227 27.5996 13.1172 27.7403V28.6547C13.1524 28.6899 13.1875 28.7251 13.2227 28.7602C13.6447 29.2174 13.6447 29.323 13.293 29.6043C13.2579 29.6395 13.1875 29.7098 13.1524 29.745V30.3781C13.2227 30.3781 13.293 30.3781 13.3986 30.4484C13.4689 30.4836 13.6447 30.4133 13.7503 30.3781C13.8558 30.3429 13.9261 30.2374 13.9965 30.2022C14.1371 30.0967 14.313 30.0615 14.4185 30.2374C14.4537 30.3429 14.3833 30.5188 14.3482 30.6946C14.0668 30.7298 13.8206 30.7298 13.6096 30.8001C13.4689 30.8353 13.3282 30.9056 13.1875 30.9408V32.8752L13.5744 33.0159C15.6495 33.7896 17.7949 34.3524 19.9755 34.6689C19.8348 34.5282 19.7293 34.3875 19.87 34.1414C19.9051 34.0358 19.8348 33.86 19.7293 33.7193C19.5183 33.4028 19.1666 33.1917 19.4128 32.7345C19.4831 32.5587 19.2369 32.418 19.0259 32.5235C18.9555 32.5587 18.85 32.5938 18.8149 32.6642C18.5335 32.9104 18.3928 32.7697 18.1818 32.5587C17.9708 32.3125 18.0763 32.1366 18.2873 31.9608C18.3576 31.9256 18.428 31.8904 18.428 31.8201C18.4631 31.7146 18.4983 31.6091 18.5335 31.5035C18.428 31.5035 18.2873 31.4684 18.2169 31.5035C18.0059 31.6091 17.8652 31.5387 17.7597 31.398C17.6894 31.2925 17.619 31.187 17.5487 31.0815C17.5135 31.0815 17.4784 31.0815 17.4432 31.0815C17.197 31.0463 17.1267 30.9408 17.2673 30.6946C17.2322 30.6243 17.197 30.5891 17.1618 30.5188C16.986 30.2726 17.0563 30.0967 17.2673 29.8857C17.7246 29.4285 18.0411 29.4285 18.4631 29.956C18.5335 30.0264 18.5687 30.0967 18.639 30.1671C18.6742 30.2022 18.7093 30.2374 18.7445 30.2726C18.85 30.1319 18.8852 30.0264 18.9555 29.9209C19.0259 30.0264 19.1666 30.0967 19.2017 30.2022C19.2369 30.3077 19.1666 30.4484 19.1314 30.5539C19.0259 30.4836 18.9555 30.4133 18.85 30.3429C18.8852 30.3781 18.9204 30.4133 18.9204 30.4484C19.061 30.5891 19.061 30.7298 18.9555 30.9408C18.8148 31.187 18.8852 31.3629 19.1314 31.2925C19.5183 31.187 19.7645 31.398 19.9755 31.6442C20.2217 31.9256 20.3975 32.2421 20.6086 32.5235C20.8196 32.8049 20.9954 33.1566 21.4527 33.0159C21.4878 33.0159 21.6637 33.2269 21.6637 33.2269C21.523 33.4028 21.5933 33.5786 21.6637 33.7896C21.7692 34.071 21.3471 34.4227 21.0658 34.3172C20.5734 34.1414 20.5734 34.1414 20.5734 34.6337C20.5734 34.6689 20.5734 34.7041 20.5734 34.7393C21.312 34.8448 22.0857 34.9151 22.8595 34.9855L23.4926 35.0206V30.2022C23.4926 30.2374 23.4574 30.2726 23.4574 30.3077C23.2464 30.3077 23.0705 30.3429 22.9298 30.2726C22.7891 30.1671 22.8243 30.0264 22.965 29.9209C23.1409 29.7802 23.3519 29.7098 23.4574 29.7098V28.8306V25.1376L23.3519 25.0673C23.3167 25.1025 23.2464 25.1025 23.176 25.1376C23.0705 25.1728 22.965 25.1728 22.8595 25.208C22.5781 25.2783 22.2616 25.2783 22.1912 25.7004C22.1912 25.7707 21.9802 25.8411 21.8395 25.8762C21.4527 25.9817 21.2416 25.5597 20.8548 25.5949C20.8548 25.5245 20.8196 25.419 20.8548 25.3487C20.8899 25.2783 21.0306 25.2783 21.0658 25.208C21.2065 24.8914 21.3823 24.6453 21.734 25.0321C21.8044 25.1025 22.0154 24.997 22.1209 24.997C22.3319 24.9618 22.5429 24.8914 22.754 24.8211L18.9555 22.9219V19.5807C18.7445 19.6862 18.639 19.651 18.4631 19.44C18.2169 19.1586 18.2521 19.0883 18.5687 18.7717C18.6038 18.7366 18.6742 18.6662 18.6742 18.6662C18.7445 18.5959 18.8148 18.5607 18.85 18.5255C18.9907 18.42 19.1666 18.209 19.3424 18.42C19.5183 18.5959 19.6941 18.8069 19.4831 19.0883C19.3776 19.1938 19.3072 19.3345 19.2017 19.44H20.9251C20.8899 19.2641 21.1009 19.0531 21.1361 18.9476C21.312 18.8421 21.3823 18.7717 21.4527 18.7366C21.5933 18.7014 21.6989 18.6662 21.8395 18.6662C21.8395 18.8069 21.8395 18.9124 21.8044 19.0531C21.8044 19.0883 21.7692 19.1234 21.7692 19.1586C21.8044 19.2993 21.8044 19.4048 21.8044 19.4751H22.0154C23.3519 19.4751 24.4422 20.5654 24.4422 21.9019H25.5676C25.6028 21.9019 25.6028 21.9019 25.638 21.9019H25.6731C25.6731 21.2689 25.9193 20.6358 26.3766 20.1786C26.8338 19.7213 27.4317 19.4751 28.0999 19.4751H31.195V20.671C31.3005 20.7061 31.406 20.7413 31.4763 20.7765C31.4412 20.882 31.4412 21.0227 31.3356 21.093C31.3005 21.1282 31.2653 21.1282 31.195 21.093V22.9571L31.1246 22.9922C31.0894 23.0626 31.0543 23.1681 30.9839 23.2032C30.8784 23.2384 30.8081 23.2736 30.7377 23.3088C30.6322 23.4143 30.4915 23.555 30.386 23.6605C30.1398 23.8715 29.9992 23.8715 29.7881 23.6956L26.869 25.1728L26.9041 25.208C26.9745 25.419 27.291 25.6652 27.0448 25.8762C26.9041 25.9817 26.7986 25.9114 26.6931 25.8059V28.514C26.7283 28.5492 26.7283 28.5492 26.7634 28.5844C26.869 28.5492 27.0448 28.4789 27.08 28.514C27.3262 28.6899 27.5724 28.9361 27.8186 29.1471C27.8889 29.2174 27.8537 29.4636 27.7834 29.4988C27.6427 29.6043 27.4317 29.6395 27.2558 29.6747C27.2558 29.6747 27.1855 29.5692 27.1855 29.534C27.3965 29.0416 27.0096 28.8306 26.7634 28.514C26.7283 28.514 26.7283 28.5492 26.6931 28.5492V29.2526V33.4731C26.869 33.6841 27.0448 33.9303 27.2207 34.1414C27.4317 34.3875 27.3613 34.5634 27.1503 34.7393C26.9745 34.8799 26.8338 34.9503 26.6931 34.8448V35.091L27.3262 35.0558C28.6275 34.9503 29.9288 34.8096 31.195 34.5634C31.195 34.5634 31.195 34.5282 31.1598 34.5282C31.1246 34.3876 31.2653 34.2117 31.3356 34.071C31.4412 33.9303 31.617 33.8248 31.7929 33.9655C31.8984 34.0358 32.0039 34.1414 32.1446 34.282C32.1446 34.3172 32.1797 34.3524 32.1797 34.3524C33.6217 34.0358 35.0286 33.6138 36.4002 33.0862L36.7871 32.9455V26.65V18.7717C36.7871 18.4552 36.7871 18.1738 36.7519 17.8573C36.7519 17.8221 36.7168 17.8221 36.7168 17.787C36.6816 17.6814 36.6816 17.6111 36.7168 17.5759C36.5761 16.2043 36.1892 14.8678 35.6265 13.6368C35.5561 13.6368 35.521 13.6368 35.4858 13.6016C35.4506 13.5665 35.4506 13.4258 35.4506 13.2851H35.4858C34.9231 12.23 34.2196 11.2452 33.3755 10.4011C32.2149 9.24046 30.8433 8.36119 29.3661 7.76329C29.5771 7.97431 29.7881 8.22051 29.964 8.43153C30.1398 8.60738 30.2805 8.81841 30.4564 9.02943C30.7377 9.38114 31.0543 9.73285 31.3356 10.0846C31.5115 10.2956 31.7225 10.4714 31.5467 10.788C31.4763 10.9287 31.617 11.1045 31.7929 11.0342C32.0742 10.9287 32.1797 11.1045 32.3556 11.2452C32.4259 11.3155 32.4611 11.421 32.5666 11.421C32.7425 11.4562 32.9887 11.421 33.0942 11.5266C33.1645 11.6321 33.0238 11.9134 33.0942 12.0541C33.27 12.4058 32.9535 12.4762 32.7776 12.652C32.6018 12.8279 32.4611 12.6872 32.3204 12.5465C32.2149 12.441 32.1446 12.3355 32.0391 12.23C31.5467 11.6321 31.0191 11.0693 30.5267 10.4714C30.386 10.2956 30.2102 10.1197 30.1047 9.9087C30.0343 9.69768 30.1398 9.41631 30.0343 9.24046C29.9288 9.02943 29.5419 9.34597 29.3661 9.02943C29.2606 8.85358 29.1199 8.7129 28.9792 8.57221C28.9089 8.50187 28.9089 7.6226 28.9792 7.6226H29.0144C28.9089 7.58743 28.8385 7.55226 28.733 7.51709L28.4868 10.7176C28.4165 10.788 28.5571 10.788 28.6978 10.7528ZM13.6096 19.2641C13.4689 19.3345 13.2579 19.3696 13.2579 19.1586C13.2579 19.0883 13.3986 18.9828 13.5041 18.8421C13.6447 18.9124 13.7854 18.9828 13.8909 19.0531C13.7854 19.0883 13.7151 19.1938 13.6096 19.2641ZM14.4185 32.2421C14.4185 32.2421 14.3482 32.2773 14.313 32.3125C14.2778 32.2421 14.2075 32.207 14.1723 32.1366C13.9965 31.8904 13.9965 31.5387 13.6447 31.4332C13.6096 31.4332 13.6096 31.3277 13.6096 31.2925C13.6447 31.2574 13.7151 31.187 13.7854 31.2222C14.102 31.2925 14.4185 31.3277 14.6999 31.4332C14.735 31.4332 14.7702 31.5387 14.8054 31.6091C14.524 31.7497 14.4537 31.9608 14.4185 32.2421ZM16.2826 32.9455C16.2122 32.9455 16.1419 32.9455 16.0715 32.9104C15.8605 32.7697 15.6847 32.5587 15.5088 32.418C15.4033 32.3125 15.2626 32.2421 15.1219 32.207C15.0164 32.1718 14.8757 32.1366 14.7702 32.1014C14.8406 31.9608 14.8757 31.8201 14.9812 31.6091C15.1571 31.6091 15.2978 31.6091 15.4736 31.6442C15.6143 31.6442 15.755 31.6794 15.8957 31.6794C16.177 31.7146 16.3881 31.9608 16.3529 32.2773C16.3529 32.418 16.3529 32.5587 16.3529 32.6994C16.3177 32.8049 16.2826 32.8752 16.2826 32.9455ZM17.0915 33.3676C17.1267 33.6138 17.1618 33.7896 17.1618 33.9303C16.9508 33.8248 16.7749 33.7545 16.5991 33.6138C16.5639 33.5786 16.6343 33.3324 16.6694 33.2973C16.7749 33.2973 16.9156 33.3324 17.0915 33.3676ZM16.8101 29.0064C16.7046 29.1119 16.5991 29.1823 16.4936 29.2878C16.3881 29.3933 16.2826 29.4636 16.177 29.5692C15.8253 29.8505 15.6847 29.8154 15.4385 29.4636C15.2978 29.2526 15.3681 29.1471 15.5088 29.0064C15.6847 28.8306 15.8605 28.6899 15.966 28.4789C16.1419 28.2327 16.0364 28.1272 15.755 28.1272C15.6143 28.1272 15.5088 28.0568 15.3681 28.0216C15.4385 27.9161 15.4385 27.7403 15.544 27.6699C15.8957 27.2831 16.0012 27.2831 16.3529 27.7403C16.5288 27.9513 16.7046 28.1623 16.8805 28.3734C17.1618 28.6547 17.1618 28.6899 16.8101 29.0064ZM20.2569 30.3781C20.1513 30.3781 20.0107 30.2726 19.9755 30.2022C19.9755 30.0967 20.0458 29.9912 20.1162 29.7802C20.2569 29.9209 20.3624 29.9912 20.4327 30.0967C20.503 30.2726 20.4327 30.3781 20.2569 30.3781ZM21.8747 34.6689C21.8395 34.7041 21.7692 34.6689 21.734 34.6689C21.734 34.5986 21.734 34.5282 21.7692 34.4931C21.7692 34.4579 21.8747 34.4931 21.945 34.4931C21.9099 34.5634 21.9099 34.6337 21.8747 34.6689ZM16.6694 13.3906C16.6694 13.4609 16.6694 13.5665 16.6343 13.5665C16.5639 13.6016 16.4936 13.5665 16.3881 13.5665C16.3881 13.4961 16.3881 13.4258 16.3881 13.3203C16.4936 13.3554 16.5639 13.3906 16.6694 13.3906ZM15.5088 12.3355C15.5791 12.2651 15.7902 12.3355 16.0012 12.3707C16.0364 12.6168 16.1067 12.8279 16.0364 12.8982C15.8605 13.1092 15.7198 12.8982 15.6143 12.7575C15.544 12.652 15.3329 12.5113 15.5088 12.3355ZM15.966 21.6909C15.9308 21.9371 15.7902 22.0426 15.6143 21.8668C15.2274 21.4447 14.8406 20.9875 14.4888 20.5303C14.3482 20.3544 14.6999 19.8269 14.9109 19.862C15.2274 19.8972 15.5791 20.0379 15.966 20.1434C15.966 20.3896 15.966 20.5654 16.0012 20.7413C16.0715 21.0578 16.0364 21.3744 15.966 21.6909ZM22.4374 28.6195C22.4726 28.6547 22.5078 28.7602 22.5078 28.7602C22.2968 29.0064 22.0857 29.2526 21.8044 29.4636C21.5933 29.6043 21.523 29.5692 21.2768 29.2878C20.9954 29.0768 21.2065 28.8657 21.3471 28.6547C21.6989 28.2327 22.1912 28.2327 22.4374 28.6195ZM18.4983 23.4143C18.7093 23.3439 19.0962 23.8715 18.9907 24.0825C18.7445 24.4694 19.0962 24.6453 19.2369 24.8914C19.2721 24.9618 19.3424 24.997 19.3776 25.0673C19.6941 25.419 19.6941 25.419 20.081 25.1728C20.1513 25.1376 20.2217 25.0673 20.292 25.0321C20.3272 25.0321 20.3975 25.0321 20.4327 25.0673C20.4679 25.1025 20.4679 25.1728 20.4327 25.208C20.3975 25.2783 20.3272 25.3487 20.2569 25.419C20.1865 25.4893 20.081 25.5597 20.0458 25.6652C20.081 25.6652 20.1162 25.7004 20.1513 25.7004C20.1162 25.7355 20.081 25.7707 20.0458 25.8059C20.0458 25.8411 20.081 25.8762 20.081 25.9114C20.2569 26.1928 20.503 26.3686 20.7492 26.2631C20.9603 26.1928 21.0658 26.2279 21.1713 26.3686C21.2768 26.5093 21.4175 26.6852 21.523 26.861C21.6637 27.1424 21.523 27.5644 21.2416 27.6699C21.1361 27.7051 20.9954 27.6348 20.9251 27.5644C20.7492 27.4237 20.6437 27.2479 20.503 27.072C20.3624 26.8962 20.2569 26.8258 20.0107 26.8258C19.8348 26.8258 19.6238 26.6148 19.4479 26.4741C19.3072 26.3686 19.2017 26.1928 19.061 26.1224C19.0259 26.1576 18.9555 26.1576 18.8852 26.1576C18.7445 26.1576 18.4983 26.1224 18.4983 26.0521C18.4983 26.0169 18.4983 25.9466 18.4631 25.9114C18.0763 25.4542 17.6894 24.9618 17.3025 24.5046C17.2322 24.3991 17.2322 24.2584 17.2322 24.1177C17.197 24.0122 17.2322 23.8715 17.197 23.766C17.1267 23.6253 16.986 23.4846 17.1618 23.3439C17.3728 23.2032 17.5839 23.0274 17.8301 23.2032C18.0411 23.3439 18.1818 23.5198 18.4983 23.4143ZM18.2521 21.4095C18.2873 21.5502 18.3225 21.6909 18.2521 21.7612C18.2521 21.7964 18.2169 21.8316 18.2169 21.8316C18.0059 22.0426 17.7949 22.2185 17.5487 22.3943C17.3728 22.5702 17.1618 22.746 16.9508 22.8867C16.8453 22.9571 16.6694 23.0274 16.5991 22.9922C16.4232 22.9219 16.4584 22.7812 16.5639 22.6405C16.5991 22.6053 16.6343 22.5702 16.5991 22.535C16.4936 22.2536 16.5639 22.0778 16.7046 21.9371C16.5991 21.7964 16.5288 21.6909 16.4584 21.5502C16.4232 21.5151 16.5288 21.4095 16.5639 21.304C16.6694 21.3744 16.7749 21.4799 16.9156 21.5854C16.8805 21.6909 16.8453 21.7612 16.8101 21.8668C16.9156 21.7964 17.0211 21.7261 17.0915 21.6557C17.2322 21.515 17.408 21.4447 17.619 21.5502C17.6542 21.5502 17.6542 21.5502 17.6894 21.5502C17.7597 21.304 17.5487 21.0227 17.8652 20.9523C18.2521 20.882 18.1818 21.2337 18.2521 21.4095ZM16.6694 17.5056C16.5639 17.3297 16.6343 17.1187 16.8101 17.1539C17.1618 17.2242 17.5135 17.1539 17.8301 17.4352C18.1114 17.6814 18.0059 17.998 18.0411 18.2793C18.0763 18.4904 17.8301 18.631 17.619 18.4904C17.408 18.3497 17.197 18.1738 16.986 17.998C16.986 17.998 16.986 17.9628 17.0211 17.9628C16.8805 17.787 16.7749 17.6814 16.6694 17.5056ZM18.1818 14.3754C18.0411 14.6919 17.9708 15.114 17.5135 15.1491C17.3377 15.1491 17.1267 15.2547 16.9508 15.2898V15.2547C16.7046 15.325 16.4584 15.3953 16.2122 15.4305C16.1067 15.4657 16.0364 15.4305 15.966 15.4305C15.8253 15.5712 15.6847 15.7119 15.5088 15.8174C15.4385 15.8526 15.2978 15.8174 15.1571 15.8174C15.1571 15.747 15.1571 15.7119 15.1571 15.6415C15.0516 15.7119 14.8757 15.747 14.7702 15.747C14.6647 15.747 14.524 15.5712 14.3833 15.5009C14.4185 15.2898 14.3833 15.114 14.4888 15.0436C14.6647 14.9029 14.7702 15.0436 14.8406 15.1843C14.8757 15.2195 14.8757 15.2195 14.9109 15.2547C14.9812 15.2898 15.0867 15.2898 15.1571 15.325C15.1571 15.2195 15.1923 15.0788 15.2274 14.9733C15.2626 14.7974 15.4385 14.7974 15.5791 14.8678H15.6143C15.5791 14.6216 15.7198 14.5161 15.9308 14.4809C16.5991 14.3402 17.2322 14.1995 17.9004 14.094C18.1114 14.094 18.2521 14.2347 18.1818 14.3754ZM18.3576 9.94387C18.428 9.9087 18.6038 9.94387 18.6742 9.97904C18.8852 10.2604 19.061 10.5418 19.2369 10.8231C19.2721 10.8583 19.2369 10.9638 19.2721 11.0342C19.2017 11.0342 19.0962 11.0342 19.0259 10.999C18.7797 10.7528 18.5335 10.5066 18.2169 10.1901C18.2521 10.1549 18.2521 10.0142 18.3576 9.94387ZM19.2369 16.767C19.0962 16.8022 18.9204 16.6263 18.7797 16.5208C18.639 16.3801 18.5335 16.2394 18.3928 16.0636C18.2521 15.8526 18.3225 15.7119 18.5335 15.6415C18.7797 15.5712 19.061 15.4657 19.3072 15.8877C19.3072 15.8877 19.3424 15.9932 19.3424 16.0988C19.3424 16.1691 19.2721 16.2394 19.2721 16.3098C19.3072 16.4856 19.4831 16.6967 19.2369 16.767ZM20.4679 14.3402C20.1513 14.4106 20.081 14.3402 19.9755 13.9182C19.9051 13.7071 19.9051 13.5313 20.1513 13.4609C20.503 13.3554 20.7492 13.4961 20.8196 13.8478C20.8899 14.1644 20.8548 14.2699 20.4679 14.3402ZM21.3471 10.7176C21.2768 10.7528 21.1713 10.7528 21.1361 10.7176C21.1009 10.6825 21.101 10.6121 21.0658 10.4714C21.2768 10.5066 21.3471 10.5066 21.4175 10.5418C21.3823 10.6121 21.3823 10.7176 21.3471 10.7176ZM23.6332 16.4153C23.5981 16.4153 23.5981 16.3098 23.5629 16.2043C23.6684 16.2043 23.7739 16.2043 23.8091 16.2394C23.8443 16.3098 23.8443 16.3801 23.8443 16.4505C23.7388 16.4505 23.6684 16.4505 23.6332 16.4153ZM24.7235 21.0227C24.6884 21.0578 24.5125 21.0578 24.4773 21.0227C24.4422 20.9875 24.4422 20.8468 24.4422 20.7061C24.5829 20.7413 24.7235 20.7061 24.7587 20.7765C24.7939 20.8116 24.7939 20.9523 24.7235 21.0227ZM24.829 16.2394C24.7235 16.2394 24.618 16.2746 24.5477 16.2043C24.5125 16.1691 24.5125 16.0284 24.5125 15.8877C24.6532 15.9229 24.7939 15.9229 24.829 15.9581C24.8642 16.0284 24.829 16.1339 24.829 16.2394ZM26.6228 18.2793C26.5172 18.42 26.4117 18.5959 26.2711 18.7014C26.2007 18.7717 26.06 18.7014 25.9545 18.7014C25.9545 18.5959 25.9545 18.4904 25.9897 18.3849C26.0249 18.3145 26.1304 18.2442 26.2007 18.1738C26.2359 18.1387 26.3062 18.0683 26.3766 18.0683C26.4469 18.0331 26.5524 18.0683 26.5524 18.1035C26.6228 18.1035 26.6228 18.209 26.6228 18.2793ZM27.7131 16.2043C27.6427 16.2394 27.4317 16.2394 27.3965 16.1691C27.3262 16.0636 27.3613 15.9229 27.3613 15.6767C27.6075 15.7822 27.7482 15.8174 27.7834 15.9229C27.8537 15.9581 27.7834 16.1339 27.7131 16.2043ZM28.8737 17.5056C28.6627 17.5056 28.4165 17.5408 28.2054 17.5056C28.1351 17.5056 27.9944 17.4001 28.0296 17.3649C28.0648 17.2242 28.1703 17.0835 28.2406 16.9077C28.3813 16.9077 28.5923 16.8373 28.6275 16.9077C28.7682 17.0835 28.8385 17.2946 28.9089 17.4704C28.8737 17.4704 28.8737 17.5056 28.8737 17.5056ZM29.964 19.0531C29.8233 19.1586 29.6826 19.3696 29.5068 19.1586C29.4364 19.0883 29.5419 18.8772 29.5771 18.631C29.7881 18.631 29.9992 18.5959 30.1047 18.6662C30.2805 18.8421 30.1047 18.9828 29.964 19.0531ZM28.0999 27.1775C28.2406 27.2127 28.3461 27.2127 28.3813 27.2479C28.4165 27.2831 28.3813 27.3886 28.3813 27.4941C28.2758 27.4941 28.1703 27.4941 28.0999 27.4589C28.0648 27.4589 28.0999 27.3182 28.0999 27.1775ZM27.9241 28.092C27.9944 28.092 28.0999 28.1623 28.1351 28.2327C28.1703 28.2678 28.0648 28.4085 28.0296 28.4085C27.9592 28.4085 27.8537 28.3733 27.7482 28.303C27.8186 28.1975 27.8889 28.092 27.9241 28.092ZM27.7482 30.6946C27.6427 30.5188 27.4317 30.3077 27.6427 30.0615C27.7482 29.9209 28.4516 30.0264 28.5923 30.1671C28.8385 30.4836 28.8385 30.6946 28.5923 30.9056C28.311 31.1167 27.9944 31.0463 27.7482 30.6946ZM29.4364 33.4379C29.2606 33.5434 29.0847 33.649 28.9089 33.7193C28.8033 33.7545 28.6627 33.649 28.4165 33.6138C28.5571 33.4379 28.6275 33.2621 28.733 33.2269C28.944 33.1917 29.1902 33.2269 29.4012 33.2621C29.4364 33.2621 29.4716 33.4379 29.4364 33.4379ZM29.4012 32.1014C29.2254 32.1014 29.0847 32.0663 28.944 32.0663C28.9792 31.9608 28.9792 31.7849 29.0144 31.7497C29.1902 31.6794 29.3661 31.6442 29.5419 31.5739C29.5068 31.7146 29.4716 31.8904 29.4012 32.1014ZM34.2196 14.1995C34.501 13.9885 34.6417 14.1292 34.8175 14.3402C35.0286 14.5864 35.2396 14.8326 35.4506 15.0788C35.6265 15.2898 35.8023 15.5009 35.9782 15.7119C36.154 15.9229 36.3651 16.0988 36.154 16.4153C36.1189 16.5208 36.3299 16.7318 36.4002 16.9077C36.4354 16.978 36.4002 17.0835 36.4002 17.189C36.2947 17.189 36.154 17.2242 36.1189 17.1539C35.4506 16.345 34.5714 15.7822 34.079 14.8326C33.8679 14.5161 33.9031 14.4106 34.2196 14.1995ZM32.7776 22.1481C32.848 22.113 32.9887 22.1833 33.0942 22.1833C33.059 22.2888 33.059 22.3943 33.0238 22.4647C32.9535 22.535 32.8128 22.4998 32.6018 22.535C32.6721 22.324 32.7073 22.1833 32.7776 22.1481ZM31.0543 33.7193C30.9136 33.8248 30.7377 34.0358 30.5267 33.8248C30.3157 33.6138 30.5267 33.4731 30.7377 33.2621C30.8081 33.2621 31.0191 33.2269 31.1246 33.2973C31.3005 33.4028 31.195 33.5786 31.0543 33.7193ZM30.386 33.1214C30.4915 33.0159 30.5267 32.9104 30.5971 32.9104C30.6322 32.9104 30.7377 32.9807 30.7729 33.0159C30.7377 33.0862 30.7026 33.1917 30.6322 33.2269C30.5971 33.2621 30.4915 33.1917 30.386 33.1214ZM31.8984 23.4494C32.0039 23.3791 32.1446 23.4143 32.2501 23.4143C32.2149 23.5198 32.2149 23.6605 32.1446 23.7308C32.0391 23.8715 31.8632 23.977 31.7225 24.0825C31.5467 24.2232 31.406 24.3639 31.5115 24.6452C31.5818 24.8914 31.2653 25.1376 31.4412 25.4542C31.3708 25.4893 31.2653 25.5597 31.2301 25.5245C31.0191 25.3838 30.8081 25.2432 30.6322 25.1025C30.5267 24.9266 30.4564 24.7508 30.386 24.6101C30.2453 24.3287 30.2805 24.2584 30.6322 24.2584C30.9488 24.2584 31.2301 23.977 31.5467 23.8363C31.6873 23.6605 31.7577 23.5198 31.8984 23.4494Z" fill="#FEFEFE"/>
</g>
<defs>
<clipPath id="clip0_801_28100">
<rect width="50" height="50" fill="white"/>
</clipPath>
</defs>
</svg>
