<svg width="70" height="70" viewBox="0 0 70 70" fill="none" xmlns="http://www.w3.org/2000/svg">
<path d="M5.00629 35.9289C5.27053 36.1407 5.58762 36.2995 5.9047 36.5113C5.95755 36.5113 6.0104 36.5113 6.1161 36.5113C6.06325 34.6584 6.22179 32.8054 6.53888 31.0055C6.59173 30.6349 6.69742 30.3172 6.75027 29.9467C6.53888 29.9996 6.38034 30.1055 6.16894 30.1584C5.74616 30.2643 5.32338 30.4231 4.90059 30.4761C4.74205 30.529 4.58351 30.529 4.42496 30.4761C4.42496 30.529 4.42496 30.5819 4.37212 30.6349C4.21357 31.429 4.16072 32.1702 4.05503 32.9643L4.10788 32.9113C4.21357 32.9113 4.37212 32.9113 4.42496 32.9643C4.58351 33.2819 4.31927 33.3878 4.16072 33.5466C4.10788 33.6525 4.05503 33.7054 4.00218 33.7054C3.94933 34.3937 3.89648 35.1348 3.89648 35.823C4.21357 35.6642 4.6892 35.6642 5.00629 35.9289Z" fill="#FEFEFE"/>
<path d="M58.5419 15.4939C58.172 15.0704 57.7492 14.5939 57.3793 14.1704C57.1679 14.1704 56.9036 14.1175 56.8508 14.0116C56.7451 13.8528 56.6922 13.694 56.7451 13.5351C56.5337 13.3234 56.3751 13.1646 56.1638 12.9528C55.9524 13.0057 55.6881 13.0587 55.4239 13.1116C55.371 13.1116 55.3182 13.1646 55.2653 13.1646C54.9483 13.1646 54.5255 13.5351 54.2612 13.0587C54.1555 12.8469 54.6312 12.0528 55.0011 11.9469C53.997 11.0999 52.9929 10.3587 51.8831 9.61755C50.9847 9.0352 50.0862 8.55874 49.135 8.08228C49.4521 8.45286 49.3992 8.61168 48.9764 8.92932C48.6065 9.24696 48.5008 9.19402 48.1837 8.82344C47.9195 8.5058 47.8666 8.2411 48.2366 8.02934C48.3951 7.92345 48.5008 7.81757 48.5537 7.81757C47.9723 7.55287 47.3382 7.23523 46.704 6.97053C46.5983 7.07641 46.4397 7.07641 46.3341 6.86465C46.3341 6.81171 46.2812 6.81171 46.2812 6.75877C46.0698 6.70583 45.8584 6.59994 45.647 6.547L45.2242 6.38818L44.4844 8.45286L44.8543 8.61168C46.704 9.29991 48.448 10.1999 50.1391 11.2058C50.0334 11.0999 49.9277 10.994 49.8749 10.8881C49.7163 10.7293 49.5578 10.5175 49.4521 10.3587C49.2935 10.147 49.0821 9.93519 49.3992 9.61755C49.7163 9.2999 50.0862 9.2999 50.4033 9.56461C51.3018 10.2528 52.0416 11.1528 52.5173 12.1587C52.5173 12.2116 52.5701 12.2116 52.5701 12.2646C52.7815 12.3704 52.9929 12.4763 53.2043 12.5822C53.31 12.6351 53.4157 12.741 53.4157 12.8469C53.5742 13.0057 53.6799 13.2175 53.8385 13.4293C54.3669 14.0645 54.8954 14.6998 55.4239 15.2822C55.5824 15.441 55.741 15.5469 55.8467 15.7057C55.9524 15.8645 56.1109 15.9704 56.2166 16.1292C56.2695 16.1292 56.2695 16.1292 56.3223 16.1292C56.428 16.1292 56.4808 16.1292 56.5337 16.1292C57.0093 16.0233 57.485 15.8645 57.9606 15.7586C58.1191 15.7057 58.4362 15.6528 58.5419 15.4939Z" fill="#FEFEFE"/>
<path d="M8.59972 49.7464C8.75826 49.8523 9.07535 49.6935 9.28674 49.6935C9.39244 49.6935 9.49813 49.6935 9.55098 49.6935C9.0225 48.7405 8.54687 47.7347 8.17694 46.7288C8.12409 46.7817 8.07124 46.8347 8.07124 46.8347C7.96555 46.7817 7.807 46.7288 7.70131 46.6759C7.64846 46.6229 7.64846 46.517 7.64846 46.4641C7.59561 46.3053 7.59561 46.1994 7.59561 46.0935C7.59561 46.0406 7.64846 45.9347 7.70131 45.8818C7.75415 45.8818 7.807 45.8288 7.85985 45.8288C7.64846 45.1935 7.43707 44.6112 7.22568 43.9759C7.22568 43.923 7.17283 43.87 7.17283 43.8171C7.06713 43.7641 7.01428 43.7641 6.96144 43.7112C6.6972 43.3936 6.16872 43.6053 6.06302 43.1289C5.95733 43.1818 5.74593 43.1818 5.69309 43.2877C5.58739 43.4465 5.64024 43.8171 5.32315 43.7112C5.16461 43.6583 5.05891 43.3936 5.00606 43.1818C4.90037 42.9171 4.95322 42.7053 5.2703 42.5995C5.48169 42.4936 5.69309 42.3877 5.79878 42.3348C6.22156 42.1759 6.53865 42.0701 6.6972 42.5465C6.6972 42.5995 6.80289 42.7053 6.90859 42.7053C6.4858 40.8524 6.22156 38.9995 6.11587 37.1466H6.06302C5.74593 37.1995 5.48169 37.3054 5.21745 36.9878C5.05891 36.776 4.79467 36.829 4.74182 37.1466C4.74182 37.4642 4.53043 37.5701 4.31904 37.676C4.21334 37.7289 4.10765 37.7289 4.00195 37.7819C4.1605 40.1113 4.53043 42.3877 5.16461 44.6112C5.64024 46.3582 6.32726 48.0523 7.11998 49.6935C7.17283 49.6935 7.17283 49.6935 7.22568 49.6405C7.59561 49.5346 8.07124 49.3758 8.59972 49.7464ZM6.4858 45.67C6.38011 45.6171 6.27441 45.6171 6.16872 45.5641C6.11587 45.5112 6.16872 45.4053 6.16872 45.1935C6.32726 45.2994 6.43296 45.3524 6.53865 45.4053C6.53865 45.4582 6.4858 45.5641 6.4858 45.67Z" fill="#FEFEFE"/>
<path d="M26.3047 12.2646L27.0446 11.5235C27.5202 11.047 27.9958 10.6235 28.5243 10.1999C28.3658 9.98818 28.2072 9.82936 28.0487 9.6176C28.0487 9.6176 28.0487 9.6176 28.1015 9.6176C27.943 9.40584 27.7316 9.19407 27.573 8.98231C27.3616 8.71761 27.2031 8.45291 26.7803 8.61173C26.6746 8.66467 26.6218 8.66467 26.5161 8.61173C26.4104 9.51172 26.3575 10.3588 26.3575 11.2587L26.3047 12.2646Z" fill="#FEFEFE"/>
<path d="M10.7141 19.7821C10.8727 19.6762 11.0312 19.5174 11.1897 19.4115C11.2954 19.2527 11.4011 19.0939 11.5068 18.9351C11.5068 18.8821 11.5597 18.8821 11.5597 18.8292V18.7762C11.5597 18.6704 11.7182 18.3527 11.8239 18.3527C11.8768 18.3527 11.8768 18.3527 11.9296 18.3527C14.3606 15.0704 17.5843 12.3175 21.2837 10.3058C22.0764 9.88225 23.1334 9.35285 24.2432 8.92932L24.983 8.66462C25.0359 8.61168 25.1416 8.61168 25.1944 8.61168L25.9343 8.34698C26.0929 8.29404 26.3042 8.2411 26.4628 8.18816C26.6213 7.87052 26.4628 7.65875 26.3042 7.44699C26.1457 7.28817 25.9343 7.07641 26.1986 6.86465C26.3042 6.81171 26.5685 6.97053 26.727 7.12935C26.9913 7.34111 27.1498 7.65875 27.3612 7.87052C27.6254 8.13522 27.8368 8.5058 28.3125 8.29404C28.3653 8.2411 28.5767 8.34698 28.6296 8.39992C28.9466 8.71756 29.2109 9.08815 29.4751 9.45873C31.1663 8.18816 33.0688 7.07641 35.1298 6.17642L36.0283 5.80584L35.1298 5.43526C34.4957 5.17056 33.8615 4.90585 33.1745 4.69409C33.1216 4.90585 33.0159 5.11762 32.9102 5.32938C32.8574 5.43526 32.6988 5.4882 32.5931 5.4882C32.4874 5.4882 32.3818 5.38232 32.3289 5.32938C32.2761 5.11762 32.4346 4.74703 32.646 4.53527C30.0036 3.58234 27.097 3.10588 24.1375 3H23.609H23.6619C24.1375 3.05294 24.1903 3.05294 23.9261 3.47646C23.8732 3.5294 23.8204 3.58234 23.8204 3.63528L23.8732 3.68823C24.0846 3.89999 24.296 4.11175 24.5074 4.37645C24.983 4.42939 25.5644 4.27057 25.8815 4.90585C25.9872 5.17056 26.1986 5.43526 26.1986 5.64702C26.1457 5.85878 25.9343 6.12348 25.7229 6.2823C25.6701 6.33524 25.5644 6.2823 25.4587 6.22936C25.4058 6.22936 25.3001 6.2823 25.2473 6.2823L24.5074 6.54701C24.4017 6.59995 24.296 6.59995 24.2432 6.65289L23.4505 6.91759C22.4992 7.28817 21.4951 7.76464 20.2267 8.39992C16.0518 10.6764 12.4052 13.9057 9.76285 17.6645C9.39292 18.141 9.07583 18.6704 8.75874 19.1468C8.91729 19.1468 9.07583 19.1998 9.07583 19.2527C9.18153 19.5703 9.12868 19.9409 9.18152 20.2586C9.18152 20.2586 8.86444 20.3115 8.81159 20.3115C8.65305 20.0468 8.44165 19.9939 8.23026 20.0468C7.49039 21.2644 6.85622 22.535 6.27489 23.8585C6.16919 24.1762 6.01065 24.4938 5.90495 24.8114C5.90495 24.8644 5.85211 25.0232 5.79926 25.0761C5.32363 26.2938 4.95369 27.5643 4.68945 28.8349C4.90084 28.5173 5.21793 28.5702 5.64072 28.782C6.01065 28.9408 6.38059 29.3114 6.80337 29.3114C7.1733 27.7761 7.64894 26.2408 8.28311 24.7585C8.86444 23.3291 9.60431 21.8997 10.5027 20.5762C10.3442 20.2056 10.397 20.0468 10.7141 19.7821ZM30.902 7.49993C30.9549 7.60581 30.8492 7.76464 30.7963 7.9764C30.6378 7.87052 30.4264 7.81758 30.4264 7.71169C30.4264 7.60581 30.5321 7.44699 30.5849 7.39405C30.6378 7.34111 30.8492 7.39405 30.902 7.49993ZM29.4751 5.59408C29.7922 5.54114 30.1621 5.64702 30.5321 5.64702C30.2678 5.91172 30.0036 6.12348 29.7922 6.2823C29.3166 6.2823 28.9466 6.54701 28.8409 6.07054C28.7353 5.64702 29.2109 5.64702 29.4751 5.59408ZM7.64894 24.7585C7.43754 24.5997 7.22615 24.5467 7.22615 24.4409C7.22615 24.335 7.33185 24.1232 7.43754 24.0703C7.54324 24.0173 7.75463 24.1232 7.80748 24.2291C7.86033 24.335 7.75463 24.4938 7.64894 24.7585Z" fill="#FEFEFE"/>
<path d="M66.0454 34.1819C66.0454 33.8114 66.0454 33.4408 65.9926 33.0702C65.8869 31.7996 65.6755 30.5291 65.3584 29.2055C65.0413 29.3114 64.7242 29.3114 64.4071 28.9408C64.2486 28.7291 63.9844 28.8879 63.9315 29.2055C63.8787 29.682 63.6673 29.7349 63.3502 29.4173C63.2973 29.3114 63.1916 29.3114 63.0859 29.2585C63.403 30.6349 63.6144 31.9584 63.773 33.282C63.8258 33.5996 63.8258 33.9702 63.8258 34.3408C63.8258 34.5525 63.8258 34.7643 63.8258 34.9231V35.2937C64.1429 35.2408 64.3543 35.1878 64.5128 35.2408C64.0372 34.6584 64.09 34.5525 64.6714 34.0761C64.8299 33.9702 64.9356 33.8643 65.0942 33.7584C65.2527 33.7055 65.4112 33.7055 65.5698 33.6525C65.5698 33.8114 65.5698 33.9172 65.5698 34.0761C65.5698 34.1819 65.5698 34.2349 65.5698 34.3408C65.7812 34.2878 65.8869 34.2349 66.0454 34.1819Z" fill="#FEFEFE"/>
<path d="M64.566 26.1879C63.8261 23.9644 62.822 21.7939 61.6065 19.7821C61.3951 19.4645 61.1837 19.0939 60.9723 18.7763C60.8138 18.7763 60.6024 18.6174 60.391 18.3527C60.391 18.2998 60.3382 18.141 60.2853 17.9292C60.3382 17.9292 60.3382 17.9292 60.391 17.9292C60.1268 17.5586 59.8625 17.188 59.5454 16.8175C59.4926 16.8704 59.4926 16.9233 59.4397 16.9763C59.3341 17.188 58.9641 17.3998 58.6999 17.5057C58.3299 17.6116 58.3299 17.188 58.2242 16.9763C58.1714 16.8704 58.1714 16.7645 58.1185 16.7116C58.0657 16.6057 57.96 16.5528 57.8543 16.4998C57.8015 16.6057 57.6429 16.7116 57.6429 16.8175C57.5901 16.9763 57.5372 17.1351 57.4844 17.2939C57.5372 17.5057 57.5901 17.6645 57.5901 17.8763C58.1714 18.6174 58.6999 19.3586 59.2284 20.1527C59.4926 20.3645 59.7568 20.6292 59.9682 20.8409C60.2325 21.1056 60.391 21.3703 60.6553 21.635C61.0252 22.0586 61.3951 22.4291 61.7651 22.8527C61.8179 22.9056 61.9236 22.9056 62.0293 22.9056C62.7692 22.9585 63.0863 23.3291 62.9806 24.0174C62.9277 24.335 62.8749 24.6526 62.8749 24.9703C62.8749 25.235 63.0334 25.2879 63.2976 25.2879C63.4562 25.2879 63.5619 25.4467 63.7204 25.5526C63.5619 25.7644 63.4562 25.9761 63.2976 26.135C63.1919 26.2408 62.9806 26.2408 62.822 26.1879C62.7163 26.1879 62.6106 26.0291 62.5578 25.9232C62.2935 25.6585 62.0821 25.3409 61.8179 25.0762C62.0821 25.6585 62.2935 26.2408 62.5049 26.8761C62.5578 27.035 62.6106 27.1938 62.6635 27.3526C62.7163 27.3526 62.7692 27.2997 62.822 27.2997C63.1919 27.1938 63.509 27.1408 63.6147 27.6702C63.6147 27.7761 63.7204 27.882 63.7204 28.0408C63.7733 28.3055 63.9318 28.4114 64.1961 28.3585C64.4603 28.2526 64.8302 28.3055 64.7774 27.8291C64.7774 27.7761 64.7774 27.7232 64.7774 27.6702C64.7774 27.4585 64.7774 27.2997 64.8302 27.1938C64.7774 26.8232 64.6717 26.5055 64.566 26.1879Z" fill="#FEFEFE"/>
<path d="M65.8348 39.8994C65.8877 39.37 65.9934 38.8936 65.9934 38.3642L66.0462 37.8348C65.9934 37.7818 65.9934 37.7818 65.9405 37.7289C65.782 37.4112 65.2535 37.1995 65.5706 36.776C65.6234 36.6701 65.8348 36.6701 66.0462 36.6701V36.5642V36.5113C65.9405 36.5113 65.8348 36.5113 65.8348 36.4583C65.6763 36.1936 65.6234 35.9289 65.5178 35.6642C65.5178 35.7171 65.4649 35.7701 65.4121 35.823C65.3064 35.876 65.1478 35.823 65.095 35.7701C65.0421 35.7171 64.9893 35.6642 64.9364 35.6113C64.9893 35.7171 64.9893 35.823 65.0421 35.9819C65.095 36.0877 65.1478 36.2466 65.1478 36.3524C65.1478 36.5642 65.095 36.8818 64.9893 36.9348C64.725 37.0407 64.408 37.0407 64.1437 36.9877C64.038 36.9877 63.9852 36.9348 63.8795 36.8818V37.3583L63.8266 38.2053C63.8266 38.6818 63.7209 39.1583 63.6681 39.5818L63.6152 39.7936C63.6152 39.8465 63.6152 39.8994 63.6152 39.9524C63.9852 40.3759 64.4079 40.8524 64.7779 41.3288C64.9893 41.5935 65.1478 41.9112 65.5178 41.8053C65.6234 41.223 65.7291 40.6935 65.782 40.1112L65.8348 39.8994Z" fill="#FEFEFE"/>
<path d="M37.2434 66.4755C37.0849 66.5285 36.8206 66.3697 36.7149 66.2108C36.345 65.7873 35.9751 65.3638 35.6051 64.9403C35.5523 64.8873 35.5523 64.8873 35.4994 64.8344C34.7596 64.8344 34.0197 64.8344 33.2798 64.7814C33.3327 64.8873 33.3855 64.9403 33.4384 65.0461C33.4912 65.0991 33.2798 65.4167 33.227 65.4167C33.0684 65.3638 32.9099 65.2579 32.6985 65.152C32.7513 64.9932 32.8042 64.8873 32.857 64.7814C32.3286 64.7285 31.7472 64.6756 31.2188 64.6226C31.5358 64.9932 31.9058 65.3638 32.17 65.7873C32.5928 66.3167 32.5399 66.3697 32.0115 66.8461C31.9586 66.8991 31.9586 66.8991 31.9058 66.8991C32.9099 67.0049 33.9668 67.0579 34.9709 67.0579C35.7637 67.0579 36.5035 67.0049 37.2963 66.952C37.5605 66.952 37.8247 66.8991 38.089 66.8991C38.0361 66.8461 38.0361 66.8461 37.9833 66.7932C37.719 66.5285 37.5605 66.3697 37.2434 66.4755Z" fill="#FEFEFE"/>
<path d="M55.635 58.6403C56.005 58.3756 55.8993 58.058 55.8464 57.7404C55.7936 57.4757 55.7407 57.2109 56.0578 57.158C56.3749 57.1051 56.7448 56.9462 56.9562 57.4227C57.0091 57.5286 57.0091 57.6874 57.0619 57.7933L57.1148 57.8462C57.6961 57.2639 58.2246 56.6815 58.7531 56.0992C58.5945 55.8345 58.3303 55.5698 58.1189 55.3051C58.066 55.2522 57.9075 55.1463 57.8546 55.1463C57.4847 55.3051 57.1676 54.9874 56.8505 54.9345C55.5822 56.3639 54.2081 57.6874 52.7812 58.7992C52.9398 58.958 53.0983 59.1168 53.204 59.3286C53.204 59.2756 53.2569 59.2756 53.2569 59.2227C53.5211 58.905 53.7325 58.5345 53.8911 58.1639C53.9968 57.9521 54.1024 57.7404 54.3138 57.7933C54.4724 57.8462 54.5781 58.058 54.6838 58.1639C54.7366 58.2698 54.7895 58.4286 54.8423 58.7462C55.2123 59.2227 54.5781 59.6462 54.4724 60.1756C54.4195 60.3874 53.8911 60.4403 53.574 60.3874C53.574 60.5462 53.7325 60.6521 53.9439 60.705C54.5252 60.2815 55.1066 59.805 55.635 59.2756C55.5822 58.958 55.5293 58.6933 55.635 58.6403Z" fill="#FEFEFE"/>
<path d="M61.0244 52.9757C60.813 52.8698 60.5488 52.8698 60.3374 52.764C60.2317 52.6581 60.1789 52.4463 60.126 52.2346C59.9675 52.3934 59.7032 52.4993 59.7032 52.6581C59.7032 52.8169 59.7032 52.9228 59.6504 53.0287C59.7561 53.0816 59.8089 53.1345 59.8618 53.2404C60.0732 53.5051 60.2846 53.664 60.6545 53.5051H60.7073C60.7602 53.4522 60.813 53.3463 60.8659 53.2934C60.9187 53.1345 60.9716 53.0287 61.0244 52.9757Z" fill="#FEFEFE"/>
<path d="M60.1265 52.1817C60.2322 52.1287 60.3379 52.1287 60.3907 52.0758C60.7607 51.4405 61.4477 51.3346 62.0818 51.2287C63.4559 48.8464 64.46 46.3053 65.147 43.7112C64.9885 43.4465 64.8299 43.3406 64.46 43.3406C64.1958 43.3406 63.8258 43.1289 63.6673 42.9171C63.403 42.5995 63.773 42.4406 63.9315 42.2289C63.9844 42.123 64.0901 42.0701 64.1429 42.0171C64.1958 41.9112 64.1958 41.8054 64.1958 41.6995C64.0901 41.6995 63.9315 41.5936 63.8258 41.6465C63.7201 41.6995 63.5616 41.6995 63.403 41.6995C62.716 45.1406 61.342 48.4758 59.4395 51.4934C59.6508 51.5993 59.8622 51.7052 60.0208 51.864C60.0736 51.864 60.0736 52.0758 60.1265 52.1817ZM62.2404 46.7818C62.5575 46.6759 62.6103 46.9406 62.6632 47.1523C62.716 47.3641 62.8217 47.6288 62.5046 47.6817C62.3461 47.6817 62.1875 47.47 62.029 47.3112C62.0818 47.0994 62.1347 46.8347 62.2404 46.7818Z" fill="#FEFEFE"/>
<path d="M58.4359 54.2463C58.753 54.3522 59.1229 54.4051 59.44 54.3522C59.6514 54.2992 59.6514 54.0345 59.5457 53.8757C59.44 53.7169 59.2815 53.5581 59.2286 53.3463C59.2286 53.2934 59.2286 53.2934 59.2286 53.2404H59.1758C58.8587 53.2934 58.5416 53.3992 58.2773 53.4522C58.2773 53.5581 58.3302 53.611 58.3302 53.7169C58.2773 53.9286 58.3302 54.1933 58.4359 54.2463Z" fill="#FEFEFE"/>
<path d="M51.9878 60.6521C51.8821 60.6521 51.8293 60.5992 51.7236 60.5462C51.5122 60.4403 51.3536 60.2286 51.2479 60.0168C51.2479 59.9639 51.1951 59.9639 51.1951 59.9639C51.1422 59.9639 51.1422 59.9639 51.0894 59.9639C50.9837 60.0168 50.878 60.0697 50.8251 60.1756C50.878 60.3345 50.9308 60.4403 50.9308 60.5992C51.0365 60.9697 50.8251 61.1815 50.4552 61.1815C49.6625 61.1815 48.9755 61.5521 48.2356 61.7638C48.0771 61.8168 47.9185 61.8697 47.76 61.8697C46.3859 62.5579 45.0119 63.0874 43.585 63.5638C43.1622 63.6697 42.7394 63.8285 42.3166 63.9344C42.6866 64.4109 42.9508 64.8344 43.215 65.2579C43.2679 65.3638 43.215 65.4697 43.2679 65.5755C43.1622 65.5755 43.0037 65.5755 42.9508 65.5226C42.5809 65.2579 42.2638 64.8873 41.7881 64.9403C41.7353 64.9403 41.5768 64.6226 41.5768 64.6226C41.7882 64.4638 41.7353 64.252 41.6825 64.0403C40.3613 64.3579 38.9872 64.5697 37.666 64.6756C37.8774 64.7285 37.8774 64.8344 37.8774 65.0461C37.7717 65.6285 38.1416 66.052 38.723 66.105C38.8815 66.105 39.0401 66.2108 39.1458 66.2638C39.0929 66.4226 39.0401 66.5814 38.9344 66.6873C38.9344 66.6873 38.9344 66.6873 38.8815 66.7402C40.7312 66.5285 42.528 66.1579 44.272 65.5755C46.4916 64.8873 48.6584 63.9344 50.7194 62.7168C51.4065 62.3462 52.0406 61.9227 52.6748 61.4462C52.6748 61.2874 52.5163 61.1286 52.4106 60.9697C52.1992 60.9697 52.0935 60.8109 51.9878 60.6521Z" fill="#FEFEFE"/>
<path d="M19.2229 62.7168C19.3286 62.7168 19.4343 62.6638 19.54 62.6638C19.6986 62.6638 19.8571 62.7697 20.0156 62.8226C19.9628 62.8756 19.8571 62.9815 19.8042 63.0344C20.0156 63.1403 20.1742 63.2462 20.3856 63.3521C20.3856 63.2991 20.5441 63.1932 20.5441 63.1932C20.7027 63.2462 20.8612 63.3521 20.9669 63.405C21.0726 63.6168 21.1783 63.6697 21.2311 63.8285C21.971 64.1991 22.7109 64.5167 23.5036 64.8344C23.9264 64.9932 24.2963 65.152 24.7191 65.2579C24.772 65.205 24.8248 65.205 24.8248 65.152C25.0362 65.152 25.1419 65.2579 25.1419 65.4167C26.6216 65.8932 28.1014 66.2638 29.634 66.5285C29.5811 66.3167 29.634 66.105 29.8453 65.9461C30.0039 65.7873 30.1624 65.6814 30.321 65.5226C30.2681 65.4697 30.2153 65.4167 30.1624 65.3638L30.2153 65.3108C30.2153 65.205 30.1624 65.0991 30.1624 64.9932C30.1096 64.9932 30.1096 64.9932 30.0567 65.0461C29.7925 65.205 29.5811 65.4167 29.3697 65.6285C29.1055 65.8403 28.8941 65.8402 28.6298 65.5755C28.1542 64.9932 27.6257 64.4109 27.1501 63.8285C26.146 63.5638 25.1419 63.1932 24.1906 62.8226C21.8125 61.8697 19.54 60.5992 17.4789 59.0109C17.109 59.3286 16.7919 59.2756 16.422 58.9051C16.1049 58.5874 15.7878 58.2698 15.4707 57.8992C15.2065 57.6345 14.9422 57.3698 15.0479 56.9463C14.7309 56.6286 14.4138 56.311 14.0967 55.9933C13.7267 55.9933 13.6739 55.9404 13.7267 55.5698C13.6739 55.5169 13.5682 55.411 13.5153 55.3581C13.2511 55.0404 12.9869 54.7757 12.7755 54.4581C12.7226 54.4581 12.6169 54.4051 12.5641 54.3522C12.5641 54.2992 12.5112 54.2463 12.5112 54.1934C11.8771 53.4522 11.3486 52.6581 10.7673 51.864C10.6616 51.8111 10.6087 51.8111 10.503 51.7581C10.503 51.7052 10.5559 51.6522 10.5559 51.5993C10.2388 51.1228 9.97454 50.6993 9.7103 50.2228C9.65745 50.3817 9.44606 50.4346 9.28752 50.4346C8.97043 50.4875 8.65334 50.5934 8.33625 50.5934C8.23056 50.5934 8.01917 50.5934 7.91347 50.4875C7.64923 50.3287 7.43784 50.2228 7.2793 50.2758C8.4948 52.6052 10.0274 54.7757 11.8242 56.7874C14.0967 59.1168 16.5277 61.1286 19.2229 62.7168ZM20.0685 61.2874C20.1213 61.4462 20.1213 61.658 20.0685 61.8168C20.0685 61.8697 19.7514 61.8697 19.6986 61.8168C19.5929 61.7109 19.5929 61.4991 19.4872 61.1815C19.8042 61.2344 20.0156 61.2344 20.0685 61.2874ZM18.0603 60.0168C18.3245 60.0168 18.6416 59.858 18.7473 59.9639C19.0115 60.1756 18.6944 60.3345 18.5359 60.4933C18.3774 60.6521 18.166 60.9168 17.9546 60.6521C17.9017 60.5462 18.0074 60.2815 18.0603 60.0168Z" fill="#FEFEFE"/>
<path d="M36.6096 38.6289C36.6096 38.7348 36.5039 38.8407 36.3982 38.9466C36.3453 38.9995 36.2396 38.9995 36.1868 38.9995C35.2884 39.1583 34.3899 39.3701 33.5444 39.5289C33.0687 39.6348 32.5931 39.7936 32.1175 39.8995C31.4833 40.0583 30.8491 40.2701 30.1621 40.376C30.215 40.6407 30.3207 40.9583 30.4263 41.223C30.4792 41.1701 30.4792 41.0642 30.532 41.0113C30.6377 41.1171 30.7963 41.1701 30.902 41.276C30.9548 41.276 30.9548 41.3818 30.9548 41.4348C30.9548 41.5407 31.0077 41.6465 31.0077 41.8054C31.0077 41.8583 30.9548 41.9112 30.9548 41.9642C31.7475 42.8642 33.0687 43.2877 34.8656 43.2877C38.195 43.2877 39.7276 42.3877 39.7276 40.9583C39.7276 39.8995 38.5649 39.0525 36.6096 38.6289C36.6096 38.6289 36.6096 38.576 36.6096 38.6289ZM37.7722 41.9112C37.8779 41.9112 37.9836 41.9642 38.0364 42.0171C37.9836 42.0701 37.9308 42.1759 37.8779 42.2818C37.7722 42.2289 37.6665 42.1759 37.6137 42.123C37.6665 42.0701 37.7722 41.9112 37.7722 41.9112Z" fill="#FEFEFE"/>
<path d="M15.9996 23.8586C16.0524 23.8586 16.1053 23.8056 16.211 23.8056C16.3167 23.8056 16.528 23.9115 16.5809 24.0703C16.7923 24.335 16.898 24.6527 17.1622 24.8644C17.8492 25.3409 17.4793 25.9762 17.5322 26.5585C17.5322 26.6644 17.3736 26.7703 17.2679 26.8762C17.4793 27.035 17.6379 27.2468 17.9549 27.0879C18.1135 27.035 18.4306 27.1409 18.5363 27.2468C18.8005 27.5115 18.959 27.882 19.1704 28.1997C19.3818 28.5703 19.0647 28.7291 18.8534 28.9408C18.642 29.1526 18.4306 29.1526 18.2192 28.9408C17.8492 28.5173 17.5322 28.1467 17.1622 27.7232C16.8451 27.3526 16.898 27.0879 17.2679 26.8762C17.1094 26.7703 16.898 26.5585 16.7923 26.6115C16.3167 26.8232 16.1581 26.5056 15.9467 26.2409C15.7882 26.0821 15.6825 25.8703 15.5239 25.7115C15.3654 25.5527 15.3125 25.3409 15.3125 25.1291C15.0483 25.6056 14.7841 26.135 14.5198 26.6644C15.1012 26.9821 15.5768 27.6703 15.5768 28.2526C15.6296 29.0997 16.5809 30.4232 17.3208 30.6879C17.4265 30.7408 17.585 30.6349 17.6907 30.6879C17.8492 30.7408 18.0606 30.7408 18.1663 30.8467C18.272 31.0055 18.4306 31.1643 18.5363 31.3232C18.5891 31.2702 18.642 31.2702 18.642 31.2702C19.1704 31.1643 19.4347 31.3232 19.5404 31.7467C19.5932 31.9585 19.5404 32.1702 19.3818 32.329C19.6461 32.6467 19.9632 32.9643 20.2274 33.3349C20.3331 33.4937 20.4388 33.6525 20.4916 33.8114C20.5445 33.9172 20.5445 34.129 20.4916 34.2349C20.4388 34.2878 20.2802 34.2878 20.1746 34.2878C19.4347 34.2878 18.8534 34.0231 18.642 33.4937C18.4306 33.229 18.272 33.0702 18.1663 32.9114C17.9549 32.6996 17.8492 32.4879 18.0078 32.1702C18.1663 31.9055 18.0078 31.6408 17.7435 31.7467C17.2679 31.9055 17.0565 31.6408 16.898 31.3232C16.528 30.582 15.8939 30.0526 15.3125 29.4703C15.1012 29.2585 14.9426 29.0467 14.6255 29.2056C14.3613 29.3114 14.2027 29.0997 14.2556 28.835C14.3084 28.4114 14.3613 27.9879 14.3613 27.5644C14.3613 27.5644 14.3613 27.5115 14.3084 27.4585C13.9385 28.4114 13.5686 29.3644 13.3572 30.3702C13.9385 30.3173 14.097 30.8467 14.3613 31.1643C14.6255 31.5349 14.5198 31.9055 14.2556 32.2232C14.1499 32.329 14.0442 32.4349 13.9385 32.5408C13.8857 32.5937 13.8857 32.6996 13.9385 32.7526C13.9913 32.8055 14.097 32.8055 14.1499 32.8055C14.3084 32.6996 14.5198 32.5937 14.6784 32.4879C15.154 32.1702 15.2597 32.1702 15.6296 32.5408C15.6296 32.4349 15.6825 32.2761 15.7353 32.2232C16.1053 32.0114 16.528 31.8526 16.9508 31.7467C17.0565 31.6937 17.3736 31.9055 17.3736 32.0114C17.4265 32.2761 17.3208 32.5408 17.2679 32.8055C17.2679 32.8055 17.1094 32.8584 17.0565 32.8055C16.6337 32.329 16.1581 32.5408 15.6825 32.6467C15.7882 32.8055 15.8939 32.9114 16.0524 33.0702C16.1581 33.229 16.3167 33.3878 16.4224 33.5467C16.6866 33.8643 16.9508 34.1819 17.2151 34.4996C17.4265 34.7643 17.6379 35.029 17.3736 35.4525C17.2151 35.7172 17.3736 35.9819 17.7435 35.8231C18.0078 35.7172 18.2192 35.6643 18.4306 35.929C18.6948 36.2996 18.959 36.6172 19.1704 37.0407C19.1704 36.829 19.1704 36.5643 19.2761 36.4054C19.3818 36.2466 19.4875 36.0349 19.5404 35.876C19.6461 35.5584 19.9632 35.4525 20.1217 35.7172C20.3331 36.1937 20.6502 36.0349 20.9673 35.9819C21.0201 35.9819 21.073 35.9819 21.073 35.929C21.0201 35.876 21.0201 35.8231 21.0201 35.8231C21.0201 35.7702 21.1787 35.6113 21.2315 35.6113C21.5486 35.6643 21.8657 35.5584 22.1299 35.6643C22.3413 35.6113 22.5527 35.5584 22.7112 35.5055C23.134 35.3996 23.2926 35.6113 23.3983 35.929C23.504 36.2996 23.4511 36.5643 23.0283 36.6701C22.8698 36.7231 22.7112 36.776 22.5527 36.829C22.1299 36.8819 21.76 37.0937 21.3901 36.6172C21.2315 36.3525 20.5445 36.6701 20.4388 36.9878C20.2802 37.3584 19.6989 37.676 19.329 37.5701C19.1704 37.5172 19.0647 37.3054 19.0647 37.0937C19.0119 37.1466 18.7477 37.4113 18.6948 37.3584C18.3249 37.1996 18.0606 37.3584 17.7964 37.4643C17.9021 37.5172 17.9549 37.6231 18.0606 37.676C17.9021 37.7819 17.7964 37.9407 17.6379 38.0466C17.5322 37.9407 17.4793 37.9407 17.4265 37.9407C17.1094 37.9937 16.7923 38.0995 16.6337 37.676C16.5809 37.5701 16.3695 37.6231 16.2638 37.5172C16.1581 37.4113 16.0524 37.2525 16.0524 37.0937C16.0524 36.9878 16.211 36.829 16.3167 36.829C16.4752 36.829 16.6337 36.776 16.7923 36.776C16.7923 36.7231 16.7923 36.6701 16.8451 36.5643C17.1094 35.929 16.6866 35.6643 16.4224 35.3466C16.0524 34.9231 15.6825 34.5525 15.3125 34.129C15.0483 33.8114 14.8898 33.9172 14.6255 34.0761C13.9913 34.5525 13.9913 34.5525 13.4629 33.9172C13.2515 33.6525 12.9872 33.3878 12.7758 33.1231C12.723 33.4408 12.723 33.7584 12.6701 34.0761C12.723 34.2878 12.6701 34.3937 12.6173 34.4996C12.5645 34.9761 12.5645 35.4525 12.5645 35.929C12.5645 35.9819 12.5645 36.0878 12.5645 36.1407C12.6173 36.1407 12.6173 36.1937 12.6701 36.1937C12.723 36.2466 12.6701 36.4584 12.6173 36.5113H12.5645C12.5645 36.9878 12.6173 37.5172 12.6701 37.9937C12.7758 37.8348 12.9872 37.7819 13.1986 37.729C13.2515 37.729 13.41 37.729 13.41 37.729C13.5686 38.1525 13.78 38.576 13.8328 38.9995C13.8857 39.3172 13.78 39.423 13.3043 39.5289C13.0929 39.6348 12.9344 39.5819 12.8287 39.476C12.8815 39.7936 12.9344 40.1113 12.9872 40.376C13.78 40.1642 14.5198 40.0054 15.2068 39.7936C15.154 39.7407 15.2068 39.5819 15.2068 39.476C15.3125 39.476 15.4711 39.5289 15.6825 39.5289C15.6825 39.5819 15.6825 39.6348 15.6296 39.6877C16.1581 39.5289 16.5809 39.3701 16.9508 39.2642C17.4265 39.1054 18.1663 39.2642 18.4306 39.6877C18.4834 39.7407 18.4306 40.0054 18.3777 40.0583C18.1663 40.2172 17.9021 40.323 17.6907 40.4289C17.3736 40.5877 17.0565 40.5877 16.9508 41.0642C16.898 41.3818 15.9996 41.5407 15.7882 41.3289C15.5239 41.0642 15.2597 41.1171 14.9955 41.1701C14.7312 41.223 14.5727 41.223 14.3613 40.9583C14.0442 40.5877 13.5157 40.6936 13.1986 41.0642C13.41 42.0171 13.6743 42.9171 14.0442 43.8171C14.2027 43.9759 14.4141 43.923 14.467 43.6583C14.5727 43.1289 14.9955 42.9701 15.4182 42.8642C15.8939 42.7583 16.3695 42.7054 16.898 42.5995C17.3736 42.4936 17.9021 42.4936 18.0078 41.8583C18.0078 41.8054 18.3777 41.6995 18.3777 41.7524C18.5363 42.0171 18.7477 42.0701 19.0647 42.123C19.4875 42.1759 19.6461 42.8642 19.329 43.1818C18.8534 43.6583 18.8534 43.7112 19.4347 43.9759C19.5404 44.0289 19.6461 44.1347 19.6461 44.2406C19.6461 44.3465 19.5404 44.5053 19.4875 44.5053C19.1704 44.6112 18.8005 44.8759 18.4834 44.4524C18.3777 44.3465 18.1135 44.3465 17.9021 44.3465C17.4265 44.3994 16.9508 44.7171 16.4752 44.1347C16.3167 43.923 15.9996 44.1877 15.9996 44.4524C15.9996 44.5583 15.9996 44.7171 16.0524 44.823C16.211 45.2994 15.8939 45.4053 15.5239 45.5112C15.1012 45.6171 14.9426 45.4053 14.8898 45.0347C14.8898 44.9288 14.8369 44.823 14.7841 44.77C14.6784 44.6641 14.5727 44.5583 14.467 44.4524C14.467 44.5053 14.4141 44.5583 14.3613 44.6112C14.7841 45.5641 15.2068 46.5171 15.7882 47.417C15.841 47.3641 15.8939 47.3112 15.8939 47.2582C16.211 47.3641 16.4224 47.417 16.6337 47.47C16.4224 47.6288 16.2638 47.7876 16.0524 47.8935C17.1622 49.6935 18.5363 51.2817 20.0689 52.7111C20.2274 52.6581 20.3859 52.6052 20.5973 52.6052C20.8616 52.5523 21.073 52.4993 21.3372 52.817C21.5486 53.0817 21.76 52.9758 21.8128 52.6581C21.9185 52.2876 22.6584 51.917 22.9755 52.0758C23.2397 52.2346 23.3454 53.0817 23.134 53.3464C22.8698 53.717 22.3942 53.9817 22.2885 54.5111C23.9796 55.6757 25.8293 56.6287 27.8375 57.3169C27.996 57.1581 28.1546 57.0522 28.3131 56.8934C28.5245 56.8934 28.6831 56.8934 28.7888 56.9463C29.0001 56.9993 29.2115 57.0522 29.3701 57.1051C29.2644 57.264 29.2115 57.4228 29.1058 57.5816C29.1058 57.6345 29.053 57.6875 29.053 57.7404C29.8986 58.0051 30.797 58.1639 31.6954 58.3228C31.7482 58.2698 31.7482 58.2169 31.8011 58.1639C31.8011 58.111 32.0125 58.111 32.0125 58.1639C32.0653 58.2698 32.1182 58.3228 32.171 58.3757C32.6995 58.4286 33.228 58.4816 33.7565 58.5345C33.7565 58.4816 33.7565 58.4816 33.8093 58.4286C33.915 58.3228 34.0735 58.3228 34.2321 58.2169C34.3378 58.2169 34.5492 58.1639 34.6549 58.2169C34.7077 58.2698 34.7606 58.4286 34.7606 58.5345C34.9191 58.5345 35.0777 58.5345 35.2362 58.5345C35.5004 58.5345 35.7647 58.5345 36.0289 58.5345C35.9761 58.4816 35.9761 58.3228 35.9761 58.2698C36.0289 58.2169 36.1346 58.2169 36.2403 58.2169C36.7159 58.1639 37.033 58.3228 37.3501 58.4816C39.6226 58.2698 41.7893 57.7404 43.7976 56.8934C43.5862 56.8934 43.4805 56.7346 43.4276 56.4699C43.3219 56.0993 43.639 55.7287 44.0618 55.6757C44.3789 55.6228 44.4846 55.7816 44.5374 56.0463C44.5903 56.2581 44.5903 56.4169 44.5374 56.5757C45.2245 56.2581 45.8586 55.9404 46.4928 55.5699C46.44 55.5699 46.3871 55.5169 46.2814 55.464C46.3871 55.3581 46.44 55.2522 46.5457 55.2522C46.5985 55.2522 46.7042 55.3581 46.7042 55.411C46.7042 55.411 46.7042 55.411 46.7042 55.464C47.0741 55.2522 47.4441 54.9875 47.814 54.7758C47.814 54.7228 47.814 54.7228 47.814 54.6699C47.8668 54.6699 47.8668 54.6699 47.9197 54.7228C49.0295 53.9287 50.0865 53.0817 51.0377 52.1287H50.9849C50.9849 52.1287 50.9849 52.1287 50.9849 52.1817C50.7735 52.2346 50.5092 52.3405 50.245 52.3405C50.0865 52.3405 49.7694 52.2876 49.7694 52.1817C49.7165 51.917 49.7694 51.6523 49.7694 51.3876C49.8222 51.3876 49.9279 51.3876 49.9808 51.3876C50.3507 51.7052 50.7206 51.5464 51.0906 51.4935C51.302 51.4405 51.5134 51.3876 51.7247 51.3346C53.2045 49.6935 54.4728 47.8406 55.4241 45.8288C55.3713 45.8288 55.3713 45.7759 55.3184 45.7229C55.2127 45.5641 55.107 45.3524 55.0542 45.1406C55.0013 44.9288 55.0013 44.6641 55.3184 44.6112C55.4769 44.6112 55.5826 44.823 55.7412 44.9288C55.794 44.9818 55.794 45.0347 55.794 45.0877C56.4282 43.6583 56.9038 42.1759 57.1681 40.5877C57.0624 40.4819 57.0095 40.376 56.9038 40.2701C56.9038 40.2701 56.9038 40.2701 56.9567 40.2172C56.851 40.0583 56.6924 39.8995 56.5868 39.7407C56.2697 39.3172 56.2697 39.1054 56.7453 38.7348C56.9567 38.576 57.1681 38.5231 57.3266 38.7878C57.3795 38.8407 57.3795 38.8936 57.4323 38.9466C57.538 38.0466 57.5909 37.0937 57.5909 36.1407C57.5909 35.3466 57.538 34.6055 57.4852 33.8114C57.4323 33.9172 57.3795 34.0761 57.3795 34.2349C57.3795 34.3408 57.2738 34.4466 57.1681 34.4996C57.0624 34.4996 56.9567 34.4466 56.9038 34.3408C56.5868 33.8643 56.7453 32.9643 57.1681 32.6467C57.2209 32.5937 57.2738 32.5937 57.3266 32.5937C57.2209 31.9585 57.1152 31.2702 56.9567 30.6349C56.9038 30.6879 56.9038 30.7408 56.851 30.7408C56.7981 30.7938 56.6396 30.7938 56.5868 30.7938C56.1111 30.8996 55.6883 31.0585 55.2127 31.1114C54.7899 31.1643 54.3671 31.3232 54.0501 30.8996C53.9972 30.8467 53.9444 30.8467 53.8387 30.7938C53.6801 30.6879 53.5216 30.6349 53.4159 30.5291C53.5744 30.4232 53.6801 30.2644 53.8915 30.2114C54.3671 30.0526 54.8956 29.7879 55.3713 30.3173C55.4769 30.4232 55.794 30.3702 56.0054 30.3702C56.2697 30.3173 56.4811 30.2114 56.7453 30.2114C56.7981 30.2114 56.7981 30.2114 56.851 30.2644C54.7899 22.588 48.8181 16.5528 41.208 14.4352C41.1552 14.4881 41.1023 14.594 40.9966 14.6469C40.7324 14.9116 40.521 14.8587 40.1511 14.3822C40.0454 14.2764 39.9925 14.2234 39.9925 14.1175C38.6713 13.8528 37.3501 13.6411 35.9761 13.6411C35.9761 13.9058 35.7118 14.0646 35.5004 14.1705C35.3947 14.2234 35.1305 14.1705 34.972 14.0646C34.8134 13.9587 34.7077 13.747 34.5492 13.5881C26.622 13.694 19.9103 17.7704 15.9996 23.8586ZM15.0483 30.1585C14.9955 30.2114 14.8369 30.1055 14.6784 29.9997C14.7841 29.8408 14.8369 29.735 14.9426 29.735C15.0483 29.735 15.154 29.7879 15.2597 29.8408C15.2068 29.9467 15.154 30.1055 15.0483 30.1585ZM14.6255 38.9995C14.5198 38.9466 14.4141 38.9466 14.3084 38.8936C14.2556 38.8407 14.3084 38.7348 14.3084 38.5231C14.467 38.6289 14.6255 38.6289 14.6784 38.7348C14.6784 38.7878 14.6255 38.8936 14.6255 38.9995ZM15.2597 38.4701C15.0483 38.576 14.8898 38.4172 14.8369 38.2054C14.7312 37.7819 14.8369 37.3054 15.0483 37.3584C15.2597 37.4113 15.3654 37.6231 15.6296 37.8348C15.4711 38.0995 15.4182 38.3642 15.2597 38.4701ZM17.5322 42.4406C17.4265 42.5465 17.2679 42.4936 16.9508 42.5465C17.0565 42.2818 17.0565 42.0701 17.1622 41.9642C17.2679 41.9112 17.4793 41.9642 17.6379 41.9642C17.585 42.123 17.585 42.3348 17.5322 42.4406ZM18.8005 47.2053C18.6948 47.2582 18.5363 47.0994 18.272 47.0465C18.4306 46.8347 18.5363 46.6759 18.642 46.6229C18.6948 46.57 18.959 46.7288 18.959 46.8347C18.959 46.9406 18.9062 47.1523 18.8005 47.2053ZM55.3184 37.0937C55.6883 36.776 55.8469 37.0937 56.0054 37.3054C56.4282 37.8348 56.4282 37.9407 56.1111 38.2054C55.6883 38.576 55.4769 38.5231 55.107 38.0995C54.8428 37.7819 54.8956 37.4113 55.3184 37.0937ZM19.329 37.9407C19.2761 37.9407 19.329 37.8348 19.329 37.676C19.4347 37.729 19.5404 37.729 19.5932 37.7819C19.6461 37.7819 19.5932 37.9407 19.5932 37.9407C19.4875 37.9937 19.4347 37.9937 19.329 37.9407ZM19.8575 51.3346C19.4875 51.4405 19.4875 51.0699 19.3818 50.8582C19.329 50.6464 19.2233 50.3817 19.5404 50.3288C19.6989 50.3288 19.8575 50.5405 20.0689 50.6993C19.9632 51.017 19.9632 51.3346 19.8575 51.3346ZM21.6014 47.2582C21.4957 47.3112 21.3901 47.3112 21.2315 47.3112C21.2844 47.1523 21.2844 47.0465 21.2844 46.9406C21.3901 46.9935 21.4957 46.9935 21.6014 47.0465C21.6543 47.0465 21.6543 47.2053 21.6014 47.2582ZM22.0242 46.4641C21.9714 46.7818 21.9714 46.9406 21.5486 46.7818C21.2315 46.6229 20.8087 46.7288 20.3859 46.7288C20.2274 46.7288 20.0689 46.7818 19.9632 46.7818C19.8575 46.7818 19.7518 46.6759 19.6461 46.6229C19.6989 46.57 19.6989 46.4112 19.8046 46.4112C20.1746 46.2524 20.5445 46.0406 20.9144 45.8818V45.9347C21.073 45.8818 21.1787 45.8288 21.3372 45.8288C21.9185 45.723 22.0771 45.8818 22.0242 46.4641ZM19.9632 41.9112C20.0689 42.0171 20.1217 42.0701 20.1746 42.123C20.1746 42.1759 20.1217 42.2289 20.0689 42.2818C20.016 42.2289 19.9103 42.1759 19.8575 42.123C19.8575 42.123 19.9103 42.0171 19.9632 41.9112ZM19.9103 41.8054C19.9103 41.6465 19.9103 41.5407 19.9632 41.3818C19.9632 41.3289 20.0689 41.276 20.1217 41.223C20.2274 41.1701 20.3331 41.0642 20.4388 41.0113C20.4916 40.9583 20.5973 41.0113 20.703 41.0113C20.703 41.1171 20.703 41.223 20.6502 41.276C20.5445 41.4348 20.4916 41.5936 20.3331 41.6995C20.2802 41.8054 20.0689 41.7524 19.9103 41.8054ZM22.7112 43.5524C22.1828 43.3406 21.7071 43.0759 21.2844 42.7054C21.073 42.4936 21.0201 42.0701 20.9673 41.7524C20.9673 41.6465 21.2315 41.4877 21.4429 41.3818C21.76 41.276 22.0771 41.223 22.3942 41.1171C22.3942 41.1171 22.3942 41.1171 22.3942 41.1701C22.7112 41.0642 23.0812 40.9583 23.3983 40.9054C23.7682 40.8524 23.9796 41.1171 23.8211 41.3818C23.504 41.8054 23.7154 42.2289 23.7682 42.6524C23.8211 42.9171 23.8211 43.3406 23.7154 43.3936C23.3983 43.5524 22.9755 43.6583 22.7112 43.5524ZM24.1381 43.4995C24.4552 43.1818 24.6666 43.3936 24.878 43.6583C25.3008 44.1877 25.3008 44.2936 24.878 44.6641C24.6666 44.77 24.4552 45.1936 24.0853 44.77C23.7154 44.3465 23.7154 43.87 24.1381 43.4995ZM24.7195 53.2934C24.6666 53.3993 24.6138 53.5052 24.5609 53.6111C24.5081 53.7699 24.5081 54.0346 24.4024 54.0875C24.191 54.1934 23.8739 54.2993 23.6097 54.2993C23.2926 54.2993 23.134 53.8758 23.3454 53.717C23.9796 53.3464 23.6625 52.8699 23.6097 52.4464C23.5568 52.2876 23.504 52.1287 23.5568 52.0229C23.6097 51.917 23.7154 51.8111 23.8211 51.7582C24.0324 51.7052 24.7723 52.4464 24.9309 52.6581C24.878 52.8699 24.8252 53.0817 24.7195 53.2934ZM25.2479 50.0111C25.1423 49.9582 24.9837 49.9052 24.9309 49.8523C24.878 49.7464 24.9309 49.5876 24.9837 49.3758C25.1423 49.4817 25.3008 49.5347 25.3008 49.6405C25.3536 49.7464 25.3008 49.8523 25.2479 50.0111ZM25.3008 46.2524C25.1951 46.1465 25.4065 45.8288 25.4593 45.5112C25.7764 45.5112 26.1464 45.3524 26.2521 45.5112C26.5691 45.7759 26.2521 45.9877 26.0407 46.1994C25.8293 46.3582 25.5122 46.6229 25.3008 46.2524ZM27.1505 53.3993C26.622 53.6111 26.4635 53.5581 26.3049 52.9758C26.2521 52.8699 26.2521 52.764 26.1992 52.6052C26.1992 52.5523 26.1464 52.3934 26.1464 52.2876C26.0935 51.8111 26.1992 51.7052 26.6748 51.5993C27.0448 51.4935 27.2033 51.7052 27.309 52.0229C27.3619 52.2876 27.4676 52.6052 27.5204 52.8699C27.5733 53.1346 27.4676 53.2934 27.1505 53.3993ZM27.2562 48.4759C27.1505 48.37 26.9919 48.2641 26.8862 48.1053C26.4106 47.6288 26.5163 47.0465 27.1505 46.8347C27.2562 46.7818 27.4676 46.8347 27.6261 46.9406C27.7846 47.0465 27.8375 47.2053 27.996 47.3112C28.1017 47.417 28.1546 47.5229 28.2603 47.5759C28.4717 47.8406 28.6302 48.1053 28.2603 48.4229C27.8375 48.7406 27.5733 48.7935 27.2562 48.4759ZM28.6302 52.3405C28.1546 52.4464 28.0489 52.3934 27.9432 51.864C27.8903 51.5993 27.8375 51.3346 28.2074 51.2288C28.7359 51.1229 28.9473 51.2288 29.053 51.6523C29.1587 52.0758 29.1058 52.1817 28.6302 52.3405ZM33.915 56.7346C33.8622 56.7346 33.8093 56.7346 33.8622 56.7346C33.4922 56.8404 33.1751 56.9993 32.9109 56.6287C32.8052 56.6816 32.6995 56.6816 32.6467 56.7346C32.6995 56.6816 32.6995 56.5757 32.7523 56.5228C32.6467 56.5228 32.541 56.6287 32.4353 56.7875C32.1182 57.4228 31.6954 57.4757 31.0612 57.1051C30.9027 56.9993 30.6384 57.0522 30.427 57.0522C30.2157 57.0522 29.8986 57.211 29.8986 56.8404C29.8986 56.7346 30.1628 56.5228 30.3213 56.4699C30.5856 56.364 30.8498 56.311 31.1141 56.2052C31.4312 56.0993 31.8011 56.0463 31.9596 55.7816C32.2239 55.411 32.4353 55.1463 32.858 55.5699C32.9109 55.6228 33.1751 55.5169 33.228 55.411C33.4394 54.9346 33.915 54.8287 34.2849 54.9346C34.4963 55.0405 34.7077 55.464 34.7606 55.7816C34.7077 56.311 34.4435 56.6287 33.915 56.7346ZM30.9555 52.0229C31.3255 51.7582 31.484 51.7582 31.8011 52.1817C32.0125 52.3934 32.0653 52.6581 31.7482 52.9228C31.4312 53.1875 31.2726 53.1875 30.9555 52.817C30.7441 52.5523 30.6384 52.2876 30.9555 52.0229ZM30.7441 50.3288C30.7441 50.1699 30.797 49.9582 30.9027 49.9052C31.1141 49.7994 31.2726 49.9582 31.3255 50.1699C31.3255 50.2229 31.3783 50.3288 31.4312 50.4876C31.4312 50.4876 31.484 50.6464 31.484 50.7523C31.4312 50.8582 31.3783 51.0699 31.2726 51.0699C31.1669 51.0699 31.0084 50.9641 30.9555 50.8582C30.797 50.7523 30.7441 50.5405 30.7441 50.3288ZM32.858 54.1405C32.858 53.9817 32.9109 53.8228 32.9109 53.664C33.0694 53.7169 33.228 53.717 33.3865 53.8228C33.4922 53.8758 33.5451 53.9817 33.7036 54.0875C33.7036 54.1934 33.8093 54.3522 33.7565 54.5111C33.7565 54.6169 33.4922 54.7758 33.4394 54.7228C33.2808 54.6699 33.1223 54.5111 33.0166 54.3522C32.9109 54.3522 32.858 54.2464 32.858 54.1405ZM35.289 56.5228C35.1834 56.5757 35.0248 56.5757 34.9191 56.5228C34.8663 56.4699 34.8663 56.311 34.8663 56.1522C35.0777 56.2052 35.1834 56.2052 35.289 56.2581C35.3419 56.2581 35.3419 56.4699 35.289 56.5228ZM37.1916 54.8816C37.1387 54.9346 37.033 54.9346 36.9802 54.8816C36.8745 54.8287 36.7688 54.7228 36.7159 54.6169C36.6102 54.4581 36.5574 54.2464 36.5046 54.0346C36.7159 54.0875 36.8745 54.1934 36.9802 54.2464C37.0859 54.4581 37.1916 54.564 37.2444 54.6699C37.2444 54.7228 37.1916 54.8287 37.1916 54.8816ZM40.3096 57.211C40.2568 57.264 40.1511 57.264 39.9397 57.3169C39.8868 57.3169 39.7811 57.3169 39.6754 57.3169L39.7283 57.3698C39.7811 57.4757 39.7283 57.7934 39.6754 57.7934C39.5169 57.8463 39.3055 57.8463 39.1469 57.7404C38.9356 57.5287 38.7242 57.3169 38.4599 56.9463C38.3542 56.7875 38.1428 56.5757 37.9843 56.2581C37.9314 56.1522 37.9843 55.9934 38.0371 55.8346C38.0371 55.7816 38.3014 55.8346 38.3542 55.8875C38.6185 56.1522 38.8827 56.4169 39.1469 56.6816C39.1998 56.6287 39.1998 56.5757 39.2526 56.4699C39.3583 56.2581 39.4112 55.9934 39.5169 55.9404C39.7811 55.8875 40.0982 55.9404 40.3624 55.9934L40.4153 56.0463C40.6267 56.2052 40.8909 56.311 41.1023 56.4699C40.8909 56.7875 40.5738 56.9993 40.3096 57.211ZM41.895 56.0463C41.4194 56.4169 41.3137 56.364 40.9438 55.8875C40.6795 55.5699 40.7852 55.1463 41.2609 54.8287C41.5779 54.6169 41.7893 54.7228 42.1064 55.1463C42.3707 55.5169 42.3707 55.6757 41.895 56.0463ZM45.6472 53.2405C45.5944 53.3464 45.5415 53.4523 45.4887 53.5581C45.383 53.8758 45.2245 53.9287 44.9602 53.717C44.4317 53.3993 43.4805 53.6111 43.2162 54.1405C43.0048 54.5111 42.265 54.7758 41.9479 54.4581C41.5779 54.0875 41.2609 54.2993 40.9438 54.3522C40.6267 54.4052 40.2039 54.4052 40.1511 54.9346C40.0982 55.3581 38.8299 55.5699 38.4599 55.3052C38.3542 55.1993 38.1957 55.0934 38.09 55.0934C37.6144 55.1463 37.6144 54.8287 37.5615 54.5111C37.5087 54.0875 37.7729 53.9287 38.09 53.8758C38.4599 53.5052 38.8827 54.4581 39.1998 53.8758C39.464 53.4522 39.834 53.4522 40.2039 53.3464C41.1023 53.0817 42.0536 52.764 42.952 52.5523C43.2162 52.4993 43.5862 52.4464 43.7976 52.5523C44.2732 52.817 44.7488 52.764 45.2245 52.7111C45.383 52.7111 45.5944 52.764 45.7529 52.764C45.8058 52.9228 45.7001 53.0817 45.6472 53.2405ZM42.952 49.5347C42.6349 49.5347 42.3178 49.5876 42.2121 49.4817C41.9479 49.217 42.265 49.0582 42.4764 48.8994C42.6349 48.7406 42.8991 48.4759 43.1105 48.7935C43.1634 48.9523 43.0048 49.217 42.952 49.5347ZM43.1105 51.6523C43.0577 51.7582 43.0577 51.864 43.0048 51.864C42.8991 51.917 42.7935 51.864 42.6349 51.8111C42.7406 51.6523 42.7934 51.5464 42.8463 51.5464C42.8991 51.5464 43.0048 51.5993 43.1105 51.6523ZM41.0495 48.5288C40.8909 48.5288 40.7324 48.4759 40.5738 48.4759C40.6267 48.37 40.7324 48.2112 40.7852 48.1053L40.8381 48.0523C40.8909 47.2053 41.5779 47.2582 42.0007 47.1523C42.2121 47.0994 42.3178 47.0994 42.4235 47.0465C43.0577 46.6229 43.4276 47.2053 43.8504 47.417C43.9033 47.417 43.9033 47.7876 43.8504 47.8406C43.6919 47.9994 43.4805 48.1053 43.2691 48.1582C42.5292 48.2641 41.7893 48.4229 41.0495 48.5288ZM45.9643 48.1053C45.7529 48.0523 45.5944 47.9994 45.4887 47.9464C45.2773 47.8406 45.0659 47.6817 44.8545 47.5229C44.6431 47.3641 44.6431 47.1523 44.9074 46.9935C45.2773 46.8347 45.7529 46.8347 45.8058 46.2524C45.8058 46.1994 45.9643 46.1465 45.9643 46.1465C46.3343 46.3582 46.6513 46.5171 46.9684 46.7288C47.0213 46.7818 47.0213 46.9406 46.9684 46.9935C46.6513 47.417 46.3343 47.7347 45.9643 48.1053ZM44.4317 33.0702C43.7976 33.229 43.1105 33.4408 42.4764 33.5996C42.4764 33.6525 42.5292 33.7584 42.4764 33.8114C42.3707 33.9172 42.265 34.0231 42.1593 34.0761L42.0007 33.9702C42.0536 33.8643 42.1593 33.7584 42.265 33.6525C42.3178 33.5996 42.3707 33.5996 42.4764 33.5996C42.4235 33.3878 42.265 33.0702 42.6349 32.9643C43.3748 32.7526 44.1675 32.5408 44.9074 32.329C45.0659 32.2761 45.2245 32.382 45.383 32.4349C45.2773 32.5408 45.1716 32.7526 45.0131 32.8055C44.8545 32.9643 44.6431 33.0173 44.4317 33.0702ZM44.9602 36.5113C44.8017 36.6701 44.6431 36.829 44.4846 36.9348C44.1146 37.1466 44.009 37.0407 43.8504 36.3525C43.8504 36.2996 43.7976 36.1937 43.7976 36.0878C43.7976 35.9819 43.9033 35.8231 43.9561 35.8231C44.0618 35.7702 44.2203 35.8231 44.2732 35.876C44.3789 35.9819 44.4317 36.1407 44.5374 36.1937C44.6431 36.2996 44.8017 36.4054 44.9602 36.5113ZM46.3343 35.2937C46.44 35.2937 46.5457 35.3466 46.6513 35.3466C46.5985 35.4525 46.5985 35.5055 46.5457 35.6113C46.44 35.5584 46.2814 35.5584 46.2814 35.4525C46.2814 35.5055 46.3343 35.2937 46.3343 35.2937ZM47.0213 54.1934C46.5985 54.4052 46.4928 54.3522 46.44 53.8228C46.44 53.717 46.3871 53.6111 46.3871 53.5581C46.2814 53.3464 46.2814 53.0817 46.5457 52.9758C46.7042 52.9228 46.9156 53.0817 47.0213 53.0817C47.4441 53.717 47.4441 53.9287 47.0213 54.1934ZM47.0741 32.9643C47.0213 33.0173 46.8627 32.9114 46.5985 32.8055C46.8099 32.6467 46.9156 32.4879 47.0213 32.4349C47.127 32.4349 47.2327 32.5408 47.3912 32.5937C47.2855 32.7526 47.2327 32.9114 47.0741 32.9643ZM47.8668 50.8582C47.7612 50.8582 47.6026 50.8582 47.5498 50.8052C47.4969 50.7523 47.4969 50.5935 47.4969 50.4346C47.6555 50.4346 47.8668 50.4346 47.8668 50.4876C47.9197 50.5935 47.8668 50.7523 47.8668 50.8582ZM49.188 52.3405C49.188 52.3934 49.1352 52.4464 49.0824 52.5523C49.0295 52.6581 48.9238 52.817 48.871 52.9228C48.7653 52.817 48.6596 52.6581 48.5539 52.5523C48.5539 52.3405 48.5539 52.0758 48.6596 51.9699C48.8181 51.864 49.0295 51.864 49.2409 51.8111C49.2409 52.0229 49.2409 52.1817 49.188 52.3405ZM48.8181 35.6643C48.1839 35.8231 48.0782 35.7172 47.9197 35.1878C47.814 34.8172 47.9725 34.6584 48.3425 34.5525C48.9238 34.3937 49.2409 34.5525 49.3994 35.1349C49.5051 35.7172 48.9767 35.5055 48.8181 35.6643ZM50.0865 47.417C50.0336 47.47 49.8751 47.3641 49.558 47.2053C49.7694 47.0994 49.8751 46.9406 49.9279 46.9406C50.0336 46.9406 50.1393 47.0465 50.245 47.0994C50.1922 47.2582 50.1922 47.417 50.0865 47.417ZM49.9279 32.329C49.6108 32.4349 49.2409 32.4879 48.9238 32.5937V32.6467C48.7124 32.6996 48.501 32.7526 48.2896 32.6996C48.1311 32.6996 47.9197 32.5937 47.9197 32.4349C47.8668 32.329 48.0254 32.0643 48.1311 32.0643C48.5539 31.9055 48.9238 31.7996 49.188 31.3761C49.2937 31.2173 49.7165 31.1643 49.9808 31.2173C50.0336 31.2173 50.0336 31.2702 50.0865 31.2702C50.1393 31.3761 50.1922 31.6408 50.245 31.7996C50.3507 32.1173 50.1922 32.2232 49.9279 32.329ZM51.7776 46.3582C51.6719 46.3053 51.5134 46.2524 51.4077 46.2524C51.0377 46.1465 50.5621 46.3053 50.5621 45.7759C50.5092 45.5112 50.4564 45.3524 50.5092 45.2465C50.5621 45.1406 50.6678 44.9818 50.7735 44.9818C50.9849 44.9288 51.7776 45.67 51.8304 45.9347C51.8304 46.0406 51.7776 46.1994 51.7776 46.3582ZM54.6314 34.8172C54.6314 34.9761 54.6314 35.1349 54.6314 35.2937C54.6314 35.4525 53.9972 35.9819 53.8387 35.9819C53.6801 35.9819 53.4687 35.929 53.3102 35.929C53.4159 35.7172 53.4687 35.5584 53.5744 35.3466C53.6273 35.2408 53.733 35.2408 53.8915 35.029C53.8915 35.029 53.9972 34.9231 54.1557 34.8702C54.2614 34.8172 54.4728 34.8172 54.6314 34.8172ZM53.5744 33.3349C53.733 33.3349 53.8915 33.4937 54.1029 33.6525C53.9972 33.9172 53.9444 34.2878 53.8387 34.3408C53.4687 34.4466 53.4687 34.0761 53.4159 33.8643C53.363 33.6525 53.2573 33.3878 53.5744 33.3349ZM52.9931 28.4114C53.0459 28.4114 53.2573 28.5173 53.2573 28.5703C53.2573 28.6761 53.1516 28.835 53.0459 28.8879C52.9931 28.9408 52.8346 28.782 52.676 28.7291C52.8346 28.5703 52.8874 28.4114 52.9931 28.4114ZM52.8874 33.6525C53.0988 33.9172 53.2573 34.2349 53.4159 34.5525C53.4159 34.5525 53.363 34.6584 53.3102 34.6584C52.9931 34.6055 52.6232 34.6584 52.3061 34.5525C52.3061 34.7643 52.2532 34.8702 52.0418 35.029C51.8304 35.1878 51.619 35.3996 51.4605 35.5584C51.302 35.2937 51.1963 35.0819 51.0377 34.8172C50.9849 34.7114 50.8263 34.6584 50.7206 34.6055C50.6149 34.5525 50.5092 34.4466 50.4035 34.3408C50.5092 34.2349 50.6149 34.0761 50.7206 34.0231C50.8792 33.9172 51.0906 33.8643 51.1434 33.8643C51.7776 33.7055 52.0418 33.7584 52.2004 33.9702C52.2532 33.8643 52.3589 33.8114 52.4118 33.7055C52.5175 33.7055 52.8345 33.5467 52.8874 33.6525ZM51.7247 32.2761C51.8833 32.4349 52.0418 32.5937 52.1475 32.8055C52.2004 32.9114 52.1475 33.1231 52.1475 33.282C51.989 33.282 51.8304 33.229 51.6719 33.1761C51.5662 33.1231 51.5662 33.0173 51.3548 32.8055C51.4077 32.8584 51.2491 32.7526 51.2491 32.6467C51.1963 32.5408 51.1963 32.329 51.302 32.2761C51.4605 32.2232 51.6719 32.2232 51.7247 32.2761ZM51.4077 31.0055C51.3548 31.1114 51.2491 31.2173 51.1963 31.2173C51.0906 31.2702 50.932 31.1643 50.7206 31.1643C50.932 31.0055 50.9849 30.8467 51.0906 30.8467C51.1434 30.8467 51.2491 30.9526 51.4077 31.0055ZM50.0865 25.0762C50.4035 24.8644 50.6149 25.0233 50.7735 25.288C51.0377 25.6056 50.932 25.7644 50.5092 26.0821C50.1393 26.3468 49.9808 26.135 49.7694 25.8703C49.6108 25.5527 49.7165 25.3409 50.0865 25.0762ZM49.3994 24.2292C49.4523 24.2821 49.558 24.335 49.558 24.335C49.558 24.388 49.5051 24.4939 49.4523 24.5468C49.3994 24.4939 49.2937 24.4939 49.2937 24.4409C49.2937 24.388 49.3466 24.2821 49.3994 24.2292ZM48.9238 28.9408C49.0295 29.0467 49.1352 29.1526 49.2937 29.3114C49.3994 29.4703 49.558 29.6291 49.6637 29.8938C49.7165 29.9997 49.7165 30.1585 49.6637 30.2114C49.6108 30.2644 49.4523 30.2644 49.3466 30.2644C49.188 30.2644 49.0295 30.1055 48.9238 30.1585C48.6596 30.3173 48.3425 30.4761 48.1839 30.0526C48.0254 29.682 47.8668 29.3114 48.2368 28.9408C48.4482 28.6761 48.6596 28.6232 48.9238 28.9408ZM48.0782 27.935C48.2368 28.1467 48.1839 28.3056 47.9725 28.4114C47.7612 28.5173 47.4969 28.6232 47.2327 28.6761C47.1798 28.6232 47.127 28.5703 47.127 28.5173C47.2855 28.3056 47.3912 28.0409 47.6026 27.8291C47.7612 27.6703 47.9197 27.7762 48.0782 27.935ZM46.8099 17.9292C46.8099 17.8763 46.9156 17.9292 47.0741 17.9292C47.0213 18.0351 47.0213 18.141 46.9684 18.1939C46.9156 18.2469 46.8627 18.1939 46.757 18.1939C46.8099 18.141 46.757 18.0351 46.8099 17.9292ZM46.9684 24.7586C47.0213 24.7056 47.2855 24.8644 47.2855 24.9703C47.2855 25.0762 47.1798 25.235 47.127 25.3409C47.0741 25.3938 46.9156 25.235 46.7042 25.1291C46.8099 24.9703 46.8627 24.8115 46.9684 24.7586ZM47.2327 26.9291C47.2855 27.035 47.2855 27.2468 47.2855 27.4056C47.127 27.4056 46.9156 27.4056 46.8099 27.2997C46.5985 27.1409 46.3871 26.9291 46.2286 26.7174C46.0172 26.4527 45.8586 26.1879 45.4358 26.3468C45.2245 26.3997 44.6431 25.8703 44.696 25.7115C44.8017 25.4468 45.0131 25.1821 45.2245 24.9174C45.2773 24.8644 45.5415 24.9703 45.6472 25.0762C45.9115 25.3409 46.1229 25.6585 46.3871 25.9232C46.7042 26.2409 46.9684 26.5585 47.2327 26.9291ZM45.1188 19.3057C45.4887 19.041 45.6472 19.041 45.9643 19.4645C46.2286 19.7822 46.1757 19.941 45.8058 20.2586C45.5415 20.4704 45.2773 20.5763 45.0659 20.2586C44.696 19.8351 44.696 19.6233 45.1188 19.3057ZM37.5087 15.5469C37.7729 15.3881 38.0371 15.0705 38.3542 15.441C38.6185 15.7587 38.8299 16.0234 39.0941 16.341C39.2526 16.5528 39.4112 16.7116 39.5697 16.9234C39.7811 17.1881 40.0454 17.4528 39.834 17.8763C39.7283 18.0881 39.8868 18.2469 40.2039 18.2469C40.8381 18.1939 40.8381 18.2469 40.7324 18.8822C40.7324 18.9881 40.7324 19.1469 40.7852 19.2528C41.1552 19.7292 41.4723 20.2057 41.895 20.6292C42.0007 20.7351 42.2121 20.7351 42.3707 20.7351C42.7406 20.6821 42.8991 20.841 42.7406 21.1586C42.5292 21.5292 42.7406 21.741 42.952 21.9527C43.4276 22.5351 43.9561 23.1174 44.4317 23.6997C44.5374 23.8586 44.696 24.0174 44.7488 24.2292C44.8017 24.335 44.6431 24.5468 44.5903 24.5468C43.9561 24.7056 42.8991 24.1233 42.6349 23.435C42.5821 23.3292 42.6349 23.1703 42.6349 23.0645C42.7406 22.4821 42.4764 22.1115 41.8422 22.1115C41.6308 22.1115 41.4194 22.0057 41.2609 21.8998C40.7852 21.4233 40.4153 20.8939 39.9925 20.4174C39.7811 20.1527 39.5169 19.941 39.7283 19.4645C39.8868 19.1469 39.3583 18.5645 38.9884 18.6704C38.6713 18.7234 38.5128 18.6175 38.3542 18.4057C38.09 17.8234 37.403 17.5587 37.7201 16.7646C37.7729 16.6587 37.5087 16.394 37.403 16.1822C37.1387 15.9175 37.2444 15.7058 37.5087 15.5469ZM36.0289 15.2822C36.1346 14.9646 36.1875 14.7528 36.1346 14.4352C36.1346 14.3822 36.346 14.2234 36.3989 14.2234C36.6102 14.3822 36.8745 14.594 37.033 14.8058C37.0859 14.9116 36.9273 15.1763 36.9273 15.2822C36.7159 15.441 36.5574 15.5469 36.4517 15.5999C36.1346 15.7057 35.9761 15.494 36.0289 15.2822ZM37.9843 20.3645V23.1703C40.9966 23.8056 42.7406 25.4997 43.6919 26.9291C44.9602 28.8879 45.0659 31.2173 45.0659 31.5879H41.4194C41.208 31.7996 40.8909 32.0114 40.6267 32.0114C40.3096 32.0114 40.2039 31.8526 40.3624 31.5879H39.834C39.834 31.3761 39.7811 30.3702 39.2526 29.682C38.5128 28.6761 37.1387 28.0409 35.1834 27.9879C35.1834 28.0938 35.1305 28.1997 35.0777 28.3056C34.972 28.2526 34.9191 28.2526 34.602 28.0938C34.6549 28.0409 34.7077 28.0409 34.7606 27.9879C32.5938 28.0409 30.2685 28.5703 30.2685 30.2114C30.2685 31.7467 31.7482 32.5937 34.8663 33.0173C34.9191 32.9643 34.972 32.9114 35.0248 32.9114C35.1305 32.9114 35.2362 33.0173 35.289 33.0702C37.0859 33.282 38.6185 33.6525 39.8868 34.1819C39.9397 34.1819 39.9925 34.1819 40.0454 34.129C40.1511 34.129 40.2568 34.0761 40.4153 34.0761C40.4681 34.0761 40.5738 34.0761 40.6267 34.129C40.6795 34.1819 40.7324 34.3937 40.7324 34.3937C40.6795 34.3937 40.6267 34.4466 40.5738 34.4466C41.7365 35.029 42.6878 35.7172 43.4276 36.5643C44.2732 37.5701 44.8545 38.7878 45.0131 40.0583C45.0659 40.0054 45.1188 40.0054 45.1188 40.0054C45.1716 40.0054 45.2773 40.1113 45.3302 40.1642C45.2773 40.2171 45.1716 40.323 45.0659 40.376H45.0131C45.0131 40.5877 45.0659 40.7995 45.0659 41.0113C45.0659 41.8054 45.0659 43.8171 43.4276 45.6171C42.6349 46.57 41.4723 47.2582 40.0982 47.7347C39.5697 47.9464 38.9884 48.1053 38.4071 48.2112C38.4599 48.317 38.5656 48.4229 38.5656 48.5288C38.7242 48.8464 38.7242 49.217 39.1998 49.217C39.2526 49.217 39.3583 49.4288 39.3583 49.4817C39.3583 49.5876 39.1998 49.6935 39.1469 49.6935C38.8299 49.6935 38.5656 49.7994 38.2485 49.5347C38.1428 49.4288 38.09 49.3758 38.0371 49.3758V51.0699C38.09 51.017 38.1957 50.9641 38.2485 50.9641C38.3014 50.9641 38.5128 51.017 38.5128 51.0699C38.5128 51.4405 38.5128 51.8111 38.4599 52.2346C38.4599 52.2876 38.1957 52.3934 38.1428 52.3405C37.9314 52.1287 37.7201 51.9699 37.6144 51.7052C37.6144 51.6523 37.6144 51.5993 37.6144 51.5464H34.5492C34.4963 51.5464 34.3906 51.5993 34.3378 51.5993C34.2321 51.5993 34.1792 51.5993 34.0735 51.6523C33.6508 51.7052 33.3337 51.7052 33.1223 51.5464H31.9068V48.5288C31.8011 48.6347 31.5368 48.6347 31.484 48.5817C31.2726 48.37 31.0612 48.1053 30.8498 47.8935C30.6913 47.8406 30.5856 47.7876 30.427 47.7347C29.2115 47.2582 28.2603 46.57 27.3619 45.7229C25.7764 44.2936 25.1423 42.5465 24.9309 41.276C24.7723 41.1701 24.5609 41.0642 24.4024 41.0113C24.5081 40.8524 24.6138 40.7466 24.6666 40.6407C24.4024 40.323 24.1381 40.0054 23.8211 39.6348C23.6625 39.476 23.5568 39.3172 23.504 39.1583C23.4511 39.1054 23.3983 39.1054 23.3983 39.0525C23.2397 38.8407 23.134 38.6289 22.9226 38.5231C22.447 38.3642 22.0771 38.6819 22.1299 39.2113C22.1299 39.3701 22.1828 39.5289 22.1299 39.6348C22.0771 39.7407 21.8657 39.7936 21.76 39.8466C21.5486 39.423 20.9673 39.6877 20.7559 39.2113C20.7559 39.1583 20.4916 39.1054 20.3859 39.1054C20.2274 39.1054 20.0689 39.1583 19.9632 39.1583C19.6989 39.2113 19.4875 39.1583 19.4347 38.8936C19.3818 38.6289 19.5932 38.5231 19.8046 38.4701C19.8575 38.4701 19.9103 38.4701 19.9632 38.4172C19.9632 38.4172 19.9632 38.4172 19.9632 38.4701C20.7559 38.2584 21.6014 38.0466 22.3942 37.8878H22.447C22.3942 37.7819 22.3942 37.6231 22.3413 37.4113C22.5527 37.4643 22.7641 37.4113 22.8169 37.5172C22.8698 37.5701 22.8698 37.729 22.8169 37.8348C23.1869 37.7819 23.5568 37.7819 23.9268 37.9407C24.1381 38.0466 24.7723 37.8348 24.8252 37.676C24.9309 37.1466 25.3536 37.0937 25.7236 36.9878C26.1464 36.8819 26.622 36.829 27.0448 36.829C27.1505 36.829 27.2562 36.9348 27.3619 37.0407C27.309 37.1466 27.2562 37.3054 27.1505 37.3584C26.9391 37.4643 26.6748 37.5172 26.4635 37.6231C26.1992 37.729 25.8821 37.7819 25.8293 38.1525C25.8293 38.2584 25.7236 38.3642 25.6179 38.4172C25.1951 38.576 24.7723 38.6289 24.6138 39.2113C24.6666 39.3172 24.7195 39.3701 24.8252 39.476C24.878 39.5289 24.9309 39.5819 24.9837 39.6877C24.9837 39.476 24.9837 39.3172 24.9837 39.2642L29.5815 39.3172C29.8457 39.2642 30.1628 39.2113 30.427 39.1583C30.797 39.1054 31.0612 38.9995 31.3255 39.3701C31.484 39.6348 31.7482 39.5289 31.8011 39.2642C31.9068 38.8936 32.1182 38.8407 32.4353 38.7348C33.1223 38.5231 33.7565 38.3642 34.4435 38.1525C32.858 37.9937 31.484 37.6231 30.3213 37.1995C29.9514 37.2525 29.5286 37.3584 29.2115 37.5701C29.1587 37.6231 29.053 37.6231 29.0001 37.6231C28.7359 37.6231 28.366 37.8878 28.2603 37.4643C28.1017 36.9878 28.5245 37.0407 28.7888 36.9348C28.9473 36.8819 29.053 36.829 29.1587 36.7231C28.366 36.2996 27.679 35.8231 27.0976 35.2408C27.0976 35.3996 27.0976 35.5584 26.8334 35.6113C26.5691 35.6643 26.3578 35.5584 26.3578 35.2937C26.3578 35.029 26.1992 34.7114 26.4106 34.4996C25.4593 33.3349 25.0366 32.0114 25.0366 30.5291C25.0366 30.3702 25.0366 30.2644 25.0366 30.1055C24.9837 29.9467 24.9837 29.7879 25.0366 29.682C25.2479 27.8291 26.0407 26.5585 26.6748 25.7644C27.9432 24.388 29.6872 23.488 32.0125 23.0645V20.3116H37.9843V20.3645ZM36.0289 29.1526C35.9761 29.1526 35.8704 28.9938 35.8704 28.9408C35.8704 28.835 35.9232 28.782 35.9761 28.6761C36.0818 28.6761 36.1346 28.6232 36.2403 28.6232C36.5046 28.6232 36.7688 28.6232 37.033 28.6761C37.1387 28.6761 37.2444 28.835 37.3501 28.9408C37.2444 29.0467 37.1387 29.2056 37.0859 29.2056C36.6631 29.2585 36.346 29.2056 36.0289 29.1526ZM36.8745 32.9114C36.7688 32.8584 36.7159 32.8584 36.3989 32.6996C36.5574 32.5937 36.6102 32.4879 36.7159 32.4879C36.8216 32.4879 36.9273 32.5937 36.9802 32.6467C36.9802 32.7526 36.9273 32.8584 36.8745 32.9114ZM25.0366 23.6468C25.1951 23.6997 25.3536 23.6997 25.4065 23.7527C25.4593 23.8586 25.4065 24.0174 25.3536 24.1233C25.2479 24.0703 25.0894 24.0703 24.9837 24.0174C24.9309 24.0174 24.9837 23.8056 25.0366 23.6468ZM32.6467 18.7234C32.8052 18.8292 32.9109 18.8822 32.9109 18.9351C32.9109 19.041 32.858 19.1469 32.858 19.2528C32.8052 19.1998 32.6467 19.1998 32.6467 19.1469C32.541 19.041 32.5938 18.9351 32.6467 18.7234ZM33.0166 18.4587C32.9109 18.4587 32.8052 18.4587 32.7523 18.4057C32.6995 18.3528 32.6995 18.1939 32.5938 18.0351C32.8052 18.0881 32.9109 18.0881 32.9637 18.141C33.0694 18.1939 33.0166 18.3528 33.0166 18.4587ZM32.541 15.6528C32.5938 15.6528 32.7523 15.7587 32.7523 15.8646C32.7523 15.9705 32.6995 16.1293 32.6467 16.2352C32.541 16.1822 32.4353 16.1293 32.1182 15.9705C32.3296 15.8116 32.3824 15.6528 32.541 15.6528ZM31.5368 16.6057C31.6954 16.5528 31.9068 16.6057 32.1182 16.6057C32.171 16.9763 32.171 17.1881 32.2239 17.4528C31.9596 17.294 31.6425 17.1881 31.4312 16.9763C31.3783 17.0293 31.4312 16.6587 31.5368 16.6057ZM30.2685 15.1234C30.3742 15.0175 30.5327 15.0705 30.8498 15.0175C30.6913 15.3352 30.6384 15.494 30.5327 15.5469C30.427 15.5999 30.2685 15.5469 30.1628 15.5469C30.1628 15.441 30.1628 15.2293 30.2685 15.1234ZM26.9391 17.9822C27.2033 17.7175 27.5204 17.3998 27.8375 17.1881C27.8903 17.1351 28.1017 17.1881 28.2074 17.241C28.2074 17.3998 28.2074 17.5057 28.1017 17.6645C28.0489 17.7704 27.8903 17.8763 27.7846 17.9822C27.5733 18.0881 27.4147 18.2469 27.2033 18.3528C27.0976 18.4057 26.9391 18.4057 26.8862 18.3528C26.8862 18.2469 26.8862 18.0351 26.9391 17.9822ZM26.4106 16.2881C26.4106 16.341 26.4106 16.394 26.3578 16.4999C26.2521 16.4999 26.1992 16.4999 26.1464 16.4469C26.0935 16.394 26.0935 16.341 26.0407 16.1293C26.2521 16.1822 26.3578 16.2352 26.4106 16.2881ZM25.9878 21.3704C25.9878 21.2645 26.0935 21.1057 26.1464 21.1057C26.2521 21.0527 26.4106 21.1057 26.5163 21.1586C26.622 21.2116 26.6748 21.3704 26.7805 21.4763C26.8862 21.5821 26.9919 21.741 27.1505 21.8468C26.8862 22.0057 26.6748 22.1645 26.4106 22.2174C26.3049 22.2174 26.1464 21.9527 26.0407 21.8998C25.9878 21.6351 25.935 21.4763 25.9878 21.3704ZM24.4552 17.8763C24.5081 17.6645 24.7723 17.5587 24.9837 17.3469C25.2479 17.3998 25.565 17.3998 25.6179 17.5587C25.7236 17.8234 25.7764 18.141 25.7764 18.4587C25.7764 18.5116 25.6707 18.6175 25.6179 18.6175C25.4593 18.6175 25.1951 18.6175 25.1423 18.5116C25.0366 18.141 24.3495 18.4057 24.4552 17.8763ZM23.9796 29.8938C24.2438 29.735 24.4552 29.9997 24.4552 30.2644C24.5081 30.5291 24.6138 30.8467 24.2438 30.9526C23.8739 31.0585 23.8211 30.7408 23.6625 30.3702C23.7682 30.2644 23.8211 29.9997 23.9796 29.8938ZM24.5081 34.5525C24.5081 34.7643 24.4024 34.9761 24.2967 35.1878C24.0324 35.2408 23.7682 35.3996 23.6625 35.3466C23.4511 35.1878 23.2397 34.9231 23.0812 34.6584C23.0283 34.6055 23.0812 34.4996 23.134 34.4466C23.3454 34.2349 24.5081 34.2878 24.5081 34.5525ZM22.3413 18.1939C22.447 18.1939 22.6584 18.3528 22.6584 18.4057C22.6584 18.5645 22.4999 18.6704 22.447 18.7763C22.3413 18.6704 22.2356 18.6175 22.0771 18.5116C22.1828 18.4057 22.2356 18.1939 22.3413 18.1939ZM21.9185 24.1233C21.9714 24.0703 22.1299 23.9645 22.1828 24.0174C22.5527 24.1762 22.8698 24.4409 23.3454 24.5468C23.7154 24.6527 23.2926 24.9174 23.2397 25.0762C22.9226 25.235 22.0242 25.3938 21.8128 25.235C21.7071 25.1821 21.6543 24.9703 21.6543 24.8644C21.7071 24.5997 21.8128 24.335 21.9185 24.1233ZM20.9673 30.8467C21.1258 31.0055 21.2844 31.1643 21.4957 31.3761C21.3372 31.5879 21.2844 31.7467 21.1787 31.9055C21.073 31.7996 20.8616 31.6937 20.8616 31.5879C20.8616 31.3232 20.9144 31.1114 20.9673 30.8467ZM19.7518 22.3762C19.8575 22.3233 20.016 22.3233 20.1217 22.3233C20.1217 22.4821 20.1746 22.6409 20.0689 22.7998C20.016 22.8527 19.8046 22.8527 19.5932 22.8527C19.6989 22.6409 19.6989 22.4292 19.7518 22.3762Z" fill="#FEFEFE"/>
</svg>
