<svg width="35" height="35" viewBox="0 0 35 35" fill="none" xmlns="http://www.w3.org/2000/svg">
<g clip-path="url(#clip0_801_28110)">
<path d="M23.569 16.7705C23.543 16.7705 23.5169 16.8226 23.4648 16.8747C23.543 16.9008 23.569 16.9008 23.5951 16.9008C23.6211 16.9008 23.6472 16.8487 23.6472 16.8226C23.6472 16.7966 23.5951 16.7705 23.569 16.7705Z" fill="#171026"/>
<path d="M27.9206 22.293C27.9467 22.2409 27.9727 22.2149 27.9988 22.1888C27.9467 22.1628 27.9206 22.1367 27.8685 22.1367C27.8425 22.1367 27.8164 22.1888 27.8164 22.2409C27.8164 22.2409 27.8685 22.267 27.9206 22.293Z" fill="#171026"/>
<path d="M20.2098 29.3265C20.2098 29.3004 20.2358 29.2744 20.2358 29.2483C20.3401 29.2223 20.4443 29.1702 20.3922 29.0399C20.3922 29.0139 20.3661 28.9878 20.3401 28.9618C20.3401 28.8576 20.288 28.7794 20.2358 28.7013C20.1837 28.6231 20.0274 28.6492 19.9493 28.6492C19.8451 28.6752 19.793 28.7013 19.7669 28.7013C19.5064 28.7794 19.5064 28.8315 19.5846 29.092C19.6367 29.3004 19.819 29.2744 19.9232 29.3786C19.9753 29.4307 20.0274 29.4567 20.0535 29.4567H20.0795C20.1316 29.4567 20.1577 29.4046 20.2098 29.3265Z" fill="#171026"/>
<path d="M27.6065 20.6C27.6325 20.6521 27.7107 20.7042 27.7367 20.6782C27.7889 20.6521 27.8149 20.574 27.867 20.5479C27.8149 20.5219 27.7628 20.4958 27.6325 20.3916C27.6065 20.4698 27.5804 20.5479 27.6065 20.6Z" fill="#171026"/>
<path d="M26.957 24.1425C26.9831 24.1946 27.0352 24.1946 27.1133 24.2467C27.1394 24.1685 27.1654 24.1164 27.1394 24.0904C27.1133 24.0643 27.0352 24.0383 27.0091 24.0122C27.0091 24.0643 26.957 24.1164 26.957 24.1425Z" fill="#171026"/>
<path d="M23.1266 21.3294C23.0485 21.2512 22.9443 21.2773 22.9182 21.3815C22.8922 21.5899 22.7359 21.6159 22.5796 21.668C22.4754 21.6941 22.3712 21.7201 22.293 21.7722C22.2409 21.7983 22.2149 21.8764 22.1367 21.9806C22.3451 22.0588 22.5014 22.1891 22.6577 22.163C22.9703 22.137 23.2829 22.0328 23.5955 21.9285C23.9081 21.8243 24.0123 21.8504 24.1687 22.137C24.1947 22.1891 24.2729 22.2672 24.325 22.2672C24.4552 22.2412 24.4031 22.137 24.4031 22.0588C24.4031 22.0328 24.3771 22.0067 24.3771 21.9546C24.325 21.6941 24.351 21.6941 24.6115 21.642C24.8981 21.5899 25.1586 21.4857 25.4191 21.4075C25.6275 21.3554 25.8098 21.2773 26.0182 21.2252C26.3829 21.121 26.7737 21.0428 27.1384 20.9386C27.1644 20.9386 27.2166 20.9126 27.2166 20.9126C27.2426 20.8605 27.2947 20.8084 27.2947 20.7563C27.2947 20.7042 27.2426 20.6521 27.1905 20.626C27.1123 20.5739 27.0342 20.5218 26.956 20.4958C26.9039 20.4697 26.8258 20.4697 26.7737 20.4697C26.3308 20.6 25.888 20.7563 25.4451 20.8865C25.3149 20.9386 25.2107 20.9647 25.1846 21.121C25.1586 21.2252 25.0544 21.2773 24.9762 21.1731C24.872 20.9907 24.7418 21.0428 24.5855 21.0949C24.1947 21.1991 23.8039 21.3033 23.4132 21.3815C23.335 21.4075 23.2308 21.4596 23.1266 21.3294Z" fill="#171026"/>
<path d="M26.6433 18.4375C26.6433 18.4115 26.5652 18.3594 26.5131 18.3594C26.461 18.3594 26.4349 18.4375 26.3828 18.4896C26.461 18.5157 26.5131 18.5678 26.5652 18.5678C26.5912 18.5417 26.6433 18.4636 26.6433 18.4375Z" fill="#171026"/>
<path d="M28.1283 20.157C28.1022 20.157 28.0762 20.2091 27.998 20.2612C28.0762 20.2873 28.1022 20.2873 28.1283 20.2873C28.1544 20.2612 28.1804 20.2352 28.1804 20.2091C28.1804 20.1831 28.1544 20.131 28.1283 20.157Z" fill="#171026"/>
<path d="M28.9623 21.668C28.9362 21.7201 28.8841 21.7462 28.8581 21.7722C28.832 21.8243 28.832 21.9025 28.832 21.9025C28.8581 21.9025 28.8841 21.9025 28.9102 21.9285C28.9623 21.7983 29.0144 21.642 29.0665 21.5117C29.0144 21.5378 28.9883 21.6159 28.9623 21.668Z" fill="#171026"/>
<path d="M29.2754 20.0269C29.1451 20.0269 29.0149 20.079 28.8846 20.1311C28.8586 20.1571 28.8846 20.2874 28.8846 20.3916C28.8846 20.4437 28.9107 20.4697 28.9107 20.5218C28.9367 20.6 28.9628 20.7042 28.9888 20.7823C29.0149 20.8084 29.067 20.8605 29.093 20.8605C29.1191 20.8605 29.1712 20.8084 29.1972 20.7823C29.2493 20.7042 29.2754 20.6 29.3275 20.5218C29.3275 20.4697 29.3535 20.4176 29.3535 20.3655C29.4056 20.2092 29.3535 20.0269 29.2754 20.0269Z" fill="#171026"/>
<path d="M27.2689 18.1509C27.2429 18.1509 27.2168 18.203 27.1387 18.229C27.2689 18.2811 27.295 18.2811 27.3471 18.3072C27.3471 18.2811 27.3992 18.229 27.3731 18.203C27.3471 18.1769 27.295 18.1509 27.2689 18.1509Z" fill="#171026"/>
<path d="M26.0451 18.7241C26.0972 18.698 26.1232 18.6459 26.1493 18.5938C26.0972 18.5678 26.0711 18.5157 26.019 18.4896C25.9409 18.4375 25.8627 18.4115 25.7845 18.3854C25.7324 18.3594 25.6803 18.3854 25.6543 18.3594C25.6543 18.4896 25.6543 18.6199 25.6803 18.7501C25.6803 18.7762 25.8106 18.8022 25.8627 18.8022C25.9409 18.7762 26.019 18.7501 26.0451 18.7241Z" fill="#171026"/>
<path d="M20.2878 24.4814C20.3399 24.4814 20.418 24.4553 20.4701 24.4553C20.6265 24.4553 20.8088 24.4032 20.9651 24.4553C21.1475 24.5335 21.1735 24.4553 21.1735 24.3251C21.1996 24.0645 21.1214 24.0124 20.887 24.0645C20.8349 24.0906 20.7567 24.0906 20.7046 24.1166C20.7046 24.1166 20.7046 24.1166 20.7046 24.0906C20.5483 24.1687 20.392 24.2469 20.2357 24.3251C20.2096 24.3511 20.1836 24.4032 20.1836 24.4293C20.2096 24.4293 20.2617 24.4814 20.2878 24.4814Z" fill="#171026"/>
<path d="M25.0539 26.0702C25.0799 26.1223 25.1581 26.1484 25.1841 26.1484C25.2362 26.1484 25.2623 26.0702 25.2623 26.0181C25.2623 25.966 25.2362 25.9139 25.2362 25.9139C25.2102 25.8358 25.2102 25.8097 25.1841 25.7837C25.1581 25.7055 25.106 25.6274 25.0018 25.6795C24.9497 25.7055 24.9236 25.8097 24.9497 25.8618C24.9757 25.9139 25.0018 25.9921 25.0539 26.0702Z" fill="#171026"/>
<path d="M25.4707 26.5391C25.3404 26.1484 25.2883 26.1223 25.0278 26.2005C24.8715 26.2526 24.9236 26.3568 24.8976 26.461C24.8715 26.5652 24.9236 26.6954 24.9757 26.7996C25.0799 26.982 25.2623 26.9559 25.3925 26.8778L25.4186 26.8517C25.4707 26.7736 25.4446 26.6433 25.4707 26.5391Z" fill="#171026"/>
<path d="M24.9245 22.0065C24.8724 21.9544 24.8203 21.9284 24.7682 21.9023C24.7421 21.9544 24.69 22.0326 24.7161 22.0847C24.7161 22.1628 24.7682 22.2149 24.8203 22.2671C24.8463 22.2931 24.8984 22.3192 24.9245 22.3192C24.9505 22.3192 24.9766 22.267 24.9766 22.2149C24.9766 22.1628 24.9505 22.1107 24.9505 22.0586C24.9245 22.0326 24.9245 22.0065 24.9245 22.0065Z" fill="#171026"/>
<path d="M24.9512 22.5015C24.9251 22.5275 24.8991 22.5536 24.873 22.6057C24.9251 22.6317 24.9512 22.6838 24.9772 22.6838C25.0033 22.6838 25.0554 22.6317 25.0554 22.6057C25.0293 22.5536 24.9772 22.5275 24.9512 22.5015Z" fill="#171026"/>
<path d="M20.3392 22.4756C20.3392 22.4496 20.2871 22.4235 20.2611 22.3975C20.235 22.4496 20.209 22.4756 20.209 22.5017C20.235 22.5277 20.2611 22.5538 20.2871 22.5538C20.3132 22.5277 20.3392 22.5017 20.3392 22.4756Z" fill="#171026"/>
<path d="M23.1262 27.0081C23.2044 27.2426 23.2825 27.2686 23.4909 27.1644C23.6212 27.1123 23.6472 27.0342 23.6212 26.93C23.5951 26.7997 23.5691 26.6955 23.517 26.5653C23.4909 26.435 23.4128 26.3569 23.2565 26.3829C23.0481 26.435 22.996 26.4871 23.0481 26.6955C23.0481 26.7476 23.0741 26.8258 23.0741 26.8518C23.1002 26.93 23.1002 26.9821 23.1262 27.0081Z" fill="#171026"/>
<path d="M24.5079 23.2831C24.56 23.257 24.6121 23.257 24.6381 23.2049C24.6642 23.1789 24.6642 23.1268 24.6902 23.1007C24.6121 23.1007 24.5339 23.0486 24.4818 23.0747C24.4037 23.1007 24.3516 23.1789 24.2734 23.231C24.2995 23.257 24.3255 23.2831 24.3776 23.2831C24.4037 23.3091 24.4558 23.2831 24.5079 23.2831Z" fill="#171026"/>
<path d="M23.9082 26.2527C23.7259 26.2788 23.7519 26.409 23.804 26.5132C23.8561 26.7216 23.9082 26.7737 24.1166 26.6956C24.325 26.6435 24.3511 26.5914 24.299 26.409C24.2208 26.2267 24.1166 26.2006 23.9082 26.2527Z" fill="#171026"/>
<path d="M21.4603 28.1805C21.4603 28.1545 21.4082 28.1545 21.3822 28.1284C21.3561 28.2066 21.3301 28.2587 21.3301 28.3368V28.3629C21.4343 28.3368 21.5124 28.3108 21.4603 28.1805Z" fill="#171026"/>
<path d="M17.9956 18.7761C17.9956 18.8022 18.0998 18.8282 18.1259 18.8282C18.178 18.7761 18.204 18.724 18.204 18.6719C18.204 18.6198 18.178 18.5677 18.178 18.5156C18.1259 18.5417 18.0477 18.5417 18.0217 18.5938C17.9696 18.6198 17.9696 18.698 17.9956 18.7761Z" fill="#171026"/>
<path d="M18.8017 18.5159H18.8798C18.9059 18.4117 18.9319 18.2814 18.9059 18.1772C18.9059 18.1251 18.7756 18.047 18.7235 18.073C18.5411 18.1251 18.3588 18.2033 18.2025 18.3075C18.1764 18.3335 18.1764 18.4377 18.1504 18.4898C18.3848 18.4377 18.5933 18.3075 18.8017 18.5159Z" fill="#171026"/>
<path d="M18.5417 18.6458C18.5157 18.6198 18.4636 18.5938 18.4375 18.5938C18.4115 18.6198 18.3594 18.6719 18.3594 18.6979C18.3594 18.724 18.3854 18.7761 18.4375 18.8282C18.4896 18.724 18.5157 18.6719 18.5417 18.6458Z" fill="#171026"/>
<path d="M18.7501 20.652C18.8282 20.8343 18.9585 20.7822 19.1148 20.7562C19.1408 20.7562 19.1669 20.7562 19.1669 20.7301C19.219 20.678 19.2711 20.6259 19.3492 20.5738C19.2971 20.5217 19.219 20.4957 19.1669 20.4436C19.1148 20.4175 19.0366 20.4175 19.0106 20.3915C18.9064 20.2091 18.7501 20.3133 18.6198 20.3133C18.5938 20.3133 18.5156 20.3915 18.5156 20.4436C18.5156 20.4957 18.5677 20.5738 18.6198 20.5999C18.6198 20.6259 18.724 20.6259 18.7501 20.652Z" fill="#171026"/>
<path d="M17.9688 20.261C17.9948 20.1828 18.0469 20.1307 18.0469 20.0786C18.0469 20.0526 17.9688 20.0265 17.9427 20.0005C17.9167 20.0526 17.8645 20.0786 17.8645 20.1307C17.8385 20.1828 17.9167 20.2089 17.9688 20.261Z" fill="#171026"/>
<path d="M17.6296 28.9357C17.6557 28.9878 17.7338 29.0399 17.786 29.092C17.812 29.0399 17.8381 28.9618 17.8381 28.9097C17.8381 28.7534 17.812 28.6492 17.9423 28.5189C18.0465 28.4408 17.8902 28.0761 17.786 28.024C17.7078 27.9979 17.6296 27.9458 17.5515 27.8937C17.4994 27.8677 17.4473 27.8677 17.4212 27.8677C17.3952 27.8937 17.3691 27.9458 17.3691 27.9979C17.3952 28.1542 17.4473 28.3105 17.4994 28.4408C17.5254 28.6231 17.5515 28.7794 17.6296 28.9357Z" fill="#171026"/>
<path d="M17.5525 24.8201C17.4743 24.8201 17.3701 24.8723 17.318 24.9504C17.2659 25.0286 17.2399 25.0807 17.1878 25.1588C17.1357 25.237 17.1096 25.3151 17.0575 25.4193C17.1357 25.5235 17.2138 25.5756 17.2659 25.6538C17.318 25.6017 17.3441 25.5235 17.3962 25.4714C17.4483 25.4193 17.5264 25.3672 17.6046 25.3151C17.6827 25.2891 17.7609 25.237 17.839 25.2109C17.9693 25.3151 17.9953 25.5235 17.8911 25.6538C17.7869 25.784 17.7869 25.8361 17.9172 25.9143C18.0735 26.0185 18.0995 26.2008 18.0474 26.3832C18.0214 26.4092 18.0214 26.4613 18.0214 26.5134C17.9172 26.5395 17.7609 26.5916 17.7088 26.6437C17.6827 26.6697 17.6567 26.6697 17.6306 26.6958C17.5264 26.7739 17.5264 26.8521 17.6567 26.8781C17.7348 26.9042 17.7869 26.9563 17.839 26.9823C17.9172 27.0084 17.9693 27.0344 17.9953 27.0344C18.0474 27.1907 18.0995 27.321 18.1517 27.4773C18.1517 27.5294 18.1777 27.5815 18.2038 27.6075C18.1517 27.6075 18.1256 27.6075 18.0995 27.6336C18.0735 27.6596 18.0735 27.7638 18.0735 27.8159C18.1256 27.9462 18.2298 28.0504 18.4122 28.0504C18.4382 28.0504 18.4903 28.0504 18.5164 28.0504C18.5164 28.0504 18.5164 28.0765 18.5424 28.0765C18.308 28.2849 18.4903 28.363 18.6466 28.4672C18.6727 28.4933 18.6727 28.5193 18.6987 28.5454C18.8029 28.6756 18.9592 28.5975 19.0634 28.5714C19.1937 28.5454 19.1676 28.4412 19.1416 28.337C19.1155 28.2588 19.1155 28.1807 19.0895 28.1025C19.1416 28.0504 19.1937 27.9983 19.2197 27.9202C19.2458 27.868 19.2979 27.7899 19.3239 27.7378C19.35 27.6596 19.376 27.5554 19.4281 27.4773C19.35 27.3991 19.3239 27.321 19.2718 27.2949C19.2197 27.2689 19.0634 27.2949 18.9332 27.347C18.8811 27.1386 18.829 26.9042 18.7769 26.6958C18.7508 26.6176 18.6987 26.5134 18.6466 26.5134C18.4382 26.4613 18.4382 26.279 18.4382 26.1487C18.4382 26.0706 18.6206 25.9924 18.7248 25.9664C18.8811 25.9143 19.0374 25.9143 19.1937 25.8622C19.2458 25.8361 19.2979 25.784 19.3239 25.7319C19.2458 25.7059 19.1937 25.6538 19.1155 25.6538C19.0374 25.6538 18.9853 25.6798 18.9071 25.7059C18.7769 25.7319 18.6727 25.758 18.5424 25.784C18.4122 25.8101 18.334 25.758 18.2819 25.6277C18.2298 25.4454 18.2038 25.237 18.1517 25.0546C18.0995 24.8983 18.0735 24.742 18.0214 24.5596C17.9953 24.4554 17.9953 24.3512 18.0995 24.247C18.1777 24.1949 18.2298 24.0907 18.2559 24.0126C18.2819 24.0126 18.2819 24.0126 18.308 24.0126C18.4643 23.9605 18.5945 23.9084 18.5164 23.7C18.5164 23.6739 18.4903 23.6479 18.4903 23.6218C18.5164 23.6218 18.5164 23.6218 18.5424 23.6218C18.6466 23.5958 18.7769 23.5697 18.8811 23.5437C19.0113 23.5697 19.1676 23.5176 19.3239 23.4916C19.4021 23.4916 19.5323 23.4655 19.5844 23.5176C19.7407 23.7 19.871 23.5697 20.0012 23.5437C20.0273 23.5437 20.0794 23.4655 20.0794 23.4134C20.0794 23.3874 20.0273 23.3353 19.9752 23.3092C19.7147 23.205 19.7147 23.179 19.9231 22.9706C20.0533 22.8403 19.9752 22.5277 19.7928 22.5277C19.6626 22.5277 19.5584 22.5017 19.5063 22.3975C19.5063 22.3975 19.35 22.4235 19.35 22.4496C19.3239 22.7361 19.0895 22.7361 18.8811 22.7882C18.6727 22.8403 18.4643 22.8664 18.2559 22.9185C18.0735 22.9706 17.9172 23.0487 17.8651 23.2832C17.839 23.4395 17.7348 23.4395 17.6306 23.3092C17.5525 23.205 17.4743 23.179 17.3701 23.205C17.292 23.2311 17.2399 23.2571 17.1617 23.2571C17.1096 23.2571 17.0575 23.2832 17.0054 23.2832C16.6147 23.3874 16.5626 23.5437 16.6928 23.9084C16.7449 24.0647 16.8231 24.1428 17.0054 24.1168C17.2138 24.0647 17.4222 24.0386 17.6306 23.9865H17.6567C17.6567 24.0126 17.6827 24.0647 17.6827 24.0907C17.7088 24.1949 17.7088 24.2991 17.7348 24.4033C17.7609 24.5075 17.7609 24.5857 17.6827 24.6638C17.6046 24.6899 17.5785 24.768 17.5525 24.8201Z" fill="#171026"/>
<path d="M17.9688 17.4475C17.9949 17.4214 18.0209 17.3693 18.047 17.3172C17.9949 17.2912 17.9428 17.2651 17.9167 17.2651C17.8907 17.2651 17.8646 17.3433 17.8125 17.3954C17.8907 17.4214 17.9688 17.4735 17.9688 17.4475Z" fill="#171026"/>
<path d="M19.6104 18.4114C19.8449 18.3593 19.9751 18.203 19.923 18.0467C19.8709 17.8644 19.7667 17.8123 19.5323 17.8644C19.4281 17.8904 19.1936 18.2291 19.2457 18.3333C19.3239 18.4635 19.4802 18.4114 19.6104 18.4114Z" fill="#171026"/>
<path d="M23.6469 19.2975C23.6469 19.3235 23.7251 19.3756 23.7511 19.3756C23.9335 19.3235 24.1419 19.2975 24.3243 19.2193C24.3503 19.2193 24.4024 19.1151 24.3764 19.063C24.3764 19.037 24.2722 18.9849 24.2461 18.9849C24.1419 18.9849 24.0637 19.0109 23.9595 19.037C23.8814 19.063 23.7772 19.0891 23.699 19.1151C23.6469 19.1672 23.6209 19.2454 23.6469 19.2975Z" fill="#171026"/>
<path d="M21.9278 17.6559C22.0841 17.6038 22.032 17.4736 22.006 17.3694C21.9799 17.2652 21.9018 17.161 21.7976 17.2131C21.7194 17.2391 21.7194 17.3694 21.6934 17.4215C21.7455 17.5778 21.7715 17.7341 21.9278 17.6559Z" fill="#171026"/>
<path d="M22.7364 13.4358C22.6843 13.4097 22.6322 13.3837 22.5801 13.4097C22.5541 13.4097 22.528 13.4879 22.502 13.54C22.502 13.5921 22.502 13.6702 22.528 13.7744C22.5541 13.8005 22.6322 13.9307 22.6843 13.9047C22.7885 13.8786 22.8927 13.8005 22.9969 13.7223C22.9448 13.6702 22.8927 13.6181 22.8406 13.566C22.8146 13.54 22.7885 13.4618 22.7364 13.4358Z" fill="#171026"/>
<path d="M20.5996 20.4695C20.6257 20.5737 20.6517 20.704 20.7038 20.8082C20.5475 20.8603 20.3912 20.9124 20.2349 20.9384C20.2349 20.9384 20.2349 20.9384 20.2349 20.9124C20.2089 20.9124 20.1828 20.9124 20.1828 20.9384C20.0786 20.9645 20.0005 21.0166 20.0265 21.1468C20.0526 21.2771 20.1568 21.2771 20.261 21.251C20.3131 21.251 20.3912 21.225 20.4433 21.225C20.4954 21.225 20.5996 21.225 20.5996 21.251C20.6778 21.4594 20.9383 21.3292 21.0425 21.5115C21.0946 21.4855 21.1728 21.4594 21.1988 21.4073C21.2249 21.3552 21.1988 21.2771 21.1988 21.225C21.1988 21.1989 21.1988 21.1989 21.1988 21.1729C21.3291 21.1468 21.3812 21.0426 21.3291 20.9384C21.3812 20.9124 21.4593 20.8863 21.5375 20.9124C21.6156 20.9384 21.6938 21.0426 21.7459 21.1208C21.8501 21.251 22.1627 21.3031 22.2148 21.1729C22.2929 20.9384 22.4753 20.8863 22.6316 20.8342C22.6837 20.8082 22.7097 20.7561 22.7097 20.704C22.7358 20.5477 22.866 20.5216 22.9702 20.4695C23.0744 20.4435 23.1786 20.4174 23.2568 20.3653C23.3089 20.3393 23.3089 20.2611 23.3349 20.209C23.2828 20.183 23.2307 20.1309 23.1786 20.1309C22.9963 20.1569 22.7879 20.1569 22.6055 20.209C22.4492 20.2611 22.2669 20.2611 22.2408 20.4956C22.2408 20.5477 21.9543 20.6519 21.8761 20.6258C21.6417 20.5216 21.4333 20.5737 21.2249 20.6258C21.1988 20.6258 21.1728 20.6519 21.1467 20.6519C21.0946 20.4956 21.0425 20.3653 20.8341 20.3132C20.808 20.3132 20.782 20.209 20.7559 20.1569C20.5996 20.183 20.5475 20.2872 20.5996 20.4695Z" fill="#171026"/>
<path d="M22.2406 17.0832C22.1364 17.1614 22.1364 17.2656 22.1885 17.3698C22.2406 17.4479 22.3188 17.5521 22.3709 17.5782C22.5793 17.6303 22.7095 17.5 22.7616 17.2916C22.7616 17.2395 22.8137 17.2135 22.8398 17.1614C22.944 17.0311 22.9179 16.979 22.7616 16.979C22.6574 16.979 22.5532 16.979 22.4751 16.979C22.3969 17.0051 22.3188 17.0311 22.2406 17.0832Z" fill="#171026"/>
<path d="M25.1842 19.7142C25.08 19.6621 25.0279 19.5319 24.8976 19.61C24.7934 19.6882 24.6631 19.7142 24.585 19.8184C24.5068 19.9487 24.4547 19.9226 24.3505 19.8445C24.2203 19.7403 24.09 19.7663 24.064 19.9226C24.0379 20.0529 23.9598 20.0789 23.8816 20.131C23.7774 20.1831 23.5951 20.1831 23.6732 20.3655C23.7514 20.5478 23.8816 20.4436 24.0119 20.4176C24.0379 20.4176 24.09 20.4176 24.09 20.3915C24.3505 20.2092 24.6631 20.2092 24.9497 20.131C25.08 20.105 25.1842 20.0529 25.2884 20.2092C25.3144 20.2352 25.4707 20.1831 25.4968 20.1831C25.5228 19.9226 25.7312 19.9487 25.8875 19.8705C26.0178 19.8184 26.1741 19.7924 26.3043 19.7403C26.3564 19.7142 26.4606 19.6621 26.4606 19.61C26.4867 19.4277 26.5648 19.4277 26.7211 19.4798C26.8253 19.5058 26.9816 19.5058 27.0858 19.4798C27.1379 19.4537 27.164 19.3235 27.2161 19.2714C27.2942 19.1672 27.3724 19.1672 27.4766 19.2193C27.5808 19.2714 27.685 19.2974 27.7892 19.2974C27.9715 19.2974 27.9976 19.1932 27.9455 19.0369C27.8934 18.9327 27.8673 18.7504 27.685 18.8285C27.4766 18.8806 27.2682 18.9588 27.0858 19.0109C26.9816 19.0369 26.9035 19.089 26.8774 19.2193C26.8514 19.3756 26.7472 19.4016 26.643 19.2974C26.5127 19.1411 26.4346 19.1932 26.3564 19.3495C26.3304 19.4016 26.2001 19.4277 26.148 19.4016C25.9917 19.2974 25.8875 19.3235 25.8094 19.5058C25.7312 19.6621 25.3144 19.7924 25.1842 19.7142Z" fill="#171026"/>
<path d="M22.8926 19.141C22.7363 19.2192 22.8145 19.3755 22.8145 19.5057C22.8145 19.6099 22.8926 19.662 23.0229 19.636C23.1792 19.5839 23.1271 19.4536 23.101 19.3494C23.0489 19.2452 23.0489 19.0629 22.8926 19.141Z" fill="#171026"/>
<path d="M20.1578 19.6878C20.1057 19.5576 19.9494 19.6097 19.9233 19.766C19.8973 19.8441 19.8452 19.9223 19.8191 20.0004C19.7149 20.1567 19.767 20.4693 19.8973 20.4954C20.0536 20.5214 20.288 20.3912 20.3662 20.2349C20.4183 20.1046 20.7048 19.9744 20.783 20.0525L20.809 20.0786C20.809 20.1046 20.809 20.1307 20.8351 20.1567C20.8611 20.1567 20.8611 20.1307 20.8872 20.1307C21.0174 20.2088 21.1477 20.1567 21.2779 20.1307C21.33 20.1046 21.4082 20.0786 21.4863 20.0525C21.6687 20.0004 21.6947 19.8962 21.6426 19.7399C21.5905 19.5836 21.5384 19.5055 21.3561 19.5576C21.2258 19.6097 21.0956 19.6357 20.9393 19.6618C20.9132 19.6618 20.9132 19.6357 20.8872 19.6618C20.8611 19.6618 20.8611 19.6878 20.8351 19.6878C20.7569 19.7139 20.6788 19.7399 20.5746 19.766C20.3922 19.8181 20.262 19.8962 20.1578 19.6878Z" fill="#171026"/>
<path d="M21.043 12.3418C21.043 12.3158 20.9649 12.2637 20.9128 12.2637C20.8867 12.2637 20.8346 12.3418 20.8086 12.3939C20.8867 12.446 20.9128 12.4721 20.9649 12.4981C20.9909 12.446 21.043 12.3939 21.043 12.3418Z" fill="#171026"/>
<path d="M20.7553 17.8647C20.6511 17.7865 20.599 17.7084 20.5209 17.6562C20.4948 17.7605 20.4688 17.8647 20.4688 17.9689C20.4688 18.021 20.573 18.047 20.6251 18.0991C20.6511 18.021 20.7032 17.9689 20.7553 17.8647Z" fill="#171026"/>
<path d="M18.1779 20.9907C18.2561 20.9386 18.2561 20.8344 18.3342 20.7302C18.23 20.652 18.1779 20.5478 18.0737 20.5217C17.9956 20.4957 17.9435 20.7041 17.9956 20.8865C18.0477 20.9646 18.0998 21.0428 18.1779 20.9907Z" fill="#171026"/>
<path d="M14.347 17.5779C14.347 17.63 14.4252 17.6821 14.5033 17.7602C14.5554 17.63 14.5815 17.5779 14.5815 17.5258C14.5554 17.4737 14.4773 17.4476 14.4252 17.3955C14.3991 17.4737 14.321 17.5258 14.347 17.5779Z" fill="#171026"/>
<path d="M13.3324 21.0687C13.3845 21.0426 13.4366 20.9645 13.5148 20.8342C13.3585 20.8082 13.2543 20.7821 13.1761 20.8082C13.098 20.8342 12.9417 20.8342 12.9677 20.9905C12.9938 21.0426 13.2282 21.1208 13.3324 21.0687Z" fill="#171026"/>
<path d="M13.4093 22.3974C13.4874 22.3974 13.5395 22.4234 13.6177 22.4495C13.6958 22.4755 13.774 22.5276 13.8521 22.5016C14.1908 22.4234 14.5555 22.3192 14.8942 22.215C14.9723 22.189 15.0765 22.1368 15.0765 22.1108C15.1026 21.8763 15.2849 21.8763 15.4412 21.7982C15.5454 21.7461 15.7278 21.694 15.7538 21.5898C15.8059 21.4595 15.8841 21.4074 15.9883 21.3814C16.1185 21.3553 16.2488 21.3293 16.353 21.2772C16.4051 21.2511 16.4832 21.173 16.4832 21.1209C16.5093 20.9385 16.3009 20.7822 16.1185 20.7822C16.0143 20.7822 15.8841 20.8083 15.7799 20.8343C15.6757 20.8604 15.6236 20.9125 15.6236 21.0427C15.6236 21.173 15.5454 21.2511 15.4152 21.2772L15.4412 21.2511C15.3631 21.2251 15.311 21.173 15.2328 21.1209C15.1807 21.1469 15.1547 21.199 15.1026 21.2251C15.0765 21.199 15.0765 21.1469 15.0505 21.0948C15.0244 21.0427 15.0244 20.9906 14.9984 20.9385C14.9723 20.9125 14.9463 20.9125 14.9202 20.9125C14.8942 20.9125 14.8681 20.9646 14.8681 20.9906C14.8681 21.0427 14.8942 21.0948 14.8942 21.1469C14.9463 21.4074 14.9463 21.4074 14.6597 21.4856C14.6076 21.4856 14.5816 21.5116 14.5295 21.5116C14.3732 21.5377 14.1908 21.6679 14.0605 21.4595C13.9824 21.3553 13.6177 21.4595 13.5916 21.5637C13.5656 21.7461 13.4353 21.7982 13.3051 21.8763C13.1488 21.9805 13.2009 22.1369 13.2269 22.2671C13.2009 22.4234 13.3311 22.3974 13.4093 22.3974Z" fill="#171026"/>
<path d="M15.5196 18.0471C15.4936 17.995 15.4154 17.9689 15.3633 17.9429C15.3373 17.995 15.2852 18.0731 15.2852 18.1252C15.2852 18.1773 15.3633 18.2034 15.4675 18.2815C15.4936 18.1513 15.5457 18.0992 15.5196 18.0471Z" fill="#171026"/>
<path d="M14.5567 14.1392C14.5306 14.1652 14.5046 14.1913 14.4785 14.2434C14.5306 14.2694 14.5827 14.2694 14.5827 14.2694C14.6088 14.2434 14.6088 14.2173 14.6088 14.1652C14.6348 14.1652 14.5827 14.1392 14.5567 14.1392Z" fill="#171026"/>
<path d="M12.2897 10.1016C12.2637 10.1016 12.2376 10.1797 12.1855 10.2579C12.2637 10.2839 12.3418 10.336 12.3679 10.31C12.3939 10.2839 12.42 10.2318 12.446 10.1797C12.3939 10.1276 12.3418 10.1016 12.2897 10.1016Z" fill="#171026"/>
<path d="M15.2336 10.1798C15.1815 10.0756 15.0252 10.0495 14.9471 10.1537C14.895 10.2579 14.8429 10.3361 14.7908 10.4403C14.7387 10.5445 14.7647 10.6226 14.895 10.6226C14.9471 10.6226 15.0252 10.5966 15.0773 10.5966C15.3378 10.5445 15.3118 10.4142 15.2336 10.1798Z" fill="#171026"/>
<path d="M14.5552 18.8803C14.5813 18.9845 14.6073 19.1408 14.7636 19.0887C14.9199 19.0366 14.8678 18.9063 14.8418 18.8021C14.8157 18.6979 14.7897 18.5937 14.6594 18.6198C14.5031 18.6458 14.5552 18.7761 14.5552 18.8803Z" fill="#171026"/>
<path d="M15.1543 14.1655C15.1022 14.2176 15.0762 14.2437 14.998 14.3479C15.1022 14.4 15.1543 14.4521 15.2064 14.4521C15.2325 14.4521 15.3107 14.3479 15.2846 14.3218C15.2586 14.2437 15.1804 14.2176 15.1543 14.1655Z" fill="#171026"/>
<path d="M14.5555 25.1325C14.5555 25.1846 14.6336 25.2888 14.6597 25.2888C14.7378 25.2888 14.842 25.2106 14.842 25.1585C14.8681 24.9762 14.9723 24.9762 15.1025 24.9241C15.1807 24.898 15.2849 24.872 15.363 24.8459C15.4151 24.8199 15.4933 24.7417 15.4933 24.6896C15.4933 24.5854 15.3891 24.5854 15.3109 24.5854C14.9983 24.6375 14.9983 24.6375 14.9202 24.351C14.842 23.9863 14.7639 23.9342 14.3992 24.0123C14.3471 24.0123 14.2689 24.0384 14.1647 24.0644C14.1126 24.0905 14.0345 24.1165 13.9303 24.1426C13.774 24.1947 13.774 24.2989 13.8 24.4552C13.8521 24.5854 13.9042 24.6896 14.0605 24.6375C14.1908 24.6115 14.3471 24.5854 14.5034 24.5594C14.5555 24.5594 14.6336 24.5854 14.6857 24.6375C14.7118 24.6375 14.6597 24.7678 14.6336 24.7938C14.4773 24.872 14.5294 25.0022 14.5555 25.1325Z" fill="#171026"/>
<path d="M15.129 26.1227C15.2593 26.3311 15.4156 26.2008 15.5458 26.1487C15.7021 26.0966 15.624 25.9664 15.5979 25.8622C15.5458 25.6017 15.4937 25.5756 15.129 25.7059C15.103 25.7059 15.0509 25.7319 14.9727 25.784C14.9206 25.8361 14.8685 25.8882 14.8164 25.9403C14.8685 25.9664 14.9206 26.0185 14.9727 26.0445C15.0509 26.0706 15.103 26.0966 15.129 26.1227Z" fill="#171026"/>
<path d="M12.6797 11.2998C13.3049 11.2737 13.8259 10.9351 14.399 10.7788C14.425 10.7788 14.4511 10.6746 14.4772 10.6485C14.4251 10.6225 14.3729 10.5704 14.3208 10.5704C14.2166 10.5704 14.0343 10.6225 14.0082 10.5704C13.878 10.388 13.7477 10.4661 13.5914 10.4922C13.4351 10.5443 13.2788 10.5704 13.1225 10.6225C12.9402 10.6746 12.7578 10.7267 12.5755 10.7788C12.4192 10.8048 12.315 10.8569 12.3671 11.0653C12.4192 11.2737 12.4713 11.3258 12.6797 11.2998Z" fill="#171026"/>
<path d="M17.3179 15.5199C17.4482 15.4418 17.5784 15.3897 17.6826 15.3115C17.7087 15.2855 17.7087 15.2334 17.7087 15.1813C17.5003 15.2073 17.4482 14.9729 17.2919 14.9468C17.1095 14.9208 17.0835 14.8166 17.0574 14.7124C17.0314 14.6082 17.0053 14.504 16.9532 14.3998C16.9272 14.3477 16.849 14.3216 16.7969 14.2695C16.7709 14.3477 16.7188 14.3998 16.7188 14.4779C16.7188 14.5821 16.7969 14.6603 16.7969 14.7384C16.823 14.9208 16.8751 15.1552 16.823 15.3115C16.7448 15.5199 16.7709 15.546 16.9532 15.5199C17.0835 15.546 17.1877 15.546 17.3179 15.5199Z" fill="#171026"/>
<path d="M16.2233 26.4873C16.2493 26.4613 16.2754 26.4092 16.2754 26.3831C16.3014 26.2529 16.2754 26.1226 16.3014 26.0184C16.3275 25.8882 16.3796 25.7579 16.4317 25.6016C16.3275 25.5235 16.2754 25.4453 16.1972 25.4453C16.067 25.4453 16.067 25.5495 16.067 25.6537C16.067 25.7058 16.093 25.784 16.093 25.8361C16.093 25.9142 16.093 25.9924 16.0409 26.0445C15.8325 26.2008 16.0149 26.331 16.067 26.4613C16.1191 26.4613 16.1712 26.4613 16.2233 26.4873Z" fill="#171026"/>
<path d="M16.7704 17.7084C16.7183 17.526 16.5099 17.6302 16.3797 17.6302C16.3797 17.6302 16.3536 17.6302 16.3276 17.6302C16.2755 17.6563 16.1973 17.6823 16.1452 17.7344C16.0931 17.7865 16.0931 17.8386 16.041 17.9168C16.0931 17.9428 16.1452 17.9949 16.2234 17.9949C16.2234 18.021 16.2234 18.047 16.2234 18.0991C16.2494 18.1512 16.2755 18.2033 16.3015 18.2554C16.3536 18.3075 16.4057 18.3596 16.4578 18.4117C16.4839 18.3596 16.536 18.3075 16.562 18.2554C16.6141 18.1773 16.7183 18.047 16.7183 17.9949C16.7183 17.9428 16.6662 17.9168 16.6141 17.8907C16.7444 17.8647 16.8225 17.8126 16.7704 17.7084Z" fill="#171026"/>
<path d="M16.0416 24.6635C16.3021 24.6374 16.3542 24.5593 16.2761 24.2988C16.25 24.2206 16.224 24.1425 16.1979 24.0643C16.1719 23.9862 16.1458 23.908 16.1198 23.8299C16.0416 23.5694 16.0155 23.5694 15.755 23.6215C15.5987 23.6736 15.4424 23.6996 15.2861 23.7517C14.9735 23.8299 14.9475 23.882 15.0777 24.1685C15.1038 24.2467 15.1819 24.2988 15.234 24.3509C15.2861 24.2988 15.3382 24.2467 15.3643 24.1685C15.4424 24.0122 15.5206 24.0122 15.5987 24.1425C15.6769 24.2467 15.729 24.3769 15.755 24.5072C15.8332 24.6114 15.8853 24.6895 16.0416 24.6635Z" fill="#171026"/>
<path d="M16.3016 17.3698C16.3276 17.3177 16.3797 17.2655 16.3797 17.2134C16.3537 17.0571 16.3276 16.9008 16.3016 16.7445C16.3016 16.7185 16.2495 16.6664 16.2234 16.6403C15.9369 16.5882 16.1192 16.9529 15.8848 16.979C15.9108 17.0311 15.9108 17.1092 15.9369 17.1613C16.015 17.2395 16.0932 17.2655 16.1713 17.3176C16.1974 17.3437 16.2495 17.3698 16.3016 17.3698Z" fill="#171026"/>
<path d="M16.25 13.6963C16.25 13.7484 16.3282 13.8005 16.4063 13.8787C16.4324 13.7484 16.4845 13.6963 16.4845 13.6442C16.4845 13.5921 16.4063 13.5661 16.3542 13.54C16.3282 13.6182 16.25 13.6703 16.25 13.6963Z" fill="#171026"/>
<path d="M16.1452 15.129C16.1192 15.1029 16.1452 15.129 16.1452 15.129C15.9889 15.0248 15.8587 14.9727 15.7024 14.8945C15.6763 14.9466 15.6503 14.9987 15.6503 15.0248C15.6503 15.155 15.7024 15.2592 15.7024 15.3895C15.7024 15.4937 15.7284 15.6239 15.6763 15.676C15.5461 15.8063 15.5982 15.9365 15.5982 16.0668C15.5982 16.1189 15.6242 16.145 15.6242 16.171C15.6503 16.3273 15.7545 16.4315 15.9368 16.4315C16.1192 16.4315 16.1973 16.3794 16.1713 16.1971C16.1713 16.171 16.1973 16.1189 16.2234 16.0929C16.3276 15.9626 16.3536 15.8584 16.3015 15.7542C16.4578 15.7021 16.4578 15.6239 16.4318 15.4416C16.4057 15.3374 16.3536 15.2332 16.3276 15.1029C16.3015 15.0769 16.2755 15.0508 16.2494 15.0248C16.1973 15.0508 16.1452 15.0769 16.1452 15.129ZM16.0671 15.5197C15.9889 15.4676 15.9629 15.3895 16.0931 15.3113L16.1192 15.2853C16.0931 15.3634 16.0671 15.4416 16.0671 15.5197Z" fill="#171026"/>
<path d="M15.599 14.3999C15.5729 14.3999 15.5729 14.452 15.5469 14.5041C15.599 14.5041 15.625 14.5302 15.6771 14.5302C15.7032 14.5302 15.7292 14.4781 15.7553 14.3999C15.6771 14.426 15.625 14.3999 15.599 14.3999Z" fill="#171026"/>
<path d="M16.4844 9.94516C16.5104 10.0754 16.5625 10.1796 16.7188 10.1275C16.9533 10.0754 17.1617 9.99726 17.3701 9.91911C17.5525 9.86701 17.5525 9.76281 17.5264 9.6065C17.4743 9.4502 17.3961 9.3981 17.2398 9.4502C17.1356 9.47625 17.0054 9.5023 16.9012 9.52835C16.797 9.5544 16.6667 9.58045 16.5625 9.63256C16.3802 9.68466 16.4583 9.84096 16.4844 9.94516Z" fill="#171026"/>
<path d="M20.1302 26.2265C20.1563 26.3307 20.1563 26.487 20.3386 26.4349C20.3907 26.4088 20.3907 26.2786 20.4168 26.1744C20.3386 26.1223 20.2605 26.0181 20.1823 26.0181C20.0521 26.0181 20.1042 26.1223 20.1302 26.2265Z" fill="#171026"/>
<path d="M19.8711 27.2686C19.8711 27.3988 19.9232 27.5812 20.0013 27.6072C20.2358 27.6854 20.4963 27.8417 20.7829 27.7375C20.9131 27.6854 21.0434 27.6333 21.1476 27.7896C21.1997 27.8677 21.3299 27.8417 21.356 27.7635C21.382 27.503 21.5904 27.3728 21.6946 27.2165C21.7728 27.0862 21.7207 26.7476 21.5904 26.6694C21.4602 26.6173 21.1476 26.7736 21.1215 26.9299C21.0955 27.0862 20.9913 27.1123 20.9131 27.0081C20.8089 26.9039 20.7047 26.9039 20.6005 26.9299C20.4963 26.956 20.4182 26.982 20.314 27.0081C20.2098 27.0341 20.1316 27.0602 20.0534 27.0862C19.9753 27.1383 19.8711 27.2165 19.8711 27.2686Z" fill="#171026"/>
<path d="M26.2273 25.3408C26.1752 25.5232 26.0449 25.6014 25.9147 25.7056C25.8886 25.7316 25.8626 25.7837 25.8626 25.8098C25.8365 26.0703 25.8626 26.2266 25.9928 26.3047C26.2012 26.0963 26.3836 25.914 26.592 25.7056C26.5659 25.5753 26.5138 25.4711 26.4617 25.3408C26.4096 25.2366 26.2273 25.2366 26.2273 25.3408Z" fill="#171026"/>
<path d="M19.7409 27.9723C19.793 27.8681 19.8191 27.816 19.8191 27.7378C19.8191 27.7118 19.7149 27.6597 19.6888 27.6597C19.6367 27.6857 19.5846 27.7378 19.5586 27.7899C19.5586 27.842 19.6367 27.8941 19.7409 27.9723Z" fill="#171026"/>
<path d="M21.6937 21.9283C21.5374 21.9544 21.4071 22.0065 21.2769 22.0586C21.1466 22.0846 21.0164 22.1107 20.8861 22.1888C20.808 22.2149 20.6777 22.293 20.6777 22.3451C20.7038 22.4754 20.7298 22.6577 20.834 22.7359C20.9382 22.814 21.0685 22.8922 21.1727 22.9703C21.1727 22.9964 21.1727 23.0485 21.1987 23.1266C21.2248 23.309 21.329 23.3611 21.4592 23.309C21.5895 23.2829 21.7198 23.2569 21.6937 23.1006C21.7458 23.0745 21.824 23.0485 21.8761 23.0224C21.9282 22.9964 21.9021 22.814 21.9021 22.7098C21.8761 22.5275 21.7719 22.3712 21.9021 22.1628C21.9542 22.0065 21.85 21.9023 21.6937 21.9283Z" fill="#171026"/>
<path d="M19.7403 24.4293C19.6882 24.4553 19.6621 24.5074 19.584 24.6116C19.6882 24.6377 19.7663 24.6898 19.8184 24.6898C19.8705 24.6637 19.8966 24.5856 19.8705 24.5074C19.8705 24.4553 19.7663 24.4032 19.7403 24.4293Z" fill="#171026"/>
<path d="M21.8758 23.9604C21.7456 23.9865 21.5892 24.0125 21.459 24.0647C21.4329 24.0647 21.4329 24.221 21.459 24.247C21.5371 24.2991 21.6153 24.2731 21.7456 24.2991C21.8237 24.247 21.9019 24.1689 21.954 24.0907C21.98 24.0907 21.9019 23.9604 21.8758 23.9604Z" fill="#171026"/>
<path d="M22.5007 25.4971C22.5007 25.6013 22.4746 25.6534 22.4746 25.7055C22.5007 25.7315 22.5528 25.7576 22.6049 25.7836C22.6049 25.7315 22.6309 25.6794 22.6309 25.6273C22.6309 25.5492 22.5788 25.5492 22.5007 25.4971Z" fill="#171026"/>
<path d="M22.4238 28.6491C22.4238 28.6752 22.4238 28.6752 22.4238 28.7012C22.4759 28.6752 22.528 28.6491 22.5801 28.6231C22.5541 28.597 22.502 28.6231 22.4238 28.6491Z" fill="#171026"/>
<path d="M22.0335 26.5393C21.9814 26.5393 21.9293 26.6174 21.9032 26.6435C21.9032 26.6956 21.9293 26.7737 21.9293 26.8258C21.9814 27.0082 22.1116 27.2166 21.8511 27.3729C21.7469 27.425 21.8511 27.6334 21.9814 27.6073C22.0856 27.6073 22.2158 27.5813 22.32 27.5031C22.3721 27.4771 22.3461 27.3729 22.3721 27.2947C22.3982 27.2426 22.4242 27.2166 22.4242 27.1645C22.4503 27.0863 22.4763 26.9821 22.5024 26.904C22.4763 26.7998 22.1116 26.5132 22.0335 26.5393Z" fill="#171026"/>
<path d="M27.0595 24.9761C26.9813 24.9761 26.8511 25.0282 26.825 25.1063C26.7729 25.2105 26.799 25.3408 26.825 25.445C26.9292 25.3147 27.0595 25.1845 27.1637 25.0282C27.1376 25.0021 27.1116 24.9761 27.0595 24.9761Z" fill="#171026"/>
<path d="M16.9532 19.1411C16.9271 19.0369 16.9011 18.9067 16.849 18.8025C16.7969 18.6983 16.7187 18.6983 16.6406 18.7764C16.5885 18.8285 16.5364 18.9327 16.5103 18.9327C16.354 18.8806 16.1977 18.8285 16.0675 18.7243C15.9112 18.5941 15.5986 18.5941 15.5464 18.7764C15.4943 19.0109 15.338 19.0109 15.1817 19.063C15.1036 19.089 15.0515 19.1151 14.9994 19.1672C14.9473 19.2193 14.9212 19.2714 14.8691 19.3235C14.9212 19.3495 14.9733 19.3756 15.0254 19.3756C15.1557 19.4016 15.312 19.3495 15.4422 19.4537C15.4683 19.4798 15.5986 19.4016 15.6246 19.3495C15.7028 19.1672 15.8591 19.1411 15.9893 19.1672C16.0935 19.1932 16.1977 19.2193 16.2759 19.2714C16.3019 19.3495 16.3801 19.4277 16.4582 19.4798C16.5103 19.5058 16.5364 19.5579 16.5885 19.584C16.6666 19.61 16.7448 19.6361 16.7969 19.6361C16.8229 19.6361 16.849 19.5319 16.875 19.4537C16.875 19.4277 16.875 19.4016 16.875 19.3495C16.9792 19.3756 17.0053 19.2974 16.9532 19.1411Z" fill="#171026"/>
<path d="M18.3848 24.9242C18.3848 24.9503 18.515 25.0284 18.5411 25.0284C18.6453 24.9763 18.7495 24.8721 18.8537 24.794C18.7495 24.7679 18.6713 24.7419 18.5411 24.7158C18.4629 24.794 18.3848 24.8461 18.3848 24.9242Z" fill="#171026"/>
<path d="M12.5762 20.1571C12.6804 20.2092 12.7585 20.2873 12.8367 20.3134C12.9409 20.3394 13.0451 20.2873 13.1493 20.2613C13.3577 20.2092 13.5921 20.0529 13.7745 20.2873C13.7745 20.2873 13.8787 20.2352 13.9047 20.1831C13.9308 20.1571 13.8787 20.0789 13.9047 20.0268C13.9047 19.9487 13.9308 19.8705 13.9308 19.7924C14.0089 19.8184 14.0871 19.8445 14.1392 19.8705C14.2695 19.9226 14.5039 19.8445 14.5821 19.7142C14.6602 19.5579 14.5821 19.4277 14.4258 19.3495C14.3737 19.3235 14.3216 19.3235 14.2955 19.2714C14.1131 19.089 14.0871 19.1151 13.8787 19.2453C13.7224 19.3495 13.7745 19.4537 13.7745 19.584C13.7745 19.7663 13.7224 19.8184 13.5661 19.7403C13.4098 19.6621 13.2795 19.61 13.1232 19.5579C13.0972 19.5579 13.0451 19.5579 13.0451 19.584C12.9148 19.6882 12.7846 19.7924 12.6804 19.9226C12.6283 19.9487 12.6283 20.0268 12.5762 20.1571Z" fill="#171026"/>
<path d="M12.8112 18.75C12.8112 18.8282 12.7852 18.8803 12.7852 18.9063C12.7852 18.9324 12.8373 18.9324 12.8633 18.9584C12.8894 18.9063 12.9154 18.8803 12.9154 18.8282C12.9154 18.8021 12.8633 18.7761 12.8112 18.75Z" fill="#171026"/>
<path d="M13.67 18.724C13.7221 18.724 13.7221 18.6459 13.7742 18.5938C13.7221 18.5677 13.67 18.5156 13.6439 18.5156C13.5918 18.5156 13.5658 18.5938 13.5137 18.6459C13.5658 18.6719 13.6179 18.724 13.67 18.724Z" fill="#171026"/>
<path d="M19.2449 28.9619C19.2449 28.9359 19.1667 28.8838 19.1407 28.8838C18.9844 28.9098 19.0625 29.0401 19.0625 29.1182C19.1667 29.1182 19.2709 29.1182 19.2449 28.9619Z" fill="#171026"/>
<path d="M19.0633 29.1445C18.9591 29.1706 18.8549 29.1966 18.7507 29.2227C18.6986 29.2487 18.6465 29.3008 18.6465 29.3529C18.6465 29.4571 18.6465 29.5874 18.6986 29.6916C18.8549 29.6655 19.0372 29.6655 19.1935 29.6395C19.1414 29.4571 19.0893 29.3008 19.0633 29.1445Z" fill="#171026"/>
<path d="M13.696 17.8383C13.7221 17.8122 13.7742 17.7341 13.7481 17.708C13.7221 17.682 13.6439 17.6299 13.6179 17.6299C13.5918 17.6299 13.5658 17.708 13.5137 17.7862C13.5918 17.8383 13.6439 17.8643 13.696 17.8383Z" fill="#171026"/>
<path d="M18.6979 31.1507C18.6979 31.1247 18.724 31.1247 18.724 31.0986C18.6979 31.0986 18.6719 31.0986 18.6719 31.0986C18.6719 31.1247 18.6719 31.1507 18.6979 31.1507Z" fill="#171026"/>
<path d="M21.2773 4.37063C21.4336 4.42273 21.5899 4.47483 21.7463 4.52693C21.7723 4.44878 21.7984 4.39668 21.8244 4.34458C21.7463 4.31853 21.642 4.29248 21.5639 4.29248C21.4597 4.31853 21.3815 4.34458 21.2773 4.37063Z" fill="#171026"/>
<path d="M24.0907 29.5875C24.0907 29.5093 24.1167 29.4572 24.1688 29.4312C23.9604 29.5614 23.726 29.6656 23.5176 29.7698C23.5697 29.7959 23.5957 29.8219 23.6478 29.848C23.752 29.9522 24.0646 29.7438 24.0907 29.5875Z" fill="#171026"/>
<path d="M22.9187 30.0826C22.9968 30.0565 23.101 30.0305 23.1531 29.9523C23.1531 29.9523 23.1531 29.9523 23.1531 29.9263C23.0489 29.9784 22.9187 30.0305 22.8145 30.0826C22.8405 30.1086 22.8926 30.1086 22.9187 30.0826Z" fill="#171026"/>
<path d="M29.5352 23.9866C29.6133 24.0126 29.6654 24.0647 29.6654 24.1168C29.6654 23.9866 29.6654 23.8563 29.6654 23.7261C29.6133 23.8042 29.5873 23.9084 29.5352 23.9866Z" fill="#171026"/>
<path d="M6.58421 6.61107C6.63631 6.76737 6.50606 6.79342 6.40186 6.81947C6.34976 6.84552 6.27161 6.84552 6.21951 6.87157C4.68253 8.51275 3.51026 10.4665 2.78085 12.6548C2.8069 12.6548 2.83295 12.6808 2.859 12.6808C2.83295 12.7069 2.8069 12.7329 2.8069 12.7329C3.17161 12.9153 2.96321 13.2539 3.01531 13.5405C3.01531 13.5665 2.88505 13.6707 2.83295 13.6707C2.72875 13.6707 2.62455 13.5665 2.57245 13.4363C2.23379 14.6346 2.05144 15.885 2.02539 17.1875C2.05144 17.2136 2.05144 17.2396 2.07749 17.2657C2.10354 17.3699 2.10354 17.4741 2.12959 17.5783C2.10354 17.5783 2.05144 17.5522 2.02539 17.5522C2.02539 18.3338 2.07749 19.0892 2.20774 19.8186C2.20774 19.8186 2.20774 19.8186 2.23379 19.8186C2.338 19.8707 2.338 19.9749 2.25984 20.0531C2.4422 21.2254 2.78085 22.3455 3.22371 23.4136C3.27581 23.4396 3.30186 23.4917 3.35396 23.5438C3.45816 23.6741 3.69262 23.3615 3.69262 23.648C3.69262 23.7783 3.64052 23.9085 3.71867 24.0388C3.74472 24.0649 3.71867 24.143 3.69262 24.1691C3.66657 24.1951 3.64052 24.2212 3.61447 24.2472C3.71867 24.4556 3.82287 24.638 3.90102 24.8203C4.08337 24.638 4.21363 24.5859 4.34388 24.7682C4.44808 24.8985 4.42203 24.9766 4.23968 25.0287C4.18758 25.0548 4.13547 25.0548 4.08337 25.0548C4.05732 25.0548 4.03127 25.0548 4.00522 25.0548C4.18758 25.3934 4.39598 25.706 4.60438 26.0186C4.73463 26.0707 4.78674 26.1749 4.81279 26.2791C4.86489 26.227 4.89094 26.1749 4.94304 26.1489C4.96909 26.1228 5.02119 26.1228 5.12539 26.0707C5.15144 26.0707 5.25564 26.0968 5.33379 26.1489C5.35984 26.1749 5.38589 26.3052 5.35984 26.3312C5.30774 26.3833 5.20354 26.4094 5.12539 26.4354C5.07329 26.4615 5.02119 26.4354 4.96909 26.4354C4.91699 26.4094 4.86489 26.3833 4.81279 26.3312C4.81279 26.3312 4.81279 26.3312 4.81279 26.3573C6.11531 28.2329 7.83463 29.822 9.84052 30.9682C9.89262 30.9682 9.94472 30.9943 9.99682 31.0203V31.0464C10.622 31.4111 11.2733 31.7237 11.9767 31.9842C12.0027 31.906 12.0548 31.8539 12.1069 31.8018C12.133 31.7758 12.1851 31.7497 12.2111 31.7497C12.4716 31.8018 12.7061 31.88 13.0187 31.9581C13.0187 32.1144 13.0187 32.2186 13.0187 32.3228C13.0187 32.3228 13.0187 32.3228 13.0187 32.3489C14.0346 32.6615 15.0767 32.8699 16.1708 32.9741C16.2229 32.8959 16.275 32.8438 16.3531 32.8178C16.4313 32.7917 16.5615 32.8959 16.6397 32.948C16.6397 32.9741 16.6657 33.0001 16.6657 33.0262C16.9783 33.0522 17.2909 33.0522 17.6035 33.0522C20.4951 33.0522 23.2044 32.2447 25.5489 30.864C25.4708 30.7859 25.4447 30.6817 25.4708 30.5775C25.4708 30.5254 25.5489 30.4733 25.575 30.4733C25.8876 30.3691 26.2262 30.2909 26.5649 30.2128H26.5909C26.8254 30.0564 27.0338 29.9001 27.2422 29.7178C27.138 29.7438 27.0598 29.7699 26.9556 29.7959C26.7212 29.848 26.5128 29.9001 26.2783 29.9783C26.096 30.0304 25.9397 30.1085 25.8094 29.9001C25.7052 29.7699 25.3666 29.9001 25.3145 30.0825C25.2884 30.2388 25.2103 30.2909 25.08 30.317C24.8716 30.3691 24.6893 30.4212 24.4809 30.4733C24.2985 30.5254 24.1422 30.6035 23.9859 30.3951C23.9598 30.343 23.8035 30.343 23.7254 30.3691C23.3086 30.4733 22.8918 30.5514 22.475 30.6817C22.3968 30.7077 22.3187 30.7859 22.2666 30.864C22.1103 31.1506 21.6674 31.2548 21.3809 31.0724C21.2506 30.9943 21.1464 31.0203 21.1203 31.1506C21.0943 31.3329 20.964 31.3329 20.8338 31.385C20.6775 31.4371 20.5993 31.385 20.4951 31.2808C20.3649 31.1506 19.9741 31.2548 19.922 31.4371C19.8699 31.6976 19.6355 31.6716 19.4792 31.7237C19.3229 31.7758 19.1405 31.88 19.0103 31.6455C18.9842 31.6195 18.9061 31.6195 18.854 31.5934C18.8279 31.6716 18.7758 31.7237 18.6977 31.8018C18.5153 31.9842 18.4111 32.0623 18.3069 32.0363C18.2548 32.0884 18.1506 32.0884 17.9943 32.1405C17.7338 32.3489 17.5514 31.9321 17.2909 31.9321C17.2909 31.8539 17.2909 31.7497 17.317 31.7237C17.4733 31.5934 17.6556 31.5413 17.838 31.5413C17.8119 31.4632 17.7859 31.4111 17.8119 31.385C17.838 31.359 17.838 31.359 17.864 31.3329C17.7859 31.3329 17.6817 31.3329 17.6035 31.3329C16.7439 31.3329 15.9103 31.2548 15.1027 31.0985C15.1288 31.1766 15.1288 31.2548 15.1288 31.3329C15.1288 31.385 15.1027 31.4892 15.0767 31.5153C15.0246 31.5413 14.9203 31.5413 14.8943 31.4892C14.738 31.3069 14.5817 31.1245 14.4514 30.9422C13.7481 30.7859 13.0708 30.5514 12.4195 30.2909C12.4195 30.3691 12.4195 30.4212 12.4195 30.4733C12.4195 30.5254 12.3674 30.5775 12.3674 30.6296C12.3153 30.6035 12.2632 30.5775 12.2372 30.5254C12.1851 30.4733 12.159 30.4212 12.159 30.3691C12.133 30.2909 12.133 30.2128 12.159 30.1607C11.1951 29.7438 10.2834 29.1968 9.44976 28.5716C9.37161 28.6497 9.29346 28.7018 9.18926 28.78C9.13716 28.806 9.0069 28.806 8.9548 28.78C8.9027 28.7539 8.87665 28.5976 8.9027 28.5716C9.0069 28.4153 8.87665 28.3111 8.8506 28.1808C8.7985 28.0245 8.66825 28.0506 8.51194 28.0506C8.35564 28.0245 8.19934 27.8943 8.09514 27.764C8.06909 27.738 8.12119 27.6338 8.17329 27.5296C7.86068 27.243 7.57413 26.9304 7.28757 26.5917C7.20942 26.5917 7.15732 26.5917 7.15732 26.5657C7.13127 26.5136 7.13127 26.4615 7.13127 26.3833C6.87077 26.0707 6.63631 25.7581 6.40186 25.4195C6.24556 25.4195 6.08926 25.3934 5.98505 25.2371C5.959 25.159 5.93295 25.0808 5.9069 24.9766C5.88085 24.9766 5.82875 24.9766 5.8027 24.9506C5.82875 24.9245 5.8548 24.8985 5.88085 24.8724C5.8548 24.6901 5.77665 24.5859 5.5943 24.5338C5.30774 24.4817 5.17749 24.2733 5.12539 23.9867C5.09934 23.9867 5.04724 23.9867 5.02119 23.9867C4.96909 23.9867 4.89094 23.8564 4.86489 23.8304C4.86489 23.7001 4.83884 23.648 4.83884 23.5699C4.83884 23.5438 4.91699 23.4657 4.94304 23.4917C4.91699 23.4136 4.91699 23.3615 4.99514 23.2833C5.04724 23.2573 5.07329 23.2052 5.12539 23.1531C4.94304 22.7363 4.78674 22.3195 4.63043 21.8766C4.50018 21.9548 4.39598 21.9027 4.29178 21.7985C4.16153 21.9027 4.05732 22.0069 3.92707 22.085C3.87497 22.1111 3.77077 22.085 3.69262 22.085C3.69262 22.0069 3.69262 21.9027 3.74472 21.8506C3.92707 21.6422 4.05732 21.6161 4.29178 21.7724C4.36993 21.6943 4.44808 21.6422 4.52623 21.564C4.03127 20.2094 3.82287 18.8808 3.82287 17.5001C3.82287 16.6926 3.90102 15.9371 4.03127 15.1556C4.03127 15.1556 4.03127 15.1556 4.00522 15.1296C3.95312 15.0775 3.90102 14.9472 3.92707 14.8951C3.97917 14.843 4.03127 14.7909 4.08337 14.7388C4.36993 13.3321 4.86489 12.0035 5.5422 10.8052C5.28169 10.8573 5.17749 10.8052 5.12539 10.5707C5.07329 10.3363 5.09934 10.3102 5.41195 10.206C5.5422 10.18 5.62035 10.1539 5.67245 10.18C5.67245 10.1279 5.6985 10.1018 5.77665 10.1018C5.82875 10.1018 5.88085 10.1018 5.93295 10.1539C6.61026 9.05981 7.46993 8.06989 8.40774 7.23628C8.22539 7.26233 8.04304 7.26233 7.88673 7.28838C7.83463 7.28838 7.78253 7.18418 7.70438 7.10603C7.75648 7.00183 7.78253 6.89762 7.83463 6.84552C7.86068 6.81947 7.99094 6.89762 8.06909 6.92367C8.12119 6.94972 8.17329 7.00183 8.22539 7.02788C8.25144 6.94972 8.27749 6.89762 8.27749 6.81947C8.32959 6.66317 8.53799 6.55897 8.7464 6.58502C8.87665 6.61107 8.9027 6.68922 8.92875 6.79342C9.03295 6.71527 9.1111 6.63712 9.21531 6.58502C9.21531 6.53292 9.26741 6.48082 9.31951 6.45477C9.39766 6.40267 9.50186 6.37662 9.58001 6.32451C9.81447 6.14216 10.075 5.98586 10.3355 5.82956H10.3094C10.0229 5.88166 9.94472 5.82956 9.91867 5.56905C9.89262 5.41275 9.94472 5.3346 10.075 5.30855C10.2573 5.25645 10.4397 5.2304 10.596 5.1783C10.7002 5.15225 10.8304 5.15225 10.9086 5.10014C11.143 4.96989 11.3254 5.07409 11.5077 5.20435C13.3313 4.31863 15.3632 3.82367 17.4993 3.82367C18.0985 3.82367 18.6977 3.87578 19.2708 3.95393C19.5052 3.84972 19.7397 3.79762 20.0002 3.82367C20.0002 3.79762 20.0002 3.79762 20.0002 3.77157C20.0002 3.74552 20.0523 3.71947 20.1565 3.64132C20.1304 3.66737 20.1825 3.58922 20.2346 3.58922C20.2867 3.56317 20.3909 3.56317 20.443 3.58922C20.4691 3.61527 20.4691 3.71947 20.443 3.77157C20.417 3.82367 20.3909 3.84972 20.3649 3.90183C20.3909 3.90183 20.417 3.92788 20.443 3.92788C20.4951 3.95393 20.5472 4.05813 20.5733 4.11023V4.13628C20.6775 4.16233 20.8077 4.18838 20.9119 4.21443C20.9119 4.21443 20.9119 4.21443 20.9119 4.18838C20.7296 3.87578 20.7556 3.79762 21.1203 3.66737C21.3288 3.58922 21.6153 3.61527 21.7195 3.35477C21.6935 3.35477 21.7977 3.35477 21.9019 3.30267C21.8758 3.30267 21.8498 3.27662 21.8237 3.27662C21.7456 3.22451 21.6674 3.12031 21.5893 3.04216C21.5372 2.99006 21.5111 2.93796 21.459 2.88586V2.91191C21.459 2.96401 21.433 3.01611 21.4069 3.04216C21.3548 3.04216 21.2766 3.04216 21.2766 3.04216C21.2246 2.91191 21.1985 2.75561 21.1724 2.5993C21.1724 2.57325 21.2766 2.52115 21.2766 2.52115C21.3288 2.57325 21.3809 2.62535 21.4069 2.67746C21.4069 2.65141 21.4069 2.62535 21.433 2.62535C21.459 2.5993 21.5893 2.57325 21.6153 2.5993C21.7716 2.75561 21.9279 2.91191 22.0842 3.06821C22.1103 3.12031 22.1103 3.25056 22.0582 3.27662C22.0582 3.27662 22.0321 3.30267 22.0061 3.30267C22.1884 3.35477 22.3708 3.38082 22.5531 3.48502C22.6573 3.53712 22.6573 3.69342 22.6052 3.84972C22.6313 3.84972 22.6573 3.84972 22.7094 3.87577C22.8136 3.90183 22.996 3.87578 23.0481 3.92788C23.1002 4.00603 23.0481 4.16233 23.022 4.26653C22.996 4.37073 22.996 4.47493 22.9699 4.57914C22.8657 4.60519 22.7876 4.63124 22.7094 4.65729C22.6834 4.60519 22.6834 4.52704 22.6573 4.44888C22.6313 4.29258 22.5792 4.16233 22.3708 4.24048C22.3187 4.26653 22.2666 4.24048 22.1884 4.21443C22.1363 4.26653 22.1363 4.37073 22.1624 4.55309C22.1624 4.57914 22.1624 4.63124 22.1363 4.65729C22.5531 4.81359 22.9439 4.96989 23.3607 5.1783C23.3867 5.1783 23.4128 5.1783 23.4128 5.1783C23.4909 5.1783 23.5691 5.2304 23.6212 5.20435C23.7775 5.1262 23.8817 5.2304 23.9598 5.3346C24.0119 5.41275 24.064 5.46485 24.1161 5.543C24.1682 5.51695 24.2464 5.51695 24.2985 5.4909C24.4809 5.4388 24.6632 5.41275 24.8195 5.36065C25.0019 5.30855 25.1582 5.2304 25.3145 5.46485C25.3666 5.51695 25.5489 5.46485 25.6792 5.46485C25.7052 5.46485 25.7313 5.4909 25.7573 5.4909C25.9657 5.3867 26.0439 5.4388 26.0699 5.67325C26.096 5.82956 26.122 5.95981 26.1481 6.11611C26.1481 6.19426 26.1741 6.27241 26.122 6.32451C25.9918 6.63712 25.8615 6.66317 25.601 6.40267C25.575 6.37662 25.5229 6.32451 25.4968 6.29846C25.4447 6.24636 25.3926 6.16821 25.3405 6.09006C25.2624 6.01191 25.2624 5.93376 25.3145 5.85561C25.1321 5.90771 24.9758 5.98586 24.8195 6.03796C25.2884 6.35057 25.7313 6.66317 26.1741 7.02788C26.122 6.94972 26.096 6.81947 26.122 6.79342C26.2262 6.68922 26.3825 6.53292 26.5128 6.53292C26.7472 6.53292 27.0077 6.58502 27.1901 6.79342C27.2943 6.89762 27.3203 7.00183 27.2161 7.10603C27.164 7.15813 27.138 7.18418 27.0859 7.23628C26.9817 7.34048 26.9035 7.44468 27.0338 7.57493C27.138 7.67914 27.2161 7.86149 27.4245 7.73124C27.5027 7.67914 27.5809 7.65309 27.659 7.62704C27.7893 7.60099 27.8674 7.62704 27.8414 7.75729C27.8414 7.80939 27.8153 7.88754 27.8414 7.93964C27.8674 8.14804 27.7893 8.3304 27.633 8.3825C27.7632 8.5388 27.9195 8.6951 28.0498 8.85141C28.0758 8.82536 28.1279 8.77325 28.2061 8.7472C28.2321 8.72115 28.2842 8.72115 28.3103 8.72115C28.4926 8.72115 28.9094 9.26821 28.8573 9.45057C28.8313 9.55477 28.7792 9.68502 28.7271 9.78922C28.8313 9.91947 28.9094 10.0758 28.9876 10.206C29.0397 10.0758 29.1178 9.99762 29.2481 9.97157C29.3523 9.97157 29.4565 10.0497 29.5346 10.1279C29.6909 10.2581 29.5867 10.3884 29.4825 10.5186C29.4565 10.5447 29.4044 10.5968 29.3783 10.6228C29.3523 10.6489 29.3262 10.6749 29.2741 10.6749C29.8212 11.6388 30.264 12.6548 30.5766 13.7228C30.6287 13.7489 30.6809 13.7749 30.733 13.801C30.7851 13.827 30.8632 13.7749 30.9153 13.801C30.9935 13.827 31.0977 13.827 31.1498 13.8791C31.2019 13.9573 31.28 14.0354 31.3321 14.1136C31.3582 14.0875 31.3842 14.0875 31.3842 14.0875C31.6447 14.0354 31.775 14.1136 31.8271 14.322C31.8531 14.4262 31.8271 14.5304 31.7489 14.6085C31.8792 14.7649 32.0355 14.9212 32.1657 15.1035C32.2178 15.1817 32.2699 15.2598 32.296 15.338C32.322 15.3901 32.322 15.4943 32.296 15.5464C32.2699 15.5724 32.1918 15.5724 32.1397 15.5724C31.775 15.5724 31.4884 15.4422 31.3842 15.1817C31.28 15.0514 31.2019 14.9733 31.1498 14.8951C31.0456 14.7909 30.9935 14.6867 31.0716 14.5304C31.1498 14.4001 31.0716 14.2699 30.9414 14.322C30.8893 14.348 30.8372 14.348 30.7851 14.348C30.9414 14.9993 31.0456 15.6506 31.0977 16.3279C31.1237 16.3279 31.1758 16.3539 31.2019 16.406C31.3321 16.5884 31.4624 16.7447 31.5666 16.9531C31.5666 16.8489 31.5666 16.7186 31.6187 16.6405C31.6708 16.5623 31.7229 16.4581 31.7489 16.38C31.801 16.2237 31.9573 16.1716 32.0355 16.3018C32.1397 16.5363 32.296 16.4581 32.4523 16.4321C32.4783 16.4321 32.5044 16.4321 32.5044 16.406C32.4783 16.38 32.4783 16.3539 32.4783 16.3539C32.4783 16.3279 32.5565 16.2497 32.5825 16.2497C32.6867 16.2758 32.7909 16.2497 32.8951 16.2497C32.843 15.6506 32.7649 15.0514 32.6346 14.4522C32.5825 14.4001 32.4783 14.348 32.4783 14.2959C32.4783 14.1917 32.5044 14.0615 32.5304 13.9573C31.6708 10.3884 29.5867 7.28838 26.7472 5.15225C26.8254 5.3867 26.8514 5.543 26.5388 5.56905C26.4607 5.56905 26.3825 5.5951 26.3304 5.5951C26.2002 5.56905 26.1741 5.4909 26.2262 5.3867C26.2783 5.2825 26.3565 5.15225 26.4346 5.04804C26.4607 4.99594 26.5128 4.96989 26.5649 4.96989C25.6792 4.29258 24.7153 3.74552 23.6993 3.30267C23.6212 3.48502 23.4649 3.56317 23.1523 3.58922C22.8918 3.61527 22.8136 3.56317 22.8397 3.30267C22.8397 3.19846 22.8918 3.06821 22.9699 3.04216C22.996 3.04216 22.996 3.01611 23.022 3.01611C22.8136 2.93796 22.6313 2.85981 22.4229 2.80771C22.3968 2.80771 22.3968 2.80771 22.3708 2.83376C22.2405 2.88586 22.1103 2.88586 22.0582 2.70351C21.7195 2.5993 21.3548 2.4951 21.0161 2.41695C21.0161 2.443 21.0161 2.443 21.0161 2.46905C21.0161 2.46905 20.9119 2.5472 20.8859 2.5472C20.8077 2.4951 20.7556 2.41695 20.6775 2.36485C19.6355 2.15645 18.5935 2.0262 17.4993 2.0262C15.8321 2.00014 14.243 2.26065 12.7582 2.75561C12.8103 2.78166 12.8624 2.83376 12.9145 2.91191C13.0708 3.09426 13.0447 3.14636 12.8363 3.32872C12.6279 3.51107 12.5498 3.51107 12.3414 3.27662C12.1851 3.09426 12.159 3.01611 12.3153 2.88586C10.101 3.66737 8.12119 4.94384 6.50606 6.55897C6.55816 6.58502 6.58421 6.61107 6.58421 6.61107ZM24.559 30.6817C24.6372 30.7598 24.7153 30.838 24.7674 30.9161C24.8195 31.0203 24.8456 31.1506 24.6893 31.1766C24.6111 31.2027 24.533 31.0985 24.4027 31.0464C24.4809 30.9161 24.5069 30.7859 24.559 30.6817ZM21.8758 31.6195C22.0321 31.5674 22.1884 31.5934 22.3708 31.5674C22.3708 31.6195 22.3968 31.6716 22.3708 31.7237C22.3187 31.8018 22.2405 31.88 22.1624 31.9581C22.1103 32.0102 22.0582 32.0623 22.0061 32.1144C21.954 32.0623 21.8758 31.9842 21.7977 31.906C21.8237 31.8018 21.8237 31.6195 21.8758 31.6195ZM18.6716 31.9321C18.7758 31.8539 19.3229 31.88 19.3489 31.9842C19.3489 32.0884 19.375 32.1926 19.3489 32.2707C19.5313 32.2186 19.6876 32.1665 19.8699 32.1405C20.0262 32.0884 20.1044 32.1926 20.1565 32.3489C20.1825 32.5052 20.2086 32.6354 20.0262 32.7136C19.9481 32.7396 19.896 32.7657 19.7918 32.7917C19.6094 32.7917 19.401 32.8699 19.2447 32.6615C19.2447 32.6354 19.2187 32.6354 19.1926 32.6354C19.0884 32.6615 18.9321 32.6615 18.8279 32.6615C18.7237 32.6615 18.6456 32.5312 18.6195 32.5052C18.3851 32.1926 18.4111 32.1144 18.6716 31.9321ZM13.9825 31.6455C13.9825 31.4632 14.1649 31.3069 14.3472 31.385C14.3733 31.385 14.3993 31.5153 14.3733 31.5413C14.243 31.8018 14.243 31.7758 14.4775 31.9581C14.6859 32.1144 14.8422 32.1405 15.0767 32.0363C15.233 31.9581 15.4414 31.9321 15.6237 32.1144C15.6498 32.1665 15.754 32.1665 15.8061 32.1665C15.8321 32.1144 15.8582 32.0363 15.8582 31.9842C15.8842 31.6195 15.9363 31.5674 16.1708 31.4892C16.5094 31.4111 16.8481 31.6976 16.796 32.0363C16.7699 32.1926 16.6918 32.2447 16.5876 32.2707C16.3271 32.3489 16.0666 32.401 15.8061 32.4791C15.6237 32.5312 15.4414 32.5833 15.233 32.6094C15.0506 32.6615 14.8422 32.7657 14.6859 32.5312C14.6598 32.5052 14.5556 32.5052 14.4775 32.5312C14.3472 32.5573 14.243 32.5833 14.1128 32.5833C14.0346 32.5833 13.9304 32.5573 13.8523 32.5312C13.8783 32.4531 13.9304 32.3749 13.9565 32.2968C13.9825 32.2186 13.9825 32.1405 13.9825 32.0623C14.0086 31.9321 13.9825 31.8018 13.9825 31.6455ZM13.696 31.2808C13.722 31.2548 13.7741 31.2808 13.9044 31.2808C13.8783 31.3329 13.8523 31.4111 13.8262 31.4111C13.7741 31.4371 13.722 31.4111 13.6699 31.385C13.6699 31.385 13.696 31.3069 13.696 31.2808ZM11.4035 30.6817C11.4296 30.6556 11.4817 30.6296 11.5338 30.6035C11.664 30.5514 11.7682 30.6556 11.7161 30.7338C11.6119 30.9682 11.7161 31.0724 11.8464 31.2287C11.9246 31.3329 12.0027 31.4371 11.8464 31.5413C11.6901 31.6195 11.638 31.5153 11.5598 31.4111C11.5077 31.3069 11.4296 31.2287 11.3514 31.1506C11.143 30.9422 11.143 30.8901 11.4035 30.6817ZM10.075 29.327C10.1792 29.3791 10.2834 29.3791 10.2834 29.4052C10.3094 29.4573 10.2573 29.5354 10.2313 29.5875C10.2052 29.6136 10.101 29.5875 10.075 29.5615C10.0489 29.5094 10.075 29.4312 10.075 29.327ZM6.32371 25.7842C6.34976 25.7842 6.45396 25.8363 6.45396 25.8623C6.45396 25.9144 6.40186 25.9926 6.37581 26.0186C6.34976 26.0447 6.27161 25.9926 6.19346 25.9665C6.24556 25.8623 6.27161 25.8102 6.32371 25.7842ZM5.8027 26.6959C5.8027 26.6438 5.82875 26.5917 5.88085 26.5917C5.9069 26.5917 5.959 26.6178 5.98505 26.6438C6.0111 26.6699 6.03716 26.722 6.03716 26.7741C6.03716 26.8783 6.0111 26.9564 6.0111 27.0606C5.93295 26.9825 5.88085 26.9304 5.8548 26.8783C5.82875 26.7741 5.8027 26.722 5.8027 26.6959ZM3.95312 22.6581C4.00522 22.6321 4.10942 22.6581 4.18758 22.6581C4.18758 22.7363 4.21363 22.8405 4.16153 22.8926C4.13547 22.9447 4.03127 22.9186 3.87497 22.9447C3.92707 22.7884 3.92707 22.6842 3.95312 22.6581ZM3.24976 21.2775C3.11951 21.3296 3.04136 21.3817 2.93716 21.4338C2.88505 21.4598 2.78085 21.4338 2.78085 21.4338C2.7548 21.2514 2.67665 21.043 2.72875 20.8867C2.7548 20.7304 2.9111 20.7043 3.06741 20.8085L3.09346 20.8346C3.19766 20.8867 3.40606 20.7043 3.43211 20.9128C3.43211 20.9909 3.30186 21.1472 3.24976 21.2775ZM3.43211 13.9833C3.40606 13.9573 3.43211 13.8531 3.43211 13.7749C3.51026 13.7749 3.58842 13.801 3.69262 13.801C3.71867 13.9312 3.74472 14.0094 3.74472 14.1136C3.64052 14.0615 3.51026 14.0354 3.43211 13.9833ZM4.31783 13.0455C4.18758 13.0716 4.03127 13.1237 3.90102 13.1497V13.1237C3.79682 13.1497 3.71867 13.1758 3.61447 13.2018C3.35396 13.2539 3.27581 13.2018 3.22371 12.9153C3.19766 12.785 3.22371 12.7069 3.35396 12.6548C3.64052 12.5766 3.92707 12.5245 4.21363 12.4464C4.42203 12.3943 4.44808 12.5766 4.47413 12.7069C4.50018 12.8632 4.50018 12.9934 4.31783 13.0455ZM30.2119 10.4144C30.264 10.4144 30.3682 10.4665 30.3943 10.5447C30.4985 10.6749 30.5506 10.8312 30.6809 10.9354C31.0195 11.1699 30.8372 11.4825 30.8632 11.7691C30.8632 11.8212 30.7851 11.8733 30.733 11.9254C30.8372 12.0035 30.9153 12.1077 31.0716 12.0296C31.1498 12.0035 31.3061 12.0556 31.3582 12.1077C31.4884 12.238 31.5666 12.4203 31.6708 12.5766C31.775 12.759 31.6187 12.8371 31.5145 12.9413C31.4103 13.0455 31.3061 13.0455 31.2019 12.9413C31.0195 12.7329 30.8632 12.5506 30.6809 12.3422C30.5245 12.1598 30.5506 12.0296 30.733 11.9254C30.6548 11.8733 30.5506 11.7691 30.4985 11.7951C30.264 11.8993 30.1859 11.743 30.0817 11.6128C30.0035 11.5346 29.9514 11.4304 29.8733 11.3522C29.6128 11.0136 29.7951 10.4926 30.2119 10.4144ZM27.5548 6.45477C27.7372 6.29846 27.8153 6.48082 27.9716 6.61107C27.9716 6.68922 27.9977 6.81947 27.9456 6.87157C27.7893 7.02788 27.6851 6.87157 27.5809 6.76737C27.5027 6.68922 27.4245 6.55897 27.5548 6.45477ZM24.7153 4.73544C24.8977 4.57914 24.9758 4.60519 25.2103 4.83964C25.3145 4.94384 25.3666 5.07409 25.2103 5.1783C25.0019 5.3346 24.8456 5.3346 24.6893 5.15225C24.5069 4.96989 24.5069 4.89174 24.7153 4.73544ZM24.3766 3.92788C24.4288 4.00603 24.4027 4.08418 24.4027 4.16233C24.3245 4.16233 24.2464 4.18838 24.2203 4.13628C24.1682 4.08418 24.1682 4.00603 24.1422 3.87577C24.2724 3.90183 24.3506 3.90183 24.3766 3.92788ZM23.3867 4.83964C23.4388 4.83964 23.4909 4.89174 23.543 4.91779C23.517 4.96989 23.4909 5.04804 23.4649 5.07409C23.4128 5.10015 23.3607 5.04804 23.2565 5.02199C23.3086 4.94384 23.3607 4.83964 23.3867 4.83964ZM20.2346 3.04216V3.06821C20.2086 3.14636 20.2086 3.22451 20.1825 3.30267C20.1565 3.30267 20.1044 3.30267 20.1044 3.27662C20.0262 3.12031 20.1304 3.09426 20.2346 3.04216ZM18.5674 2.5472C18.7237 2.52115 18.854 2.4951 19.0103 2.46905C19.0363 2.46905 19.0624 2.46905 19.1145 2.4951C19.1405 2.46905 19.1666 2.46905 19.1926 2.443C19.1926 2.443 19.1926 2.41695 19.2187 2.41695C19.2968 2.443 19.401 2.443 19.4271 2.4951C19.5052 2.57325 19.4531 3.06821 19.375 3.06821C19.2968 3.09426 19.1926 3.04216 19.1666 3.04216C19.0363 2.88586 18.9842 2.78166 18.9842 2.67746C18.9321 2.70351 18.854 2.75561 18.7758 2.78166C18.7237 2.80771 18.6716 2.83376 18.6456 2.88586C18.5935 2.96401 18.5414 3.01611 18.5153 3.09426C18.4632 3.04216 18.4111 2.93796 18.3851 2.91191C18.3069 2.5993 18.3069 2.57325 18.5674 2.5472ZM16.7699 2.99006C16.822 2.96401 16.8741 2.93796 16.9002 2.93796C16.9783 2.96401 17.0565 3.01611 17.1346 3.04216C17.1086 3.12031 17.0565 3.17241 17.0304 3.25056C17.0044 3.27662 16.9523 3.27662 16.822 3.32872C16.7699 3.30267 16.6397 3.27662 16.5876 3.22451C16.5094 3.09426 16.6657 3.04216 16.7699 2.99006ZM12.9666 4.00603C13.0708 3.92788 13.1229 3.87577 13.175 3.87577C13.2271 3.87577 13.3052 3.87578 13.3313 3.90183C13.3573 3.92788 13.3573 4.00603 13.3313 4.05813C13.3052 4.11023 13.2531 4.16233 13.201 4.18838C13.1229 4.24048 13.0187 4.37073 12.9405 4.24048C12.8884 4.18838 12.9405 4.05813 12.9666 4.00603ZM9.81447 4.26653C9.94472 4.21443 10.2573 4.47493 10.2313 4.60519C10.2052 4.65729 10.1271 4.76149 10.101 4.76149C10.0229 4.76149 9.94472 4.70939 9.89262 4.68334C9.81447 4.57914 9.76236 4.52704 9.76236 4.44888C9.71026 4.37073 9.76236 4.29258 9.81447 4.26653ZM8.92875 5.62115C9.18926 5.56905 9.24136 5.5951 9.29346 5.80351C9.34556 6.03796 9.31951 6.09006 9.08505 6.14216C8.8506 6.19426 8.7985 6.16821 8.7464 5.95981C8.66825 5.72536 8.6943 5.67325 8.92875 5.62115Z" fill="#171026"/>
<path d="M29.1969 27.66C29.1709 27.66 29.1448 27.66 29.0927 27.66C28.9104 27.686 28.8322 27.6339 28.9104 27.4255C28.9364 27.3474 28.9104 27.2692 28.9104 27.1911C28.9104 27.139 28.9104 27.0869 28.9364 27.0087C29.0146 27.0087 29.0406 26.9827 29.0927 26.9827C29.1969 26.9827 29.3011 27.0087 29.4053 27.0348C29.5356 27.0348 29.6137 27.1129 29.5616 27.2171C29.8743 26.8263 30.1869 26.4095 30.4734 25.9667C30.3432 26.0188 30.2129 25.9927 30.0566 25.9146C29.9785 25.8625 29.8482 25.8104 29.77 25.8104C29.5616 25.8104 29.4574 25.7062 29.4053 25.5238C29.3793 25.4457 29.4053 25.3154 29.4314 25.2894C29.5095 25.2633 29.6398 25.2373 29.6919 25.2894C29.8482 25.4717 29.9524 25.4978 30.0306 25.2373C30.0827 25.081 30.6297 24.8986 30.786 24.9768C30.8381 25.0028 30.8902 25.107 30.9684 25.2112C30.9684 25.2112 30.9684 25.2112 30.9684 25.2373C31.281 24.6902 31.5675 24.1171 31.828 23.544C32.0885 22.9448 32.2969 22.3196 32.4793 21.6944C32.4272 21.6944 32.3751 21.6944 32.323 21.6944C32.2448 21.6944 32.1667 21.7205 32.1146 21.7205C32.0625 21.7205 32.0104 21.6684 31.9583 21.6423C31.9843 21.6163 31.9843 21.5381 32.0364 21.5381C32.2188 21.46 32.4011 21.3818 32.5835 21.3037C32.7137 20.8087 32.8179 20.2877 32.8961 19.7927C32.8701 19.7667 32.8179 19.7406 32.7919 19.7146C32.6877 19.6104 32.6616 19.402 32.6356 19.2457C32.6356 19.1936 32.7658 19.1154 32.8701 19.0633C32.8961 19.0373 32.9482 19.0373 32.9743 19.0373C33.0003 18.8028 33.0264 18.5684 33.0264 18.36C32.9222 18.1776 32.6356 18.2818 32.5574 18.0474C32.5574 18.0213 32.4272 17.9953 32.3751 17.9953C32.2969 17.9953 32.2188 18.0213 32.1667 18.0213C32.0364 18.0474 31.9322 18.0213 31.9062 17.8911C31.8801 17.7608 31.9843 17.7087 32.0885 17.6827C32.1146 17.6827 32.1406 17.6827 32.1667 17.6566C32.1667 17.6566 32.1667 17.6566 32.1667 17.6827C32.4793 17.6045 32.7659 17.5263 33.0785 17.4482C33.0785 17.2398 33.0785 17.0314 33.0524 16.823C32.9743 16.823 32.8961 16.7709 32.818 16.6667C32.7398 16.5364 32.4011 16.6927 32.349 16.849C32.2709 17.0314 31.9843 17.1877 31.802 17.1356C31.7238 17.1095 31.6717 17.0053 31.6717 16.9011C31.6457 16.9272 31.5154 17.0574 31.4894 17.0314C31.4112 16.9793 31.307 16.9793 31.2289 17.0053C31.2289 17.1616 31.2289 17.3179 31.2289 17.5003C31.2289 17.7087 31.2289 17.9432 31.2028 18.1516C31.2549 18.1776 31.281 18.2297 31.307 18.2558C31.3331 18.2818 31.307 18.4121 31.281 18.4381C31.2549 18.4642 31.2028 18.4902 31.1507 18.5163C31.1247 18.7768 31.0986 19.0373 31.0726 19.2978C31.1247 19.2717 31.2289 19.2457 31.2289 19.2717C31.307 19.402 31.4112 19.428 31.5675 19.4541C31.7759 19.4801 31.8541 19.8188 31.6978 19.9751C31.4633 20.2095 31.4633 20.2356 31.7499 20.3658C31.802 20.3919 31.8541 20.444 31.8541 20.4961C31.8541 20.5482 31.802 20.6263 31.7759 20.6263C31.6196 20.6784 31.4373 20.8087 31.281 20.6003C31.2289 20.5482 31.0986 20.5482 30.9944 20.5482C30.9423 20.5482 30.8902 20.5742 30.8642 20.5742C30.6297 21.6163 30.265 22.6062 29.8222 23.5179C29.8482 23.5179 29.8743 23.5179 29.9264 23.5179C30.1087 23.544 30.3692 23.4137 30.4474 23.6742C30.6558 23.9087 30.6558 23.9348 30.4734 24.1171C30.265 24.2995 30.0827 24.4558 29.8743 24.6121C29.8222 24.6381 29.7179 24.6381 29.6398 24.6381C29.6398 24.6121 29.6398 24.586 29.6398 24.586C29.5877 24.6121 29.5095 24.6381 29.4053 24.6642C29.3793 24.6642 29.3272 24.6381 29.2751 24.6121C28.9885 25.081 28.6759 25.5499 28.3373 25.9667C28.3373 25.9927 28.3633 26.0188 28.3633 26.0709C28.4154 26.0969 28.4675 26.149 28.5457 26.2532C28.6238 26.3574 28.7801 26.4616 28.5978 26.6179C28.5457 26.67 28.4936 26.6961 28.4154 26.7221C28.3633 26.8524 28.2591 26.9305 28.0247 27.0087C27.8944 27.0348 27.7902 27.0608 27.66 27.0869C27.5297 27.1129 27.3734 27.139 27.3474 27.3474C27.3213 27.4776 27.2171 27.5037 27.1129 27.4255C27.0869 27.4255 27.0869 27.3995 27.0608 27.3995C26.2532 28.181 25.3415 28.8843 24.3516 29.4574C24.3776 29.4574 24.4037 29.4574 24.4297 29.4314C24.6902 29.4053 24.9768 29.2751 25.2112 29.5356C25.3154 29.6398 25.602 29.5095 25.628 29.3272C25.6541 29.1448 25.7583 29.0667 25.9146 29.0406C26.4616 28.9625 27.0087 28.8843 27.5558 28.6499C27.8684 28.5196 28.0507 28.6499 28.1289 28.9364C28.4415 28.4936 28.8322 28.0768 29.1969 27.66ZM32.0885 19.0633C32.0885 19.0373 32.1406 19.0112 32.1667 18.9852C32.2188 18.9591 32.2709 18.907 32.323 18.881C32.349 18.8549 32.4011 18.881 32.4532 18.881C32.4532 18.9331 32.4532 18.9852 32.4272 19.0112C32.3751 19.0894 32.349 19.1675 32.2709 19.2196C32.2188 19.2457 32.1146 19.2457 32.0625 19.2457C32.0625 19.1936 32.0625 19.1415 32.0885 19.0633ZM32.0885 19.3238C32.1406 19.3759 32.1667 19.402 32.1927 19.428C32.1927 19.4541 32.1667 19.4801 32.1406 19.5062C32.1146 19.4801 32.0625 19.4541 32.0364 19.428C32.0104 19.428 32.0625 19.3759 32.0885 19.3238ZM31.7759 17.3961C31.7499 17.3961 31.7759 17.344 31.7759 17.2658C31.828 17.2919 31.8801 17.2919 31.9062 17.3179C31.9322 17.3179 31.9062 17.3961 31.9062 17.3961C31.8541 17.3961 31.802 17.3961 31.7759 17.3961ZM31.4112 21.6423C31.4373 21.6163 31.5675 21.6944 31.5675 21.7465C31.5675 21.7986 31.5415 21.9028 31.4894 21.9549C31.4373 21.981 31.3591 21.9028 31.2289 21.8768C31.3331 21.7465 31.3591 21.6684 31.4112 21.6423ZM28.5196 25.6801C28.5196 25.628 28.5457 25.5499 28.5978 25.5238C28.6238 25.4978 28.702 25.5238 28.7541 25.5499C28.8583 25.602 28.9364 25.6541 29.0146 25.7062C29.1448 25.7843 29.3011 26.1751 29.1709 26.2793C29.0146 26.4095 29.0406 26.5658 29.0406 26.7221C29.0406 26.8003 28.9885 26.8784 28.9625 26.9305C28.9104 26.8784 28.8062 26.8263 28.7801 26.7482C28.702 26.5658 28.6759 26.3835 28.6238 26.1751C28.5978 26.0448 28.5457 25.8625 28.5196 25.6801ZM27.4255 28.3112C27.3474 28.3112 27.2692 28.207 27.1911 28.1549C27.2432 27.9986 27.0869 27.7902 27.2953 27.7381C27.4776 27.7121 27.4776 27.9465 27.5297 28.0507C27.5818 28.181 27.5818 28.3112 27.4255 28.3112Z" fill="#171026"/>
<path d="M5.4389 19.4278C5.5431 19.5059 5.56915 19.6101 5.491 19.7664C5.491 19.7664 5.491 19.7925 5.46495 19.8185C5.72545 21.1471 6.19436 22.3975 6.84562 23.5437C6.92377 23.6219 6.97587 23.7 7.05402 23.7782C7.10612 23.8303 7.15823 23.9084 7.13218 23.9345C7.10613 23.9605 7.10613 23.9866 7.10613 24.0126C7.44478 24.5597 7.83554 25.0807 8.25234 25.5496C8.35655 25.4975 8.4347 25.4454 8.56495 25.5757C8.6952 25.732 8.7994 25.8622 8.92965 26.0185C9.00781 26.1227 9.08596 26.2009 9.16411 26.3051C9.24226 26.4093 9.34646 26.5135 9.32041 26.6437C9.42461 26.7479 9.55486 26.8521 9.65907 26.9303C9.71117 26.9303 9.73722 26.9563 9.73722 27.0084C11.7431 28.6236 14.2439 29.6395 16.9792 29.7437C16.9532 29.6916 16.9271 29.6395 16.9271 29.5874C16.9011 29.5353 16.9271 29.4572 16.9271 29.379C16.9792 29.379 17.0313 29.4051 17.1095 29.4051H17.1355C17.0574 29.3009 16.9792 29.1967 16.9011 29.0925C17.1616 29.0143 17.2397 28.8841 17.1876 28.6236C17.1616 28.4673 17.1095 28.2849 17.0834 28.1286C17.0574 27.9984 16.9792 27.9463 16.8229 27.9723C16.6145 28.0244 16.4061 28.1026 16.1977 28.1547C16.0675 27.9984 15.9633 27.8421 15.833 27.6858C15.8851 27.6337 15.9633 27.5816 16.0154 27.5034C15.8851 27.4253 15.7549 27.295 15.5986 27.295C15.5725 27.295 15.5725 27.295 15.5465 27.295C14.9994 26.5395 14.5044 25.8101 14.1137 25.1589C14.1397 25.1328 14.1397 25.0547 14.1658 25.0286C14.1137 25.0026 14.0616 24.9505 14.0095 24.9765C14.0095 24.9765 14.0095 24.9765 13.9834 24.9765C13.7229 24.5337 13.5145 24.1429 13.3582 23.8042C13.3582 23.7782 13.3322 23.7521 13.3322 23.7261C13.3843 23.7 13.4624 23.6479 13.4624 23.6219C13.4624 23.5437 13.4885 23.5177 13.5145 23.4656C13.5145 23.4916 13.5145 23.4916 13.5145 23.5177C13.5145 23.5698 13.6708 23.5698 13.775 23.6219C13.8271 23.5177 13.8792 23.4656 13.8792 23.3874C13.8792 23.3874 13.8532 23.3614 13.8271 23.3353C13.9574 23.2832 14.0876 23.2572 14.2179 23.2311C14.4263 23.179 14.6347 23.0227 14.817 23.2832C14.817 23.2832 14.8692 23.3093 14.8692 23.2832C15.1036 23.179 15.4683 23.2832 15.5725 22.9185C15.5725 22.8925 15.6507 22.8404 15.6767 22.8143C15.9112 22.7362 16.1456 22.658 16.3801 22.6059C16.4843 22.5799 16.6145 22.658 16.7448 22.7101C16.7708 22.5538 16.849 22.4496 17.0053 22.3975C17.0313 22.3715 17.0574 22.3454 17.1095 22.3194C17.2658 22.4236 17.4221 22.5278 17.5784 22.632C17.6305 22.658 17.7086 22.6841 17.7347 22.658C17.7607 22.632 17.7868 22.5538 17.7868 22.5017C17.7607 22.3454 17.7347 22.2152 17.6826 22.0849C17.6826 22.0589 17.6826 22.0328 17.6565 22.0068C17.6826 22.0328 17.7086 22.0328 17.7347 22.0589C17.8389 22.1631 17.917 22.1631 18.0213 22.137C18.1515 22.111 18.2557 22.0849 18.3599 22.1891C18.4641 22.2933 18.8288 22.1891 18.8549 22.0589C18.8809 21.8505 19.0372 21.8505 19.1675 21.7984C19.2717 21.7463 19.3759 21.6942 19.454 21.616C19.4801 21.59 19.5061 21.4858 19.4801 21.4597C19.3498 21.3034 19.0372 21.2253 18.8549 21.3034C18.6725 21.3816 18.5162 21.4337 18.2818 21.5118C18.2818 21.5118 18.2818 21.5118 18.2557 21.5118C18.2557 21.5118 18.2557 21.5379 18.2297 21.5379C18.2297 21.5379 18.2297 21.5379 18.2036 21.5379C18.0212 21.59 17.8128 21.6421 17.5784 21.7202C17.5263 21.5379 17.5002 21.4337 17.396 21.4337C17.5002 21.3816 17.5002 21.3555 17.4742 21.2513C17.4481 21.1992 17.4481 21.1211 17.4221 21.069C17.4221 21.0169 17.396 20.9387 17.396 20.8866C17.396 20.8084 17.37 20.7303 17.3439 20.6521H17.37C17.3439 20.5479 17.3179 20.4437 17.2918 20.3395C17.2658 20.1832 17.1876 20.1311 17.0313 20.1572C16.7448 20.2093 16.5624 20.5479 16.5885 20.8345C16.6145 21.0429 16.7969 21.0429 16.9011 21.1471C16.9011 21.1992 16.9271 21.2774 16.9532 21.3295C16.9792 21.4076 17.0313 21.4858 17.0834 21.5118C16.9792 21.5379 16.9011 21.5639 16.8229 21.6421C16.7708 21.6942 16.7708 21.8505 16.7969 21.9807C16.354 22.0849 15.9112 22.2152 15.4683 22.3194C15.3381 22.3454 15.2339 22.4236 15.1297 22.4496C14.817 22.5278 14.4523 22.5799 14.1658 22.7101C13.9574 22.7883 13.6448 22.8143 13.5406 23.1009C13.5406 23.1269 13.4103 23.153 13.3843 23.1269C13.254 23.0227 13.1498 23.0748 13.0456 23.1009C12.9675 22.9185 12.8893 22.7622 12.8112 22.5538L12.8372 22.5278C12.8893 22.4757 12.8893 22.3715 12.8633 22.2933C12.8372 22.137 12.7851 22.0068 12.733 21.8765C12.6809 21.7202 12.6549 21.5379 12.5767 21.4076C12.5507 21.3555 12.4725 21.3295 12.4204 21.3034C12.3944 21.3034 12.3683 21.3555 12.3423 21.4076C12.2381 21.0169 12.1339 20.6261 12.1078 20.2353C12.1339 20.2093 12.1599 20.1832 12.1599 20.1311C12.1339 20.1311 12.1078 20.1051 12.0818 20.1051C12.0557 19.7664 12.0818 19.4278 12.1339 19.1152C12.1339 19.0891 12.1339 19.0891 12.1339 19.0631C12.3423 18.0732 12.6288 17.4219 13.1498 16.7446C13.228 16.6404 13.3322 16.5362 13.4624 16.432C13.8271 16.0933 14.1918 15.7286 14.0876 15.0253C13.775 13.0454 12.8112 12.7328 11.4044 12.2639C11.1179 12.1597 10.8313 12.0816 10.5187 11.9513C10.5969 11.9253 10.649 11.8992 10.7271 11.8992C10.8053 11.8732 10.8834 11.8471 10.9616 11.8211C11.0658 11.795 11.17 11.7429 11.1179 11.6127C11.0658 11.4824 11.1179 11.3 10.8834 11.3C10.7792 11.3 10.675 11.1698 10.5969 11.1698C10.5187 11.1958 10.4927 11.3261 10.4145 11.4042C10.3885 11.4303 10.3103 11.4563 10.2582 11.4563C10.154 11.5084 10.0238 11.5345 9.99772 11.6908C9.99772 11.6908 9.99772 11.6908 9.99772 11.7169C9.94562 11.6908 9.89352 11.6648 9.84142 11.6387C9.45066 11.4303 9.03386 11.2219 8.6431 11.2219C8.591 11.2219 8.51285 11.2219 8.46075 11.2479H8.4347C8.3826 11.2479 8.33049 11.2219 8.30444 11.1698C8.27839 11.1177 8.27839 11.0395 8.35654 10.9353C8.77335 10.3622 9.91957 9.97147 10.7532 9.94542C10.7532 9.94542 10.7532 9.94542 10.7532 9.97147C10.7532 10.0236 10.7532 10.1017 10.7532 10.1538C10.8574 10.1278 10.9876 10.1278 11.0918 10.1017C11.1179 10.0757 11.1439 9.99752 11.1439 9.91937C11.4044 9.89332 11.7691 9.84122 12.186 9.76307C13.4364 9.58072 15.312 9.29416 16.9532 9.29416C17.2397 9.29416 17.4742 9.29416 17.7086 9.32021C17.6044 9.37231 17.6305 9.47652 17.6826 9.63282C17.7086 9.65887 17.7868 9.76307 17.8389 9.73702C18.0212 9.68492 17.917 9.50257 17.917 9.39836C17.917 9.37231 17.8649 9.34626 17.8389 9.32021C17.9952 9.32021 18.1515 9.34626 18.3078 9.37231C18.3078 9.39836 18.2818 9.42441 18.2818 9.45047C18.2818 9.50257 18.3339 9.60677 18.3599 9.60677C18.5423 9.58072 18.6986 9.55467 18.8809 9.47652C19.1414 9.52862 19.3498 9.60677 19.5322 9.71097C20.6523 10.1017 21.3557 10.9353 21.9288 11.8732C21.8507 11.9513 21.7204 12.0034 21.7204 12.0816C21.6944 12.316 21.9809 12.2118 22.0591 12.3421C22.0851 12.3681 22.1893 12.3681 22.2414 12.3681C22.3456 12.5244 22.4238 12.7068 22.528 12.8631C22.6582 13.1236 22.8145 13.3841 22.9708 13.6185C23.1011 13.8269 23.8565 14.5042 24.6902 15.2597C25.8624 16.3017 27.4255 17.7084 28.4675 18.8807C28.4414 18.9068 28.4154 18.9589 28.4154 19.011C28.4154 19.037 28.4935 19.0891 28.5196 19.0891C28.5456 19.0891 28.5717 19.0631 28.5977 19.0631C28.6238 19.1152 28.6759 19.1412 28.7019 19.1933C28.9364 19.4538 29.1708 19.7143 29.3792 19.9748C29.5355 19.1673 29.6397 18.3597 29.6397 17.5C29.6397 10.7269 24.1691 5.25635 17.396 5.25635C10.6229 5.25635 5.15234 10.7269 5.15234 17.5C5.15234 18.1253 5.20444 18.7505 5.2826 19.3757C5.41285 19.4017 5.4389 19.4017 5.4389 19.4278ZM14.4523 26.5395C14.5565 26.4353 14.6868 26.3832 14.817 26.279C14.8431 26.3311 14.9473 26.4614 14.9213 26.4614C14.791 26.5916 15.1036 26.9042 14.7649 26.9563C14.6868 26.9563 14.6086 26.8521 14.4784 26.774C14.4784 26.7219 14.4263 26.5916 14.4523 26.5395ZM8.27839 21.7723C8.22629 21.8244 8.12209 21.8244 8.04394 21.8244C8.06999 21.7202 8.12209 21.6421 8.14814 21.5379C8.25234 21.5379 8.30444 21.5379 8.3826 21.5379C8.35655 21.616 8.33049 21.7202 8.27839 21.7723ZM8.7994 24.3253C8.72125 24.2471 8.6431 24.1429 8.56495 24.0387C8.46075 23.9084 8.35655 23.8042 8.5389 23.674C8.7473 23.5177 8.8515 23.4916 9.00781 23.6479C9.05991 23.7 9.13806 23.7782 9.19016 23.8303C9.21621 23.8563 9.24226 23.8824 9.26831 23.9084C9.45066 24.1429 9.45066 24.1429 9.24226 24.3253C9.03386 24.5337 8.98176 24.5337 8.7994 24.3253ZM9.08596 21.7984C9.11201 21.6942 9.13806 21.616 9.16411 21.59C9.19016 21.5639 9.29436 21.59 9.32041 21.616C9.34646 21.6421 9.34646 21.7463 9.32041 21.7723C9.26831 21.7984 9.19016 21.7723 9.08596 21.7984ZM9.76327 25.1328C9.63302 25.2631 9.52881 25.237 9.34646 25.0026C9.19016 24.8202 9.21621 24.7681 9.39856 24.6118C9.60697 24.4295 9.65907 24.4555 9.84142 24.6379C9.99772 24.8202 9.97167 24.9244 9.76327 25.1328ZM9.58091 22.0589C9.63302 22.0328 9.76327 22.111 9.89352 22.137C9.91957 22.2673 9.97167 22.3975 9.91957 22.4496C9.78932 22.5799 9.71117 22.4236 9.63302 22.3454C9.52881 22.2673 9.45066 22.137 9.58091 22.0589ZM10.3103 22.9967C10.2843 23.0227 10.1801 22.9967 10.154 22.9706C10.128 22.9185 10.128 22.8404 10.128 22.7362C10.2322 22.7622 10.3364 22.7622 10.3364 22.8143C10.3885 22.8664 10.3364 22.9446 10.3103 22.9967ZM12.2381 27.9723C12.1078 28.0765 11.9776 28.1286 11.8734 27.9723C11.717 27.7639 11.717 27.6597 11.8994 27.5034C12.0818 27.3732 12.1599 27.3732 12.3162 27.5816C12.4725 27.7379 12.4465 27.816 12.2381 27.9723ZM12.8372 26.9563C12.8112 26.9824 12.7851 26.9563 12.733 26.9563C12.733 26.9042 12.733 26.8782 12.7591 26.8261C12.7591 26.8 12.8112 26.8261 12.8893 26.8261C12.8633 26.8782 12.8633 26.9303 12.8372 26.9563ZM12.186 22.0328C12.212 22.0849 12.212 22.1891 12.186 22.2152C12.1599 22.2412 12.0557 22.2412 12.0036 22.2152C11.9776 22.1891 11.9776 22.0849 11.9776 22.0068C12.0557 22.0068 12.1599 22.0068 12.186 22.0328ZM11.7691 21.4337C11.7691 21.5639 11.7952 21.6942 11.7691 21.7463C11.6649 21.8765 11.5607 21.7723 11.5086 21.6681C11.4565 21.5639 11.2742 21.4597 11.4305 21.3295C11.4826 21.3034 11.6389 21.4076 11.7691 21.4337ZM10.8834 20.5219C11.0918 20.3395 11.1439 20.3656 11.3784 20.6C11.5347 20.7824 11.5347 20.8345 11.3784 20.9908C11.17 21.1732 11.0918 21.1732 10.9095 20.9908C10.7011 20.7303 10.7011 20.6782 10.8834 20.5219ZM8.7473 21.0429C8.9557 20.9387 9.00781 20.8605 9.00781 20.6C9.00781 20.3916 9.00781 20.2353 8.87755 20.079C8.72125 19.9227 8.77335 19.7925 8.92965 19.6883C9.11201 19.558 9.29436 19.4017 9.47671 19.2454C9.63302 19.1152 9.71117 19.1412 9.84142 19.2715C10.1019 19.558 10.1019 19.5841 9.78932 19.7664C9.63302 19.8706 9.60697 19.9748 9.71117 20.1311C9.78932 20.2093 9.84142 20.3135 9.94562 20.4177C10.0498 20.5219 10.2322 20.6521 10.3364 20.8084C10.4145 20.9126 10.5187 21.069 10.4927 21.1732C10.4406 21.3295 10.4145 21.4858 10.5448 21.59C10.7011 21.7202 10.8834 21.8505 11.0658 21.9026C11.3784 21.9807 11.3784 21.9547 11.2742 22.2673C11.2481 22.3454 11.3002 22.4496 11.3523 22.5017C11.4305 22.632 11.5607 22.7362 11.6389 22.8664C11.7691 23.0227 11.8473 23.2311 12.1339 23.179C12.186 23.153 12.2902 23.2311 12.3423 23.2832C12.6549 23.6479 12.9675 24.0126 13.254 24.3774C13.3061 24.4295 13.254 24.8984 13.2019 24.9244C13.1759 24.9505 13.0977 24.9765 13.0717 24.9505C12.9675 24.8984 12.8372 24.8463 12.7591 24.7421C12.2381 24.1429 11.7431 23.5437 11.2481 22.9185C10.9355 22.5538 10.675 22.137 10.3624 21.7723C10.1019 21.4597 9.81537 21.1732 9.52881 20.8866C9.39856 20.7563 9.29436 20.7824 9.19016 20.9387C9.11201 21.0429 9.03386 21.1732 8.9557 21.2774C8.87755 21.3816 8.7473 21.4337 8.6431 21.3034C8.591 21.1992 8.6431 21.095 8.7473 21.0429ZM8.27839 18.8807C8.33049 18.8807 8.3826 18.8547 8.46075 18.8286C8.66915 18.7765 8.77335 18.8547 8.7473 19.0631C8.7473 19.1412 8.7473 19.2194 8.72125 19.2975C8.6952 19.3757 8.6952 19.5059 8.6431 19.5059C8.56495 19.532 8.46075 19.4799 8.3826 19.4538C8.33049 19.4278 8.27839 19.3496 8.20024 19.2975C8.17419 19.2454 8.12209 19.1933 8.09604 19.1152C8.01789 18.9068 8.01789 18.8807 8.27839 18.8807ZM8.12209 22.632C8.25234 22.7622 8.09604 22.8404 8.01789 22.9185C7.93974 22.9967 7.80949 23.1269 7.73134 22.9446C7.70528 22.8664 7.78344 22.7362 7.83554 22.6059C7.93974 22.6059 8.06999 22.5799 8.12209 22.632ZM7.15823 19.5841C7.34058 19.2975 7.41873 19.2715 7.62713 19.558C7.65318 19.5841 7.67923 19.6362 7.70528 19.6883C7.75739 19.7664 7.83554 19.8185 7.86159 19.8967C7.88764 19.9748 7.86159 20.053 7.86159 20.1572C7.78344 20.1311 7.70528 20.1311 7.62713 20.1051C7.57503 20.079 7.54898 19.9748 7.47083 19.9488C7.39268 19.8967 7.31453 19.8706 7.21033 19.8446C7.15823 19.8185 7.08007 19.8185 7.02797 19.8185C7.10612 19.7143 7.13218 19.6362 7.15823 19.5841ZM6.35066 20.4698C6.37671 20.4958 6.40276 20.5479 6.45486 20.574C6.55907 20.7042 6.66327 20.8084 6.50697 20.9908C6.29856 21.1732 6.22041 21.1992 6.01201 21.0169C5.90781 20.9387 5.82965 20.8345 5.7515 20.7042C5.5952 20.4698 5.67335 20.2874 5.93386 20.2093C5.98596 20.1832 6.09016 20.2093 6.14226 20.2353C6.19436 20.2874 6.27251 20.3656 6.35066 20.4698ZM5.85571 18.3858C5.90781 18.4118 5.93386 18.4379 5.98596 18.4639C6.24646 18.5421 6.27251 18.6202 6.09016 18.8026C5.90781 19.011 5.67335 19.0631 5.51705 18.8547C5.3868 18.7505 5.4389 18.6202 5.5431 18.49C5.5952 18.3597 5.6994 18.2816 5.85571 18.3858Z" fill="#171026"/>
</g>
<defs>
<clipPath id="clip0_801_28110">
<rect width="31" height="31" fill="white" transform="translate(2 2)"/>
</clipPath>
</defs>
</svg>
