<svg width="70" height="70" viewBox="0 0 70 70" fill="none" xmlns="http://www.w3.org/2000/svg">
<g clip-path="url(#clip0_1_3750)">
<path d="M47.14 33.5412C47.0879 33.5412 47.0358 33.6454 46.9316 33.7496C47.0879 33.8017 47.14 33.8017 47.1921 33.8017C47.2442 33.8017 47.2963 33.6975 47.2963 33.6454C47.2963 33.5933 47.1921 33.5412 47.14 33.5412Z" fill="#FEFEFE"/>
<path d="M55.8393 44.5865C55.8914 44.4823 55.9435 44.4302 55.9956 44.3781C55.8914 44.326 55.8393 44.2739 55.7351 44.2739C55.683 44.2739 55.6309 44.3781 55.6309 44.4823C55.6309 44.4823 55.7351 44.5344 55.8393 44.5865Z" fill="#FEFEFE"/>
<path d="M40.4176 58.6538C40.4176 58.6017 40.4697 58.5496 40.4697 58.4975C40.6781 58.4454 40.8866 58.3412 40.7823 58.0807C40.7823 58.0286 40.7303 57.9765 40.6781 57.9244C40.6781 57.716 40.5739 57.5597 40.4697 57.4034C40.3655 57.2471 40.0529 57.2992 39.8966 57.2992C39.6882 57.3513 39.584 57.4034 39.5319 57.4034C39.0109 57.5597 39.0109 57.6639 39.1672 58.1849C39.2714 58.6017 39.6361 58.5496 39.8445 58.758C39.9487 58.8622 40.0529 58.9143 40.105 58.9143H40.1571C40.2613 58.9143 40.3134 58.8101 40.4176 58.6538Z" fill="#FEFEFE"/>
<path d="M55.2149 41.2C55.267 41.3042 55.4233 41.4084 55.4755 41.3563C55.5797 41.3042 55.6318 41.1479 55.736 41.0958C55.6318 41.0437 55.5276 40.9916 55.267 40.7832C55.2149 40.9395 55.1628 41.0958 55.2149 41.2Z" fill="#FEFEFE"/>
<path d="M53.9121 48.2857C53.9642 48.3899 54.0684 48.3899 54.2247 48.4941C54.2768 48.3378 54.3289 48.2336 54.2768 48.1815C54.2247 48.1294 54.0684 48.0773 54.0163 48.0252C54.0163 48.1294 53.9121 48.2336 53.9121 48.2857Z" fill="#FEFEFE"/>
<path d="M46.2533 42.6588C46.097 42.5025 45.8886 42.5546 45.8365 42.763C45.7844 43.1799 45.4718 43.232 45.1592 43.3362C44.9507 43.3883 44.7423 43.4404 44.586 43.5446C44.4818 43.5967 44.4297 43.753 44.2734 43.9614C44.6902 44.1177 45.0028 44.3782 45.3155 44.3261C45.9407 44.274 46.5659 44.0656 47.1911 43.8572C47.8163 43.6488 48.0247 43.7009 48.3373 44.274C48.3894 44.3782 48.5457 44.5345 48.6499 44.5345C48.9104 44.4824 48.8062 44.274 48.8062 44.1177C48.8062 44.0656 48.7541 44.0135 48.7541 43.9093C48.6499 43.3883 48.702 43.3883 49.223 43.2841C49.7961 43.1799 50.3171 42.9714 50.8381 42.8151C51.2549 42.7109 51.6197 42.5546 52.0365 42.4504C52.7659 42.242 53.5474 42.0857 54.2768 41.8773C54.3289 41.8773 54.4331 41.8252 54.4331 41.8252C54.4852 41.721 54.5894 41.6168 54.5894 41.5126C54.5894 41.4084 54.4852 41.3042 54.381 41.2521C54.2247 41.1479 54.0684 41.0437 53.9121 40.9916C53.8079 40.9395 53.6516 40.9395 53.5474 40.9395C52.6617 41.2 51.776 41.5126 50.8902 41.7731C50.6297 41.8773 50.4213 41.9294 50.3692 42.242C50.3171 42.4504 50.1087 42.5546 49.9524 42.3462C49.744 41.9815 49.4835 42.0857 49.1709 42.1899C48.3894 42.3983 47.6079 42.6067 46.8264 42.763C46.6701 42.8151 46.4617 42.9193 46.2533 42.6588Z" fill="#FEFEFE"/>
<path d="M53.2866 36.8756C53.2866 36.8235 53.1303 36.7193 53.0261 36.7193C52.9219 36.7193 52.8698 36.8756 52.7656 36.9798C52.9219 37.0319 53.0261 37.1361 53.1303 37.1361C53.1824 37.084 53.2866 36.9277 53.2866 36.8756Z" fill="#FEFEFE"/>
<path d="M56.2566 40.3143C56.2045 40.3143 56.1524 40.4185 55.9961 40.5227C56.1524 40.5748 56.2045 40.5748 56.2566 40.5748C56.3087 40.5227 56.3608 40.4706 56.3608 40.4185C56.3608 40.3664 56.3087 40.2622 56.2566 40.3143Z" fill="#FEFEFE"/>
<path d="M57.9246 43.3361C57.8725 43.4403 57.7683 43.4924 57.7162 43.5445C57.6641 43.6487 57.6641 43.805 57.6641 43.805C57.7162 43.805 57.7683 43.805 57.8204 43.8571C57.9246 43.5966 58.0288 43.284 58.133 43.0235C58.0288 43.0756 57.9767 43.2319 57.9246 43.3361Z" fill="#FEFEFE"/>
<path d="M58.5488 40.0538C58.2883 40.0538 58.0278 40.158 57.7673 40.2622C57.7152 40.3143 57.7673 40.5748 57.7673 40.7832C57.7673 40.8874 57.8194 40.9395 57.8194 41.0437C57.8715 41.2 57.9236 41.4084 57.9757 41.5647C58.0278 41.6168 58.132 41.721 58.1841 41.721C58.2362 41.721 58.3404 41.6168 58.3925 41.5647C58.4967 41.4084 58.5488 41.2 58.653 41.0437C58.653 40.9395 58.7051 40.8353 58.7051 40.7311C58.8093 40.4185 58.7051 40.0538 58.5488 40.0538Z" fill="#FEFEFE"/>
<path d="M54.5378 36.3025C54.4857 36.3025 54.4336 36.4067 54.2773 36.4588C54.5378 36.563 54.5899 36.563 54.6941 36.6151C54.6941 36.563 54.7983 36.4588 54.7462 36.4067C54.6941 36.3546 54.5899 36.3025 54.5378 36.3025Z" fill="#FEFEFE"/>
<path d="M52.0882 37.4487C52.1924 37.3966 52.2445 37.2924 52.2966 37.1882C52.1924 37.1361 52.1403 37.0319 52.0361 36.9798C51.8797 36.8756 51.7234 36.8235 51.5671 36.7714C51.4629 36.7193 51.3587 36.7714 51.3066 36.7193C51.3066 36.9798 51.3066 37.2403 51.3587 37.5008C51.3587 37.5529 51.6192 37.605 51.7234 37.605C51.8797 37.5529 52.0361 37.5008 52.0882 37.4487Z" fill="#FEFEFE"/>
<path d="M40.5736 48.963C40.6778 48.963 40.8341 48.9109 40.9383 48.9109C41.251 48.9109 41.6157 48.8067 41.9283 48.9109C42.293 49.0672 42.3451 48.9109 42.3451 48.6504C42.3972 48.1294 42.2409 48.0252 41.772 48.1294C41.6678 48.1815 41.5115 48.1815 41.4073 48.2336C41.4073 48.2336 41.4073 48.2336 41.4073 48.1815C41.0946 48.3378 40.782 48.4941 40.4694 48.6504C40.4173 48.7025 40.3652 48.8067 40.3652 48.8588C40.4173 48.8588 40.5215 48.963 40.5736 48.963Z" fill="#FEFEFE"/>
<path d="M50.1097 52.1412C50.1618 52.2454 50.3181 52.2975 50.3702 52.2975C50.4744 52.2975 50.5265 52.1412 50.5265 52.037C50.5265 51.9328 50.4744 51.8286 50.4744 51.8286C50.4223 51.6723 50.4223 51.6202 50.3702 51.5681C50.3181 51.4118 50.2139 51.2555 50.0055 51.3597C49.9013 51.4118 49.8492 51.6202 49.9013 51.7244C49.9534 51.8286 50.0055 51.9849 50.1097 52.1412Z" fill="#FEFEFE"/>
<path d="M50.9433 53.079C50.6828 52.2975 50.5786 52.2454 50.0576 52.4017C49.745 52.5059 49.8492 52.7143 49.7971 52.9227C49.745 53.1311 49.8492 53.3916 49.9534 53.6C50.1618 53.9647 50.5265 53.9126 50.787 53.7563L50.8391 53.7042C50.9433 53.5479 50.8912 53.2874 50.9433 53.079Z" fill="#FEFEFE"/>
<path d="M49.849 44.0135C49.7448 43.9093 49.6406 43.8572 49.5364 43.8051C49.4843 43.9093 49.3801 44.0656 49.4322 44.1698C49.4322 44.3261 49.5364 44.4303 49.6406 44.5345C49.6927 44.5866 49.7969 44.6387 49.849 44.6387C49.9011 44.6387 49.9532 44.5345 49.9532 44.4303C49.9532 44.3261 49.9011 44.2219 49.9011 44.1177C49.849 44.0656 49.849 44.0135 49.849 44.0135Z" fill="#FEFEFE"/>
<path d="M49.9004 45.0034C49.8483 45.0555 49.7962 45.1076 49.7441 45.2118C49.8483 45.2639 49.9004 45.3681 49.9525 45.3681C50.0046 45.3681 50.1088 45.2639 50.1088 45.2118C50.0567 45.1076 49.9525 45.0555 49.9004 45.0034Z" fill="#FEFEFE"/>
<path d="M40.6785 44.9513C40.6785 44.8992 40.5743 44.8471 40.5222 44.795C40.4701 44.8992 40.418 44.9513 40.418 45.0034C40.4701 45.0555 40.5222 45.1076 40.5743 45.1076C40.6264 45.0555 40.6785 45.0034 40.6785 44.9513Z" fill="#FEFEFE"/>
<path d="M46.2525 54.0168C46.4088 54.4857 46.5651 54.5378 46.9819 54.3294C47.2424 54.2252 47.2945 54.0689 47.2424 53.8605C47.1903 53.6 47.1382 53.3916 47.034 53.1311C46.9819 52.8706 46.8256 52.7143 46.513 52.7664C46.0962 52.8706 45.992 52.9748 46.0962 53.3916C46.0962 53.4958 46.1483 53.6521 46.1483 53.7042C46.2004 53.8605 46.2004 53.9647 46.2525 54.0168Z" fill="#FEFEFE"/>
<path d="M49.0138 46.5663C49.118 46.5142 49.2222 46.5142 49.2743 46.41C49.3264 46.3579 49.3264 46.2537 49.3785 46.2016C49.2222 46.2016 49.0659 46.0974 48.9617 46.1495C48.8054 46.2016 48.7012 46.3579 48.5449 46.4621C48.597 46.5142 48.6491 46.5663 48.7533 46.5663C48.8054 46.6184 48.9096 46.5663 49.0138 46.5663Z" fill="#FEFEFE"/>
<path d="M47.8164 52.5058C47.4517 52.5579 47.5038 52.8184 47.608 53.0269C47.7122 53.4437 47.8164 53.5479 48.2332 53.3916C48.65 53.2874 48.7021 53.1832 48.5979 52.8184C48.4416 52.4537 48.2332 52.4016 47.8164 52.5058Z" fill="#FEFEFE"/>
<path d="M42.9187 56.3613C42.9187 56.3092 42.8145 56.3092 42.7624 56.2571C42.7103 56.4134 42.6582 56.5176 42.6582 56.6739V56.726C42.8666 56.6739 43.0229 56.6218 42.9187 56.3613Z" fill="#FEFEFE"/>
<path d="M35.9893 37.5529C35.9893 37.605 36.1977 37.6571 36.2498 37.6571C36.354 37.5529 36.4061 37.4487 36.4061 37.3445C36.4061 37.2403 36.354 37.1361 36.354 37.0319C36.2498 37.084 36.0935 37.084 36.0414 37.1882C35.9372 37.2403 35.9372 37.3966 35.9893 37.5529Z" fill="#FEFEFE"/>
<path d="M37.6053 37.0319H37.7616C37.8137 36.8235 37.8658 36.563 37.8137 36.3546C37.8137 36.2504 37.5532 36.0941 37.449 36.1462C37.0843 36.2504 36.7195 36.4067 36.4069 36.6151C36.3548 36.6672 36.3548 36.8756 36.3027 36.9798C36.7716 36.8756 37.1885 36.6151 37.6053 37.0319Z" fill="#FEFEFE"/>
<path d="M37.0835 37.2924C37.0314 37.2403 36.9271 37.1882 36.875 37.1882C36.8229 37.2403 36.7188 37.3445 36.7188 37.3966C36.7188 37.4487 36.7708 37.5529 36.875 37.6571C36.9792 37.4487 37.0314 37.3445 37.0835 37.2924Z" fill="#FEFEFE"/>
<path d="M37.5002 41.3042C37.6565 41.6689 37.917 41.5647 38.2296 41.5126C38.2817 41.5126 38.3338 41.5126 38.3338 41.4605C38.438 41.3563 38.5422 41.2521 38.6985 41.1479C38.5943 41.0437 38.438 40.9916 38.3338 40.8874C38.2296 40.8353 38.0733 40.8353 38.0212 40.7832C37.8128 40.4185 37.5002 40.6269 37.2397 40.6269C37.1876 40.6269 37.0312 40.7832 37.0312 40.8874C37.0312 40.9916 37.1355 41.1479 37.2397 41.2C37.2397 41.2521 37.4481 41.2521 37.5002 41.3042Z" fill="#FEFEFE"/>
<path d="M35.9375 40.5227C35.9896 40.3664 36.0938 40.2622 36.0938 40.158C36.0938 40.1059 35.9375 40.0538 35.8854 40.0017C35.8333 40.1059 35.7291 40.158 35.7291 40.2622C35.677 40.3664 35.8333 40.4185 35.9375 40.5227Z" fill="#FEFEFE"/>
<path d="M35.2593 57.8723C35.3114 57.9765 35.4677 58.0807 35.5719 58.1849C35.624 58.0807 35.6761 57.9244 35.6761 57.8202C35.6761 57.5076 35.624 57.2992 35.8845 57.0387C36.0929 56.8824 35.7803 56.153 35.5719 56.0487C35.4156 55.9966 35.2593 55.8924 35.103 55.7882C34.9988 55.7361 34.8946 55.7361 34.8425 55.7361C34.7904 55.7882 34.7383 55.8924 34.7383 55.9966C34.7904 56.3093 34.8946 56.6219 34.9988 56.8824C35.0509 57.2471 35.103 57.5597 35.2593 57.8723Z" fill="#FEFEFE"/>
<path d="M35.103 49.6404C34.9467 49.6404 34.7383 49.7446 34.6341 49.9009C34.5299 50.0572 34.4778 50.1614 34.3736 50.3177C34.2694 50.474 34.2173 50.6303 34.1131 50.8387C34.2694 51.0471 34.4257 51.1513 34.5299 51.3076C34.6341 51.2034 34.6862 51.0471 34.7904 50.9429C34.8946 50.8387 35.0509 50.7345 35.2072 50.6303C35.3635 50.5782 35.5198 50.474 35.6761 50.4219C35.9366 50.6303 35.9887 51.0471 35.7803 51.3076C35.5719 51.5681 35.5719 51.6723 35.8324 51.8286C36.145 52.037 36.1971 52.4017 36.0929 52.7664C36.0408 52.8185 36.0408 52.9227 36.0408 53.0269C35.8324 53.079 35.5198 53.1832 35.4156 53.2874C35.3635 53.3395 35.3114 53.3395 35.2593 53.3916C35.0509 53.5479 35.0509 53.7042 35.3114 53.7563C35.4677 53.8084 35.5719 53.9126 35.6761 53.9647C35.8324 54.0168 35.9366 54.0689 35.9887 54.0689C36.0929 54.3815 36.1971 54.642 36.3013 54.9546C36.3013 55.0589 36.3534 55.1631 36.4055 55.2152C36.3013 55.2152 36.2492 55.2152 36.1971 55.2673C36.145 55.3194 36.145 55.5278 36.145 55.632C36.2492 55.8925 36.4576 56.1009 36.8224 56.1009C36.8745 56.1009 36.9787 56.1009 37.0308 56.1009C37.0308 56.1009 37.0308 56.153 37.0829 56.153C36.614 56.5698 36.9787 56.7261 37.2913 56.9345C37.3434 56.9866 37.3434 57.0387 37.3955 57.0908C37.6039 57.3513 37.9165 57.195 38.1249 57.1429C38.3854 57.0908 38.3333 56.8824 38.2812 56.674C38.2291 56.5177 38.2291 56.3614 38.177 56.2051C38.2812 56.1009 38.3854 55.9967 38.4375 55.8404C38.4896 55.7362 38.5938 55.5799 38.6459 55.4757C38.698 55.3194 38.7501 55.111 38.8543 54.9546C38.698 54.7983 38.6459 54.642 38.5417 54.5899C38.4375 54.5378 38.1249 54.5899 37.8644 54.6941C37.7602 54.2773 37.656 53.8084 37.5518 53.3916C37.4997 53.2353 37.3955 53.0269 37.2913 53.0269C36.8745 52.9227 36.8745 52.558 36.8745 52.2975C36.8745 52.1412 37.2392 51.9849 37.4476 51.9328C37.7602 51.8286 38.0728 51.8286 38.3854 51.7244C38.4896 51.6723 38.5938 51.5681 38.6459 51.4639C38.4896 51.4118 38.3854 51.3076 38.2291 51.3076C38.0728 51.3076 37.9686 51.3597 37.8123 51.4118C37.5518 51.4639 37.3434 51.516 37.0829 51.5681C36.8224 51.6202 36.6661 51.516 36.5619 51.2555C36.4576 50.8908 36.4055 50.474 36.3013 50.1093C36.1971 49.7967 36.145 49.4841 36.0408 49.1194C35.9887 48.9109 35.9887 48.7025 36.1971 48.4941C36.3534 48.3899 36.4577 48.1815 36.5098 48.0252C36.5619 48.0252 36.5619 48.0252 36.614 48.0252C36.9266 47.921 37.1871 47.8168 37.0308 47.4C37.0308 47.3479 36.9787 47.2958 36.9787 47.2437C37.0308 47.2437 37.0308 47.2437 37.0829 47.2437C37.2913 47.1916 37.5518 47.1395 37.7602 47.0874C38.0207 47.1395 38.3333 47.0353 38.6459 46.9832C38.8022 46.9832 39.0627 46.9311 39.1669 47.0353C39.4795 47.4 39.74 47.1395 40.0005 47.0874C40.0526 47.0874 40.1568 46.9311 40.1568 46.8269C40.1568 46.7748 40.0526 46.6706 39.9484 46.6185C39.4274 46.4101 39.4274 46.358 39.8442 45.9412C40.1047 45.6807 39.9484 45.0555 39.5837 45.0555C39.3232 45.0555 39.1148 45.0034 39.0106 44.795C39.0106 44.795 38.698 44.8471 38.698 44.8992C38.6459 45.4723 38.177 45.4723 37.7602 45.5765C37.3434 45.6807 36.9266 45.7328 36.5098 45.837C36.145 45.9412 35.8324 46.0975 35.7282 46.5664C35.6761 46.879 35.4677 46.879 35.2593 46.6185C35.103 46.4101 34.9467 46.358 34.7383 46.4101C34.582 46.4622 34.4778 46.5143 34.3215 46.5143C34.2173 46.5143 34.1131 46.5664 34.0089 46.5664C33.2274 46.7748 33.1232 47.0874 33.3837 47.8168C33.4879 48.1294 33.6442 48.2857 34.0089 48.2336C34.4257 48.1294 34.8425 48.0773 35.2593 47.9731H35.3114C35.3114 48.0252 35.3635 48.1294 35.3635 48.1815C35.4156 48.3899 35.4156 48.5983 35.4677 48.8067C35.5198 49.0152 35.5198 49.1715 35.3635 49.3278C35.2072 49.3799 35.1551 49.5362 35.103 49.6404Z" fill="#FEFEFE"/>
<path d="M35.9376 34.8958C35.9897 34.8437 36.0418 34.7395 36.0939 34.6353C35.9897 34.5832 35.8855 34.5311 35.8334 34.5311C35.7813 34.5311 35.7292 34.6874 35.625 34.7916C35.7813 34.8437 35.9376 34.9479 35.9376 34.8958Z" fill="#FEFEFE"/>
<path d="M39.2189 36.8236C39.6878 36.7194 39.9483 36.4068 39.8441 36.0942C39.7399 35.7295 39.5315 35.6253 39.0626 35.7295C38.8542 35.7816 38.3853 36.4589 38.4895 36.6673C38.6458 36.9278 38.9584 36.8236 39.2189 36.8236Z" fill="#FEFEFE"/>
<path d="M47.2958 38.5949C47.2958 38.647 47.4521 38.7512 47.5042 38.7512C47.8689 38.647 48.2858 38.5949 48.6505 38.4386C48.7026 38.4386 48.8068 38.2302 48.7547 38.126C48.7547 38.0739 48.5463 37.9697 48.4942 37.9697C48.2858 37.9697 48.1295 38.0218 47.921 38.0739C47.7647 38.126 47.5563 38.1781 47.4 38.2302C47.2958 38.3344 47.2437 38.4907 47.2958 38.5949Z" fill="#FEFEFE"/>
<path d="M43.8576 35.3126C44.1702 35.2084 44.066 34.9479 44.0139 34.7395C43.9618 34.5311 43.8055 34.3227 43.5971 34.4269C43.4408 34.479 43.4408 34.7395 43.3887 34.8437C43.4929 35.1563 43.545 35.4689 43.8576 35.3126Z" fill="#FEFEFE"/>
<path d="M45.4728 26.8723C45.3686 26.8202 45.2644 26.7681 45.1602 26.8202C45.1081 26.8202 45.056 26.9765 45.0039 27.0807C45.0039 27.1849 45.0039 27.3412 45.056 27.5496C45.1081 27.6017 45.2644 27.8622 45.3686 27.8101C45.577 27.758 45.7854 27.6017 45.9938 27.4454C45.8896 27.3412 45.7854 27.237 45.6812 27.1328C45.6291 27.0807 45.577 26.9244 45.4728 26.8723Z" fill="#FEFEFE"/>
<path d="M41.1993 40.9395C41.2514 41.1479 41.3035 41.4084 41.4077 41.6168C41.0951 41.721 40.7825 41.8252 40.4699 41.8773C40.4699 41.8773 40.4699 41.8773 40.4699 41.8252C40.4178 41.8252 40.3657 41.8252 40.3657 41.8773C40.1573 41.9294 40.001 42.0336 40.0531 42.2941C40.1052 42.5546 40.3136 42.5546 40.522 42.5025C40.6262 42.5025 40.7825 42.4504 40.8867 42.4504C40.9909 42.4504 41.1993 42.4504 41.1993 42.5025C41.3556 42.9193 41.8766 42.6588 42.085 43.0235C42.1892 42.9714 42.3455 42.9193 42.3976 42.8151C42.4497 42.7109 42.3976 42.5546 42.3976 42.4504C42.3976 42.3983 42.3976 42.3983 42.3976 42.3462C42.6581 42.2941 42.7623 42.0857 42.6581 41.8773C42.7623 41.8252 42.9186 41.7731 43.0749 41.8252C43.2312 41.8773 43.3875 42.0857 43.4917 42.242C43.7001 42.5025 44.3253 42.6067 44.4295 42.3462C44.5858 41.8773 44.9505 41.7731 45.2632 41.6689C45.3674 41.6168 45.4195 41.5126 45.4195 41.4084C45.4716 41.0958 45.7321 41.0437 45.9405 40.9395C46.1489 40.8874 46.3573 40.8353 46.5136 40.7311C46.6178 40.679 46.6178 40.5227 46.6699 40.4185C46.5657 40.3664 46.4615 40.2622 46.3573 40.2622C45.9926 40.3143 45.5758 40.3143 45.2111 40.4185C44.8984 40.5227 44.5337 40.5227 44.4816 40.9916C44.4816 41.0958 43.9085 41.3042 43.7522 41.2521C43.2833 41.0437 42.8665 41.1479 42.4497 41.2521C42.3976 41.2521 42.3455 41.3042 42.2934 41.3042C42.1892 40.9916 42.085 40.7311 41.6682 40.6269C41.6161 40.6269 41.564 40.4185 41.5119 40.3143C41.1993 40.3664 41.0951 40.5748 41.1993 40.9395Z" fill="#FEFEFE"/>
<path d="M44.4812 34.1664C44.2728 34.3227 44.2728 34.5311 44.377 34.7395C44.4812 34.8958 44.6375 35.1042 44.7417 35.1563C45.1585 35.2605 45.4191 35 45.5233 34.5832C45.5233 34.479 45.6275 34.4269 45.6796 34.3227C45.888 34.0621 45.8359 33.9579 45.5233 33.9579C45.3148 33.9579 45.1064 33.9579 44.9501 33.9579C44.7938 34.01 44.6375 34.0621 44.4812 34.1664Z" fill="#FEFEFE"/>
<path d="M50.3703 39.4286C50.1619 39.3244 50.0577 39.0639 49.7972 39.2202C49.5888 39.3765 49.3282 39.4286 49.1719 39.637C49.0156 39.8975 48.9114 39.8454 48.703 39.6891C48.4425 39.4807 48.182 39.5328 48.1299 39.8454C48.0778 40.1059 47.9215 40.158 47.7652 40.2622C47.5568 40.3664 47.1921 40.3664 47.3484 40.7311C47.5047 41.0958 47.7652 40.8874 48.0257 40.8353C48.0778 40.8353 48.182 40.8353 48.182 40.7832C48.703 40.4185 49.3283 40.4185 49.9014 40.2622C50.1619 40.2101 50.3703 40.1059 50.5787 40.4185C50.6308 40.4706 50.9434 40.3664 50.9955 40.3664C51.0476 39.8454 51.4644 39.8975 51.777 39.7412C52.0375 39.637 52.3501 39.5849 52.6106 39.4807C52.7148 39.4286 52.9232 39.3244 52.9232 39.2202C52.9753 38.8555 53.1316 38.8555 53.4442 38.9597C53.6526 39.0118 53.9652 39.0118 54.1736 38.9597C54.2778 38.9076 54.3299 38.6471 54.4341 38.5429C54.5904 38.3345 54.7467 38.3344 54.9551 38.4387C55.1635 38.5429 55.3719 38.595 55.5803 38.595C55.945 38.595 55.9972 38.3866 55.8929 38.0739C55.7887 37.8655 55.7366 37.5008 55.3719 37.6571C54.9551 37.7613 54.5383 37.9176 54.1736 38.0218C53.9652 38.0739 53.8089 38.1781 53.7568 38.4387C53.7047 38.7513 53.4963 38.8034 53.2879 38.595C53.0274 38.2823 52.8711 38.3865 52.7148 38.6992C52.6627 38.8034 52.4022 38.8555 52.298 38.8034C51.9854 38.595 51.777 38.6471 51.6207 39.0118C51.4644 39.3244 50.6308 39.5849 50.3703 39.4286Z" fill="#FEFEFE"/>
<path d="M45.7852 38.2824C45.4726 38.4387 45.6289 38.7513 45.6289 39.0118C45.6289 39.2202 45.7852 39.3244 46.0457 39.2723C46.3583 39.1681 46.2541 38.9076 46.202 38.6992C46.0978 38.4908 46.0978 38.1261 45.7852 38.2824Z" fill="#FEFEFE"/>
<path d="M40.3136 39.3765C40.2094 39.1159 39.8968 39.2201 39.8447 39.5328C39.7926 39.6891 39.6884 39.8454 39.6363 40.0017C39.4279 40.3143 39.5321 40.9395 39.7926 40.9916C40.1052 41.0437 40.5741 40.7832 40.7304 40.4706C40.8346 40.2101 41.4077 39.9496 41.564 40.1059L41.6161 40.158C41.6161 40.2101 41.6161 40.2622 41.6682 40.3143C41.7203 40.3143 41.7203 40.2622 41.7724 40.2622C42.0329 40.4185 42.2934 40.3143 42.5539 40.2622C42.6581 40.2101 42.8144 40.158 42.9707 40.1059C43.3354 40.0017 43.3875 39.7933 43.2833 39.4807C43.1791 39.168 43.0749 39.0117 42.7102 39.1159C42.4497 39.2202 42.1892 39.2723 41.8766 39.3244C41.8245 39.3244 41.8245 39.2723 41.7724 39.3244C41.7203 39.3244 41.7203 39.3765 41.6682 39.3765C41.5119 39.4286 41.3556 39.4807 41.1472 39.5328C40.7825 39.637 40.522 39.7933 40.3136 39.3765Z" fill="#FEFEFE"/>
<path d="M42.0861 24.684C42.0861 24.6319 41.9298 24.5277 41.8256 24.5277C41.7735 24.5277 41.6693 24.684 41.6172 24.7882C41.7735 24.8924 41.8256 24.9445 41.9298 24.9966C41.9819 24.8924 42.0861 24.7882 42.0861 24.684Z" fill="#FEFEFE"/>
<path d="M41.5126 35.7294C41.3042 35.5731 41.2 35.4168 41.0437 35.3126C40.9916 35.521 40.9395 35.7294 40.9395 35.9378C40.9395 36.042 41.1479 36.0941 41.2521 36.1983C41.3042 36.042 41.4084 35.9378 41.5126 35.7294Z" fill="#FEFEFE"/>
<path d="M36.3539 41.9815C36.5102 41.8773 36.5102 41.6689 36.6665 41.4605C36.4581 41.3042 36.3539 41.0958 36.1455 41.0437C35.9892 40.9916 35.885 41.4084 35.9892 41.7731C36.0934 41.9294 36.1976 42.0857 36.3539 41.9815Z" fill="#FEFEFE"/>
<path d="M28.696 35.1563C28.696 35.2605 28.8523 35.3647 29.0086 35.521C29.1128 35.2605 29.1649 35.1563 29.1649 35.0521C29.1128 34.9479 28.9565 34.8958 28.8523 34.7916C28.8002 34.9479 28.6439 35.0521 28.696 35.1563Z" fill="#FEFEFE"/>
<path d="M26.6629 42.1378C26.7671 42.0857 26.8713 41.9294 27.0276 41.6689C26.715 41.6168 26.5066 41.5647 26.3503 41.6168C26.194 41.6689 25.8814 41.6689 25.9335 41.9815C25.9856 42.0857 26.4545 42.242 26.6629 42.1378Z" fill="#FEFEFE"/>
<path d="M26.8205 44.795C26.9768 44.795 27.081 44.8471 27.2373 44.8992C27.3936 44.9513 27.5499 45.0555 27.7062 45.0034C28.3835 44.8471 29.113 44.6386 29.7903 44.4302C29.9466 44.3781 30.155 44.2739 30.155 44.2218C30.2071 43.7529 30.5718 43.7529 30.8844 43.5966C31.0928 43.4924 31.4575 43.3882 31.5096 43.1798C31.6138 42.9193 31.7701 42.8151 31.9785 42.763C32.239 42.7109 32.4995 42.6588 32.7079 42.5546C32.8121 42.5025 32.9684 42.3462 32.9684 42.242C33.0205 41.8773 32.6037 41.5647 32.239 41.5647C32.0306 41.5647 31.7701 41.6168 31.5617 41.6689C31.3533 41.721 31.2491 41.8252 31.2491 42.0857C31.2491 42.3462 31.0928 42.5025 30.8323 42.5546L30.8844 42.5025C30.7281 42.4504 30.6239 42.3462 30.4676 42.242C30.3634 42.2941 30.3113 42.3983 30.2071 42.4504C30.155 42.3983 30.155 42.2941 30.1029 42.1899C30.0508 42.0857 30.0508 41.9815 29.9987 41.8773C29.9466 41.8252 29.8945 41.8252 29.8424 41.8252C29.7903 41.8252 29.7382 41.9294 29.7382 41.9815C29.7382 42.0857 29.7903 42.1899 29.7903 42.2941C29.8945 42.8151 29.8945 42.8151 29.3214 42.9714C29.2172 42.9714 29.1651 43.0235 29.0609 43.0235C28.7483 43.0756 28.3835 43.3361 28.123 42.9193C27.9667 42.7109 27.2373 42.9193 27.1852 43.1277C27.1331 43.4924 26.8726 43.5966 26.6121 43.7529C26.2995 43.9613 26.4037 44.2739 26.4558 44.5345C26.4037 44.8471 26.6642 44.795 26.8205 44.795Z" fill="#FEFEFE"/>
<path d="M31.0392 36.0941C30.9871 35.9899 30.8308 35.9378 30.7266 35.8857C30.6745 35.9899 30.5703 36.1462 30.5703 36.2504C30.5703 36.3546 30.7266 36.4067 30.935 36.563C30.9871 36.3025 31.0913 36.1983 31.0392 36.0941Z" fill="#FEFEFE"/>
<path d="M29.1114 28.279C29.0593 28.3311 29.0072 28.3832 28.9551 28.4874C29.0593 28.5395 29.1635 28.5395 29.1635 28.5395C29.2156 28.4874 29.2156 28.4353 29.2156 28.3311C29.2677 28.3311 29.1635 28.279 29.1114 28.279Z" fill="#FEFEFE"/>
<path d="M24.5795 20.2033C24.5274 20.2033 24.4753 20.3596 24.3711 20.5159C24.5274 20.568 24.6837 20.6722 24.7358 20.6201C24.7879 20.568 24.84 20.4638 24.8921 20.3596C24.7879 20.2554 24.6837 20.2033 24.5795 20.2033Z" fill="#FEFEFE"/>
<path d="M30.4673 20.3596C30.3631 20.1512 30.0505 20.0991 29.8942 20.3075C29.79 20.5159 29.6858 20.6722 29.5816 20.8806C29.4774 21.089 29.5295 21.2453 29.79 21.2453C29.8942 21.2453 30.0505 21.1932 30.1547 21.1932C30.6757 21.089 30.6236 20.8285 30.4673 20.3596Z" fill="#FEFEFE"/>
<path d="M29.1124 37.7613C29.1645 37.9697 29.2166 38.2824 29.5292 38.1782C29.8418 38.0739 29.7376 37.8134 29.6855 37.605C29.6334 37.3966 29.5813 37.1882 29.3208 37.2403C29.0082 37.2924 29.1124 37.5529 29.1124 37.7613Z" fill="#FEFEFE"/>
<path d="M30.3107 28.3311C30.2064 28.4353 30.1543 28.4874 29.998 28.6958C30.2064 28.8 30.3107 28.9042 30.4149 28.9042C30.467 28.9042 30.6233 28.6958 30.5712 28.6437C30.5191 28.4874 30.3628 28.4353 30.3107 28.3311Z" fill="#FEFEFE"/>
<path d="M29.1129 50.2655C29.1129 50.3697 29.2692 50.5781 29.3213 50.5781C29.4776 50.5781 29.686 50.4218 29.686 50.3176C29.7381 49.9529 29.9465 49.9529 30.207 49.8487C30.3633 49.7966 30.5717 49.7445 30.728 49.6924C30.8323 49.6403 30.9886 49.484 30.9886 49.3798C30.9886 49.1714 30.7802 49.1714 30.6238 49.1714C29.9986 49.2756 29.9986 49.2756 29.8423 48.7025C29.686 47.9731 29.5297 47.8689 28.8003 48.0252C28.6961 48.0252 28.5398 48.0773 28.3314 48.1294C28.2272 48.1815 28.0709 48.2336 27.8625 48.2857C27.5499 48.3899 27.5499 48.5983 27.602 48.9109C27.7062 49.1714 27.8104 49.3798 28.123 49.2756C28.3835 49.2235 28.6961 49.1714 29.0087 49.1193C29.1129 49.1193 29.2692 49.1714 29.3734 49.2756C29.4255 49.2756 29.3213 49.5361 29.2692 49.5882C28.9566 49.7445 29.0608 50.005 29.1129 50.2655Z" fill="#FEFEFE"/>
<path d="M30.258 52.2454C30.5185 52.6622 30.8311 52.4017 31.0916 52.2975C31.4042 52.1933 31.2479 51.9328 31.1958 51.7244C31.0916 51.2034 30.9874 51.1513 30.258 51.4118C30.2059 51.4118 30.1017 51.4639 29.9454 51.5681C29.8412 51.6723 29.737 51.7765 29.6328 51.8807C29.737 51.9328 29.8412 52.037 29.9454 52.0891C30.1017 52.1412 30.2059 52.1933 30.258 52.2454Z" fill="#FEFEFE"/>
<path d="M25.3613 22.6C26.6117 22.5479 27.6537 21.8706 28.8 21.558C28.8521 21.558 28.9042 21.3496 28.9563 21.2975C28.8521 21.2454 28.7479 21.1412 28.6436 21.1412C28.4352 21.1412 28.0705 21.2454 28.0184 21.1412C27.7579 20.7765 27.4974 20.9328 27.1848 20.9849C26.8722 21.0891 26.5596 21.1412 26.247 21.2454C25.8823 21.3496 25.5176 21.4538 25.1529 21.558C24.8403 21.6101 24.6319 21.7143 24.7361 22.1311C24.8403 22.5479 24.9445 22.6521 25.3613 22.6Z" fill="#FEFEFE"/>
<path d="M34.6358 31.0403C34.8963 30.884 35.1568 30.7798 35.3652 30.6235C35.4173 30.5714 35.4173 30.4672 35.4173 30.363C35.0005 30.4151 34.8963 29.9462 34.5837 29.8941C34.219 29.842 34.1669 29.6336 34.1148 29.4252C34.0627 29.2168 34.0106 29.0084 33.9064 28.8C33.8543 28.6958 33.698 28.6437 33.5938 28.5395C33.5417 28.6958 33.4375 28.8 33.4375 28.9563C33.4375 29.1647 33.5938 29.321 33.5938 29.4773C33.6459 29.842 33.7501 30.3109 33.6459 30.6235C33.4896 31.0403 33.5417 31.0924 33.9064 31.0403C34.1669 31.0924 34.3753 31.0924 34.6358 31.0403Z" fill="#FEFEFE"/>
<path d="M32.4465 52.9748C32.4987 52.9227 32.5508 52.8185 32.5508 52.7664C32.6029 52.5059 32.5508 52.2454 32.6029 52.037C32.655 51.7765 32.7592 51.516 32.8634 51.2034C32.655 51.047 32.5508 50.8907 32.3945 50.8907C32.1339 50.8907 32.1339 51.0992 32.1339 51.3076C32.1339 51.4118 32.186 51.5681 32.186 51.6723C32.186 51.8286 32.186 51.9849 32.0818 52.0891C31.665 52.4017 32.0297 52.6622 32.1339 52.9227C32.2381 52.9227 32.3423 52.9227 32.4465 52.9748Z" fill="#FEFEFE"/>
<path d="M33.5409 35.4168C33.4367 35.052 33.0198 35.2605 32.7593 35.2605C32.7593 35.2605 32.7072 35.2605 32.6551 35.2605C32.5509 35.3126 32.3946 35.3647 32.2904 35.4689C32.1862 35.5731 32.1862 35.6773 32.082 35.8336C32.1862 35.8857 32.2904 35.9899 32.4467 35.9899C32.4467 36.042 32.4467 36.0941 32.4467 36.1983C32.4988 36.3025 32.5509 36.4067 32.603 36.5109C32.7072 36.6151 32.8114 36.7193 32.9156 36.8235C32.9677 36.7193 33.0719 36.6151 33.124 36.5109C33.2283 36.3546 33.4367 36.0941 33.4367 35.9899C33.4367 35.8857 33.3325 35.8336 33.2282 35.7815C33.4888 35.7294 33.6451 35.6252 33.5409 35.4168Z" fill="#FEFEFE"/>
<path d="M32.0812 49.3278C32.6023 49.2757 32.7065 49.1194 32.5502 48.5983C32.4981 48.442 32.446 48.2857 32.3939 48.1294C32.3418 47.9731 32.2896 47.8168 32.2375 47.6605C32.0812 47.1395 32.0291 47.1395 31.5081 47.2437C31.1955 47.3479 30.8829 47.4 30.5703 47.5042C29.9451 47.6605 29.893 47.7647 30.1535 48.3378C30.2056 48.4941 30.3619 48.5983 30.4661 48.7025C30.5703 48.5983 30.6745 48.4941 30.7266 48.3378C30.8829 48.0252 31.0392 48.0252 31.1955 48.2857C31.3518 48.4941 31.456 48.7546 31.5081 49.0152C31.6644 49.2236 31.7686 49.3799 32.0812 49.3278Z" fill="#FEFEFE"/>
<path d="M32.6031 34.7394C32.6552 34.6352 32.7594 34.531 32.7594 34.4268C32.7073 34.1142 32.6552 33.8016 32.6031 33.489C32.6031 33.4369 32.4989 33.3327 32.4468 33.2806C31.8737 33.1764 32.2384 33.9058 31.7695 33.9579C31.8216 34.0621 31.8216 34.2184 31.8737 34.3226C32.03 34.4789 32.1863 34.531 32.3426 34.6352C32.3947 34.6873 32.4989 34.7394 32.6031 34.7394Z" fill="#FEFEFE"/>
<path d="M32.498 27.3933C32.498 27.4975 32.6544 27.6017 32.8107 27.758C32.8628 27.4975 32.967 27.3933 32.967 27.2891C32.967 27.1849 32.8107 27.1328 32.7065 27.0807C32.6544 27.237 32.498 27.3412 32.498 27.3933Z" fill="#FEFEFE"/>
<path d="M32.2905 30.2588C32.2905 30.2588 32.2384 30.2067 32.2905 30.2588C31.9779 30.0504 31.7174 29.9462 31.4048 29.7899C31.3527 29.8941 31.3006 29.9983 31.3006 30.0504C31.3006 30.3109 31.4048 30.5193 31.4048 30.7798C31.4048 30.9882 31.4569 31.2487 31.3527 31.3529C31.0922 31.6134 31.1964 31.874 31.1964 32.1345C31.1964 32.2387 31.2485 32.2908 31.2485 32.3429C31.3006 32.6555 31.509 32.8639 31.8737 32.8639C32.2384 32.8639 32.3947 32.7597 32.3426 32.395C32.3426 32.3429 32.3947 32.2387 32.4468 32.1866C32.6552 31.9261 32.7073 31.7176 32.6031 31.5092C32.9157 31.405 32.9157 31.2487 32.8636 30.884C32.8115 30.6756 32.7073 30.4672 32.6552 30.2067C32.6031 30.1546 32.551 30.1025 32.4989 30.0504C32.3947 30.1025 32.2905 30.1546 32.2905 30.2588ZM32.1342 31.0403C31.9779 30.9361 31.9258 30.7798 32.1863 30.6235L32.2384 30.5714C32.1863 30.7277 32.1342 30.884 32.1342 31.0403Z" fill="#FEFEFE"/>
<path d="M31.196 28.8C31.1439 28.8 31.1439 28.9042 31.0918 29.0084C31.196 29.0084 31.2481 29.0605 31.3523 29.0605C31.4044 29.0605 31.4565 28.9563 31.5086 28.8C31.3523 28.8521 31.2481 28.8 31.196 28.8Z" fill="#FEFEFE"/>
<path d="M32.9668 19.8907C33.0189 20.1513 33.1231 20.3597 33.4357 20.2555C33.9046 20.1513 34.3214 19.995 34.7382 19.8386C35.1029 19.7344 35.1029 19.526 35.0508 19.2134C34.9466 18.9008 34.7903 18.7966 34.4777 18.9008C34.2693 18.9529 34.0088 19.005 33.8004 19.0571C33.592 19.1092 33.3315 19.1613 33.1231 19.2655C32.7584 19.3697 32.9147 19.6823 32.9668 19.8907Z" fill="#FEFEFE"/>
<path d="M40.2624 52.4538C40.3145 52.6622 40.3145 52.9748 40.6792 52.8706C40.7834 52.8185 40.7834 52.558 40.8355 52.3496C40.6792 52.2454 40.5229 52.037 40.3666 52.037C40.1061 52.037 40.2103 52.2454 40.2624 52.4538Z" fill="#FEFEFE"/>
<path d="M39.7402 54.5378C39.7402 54.7983 39.8444 55.163 40.0007 55.2151C40.4696 55.3714 40.9907 55.684 41.5638 55.4756C41.8243 55.3714 42.0848 55.2672 42.2932 55.5798C42.3974 55.7361 42.6579 55.684 42.71 55.5277C42.7621 55.0067 43.1789 54.7462 43.3873 54.4336C43.5436 54.1731 43.4394 53.4958 43.1789 53.3395C42.9184 53.2353 42.2932 53.5479 42.2411 53.8605C42.189 54.1731 41.9806 54.2252 41.8243 54.0168C41.6159 53.8084 41.4075 53.8084 41.1991 53.8605C40.9907 53.9126 40.8344 53.9647 40.626 54.0168C40.4175 54.0689 40.2612 54.121 40.1049 54.1731C39.9486 54.2773 39.7402 54.4336 39.7402 54.5378Z" fill="#FEFEFE"/>
<path d="M52.4526 50.6824C52.3484 51.0471 52.0879 51.2034 51.8274 51.4118C51.7753 51.4639 51.7232 51.5681 51.7232 51.6202C51.6711 52.1412 51.7232 52.4538 51.9837 52.6101C52.4005 52.1933 52.7652 51.8286 53.182 51.4118C53.1299 51.1513 53.0257 50.9429 52.9215 50.6824C52.8173 50.474 52.4526 50.474 52.4526 50.6824Z" fill="#FEFEFE"/>
<path d="M39.4799 55.9445C39.5841 55.7361 39.6362 55.6319 39.6362 55.4756C39.6362 55.4235 39.4278 55.3193 39.3757 55.3193C39.2715 55.3714 39.1673 55.4756 39.1152 55.5798C39.1152 55.684 39.2715 55.7882 39.4799 55.9445Z" fill="#FEFEFE"/>
<path d="M43.3874 43.8572C43.0748 43.9093 42.8143 44.0135 42.5538 44.1177C42.2933 44.1698 42.0328 44.2219 41.7723 44.3782C41.616 44.4303 41.3555 44.5866 41.3555 44.6908C41.4076 44.9513 41.4597 45.316 41.6681 45.4723C41.8765 45.6286 42.137 45.7849 42.3454 45.9412C42.3454 45.9933 42.3454 46.0975 42.3975 46.2538C42.4496 46.6185 42.658 46.7227 42.9185 46.6185C43.179 46.5664 43.4395 46.5143 43.3874 46.2017C43.4916 46.1496 43.6479 46.0975 43.7521 46.0454C43.8563 45.9933 43.8042 45.6286 43.8042 45.4202C43.7521 45.0555 43.5437 44.7429 43.8042 44.3261C43.9084 44.0135 43.7 43.8051 43.3874 43.8572Z" fill="#FEFEFE"/>
<path d="M39.4806 48.8588C39.3764 48.9109 39.3243 49.0151 39.168 49.2235C39.3764 49.2756 39.5327 49.3798 39.6369 49.3798C39.7411 49.3277 39.7932 49.1714 39.7411 49.0151C39.7411 48.9109 39.5327 48.8067 39.4806 48.8588Z" fill="#FEFEFE"/>
<path d="M43.7536 47.921C43.4931 47.9731 43.1804 48.0252 42.9199 48.1294C42.8678 48.1294 42.8678 48.442 42.9199 48.4941C43.0762 48.5983 43.2325 48.5462 43.4931 48.5983C43.6494 48.4941 43.8057 48.3378 43.9099 48.1815C43.962 48.1815 43.8057 47.921 43.7536 47.921Z" fill="#FEFEFE"/>
<path d="M45.0033 50.9949C45.0033 51.2033 44.9512 51.3075 44.9512 51.4117C45.0033 51.4638 45.1075 51.516 45.2117 51.5681C45.2117 51.4639 45.2638 51.3596 45.2638 51.2554C45.2638 51.0991 45.1596 51.0991 45.0033 50.9949Z" fill="#FEFEFE"/>
<path d="M44.8477 57.2991C44.8477 57.3512 44.8477 57.3512 44.8477 57.4033C44.9519 57.3512 45.0561 57.2991 45.1603 57.247C45.1082 57.1949 45.004 57.247 44.8477 57.2991Z" fill="#FEFEFE"/>
<path d="M44.065 53.079C43.9608 53.079 43.8566 53.2353 43.8045 53.2874C43.8045 53.3916 43.8566 53.5479 43.8566 53.6521C43.9608 54.0168 44.2213 54.4336 43.7003 54.7462C43.4919 54.8504 43.7003 55.2672 43.9608 55.2151C44.1692 55.2151 44.4297 55.163 44.6381 55.0067C44.7423 54.9546 44.6902 54.7462 44.7423 54.5899C44.7944 54.4857 44.8465 54.4336 44.8465 54.3294C44.8986 54.1731 44.9507 53.9647 45.0028 53.8084C44.9507 53.6 44.2213 53.0269 44.065 53.079Z" fill="#FEFEFE"/>
<path d="M54.1209 49.9529C53.9646 49.9529 53.7041 50.0571 53.652 50.2134C53.5478 50.4219 53.5999 50.6824 53.652 50.8908C53.8604 50.6303 54.1209 50.3698 54.3293 50.0571C54.2772 50.005 54.2251 49.9529 54.1209 49.9529Z" fill="#FEFEFE"/>
<path d="M33.9063 38.2823C33.8542 38.0739 33.8021 37.8134 33.6979 37.605C33.5937 37.3966 33.4374 37.3966 33.2811 37.5529C33.1769 37.6571 33.0727 37.8655 33.0206 37.8655C32.708 37.7613 32.3954 37.6571 32.1349 37.4487C31.8223 37.1882 31.1971 37.1882 31.0929 37.5529C30.9887 38.0218 30.6761 38.0218 30.3635 38.126C30.2072 38.1781 30.103 38.2302 29.9988 38.3344C29.8946 38.4386 29.8425 38.5428 29.7383 38.647C29.8425 38.6991 29.9467 38.7512 30.0509 38.7512C30.3114 38.8033 30.624 38.6991 30.8845 38.9075C30.9366 38.9596 31.1971 38.8033 31.2492 38.6991C31.4055 38.3344 31.7181 38.2823 31.9786 38.3344C32.187 38.3865 32.3954 38.4386 32.5517 38.5428C32.6038 38.6991 32.7601 38.8554 32.9164 38.9596C33.0206 39.0117 33.0727 39.1159 33.1769 39.168C33.3332 39.2201 33.4895 39.2722 33.5937 39.2722C33.6458 39.2722 33.6979 39.0638 33.75 38.9075C33.75 38.8554 33.75 38.8033 33.75 38.6991C33.9584 38.7512 34.0105 38.5949 33.9063 38.2823Z" fill="#FEFEFE"/>
<path d="M36.7715 49.8488C36.7715 49.9009 37.032 50.0572 37.0841 50.0572C37.2925 49.953 37.5009 49.7446 37.7093 49.5883C37.5009 49.5361 37.3446 49.484 37.0841 49.4319C36.9278 49.5882 36.7715 49.6925 36.7715 49.8488Z" fill="#FEFEFE"/>
<path d="M25.1523 40.3143C25.3607 40.4185 25.517 40.5748 25.6734 40.6269C25.8818 40.679 26.0902 40.5748 26.2986 40.5227C26.7154 40.4185 27.1843 40.1059 27.549 40.5748C27.549 40.5748 27.7574 40.4706 27.8095 40.3664C27.8616 40.3143 27.7574 40.158 27.8095 40.0538C27.8095 39.8975 27.8616 39.7412 27.8616 39.5849C28.0179 39.637 28.1742 39.6891 28.2784 39.7412C28.5389 39.8454 29.0078 39.6891 29.1641 39.4286C29.3204 39.116 29.1641 38.8555 28.8515 38.6992C28.7473 38.6471 28.6431 38.6471 28.591 38.5429C28.2263 38.1781 28.1742 38.2302 27.7574 38.4908C27.4448 38.6992 27.549 38.9076 27.549 39.1681C27.549 39.5328 27.4448 39.637 27.1322 39.4807C26.8196 39.3244 26.5591 39.2202 26.2465 39.116C26.1944 39.116 26.0902 39.116 26.0902 39.1681C25.8297 39.3765 25.5692 39.5849 25.3607 39.8454C25.2565 39.8975 25.2565 40.0538 25.1523 40.3143Z" fill="#FEFEFE"/>
<path d="M25.6224 37.5009C25.6224 37.6572 25.5703 37.7614 25.5703 37.8135C25.5703 37.8656 25.6745 37.8656 25.7266 37.9177C25.7787 37.8135 25.8308 37.7614 25.8308 37.6572C25.8308 37.6051 25.7266 37.553 25.6224 37.5009Z" fill="#FEFEFE"/>
<path d="M27.3399 37.4487C27.4441 37.4487 27.4441 37.2924 27.5484 37.1882C27.4441 37.1361 27.3399 37.0319 27.2878 37.0319C27.1836 37.0319 27.1315 37.1882 27.0273 37.2924C27.1315 37.3445 27.2357 37.4487 27.3399 37.4487Z" fill="#FEFEFE"/>
<path d="M38.4897 57.9244C38.4897 57.8723 38.3334 57.7681 38.2813 57.7681C37.9687 57.8202 38.125 58.0807 38.125 58.237C38.3334 58.237 38.5418 58.237 38.4897 57.9244Z" fill="#FEFEFE"/>
<path d="M38.1266 58.2891C37.9182 58.3412 37.7098 58.3933 37.5014 58.4454C37.3972 58.4975 37.293 58.6017 37.293 58.7059C37.293 58.9143 37.293 59.1748 37.3972 59.3832C37.7098 59.3311 38.0745 59.3311 38.3871 59.279C38.2829 58.9143 38.1787 58.6017 38.1266 58.2891Z" fill="#FEFEFE"/>
<path d="M27.392 35.6773C27.4441 35.6252 27.5483 35.4689 27.4962 35.4168C27.4441 35.3647 27.2878 35.2605 27.2357 35.2605C27.1836 35.2605 27.1315 35.4168 27.0273 35.5731C27.1836 35.6773 27.2878 35.7294 27.392 35.6773Z" fill="#FEFEFE"/>
<path d="M37.3978 62.3008C37.3978 62.2487 37.4499 62.2487 37.4499 62.1966C37.3978 62.1966 37.3457 62.1966 37.3457 62.1966C37.3457 62.2487 37.3457 62.3008 37.3978 62.3008Z" fill="#FEFEFE"/>
<path d="M42.5547 8.74114C42.8673 8.84534 43.1799 8.94954 43.4925 9.05375C43.5446 8.89744 43.5967 8.79324 43.6488 8.68904C43.4925 8.63694 43.2841 8.58484 43.1278 8.58484C42.9194 8.63694 42.7631 8.68904 42.5547 8.74114Z" fill="#FEFEFE"/>
<path d="M48.1814 59.1748C48.1814 59.0185 48.2335 58.9143 48.3377 58.8622C47.9209 59.1227 47.452 59.3311 47.0352 59.5395C47.1394 59.5916 47.1915 59.6437 47.2957 59.6958C47.5041 59.9042 48.1293 59.4874 48.1814 59.1748Z" fill="#FEFEFE"/>
<path d="M45.8373 60.1647C45.9936 60.1126 46.202 60.0605 46.3062 59.9042C46.3062 59.9042 46.3062 59.9042 46.3062 59.8521C46.0978 59.9563 45.8373 60.0605 45.6289 60.1647C45.681 60.2168 45.7852 60.2168 45.8373 60.1647Z" fill="#FEFEFE"/>
<path d="M59.0703 47.9731C59.2266 48.0252 59.3308 48.1294 59.3308 48.2336C59.3308 47.9731 59.3308 47.7126 59.3308 47.4521C59.2266 47.6084 59.1745 47.8168 59.0703 47.9731Z" fill="#FEFEFE"/>
<path d="M13.1704 13.2218C13.2746 13.5344 13.0141 13.5865 12.8057 13.6386C12.7015 13.6907 12.5452 13.6907 12.441 13.7428C9.36702 17.0252 7.02248 20.9328 5.56366 25.3092C5.61576 25.3092 5.66786 25.3613 5.71996 25.3613C5.66786 25.4134 5.61576 25.4655 5.61576 25.4655C6.34517 25.8302 5.92836 26.5075 6.03257 27.0807C6.03257 27.1328 5.77206 27.3412 5.66786 27.3412C5.45946 27.3412 5.25105 27.1328 5.14685 26.8723C4.46954 29.2689 4.10484 31.7697 4.05273 34.3748C4.10484 34.4269 4.10484 34.479 4.15694 34.5311C4.20904 34.7395 4.20904 34.9479 4.26114 35.1563C4.20904 35.1563 4.10484 35.1042 4.05273 35.1042C4.05273 36.6672 4.15694 38.1781 4.41744 39.637C4.41744 39.637 4.41744 39.637 4.46954 39.637C4.67794 39.7412 4.67794 39.9496 4.52164 40.1059C4.88635 42.4504 5.56366 44.6907 6.44937 46.8269C6.55357 46.879 6.60568 46.9832 6.70988 47.0874C6.91828 47.3479 7.38719 46.7227 7.38719 47.2958C7.38719 47.5563 7.28299 47.8168 7.43929 48.0773C7.49139 48.1294 7.43929 48.2857 7.38719 48.3378C7.33509 48.3899 7.28299 48.442 7.23089 48.4941C7.43929 48.9109 7.64769 49.2756 7.80399 49.6403C8.1687 49.2756 8.4292 49.1714 8.68971 49.5361C8.89811 49.7966 8.84601 49.9529 8.48131 50.0571C8.3771 50.1092 8.2729 50.1092 8.1687 50.1092C8.1166 50.1092 8.0645 50.1092 8.0124 50.1092C8.3771 50.7865 8.79391 51.4118 9.21072 52.037C9.47122 52.1412 9.57542 52.3496 9.62752 52.558C9.73173 52.4538 9.78383 52.3496 9.88803 52.2975C9.94013 52.2454 10.0443 52.2454 10.2527 52.1412C10.3048 52.1412 10.5132 52.1933 10.6695 52.2975C10.7216 52.3496 10.7737 52.6101 10.7216 52.6622C10.6174 52.7664 10.409 52.8185 10.2527 52.8706C10.1485 52.9227 10.0443 52.8706 9.94013 52.8706C9.83593 52.8185 9.73173 52.7664 9.62752 52.6622C9.62752 52.6622 9.62752 52.6622 9.62752 52.7143C12.2326 56.4655 15.6712 59.6437 19.683 61.9361C19.7872 61.9361 19.8914 61.9882 19.9956 62.0403V62.0924C21.246 62.8218 22.5485 63.447 23.9553 63.9681C24.0074 63.8118 24.1116 63.7076 24.2158 63.6033C24.2679 63.5512 24.3721 63.4991 24.4242 63.4991C24.9452 63.6033 25.4141 63.7597 26.0393 63.916C26.0393 64.2286 26.0393 64.437 26.0393 64.6454C26.0393 64.6454 26.0393 64.6454 26.0393 64.6975C28.0712 65.3227 30.1553 65.7395 32.3435 65.9479C32.4477 65.7916 32.5519 65.6874 32.7082 65.6353C32.8645 65.5832 33.125 65.7916 33.2813 65.8958C33.2813 65.9479 33.3334 66 33.3334 66.0521C33.9586 66.1042 34.5838 66.1042 35.209 66.1042C40.9922 66.1042 46.4107 64.4891 51.0998 61.7277C50.9435 61.5714 50.8914 61.363 50.9435 61.1546C50.9435 61.0504 51.0998 60.9462 51.1519 60.9462C51.7771 60.7378 52.4544 60.5815 53.1317 60.4252H53.1838C53.6527 60.1126 54.0695 59.8 54.4863 59.4353C54.2779 59.4874 54.1216 59.5395 53.9132 59.5916C53.4443 59.6958 53.0275 59.8 52.5586 59.9563C52.1939 60.0605 51.8813 60.2168 51.6208 59.8C51.4124 59.5395 50.7351 59.8 50.6309 60.1647C50.5788 60.4773 50.4225 60.5815 50.162 60.6336C49.7452 60.7378 49.3805 60.842 48.9637 60.9462C48.599 61.0504 48.2863 61.2067 47.9737 60.7899C47.9216 60.6857 47.609 60.6857 47.4527 60.7378C46.6191 60.9462 45.7855 61.1025 44.9519 61.363C44.7956 61.4151 44.6393 61.5714 44.5351 61.7277C44.2225 62.3008 43.3368 62.5092 42.7637 62.1445C42.5032 61.9882 42.2948 62.0403 42.2426 62.3008C42.1905 62.6655 41.93 62.6655 41.6695 62.7697C41.3569 62.8739 41.2006 62.7697 40.9922 62.5613C40.7317 62.3008 39.9502 62.5092 39.846 62.8739C39.7418 63.3949 39.2729 63.3428 38.9603 63.447C38.6477 63.5512 38.283 63.7597 38.0225 63.2907C37.9704 63.2386 37.8141 63.2386 37.7099 63.1865C37.6578 63.3428 37.5536 63.447 37.3973 63.6033C37.0326 63.9681 36.8242 64.1244 36.6158 64.0723C36.5116 64.1765 36.3032 64.1765 35.9905 64.2807C35.4695 64.6975 35.1048 63.8639 34.5838 63.8639C34.5838 63.7076 34.5838 63.4991 34.6359 63.447C34.9485 63.1865 35.3132 63.0823 35.6779 63.0823C35.6258 62.926 35.5737 62.8218 35.6258 62.7697C35.6779 62.7176 35.6779 62.7176 35.73 62.6655C35.5737 62.6655 35.3653 62.6655 35.209 62.6655C33.4897 62.6655 31.8225 62.5092 30.2074 62.1966C30.2595 62.3529 30.2595 62.5092 30.2595 62.6655C30.2595 62.7697 30.2074 62.9781 30.1553 63.0302C30.0511 63.0823 29.8426 63.0823 29.7905 62.9781C29.4779 62.6134 29.1653 62.2487 28.9048 61.884C27.4981 61.5714 26.1435 61.1025 24.841 60.5815C24.841 60.7378 24.841 60.842 24.841 60.9462C24.841 61.0504 24.7368 61.1546 24.7368 61.2588C24.6326 61.2067 24.5284 61.1546 24.4763 61.0504C24.3721 60.9462 24.32 60.842 24.32 60.7378C24.2679 60.5815 24.2679 60.4252 24.32 60.321C22.3922 59.4874 20.5687 58.3933 18.9015 57.1428C18.7452 57.2991 18.5889 57.4034 18.3805 57.5597C18.2763 57.6118 18.0158 57.6118 17.9116 57.5597C17.8074 57.5076 17.7553 57.1949 17.8074 57.1428C18.0158 56.8302 17.7553 56.6218 17.7032 56.3613C17.599 56.0487 17.3384 56.1008 17.0258 56.1008C16.7132 56.0487 16.4006 55.7882 16.1922 55.5277C16.1401 55.4756 16.2443 55.2672 16.3485 55.0588C15.7233 54.4857 15.1502 53.8605 14.5771 53.1832C14.4208 53.1832 14.3166 53.1832 14.3166 53.1311C14.2645 53.0269 14.2645 52.9227 14.2645 52.7664C13.7435 52.1412 13.2746 51.516 12.8057 50.8386C12.4931 50.8386 12.1805 50.7865 11.9721 50.4739C11.92 50.3176 11.8679 50.1613 11.8158 49.9529C11.7637 49.9529 11.6595 49.9529 11.6074 49.9008C11.6595 49.8487 11.7116 49.7966 11.7637 49.7445C11.7116 49.3798 11.5553 49.1714 11.1905 49.0672C10.6174 48.963 10.3569 48.5462 10.2527 47.9731C10.2006 47.9731 10.0964 47.9731 10.0443 47.9731C9.94013 47.9731 9.78383 47.7126 9.73173 47.6605C9.73173 47.4 9.67962 47.2958 9.67962 47.1395C9.67962 47.0874 9.83593 46.9311 9.88803 46.9832C9.83593 46.8269 9.83593 46.7227 9.99223 46.5664C10.0964 46.5143 10.1485 46.4101 10.2527 46.3059C9.88803 45.4723 9.57542 44.6386 9.26282 43.7529C9.00231 43.9092 8.79391 43.805 8.58551 43.5966C8.325 43.805 8.1166 44.0134 7.8561 44.1697C7.75189 44.2218 7.54349 44.1697 7.38719 44.1697C7.38719 44.0134 7.38719 43.805 7.49139 43.7008C7.8561 43.284 8.1166 43.2319 8.58551 43.5445C8.74181 43.3882 8.89811 43.284 9.05441 43.1277C8.0645 40.4185 7.64769 37.7613 7.64769 35C7.64769 33.3849 7.80399 31.8739 8.0645 30.3109C8.0645 30.3109 8.0645 30.3109 8.0124 30.2588C7.9082 30.1546 7.80399 29.8941 7.8561 29.7899C7.9603 29.6857 8.0645 29.5815 8.1687 29.4773C8.74181 26.6639 9.73173 24.0067 11.0863 21.6101C10.5653 21.7143 10.3569 21.6101 10.2527 21.1412C10.1485 20.6723 10.2006 20.6202 10.8258 20.4118C11.0863 20.3596 11.2426 20.3075 11.3469 20.3596C11.3469 20.2554 11.399 20.2033 11.5553 20.2033C11.6595 20.2033 11.7637 20.2033 11.8679 20.3075C13.2225 18.1193 14.9418 16.1395 16.8174 14.4723C16.4527 14.5244 16.088 14.5244 15.7754 14.5765C15.6712 14.5765 15.567 14.3681 15.4107 14.2117C15.5149 14.0033 15.567 13.7949 15.6712 13.6907C15.7233 13.6386 15.9838 13.7949 16.1401 13.847C16.2443 13.8991 16.3485 14.0033 16.4527 14.0554C16.5048 13.8991 16.5569 13.7949 16.5569 13.6386C16.6611 13.326 17.0779 13.1176 17.4947 13.1697C17.7553 13.2218 17.8074 13.3781 17.8595 13.5865C18.0679 13.4302 18.2242 13.2739 18.4326 13.1697C18.4326 13.0655 18.5368 12.9613 18.641 12.9092C18.7973 12.805 19.0057 12.7529 19.162 12.6487C19.6309 12.284 20.1519 11.9714 20.6729 11.6588H20.6208C20.0477 11.763 19.8914 11.6588 19.8393 11.1378C19.7872 10.8252 19.8914 10.6689 20.1519 10.6168C20.5166 10.5126 20.8813 10.4605 21.1939 10.3563C21.4023 10.3042 21.6628 10.3042 21.8191 10.2C22.288 9.93948 22.6527 10.1479 23.0174 10.4084C26.6645 8.63696 30.7284 7.64704 35.0006 7.64704C36.199 7.64704 37.3973 7.75124 38.5435 7.90755C39.0124 7.69914 39.4813 7.59494 40.0023 7.64704C40.0023 7.59494 40.0023 7.59494 40.0023 7.54284C40.0023 7.49074 40.1065 7.43864 40.3149 7.28234C40.2628 7.33444 40.367 7.17814 40.4712 7.17814C40.5754 7.12603 40.7838 7.12603 40.888 7.17814C40.9401 7.23024 40.9401 7.43864 40.888 7.54284C40.8359 7.64704 40.7838 7.69914 40.7317 7.80335C40.7838 7.80335 40.8359 7.85545 40.888 7.85545C40.9922 7.90755 41.0964 8.11595 41.1485 8.22015V8.27225C41.3569 8.32435 41.6174 8.37646 41.8258 8.42856C41.8258 8.42856 41.8258 8.42856 41.8258 8.37646C41.4611 7.75124 41.5132 7.59494 42.2426 7.33444C42.6595 7.17814 43.2326 7.23024 43.441 6.70923C43.3889 6.70923 43.5973 6.70923 43.8057 6.60503C43.7536 6.60503 43.7015 6.55293 43.6494 6.55293C43.4931 6.44872 43.3368 6.24032 43.1805 6.08402C43.0763 5.97982 43.0242 5.87561 42.92 5.77141V5.82351C42.92 5.92772 42.8679 6.03192 42.8158 6.08402C42.7116 6.08402 42.5553 6.08402 42.5553 6.08402C42.4511 5.82351 42.399 5.51091 42.3468 5.1983C42.3468 5.1462 42.5553 5.042 42.5553 5.042C42.6595 5.1462 42.7637 5.2504 42.8158 5.35461C42.8158 5.30251 42.8158 5.2504 42.8679 5.2504C42.92 5.1983 43.1805 5.1462 43.2326 5.1983C43.5452 5.51091 43.8578 5.82351 44.1704 6.13612C44.2225 6.24032 44.2225 6.50082 44.1183 6.55293C44.1183 6.55293 44.0662 6.60503 44.0141 6.60503C44.3788 6.70923 44.7435 6.76133 45.1082 6.96973C45.3166 7.07393 45.3166 7.38654 45.2124 7.69914C45.2645 7.69914 45.3166 7.69914 45.4208 7.75124C45.6292 7.80335 45.9939 7.75124 46.0981 7.85545C46.2023 8.01175 46.0981 8.32435 46.046 8.53276C45.9939 8.74116 45.9939 8.94956 45.9418 9.15797C45.7334 9.21007 45.5771 9.26217 45.4208 9.31427C45.3687 9.21007 45.3687 9.05377 45.3166 8.89746C45.2645 8.58486 45.1603 8.32435 44.7435 8.48066C44.6393 8.53276 44.5351 8.48066 44.3788 8.42856C44.2746 8.53276 44.2746 8.74116 44.3267 9.10587C44.3267 9.15797 44.3267 9.26217 44.2746 9.31427C45.1082 9.62688 45.8897 9.93948 46.7233 10.3563C46.7754 10.3563 46.8275 10.3563 46.8275 10.3563C46.9838 10.3563 47.1401 10.4605 47.2443 10.4084C47.5569 10.2521 47.7653 10.4605 47.9216 10.6689C48.0258 10.8252 48.13 10.9294 48.2342 11.0857C48.3384 11.0336 48.4947 11.0336 48.599 10.9815C48.9637 10.8773 49.3284 10.8252 49.641 10.721C50.0057 10.6168 50.3183 10.4605 50.6309 10.9294C50.7351 11.0336 51.0998 10.9294 51.3603 10.9294C51.4124 10.9294 51.4645 10.9815 51.5166 10.9815C51.9334 10.7731 52.0897 10.8773 52.1418 11.3462C52.1939 11.6588 52.246 11.9193 52.2981 12.2319C52.2981 12.3882 52.3502 12.5445 52.246 12.6487C51.9855 13.2739 51.725 13.326 51.204 12.805C51.1519 12.7529 51.0477 12.6487 50.9956 12.5966C50.8914 12.4924 50.7872 12.3361 50.683 12.1798C50.5267 12.0235 50.5267 11.8672 50.6309 11.7109C50.2662 11.8151 49.9536 11.9714 49.641 12.0756C50.5788 12.7008 51.4645 13.326 52.3502 14.0554C52.246 13.8991 52.1939 13.6386 52.246 13.5865C52.4544 13.3781 52.767 13.0655 53.0275 13.0655C53.4964 13.0655 54.0174 13.1697 54.3821 13.5865C54.5905 13.7949 54.6426 14.0033 54.4342 14.2117C54.33 14.316 54.2779 14.3681 54.1737 14.4723C53.9653 14.6807 53.809 14.8891 54.0695 15.1496C54.2779 15.358 54.4342 15.7227 54.8511 15.4622C55.0074 15.358 55.1637 15.3059 55.32 15.2538C55.5805 15.2017 55.7368 15.2538 55.6847 15.5143C55.6847 15.6185 55.6326 15.7748 55.6847 15.879C55.7368 16.2958 55.5805 16.6605 55.2679 16.7647C55.5284 17.0773 55.841 17.3899 56.1015 17.7025C56.1536 17.6504 56.2578 17.5462 56.4141 17.4941C56.4662 17.442 56.5704 17.442 56.6225 17.442C56.9872 17.442 57.8208 18.5361 57.7166 18.9008C57.6645 19.1092 57.5603 19.3697 57.4561 19.5781C57.6645 19.8386 57.8208 20.1512 57.9771 20.4118C58.0813 20.1512 58.2376 19.9949 58.4981 19.9428C58.7065 19.9428 58.9149 20.0991 59.0712 20.2554C59.3838 20.516 59.1754 20.7765 58.967 21.037C58.9149 21.0891 58.8107 21.1933 58.7586 21.2454C58.7065 21.2975 58.6544 21.3496 58.5502 21.3496C59.6443 23.2773 60.53 25.3092 61.1553 27.4454C61.2595 27.4975 61.3637 27.5496 61.4679 27.6017C61.5721 27.6538 61.7284 27.5496 61.8326 27.6017C61.9889 27.6538 62.1973 27.6538 62.3015 27.758C62.4057 27.9143 62.562 28.0706 62.6662 28.2269C62.7183 28.1748 62.7704 28.1748 62.7704 28.1748C63.2914 28.0706 63.5519 28.2269 63.6561 28.6437C63.7082 28.8521 63.6561 29.0605 63.4998 29.2168C63.7603 29.5294 64.0729 29.842 64.3334 30.2067C64.4376 30.363 64.5418 30.5193 64.5939 30.6756C64.646 30.7798 64.646 30.9882 64.5939 31.0924C64.5418 31.1445 64.3855 31.1445 64.2813 31.1445C63.5519 31.1445 62.9788 30.884 62.7704 30.363C62.562 30.1025 62.4057 29.9462 62.3015 29.7899C62.0931 29.5815 61.9889 29.3731 62.1452 29.0605C62.3015 28.8 62.1452 28.5395 61.8847 28.6437C61.7805 28.6958 61.6763 28.6958 61.5721 28.6958C61.8847 29.9983 62.0931 31.3008 62.1973 32.6554C62.2494 32.6554 62.3536 32.7075 62.4057 32.8118C62.6662 33.1765 62.9267 33.4891 63.1351 33.9059C63.1351 33.6975 63.1351 33.437 63.2393 33.2807C63.3435 33.1244 63.4477 32.916 63.4998 32.7597C63.604 32.447 63.9166 32.3428 64.0729 32.6033C64.2813 33.0723 64.5939 32.916 64.9065 32.8639C64.9586 32.8639 65.0107 32.8639 65.0107 32.8118C64.9586 32.7596 64.9586 32.7075 64.9586 32.7075C64.9586 32.6554 65.1149 32.4991 65.167 32.4991C65.3754 32.5512 65.5838 32.4991 65.7922 32.4991C65.688 31.3008 65.5317 30.1025 65.2712 28.9042C65.167 28.8 64.9586 28.6958 64.9586 28.5916C64.9586 28.3832 65.0107 28.1227 65.0628 27.9143C63.3435 20.7765 59.1754 14.5765 53.4964 10.3042C53.6527 10.7731 53.7048 11.0857 53.0796 11.1378C52.9233 11.1378 52.767 11.1899 52.6628 11.1899C52.4023 11.1378 52.3502 10.9815 52.4544 10.7731C52.5586 10.5647 52.7149 10.3042 52.8712 10.0958C52.9233 9.99158 53.0275 9.93948 53.1317 9.93948C51.3603 8.58486 49.4326 7.49074 47.4006 6.60503C47.2443 6.96973 46.9317 7.12603 46.3065 7.17814C45.7855 7.23024 45.6292 7.12603 45.6813 6.60503C45.6813 6.39662 45.7855 6.13612 45.9418 6.08402C45.9939 6.08402 45.9939 6.03192 46.046 6.03192C45.6292 5.87561 45.2645 5.71931 44.8477 5.61511C44.7956 5.61511 44.7956 5.61511 44.7435 5.66721C44.483 5.77141 44.2225 5.77141 44.1183 5.40671C43.441 5.1983 42.7116 4.9899 42.0342 4.8336C42.0342 4.8857 42.0342 4.8857 42.0342 4.9378C42.0342 4.9378 41.8258 5.0941 41.7737 5.0941C41.6174 4.9899 41.5132 4.8336 41.3569 4.7294C39.2729 4.31259 37.1889 4.05209 35.0006 4.05209C31.6662 3.99998 28.488 4.52099 25.5183 5.51091C25.6225 5.56301 25.7267 5.66721 25.8309 5.82351C26.1435 6.18822 26.0914 6.29242 25.6746 6.65713C25.2578 7.02183 25.1015 7.02183 24.6847 6.55293C24.3721 6.18822 24.32 6.03192 24.6326 5.77141C20.204 7.33444 16.2443 9.88738 13.0141 13.1176C13.1183 13.1697 13.1704 13.2218 13.1704 13.2218ZM49.12 61.363C49.2763 61.5193 49.4326 61.6756 49.5368 61.8319C49.641 62.0403 49.6931 62.3008 49.3805 62.3529C49.2242 62.405 49.0679 62.1966 48.8074 62.0924C48.9637 61.8319 49.0158 61.5714 49.12 61.363ZM43.7536 63.2386C44.0662 63.1344 44.3788 63.1865 44.7435 63.1344C44.7435 63.2386 44.7956 63.3428 44.7435 63.447C44.6393 63.6033 44.483 63.7597 44.3267 63.916C44.2225 64.0202 44.1183 64.1244 44.0141 64.2286C43.9099 64.1244 43.7536 63.9681 43.5973 63.8118C43.6494 63.6034 43.6494 63.2386 43.7536 63.2386ZM37.3452 63.8639C37.5536 63.7076 38.6477 63.7597 38.6998 63.9681C38.6998 64.1765 38.7519 64.3849 38.6998 64.5412C39.0645 64.437 39.3771 64.3328 39.7418 64.2807C40.0544 64.1765 40.2107 64.3849 40.3149 64.6975C40.367 65.0101 40.4191 65.2706 40.0544 65.4269C39.8981 65.479 39.7939 65.5311 39.5855 65.5832C39.2208 65.5832 38.804 65.7395 38.4914 65.3227C38.4914 65.2706 38.4393 65.2706 38.3872 65.2706C38.1788 65.3227 37.8662 65.3227 37.6578 65.3227C37.4494 65.3227 37.2931 65.0622 37.241 65.0101C36.7721 64.3849 36.8242 64.2286 37.3452 63.8639ZM27.967 63.2907C27.967 62.926 28.3317 62.6134 28.6964 62.7697C28.7485 62.7697 28.8006 63.0302 28.7485 63.0823C28.488 63.6033 28.488 63.5512 28.9569 63.916C29.3737 64.2286 29.6863 64.2807 30.1553 64.0723C30.4679 63.916 30.8847 63.8639 31.2494 64.2286C31.3015 64.3328 31.5099 64.3328 31.6141 64.3328C31.6662 64.2286 31.7183 64.0723 31.7183 63.9681C31.7704 63.2386 31.8746 63.1344 32.3435 62.9781C33.0208 62.8218 33.6981 63.3949 33.5939 64.0723C33.5418 64.3849 33.3855 64.4891 33.1771 64.5412C32.6561 64.6975 32.1351 64.8017 31.6141 64.958C31.2494 65.0622 30.8847 65.1664 30.4679 65.2185C30.1032 65.3227 29.6863 65.5311 29.3737 65.0622C29.3216 65.0101 29.1132 65.0101 28.9569 65.0622C28.6964 65.1143 28.488 65.1664 28.2275 65.1664C28.0712 65.1664 27.8628 65.1143 27.7065 65.0622C27.7586 64.9059 27.8628 64.7496 27.9149 64.5933C27.967 64.437 27.967 64.2807 27.967 64.1244C28.0191 63.8639 27.967 63.6034 27.967 63.2907ZM27.3939 62.5613C27.446 62.5092 27.5502 62.5613 27.8107 62.5613C27.7586 62.6655 27.7065 62.8218 27.6544 62.8218C27.5502 62.8739 27.446 62.8218 27.3418 62.7697C27.3418 62.7697 27.3939 62.6134 27.3939 62.5613ZM22.809 61.363C22.8611 61.3109 22.9653 61.2588 23.0695 61.2067C23.33 61.1025 23.5384 61.3109 23.4342 61.4672C23.2258 61.9361 23.4342 62.1445 23.6948 62.4571C23.8511 62.6655 24.0074 62.8739 23.6948 63.0823C23.3821 63.2386 23.2779 63.0302 23.1216 62.8218C23.0174 62.6134 22.8611 62.4571 22.7048 62.3008C22.288 61.884 22.288 61.7798 22.809 61.363ZM20.1519 58.6538C20.3603 58.758 20.5687 58.758 20.5687 58.8101C20.6208 58.9143 20.5166 59.0706 20.4645 59.1748C20.4124 59.2269 20.204 59.1748 20.1519 59.1227C20.0998 59.0185 20.1519 58.8622 20.1519 58.6538ZM12.6494 51.5681C12.7015 51.5681 12.9099 51.6723 12.9099 51.7244C12.9099 51.8286 12.8057 51.9849 12.7536 52.037C12.7015 52.0891 12.5452 51.9849 12.3889 51.9328C12.4931 51.7244 12.5452 51.6202 12.6494 51.5681ZM11.6074 53.3916C11.6074 53.2874 11.6595 53.1832 11.7637 53.1832C11.8158 53.1832 11.92 53.2353 11.9721 53.2874C12.0242 53.3395 12.0763 53.4437 12.0763 53.5479C12.0763 53.7563 12.0242 53.9126 12.0242 54.121C11.8679 53.9647 11.7637 53.8605 11.7116 53.7563C11.6595 53.5479 11.6074 53.4437 11.6074 53.3916ZM7.9082 45.316C8.0124 45.2639 8.2208 45.316 8.3771 45.316C8.3771 45.4723 8.4292 45.6807 8.325 45.7849C8.2729 45.8891 8.0645 45.837 7.75189 45.8891C7.8561 45.5765 7.8561 45.3681 7.9082 45.316ZM6.50147 42.5546C6.24097 42.6588 6.08467 42.763 5.87626 42.8672C5.77206 42.9193 5.56366 42.8672 5.56366 42.8672C5.51156 42.5025 5.35526 42.0857 5.45946 41.7731C5.51156 41.4605 5.82416 41.4084 6.13677 41.6168L6.18887 41.6689C6.39727 41.7731 6.81408 41.4084 6.86618 41.8252C6.86618 41.9815 6.60568 42.2941 6.50147 42.5546ZM6.86618 27.9664C6.81408 27.9143 6.86618 27.7059 6.86618 27.5496C7.02248 27.5496 7.17878 27.6017 7.38719 27.6017C7.43929 27.8622 7.49139 28.0185 7.49139 28.2269C7.28299 28.1227 7.02248 28.0706 6.86618 27.9664ZM8.63761 26.0907C8.3771 26.1428 8.0645 26.247 7.80399 26.2991V26.247C7.59559 26.2991 7.43929 26.3512 7.23089 26.4033C6.70988 26.5075 6.55357 26.4033 6.44937 25.8302C6.39727 25.5697 6.44937 25.4134 6.70988 25.3092C7.28299 25.1529 7.8561 25.0487 8.4292 24.8924C8.84601 24.7882 8.89811 25.1529 8.95021 25.4134C9.00231 25.726 9.00231 25.9865 8.63761 26.0907ZM60.4258 20.8286C60.53 20.8286 60.7384 20.9328 60.7905 21.0891C60.999 21.3496 61.1032 21.6622 61.3637 21.8706C62.041 22.3395 61.6763 22.9647 61.7284 23.5378C61.7284 23.642 61.5721 23.7462 61.4679 23.8504C61.6763 24.0067 61.8326 24.2151 62.1452 24.0588C62.3015 24.0067 62.6141 24.1109 62.7183 24.2151C62.9788 24.4756 63.1351 24.8403 63.3435 25.1529C63.5519 25.5176 63.2393 25.6739 63.0309 25.8823C62.8225 26.0907 62.6141 26.0907 62.4057 25.8823C62.041 25.4655 61.7284 25.1008 61.3637 24.684C61.0511 24.3193 61.1032 24.0588 61.4679 23.8504C61.3116 23.7462 61.1032 23.5378 60.999 23.5899C60.53 23.7983 60.3737 23.4857 60.1653 23.2252C60.009 23.0689 59.9048 22.8605 59.7485 22.7042C59.2275 22.0269 59.5922 20.9849 60.4258 20.8286ZM55.1116 12.9092C55.4763 12.5966 55.6326 12.9613 55.9452 13.2218C55.9452 13.3781 55.9973 13.6386 55.8931 13.7428C55.5805 14.0554 55.3721 13.7428 55.1637 13.5344C55.0074 13.3781 54.8511 13.1176 55.1116 12.9092ZM49.4326 9.47057C49.7973 9.15797 49.9536 9.21007 50.4225 9.67898C50.6309 9.88738 50.7351 10.1479 50.4225 10.3563C50.0057 10.6689 49.6931 10.6689 49.3805 10.3042C49.0158 9.93948 49.0158 9.78318 49.4326 9.47057ZM48.7553 7.85545C48.8595 8.01175 48.8074 8.16805 48.8074 8.32435C48.6511 8.32435 48.4948 8.37646 48.4427 8.27225C48.3384 8.16805 48.3384 8.01175 48.2863 7.75124C48.5469 7.80335 48.7032 7.80335 48.7553 7.85545ZM46.7754 9.67898C46.8796 9.67898 46.9838 9.78318 47.088 9.83528C47.0359 9.93948 46.9838 10.0958 46.9317 10.1479C46.8275 10.2 46.7233 10.0958 46.5149 10.0437C46.6191 9.88738 46.7233 9.67898 46.7754 9.67898ZM40.4712 6.08402V6.13612C40.4191 6.29242 40.4191 6.44872 40.367 6.60503C40.3149 6.60503 40.2107 6.60503 40.2107 6.55293C40.0544 6.24032 40.2628 6.18822 40.4712 6.08402ZM37.1368 5.0941C37.4494 5.042 37.7099 4.9899 38.0225 4.9378C38.0746 4.9378 38.1267 4.9378 38.2309 4.9899C38.283 4.9378 38.3351 4.9378 38.3872 4.8857C38.3872 4.8857 38.3872 4.8336 38.4393 4.8336C38.5956 4.8857 38.804 4.8857 38.8561 4.9899C39.0124 5.1462 38.9082 6.13612 38.7519 6.13612C38.5956 6.18822 38.3872 6.08402 38.3351 6.08402C38.0746 5.77141 37.9704 5.56301 37.9704 5.35461C37.8662 5.40671 37.7099 5.51091 37.5536 5.56301C37.4494 5.61511 37.3452 5.66721 37.2931 5.77141C37.1889 5.92772 37.0847 6.03192 37.0326 6.18822C36.9284 6.08402 36.8242 5.87561 36.7721 5.82351C36.6158 5.1983 36.6158 5.1462 37.1368 5.0941ZM33.5418 5.97982C33.646 5.92772 33.7502 5.87561 33.8023 5.87561C33.9586 5.92772 34.1149 6.03192 34.2712 6.08402C34.2191 6.24032 34.1149 6.34452 34.0628 6.50082C34.0107 6.55293 33.9065 6.55293 33.646 6.65713C33.5418 6.60503 33.2813 6.55293 33.1771 6.44872C33.0208 6.18822 33.3334 6.08402 33.5418 5.97982ZM25.9351 8.01175C26.1435 7.85545 26.2477 7.75124 26.3519 7.75124C26.4561 7.75124 26.6124 7.75125 26.6645 7.80335C26.7166 7.85545 26.7166 8.01175 26.6645 8.11595C26.6124 8.22015 26.5082 8.32435 26.404 8.37646C26.2477 8.48066 26.0393 8.74116 25.883 8.48066C25.7788 8.37646 25.883 8.11595 25.9351 8.01175ZM19.6309 8.53276C19.8914 8.42856 20.5166 8.94956 20.4645 9.21007C20.4124 9.31427 20.2561 9.52267 20.204 9.52267C20.0477 9.52267 19.8914 9.41847 19.7872 9.36637C19.6309 9.15797 19.5267 9.05377 19.5267 8.89746C19.4225 8.74116 19.5267 8.58486 19.6309 8.53276ZM17.8595 11.242C18.3805 11.1378 18.4847 11.1899 18.5889 11.6067C18.6931 12.0756 18.641 12.1798 18.1721 12.284C17.7032 12.3882 17.599 12.3361 17.4947 11.9193C17.3384 11.4504 17.3905 11.3462 17.8595 11.242Z" fill="#FEFEFE"/>
<path d="M58.3939 55.3193C58.3418 55.3193 58.2897 55.3193 58.1855 55.3193C57.8208 55.3714 57.6645 55.2672 57.8208 54.8504C57.8729 54.6941 57.8208 54.5378 57.8208 54.3815C57.8208 54.2773 57.8208 54.1731 57.8729 54.0168C58.0292 54.0168 58.0813 53.9647 58.1855 53.9647C58.3939 53.9647 58.6023 54.0168 58.8107 54.0689C59.0712 54.0689 59.2275 54.2252 59.1233 54.4336C59.7485 53.6521 60.3737 52.8185 60.9468 51.9328C60.6863 52.037 60.4258 51.9849 60.1132 51.8286C59.9569 51.7244 59.6964 51.6202 59.5401 51.6202C59.1233 51.6202 58.9149 51.4118 58.8107 51.047C58.7586 50.8907 58.8107 50.6302 58.8628 50.5781C59.0191 50.526 59.2796 50.4739 59.3838 50.5781C59.6964 50.9428 59.9048 50.9949 60.0611 50.4739C60.1653 50.1613 61.2594 49.7966 61.572 49.9529C61.6762 50.005 61.7804 50.2134 61.9367 50.4218C61.9367 50.4218 61.9367 50.4218 61.9367 50.4739C62.5619 49.3798 63.1351 48.2336 63.6561 47.0874C64.1771 45.8891 64.5939 44.6386 64.9586 43.3882C64.8544 43.3882 64.7502 43.3882 64.646 43.3882C64.4897 43.3882 64.3334 43.4403 64.2292 43.4403C64.125 43.4403 64.0208 43.3361 63.9166 43.284C63.9687 43.2319 63.9687 43.0756 64.0729 43.0756C64.4376 42.9193 64.8023 42.763 65.167 42.6067C65.4275 41.6168 65.6359 40.5748 65.7922 39.5849C65.7401 39.5328 65.6359 39.4807 65.5838 39.4286C65.3754 39.2202 65.3233 38.8033 65.2712 38.4907C65.2712 38.3865 65.5317 38.2302 65.7401 38.126C65.7922 38.0739 65.8964 38.0739 65.9485 38.0739C66.0006 37.605 66.0527 37.1361 66.0527 36.7193C65.8443 36.3546 65.2712 36.563 65.1149 36.0941C65.1149 36.042 64.8544 35.9899 64.7502 35.9899C64.5939 35.9899 64.4376 36.042 64.3334 36.042C64.0729 36.0941 63.8645 36.042 63.8124 35.7815C63.7603 35.521 63.9687 35.4168 64.1771 35.3647C64.2292 35.3647 64.2813 35.3647 64.3334 35.3126C64.3334 35.3126 64.3334 35.3126 64.3334 35.3647C64.9586 35.2084 65.5317 35.0521 66.1569 34.8958C66.1569 34.479 66.1569 34.0622 66.1048 33.6454C65.9485 33.6454 65.7922 33.5412 65.6359 33.3328C65.4796 33.0723 64.8023 33.3849 64.6981 33.6975C64.5418 34.0622 63.9687 34.3748 63.604 34.2706C63.4477 34.2185 63.3435 34.0101 63.3435 33.8017C63.2914 33.8538 63.0309 34.1143 62.9788 34.0622C62.8225 33.958 62.614 33.958 62.4577 34.0101C62.4577 34.3227 62.4577 34.6353 62.4577 35C62.4577 35.4168 62.4577 35.8857 62.4056 36.3025C62.5098 36.3546 62.5619 36.4588 62.6141 36.5109C62.6662 36.563 62.6141 36.8235 62.562 36.8756C62.5098 36.9277 62.4056 36.9798 62.3014 37.0319C62.2493 37.5529 62.1972 38.0739 62.1451 38.5949C62.2493 38.5428 62.4577 38.4907 62.4577 38.5428C62.614 38.8033 62.8225 38.8554 63.1351 38.9075C63.5519 38.9597 63.7082 39.637 63.3956 39.9496C62.9267 40.4185 62.9267 40.4706 63.4998 40.7311C63.604 40.7832 63.7082 40.8874 63.7082 40.9916C63.7082 41.0958 63.604 41.2521 63.5519 41.2521C63.2393 41.3563 62.8746 41.6168 62.562 41.2C62.4577 41.0958 62.1972 41.0958 61.9888 41.0958C61.8846 41.0958 61.7804 41.1479 61.7283 41.1479C61.2594 43.2319 60.53 45.2117 59.6443 47.0353C59.6964 47.0353 59.7485 47.0353 59.8527 47.0353C60.2174 47.0874 60.7384 46.8269 60.8947 47.3479C61.3115 47.8168 61.3115 47.8689 60.9468 48.2336C60.53 48.5983 60.1653 48.9109 59.7485 49.2235C59.6443 49.2756 59.4359 49.2756 59.2796 49.2756C59.2796 49.2235 59.2796 49.1714 59.2796 49.1714C59.1754 49.2235 59.0191 49.2756 58.8107 49.3277C58.7586 49.3277 58.6544 49.2756 58.5502 49.2235C57.9771 50.1613 57.3519 51.0991 56.6746 51.9328C56.6746 51.9849 56.7267 52.037 56.7267 52.1412C56.8309 52.1933 56.9351 52.2975 57.0914 52.5059C57.2477 52.7143 57.5603 52.9227 57.1956 53.2353C57.0914 53.3395 56.9872 53.3916 56.8309 53.4437C56.7267 53.7042 56.5183 53.8605 56.0493 54.0168C55.7888 54.0689 55.5804 54.121 55.3199 54.1731C55.0594 54.2252 54.7468 54.2773 54.6947 54.6941C54.6426 54.9546 54.4342 55.0067 54.2258 54.8504C54.1737 54.8504 54.1737 54.7983 54.1216 54.7983C52.5065 56.3613 50.683 57.7681 48.7031 58.9143C48.7552 58.9143 48.8073 58.9143 48.8594 58.8622C49.3804 58.8101 49.9535 58.5496 50.4225 59.0706C50.6309 59.279 51.204 59.0185 51.2561 58.6538C51.3082 58.2891 51.5166 58.1328 51.8292 58.0807C52.9233 57.9244 54.0174 57.7681 55.1115 57.2991C55.7367 57.0386 56.1014 57.2991 56.2577 57.8723C56.883 56.9865 57.6645 56.1529 58.3939 55.3193ZM64.1771 38.126C64.1771 38.0739 64.2813 38.0218 64.3334 37.9697C64.4376 37.9176 64.5418 37.8134 64.646 37.7613C64.6981 37.7092 64.8023 37.7613 64.9065 37.7613C64.9065 37.8655 64.9065 37.9697 64.8544 38.0218C64.7502 38.1781 64.6981 38.3344 64.5418 38.4386C64.4376 38.4907 64.2292 38.4907 64.125 38.4907C64.125 38.3865 64.125 38.2823 64.1771 38.126ZM64.1771 38.647C64.2813 38.7512 64.3334 38.8033 64.3855 38.8554C64.3855 38.9076 64.3334 38.9596 64.2813 39.0117C64.2292 38.9596 64.125 38.9076 64.0729 38.8554C64.0208 38.8554 64.125 38.7512 64.1771 38.647ZM63.5519 34.7916C63.4998 34.7916 63.5519 34.6874 63.5519 34.5311C63.6561 34.5832 63.7603 34.5832 63.8124 34.6353C63.8645 34.6353 63.8124 34.7916 63.8124 34.7916C63.7082 34.7916 63.604 34.7916 63.5519 34.7916ZM62.8225 43.284C62.8746 43.2319 63.1351 43.3882 63.1351 43.4924C63.1351 43.5966 63.083 43.805 62.9788 43.9092C62.8746 43.9613 62.7183 43.805 62.4577 43.7529C62.6661 43.4924 62.7183 43.3361 62.8225 43.284ZM57.0393 51.3596C57.0393 51.2554 57.0914 51.0991 57.1956 51.047C57.2477 50.9949 57.404 51.047 57.5082 51.0991C57.7166 51.2033 57.8729 51.3075 58.0292 51.4117C58.2897 51.5681 58.6023 52.3496 58.3418 52.558C58.0292 52.8185 58.0813 53.1311 58.0813 53.4437C58.0813 53.6 57.9771 53.7563 57.925 53.8605C57.8208 53.7563 57.6124 53.6521 57.5603 53.4958C57.404 53.1311 57.3519 52.7664 57.2477 52.3496C57.1956 52.0891 57.0914 51.7244 57.0393 51.3596ZM54.851 56.6218C54.6947 56.6218 54.5384 56.4134 54.3821 56.3092C54.4863 55.9966 54.1737 55.5798 54.5905 55.4756C54.9552 55.4235 54.9552 55.8924 55.0594 56.1008C55.1636 56.3613 55.1636 56.6218 54.851 56.6218Z" fill="#FEFEFE"/>
<path d="M10.8778 38.8555C11.0862 39.0118 11.1383 39.2202 10.982 39.5328C10.982 39.5328 10.982 39.5849 10.9299 39.637C11.4509 42.2941 12.3887 44.795 13.6912 47.0874C13.8475 47.2437 13.9517 47.4 14.108 47.5563C14.2122 47.6605 14.3165 47.8168 14.2644 47.8689C14.2123 47.921 14.2123 47.9731 14.2123 48.0252C14.8896 49.1194 15.6711 50.1614 16.5047 51.0992C16.7131 50.995 16.8694 50.8908 17.1299 51.1513C17.3904 51.4639 17.5988 51.7244 17.8593 52.037C18.0156 52.2454 18.1719 52.4017 18.3282 52.6101C18.4845 52.8185 18.6929 53.0269 18.6408 53.2874C18.8492 53.4958 19.1097 53.7042 19.3181 53.8605C19.4223 53.8605 19.4744 53.9126 19.4744 54.0168C23.4862 57.2471 28.4879 59.279 33.9585 59.4874C33.9064 59.3832 33.8543 59.279 33.8543 59.1748C33.8022 59.0706 33.8543 58.9143 33.8543 58.758C33.9585 58.758 34.0627 58.8101 34.219 58.8101H34.2711C34.1148 58.6017 33.9585 58.3933 33.8022 58.1849C34.3232 58.0286 34.4795 57.7681 34.3753 57.2471C34.3232 56.9345 34.219 56.5698 34.1669 56.2572C34.1148 55.9967 33.9585 55.8925 33.6459 55.9446C33.2291 56.0488 32.8122 56.2051 32.3954 56.3093C32.1349 55.9967 31.9265 55.6841 31.666 55.3715C31.7702 55.2673 31.9265 55.1631 32.0307 55.0068C31.7702 54.8504 31.5097 54.5899 31.1971 54.5899C31.145 54.5899 31.145 54.5899 31.0929 54.5899C29.9988 53.079 29.0089 51.6202 28.2274 50.3177C28.2795 50.2656 28.2795 50.1093 28.3316 50.0572C28.2274 50.0051 28.1232 49.9009 28.019 49.953C28.019 49.953 28.019 49.953 27.9669 49.953C27.4459 49.0673 27.0291 48.2857 26.7165 47.6084C26.7165 47.5563 26.6644 47.5042 26.6644 47.4521C26.7686 47.4 26.9249 47.2958 26.9249 47.2437C26.9249 47.0874 26.977 47.0353 27.0291 46.9311C27.0291 46.9832 27.0291 46.9832 27.0291 47.0353C27.0291 47.1395 27.3417 47.1395 27.5501 47.2437C27.6543 47.0353 27.7585 46.9311 27.7585 46.7748C27.7585 46.7748 27.7064 46.7227 27.6543 46.6706C27.9148 46.5664 28.1753 46.5143 28.4358 46.4622C28.8526 46.358 29.2694 46.0454 29.6341 46.5664C29.6341 46.5664 29.7383 46.6185 29.7383 46.5664C30.2072 46.358 30.9366 46.5664 31.145 45.837C31.145 45.7849 31.3013 45.6807 31.3534 45.6286C31.8223 45.4723 32.2912 45.316 32.7601 45.2118C32.9686 45.1597 33.2291 45.316 33.4896 45.4202C33.5417 45.1076 33.698 44.8992 34.0106 44.795C34.0627 44.7429 34.1148 44.6908 34.219 44.6387C34.5316 44.8471 34.8442 45.0555 35.1568 45.2639C35.261 45.316 35.4173 45.3681 35.4694 45.316C35.5215 45.2639 35.5736 45.1076 35.5736 45.0034C35.5215 44.6908 35.4694 44.4303 35.3652 44.1698C35.3652 44.1177 35.3652 44.0656 35.3131 44.0135C35.3652 44.0656 35.4173 44.0656 35.4694 44.1177C35.6778 44.3261 35.8341 44.3261 36.0425 44.274C36.303 44.2219 36.5114 44.1698 36.7198 44.3782C36.9282 44.5866 37.6576 44.3782 37.7097 44.1177C37.7618 43.7009 38.0744 43.7009 38.3349 43.5967C38.5433 43.4925 38.7517 43.3883 38.908 43.232C38.9601 43.1799 39.0122 42.9715 38.9601 42.9194C38.6996 42.6067 38.0744 42.4504 37.7097 42.6067C37.345 42.7631 37.0324 42.8673 36.5635 43.0236C36.5635 43.0236 36.5635 43.0236 36.5114 43.0236C36.5114 43.0236 36.5114 43.0757 36.4593 43.0757C36.4593 43.0757 36.4593 43.0757 36.4072 43.0757C36.0425 43.1799 35.6257 43.2841 35.1568 43.4404C35.0526 43.0757 35.0005 42.8673 34.7921 42.8673C35.0005 42.7631 35.0005 42.711 34.9484 42.5025C34.8963 42.3983 34.8963 42.242 34.8442 42.1378C34.8442 42.0336 34.7921 41.8773 34.7921 41.7731C34.7921 41.6168 34.74 41.4605 34.6879 41.3042H34.74C34.6879 41.0958 34.6358 40.8874 34.5837 40.679C34.5316 40.3664 34.3753 40.2622 34.0627 40.3143C33.4896 40.4185 33.1249 41.0958 33.177 41.6689C33.2291 42.0857 33.5938 42.0857 33.8022 42.2941C33.8022 42.3983 33.8543 42.5546 33.9064 42.6588C33.9585 42.8152 34.0627 42.9715 34.1669 43.0236C33.9585 43.0757 33.8022 43.1278 33.6459 43.2841C33.5417 43.3883 33.5417 43.7009 33.5938 43.9614C32.708 44.1698 31.8223 44.4303 30.9366 44.6387C30.6761 44.6908 30.4677 44.8471 30.2593 44.8992C29.6341 45.0555 28.9047 45.1597 28.3316 45.4202C27.9148 45.5765 27.2896 45.6286 27.0812 46.2017C27.0812 46.2538 26.8207 46.3059 26.7686 46.2538C26.508 46.0454 26.2996 46.1496 26.0912 46.2017C25.9349 45.837 25.7786 45.5244 25.6223 45.1076L25.6744 45.0555C25.7786 44.9513 25.7786 44.7429 25.7265 44.5866C25.6744 44.274 25.5702 44.0135 25.466 43.753C25.3618 43.4404 25.3097 43.0757 25.1534 42.8152C25.1013 42.711 24.945 42.6589 24.8408 42.6067C24.7887 42.6067 24.7366 42.711 24.6845 42.8152C24.4761 42.0336 24.2677 41.2521 24.2156 40.4706C24.2677 40.4185 24.3198 40.3664 24.3198 40.2622C24.2677 40.2622 24.2156 40.2101 24.1635 40.2101C24.1114 39.5328 24.1635 38.8555 24.2677 38.2303C24.2677 38.1782 24.2677 38.1782 24.2677 38.1261C24.6845 36.1462 25.2576 34.8437 26.2996 33.4891C26.4559 33.2807 26.6644 33.0723 26.9249 32.8639C27.6543 32.1866 28.3837 31.4572 28.1753 30.0504C27.5501 26.0908 25.6223 25.4656 22.8089 24.5278C22.2358 24.3194 21.6627 24.1631 21.0375 23.9025C21.1938 23.8504 21.298 23.7983 21.4543 23.7983C21.6106 23.7462 21.7669 23.6941 21.9232 23.642C22.1316 23.5899 22.34 23.4857 22.2358 23.2252C22.1316 22.9647 22.2358 22.6 21.7669 22.6C21.5585 22.6 21.3501 22.3395 21.1938 22.3395C21.0375 22.3916 20.9854 22.6521 20.8291 22.8084C20.777 22.8605 20.6207 22.9126 20.5165 22.9126C20.308 23.0168 20.0475 23.0689 19.9954 23.3815C19.9954 23.3815 19.9954 23.3815 19.9954 23.4336C19.8912 23.3815 19.787 23.3294 19.6828 23.2773C18.9013 22.8605 18.0677 22.4437 17.2862 22.4437C17.182 22.4437 17.0257 22.4437 16.9215 22.4958H16.8694C16.7652 22.4958 16.661 22.4437 16.6089 22.3395C16.5568 22.2353 16.5568 22.079 16.7131 21.8706C17.5467 20.7244 19.8391 19.9429 21.5064 19.8908C21.5064 19.8908 21.5064 19.8908 21.5064 19.9429C21.5064 20.0471 21.5064 20.2034 21.5064 20.3076C21.7148 20.2555 21.9753 20.2555 22.1837 20.2034C22.2358 20.1513 22.2879 19.995 22.2879 19.8387C22.8089 19.7866 23.5383 19.6824 24.3719 19.5261C26.8728 19.1614 30.624 18.5883 33.9064 18.5883C34.4795 18.5883 34.9484 18.5883 35.4173 18.6404C35.2089 18.7446 35.261 18.953 35.3652 19.2656C35.4173 19.3177 35.5736 19.5261 35.6778 19.474C36.0425 19.3698 35.8341 19.0051 35.8341 18.7967C35.8341 18.7446 35.7299 18.6925 35.6778 18.6404C35.9904 18.6404 36.303 18.6925 36.6156 18.7446C36.6156 18.7967 36.5635 18.8488 36.5635 18.9009C36.5635 19.0051 36.6677 19.2135 36.7198 19.2135C37.0845 19.1614 37.3971 19.1093 37.7618 18.953C38.2828 19.0572 38.6996 19.2135 39.0644 19.4219C41.3047 20.2034 42.7114 21.8706 43.8576 23.7462C43.7013 23.9026 43.4408 24.0068 43.4408 24.1631C43.3887 24.632 43.9618 24.4236 44.1181 24.6841C44.1702 24.7362 44.3786 24.7362 44.4828 24.7362C44.6912 25.0488 44.8475 25.4135 45.0559 25.7261C45.3165 26.2471 45.6291 26.7681 45.9417 27.237C46.2022 27.6538 47.7131 29.0084 49.3803 30.5194C51.7249 32.6034 54.8509 35.4168 56.9349 37.7614C56.8828 37.8135 56.8307 37.9177 56.8307 38.0219C56.8307 38.074 56.987 38.1782 57.0391 38.1782C57.0912 38.1782 57.1433 38.1261 57.1954 38.1261C57.2475 38.2303 57.3517 38.2824 57.4038 38.3866C57.8728 38.9076 58.3417 39.4286 58.7585 39.9496C59.0711 38.3345 59.2795 36.7194 59.2795 35C59.2795 21.4538 48.3383 10.5126 34.7921 10.5126C21.2459 10.5126 10.3047 21.4538 10.3047 35C10.3047 36.2504 10.4089 37.5009 10.5652 38.7513C10.8257 38.8034 10.8778 38.8034 10.8778 38.8555ZM28.9047 53.079C29.1131 52.8706 29.3736 52.7664 29.6341 52.558C29.6862 52.6622 29.8946 52.9227 29.8425 52.9227C29.582 53.1832 30.2072 53.8084 29.5299 53.9126C29.3736 53.9126 29.2173 53.7042 28.9568 53.5479C28.9568 53.4437 28.8526 53.1832 28.9047 53.079ZM16.5568 43.5446C16.4526 43.6488 16.2442 43.6488 16.0879 43.6488C16.14 43.4404 16.2442 43.2841 16.2963 43.0757C16.5047 43.0757 16.6089 43.0757 16.7652 43.0757C16.7131 43.232 16.661 43.4404 16.5568 43.5446ZM17.5988 48.6504C17.4425 48.4941 17.2862 48.2857 17.1299 48.0773C16.9215 47.8168 16.7131 47.6084 17.0778 47.3479C17.4946 47.0353 17.703 46.9832 18.0156 47.2958C18.1198 47.4 18.2761 47.5563 18.3803 47.6605C18.4324 47.7126 18.4845 47.7647 18.5366 47.8168C18.9013 48.2857 18.9013 48.2857 18.4845 48.6504C18.0677 49.0673 17.9635 49.0673 17.5988 48.6504ZM18.1719 43.5967C18.224 43.3883 18.2761 43.232 18.3282 43.1799C18.3803 43.1278 18.5887 43.1799 18.6408 43.232C18.6929 43.2841 18.6929 43.4925 18.6408 43.5446C18.5366 43.5967 18.3803 43.5446 18.1719 43.5967ZM19.5265 50.2656C19.266 50.5261 19.0576 50.474 18.6929 50.0051C18.3803 49.6404 18.4324 49.5362 18.7971 49.2236C19.2139 48.8589 19.3181 48.911 19.6828 49.2757C19.9954 49.6404 19.9433 49.8488 19.5265 50.2656ZM19.1618 44.1177C19.266 44.0656 19.5265 44.2219 19.787 44.274C19.8391 44.5345 19.9433 44.795 19.8391 44.8992C19.5786 45.1597 19.4223 44.8471 19.266 44.6908C19.0576 44.5345 18.9013 44.274 19.1618 44.1177ZM20.6207 45.9933C20.5686 46.0454 20.3601 45.9933 20.308 45.9412C20.2559 45.837 20.2559 45.6807 20.2559 45.4723C20.4644 45.5244 20.6728 45.5244 20.6728 45.6286C20.777 45.7328 20.6728 45.8891 20.6207 45.9933ZM24.4761 55.9446C24.2156 56.153 23.9551 56.2572 23.7467 55.9446C23.4341 55.5278 23.4341 55.3194 23.7988 55.0068C24.1635 54.7462 24.3198 54.7462 24.6324 55.1631C24.945 55.4757 24.8929 55.632 24.4761 55.9446ZM25.6744 53.9126C25.6223 53.9647 25.5702 53.9126 25.466 53.9126C25.466 53.8084 25.466 53.7563 25.5181 53.6521C25.5181 53.6 25.6223 53.6521 25.7786 53.6521C25.7265 53.7563 25.7265 53.8605 25.6744 53.9126ZM24.3719 44.0656C24.424 44.1698 24.424 44.3782 24.3719 44.4303C24.3198 44.4824 24.1114 44.4824 24.0072 44.4303C23.9551 44.3782 23.9551 44.1698 23.9551 44.0135C24.1114 44.0135 24.3198 44.0135 24.3719 44.0656ZM23.5383 42.8673C23.5383 43.1278 23.5904 43.3883 23.5383 43.4925C23.3299 43.753 23.1215 43.5446 23.0173 43.3362C22.9131 43.1278 22.5484 42.9194 22.861 42.6588C22.9652 42.6067 23.2778 42.8152 23.5383 42.8673ZM21.7669 41.0437C22.1837 40.679 22.2879 40.7311 22.7568 41.2C23.0694 41.5647 23.0694 41.6689 22.7568 41.9815C22.34 42.3462 22.1837 42.3462 21.819 41.9815C21.4022 41.4605 21.4022 41.3563 21.7669 41.0437ZM17.4946 42.0857C17.9114 41.8773 18.0156 41.721 18.0156 41.2C18.0156 40.7832 18.0156 40.4706 17.7551 40.158C17.4425 39.8454 17.5467 39.5849 17.8593 39.3765C18.224 39.116 18.5887 38.8034 18.9534 38.4908C19.266 38.2303 19.4223 38.2824 19.6828 38.5429C20.2038 39.116 20.2038 39.1681 19.5786 39.5328C19.266 39.7412 19.2139 39.9496 19.4223 40.2622C19.5786 40.4185 19.6828 40.6269 19.8912 40.8353C20.0996 41.0437 20.4644 41.3042 20.6728 41.6168C20.8291 41.8252 21.0375 42.1378 20.9854 42.3462C20.8812 42.6589 20.8291 42.9715 21.0896 43.1799C21.4022 43.4404 21.7669 43.7009 22.1316 43.8051C22.7568 43.9614 22.7568 43.9093 22.5484 44.5345C22.4963 44.6908 22.6005 44.8992 22.7047 45.0034C22.861 45.2639 23.1215 45.4723 23.2778 45.7328C23.5383 46.0454 23.6946 46.4622 24.2677 46.358C24.3719 46.3059 24.5803 46.4622 24.6845 46.5664C25.3097 47.2958 25.9349 48.0252 26.508 48.7546C26.6122 48.8589 26.508 49.7967 26.4038 49.8488C26.3517 49.9009 26.1954 49.953 26.1433 49.9009C25.9349 49.7967 25.6744 49.6925 25.5181 49.4841C24.4761 48.2857 23.4862 47.0874 22.4963 45.837C21.8711 45.1076 21.3501 44.274 20.7249 43.5446C20.2038 42.9194 19.6307 42.3462 19.0576 41.7731C18.7971 41.5126 18.5887 41.5647 18.3803 41.8773C18.224 42.0857 18.0677 42.3462 17.9114 42.5546C17.7551 42.7631 17.4946 42.8673 17.2862 42.6067C17.182 42.3983 17.2862 42.1899 17.4946 42.0857ZM16.5568 37.7614C16.661 37.7614 16.7652 37.7093 16.9215 37.6572C17.3383 37.553 17.5467 37.7093 17.4946 38.1261C17.4946 38.2824 17.4946 38.4387 17.4425 38.595C17.3904 38.7513 17.3904 39.0118 17.2862 39.0118C17.1299 39.0639 16.9215 38.9597 16.7652 38.9076C16.661 38.8555 16.5568 38.6992 16.4005 38.595C16.3484 38.4908 16.2442 38.3866 16.1921 38.2303C16.0358 37.8135 16.0358 37.7614 16.5568 37.7614ZM16.2442 45.2639C16.5047 45.5244 16.1921 45.6807 16.0358 45.837C15.8795 45.9933 15.619 46.2538 15.4627 45.8891C15.4106 45.7328 15.5669 45.4723 15.6711 45.2118C15.8795 45.2118 16.14 45.1597 16.2442 45.2639ZM14.3165 39.1681C14.6812 38.595 14.8375 38.5429 15.2543 39.116C15.3064 39.1681 15.3585 39.2723 15.4106 39.3765C15.5148 39.5328 15.6711 39.637 15.7232 39.7933C15.7753 39.9496 15.7232 40.1059 15.7232 40.3143C15.5669 40.2622 15.4106 40.2622 15.2543 40.2101C15.1501 40.158 15.098 39.9496 14.9417 39.8975C14.7854 39.7933 14.6291 39.7412 14.4207 39.6891C14.3165 39.637 14.1601 39.637 14.0559 39.637C14.2122 39.4286 14.2644 39.2723 14.3165 39.1681ZM12.7013 40.9395C12.7534 40.9916 12.8055 41.0958 12.9097 41.1479C13.1181 41.4084 13.3265 41.6168 13.0139 41.9815C12.5971 42.3462 12.4408 42.3983 12.024 42.0336C11.8156 41.8773 11.6593 41.6689 11.503 41.4084C11.1904 40.9395 11.3467 40.5748 11.8677 40.4185C11.9719 40.3664 12.1803 40.4185 12.2845 40.4706C12.3887 40.5748 12.545 40.7311 12.7013 40.9395ZM11.7114 36.7715C11.8156 36.8236 11.8677 36.8757 11.9719 36.9278C12.4929 37.0841 12.545 37.2404 12.1803 37.6051C11.8156 38.0219 11.3467 38.1261 11.0341 37.7093C10.7736 37.5009 10.8778 37.2404 11.0862 36.9799C11.1904 36.7194 11.3988 36.5631 11.7114 36.7715Z" fill="#FEFEFE"/>
</g>
<defs>
<clipPath id="clip0_1_3750">
<rect width="62" height="62" fill="white" transform="translate(4 4)"/>
</clipPath>
</defs>
</svg>
