<svg width="60" height="60" viewBox="0 0 60 60" fill="none" xmlns="http://www.w3.org/2000/svg">
<g clip-path="url(#clip0_1_3705)">
<circle opacity="0.1" cx="30" cy="30" r="30" fill="#FEFEFE"/>
<path d="M37.6376 28.9175C37.6042 28.9175 37.5707 28.9843 37.5039 29.0512C37.6042 29.0846 37.6376 29.0846 37.671 29.0846C37.7044 29.0846 37.7378 29.0177 37.7378 28.9843C37.7378 28.9509 37.671 28.9175 37.6376 28.9175Z" fill="#FEFEFE"/>
<path d="M43.2177 36.0023C43.2511 35.9354 43.2845 35.902 43.3179 35.8686C43.2511 35.8352 43.2177 35.8018 43.1508 35.8018C43.1174 35.8018 43.084 35.8686 43.084 35.9354C43.084 35.9354 43.1508 35.9688 43.2177 36.0023Z" fill="#FEFEFE"/>
<path d="M33.3253 45.0253C33.3253 44.9919 33.3587 44.9585 33.3587 44.9251C33.4924 44.8917 33.6261 44.8248 33.5592 44.6577C33.5592 44.6243 33.5258 44.5909 33.4924 44.5575C33.4924 44.4238 33.4255 44.3236 33.3587 44.2233C33.2919 44.1231 33.0914 44.1565 32.9911 44.1565C32.8574 44.1899 32.7906 44.2233 32.7572 44.2233C32.423 44.3236 32.423 44.3904 32.5232 44.7246C32.5901 44.9919 32.824 44.9585 32.9577 45.0922C33.0245 45.159 33.0914 45.1924 33.1248 45.1924H33.1582C33.225 45.1924 33.2585 45.1256 33.3253 45.0253Z" fill="#FEFEFE"/>
<path d="M42.8166 33.8301C42.85 33.8969 42.9503 33.9638 42.9837 33.9303C43.0505 33.8969 43.0839 33.7967 43.1508 33.7633C43.0839 33.7298 43.0171 33.6964 42.85 33.5627C42.8166 33.663 42.7832 33.7633 42.8166 33.8301Z" fill="#FEFEFE"/>
<path d="M41.9805 38.3751C42.0139 38.4419 42.0807 38.4419 42.181 38.5088C42.2144 38.4085 42.2478 38.3417 42.2144 38.3083C42.181 38.2748 42.0807 38.2414 42.0473 38.208C42.0473 38.2748 41.9805 38.3417 41.9805 38.3751Z" fill="#FEFEFE"/>
<path d="M37.0687 34.7659C36.9685 34.6656 36.8348 34.6991 36.8014 34.8327C36.768 35.1001 36.5675 35.1335 36.3669 35.2003C36.2333 35.2337 36.0996 35.2672 35.9993 35.334C35.9325 35.3674 35.8991 35.4677 35.7988 35.6014C36.0662 35.7016 36.2667 35.8687 36.4672 35.8353C36.8682 35.8019 37.2692 35.6682 37.6703 35.5345C38.0713 35.4008 38.205 35.4343 38.4055 35.8019C38.4389 35.8687 38.5391 35.969 38.606 35.969C38.7731 35.9355 38.7062 35.8019 38.7062 35.7016C38.7062 35.6682 38.6728 35.6348 38.6728 35.5679C38.606 35.2337 38.6394 35.2337 38.9736 35.1669C39.3412 35.1001 39.6754 34.9664 40.0095 34.8661C40.2769 34.7993 40.5108 34.6991 40.7782 34.6322C41.246 34.4985 41.7473 34.3983 42.2152 34.2646C42.2486 34.2646 42.3154 34.2312 42.3154 34.2312C42.3488 34.1644 42.4157 34.0975 42.4157 34.0307C42.4157 33.9639 42.3488 33.897 42.282 33.8636C42.1817 33.7968 42.0815 33.7299 41.9812 33.6965C41.9144 33.6631 41.8141 33.6631 41.7473 33.6631C41.1792 33.8302 40.6111 34.0307 40.043 34.1978C39.8759 34.2646 39.7422 34.298 39.7088 34.4985C39.6754 34.6322 39.5417 34.6991 39.4414 34.5654C39.3078 34.3315 39.1407 34.3983 38.9402 34.4651C38.4389 34.5988 37.9376 34.7325 37.4363 34.8327C37.3361 34.8661 37.2024 34.933 37.0687 34.7659Z" fill="#FEFEFE"/>
<path d="M41.5803 31.0563C41.5803 31.0229 41.48 30.9561 41.4132 30.9561C41.3463 30.9561 41.3129 31.0563 41.2461 31.1231C41.3463 31.1566 41.4132 31.2234 41.48 31.2234C41.5134 31.19 41.5803 31.0897 41.5803 31.0563Z" fill="#FEFEFE"/>
<path d="M43.4855 33.262C43.452 33.262 43.4186 33.3289 43.3184 33.3957C43.4186 33.4291 43.452 33.4291 43.4855 33.4291C43.5189 33.3957 43.5523 33.3623 43.5523 33.3289C43.5523 33.2955 43.5189 33.2286 43.4855 33.262Z" fill="#FEFEFE"/>
<path d="M44.5538 35.2003C44.5204 35.2671 44.4536 35.3005 44.4201 35.3339C44.3867 35.4008 44.3867 35.501 44.3867 35.501C44.4201 35.501 44.4536 35.501 44.487 35.5344C44.5538 35.3674 44.6206 35.1668 44.6875 34.9998C44.6206 35.0332 44.5872 35.1334 44.5538 35.2003Z" fill="#FEFEFE"/>
<path d="M44.9556 33.095C44.7885 33.095 44.6214 33.1618 44.4543 33.2286C44.4209 33.2621 44.4543 33.4292 44.4543 33.5628C44.4543 33.6297 44.4877 33.6631 44.4877 33.7299C44.5211 33.8302 44.5546 33.9639 44.588 34.0641C44.6214 34.0975 44.6882 34.1644 44.7217 34.1644C44.7551 34.1644 44.8219 34.0975 44.8553 34.0641C44.9222 33.9639 44.9556 33.8302 45.0224 33.7299C45.0224 33.6631 45.0558 33.5962 45.0558 33.5294C45.1227 33.3289 45.0558 33.095 44.9556 33.095Z" fill="#FEFEFE"/>
<path d="M42.3819 30.6887C42.3485 30.6887 42.3151 30.7556 42.2148 30.789C42.3819 30.8558 42.4154 30.8558 42.4822 30.8892C42.4822 30.8558 42.549 30.789 42.5156 30.7556C42.4822 30.7221 42.4154 30.6887 42.3819 30.6887Z" fill="#FEFEFE"/>
<path d="M40.8118 31.4239C40.8787 31.3905 40.9121 31.3237 40.9455 31.2568C40.8787 31.2234 40.8452 31.1566 40.7784 31.1231C40.6781 31.0563 40.5779 31.0229 40.4776 30.9895C40.4108 30.9561 40.344 30.9895 40.3105 30.9561C40.3105 31.1231 40.3105 31.2902 40.344 31.4573C40.344 31.4908 40.5111 31.5242 40.5779 31.5242C40.6781 31.4908 40.7784 31.4573 40.8118 31.4239Z" fill="#FEFEFE"/>
<path d="M33.4266 38.8095C33.4935 38.8095 33.5937 38.776 33.6606 38.776C33.8611 38.776 34.095 38.7092 34.2955 38.776C34.5295 38.8763 34.5629 38.776 34.5629 38.6089C34.5963 38.2748 34.496 38.2079 34.1953 38.2748C34.1284 38.3082 34.0282 38.3082 33.9613 38.3416C33.9613 38.3416 33.9613 38.3416 33.9613 38.3082C33.7608 38.4084 33.5603 38.5087 33.3598 38.6089C33.3264 38.6424 33.293 38.7092 33.293 38.7426C33.3264 38.7426 33.3932 38.8095 33.4266 38.8095Z" fill="#FEFEFE"/>
<path d="M39.5413 40.8479C39.5747 40.9147 39.675 40.9481 39.7084 40.9481C39.7752 40.9481 39.8087 40.8479 39.8087 40.781C39.8087 40.7142 39.7752 40.6474 39.7752 40.6474C39.7418 40.5471 39.7418 40.5137 39.7084 40.4803C39.675 40.38 39.6082 40.2798 39.4745 40.3466C39.4076 40.38 39.3742 40.5137 39.4076 40.5805C39.4411 40.6474 39.4745 40.7476 39.5413 40.8479Z" fill="#FEFEFE"/>
<path d="M40.0761 41.4496C39.909 40.9483 39.8422 40.9149 39.508 41.0152C39.3075 41.082 39.3743 41.2157 39.3409 41.3493C39.3075 41.483 39.3743 41.6501 39.4412 41.7838C39.5748 42.0177 39.8088 41.9843 39.9759 41.884L40.0093 41.8506C40.0761 41.7504 40.0427 41.5833 40.0761 41.4496Z" fill="#FEFEFE"/>
<path d="M39.3741 35.6347C39.3073 35.5678 39.2404 35.5344 39.1736 35.501C39.1402 35.5678 39.0733 35.6681 39.1068 35.7349C39.1068 35.8352 39.1736 35.902 39.2404 35.9688C39.2739 36.0023 39.3407 36.0357 39.3741 36.0357C39.4075 36.0357 39.4409 35.9688 39.4409 35.902C39.4409 35.8352 39.4075 35.7683 39.4075 35.7015C39.3741 35.6681 39.3741 35.6347 39.3741 35.6347Z" fill="#FEFEFE"/>
<path d="M39.4088 36.2698C39.3754 36.3032 39.342 36.3366 39.3086 36.4034C39.3754 36.4369 39.4088 36.5037 39.4423 36.5037C39.4757 36.5037 39.5425 36.4369 39.5425 36.4034C39.5091 36.3366 39.4423 36.3032 39.4088 36.2698Z" fill="#FEFEFE"/>
<path d="M33.4933 36.2362C33.4933 36.2028 33.4264 36.1694 33.393 36.136C33.3596 36.2028 33.3262 36.2362 33.3262 36.2697C33.3596 36.3031 33.393 36.3365 33.4264 36.3365C33.4598 36.3031 33.4933 36.2697 33.4933 36.2362Z" fill="#FEFEFE"/>
<path d="M37.0697 42.0511C37.1699 42.3519 37.2702 42.3853 37.5375 42.2516C37.7046 42.1848 37.738 42.0845 37.7046 41.9509C37.6712 41.7838 37.6378 41.6501 37.5709 41.483C37.5375 41.3159 37.4373 41.2157 37.2368 41.2491C36.9694 41.3159 36.9026 41.3828 36.9694 41.6501C36.9694 41.7169 37.0028 41.8172 37.0028 41.8506C37.0363 41.9509 37.0363 42.0177 37.0697 42.0511Z" fill="#FEFEFE"/>
<path d="M38.8398 37.2723C38.9067 37.2389 38.9735 37.2389 39.0069 37.1721C39.0403 37.1386 39.0403 37.0718 39.0737 37.0384C38.9735 37.0384 38.8732 36.9715 38.8064 37.005C38.7062 37.0384 38.6393 37.1386 38.5391 37.2055C38.5725 37.2389 38.6059 37.2723 38.6727 37.2723C38.7062 37.3057 38.773 37.2723 38.8398 37.2723Z" fill="#FEFEFE"/>
<path d="M38.0716 41.0819C37.8377 41.1153 37.8711 41.2824 37.9379 41.4161C38.0047 41.6835 38.0716 41.7503 38.3389 41.65C38.6063 41.5832 38.6397 41.5164 38.5728 41.2824C38.4726 41.0485 38.3389 41.0151 38.0716 41.0819Z" fill="#FEFEFE"/>
<path d="M34.9308 43.5549C34.9308 43.5215 34.8639 43.5215 34.8305 43.488C34.7971 43.5883 34.7637 43.6551 34.7637 43.7554V43.7888C34.8973 43.7554 34.9976 43.722 34.9308 43.5549Z" fill="#FEFEFE"/>
<path d="M30.4848 31.4909C30.4848 31.5243 30.6185 31.5578 30.6519 31.5578C30.7188 31.4909 30.7522 31.4241 30.7522 31.3573C30.7522 31.2904 30.7188 31.2236 30.7188 31.1567C30.6519 31.1902 30.5517 31.1902 30.5183 31.257C30.4514 31.2904 30.4514 31.3907 30.4848 31.4909Z" fill="#FEFEFE"/>
<path d="M31.521 31.1568H31.6213C31.6547 31.0231 31.6881 30.856 31.6547 30.7223C31.6547 30.6555 31.4876 30.5553 31.4208 30.5887C31.1868 30.6555 30.9529 30.7558 30.7524 30.8894C30.719 30.9228 30.719 31.0565 30.6855 31.1234C30.9863 31.0565 31.2537 30.8894 31.521 31.1568Z" fill="#FEFEFE"/>
<path d="M31.1871 31.3237C31.1536 31.2903 31.0868 31.2568 31.0534 31.2568C31.02 31.2903 30.9531 31.3571 30.9531 31.3905C30.9531 31.4239 30.9865 31.4908 31.0534 31.5576C31.1202 31.4239 31.1536 31.3571 31.1871 31.3237Z" fill="#FEFEFE"/>
<path d="M31.4551 33.897C31.5553 34.131 31.7224 34.0641 31.9229 34.0307C31.9563 34.0307 31.9898 34.0307 31.9898 33.9973C32.0566 33.9304 32.1234 33.8636 32.2237 33.7968C32.1569 33.7299 32.0566 33.6965 31.9898 33.6297C31.9229 33.5963 31.8227 33.5963 31.7892 33.5628C31.6556 33.3289 31.4551 33.4626 31.288 33.4626C31.2546 33.4626 31.1543 33.5628 31.1543 33.6297C31.1543 33.6965 31.2211 33.7968 31.288 33.8302C31.288 33.8636 31.4216 33.8636 31.4551 33.897Z" fill="#FEFEFE"/>
<path d="M30.4528 33.3957C30.4862 33.2955 30.5531 33.2286 30.5531 33.1618C30.5531 33.1284 30.4528 33.0949 30.4194 33.0615C30.386 33.1284 30.3191 33.1618 30.3191 33.2286C30.2857 33.2955 30.386 33.3289 30.4528 33.3957Z" fill="#FEFEFE"/>
<path d="M30.0178 44.524C30.0512 44.5908 30.1515 44.6576 30.2183 44.7245C30.2517 44.6576 30.2851 44.5574 30.2851 44.4905C30.2851 44.29 30.2517 44.1564 30.4188 43.9893C30.5525 43.889 30.352 43.4212 30.2183 43.3543C30.118 43.3209 30.0178 43.2541 29.9175 43.1872C29.8507 43.1538 29.7839 43.1538 29.7504 43.1538C29.717 43.1872 29.6836 43.2541 29.6836 43.3209C29.717 43.5214 29.7839 43.7219 29.8507 43.889C29.8841 44.1229 29.9175 44.3235 30.0178 44.524Z" fill="#FEFEFE"/>
<path d="M29.9172 39.2439C29.817 39.2439 29.6833 39.3107 29.6165 39.411C29.5496 39.5112 29.5162 39.5781 29.4494 39.6783C29.3825 39.7786 29.3491 39.8788 29.2823 40.0125C29.3825 40.1462 29.4828 40.213 29.5496 40.3133C29.6165 40.2465 29.6499 40.1462 29.7167 40.0794C29.7836 40.0125 29.8838 39.9457 29.9841 39.8788C30.0843 39.8454 30.1846 39.7786 30.2848 39.7452C30.4519 39.8788 30.4853 40.1462 30.3517 40.3133C30.218 40.4804 30.218 40.5472 30.3851 40.6475C30.5856 40.7811 30.619 41.0151 30.5522 41.249C30.5188 41.2824 30.5188 41.3493 30.5188 41.4161C30.3851 41.4495 30.1846 41.5163 30.1177 41.5832C30.0843 41.6166 30.0509 41.6166 30.0175 41.65C29.8838 41.7503 29.8838 41.8505 30.0509 41.884C30.1512 41.9174 30.218 41.9842 30.2848 42.0176C30.3851 42.051 30.4519 42.0845 30.4853 42.0845C30.5522 42.285 30.619 42.4521 30.6859 42.6526C30.6859 42.7194 30.7193 42.7862 30.7527 42.8197C30.6859 42.8197 30.6524 42.8197 30.619 42.8531C30.5856 42.8865 30.5856 43.0202 30.5856 43.087C30.6524 43.2541 30.7861 43.3878 31.02 43.3878C31.0535 43.3878 31.1203 43.3878 31.1537 43.3878C31.1537 43.3878 31.1537 43.4212 31.1871 43.4212C30.8864 43.6885 31.1203 43.7888 31.3208 43.9225C31.3542 43.9559 31.3542 43.9893 31.3876 44.0227C31.5213 44.1898 31.7218 44.0896 31.8555 44.0561C32.0226 44.0227 31.9892 43.8891 31.9558 43.7554C31.9223 43.6551 31.9223 43.5549 31.8889 43.4546C31.9558 43.3878 32.0226 43.3209 32.056 43.2207C32.0894 43.1539 32.1563 43.0536 32.1897 42.9868C32.2231 42.8865 32.2565 42.7528 32.3234 42.6526C32.2231 42.5523 32.1897 42.4521 32.1228 42.4186C32.056 42.3852 31.8555 42.4186 31.6884 42.4855C31.6216 42.2181 31.5547 41.9174 31.4879 41.65C31.4545 41.5498 31.3876 41.4161 31.3208 41.4161C31.0535 41.3493 31.0535 41.1153 31.0535 40.9482C31.0535 40.848 31.2874 40.7477 31.4211 40.7143C31.6216 40.6475 31.8221 40.6475 32.0226 40.5806C32.0894 40.5472 32.1563 40.4804 32.1897 40.4135C32.0894 40.3801 32.0226 40.3133 31.9223 40.3133C31.8221 40.3133 31.7552 40.3467 31.655 40.3801C31.4879 40.4135 31.3542 40.447 31.1871 40.4804C31.02 40.5138 30.9198 40.447 30.8529 40.2799C30.7861 40.0459 30.7527 39.7786 30.6859 39.5447C30.619 39.3442 30.5856 39.1436 30.5188 38.9097C30.4853 38.776 30.4853 38.6424 30.619 38.5087C30.7193 38.4419 30.7861 38.3082 30.8195 38.2079C30.8529 38.2079 30.8529 38.2079 30.8864 38.2079C31.0869 38.1411 31.254 38.0743 31.1537 37.8069C31.1537 37.7735 31.1203 37.7401 31.1203 37.7067C31.1537 37.7067 31.1537 37.7067 31.1871 37.7067C31.3208 37.6732 31.4879 37.6398 31.6216 37.6064C31.7887 37.6398 31.9892 37.573 32.1897 37.5396C32.2899 37.5396 32.457 37.5061 32.5239 37.573C32.7244 37.8069 32.8915 37.6398 33.0586 37.6064C33.092 37.6064 33.1588 37.5061 33.1588 37.4393C33.1588 37.4059 33.092 37.339 33.0251 37.3056C32.691 37.172 32.691 37.1385 32.9583 36.8712C33.1254 36.7041 33.0251 36.3031 32.7912 36.3031C32.6241 36.3031 32.4904 36.2697 32.4236 36.136C32.4236 36.136 32.2231 36.1694 32.2231 36.2028C32.1897 36.5704 31.8889 36.5704 31.6216 36.6373C31.3542 36.7041 31.0869 36.7375 30.8195 36.8044C30.5856 36.8712 30.3851 36.9714 30.3183 37.2722C30.2848 37.4727 30.1512 37.4727 30.0175 37.3056C29.9172 37.172 29.817 37.1385 29.6833 37.172C29.583 37.2054 29.5162 37.2388 29.416 37.2388C29.3491 37.2388 29.2823 37.2722 29.2154 37.2722C28.7142 37.4059 28.6473 37.6064 28.8144 38.0743C28.8813 38.2748 28.9815 38.375 29.2154 38.3416C29.4828 38.2748 29.7501 38.2413 30.0175 38.1745H30.0509C30.0509 38.2079 30.0843 38.2748 30.0843 38.3082C30.1177 38.4419 30.1177 38.5755 30.1512 38.7092C30.1846 38.8429 30.1846 38.9431 30.0843 39.0434C29.9841 39.0768 29.9506 39.1771 29.9172 39.2439Z" fill="#FEFEFE"/>
<path d="M30.4525 29.7864C30.4859 29.753 30.5193 29.6862 30.5527 29.6193C30.4859 29.5859 30.419 29.5525 30.3856 29.5525C30.3522 29.5525 30.3188 29.6527 30.252 29.7196C30.3522 29.753 30.4525 29.8198 30.4525 29.7864Z" fill="#FEFEFE"/>
<path d="M32.5575 31.023C32.8583 30.9561 33.0254 30.7556 32.9585 30.5551C32.8917 30.3212 32.758 30.2544 32.4572 30.3212C32.3236 30.3546 32.0228 30.7891 32.0896 30.9227C32.1899 31.0898 32.3904 31.023 32.5575 31.023Z" fill="#FEFEFE"/>
<path d="M37.7377 32.1591C37.7377 32.1925 37.838 32.2593 37.8714 32.2593C38.1053 32.1925 38.3727 32.1591 38.6066 32.0588C38.64 32.0588 38.7069 31.9251 38.6734 31.8583C38.6734 31.8249 38.5398 31.7581 38.5064 31.7581C38.3727 31.7581 38.2724 31.7915 38.1387 31.8249C38.0385 31.8583 37.9048 31.8917 37.8046 31.9251C37.7377 31.992 37.7043 32.0922 37.7377 32.1591Z" fill="#FEFEFE"/>
<path d="M35.5312 30.0539C35.7317 29.9871 35.6649 29.82 35.6315 29.6863C35.5981 29.5526 35.4978 29.419 35.3641 29.4858C35.2639 29.5192 35.2639 29.6863 35.2305 29.7531C35.2973 29.9537 35.3307 30.1542 35.5312 30.0539Z" fill="#FEFEFE"/>
<path d="M36.5683 24.64C36.5015 24.6066 36.4347 24.5732 36.3678 24.6066C36.3344 24.6066 36.301 24.7069 36.2676 24.7737C36.2676 24.8405 36.2676 24.9408 36.301 25.0745C36.3344 25.1079 36.4347 25.275 36.5015 25.2416C36.6352 25.2082 36.7689 25.1079 36.9025 25.0076C36.8357 24.9408 36.7689 24.874 36.702 24.8071C36.6686 24.7737 36.6352 24.6735 36.5683 24.64Z" fill="#FEFEFE"/>
<path d="M33.8276 33.663C33.861 33.7966 33.8945 33.9637 33.9613 34.0974C33.7608 34.1642 33.5603 34.2311 33.3598 34.2645C33.3598 34.2645 33.3598 34.2645 33.3598 34.2311C33.3263 34.2311 33.2929 34.2311 33.2929 34.2645C33.1593 34.2979 33.059 34.3647 33.0924 34.5318C33.1258 34.6989 33.2595 34.6989 33.3932 34.6655C33.46 34.6655 33.5603 34.6321 33.6271 34.6321C33.6939 34.6321 33.8276 34.6321 33.8276 34.6655C33.9279 34.9328 34.2621 34.7658 34.3957 34.9997C34.4626 34.9663 34.5628 34.9328 34.5962 34.866C34.6297 34.7992 34.5962 34.6989 34.5962 34.6321C34.5962 34.5987 34.5962 34.5987 34.5962 34.5652C34.7633 34.5318 34.8302 34.3982 34.7633 34.2645C34.8302 34.2311 34.9304 34.1976 35.0307 34.2311C35.1309 34.2645 35.2312 34.3982 35.298 34.4984C35.4317 34.6655 35.8327 34.7323 35.8996 34.5652C35.9998 34.2645 36.2337 34.1976 36.4343 34.1308C36.5011 34.0974 36.5345 34.0306 36.5345 33.9637C36.5679 33.7632 36.735 33.7298 36.8687 33.663C37.0024 33.6295 37.136 33.5961 37.2363 33.5293C37.3031 33.4959 37.3031 33.3956 37.3366 33.3288C37.2697 33.2954 37.2029 33.2285 37.136 33.2285C36.9021 33.2619 36.6348 33.2619 36.4008 33.3288C36.2003 33.3956 35.9664 33.3956 35.933 33.6964C35.933 33.7632 35.5654 33.8969 35.4651 33.8635C35.1644 33.7298 34.897 33.7966 34.6297 33.8635C34.5962 33.8635 34.5628 33.8969 34.5294 33.8969C34.4626 33.6964 34.3957 33.5293 34.1284 33.4624C34.095 33.4624 34.0616 33.3288 34.0281 33.2619C33.8276 33.2954 33.7608 33.429 33.8276 33.663Z" fill="#FEFEFE"/>
<path d="M35.933 29.3187C35.7993 29.419 35.7993 29.5527 35.8662 29.6863C35.933 29.7866 36.0333 29.9203 36.1001 29.9537C36.3674 30.0205 36.5345 29.8534 36.6014 29.5861C36.6014 29.5192 36.6682 29.4858 36.7016 29.419C36.8353 29.2519 36.8019 29.1851 36.6014 29.1851C36.4677 29.1851 36.334 29.1851 36.2338 29.1851C36.1335 29.2185 36.0333 29.2519 35.933 29.3187Z" fill="#FEFEFE"/>
<path d="M39.7087 32.694C39.575 32.6271 39.5081 32.46 39.3411 32.5603C39.2074 32.6605 39.0403 32.694 38.94 32.8276C38.8398 32.9947 38.7729 32.9613 38.6393 32.8611C38.4722 32.7274 38.3051 32.7608 38.2717 32.9613C38.2382 33.1284 38.138 33.1618 38.0377 33.2287C37.9041 33.2955 37.6701 33.2955 37.7704 33.5294C37.8706 33.7634 38.0377 33.6297 38.2048 33.5963C38.2382 33.5963 38.3051 33.5963 38.3051 33.5628C38.6393 33.3289 39.0403 33.3289 39.4079 33.2287C39.575 33.1952 39.7087 33.1284 39.8423 33.3289C39.8757 33.3623 40.0763 33.2955 40.1097 33.2955C40.1431 32.9613 40.4104 32.9947 40.6109 32.8945C40.778 32.8276 40.9785 32.7942 41.1456 32.7274C41.2125 32.694 41.3462 32.6271 41.3462 32.5603C41.3796 32.3264 41.4798 32.3264 41.6803 32.3932C41.814 32.4266 42.0145 32.4266 42.1482 32.3932C42.215 32.3598 42.2484 32.1927 42.3153 32.1259C42.4155 31.9922 42.5158 31.9922 42.6495 32.059C42.7831 32.1259 42.9168 32.1593 43.0505 32.1593C43.2844 32.1593 43.3178 32.0256 43.251 31.8251C43.1842 31.6914 43.1507 31.4575 42.9168 31.5577C42.6495 31.6246 42.3821 31.7248 42.1482 31.7917C42.0145 31.8251 41.9143 31.8919 41.8808 32.059C41.8474 32.2595 41.7138 32.2929 41.5801 32.1593C41.413 31.9588 41.3127 32.0256 41.2125 32.2261C41.1791 32.2929 41.012 32.3264 40.9451 32.2929C40.7446 32.1593 40.6109 32.1927 40.5107 32.4266C40.4104 32.6271 39.8757 32.7942 39.7087 32.694Z" fill="#FEFEFE"/>
<path d="M36.7679 31.9586C36.5674 32.0589 36.6676 32.2594 36.6676 32.4265C36.6676 32.5602 36.7679 32.627 36.935 32.5936C37.1355 32.5267 37.0687 32.3596 37.0353 32.226C36.9684 32.0923 36.9684 31.8584 36.7679 31.9586Z" fill="#FEFEFE"/>
<path d="M33.2595 32.6604C33.1926 32.4933 32.9921 32.5601 32.9587 32.7606C32.9253 32.8609 32.8584 32.9611 32.825 33.0614C32.6913 33.2619 32.7582 33.6629 32.9253 33.6963C33.1258 33.7298 33.4265 33.5627 33.5268 33.3622C33.5936 33.1951 33.9612 33.028 34.0615 33.1282L34.0949 33.1616C34.0949 33.1951 34.0949 33.2285 34.1283 33.2619C34.1618 33.2619 34.1617 33.2285 34.1952 33.2285C34.3623 33.3287 34.5294 33.2619 34.6964 33.2285C34.7633 33.1951 34.8635 33.1616 34.9638 33.1282C35.1977 33.0614 35.2311 32.9277 35.1643 32.7272C35.0975 32.5267 35.0306 32.4264 34.7967 32.4933C34.6296 32.5601 34.4625 32.5935 34.262 32.627C34.2286 32.627 34.2286 32.5935 34.1952 32.627C34.1617 32.627 34.1618 32.6604 34.1283 32.6604C34.0281 32.6938 33.9278 32.7272 33.7941 32.7606C33.5602 32.8275 33.3931 32.9277 33.2595 32.6604Z" fill="#FEFEFE"/>
<path d="M34.3945 23.2365C34.3945 23.2031 34.2943 23.1362 34.2274 23.1362C34.194 23.1362 34.1272 23.2365 34.0938 23.3033C34.194 23.3702 34.2274 23.4036 34.2943 23.437C34.3277 23.3702 34.3945 23.3033 34.3945 23.2365Z" fill="#FEFEFE"/>
<path d="M34.0278 30.3211C33.8941 30.2208 33.8272 30.1205 33.727 30.0537C33.6936 30.1874 33.6602 30.3211 33.6602 30.4547C33.6602 30.5216 33.7938 30.555 33.8607 30.6218C33.8941 30.5216 33.9609 30.4547 34.0278 30.3211Z" fill="#FEFEFE"/>
<path d="M30.7198 34.3314C30.8201 34.2646 30.8201 34.1309 30.9203 33.9972C30.7867 33.897 30.7198 33.7633 30.5861 33.7299C30.4859 33.6965 30.4191 33.9638 30.4859 34.1978C30.5527 34.298 30.6196 34.3983 30.7198 34.3314Z" fill="#FEFEFE"/>
<path d="M25.8075 29.9537C25.8075 30.0205 25.9078 30.0873 26.008 30.1876C26.0749 30.0205 26.1083 29.9537 26.1083 29.8868C26.0749 29.82 25.9746 29.7866 25.9078 29.7197C25.8743 29.82 25.7741 29.8868 25.8075 29.9537Z" fill="#FEFEFE"/>
<path d="M24.5028 34.4318C24.5697 34.3983 24.6365 34.2981 24.7367 34.131C24.5362 34.0976 24.4026 34.0642 24.3023 34.0976C24.2021 34.131 24.0015 34.131 24.035 34.3315C24.0684 34.3984 24.3691 34.4986 24.5028 34.4318Z" fill="#FEFEFE"/>
<path d="M24.604 36.1359C24.7043 36.1359 24.7711 36.1693 24.8714 36.2027C24.9716 36.2362 25.0719 36.303 25.1721 36.2696C25.6066 36.1693 26.0744 36.0357 26.5089 35.902C26.6091 35.8686 26.7428 35.8017 26.7428 35.7683C26.7762 35.4675 27.0101 35.4675 27.2107 35.3673C27.3443 35.3004 27.5783 35.2336 27.6117 35.0999C27.6785 34.9328 27.7788 34.866 27.9124 34.8326C28.0795 34.7992 28.2466 34.7658 28.3803 34.6989C28.4471 34.6655 28.5474 34.5652 28.5474 34.4984C28.5808 34.2645 28.3135 34.064 28.0795 34.064C27.9459 34.064 27.7788 34.0974 27.6451 34.1308C27.5114 34.1642 27.4446 34.2311 27.4446 34.3981C27.4446 34.5652 27.3443 34.6655 27.1772 34.6989L27.2107 34.6655C27.1104 34.6321 27.0436 34.5652 26.9433 34.4984C26.8765 34.5318 26.843 34.5987 26.7762 34.6321C26.7428 34.5987 26.7428 34.5318 26.7094 34.465C26.676 34.3982 26.676 34.3313 26.6425 34.2645C26.6091 34.2311 26.5757 34.2311 26.5423 34.2311C26.5089 34.2311 26.4754 34.2979 26.4754 34.3313C26.4754 34.3982 26.5089 34.465 26.5089 34.5318C26.5757 34.866 26.5757 34.866 26.2081 34.9663C26.1413 34.9663 26.1078 34.9997 26.041 34.9997C25.8405 35.0331 25.6066 35.2002 25.4395 34.9328C25.3392 34.7992 24.8714 34.9328 24.8379 35.0665C24.8045 35.3004 24.6374 35.3673 24.4703 35.4675C24.2698 35.6012 24.3367 35.8017 24.3701 35.9688C24.3367 36.1693 24.5038 36.1359 24.604 36.1359Z" fill="#FEFEFE"/>
<path d="M27.3105 30.5551C27.2771 30.4882 27.1769 30.4548 27.11 30.4214C27.0766 30.4882 27.0098 30.5885 27.0098 30.6553C27.0098 30.7222 27.11 30.7556 27.2437 30.8558C27.2771 30.6887 27.344 30.6219 27.3105 30.5551Z" fill="#FEFEFE"/>
<path d="M26.0749 25.5422C26.0414 25.5757 26.008 25.6091 25.9746 25.6759C26.0414 25.7093 26.1083 25.7093 26.1083 25.7093C26.1417 25.6759 26.1417 25.6425 26.1417 25.5757C26.1751 25.5757 26.1083 25.5422 26.0749 25.5422Z" fill="#FEFEFE"/>
<path d="M23.1669 20.3625C23.1335 20.3625 23.1 20.4628 23.0332 20.5631C23.1335 20.5965 23.2337 20.6633 23.2671 20.6299C23.3005 20.5965 23.334 20.5296 23.3674 20.4628C23.3005 20.396 23.2337 20.3625 23.1669 20.3625Z" fill="#FEFEFE"/>
<path d="M26.9441 20.4628C26.8773 20.3291 26.6768 20.2957 26.5765 20.4293C26.5097 20.563 26.4429 20.6633 26.376 20.7969C26.3092 20.9306 26.3426 21.0309 26.5097 21.0309C26.5765 21.0309 26.6768 20.9974 26.7436 20.9974C27.0778 20.9306 27.0444 20.7635 26.9441 20.4628Z" fill="#FEFEFE"/>
<path d="M26.0751 31.6245C26.1086 31.7582 26.142 31.9587 26.3425 31.8919C26.543 31.825 26.4762 31.658 26.4427 31.5243C26.4093 31.3906 26.3759 31.2569 26.2088 31.2904C26.0083 31.3238 26.0751 31.4909 26.0751 31.6245Z" fill="#FEFEFE"/>
<path d="M26.8431 25.5757C26.7763 25.6425 26.7428 25.6759 26.6426 25.8096C26.7763 25.8764 26.8431 25.9433 26.9099 25.9433C26.9433 25.9433 27.0436 25.8096 27.0102 25.7762C26.9768 25.6759 26.8765 25.6425 26.8431 25.5757Z" fill="#FEFEFE"/>
<path d="M26.0736 39.6449C26.0736 39.7118 26.1738 39.8454 26.2073 39.8454C26.3075 39.8454 26.4412 39.7452 26.4412 39.6784C26.4746 39.4444 26.6083 39.4444 26.7754 39.3776C26.8756 39.3442 27.0093 39.3108 27.1096 39.2773C27.1764 39.2439 27.2767 39.1437 27.2767 39.0768C27.2767 38.9432 27.143 38.9431 27.0427 38.9431C26.6417 39.01 26.6417 39.01 26.5414 38.6424C26.4412 38.1745 26.3409 38.1077 25.8731 38.2079C25.8062 38.2079 25.706 38.2414 25.5723 38.2748C25.5055 38.3082 25.4052 38.3416 25.2715 38.375C25.071 38.4419 25.071 38.5755 25.1045 38.7761C25.1713 38.9431 25.2381 39.0768 25.4386 39.01C25.6057 38.9766 25.8062 38.9432 26.0068 38.9097C26.0736 38.9097 26.1738 38.9432 26.2407 39.01C26.2741 39.01 26.2073 39.1771 26.1738 39.2105C25.9733 39.3108 26.0402 39.4778 26.0736 39.6449Z" fill="#FEFEFE"/>
<path d="M26.8092 40.9148C26.9763 41.1821 27.1768 41.015 27.3439 40.9482C27.5444 40.8814 27.4442 40.7143 27.4108 40.5806C27.3439 40.2464 27.2771 40.213 26.8092 40.3801C26.7758 40.3801 26.709 40.4135 26.6087 40.4804C26.5419 40.5472 26.475 40.614 26.4082 40.6809C26.475 40.7143 26.5419 40.7811 26.6087 40.8145C26.709 40.848 26.7758 40.8814 26.8092 40.9148Z" fill="#FEFEFE"/>
<path d="M23.6684 21.8998C24.4704 21.8664 25.1388 21.432 25.874 21.2315C25.9074 21.2315 25.9409 21.0978 25.9743 21.0644C25.9074 21.0309 25.8406 20.9641 25.7738 20.9641C25.6401 20.9641 25.4062 21.0309 25.3727 20.9641C25.2057 20.7302 25.0386 20.8304 24.8381 20.8638C24.6375 20.9307 24.437 20.9641 24.2365 21.0309C24.0026 21.0978 23.7687 21.1646 23.5347 21.2315C23.3342 21.2649 23.2005 21.3317 23.2674 21.5991C23.3342 21.8664 23.4011 21.9332 23.6684 21.8998Z" fill="#FEFEFE"/>
<path d="M29.6163 27.3136C29.7834 27.2133 29.9505 27.1465 30.0841 27.0462C30.1176 27.0128 30.1176 26.946 30.1176 26.8791C29.8502 26.9125 29.7834 26.6118 29.5829 26.5784C29.3489 26.5449 29.3155 26.4113 29.2821 26.2776C29.2487 26.1439 29.2153 26.0102 29.1484 25.8766C29.115 25.8097 29.0147 25.7763 28.9479 25.7095C28.9145 25.8097 28.8477 25.8766 28.8477 25.9768C28.8477 26.1105 28.9479 26.2107 28.9479 26.311C28.9813 26.5449 29.0482 26.8457 28.9813 27.0462C28.8811 27.3136 28.9145 27.347 29.1484 27.3136C29.3155 27.347 29.4492 27.347 29.6163 27.3136Z" fill="#FEFEFE"/>
<path d="M28.2126 41.3826C28.246 41.3492 28.2794 41.2824 28.2794 41.249C28.3129 41.0819 28.2794 40.9148 28.3129 40.7811C28.3463 40.614 28.4131 40.4469 28.4799 40.2464C28.3463 40.1462 28.2794 40.0459 28.1792 40.0459C28.0121 40.0459 28.0121 40.1796 28.0121 40.3132C28.0121 40.3801 28.0455 40.4803 28.0455 40.5472C28.0455 40.6474 28.0455 40.7477 27.9787 40.8145C27.7113 41.015 27.9453 41.1821 28.0121 41.3492C28.0789 41.3492 28.1458 41.3492 28.2126 41.3826Z" fill="#FEFEFE"/>
<path d="M28.9142 30.1207C28.8474 29.8868 28.58 30.0204 28.413 30.0204C28.413 30.0204 28.3795 30.0204 28.3461 30.0204C28.2793 30.0539 28.179 30.0873 28.1122 30.1541C28.0454 30.221 28.0454 30.2878 27.9785 30.388C28.0454 30.4215 28.1122 30.4883 28.2124 30.4883C28.2124 30.5217 28.2124 30.5551 28.2124 30.622C28.2459 30.6888 28.2793 30.7557 28.3127 30.8225C28.3795 30.8893 28.4464 30.9562 28.5132 31.023C28.5466 30.9562 28.6135 30.8893 28.6469 30.8225C28.7137 30.7222 28.8474 30.5551 28.8474 30.4883C28.8474 30.4215 28.7806 30.3881 28.7137 30.3546C28.8808 30.3212 28.9811 30.2544 28.9142 30.1207Z" fill="#FEFEFE"/>
<path d="M27.9796 39.0433C28.3138 39.0099 28.3806 38.9096 28.2804 38.5754C28.247 38.4752 28.2136 38.3749 28.1801 38.2747C28.1467 38.1744 28.1133 38.0742 28.0799 37.9739C27.9796 37.6397 27.9462 37.6397 27.612 37.7066C27.4115 37.7734 27.211 37.8068 27.0105 37.8736C26.6095 37.9739 26.5761 38.0407 26.7431 38.4083C26.7766 38.5086 26.8768 38.5754 26.9437 38.6423C27.0105 38.5754 27.0773 38.5086 27.1107 38.4083C27.211 38.2078 27.3113 38.2078 27.4115 38.3749C27.5118 38.5086 27.5786 38.6757 27.612 38.8428C27.7123 38.9765 27.7791 39.0767 27.9796 39.0433Z" fill="#FEFEFE"/>
<path d="M28.314 29.6861C28.3474 29.6193 28.4142 29.5525 28.4142 29.4856C28.3808 29.2851 28.3474 29.0846 28.314 28.8841C28.314 28.8507 28.2472 28.7838 28.2137 28.7504C27.8461 28.6836 28.0801 29.1514 27.7793 29.1849C27.8127 29.2517 27.8127 29.352 27.8461 29.4188C27.9464 29.519 28.0466 29.5525 28.1469 29.6193C28.1803 29.6527 28.2472 29.6861 28.314 29.6861Z" fill="#FEFEFE"/>
<path d="M28.2461 24.9742C28.2461 25.041 28.3463 25.1079 28.4466 25.2081C28.48 25.041 28.5469 24.9742 28.5469 24.9074C28.5469 24.8405 28.4466 24.8071 28.3798 24.7737C28.3463 24.8739 28.2461 24.9408 28.2461 24.9742Z" fill="#FEFEFE"/>
<path d="M28.1134 26.8122C28.08 26.7788 28.1134 26.8122 28.1134 26.8122C27.9129 26.6786 27.7458 26.6117 27.5453 26.5115C27.5119 26.5783 27.4785 26.6451 27.4785 26.6786C27.4785 26.8457 27.5453 26.9793 27.5453 27.1464C27.5453 27.2801 27.5787 27.4472 27.5119 27.514C27.3448 27.6811 27.4116 27.8482 27.4116 28.0153C27.4116 28.0821 27.4451 28.1156 27.4451 28.149C27.4785 28.3495 27.6121 28.4832 27.8461 28.4832C28.08 28.4832 28.1803 28.4163 28.1468 28.1824C28.1468 28.149 28.1803 28.0821 28.2137 28.0487C28.3474 27.8816 28.3808 27.748 28.3139 27.6143C28.5144 27.5474 28.5144 27.4472 28.481 27.2133C28.4476 27.0796 28.3808 26.9459 28.3474 26.7788C28.3139 26.7454 28.2805 26.712 28.2471 26.6786C28.1803 26.712 28.1134 26.7454 28.1134 26.8122ZM28.0132 27.3135C27.9129 27.2467 27.8795 27.1464 28.0466 27.0462L28.08 27.0128C28.0466 27.113 28.0132 27.2133 28.0132 27.3135Z" fill="#FEFEFE"/>
<path d="M27.4106 25.8765C27.3772 25.8765 27.3772 25.9433 27.3438 26.0101C27.4106 26.0101 27.444 26.0436 27.5108 26.0436C27.5443 26.0436 27.5777 25.9767 27.6111 25.8765C27.5108 25.9099 27.444 25.8765 27.4106 25.8765Z" fill="#FEFEFE"/>
<path d="M28.5462 20.162C28.5796 20.3291 28.6465 20.4627 28.847 20.3959C29.1478 20.3291 29.4151 20.2288 29.6824 20.1285C29.9164 20.0617 29.9164 19.928 29.883 19.7275C29.8161 19.527 29.7159 19.4602 29.5154 19.527C29.3817 19.5604 29.2146 19.5939 29.0809 19.6273C28.9472 19.6607 28.7801 19.6941 28.6465 19.7609C28.4125 19.8278 28.5128 20.0283 28.5462 20.162Z" fill="#FEFEFE"/>
<path d="M33.2254 41.0486C33.2588 41.1823 33.2588 41.3828 33.4927 41.3159C33.5596 41.2825 33.5596 41.1154 33.593 40.9818C33.4927 40.9149 33.3925 40.7812 33.2922 40.7812C33.1251 40.7812 33.1919 40.9149 33.2254 41.0486Z" fill="#FEFEFE"/>
<path d="M32.8906 42.3853C32.8906 42.5523 32.9575 42.7863 33.0577 42.8197C33.3585 42.9199 33.6927 43.1205 34.0603 42.9868C34.2274 42.9199 34.3945 42.8531 34.5281 43.0536C34.595 43.1539 34.7621 43.1205 34.7955 43.0202C34.8289 42.686 35.0962 42.5189 35.2299 42.3184C35.3302 42.1513 35.2633 41.7169 35.0962 41.6166C34.9292 41.5498 34.5281 41.7503 34.4947 41.9508C34.4613 42.1513 34.3276 42.1847 34.2274 42.0511C34.0937 41.9174 33.96 41.9174 33.8263 41.9508C33.6927 41.9842 33.5924 42.0176 33.4587 42.0511C33.3251 42.0845 33.2248 42.1179 33.1246 42.1513C33.0243 42.2182 32.8906 42.3184 32.8906 42.3853Z" fill="#FEFEFE"/>
<path d="M41.0459 39.9123C40.9791 40.1462 40.812 40.2465 40.6449 40.3801C40.6115 40.4135 40.5781 40.4804 40.5781 40.5138C40.5446 40.848 40.5781 41.0485 40.7451 41.1488C41.0125 40.8814 41.2464 40.6475 41.5138 40.3801C41.4803 40.213 41.4135 40.0794 41.3467 39.9123C41.2798 39.7786 41.0459 39.7786 41.0459 39.9123Z" fill="#FEFEFE"/>
<path d="M32.7242 43.2875C32.791 43.1538 32.8244 43.087 32.8244 42.9867C32.8244 42.9533 32.6907 42.8865 32.6573 42.8865C32.5905 42.9199 32.5237 42.9867 32.4902 43.0536C32.4902 43.1204 32.5905 43.1872 32.7242 43.2875Z" fill="#FEFEFE"/>
<path d="M35.2311 35.5344C35.0305 35.5678 34.8635 35.6347 34.6964 35.7015C34.5293 35.7349 34.3622 35.7683 34.1951 35.8686C34.0948 35.902 33.9277 36.0023 33.9277 36.0691C33.9612 36.2362 33.9946 36.4701 34.1282 36.5704C34.2619 36.6706 34.429 36.7709 34.5627 36.8712C34.5627 36.9046 34.5627 36.9714 34.5961 37.0717C34.6295 37.3056 34.7632 37.3724 34.9303 37.3056C35.0974 37.2722 35.2645 37.2388 35.2311 37.0382C35.2979 37.0048 35.3981 36.9714 35.465 36.938C35.5318 36.9046 35.4984 36.6706 35.4984 36.537C35.465 36.303 35.3313 36.1025 35.4984 35.8352C35.5652 35.6347 35.4316 35.501 35.2311 35.5344Z" fill="#FEFEFE"/>
<path d="M32.7239 38.7425C32.6571 38.776 32.6237 38.8428 32.5234 38.9765C32.6571 39.0099 32.7574 39.0767 32.8242 39.0767C32.891 39.0433 32.9245 38.943 32.891 38.8428C32.891 38.776 32.7574 38.7091 32.7239 38.7425Z" fill="#FEFEFE"/>
<path d="M35.4641 38.1411C35.297 38.1745 35.0965 38.2079 34.9294 38.2748C34.8959 38.2748 34.8959 38.4753 34.9294 38.5087C35.0296 38.5756 35.1299 38.5421 35.297 38.5756C35.3972 38.5087 35.4975 38.4085 35.5643 38.3082C35.5977 38.3082 35.4975 38.1411 35.4641 38.1411Z" fill="#FEFEFE"/>
<path d="M36.2678 40.1128C36.2678 40.2465 36.2344 40.3133 36.2344 40.3801C36.2678 40.4136 36.3346 40.447 36.4015 40.4804C36.4015 40.4136 36.4349 40.3467 36.4349 40.2799C36.4349 40.1796 36.3681 40.1796 36.2678 40.1128Z" fill="#FEFEFE"/>
<path d="M36.166 44.1564C36.166 44.1898 36.166 44.1898 36.166 44.2232C36.2329 44.1898 36.2997 44.1564 36.3665 44.123C36.3331 44.0896 36.2663 44.123 36.166 44.1564Z" fill="#FEFEFE"/>
<path d="M35.6654 41.4494C35.5986 41.4494 35.5318 41.5497 35.4984 41.5831C35.4984 41.6499 35.5318 41.7502 35.5318 41.817C35.5986 42.0509 35.7657 42.3183 35.4315 42.5188C35.2978 42.5856 35.4315 42.853 35.5986 42.8196C35.7323 42.8196 35.8994 42.7861 36.0331 42.6859C36.0999 42.6525 36.0665 42.5188 36.0999 42.4185C36.1333 42.3517 36.1667 42.3183 36.1667 42.2514C36.2001 42.1512 36.2336 42.0175 36.267 41.9173C36.2336 41.7836 35.7657 41.416 35.6654 41.4494Z" fill="#FEFEFE"/>
<path d="M42.1147 39.4443C42.0145 39.4443 41.8474 39.5112 41.814 39.6114C41.7471 39.7451 41.7806 39.9122 41.814 40.0459C41.9476 39.8788 42.1147 39.7117 42.2484 39.5112C42.215 39.4778 42.1816 39.4443 42.1147 39.4443Z" fill="#FEFEFE"/>
<path d="M29.1481 31.9586C29.1147 31.8249 29.0812 31.6579 29.0144 31.5242C28.9476 31.3905 28.8473 31.3905 28.7471 31.4908C28.6802 31.5576 28.6134 31.6913 28.58 31.6913C28.3795 31.6244 28.1789 31.5576 28.0118 31.4239C27.8113 31.2568 27.4103 31.2568 27.3435 31.4908C27.2766 31.7915 27.0761 31.7915 26.8756 31.8584C26.7754 31.8918 26.7085 31.9252 26.6417 31.992C26.5749 32.0589 26.5414 32.1257 26.4746 32.1925C26.5414 32.226 26.6083 32.2594 26.6751 32.2594C26.8422 32.2928 27.0427 32.226 27.2098 32.3596C27.2432 32.3931 27.4103 32.2928 27.4437 32.226C27.544 31.992 27.7445 31.9586 27.9116 31.992C28.0453 32.0255 28.1789 32.0589 28.2792 32.1257C28.3126 32.226 28.4129 32.3262 28.5131 32.3931C28.58 32.4265 28.6134 32.4933 28.6802 32.5267C28.7805 32.5601 28.8807 32.5936 28.9476 32.5936C28.981 32.5936 29.0144 32.4599 29.0478 32.3596C29.0478 32.3262 29.0478 32.2928 29.0478 32.226C29.1815 32.2594 29.2149 32.1591 29.1481 31.9586Z" fill="#FEFEFE"/>
<path d="M30.9863 39.3775C30.9863 39.4109 31.1534 39.5111 31.1868 39.5111C31.3205 39.4443 31.4542 39.3106 31.5879 39.2104C31.4542 39.1769 31.3539 39.1435 31.1868 39.1101C31.0866 39.2104 30.9863 39.2772 30.9863 39.3775Z" fill="#FEFEFE"/>
<path d="M23.5352 33.2621C23.6688 33.3289 23.7691 33.4292 23.8693 33.4626C24.003 33.496 24.1367 33.4292 24.2704 33.3957C24.5377 33.3289 24.8385 33.1284 25.0724 33.4292C25.0724 33.4292 25.2061 33.3623 25.2395 33.2955C25.2729 33.2621 25.2061 33.1618 25.2395 33.095C25.2395 32.9947 25.2729 32.8945 25.2729 32.7942C25.3732 32.8276 25.4734 32.861 25.5403 32.8945C25.7074 32.9613 26.0081 32.861 26.1084 32.694C26.2086 32.4934 26.1084 32.3263 25.9079 32.2261C25.841 32.1927 25.7742 32.1927 25.7408 32.1258C25.5068 31.8919 25.4734 31.9253 25.2061 32.0924C25.0056 32.2261 25.0724 32.3598 25.0724 32.5269C25.0724 32.7608 25.0056 32.8276 24.8051 32.7274C24.6045 32.6271 24.4375 32.5603 24.2369 32.4934C24.2035 32.4934 24.1367 32.4934 24.1367 32.5269C23.9696 32.6605 23.8025 32.7942 23.6688 32.9613C23.602 32.9947 23.602 33.095 23.5352 33.2621Z" fill="#FEFEFE"/>
<path d="M23.8342 31.4575C23.8342 31.5578 23.8008 31.6246 23.8008 31.658C23.8008 31.6914 23.8676 31.6914 23.901 31.7249C23.9345 31.658 23.9679 31.6246 23.9679 31.5578C23.9679 31.5244 23.901 31.4909 23.8342 31.4575Z" fill="#FEFEFE"/>
<path d="M24.9388 31.4241C25.0056 31.4241 25.0056 31.3238 25.0725 31.257C25.0056 31.2236 24.9388 31.1567 24.9054 31.1567C24.8385 31.1567 24.8051 31.257 24.7383 31.3238C24.8051 31.3573 24.872 31.4241 24.9388 31.4241Z" fill="#FEFEFE"/>
<path d="M32.0891 44.5573C32.0891 44.5239 31.9888 44.457 31.9554 44.457C31.7549 44.4904 31.8551 44.6575 31.8551 44.7578C31.9888 44.7578 32.1225 44.7578 32.0891 44.5573Z" fill="#FEFEFE"/>
<path d="M31.855 44.7913C31.7213 44.8247 31.5877 44.8581 31.454 44.8915C31.3871 44.9249 31.3203 44.9918 31.3203 45.0586C31.3203 45.1923 31.3203 45.3594 31.3871 45.4931C31.5877 45.4596 31.8216 45.4596 32.0221 45.4262C31.9553 45.1923 31.8884 44.9918 31.855 44.7913Z" fill="#FEFEFE"/>
<path d="M24.9722 30.2879C25.0056 30.2544 25.0725 30.1542 25.039 30.1208C25.0056 30.0873 24.9054 30.0205 24.872 30.0205C24.8385 30.0205 24.8051 30.1208 24.7383 30.221C24.8385 30.2879 24.9054 30.3213 24.9722 30.2879Z" fill="#FEFEFE"/>
<path d="M31.3889 47.3647C31.3889 47.3313 31.4223 47.3313 31.4223 47.2979C31.3889 47.2979 31.3555 47.2979 31.3555 47.2979C31.3555 47.3313 31.3555 47.3647 31.3889 47.3647Z" fill="#FEFEFE"/>
<path d="M34.6973 13.0104C34.8978 13.0772 35.0983 13.1441 35.2988 13.2109C35.3322 13.1107 35.3656 13.0438 35.3991 12.977C35.2988 12.9436 35.1651 12.9102 35.0649 12.9102C34.9312 12.9436 34.8309 12.977 34.6973 13.0104Z" fill="#FEFEFE"/>
<path d="M38.3055 45.3594C38.3055 45.2592 38.3389 45.1924 38.4058 45.1589C38.1384 45.326 37.8377 45.4597 37.5703 45.5934C37.6371 45.6268 37.6706 45.6602 37.7374 45.6936C37.8711 45.8273 38.2721 45.56 38.3055 45.3594Z" fill="#FEFEFE"/>
<path d="M36.8016 45.9945C36.9019 45.961 37.0356 45.9276 37.1024 45.8274C37.1024 45.8274 37.1024 45.8274 37.1024 45.7939C36.9687 45.8608 36.8016 45.9276 36.668 45.9945C36.7014 46.0279 36.7682 46.0279 36.8016 45.9945Z" fill="#FEFEFE"/>
<path d="M45.291 38.1745C45.3913 38.2079 45.4581 38.2748 45.4581 38.3416C45.4581 38.1745 45.4581 38.0074 45.4581 37.8403C45.3913 37.9406 45.3579 38.0743 45.291 38.1745Z" fill="#FEFEFE"/>
<path d="M15.8482 15.8839C15.9151 16.0844 15.748 16.1179 15.6143 16.1513C15.5475 16.1847 15.4472 16.1847 15.3804 16.2181C13.4087 18.3235 11.9048 20.8299 10.9691 23.637C11.0026 23.637 11.036 23.6704 11.0694 23.6704C11.036 23.7038 11.0026 23.7373 11.0026 23.7373C11.4704 23.9712 11.2031 24.4056 11.2699 24.7732C11.2699 24.8066 11.1028 24.9403 11.036 24.9403C10.9023 24.9403 10.7686 24.8066 10.7018 24.6396C10.2673 26.1768 10.0334 27.7809 10 29.4518C10.0334 29.4852 10.0334 29.5186 10.0668 29.5521C10.1003 29.6857 10.1003 29.8194 10.1337 29.9531C10.1003 29.9531 10.0334 29.9197 10 29.9197C10 30.9222 10.0668 31.8913 10.2339 32.8271C10.2339 32.8271 10.2339 32.8271 10.2673 32.8271C10.401 32.8939 10.401 33.0276 10.3008 33.1278C10.5347 34.6317 10.9691 36.0686 11.5372 37.4388C11.6041 37.4722 11.6375 37.5391 11.7043 37.6059C11.838 37.773 12.1388 37.372 12.1388 37.7396C12.1388 37.9067 12.0719 38.0738 12.1722 38.2408C12.2056 38.2743 12.1722 38.3745 12.1388 38.4079C12.1054 38.4414 12.0719 38.4748 12.0385 38.5082C12.1722 38.7755 12.3059 39.0095 12.4061 39.2434C12.6401 39.0095 12.8071 38.9426 12.9742 39.1766C13.1079 39.3437 13.0745 39.4439 12.8406 39.5107C12.7737 39.5442 12.7069 39.5442 12.6401 39.5442C12.6066 39.5442 12.5732 39.5442 12.5398 39.5442C12.7737 39.9786 13.0411 40.3796 13.3084 40.7806C13.4755 40.8475 13.5424 40.9812 13.5758 41.1148C13.6426 41.048 13.676 40.9812 13.7429 40.9477C13.7763 40.9143 13.8431 40.9143 13.9768 40.8475C14.0102 40.8475 14.1439 40.8809 14.2441 40.9477C14.2776 40.9812 14.311 41.1482 14.2776 41.1817C14.2107 41.2485 14.077 41.2819 13.9768 41.3153C13.91 41.3488 13.8431 41.3153 13.7763 41.3153C13.7094 41.2819 13.6426 41.2485 13.5758 41.1817C13.5758 41.1817 13.5758 41.1817 13.5758 41.2151C15.2467 43.6212 17.4523 45.6597 20.0255 47.1301C20.0924 47.1301 20.1592 47.1636 20.226 47.197V47.2304C21.0281 47.6983 21.8635 48.0993 22.7658 48.4335C22.7992 48.3332 22.8661 48.2664 22.9329 48.1995C22.9663 48.1661 23.0332 48.1327 23.0666 48.1327C23.4008 48.1995 23.7015 48.2998 24.1026 48.4C24.1026 48.6006 24.1026 48.7342 24.1026 48.8679C24.1026 48.8679 24.1026 48.8679 24.1026 48.9013C25.4059 49.3023 26.7426 49.5697 28.1462 49.7034C28.213 49.6031 28.2799 49.5363 28.3801 49.5028C28.4804 49.4694 28.6475 49.6031 28.7477 49.6699C28.7477 49.7034 28.7811 49.7368 28.7811 49.7702C29.1822 49.8036 29.5832 49.8036 29.9842 49.8036C33.6937 49.8036 37.1692 48.7676 40.1768 46.9965C40.0766 46.8962 40.0431 46.7625 40.0766 46.6289C40.0766 46.562 40.1768 46.4952 40.2102 46.4952C40.6113 46.3615 41.0457 46.2613 41.4801 46.161H41.5136C41.8143 45.9605 42.0817 45.76 42.349 45.5261C42.2153 45.5595 42.1151 45.5929 41.9814 45.6263C41.6806 45.6931 41.4133 45.76 41.1125 45.8602C40.8786 45.9271 40.6781 46.0273 40.511 45.76C40.3773 45.5929 39.9429 45.76 39.8761 45.9939C39.8426 46.1944 39.7424 46.2613 39.5753 46.2947C39.3079 46.3615 39.074 46.4284 38.8067 46.4952C38.5727 46.562 38.3722 46.6623 38.1717 46.3949C38.1383 46.3281 37.9378 46.3281 37.8375 46.3615C37.3028 46.4952 36.7681 46.5954 36.2334 46.7625C36.1332 46.796 36.0329 46.8962 35.9661 46.9965C35.7656 47.3641 35.1975 47.4977 34.8299 47.2638C34.6628 47.1636 34.5291 47.197 34.4957 47.3641C34.4623 47.598 34.2952 47.598 34.1281 47.6648C33.9276 47.7317 33.8273 47.6648 33.6936 47.5312C33.5266 47.3641 33.0253 47.4977 32.9584 47.7317C32.8916 48.0659 32.5908 48.0324 32.3903 48.0993C32.1898 48.1661 31.9559 48.2998 31.7888 47.999C31.7554 47.9656 31.6551 47.9656 31.5883 47.9322C31.5549 48.0324 31.488 48.0993 31.3878 48.1995C31.1539 48.4335 31.0202 48.5337 30.8865 48.5003C30.8197 48.5671 30.686 48.5671 30.4855 48.634C30.1513 48.9013 29.9174 48.3666 29.5832 48.3666C29.5832 48.2664 29.5832 48.1327 29.6166 48.0993C29.8171 47.9322 30.051 47.8653 30.285 47.8653C30.2516 47.7651 30.2181 47.6983 30.2516 47.6648C30.285 47.6314 30.285 47.6314 30.3184 47.598C30.2181 47.598 30.0845 47.598 29.9842 47.598C28.8814 47.598 27.812 47.4977 26.776 47.2972C26.8095 47.3975 26.8095 47.4977 26.8095 47.598C26.8095 47.6648 26.776 47.7985 26.7426 47.8319C26.6758 47.8653 26.5421 47.8653 26.5087 47.7985C26.3082 47.5646 26.1077 47.3307 25.9406 47.0967C25.0383 46.8962 24.1694 46.5954 23.3339 46.2613C23.3339 46.3615 23.3339 46.4284 23.3339 46.4952C23.3339 46.562 23.2671 46.6289 23.2671 46.6957C23.2003 46.6623 23.1334 46.6289 23.1 46.562C23.0332 46.4952 22.9998 46.4284 22.9998 46.3615C22.9663 46.2613 22.9663 46.161 22.9998 46.0942C21.7633 45.5595 20.5936 44.8577 19.5242 44.0556C19.424 44.1559 19.3237 44.2227 19.1901 44.323C19.1232 44.3564 18.9561 44.3564 18.8893 44.323C18.8225 44.2896 18.789 44.0891 18.8225 44.0556C18.9561 43.8551 18.789 43.7215 18.7556 43.5544C18.6888 43.3539 18.5217 43.3873 18.3212 43.3873C18.1207 43.3539 17.9202 43.1868 17.7865 43.0197C17.7531 42.9863 17.8199 42.8526 17.8867 42.7189C17.4857 42.3513 17.1181 41.9503 16.7505 41.5159C16.6503 41.5159 16.5834 41.5159 16.5834 41.4824C16.55 41.4156 16.55 41.3488 16.55 41.2485C16.2158 40.8475 15.9151 40.4465 15.6143 40.012C15.4138 40.012 15.2133 39.9786 15.0796 39.7781C15.0462 39.6778 15.0128 39.5776 14.9793 39.4439C14.9459 39.4439 14.8791 39.4439 14.8457 39.4105C14.8791 39.3771 14.9125 39.3437 14.9459 39.3102C14.9125 39.0763 14.8123 38.9426 14.5783 38.8758C14.2107 38.809 14.0436 38.5416 13.9768 38.174C13.9434 38.174 13.8765 38.174 13.8431 38.174C13.7763 38.174 13.676 38.0069 13.6426 37.9735C13.6426 37.8064 13.6092 37.7396 13.6092 37.6393C13.6092 37.6059 13.7094 37.5056 13.7429 37.5391C13.7094 37.4388 13.7094 37.372 13.8097 37.2717C13.8765 37.2383 13.91 37.1715 13.9768 37.1046C13.7429 36.5699 13.5424 36.0352 13.3418 35.4671C13.1747 35.5674 13.0411 35.5005 12.9074 35.3669C12.7403 35.5005 12.6066 35.6342 12.4395 35.7345C12.3727 35.7679 12.239 35.7345 12.1388 35.7345C12.1388 35.6342 12.1388 35.5005 12.2056 35.4337C12.4395 35.1663 12.6066 35.1329 12.9074 35.3334C13.0077 35.2332 13.1079 35.1663 13.2082 35.0661C12.5732 33.3283 12.3059 31.624 12.3059 29.8528C12.3059 28.8169 12.4061 27.8477 12.5732 26.8452C12.5732 26.8452 12.5732 26.8452 12.5398 26.8117C12.473 26.7449 12.4061 26.5778 12.4395 26.511C12.5064 26.4441 12.5732 26.3773 12.6401 26.3105C13.0077 24.5059 13.6426 22.8015 14.5115 21.2643C14.1773 21.3311 14.0436 21.2643 13.9768 20.9635C13.91 20.6628 13.9434 20.6293 14.3444 20.4957C14.5115 20.4622 14.6117 20.4288 14.6786 20.4622C14.6786 20.3954 14.712 20.362 14.8123 20.362C14.8791 20.362 14.9459 20.362 15.0128 20.4288C15.8816 19.0253 16.9844 17.7554 18.1875 16.686C17.9536 16.7194 17.7197 16.7194 17.5191 16.7528C17.4523 16.7528 17.3855 16.6191 17.2852 16.5189C17.352 16.3852 17.3855 16.2515 17.4523 16.1847C17.4857 16.1513 17.6528 16.2515 17.7531 16.2849C17.8199 16.3184 17.8867 16.3852 17.9536 16.4186C17.987 16.3184 18.0204 16.2515 18.0204 16.1513C18.0873 15.9508 18.3546 15.8171 18.6219 15.8505C18.789 15.8839 18.8225 15.9842 18.8559 16.1179C18.9896 16.0176 19.0898 15.9173 19.2235 15.8505C19.2235 15.7837 19.2903 15.7168 19.3572 15.6834C19.4574 15.6166 19.5911 15.5832 19.6913 15.5163C19.9921 15.2824 20.3263 15.0819 20.6605 14.8814H20.6271C20.2594 14.9482 20.1592 14.8814 20.1258 14.5472C20.0924 14.3467 20.1592 14.2464 20.3263 14.213C20.5602 14.1462 20.7941 14.1128 20.9947 14.0459C21.1283 14.0125 21.2954 14.0125 21.3957 13.9457C21.6964 13.7786 21.9304 13.9122 22.1643 14.0793C24.5036 12.9431 27.1102 12.3082 29.8505 12.3082C30.6192 12.3082 31.3878 12.375 32.123 12.4752C32.4238 12.3416 32.7245 12.2747 33.0587 12.3082C33.0587 12.2747 33.0587 12.2747 33.0587 12.2413C33.0587 12.2079 33.1255 12.1745 33.2592 12.0742C33.2258 12.1076 33.2926 12.0074 33.3595 12.0074C33.4263 11.974 33.56 11.974 33.6268 12.0074C33.6602 12.0408 33.6602 12.1745 33.6268 12.2413C33.5934 12.3082 33.56 12.3416 33.5266 12.4084C33.56 12.4084 33.5934 12.4418 33.6268 12.4418C33.6937 12.4752 33.7605 12.6089 33.7939 12.6758V12.7092C33.9276 12.7426 34.0947 12.776 34.2283 12.8094C34.2283 12.8094 34.2283 12.8094 34.2283 12.776C33.9944 12.375 34.0278 12.2747 34.4957 12.1076C34.763 12.0074 35.1306 12.0408 35.2643 11.7066C35.2309 11.7066 35.3646 11.7066 35.4982 11.6398C35.4648 11.6398 35.4314 11.6064 35.398 11.6064C35.2977 11.5395 35.1975 11.4059 35.0972 11.3056C35.0304 11.2388 34.997 11.1719 34.9301 11.1051V11.1385C34.9301 11.2053 34.8967 11.2722 34.8633 11.3056C34.7965 11.3056 34.6962 11.3056 34.6962 11.3056C34.6294 11.1385 34.5959 10.938 34.5625 10.7375C34.5625 10.7041 34.6962 10.6372 34.6962 10.6372C34.763 10.7041 34.8299 10.7709 34.8633 10.8377C34.8633 10.8043 34.8633 10.7709 34.8967 10.7709C34.9301 10.7375 35.0972 10.7041 35.1306 10.7375C35.3312 10.938 35.5317 11.1385 35.7322 11.339C35.7656 11.4059 35.7656 11.573 35.6988 11.6064C35.6988 11.6064 35.6653 11.6398 35.6319 11.6398C35.8658 11.7066 36.0998 11.74 36.3337 11.8737C36.4674 11.9406 36.4674 12.1411 36.4005 12.3416C36.434 12.3416 36.4674 12.3416 36.5342 12.375C36.6679 12.4084 36.9018 12.375 36.9687 12.4418C37.0355 12.5421 36.9687 12.7426 36.9352 12.8763C36.9018 13.0099 36.9018 13.1436 36.8684 13.2773C36.7347 13.3107 36.6345 13.3441 36.5342 13.3775C36.5008 13.3107 36.5008 13.2105 36.4674 13.1102C36.434 12.9097 36.3671 12.7426 36.0998 12.8429C36.0329 12.8763 35.9661 12.8429 35.8658 12.8094C35.799 12.8763 35.799 13.0099 35.8324 13.2439C35.8324 13.2773 35.8324 13.3441 35.799 13.3775C36.3337 13.5781 36.835 13.7786 37.3697 14.0459C37.4031 14.0459 37.4365 14.0459 37.4365 14.0459C37.5368 14.0459 37.637 14.1128 37.7039 14.0793C37.9044 13.9791 38.038 14.1128 38.1383 14.2464C38.2051 14.3467 38.272 14.4135 38.3388 14.5138C38.4056 14.4804 38.5059 14.4804 38.5727 14.4469C38.8067 14.3801 39.0406 14.3467 39.2411 14.2798C39.475 14.213 39.6755 14.1128 39.8761 14.4135C39.9429 14.4804 40.1768 14.4135 40.3439 14.4135C40.3773 14.4135 40.4107 14.4469 40.4442 14.4469C40.7115 14.3133 40.8118 14.3801 40.8452 14.6809C40.8786 14.8814 40.912 15.0485 40.9454 15.249C40.9454 15.3492 40.9789 15.4495 40.912 15.5163C40.7449 15.9173 40.5778 15.9508 40.2437 15.6166C40.2102 15.5832 40.1434 15.5163 40.11 15.4829C40.0431 15.4161 39.9763 15.3158 39.9095 15.2156C39.8092 15.1153 39.8092 15.015 39.8761 14.9148C39.6421 14.9816 39.4416 15.0819 39.2411 15.1487C39.8426 15.5497 40.4107 15.9508 40.9789 16.4186C40.912 16.3184 40.8786 16.1513 40.912 16.1179C41.0457 15.9842 41.2462 15.7837 41.4133 15.7837C41.7141 15.7837 42.0482 15.8505 42.2822 16.1179C42.4159 16.2515 42.4493 16.3852 42.3156 16.5189C42.2488 16.5857 42.2153 16.6191 42.1485 16.686C42.0148 16.8196 41.9146 16.9533 42.0817 17.1204C42.2153 17.2541 42.3156 17.488 42.5829 17.3209C42.6832 17.2541 42.7835 17.2207 42.8837 17.1872C43.0508 17.1538 43.1511 17.1872 43.1176 17.3543C43.1176 17.4212 43.0842 17.5214 43.1176 17.5883C43.1511 17.8556 43.0508 18.0895 42.8503 18.1564C43.0174 18.3569 43.2179 18.5574 43.385 18.7579C43.4184 18.7245 43.4852 18.6577 43.5855 18.6242C43.6189 18.5908 43.6858 18.5908 43.7192 18.5908C43.9531 18.5908 44.4878 19.2926 44.421 19.5265C44.3875 19.6602 44.3207 19.8273 44.2539 19.961C44.3875 20.1281 44.4878 20.3286 44.5881 20.4957C44.6549 20.3286 44.7551 20.2283 44.9222 20.1949C45.0559 20.1949 45.1896 20.2952 45.2898 20.3954C45.4903 20.5625 45.3567 20.7296 45.223 20.8967C45.1896 20.9301 45.1227 20.9969 45.0893 21.0304C45.0559 21.0638 45.0225 21.0972 44.9557 21.0972C45.6574 22.3337 46.2256 23.637 46.6266 25.0072C46.6934 25.0406 46.7602 25.074 46.8271 25.1074C46.8939 25.1408 46.9942 25.074 47.061 25.1074C47.1613 25.1408 47.2949 25.1408 47.3618 25.2077C47.4286 25.3079 47.5289 25.4082 47.5957 25.5084C47.6291 25.475 47.6625 25.475 47.6625 25.475C47.9967 25.4082 48.1638 25.5084 48.2307 25.7758C48.2641 25.9094 48.2307 26.0431 48.1304 26.1434C48.2975 26.3439 48.498 26.5444 48.6651 26.7783C48.7319 26.8786 48.7988 26.9788 48.8322 27.0791C48.8656 27.1459 48.8656 27.2796 48.8322 27.3464C48.7988 27.3799 48.6985 27.3799 48.6317 27.3799C48.1638 27.3799 47.7962 27.2128 47.6625 26.8786C47.5289 26.7115 47.4286 26.6112 47.3618 26.511C47.2281 26.3773 47.1613 26.2436 47.2615 26.0431C47.3618 25.876 47.2615 25.7089 47.0944 25.7758C47.0276 25.8092 46.9608 25.8092 46.8939 25.8092C47.0944 26.6447 47.2281 27.4801 47.2949 28.349C47.3284 28.349 47.3952 28.3824 47.4286 28.4492C47.5957 28.6832 47.7628 28.8837 47.8965 29.151C47.8965 29.0174 47.8965 28.8503 47.9633 28.75C48.0301 28.6498 48.097 28.5161 48.1304 28.4158C48.1972 28.2153 48.3977 28.1485 48.498 28.3156C48.6317 28.6163 48.8322 28.5161 49.0327 28.4827C49.0661 28.4827 49.0995 28.4827 49.0995 28.4492C49.0661 28.4158 49.0661 28.3824 49.0661 28.3824C49.0661 28.349 49.1664 28.2487 49.1998 28.2487C49.3335 28.2822 49.4671 28.2487 49.6008 28.2487C49.534 27.4801 49.4337 26.7115 49.2666 25.9429C49.1998 25.876 49.0661 25.8092 49.0661 25.7424C49.0661 25.6087 49.0995 25.4416 49.133 25.3079C48.0301 20.7296 45.3567 16.7528 41.7141 14.0125C41.8143 14.3133 41.8477 14.5138 41.4467 14.5472C41.3465 14.5472 41.2462 14.5806 41.1794 14.5806C41.0123 14.5472 40.9789 14.4469 41.0457 14.3133C41.1125 14.1796 41.2128 14.0125 41.313 13.8788C41.3465 13.812 41.4133 13.7786 41.4801 13.7786C40.3439 12.9097 39.1074 12.2079 37.8041 11.6398C37.7039 11.8737 37.5033 11.974 37.1023 12.0074C36.7681 12.0408 36.6679 11.974 36.7013 11.6398C36.7013 11.5061 36.7681 11.339 36.8684 11.3056C36.9018 11.3056 36.9018 11.2722 36.9352 11.2722C36.6679 11.1719 36.434 11.0717 36.1666 11.0048C36.1332 11.0048 36.1332 11.0048 36.0998 11.0383C35.9327 11.1051 35.7656 11.1051 35.6988 10.8712C35.2643 10.7375 34.7965 10.6038 34.362 10.5036C34.362 10.537 34.362 10.537 34.362 10.5704C34.362 10.5704 34.2283 10.6707 34.1949 10.6707C34.0947 10.6038 34.0278 10.5036 33.9276 10.4367C32.5908 10.1694 31.2541 10.0023 29.8505 10.0023C27.7118 9.96887 25.6732 10.3031 23.7684 10.938C23.8352 10.9714 23.9021 11.0383 23.9689 11.1385C24.1694 11.3724 24.136 11.4393 23.8686 11.6732C23.6013 11.9071 23.501 11.9071 23.2337 11.6064C23.0332 11.3724 22.9998 11.2722 23.2003 11.1051C20.3597 12.1076 17.8199 13.7451 15.748 15.8171C15.8148 15.8505 15.8482 15.8839 15.8482 15.8839ZM38.9069 46.7625C39.0072 46.8628 39.1074 46.9631 39.1743 47.0633C39.2411 47.197 39.2745 47.3641 39.074 47.3975C38.9738 47.4309 38.8735 47.2972 38.7064 47.2304C38.8067 47.0633 38.8401 46.8962 38.9069 46.7625ZM35.4648 47.9656C35.6653 47.8988 35.8658 47.9322 36.0998 47.8988C36.0998 47.9656 36.1332 48.0324 36.0998 48.0993C36.0329 48.1995 35.9327 48.2998 35.8324 48.4C35.7656 48.4669 35.6988 48.5337 35.6319 48.6006C35.5651 48.5337 35.4648 48.4335 35.3646 48.3332C35.398 48.1995 35.398 47.9656 35.4648 47.9656ZM31.3544 48.3666C31.488 48.2664 32.1898 48.2998 32.2232 48.4335C32.2232 48.5671 32.2567 48.7008 32.2232 48.8011C32.4572 48.7342 32.6577 48.6674 32.8916 48.634C33.0921 48.5671 33.1924 48.7008 33.2592 48.9013C33.2926 49.1018 33.326 49.2689 33.0921 49.3692C32.9919 49.4026 32.925 49.436 32.7914 49.4694C32.5574 49.4694 32.2901 49.5697 32.0896 49.3023C32.0896 49.2689 32.0561 49.2689 32.0227 49.2689C31.8891 49.3023 31.6885 49.3023 31.5549 49.3023C31.4212 49.3023 31.3209 49.1352 31.2875 49.1018C30.9868 48.7008 31.0202 48.6006 31.3544 48.3666ZM25.339 47.999C25.339 47.7651 25.573 47.5646 25.8069 47.6648C25.8403 47.6648 25.8737 47.8319 25.8403 47.8653C25.6732 48.1995 25.6732 48.1661 25.974 48.4C26.2413 48.6006 26.4419 48.634 26.7426 48.5003C26.9431 48.4 27.2105 48.3666 27.4444 48.6006C27.4778 48.6674 27.6115 48.6674 27.6783 48.6674C27.7118 48.6006 27.7452 48.5003 27.7452 48.4335C27.7786 47.9656 27.8454 47.8988 28.1462 47.7985C28.5806 47.6983 29.0151 48.0659 28.9482 48.5003C28.9148 48.7008 28.8146 48.7676 28.6809 48.8011C28.3467 48.9013 28.0125 48.9682 27.6783 49.0684C27.4444 49.1352 27.2105 49.2021 26.9431 49.2355C26.7092 49.3023 26.4419 49.436 26.2413 49.1352C26.2079 49.1018 26.0743 49.1018 25.974 49.1352C25.8069 49.1687 25.6732 49.2021 25.5061 49.2021C25.4059 49.2021 25.2722 49.1687 25.172 49.1352C25.2054 49.035 25.2722 48.9347 25.3056 48.8345C25.339 48.7342 25.339 48.634 25.339 48.5337C25.3725 48.3666 25.339 48.1995 25.339 47.999ZM24.9714 47.5312C25.0049 47.4977 25.0717 47.5312 25.2388 47.5312C25.2054 47.598 25.172 47.6983 25.1385 47.6983C25.0717 47.7317 25.0049 47.6983 24.938 47.6648C24.938 47.6648 24.9714 47.5646 24.9714 47.5312ZM22.0306 46.7625C22.064 46.7291 22.1309 46.6957 22.1977 46.6623C22.3648 46.5954 22.4985 46.7291 22.4316 46.8294C22.298 47.1301 22.4316 47.2638 22.5987 47.4643C22.699 47.598 22.7992 47.7317 22.5987 47.8653C22.3982 47.9656 22.3314 47.8319 22.2311 47.6983C22.1643 47.5646 22.064 47.4643 21.9638 47.3641C21.6964 47.0967 21.6964 47.0299 22.0306 46.7625ZM20.3263 45.0248C20.46 45.0916 20.5936 45.0916 20.5936 45.125C20.6271 45.1919 20.5602 45.2921 20.5268 45.359C20.4934 45.3924 20.3597 45.359 20.3263 45.3256C20.2929 45.2587 20.3263 45.1585 20.3263 45.0248ZM15.514 40.4799C15.5475 40.4799 15.6811 40.5467 15.6811 40.5801C15.6811 40.647 15.6143 40.7472 15.5809 40.7806C15.5475 40.8141 15.4472 40.7472 15.3469 40.7138C15.4138 40.5801 15.4472 40.5133 15.514 40.4799ZM14.8457 41.6495C14.8457 41.5827 14.8791 41.5159 14.9459 41.5159C14.9793 41.5159 15.0462 41.5493 15.0796 41.5827C15.113 41.6161 15.1464 41.6829 15.1464 41.7498C15.1464 41.8835 15.113 41.9837 15.113 42.1174C15.0128 42.0171 14.9459 41.9503 14.9125 41.8835C14.8791 41.7498 14.8457 41.6829 14.8457 41.6495ZM12.473 36.4697C12.5398 36.4363 12.6735 36.4697 12.7737 36.4697C12.7737 36.5699 12.8071 36.7036 12.7403 36.7704C12.7069 36.8373 12.5732 36.8039 12.3727 36.8373C12.4395 36.6368 12.4395 36.5031 12.473 36.4697ZM11.5707 34.6985C11.4036 34.7653 11.3033 34.8322 11.1696 34.899C11.1028 34.9324 10.9691 34.899 10.9691 34.899C10.9357 34.6651 10.8355 34.3977 10.9023 34.1972C10.9357 33.9967 11.1362 33.9633 11.3367 34.097L11.3702 34.1304C11.5038 34.1972 11.7712 33.9633 11.8046 34.2306C11.8046 34.3309 11.6375 34.5314 11.5707 34.6985ZM11.8046 25.3413C11.7712 25.3079 11.8046 25.1742 11.8046 25.074C11.9048 25.074 12.0051 25.1074 12.1388 25.1074C12.1722 25.2745 12.2056 25.3748 12.2056 25.5084C12.0719 25.4416 11.9048 25.4082 11.8046 25.3413ZM12.9408 24.1383C12.7737 24.1717 12.5732 24.2385 12.4061 24.2719V24.2385C12.2725 24.2719 12.1722 24.3054 12.0385 24.3388C11.7043 24.4056 11.6041 24.3388 11.5372 23.9712C11.5038 23.8041 11.5372 23.7038 11.7043 23.637C12.0719 23.5367 12.4395 23.4699 12.8071 23.3696C13.0745 23.3028 13.1079 23.5367 13.1413 23.7038C13.1747 23.9043 13.1747 24.0714 12.9408 24.1383ZM46.1587 20.763C46.2256 20.763 46.3592 20.8299 46.3926 20.9301C46.5263 21.0972 46.5932 21.2977 46.7602 21.4314C47.1947 21.7321 46.9608 22.1332 46.9942 22.5008C46.9942 22.5676 46.8939 22.6344 46.8271 22.7013C46.9608 22.8015 47.061 22.9352 47.2615 22.835C47.3618 22.8015 47.5623 22.8684 47.6291 22.9352C47.7962 23.1023 47.8965 23.3362 48.0301 23.5367C48.1638 23.7707 47.9633 23.8709 47.8296 24.0046C47.696 24.1383 47.5623 24.1383 47.4286 24.0046C47.1947 23.7373 46.9942 23.5033 46.7602 23.236C46.5597 23.002 46.5932 22.835 46.8271 22.7013C46.7268 22.6344 46.5932 22.5008 46.5263 22.5342C46.2256 22.6679 46.1253 22.4674 45.9916 22.3003C45.8914 22.2 45.8245 22.0663 45.7243 21.9661C45.3901 21.5316 45.624 20.8633 46.1587 20.763ZM42.75 15.6834C42.984 15.4829 43.0842 15.7168 43.2847 15.8839C43.2847 15.9842 43.3181 16.1513 43.2513 16.2181C43.0508 16.4186 42.9171 16.2181 42.7835 16.0844C42.6832 15.9842 42.5829 15.8171 42.75 15.6834ZM39.1074 13.4778C39.3414 13.2773 39.4416 13.3107 39.7424 13.6115C39.8761 13.7451 39.9429 13.9122 39.7424 14.0459C39.475 14.2464 39.2745 14.2464 39.074 14.0125C38.8401 13.7786 38.8401 13.6783 39.1074 13.4778ZM38.673 12.4418C38.7398 12.5421 38.7064 12.6423 38.7064 12.7426C38.6062 12.7426 38.5059 12.776 38.4725 12.7092C38.4056 12.6423 38.4056 12.5421 38.3722 12.375C38.5393 12.4084 38.6396 12.4084 38.673 12.4418ZM37.4031 13.6115C37.4699 13.6115 37.5368 13.6783 37.6036 13.7117C37.5702 13.7786 37.5368 13.8788 37.5033 13.9122C37.4365 13.9457 37.3697 13.8788 37.236 13.8454C37.3028 13.7451 37.3697 13.6115 37.4031 13.6115ZM33.3595 11.3056V11.339C33.326 11.4393 33.326 11.5395 33.2926 11.6398C33.2592 11.6398 33.1924 11.6398 33.1924 11.6064C33.0921 11.4059 33.2258 11.3724 33.3595 11.3056ZM31.2207 10.6707C31.4212 10.6372 31.5883 10.6038 31.7888 10.5704C31.8222 10.5704 31.8556 10.5704 31.9225 10.6038C31.9559 10.5704 31.9893 10.5704 32.0227 10.537C32.0227 10.537 32.0227 10.5036 32.0561 10.5036C32.1564 10.537 32.2901 10.537 32.3235 10.6038C32.4237 10.7041 32.3569 11.339 32.2567 11.339C32.1564 11.3724 32.0227 11.3056 31.9893 11.3056C31.8222 11.1051 31.7554 10.9714 31.7554 10.8377C31.6885 10.8712 31.5883 10.938 31.488 10.9714C31.4212 11.0048 31.3544 11.0383 31.3209 11.1051C31.2541 11.2053 31.1873 11.2722 31.1539 11.3724C31.087 11.3056 31.0202 11.1719 30.9868 11.1385C30.8865 10.7375 30.8865 10.7041 31.2207 10.6707ZM28.9148 11.2388C28.9817 11.2053 29.0485 11.1719 29.0819 11.1719C29.1822 11.2053 29.2824 11.2722 29.3827 11.3056C29.3493 11.4059 29.2824 11.4727 29.249 11.573C29.2156 11.6064 29.1487 11.6064 28.9817 11.6732C28.9148 11.6398 28.7477 11.6064 28.6809 11.5395C28.5806 11.3724 28.7811 11.3056 28.9148 11.2388ZM24.0357 12.5421C24.1694 12.4418 24.2362 12.375 24.3031 12.375C24.3699 12.375 24.4702 12.375 24.5036 12.4084C24.537 12.4418 24.537 12.5421 24.5036 12.6089C24.4702 12.6758 24.4033 12.7426 24.3365 12.776C24.2362 12.8428 24.1026 13.0099 24.0023 12.8429C23.9355 12.776 24.0023 12.6089 24.0357 12.5421ZM19.9921 12.8763C20.1592 12.8094 20.5602 13.1436 20.5268 13.3107C20.4934 13.3775 20.3931 13.5112 20.3597 13.5112C20.2594 13.5112 20.1592 13.4444 20.0924 13.411C19.9921 13.2773 19.9253 13.2105 19.9253 13.1102C19.8584 13.0099 19.9253 12.9097 19.9921 12.8763ZM18.8559 14.614C19.1901 14.5472 19.2569 14.5806 19.3237 14.848C19.3906 15.1487 19.3572 15.2156 19.0564 15.2824C18.7556 15.3492 18.6888 15.3158 18.6219 15.0485C18.5217 14.7477 18.5551 14.6809 18.8559 14.614Z" fill="#FEFEFE"/>
<path d="M44.8565 42.8865C44.823 42.8865 44.7896 42.8865 44.7228 42.8865C44.4888 42.9199 44.3886 42.8531 44.4888 42.5857C44.5223 42.4855 44.4888 42.3852 44.4888 42.285C44.4888 42.2181 44.4888 42.1513 44.5223 42.051C44.6225 42.051 44.6559 42.0176 44.7228 42.0176C44.8565 42.0176 44.9901 42.051 45.1238 42.0845C45.2909 42.0845 45.3911 42.1847 45.3243 42.3184C45.7253 41.8171 46.1264 41.2824 46.494 40.7143C46.3269 40.7811 46.1598 40.7477 45.9593 40.6475C45.859 40.5806 45.6919 40.5138 45.5917 40.5138C45.3243 40.5138 45.1906 40.3801 45.1238 40.1462C45.0904 40.0459 45.1238 39.8788 45.1572 39.8454C45.2575 39.812 45.4246 39.7786 45.4914 39.8454C45.6919 40.0793 45.8256 40.1128 45.9258 39.7786C45.9927 39.5781 46.6945 39.3441 46.895 39.4444C46.9618 39.4778 47.0286 39.6115 47.1289 39.7452C47.1289 39.7452 47.1289 39.7452 47.1289 39.7786C47.5299 39.0768 47.8975 38.3416 48.2317 37.6064C48.5659 36.8378 48.8332 36.0357 49.0672 35.2337C49.0003 35.2337 48.9335 35.2337 48.8667 35.2337C48.7664 35.2337 48.6661 35.2671 48.5993 35.2671C48.5325 35.2671 48.4656 35.2003 48.3988 35.1668C48.4322 35.1334 48.4322 35.0332 48.4991 35.0332C48.733 34.9329 48.9669 34.8327 49.2008 34.7324C49.3679 34.0975 49.5016 33.4291 49.6019 32.7941C49.5684 32.7607 49.5016 32.7273 49.4682 32.6939C49.3345 32.5602 49.3011 32.2929 49.2677 32.0923C49.2677 32.0255 49.4348 31.9253 49.5684 31.8584C49.6019 31.825 49.6687 31.825 49.7021 31.825C49.7355 31.5242 49.769 31.2235 49.769 30.9561C49.6353 30.7222 49.2677 30.8559 49.1674 30.5551C49.1674 30.5217 49.0003 30.4883 48.9335 30.4883C48.8332 30.4883 48.733 30.5217 48.6662 30.5217C48.4991 30.5551 48.3654 30.5217 48.332 30.3546C48.2985 30.1875 48.4322 30.1207 48.5659 30.0872C48.5993 30.0872 48.6327 30.0872 48.6662 30.0538C48.6662 30.0538 48.6662 30.0538 48.6662 30.0872C49.0672 29.987 49.4348 29.8867 49.8358 29.7865C49.8358 29.5191 49.8358 29.2518 49.8024 28.9844C49.7021 28.9844 49.6019 28.9176 49.5016 28.7839C49.4014 28.6168 48.9669 28.8173 48.9001 29.0179C48.7998 29.2518 48.4322 29.4523 48.1983 29.3855C48.098 29.352 48.0312 29.2184 48.0312 29.0847C47.9978 29.1181 47.8307 29.2852 47.7973 29.2518C47.697 29.1849 47.5633 29.1849 47.4631 29.2184C47.4631 29.4189 47.4631 29.6194 47.4631 29.8533C47.4631 30.1207 47.4631 30.4214 47.4297 30.6888C47.4965 30.7222 47.5299 30.789 47.5633 30.8224C47.5968 30.8559 47.5633 31.023 47.5299 31.0564C47.4965 31.0898 47.4297 31.1232 47.3628 31.1566C47.3294 31.4908 47.296 31.825 47.2626 32.1592C47.3294 32.1258 47.4631 32.0923 47.4631 32.1258C47.5633 32.2929 47.697 32.3263 47.8975 32.3597C48.1649 32.3931 48.2651 32.8276 48.0646 33.0281C47.7639 33.3288 47.7639 33.3622 48.1315 33.5293C48.1983 33.5628 48.2651 33.6296 48.2651 33.6964C48.2651 33.7633 48.1983 33.8635 48.1649 33.8635C47.9644 33.9304 47.7304 34.0975 47.5299 33.8301C47.4631 33.7633 47.296 33.7633 47.1623 33.7633C47.0955 33.7633 47.0286 33.7967 46.9952 33.7967C46.6945 35.1334 46.2266 36.4033 45.6585 37.573C45.6919 37.573 45.7253 37.573 45.7922 37.573C46.0261 37.6064 46.3603 37.4393 46.4605 37.7735C46.7279 38.0742 46.7279 38.1077 46.494 38.3416C46.2266 38.5755 45.9927 38.776 45.7253 38.9765C45.6585 39.01 45.5248 39.01 45.4246 39.01C45.4246 38.9765 45.4246 38.9431 45.4246 38.9431C45.3577 38.9765 45.2575 39.01 45.1238 39.0434C45.0904 39.0434 45.0235 39.01 44.9567 38.9765C44.5891 39.5781 44.1881 40.1796 43.7536 40.7143C43.7536 40.7477 43.7871 40.7811 43.7871 40.848C43.8539 40.8814 43.9207 40.9482 44.021 41.0819C44.1212 41.2156 44.3218 41.3492 44.0878 41.5498C44.021 41.6166 43.9542 41.65 43.8539 41.6834C43.7871 41.8505 43.6534 41.9508 43.3526 42.051C43.1855 42.0845 43.0519 42.1179 42.8848 42.1513C42.7177 42.1847 42.5172 42.2181 42.4837 42.4855C42.4503 42.6526 42.3167 42.686 42.183 42.5857C42.1496 42.5857 42.1496 42.5523 42.1161 42.5523C41.0802 43.5549 39.9105 44.4572 38.6406 45.1924C38.674 45.1924 38.7075 45.1924 38.7409 45.1589C39.0751 45.1255 39.4427 44.9584 39.7434 45.2926C39.8771 45.4263 40.2447 45.2592 40.2781 45.0253C40.3115 44.7913 40.4452 44.6911 40.6457 44.6577C41.3475 44.5574 42.0493 44.4572 42.7511 44.1564C43.1521 43.9893 43.386 44.1564 43.4863 44.524C43.8873 43.9559 44.3886 43.4212 44.8565 42.8865ZM48.5659 31.8584C48.5659 31.825 48.6327 31.7916 48.6662 31.7582C48.733 31.7247 48.7998 31.6579 48.8667 31.6245C48.9001 31.5911 48.9669 31.6245 49.0338 31.6245C49.0338 31.6913 49.0338 31.7582 49.0003 31.7916C48.9335 31.8918 48.9001 31.9921 48.7998 32.0589C48.733 32.0923 48.5993 32.0923 48.5325 32.0923C48.5325 32.0255 48.5325 31.9587 48.5659 31.8584ZM48.5659 32.1926C48.6327 32.2594 48.6662 32.2929 48.6996 32.3263C48.6996 32.3597 48.6661 32.3931 48.6327 32.4265C48.5993 32.3931 48.5325 32.3597 48.4991 32.3263C48.4656 32.3263 48.5325 32.2594 48.5659 32.1926ZM48.1649 29.7196C48.1315 29.7196 48.1649 29.6528 48.1649 29.5525C48.2317 29.586 48.2985 29.586 48.332 29.6194C48.3654 29.6194 48.332 29.7196 48.332 29.7196C48.2651 29.7196 48.1983 29.7196 48.1649 29.7196ZM47.697 35.1668C47.7304 35.1334 47.8975 35.2337 47.8975 35.3005C47.8975 35.3674 47.8641 35.501 47.7973 35.5679C47.7304 35.6013 47.6302 35.501 47.4631 35.4676C47.5968 35.3005 47.6302 35.2003 47.697 35.1668ZM43.9876 40.3467C43.9876 40.2799 44.021 40.1796 44.0878 40.1462C44.1212 40.1128 44.2215 40.1462 44.2883 40.1796C44.422 40.2464 44.5223 40.3133 44.6225 40.3801C44.7896 40.4804 44.9901 40.9816 44.823 41.1153C44.6225 41.2824 44.6559 41.4829 44.6559 41.6834C44.6559 41.7837 44.5891 41.8839 44.5557 41.9508C44.4888 41.8839 44.3552 41.8171 44.3218 41.7169C44.2215 41.4829 44.1881 41.249 44.1212 40.9816C44.0878 40.8146 44.021 40.5806 43.9876 40.3467ZM42.584 43.722C42.4837 43.722 42.3835 43.5883 42.2832 43.5214C42.3501 43.3209 42.1496 43.0536 42.4169 42.9868C42.6508 42.9533 42.6508 43.2541 42.7177 43.3878C42.7845 43.5549 42.7845 43.722 42.584 43.722Z" fill="#FEFEFE"/>
<path d="M14.3774 32.3263C14.511 32.4266 14.5445 32.5603 14.4442 32.7608C14.4442 32.7608 14.4442 32.7942 14.4108 32.8276C14.745 34.532 15.3465 36.136 16.182 37.6064C16.2822 37.7067 16.3491 37.807 16.4493 37.9072C16.5161 37.9741 16.583 38.0743 16.5496 38.1077C16.5161 38.1411 16.5161 38.1746 16.5161 38.208C16.9506 38.9098 17.4519 39.5781 17.9866 40.1797C18.1202 40.1128 18.2205 40.046 18.3876 40.2131C18.5547 40.4136 18.6883 40.5807 18.8554 40.7812C18.9557 40.9149 19.0559 41.0151 19.1562 41.1488C19.2565 41.2825 19.3901 41.4161 19.3567 41.5832C19.4904 41.7169 19.6575 41.8506 19.7911 41.9508C19.858 41.9508 19.8914 41.9843 19.8914 42.0511C22.4646 44.123 25.6728 45.4264 29.1817 45.56C29.1483 45.4932 29.1149 45.4264 29.1149 45.3595C29.0815 45.2927 29.1149 45.1924 29.1149 45.0922C29.1817 45.0922 29.2486 45.1256 29.3488 45.1256H29.3822C29.282 44.9919 29.1817 44.8582 29.0815 44.7246C29.4156 44.6243 29.5159 44.4572 29.4491 44.123C29.4156 43.9225 29.3488 43.6886 29.3154 43.4881C29.282 43.321 29.1817 43.2542 28.9812 43.2876C28.7139 43.3544 28.4465 43.4547 28.1792 43.5215C28.0121 43.321 27.8784 43.1205 27.7113 42.92C27.7781 42.8531 27.8784 42.7863 27.9452 42.686C27.7781 42.5858 27.6111 42.4187 27.4105 42.4187C27.3771 42.4187 27.3771 42.4187 27.3437 42.4187C26.6419 41.4496 26.007 40.5139 25.5057 39.6784C25.5391 39.645 25.5391 39.5447 25.5725 39.5113C25.5057 39.4779 25.4389 39.411 25.372 39.4445C25.372 39.4445 25.372 39.4445 25.3386 39.4445C25.0044 38.8763 24.7371 38.3751 24.5366 37.9406C24.5366 37.9072 24.5031 37.8738 24.5031 37.8404C24.57 37.807 24.6702 37.7401 24.6702 37.7067C24.6702 37.6064 24.7037 37.573 24.7371 37.5062C24.7371 37.5396 24.7371 37.5396 24.7371 37.573C24.7371 37.6399 24.9376 37.6399 25.0713 37.7067C25.1381 37.573 25.2049 37.5062 25.2049 37.4059C25.2049 37.4059 25.1715 37.3725 25.1381 37.3391C25.3052 37.2723 25.4723 37.2388 25.6394 37.2054C25.9067 37.1386 26.1741 36.9381 26.408 37.2723C26.408 37.2723 26.4748 37.3057 26.4748 37.2723C26.7756 37.1386 27.2435 37.2723 27.3771 36.8044C27.3771 36.771 27.4774 36.7042 27.5108 36.6707C27.8116 36.5705 28.1123 36.4702 28.4131 36.4034C28.5468 36.37 28.7139 36.4702 28.881 36.5371C28.9144 36.3365 29.0146 36.2029 29.2151 36.136C29.2486 36.1026 29.282 36.0692 29.3488 36.0358C29.5493 36.1695 29.7498 36.3031 29.9503 36.4368C30.0172 36.4702 30.1174 36.5036 30.1509 36.4702C30.1843 36.4368 30.2177 36.3365 30.2177 36.2697C30.1843 36.0692 30.1509 35.9021 30.084 35.735C30.084 35.7016 30.084 35.6682 30.0506 35.6348C30.084 35.6682 30.1174 35.6682 30.1509 35.7016C30.2845 35.8353 30.3848 35.8353 30.5185 35.8019C30.6855 35.7684 30.8192 35.735 30.9529 35.8687C31.0866 36.0024 31.5544 35.8687 31.5878 35.7016C31.6213 35.4343 31.8218 35.4343 31.9889 35.3674C32.1225 35.3006 32.2562 35.2337 32.3565 35.1335C32.3899 35.1001 32.4233 34.9664 32.3899 34.933C32.2228 34.7325 31.8218 34.6322 31.5878 34.7325C31.3539 34.8327 31.1534 34.8996 30.8526 34.9998C30.8526 34.9998 30.8526 34.9998 30.8192 34.9998C30.8192 34.9998 30.8192 35.0332 30.7858 35.0332C30.7858 35.0332 30.7858 35.0332 30.7524 35.0332C30.5185 35.1001 30.2511 35.1669 29.9503 35.2672C29.8835 35.0332 29.8501 34.8996 29.7164 34.8996C29.8501 34.8327 29.8501 34.7993 29.8167 34.6656C29.7833 34.5988 29.7833 34.4985 29.7498 34.4317C29.7498 34.3649 29.7164 34.2646 29.7164 34.1978C29.7164 34.0975 29.683 33.9973 29.6496 33.897H29.683C29.6496 33.7633 29.6162 33.6297 29.5827 33.496C29.5493 33.2955 29.4491 33.2286 29.2486 33.2621C28.881 33.3289 28.647 33.7633 28.6804 34.1309C28.7139 34.3983 28.9478 34.3983 29.0815 34.532C29.0815 34.5988 29.1149 34.699 29.1483 34.7659C29.1817 34.8661 29.2486 34.9664 29.3154 34.9998C29.1817 35.0332 29.0815 35.0667 28.9812 35.1669C28.9144 35.2337 28.9144 35.4343 28.9478 35.6013C28.3797 35.735 27.8116 35.9021 27.2435 36.0358C27.0764 36.0692 26.9427 36.1695 26.809 36.2029C26.408 36.3031 25.9401 36.37 25.5725 36.5371C25.3052 36.6373 24.9042 36.6707 24.7705 37.0383C24.7705 37.0718 24.6034 37.1052 24.57 37.0718C24.4029 36.9381 24.2692 37.0049 24.1355 37.0383C24.0353 36.8044 23.935 36.6039 23.8348 36.3365L23.8682 36.3031C23.935 36.2363 23.935 36.1026 23.9016 36.0024C23.8682 35.8019 23.8014 35.6348 23.7345 35.4677C23.6677 35.2672 23.6343 35.0332 23.534 34.8661C23.5006 34.7993 23.4003 34.7659 23.3335 34.7325C23.3001 34.7325 23.2667 34.7993 23.2332 34.8661C23.0996 34.3649 22.9659 33.8636 22.9325 33.3623C22.9659 33.3289 22.9993 33.2955 22.9993 33.2286C22.9659 33.2286 22.9325 33.1952 22.8991 33.1952C22.8656 32.7608 22.8991 32.3263 22.9659 31.9253C22.9659 31.8919 22.9659 31.8919 22.9659 31.8585C23.2332 30.5886 23.6008 29.7531 24.2692 28.8842C24.3695 28.7506 24.5031 28.6169 24.6702 28.4832C25.1381 28.0488 25.606 27.5809 25.4723 26.6786C25.0713 24.1388 23.8348 23.7378 22.0302 23.1363C21.6626 23.0026 21.295 22.9024 20.894 22.7353C20.9942 22.7018 21.061 22.6684 21.1613 22.6684C21.2616 22.635 21.3618 22.6016 21.4621 22.5682C21.5957 22.5347 21.7294 22.4679 21.6626 22.3008C21.5957 22.1337 21.6626 21.8998 21.3618 21.8998C21.2281 21.8998 21.0945 21.7327 20.9942 21.7327C20.894 21.7661 20.8605 21.9332 20.7603 22.0335C20.7269 22.0669 20.6266 22.1003 20.5598 22.1003C20.4261 22.1671 20.259 22.2006 20.2256 22.4011C20.2256 22.4011 20.2256 22.4011 20.2256 22.4345C20.1588 22.4011 20.0919 22.3677 20.0251 22.3342C19.5238 22.0669 18.9891 21.7995 18.4878 21.7995C18.421 21.7995 18.3207 21.7995 18.2539 21.833H18.2205C18.1536 21.833 18.0868 21.7995 18.0534 21.7327C18.02 21.6659 18.02 21.5656 18.1202 21.4319C18.6549 20.6967 20.1253 20.1955 21.1947 20.162C21.1947 20.162 21.1947 20.162 21.1947 20.1955C21.1947 20.2623 21.1947 20.3626 21.1947 20.4294C21.3284 20.396 21.4955 20.396 21.6292 20.3626C21.6626 20.3291 21.696 20.2289 21.696 20.1286C22.0302 20.0952 22.498 20.0284 23.0327 19.9281C24.6368 19.6942 27.0429 19.3266 29.1483 19.3266C29.5159 19.3266 29.8167 19.3266 30.1174 19.36C29.9838 19.4268 30.0172 19.5605 30.084 19.761C30.1174 19.7944 30.2177 19.9281 30.2845 19.8947C30.5185 19.8279 30.3848 19.5939 30.3848 19.4603C30.3848 19.4268 30.3179 19.3934 30.2845 19.36C30.485 19.36 30.6855 19.3934 30.8861 19.4268C30.8861 19.4603 30.8526 19.4937 30.8526 19.5271C30.8526 19.5939 30.9195 19.7276 30.9529 19.7276C31.1868 19.6942 31.3873 19.6608 31.6213 19.5605C31.9554 19.6273 32.2228 19.7276 32.4567 19.8613C33.8937 20.3626 34.796 21.4319 35.5312 22.635C35.431 22.7353 35.2639 22.8021 35.2639 22.9024C35.2304 23.2031 35.5981 23.0694 35.6983 23.2365C35.7317 23.27 35.8654 23.27 35.9322 23.27C36.0659 23.4705 36.1662 23.7044 36.2998 23.9049C36.4669 24.2391 36.6674 24.5733 36.868 24.874C37.035 25.1414 38.0042 26.0103 39.0736 26.9794C40.5774 28.3161 42.5825 30.1207 43.9192 31.6246C43.8858 31.658 43.8524 31.7248 43.8524 31.7916C43.8524 31.8251 43.9527 31.8919 43.9861 31.8919C44.0195 31.8919 44.0529 31.8585 44.0863 31.8585C44.1197 31.9253 44.1866 31.9587 44.22 32.0256C44.5208 32.3598 44.8215 32.6939 45.0889 33.0281C45.2894 31.9922 45.4231 30.9562 45.4231 29.8534C45.4231 21.1646 38.4052 14.1467 29.7164 14.1467C21.0276 14.1467 14.0098 21.1646 14.0098 29.8534C14.0098 30.6554 14.0766 31.4575 14.1769 32.2595C14.3439 32.2929 14.3774 32.2929 14.3774 32.3263ZM25.9401 41.4496C26.0738 41.3159 26.2409 41.2491 26.408 41.1154C26.4414 41.1822 26.5751 41.3493 26.5417 41.3493C26.3746 41.5164 26.7756 41.9174 26.3412 41.9843C26.2409 41.9843 26.1406 41.8506 25.9736 41.7503C25.9736 41.6835 25.9067 41.5164 25.9401 41.4496ZM18.02 35.334C17.9531 35.4008 17.8195 35.4008 17.7192 35.4008C17.7526 35.2672 17.8195 35.1669 17.8529 35.0332C17.9866 35.0332 18.0534 35.0332 18.1536 35.0332C18.1202 35.1335 18.0868 35.2672 18.02 35.334ZM18.6883 38.609C18.5881 38.5087 18.4878 38.3751 18.3876 38.2414C18.2539 38.0743 18.1202 37.9406 18.3542 37.7735C18.6215 37.573 18.7552 37.5396 18.9557 37.7401C19.0225 37.807 19.1228 37.9072 19.1896 37.9741C19.223 38.0075 19.2565 38.0409 19.2899 38.0743C19.5238 38.3751 19.5238 38.3751 19.2565 38.609C18.9891 38.8763 18.9223 38.8763 18.6883 38.609ZM19.0559 35.3674C19.0894 35.2337 19.1228 35.1335 19.1562 35.1001C19.1896 35.0666 19.3233 35.1001 19.3567 35.1335C19.3901 35.1669 19.3901 35.3006 19.3567 35.334C19.2899 35.3674 19.1896 35.334 19.0559 35.3674ZM19.9248 39.645C19.7577 39.8121 19.6241 39.7786 19.3901 39.4779C19.1896 39.244 19.223 39.1771 19.457 38.9766C19.7243 38.7427 19.7911 38.7761 20.0251 39.01C20.2256 39.244 20.1922 39.3776 19.9248 39.645ZM19.6909 35.7016C19.7577 35.6682 19.9248 35.7684 20.0919 35.8019C20.1253 35.9689 20.1922 36.136 20.1253 36.2029C19.9582 36.37 19.858 36.1695 19.7577 36.0692C19.6241 35.9689 19.5238 35.8019 19.6909 35.7016ZM20.6266 36.9047C20.5932 36.9381 20.4595 36.9047 20.4261 36.8712C20.3927 36.8044 20.3927 36.7042 20.3927 36.5705C20.5264 36.6039 20.66 36.6039 20.66 36.6707C20.7269 36.7376 20.66 36.8378 20.6266 36.9047ZM23.0996 43.2876C22.9325 43.4212 22.7654 43.4881 22.6317 43.2876C22.4312 43.0202 22.4312 42.8866 22.6651 42.686C22.8991 42.519 22.9993 42.519 23.1998 42.7863C23.4003 42.9868 23.3669 43.0871 23.0996 43.2876ZM23.8682 41.9843C23.8348 42.0177 23.8014 41.9843 23.7345 41.9843C23.7345 41.9174 23.7345 41.884 23.7679 41.8172C23.7679 41.7838 23.8348 41.8172 23.935 41.8172C23.9016 41.884 23.9016 41.9508 23.8682 41.9843ZM23.0327 35.6682C23.0662 35.735 23.0662 35.8687 23.0327 35.9021C22.9993 35.9355 22.8656 35.9355 22.7988 35.9021C22.7654 35.8687 22.7654 35.735 22.7654 35.6348C22.8656 35.6348 22.9993 35.6348 23.0327 35.6682ZM22.498 34.8996C22.498 35.0667 22.5315 35.2337 22.498 35.3006C22.3644 35.4677 22.2307 35.334 22.1639 35.2003C22.097 35.0667 21.8631 34.933 22.0636 34.7659C22.1304 34.7325 22.3309 34.8661 22.498 34.8996ZM21.3618 33.7299C21.6292 33.496 21.696 33.5294 21.9968 33.8302C22.1973 34.0641 22.1973 34.1309 21.9968 34.3314C21.7294 34.5654 21.6292 34.5654 21.3952 34.3314C21.1279 33.9973 21.1279 33.9304 21.3618 33.7299ZM18.6215 34.3983C18.8889 34.2646 18.9557 34.1644 18.9557 33.8302C18.9557 33.5628 18.9557 33.3623 18.7886 33.1618C18.5881 32.9613 18.6549 32.7942 18.8554 32.6605C19.0894 32.4934 19.3233 32.2929 19.5572 32.0924C19.7577 31.9253 19.858 31.9587 20.0251 32.1258C20.3593 32.4934 20.3593 32.5268 19.9582 32.7608C19.7577 32.8945 19.7243 33.0281 19.858 33.2286C19.9582 33.3289 20.0251 33.4626 20.1588 33.5962C20.2924 33.7299 20.5264 33.897 20.66 34.0975C20.7603 34.2312 20.894 34.4317 20.8605 34.5654C20.7937 34.7659 20.7603 34.9664 20.9274 35.1001C21.1279 35.2672 21.3618 35.4343 21.5957 35.5011C21.9968 35.6013 21.9968 35.5679 21.8631 35.9689C21.8297 36.0692 21.8965 36.2029 21.9633 36.2697C22.0636 36.4368 22.2307 36.5705 22.3309 36.7376C22.498 36.9381 22.5983 37.2054 22.9659 37.1386C23.0327 37.1052 23.1664 37.2054 23.2332 37.2723C23.6343 37.7401 24.0353 38.208 24.4029 38.6758C24.4697 38.7427 24.4029 39.3442 24.3361 39.3776C24.3026 39.411 24.2024 39.4445 24.169 39.411C24.0353 39.3442 23.8682 39.2774 23.7679 39.1437C23.0996 38.3751 22.4646 37.6064 21.8297 36.8044C21.4287 36.3365 21.0945 35.8019 20.6934 35.334C20.3593 34.933 19.9917 34.5654 19.6241 34.1978C19.457 34.0307 19.3233 34.0641 19.1896 34.2646C19.0894 34.3983 18.9891 34.5654 18.8889 34.699C18.7886 34.8327 18.6215 34.8996 18.4878 34.7325C18.421 34.5988 18.4878 34.4651 18.6215 34.3983ZM18.02 31.6246C18.0868 31.6246 18.1536 31.5911 18.2539 31.5577C18.5212 31.4909 18.6549 31.5911 18.6215 31.8585C18.6215 31.9587 18.6215 32.059 18.5881 32.1593C18.5547 32.2595 18.5547 32.4266 18.4878 32.4266C18.3876 32.46 18.2539 32.3932 18.1536 32.3598C18.0868 32.3263 18.02 32.2261 17.9197 32.1593C17.8863 32.0924 17.8195 32.0256 17.786 31.9253C17.6858 31.658 17.6858 31.6246 18.02 31.6246ZM17.8195 36.4368C17.9866 36.6039 17.786 36.7042 17.6858 36.8044C17.5855 36.9047 17.4184 37.0718 17.3182 36.8378C17.2848 36.7376 17.385 36.5705 17.4519 36.4034C17.5855 36.4034 17.7526 36.37 17.8195 36.4368ZM16.583 32.5269C16.8169 32.1592 16.9172 32.1258 17.1845 32.4934C17.2179 32.5269 17.2514 32.5937 17.2848 32.6605C17.3516 32.7608 17.4519 32.8276 17.4853 32.9279C17.5187 33.0281 17.4853 33.1284 17.4853 33.2621C17.385 33.2286 17.2848 33.2286 17.1845 33.1952C17.1177 33.1618 17.0843 33.0281 16.984 32.9947C16.8837 32.9279 16.7835 32.8945 16.6498 32.861C16.583 32.8276 16.4827 32.8276 16.4159 32.8276C16.5161 32.6939 16.5496 32.5937 16.583 32.5269ZM15.547 33.6631C15.5804 33.6965 15.6138 33.7633 15.6807 33.7968C15.8144 33.9638 15.948 34.0975 15.7475 34.3314C15.4802 34.5654 15.3799 34.5988 15.1126 34.3649C14.9789 34.2646 14.8786 34.1309 14.7784 33.9638C14.5779 33.6631 14.6781 33.4291 15.0123 33.3289C15.0792 33.2955 15.2128 33.3289 15.2797 33.3623C15.3465 33.4291 15.4468 33.5294 15.547 33.6631ZM14.9121 30.9896C14.9789 31.023 15.0123 31.0564 15.0792 31.0899C15.4133 31.1901 15.4468 31.2904 15.2128 31.5243C14.9789 31.7916 14.6781 31.8585 14.4776 31.5911C14.3105 31.4575 14.3774 31.2904 14.511 31.1233C14.5779 30.9562 14.7116 30.8559 14.9121 30.9896Z" fill="#FEFEFE"/>
</g>
<defs>
<clipPath id="clip0_1_3705">
<rect width="60" height="60" fill="white"/>
</clipPath>
</defs>
</svg>
