<svg width="70" height="70" viewBox="0 0 70 70" fill="none" xmlns="http://www.w3.org/2000/svg">
<path d="M32.8238 20.6322C32.617 20.5497 32.4929 20.5497 32.4102 20.6735L32.8238 20.6322Z" fill="#D76700"/>
<path d="M18.3047 61.4908C18.6356 61.5321 18.9665 61.5733 19.2974 61.6146C19.2561 61.5733 19.2147 61.5321 19.132 61.5321C18.8011 61.2844 18.5115 61.2844 18.3047 61.4908Z" fill="#D76700"/>
<path d="M36.2978 6.1461C36.3805 6.31119 36.4633 6.47627 36.3392 6.68263C36.2565 6.84771 36.3805 6.97153 36.6287 6.97153C37.1251 6.93025 37.1251 6.97153 37.0424 7.46678C37.0424 7.54932 37.0424 7.67314 37.0837 7.75568C37.3733 8.12712 37.6215 8.49856 37.9524 8.82873C38.0351 8.91127 38.2006 8.91127 38.3247 8.91127C38.6142 8.87 38.7383 8.99381 38.6142 9.24144C38.4488 9.53034 38.6142 9.69543 38.7797 9.86051C39.1519 10.3145 39.5656 10.7685 39.9379 11.2225C40.0206 11.3463 40.1447 11.4701 40.186 11.6352C40.2274 11.7177 40.1033 11.8828 40.062 11.8828C39.5656 12.0066 38.7383 11.5526 38.5315 11.0161C38.4901 10.9336 38.5315 10.8097 38.5315 10.7272C38.6142 10.2732 38.4074 9.98432 37.911 9.98432C37.7456 9.98432 37.5801 9.90178 37.456 9.81924C37.0837 9.4478 36.7942 9.03509 36.4633 8.66365C36.2978 8.45729 36.091 8.2922 36.2565 7.92076C36.3805 7.67314 35.9669 7.21915 35.6774 7.3017C35.5119 7.34297 35.3878 7.3017 35.2637 7.21915L21.9444 20.4672C22.1099 20.4672 22.2754 20.4672 22.3995 20.5085C22.5649 20.4672 22.7304 20.4259 22.8545 20.3847C23.1854 20.3021 23.3095 20.4672 23.3922 20.7148C23.4749 21.0037 23.4336 21.2101 23.1026 21.2926C22.9786 21.3339 22.8545 21.3752 22.7304 21.4164C22.3995 21.4577 22.1099 21.6228 21.8204 21.2514C21.6963 21.045 21.1585 21.2926 21.0758 21.5403C20.9931 21.7466 20.6622 21.953 20.414 21.9942L18.9249 23.48C19.173 23.5213 19.3799 23.6451 19.504 23.8102C19.5453 23.8514 19.504 24.0578 19.4626 24.0991C19.2971 24.2229 19.0903 24.3054 18.9249 24.388C18.6767 24.5118 18.4285 24.5118 18.3458 24.8832C18.263 25.0896 17.6012 25.2547 17.4358 25.0483L17.3944 25.007L15.6985 26.6992C15.7812 26.7404 15.8639 26.7817 15.9466 26.9055C16.1121 27.1944 16.3189 27.1531 16.3603 26.9055C16.443 26.4928 16.7739 26.369 17.1048 26.2864C17.4771 26.2039 17.8494 26.1626 18.263 26.0801C18.6353 25.9975 19.049 25.9975 19.1317 25.5023C19.1317 25.461 19.4212 25.3785 19.4212 25.4198C19.5453 25.6261 19.7108 25.6674 19.959 25.7086C20.2899 25.7499 20.414 26.2864 20.1658 26.5341C19.7935 26.9055 19.7935 26.9468 20.2485 27.1531C20.3312 27.1944 20.414 27.277 20.414 27.3595C20.414 27.442 20.3312 27.5659 20.2899 27.5659C20.0417 27.6484 19.7521 27.8547 19.504 27.5246C19.4212 27.442 19.2144 27.442 19.049 27.442C18.6767 27.4833 18.3044 27.7309 17.9321 27.277C17.808 27.1119 17.5598 27.3182 17.5598 27.5246C17.5598 27.6071 17.5598 27.7309 17.6012 27.8135C17.7253 28.1849 17.4771 28.2675 17.1876 28.35C16.8567 28.4325 16.7326 28.2675 16.6912 27.9786C16.6912 27.896 16.6498 27.8135 16.6085 27.7722C16.5257 27.6897 16.443 27.6071 16.3603 27.5246C16.3189 27.6484 16.1948 27.7309 16.1948 27.8547C16.1948 28.1024 16.0707 28.2262 15.8639 28.2675C15.533 28.3087 15.1607 28.3913 14.8298 28.4325C14.8712 28.4738 14.9125 28.5564 14.9539 28.5976C15.0366 28.7214 15.1194 28.8453 15.2435 28.9278C15.6985 29.2167 15.5744 29.5881 15.4916 29.9596C15.6571 29.8358 15.9053 29.7945 16.1535 29.9596C16.2776 30.0421 16.4016 30.0834 16.5671 30.1659C16.6498 30.2072 16.6912 30.2485 16.7739 30.2898C16.7326 30.331 16.6912 30.4136 16.6498 30.4548C16.4016 30.5786 16.1535 30.6612 15.9053 30.785C15.7812 30.8675 15.6157 30.9501 15.4916 31.0739C15.4089 31.1564 15.3262 31.2803 15.2435 31.3628C15.1607 31.239 15.0366 31.1152 14.8712 30.9501C14.9539 30.785 15.0366 30.6199 15.1194 30.4961C15.1607 30.4548 15.2021 30.3723 15.2435 30.331C15.2021 30.331 15.2021 30.331 15.2021 30.331C14.8712 30.2072 14.623 30.3723 14.3334 30.4548C14.2921 30.4961 14.168 30.4548 14.1266 30.4136C14.0853 30.3723 14.1266 30.2898 14.1266 30.2072C14.1266 30.1659 14.168 30.1247 14.168 30.0834C14.4575 29.5056 14.4575 29.3405 13.9198 28.9278C13.8784 28.8865 13.7957 28.8453 13.7957 28.804L13.5062 29.0929C13.5062 29.2992 13.4234 29.3818 13.1752 29.4231L11.1484 31.239C11.1898 31.239 11.2311 31.1977 11.2725 31.1977C11.9343 31.0326 12.017 31.0326 12.0998 31.5279C12.1411 31.7342 12.2652 31.9819 11.9757 32.0644C11.8102 32.1057 11.562 32.2708 11.3966 32.147C11.3552 32.1882 11.2725 32.2295 11.2311 32.2708C11.1484 32.312 10.9829 32.2295 10.9002 32.147C10.8175 32.0231 10.6934 31.9406 10.6107 31.8168L4.40604 38.0075C4.69559 38.0487 4.94377 38.2138 5.23332 38.3376C5.31605 38.3789 5.35742 38.5027 5.39878 38.5853C5.48151 38.8329 5.56424 39.0805 5.64696 39.3281C5.72969 39.5345 5.68833 39.6996 5.44014 39.7409C5.31605 39.7409 5.19196 39.617 5.10923 39.5345C4.98514 39.3694 4.90241 39.1218 4.81968 38.9154C4.65422 39.0805 4.53013 39.2456 4.36468 39.4107C4.32331 39.452 4.24058 39.4932 4.19922 39.5758L6.7638 42.1346C6.92925 41.9695 7.09471 41.9282 7.38426 42.1759C7.54972 42.2997 8.08745 42.0108 8.08745 41.7631C8.12881 41.4742 8.29427 41.3917 8.50109 41.3917C8.91473 41.3504 9.36974 41.1441 9.74202 41.5568C9.90747 41.7219 10.3625 41.5155 10.4038 41.2266C10.4452 40.9377 10.6107 40.8139 10.8589 40.7726C11.7275 40.6488 12.5961 40.525 13.4648 40.1536C13.9612 39.9472 14.2921 40.1536 14.3748 40.6901C14.3748 40.8139 14.3334 40.9377 14.2507 41.0203C14.2093 41.1028 14.0853 41.1853 14.0439 41.2679C14.0439 41.5568 13.8371 41.5568 13.6716 41.5981C13.258 41.6806 12.8857 41.8044 12.4721 41.887C12.0998 41.9695 11.7689 42.052 11.3966 42.1759C11.107 42.2584 10.8589 42.3822 10.652 42.052C10.4866 41.8457 9.94884 42.052 9.86611 42.3409C9.82475 42.5886 9.70065 42.6711 9.49383 42.7124C9.16292 42.7949 8.87337 42.8775 8.54246 42.96C8.25291 43.0425 8.00472 43.1664 7.75654 42.8362C7.71517 42.7537 7.50835 42.7537 7.38426 42.7949L8.66655 44.0743C8.74928 43.868 8.79064 43.7029 8.87337 43.5378C8.99746 43.6616 9.12156 43.7854 9.20428 43.9092C9.28701 44.0743 9.32838 44.2807 9.08019 44.322C8.99746 44.322 8.91473 44.2807 8.83201 44.2394L8.9561 44.3632C8.70791 44.8998 8.50109 45.4776 8.33564 46.0553C8.41836 46.0141 8.54246 46.0141 8.62519 45.9728C9.08019 45.849 9.12156 45.849 9.28701 46.2617C9.36974 46.4681 9.5352 46.5919 9.74202 46.6744C9.82475 46.7157 9.82475 46.8395 9.86611 46.9633C9.78338 47.0046 9.61793 47.0871 9.57656 47.0459C9.24565 46.7157 8.87337 46.922 8.54246 47.0459C8.377 47.0871 8.21154 47.0871 8.08745 47.0871C7.46699 50.3476 8.17018 53.7731 10.1557 56.5795H10.197C10.6107 56.497 10.7761 56.5795 10.9002 56.9509C10.9416 57.1986 10.9416 57.2811 10.7761 57.3637C10.9829 57.6113 11.2311 57.8589 11.4793 58.1065C13.0925 59.7161 14.9953 60.7479 17.0221 61.2844C17.1876 61.2019 17.353 61.0781 17.5185 60.8717C17.7667 60.459 18.0149 60.0463 18.263 59.6748C18.3458 59.5098 18.6767 59.4685 18.8835 59.4685C18.9662 59.4685 19.0903 59.7161 19.173 59.8399C19.2558 59.9637 19.2558 60.1288 19.3385 60.1701C19.4626 60.2526 19.6281 60.3352 19.7935 60.3765C19.7935 60.3352 19.8349 60.2526 19.9176 60.1701C20.0417 60.0463 20.1658 60.0876 20.2485 60.1288C20.2485 59.7574 20.3726 59.4685 20.4967 59.1383C20.5381 59.0558 20.6622 58.8907 20.7863 58.8907C20.869 58.8907 21.0344 59.0145 21.0344 59.1383C21.1172 59.3859 21.2826 59.6748 20.869 59.7987C20.6622 59.8812 20.7035 60.0876 20.7863 60.2526C20.9517 60.5415 20.9103 60.7066 20.6622 60.7892C20.7035 60.913 20.7449 61.0781 20.8276 61.2019C20.6208 61.1193 20.414 61.0368 20.2485 60.9543C20.1244 61.0781 20.0831 61.2019 20.1658 61.4908C20.1658 61.532 20.2072 61.5733 20.2072 61.6146C20.869 61.6146 21.5308 61.5733 22.1926 61.4495C22.1926 61.4495 22.1926 61.4082 22.234 61.4082C22.689 61.1193 22.4408 60.7479 22.3581 60.3765C22.2754 59.9637 22.3995 59.7987 22.8131 59.7987C22.8958 59.7987 23.0199 59.9637 22.9786 60.005C22.7717 60.4177 22.9372 60.8304 23.0613 61.2431V61.2844C23.8058 61.1193 24.5504 60.8717 25.2536 60.5415L25.75 61.0368C25.8327 60.9955 25.9981 60.9955 26.1222 60.9955C26.1222 61.1193 26.0809 61.2019 26.0809 61.3257L26.9495 62.1924C27.0736 62.1924 27.1563 62.2337 27.1977 62.2749C27.3632 62.3987 27.4872 62.5226 27.7354 62.5226C27.8182 62.5226 27.9423 62.6876 27.9423 62.7702C27.9423 62.8527 27.8595 63.0178 27.7768 63.0178L27.9009 63.1416C27.9009 63.1416 27.9423 63.1416 27.9423 63.1003C27.9836 63.0591 28.025 63.0178 28.0663 62.9765C28.1904 62.9353 28.3973 62.894 28.48 62.9353C28.6454 63.0591 28.5214 63.2242 28.3973 63.3067C28.3559 63.348 28.3145 63.3892 28.2318 63.4305L30.7137 65.9068L35.1396 61.4908C34.9742 61.3257 34.9742 61.1606 35.0569 60.913C35.181 60.6241 34.726 60.1288 34.3951 60.1701C33.9401 60.2939 33.8573 59.9225 33.6505 59.7161C33.4437 59.5098 33.1541 59.3447 33.4437 58.9732C33.4851 58.8907 33.361 58.7256 33.4023 58.6431C33.4437 58.5192 33.5678 58.3542 33.6505 58.3954C33.816 58.4367 33.9401 58.478 34.1055 58.478L34.1469 58.4367C34.1882 58.4367 34.2296 58.478 34.3123 58.5193C34.5605 58.5605 34.8087 58.6843 34.9742 58.932C35.1396 59.1796 35.3051 59.3447 35.1396 59.6748C34.9742 59.9225 35.0983 60.0876 35.4292 60.005C35.6774 59.9637 35.8014 60.0463 35.9255 60.2114C35.9255 60.2114 35.9255 60.2114 35.9669 60.2526V60.2114C35.9669 60.1288 36.0496 60.0463 36.091 59.9225C36.1737 59.9637 36.2565 60.0463 36.2978 60.0876C36.3392 60.1288 36.3392 60.2114 36.3805 60.3352L41.3442 55.3826C41.3029 55.3826 41.3029 55.3414 41.3029 55.3001C41.2201 55.0525 41.4683 55.0525 41.6338 55.0112C41.6752 55.0112 41.7165 54.9699 41.7579 54.9699L43.8675 52.8651C43.7847 52.9064 43.702 52.9064 43.6606 52.8651C43.4538 52.7826 43.5365 52.6175 43.5779 52.4111C43.6193 51.9984 43.6606 51.6682 44.0329 51.4206C44.0743 51.4206 44.0743 51.3793 44.0743 51.3381C43.9916 51.3793 43.9502 51.3793 43.8675 51.4206C43.7847 51.4206 43.702 51.5031 43.5779 51.5031C43.4952 51.5031 43.3297 51.4619 43.2884 51.3793C43.247 51.2968 43.247 51.173 43.2884 51.0492C43.3711 50.8841 43.4538 50.719 43.5779 50.5952C43.6606 50.5126 43.7847 50.4301 43.8675 50.3888C43.9502 50.3888 43.9916 50.3888 44.0743 50.3476C44.1156 50.265 44.157 50.1412 44.2397 50.0999C44.2811 50.0587 44.4879 50.0999 44.5293 50.1825C44.5707 50.2237 44.612 50.265 44.6534 50.3063C44.9016 50.3063 44.9843 50.4301 45.0257 50.719C45.0257 50.719 45.0257 50.719 45.0257 50.7603C45.2325 50.9666 45.3979 51.1317 45.4393 51.2968L45.8529 50.8841C45.6461 50.8428 45.5634 50.719 45.4393 50.4301C45.3566 50.1825 45.3979 50.0174 45.6461 49.9348C45.6875 49.8936 45.7702 49.8936 45.8116 49.8936C45.8116 49.7698 45.8116 49.6872 45.8529 49.5634C45.8943 49.4396 45.8943 49.2332 46.0184 49.192C46.1011 49.1507 46.3079 49.2332 46.432 49.3158C46.5148 49.357 46.5975 49.4809 46.6802 49.5634C46.7216 49.6047 46.7216 49.6459 46.763 49.6872C46.9284 49.6459 47.0525 49.6047 47.218 49.5634L47.9625 48.8205C47.7143 48.7792 47.342 48.2427 47.4248 47.9951C47.4661 47.8713 47.4661 47.7475 47.5075 47.6237C47.5489 47.4998 47.5489 47.376 47.6316 47.3348C47.7143 47.2935 47.8384 47.376 47.9211 47.4173C48.0452 47.4998 48.128 47.5824 48.1693 47.6649C48.3762 47.9126 48.5002 48.1602 48.4589 48.3253L60.2477 36.563C60.2063 36.5217 60.1649 36.5217 60.1236 36.4804C59.9168 36.3566 59.4618 36.2741 59.4618 36.1915C59.4618 35.9026 59.379 35.655 59.2136 35.4074C59.0481 35.1598 58.8413 34.9121 58.6758 34.6232C58.5931 34.4994 58.469 34.3343 58.5104 34.2518C58.7586 33.8803 58.4276 33.674 58.2622 33.4264C58.1795 33.3025 58.1381 33.0962 58.2208 33.0137C58.3863 32.8073 58.5517 33.0136 58.6758 33.1375C58.8827 33.3438 59.0481 33.6327 59.4204 33.4676C59.4618 33.4264 59.5858 33.5502 59.6686 33.5914C60.0409 34.0454 60.4131 34.4994 60.7854 34.9534C60.8268 34.9947 60.8681 35.0772 60.8268 35.1185C60.7027 35.4074 60.7854 35.6137 60.9509 35.8201L62.3986 34.3756C62.3572 34.3343 62.3159 34.2931 62.2332 34.2105C61.9022 33.8803 61.6127 33.5089 61.3231 33.1375C60.9922 32.7248 60.62 32.312 60.289 31.8993C60.1236 31.693 60.0822 31.5279 60.3304 31.3215C60.6199 31.0326 60.7854 30.9914 61.0336 31.3628C61.2404 31.6517 61.6954 31.8581 61.4472 32.3533C61.3645 32.5184 61.53 32.6835 61.7368 32.6009C62.0263 32.4771 62.1918 32.6422 62.3159 32.8486C62.5227 33.0962 62.7295 33.3851 62.9777 33.6327C63.0191 33.674 63.0191 33.7153 63.0604 33.7153L65.7491 31.0326L60.3304 25.6261C60.6613 24.8832 60.9095 24.0991 61.075 23.3149C60.9509 23.3975 60.8268 23.2324 60.7027 23.1498C60.4545 22.8609 60.2063 22.5308 59.9581 22.2419C59.9168 22.1593 59.9168 22.0355 59.8754 21.9117C59.9995 21.9117 60.1236 21.8704 60.2063 21.8704C60.3304 21.8704 60.4545 21.953 60.5372 21.953C60.9095 21.8704 60.9922 21.9942 60.9095 22.3657C60.8681 22.5308 61.0336 22.6959 61.075 22.9022C61.075 22.9435 61.1163 23.026 61.1163 23.1086C61.9022 19.1878 60.7854 14.9781 57.7658 11.9241C54.043 8.20966 48.5416 7.34297 43.9916 9.36526L38.4488 4L36.2978 6.1461ZM18.8835 25.8737C18.8008 25.9563 18.6767 25.915 18.4285 25.9563C18.5112 25.7499 18.5112 25.5848 18.594 25.5023C18.6767 25.461 18.8421 25.5023 18.9662 25.5023C18.8835 25.6261 18.9249 25.7912 18.8835 25.8737ZM6.68107 39.4107C6.10197 39.5758 5.89515 39.4107 5.93651 38.8329C5.97788 38.5853 6.06061 38.3376 6.1847 38.09C6.30879 37.8837 6.6397 37.8836 6.72243 38.1313C6.80516 38.2551 6.80516 38.4202 6.84653 38.5853C6.88789 38.7091 6.88789 38.8742 6.92925 39.0392C7.01198 39.2456 6.92925 39.3281 6.68107 39.4107ZM33.9814 60.7479C34.0642 60.7892 34.1469 60.7892 34.2296 60.8304C34.3537 60.913 34.4778 60.9955 34.5605 61.0781C34.5605 61.4082 34.6846 61.6559 34.3123 61.7797C33.8987 61.9035 33.7746 61.8622 33.5678 61.4908C33.4851 61.3257 33.4851 61.1606 33.4851 60.9955C33.5264 60.5003 33.5678 60.5003 33.9814 60.7479ZM62.1918 31.0739C62.2332 31.0326 62.3572 31.0739 62.44 31.0739C62.44 31.1564 62.44 31.2803 62.3986 31.3628C62.3572 31.4041 62.2332 31.3628 62.1091 31.3628C62.1504 31.239 62.1504 31.1152 62.1918 31.0739ZM38.2419 19.0227C38.2833 18.9814 38.3247 18.9814 38.4074 18.9814C38.366 18.8164 38.2419 18.5687 38.5315 18.4862C39.1106 18.3211 39.731 18.156 40.3101 17.9909C40.4342 17.9497 40.5583 18.0322 40.6824 18.0735C40.5997 18.156 40.517 18.3211 40.3929 18.3624C40.2688 18.4449 40.1033 18.4862 39.9792 18.5275C39.4829 18.6513 38.9451 18.8164 38.4488 18.9402C38.4488 18.9814 38.4901 19.064 38.4488 19.1053C38.366 19.1878 38.2833 19.2703 38.2006 19.3116L38.0765 19.2291C38.1178 19.1878 38.1592 19.1053 38.2419 19.0227ZM41.6752 20.3847C41.6338 20.4672 41.6338 20.5085 41.5924 20.591C41.5097 20.5497 41.3856 20.5497 41.3856 20.4672C41.3442 20.4259 41.427 20.3021 41.427 20.3021C41.5097 20.3021 41.5924 20.3434 41.6752 20.3847ZM41.6338 18.4036C41.7993 18.2798 41.882 18.156 41.9647 18.1147C42.0474 18.1147 42.1302 18.1973 42.2543 18.2386C42.1715 18.3211 42.1302 18.4449 42.0474 18.5275C41.9647 18.5275 41.8406 18.4449 41.6338 18.4036ZM41.9233 29.258C41.9647 29.2992 41.9647 29.4231 41.9233 29.4643C41.6752 29.7532 41.3856 30.0421 41.1374 30.331C40.972 30.2898 40.8479 30.2485 40.7651 30.2072C40.5997 30.1247 40.4342 30.0009 40.2688 29.877C40.1033 29.7532 40.1033 29.5881 40.3101 29.4643C40.5997 29.3405 40.972 29.3405 41.0133 28.8865C41.0133 28.8453 41.1374 28.804 41.1374 28.804C41.3856 28.9278 41.6752 29.0929 41.9233 29.258ZM39.9379 21.5403C39.6483 21.7053 39.5656 21.6228 39.4415 21.0863C39.4415 21.045 39.4001 20.9625 39.4001 20.8799C39.4001 20.7974 39.4829 20.6736 39.5242 20.6736C39.6069 20.6323 39.731 20.6736 39.7724 20.7148C39.8551 20.7974 39.8965 20.9212 39.9792 20.9625C40.062 21.045 40.1861 21.1275 40.3101 21.2101C40.1861 21.3339 40.062 21.499 39.9379 21.5403ZM40.4342 24.0165C40.4756 24.0165 40.5583 24.0991 40.5997 24.1403C40.5583 24.1816 40.4756 24.2642 40.3929 24.3054C40.3515 24.3054 40.2688 24.2642 40.1447 24.1816C40.3101 24.0991 40.3515 24.0578 40.4342 24.0165ZM39.2347 24.5118C39.1933 24.5531 39.1519 24.6769 39.1106 24.6769C39.0279 24.6769 38.9451 24.6356 38.7797 24.6356C38.9038 24.5118 38.9451 24.4292 39.0279 24.4292C39.1106 24.3467 39.1519 24.4292 39.2347 24.5118ZM38.0351 29.5469C38.2006 29.5056 38.2833 29.5056 38.366 29.4643C38.8624 29.1342 39.1519 29.5881 39.4829 29.7532C39.5242 29.7532 39.5242 30.0421 39.4829 30.0834C39.3588 30.2072 39.1933 30.2898 39.0279 30.331C38.4488 30.4548 37.911 30.5374 37.3319 30.6612C37.2078 30.6612 37.0837 30.6199 36.9596 30.6199C37.001 30.5374 37.0837 30.4136 37.1251 30.331L37.1665 30.2898C37.1665 29.5881 37.7042 29.6294 38.0351 29.5469ZM38.7797 31.4041C38.5315 31.4041 38.2833 31.4453 38.2006 31.3628C37.9937 31.1564 38.2419 31.0326 38.4074 30.9088C38.5315 30.785 38.7383 30.5786 38.9038 30.8263C38.9451 30.9501 38.821 31.1564 38.7797 31.4041ZM38.9038 33.0549C38.8624 33.1375 38.8624 33.22 38.821 33.22C38.7383 33.2613 38.6556 33.22 38.5315 33.1787C38.6142 33.0549 38.6556 32.9724 38.6969 32.9724C38.7383 32.9724 38.821 33.0137 38.9038 33.0549ZM36.7528 24.7181C36.8355 24.5943 36.8769 24.3467 37.0837 24.4292C37.2078 24.4705 37.2906 24.6769 37.4146 24.8832C37.3319 25.007 37.2906 25.2547 37.1665 25.2547C36.9596 25.2959 36.7115 25.2134 36.4633 25.1721C36.4633 25.1721 36.4633 25.007 36.5046 24.9245C36.5874 24.842 36.7115 24.8007 36.7528 24.7181ZM36.7528 21.8704C36.9596 21.7466 37.2078 21.7053 37.456 21.7053C37.6628 21.7053 37.7869 22.3657 37.6215 22.6133C37.5387 22.7784 37.456 22.9435 37.3733 23.0673C37.3319 23.1498 37.2492 23.2324 37.1665 23.2324C37.0837 23.2324 37.001 23.1498 36.9596 23.0673C36.8769 22.9022 36.8769 22.7371 36.8356 22.572C36.8356 22.4895 36.7942 22.407 36.7942 22.3657C36.7115 22.2006 36.6701 21.9117 36.7528 21.8704ZM36.7115 17.4544C36.9596 16.8766 36.9596 16.8766 37.3733 16.7941C37.4146 16.7941 37.5387 16.7528 37.6628 16.7528C37.7456 16.7528 37.8283 16.8766 37.8283 16.9179C37.8283 17.2481 37.2906 17.7846 36.9183 17.7846C36.6701 17.7846 36.5874 17.6608 36.7115 17.4544ZM36.2565 19.5592C36.2978 19.518 36.3805 19.518 36.4633 19.4767C36.546 19.4767 36.6287 19.4354 36.7528 19.4354C36.7942 19.4354 36.8769 19.4354 36.9183 19.4767C36.9596 19.518 37.001 19.6831 37.001 19.6831C36.7942 19.8069 36.5874 19.8894 36.3392 19.972C36.2978 19.972 36.1324 19.8894 36.1324 19.8481C36.1324 19.7243 36.1737 19.6005 36.2565 19.5592ZM35.1396 11.4288C35.181 11.4701 35.2637 11.4701 35.2637 11.5114C35.3051 11.5526 35.2637 11.6352 35.2637 11.7177C35.181 11.6764 35.1396 11.6352 35.1396 11.5939C35.0983 11.5526 35.1396 11.4701 35.1396 11.4288ZM33.6919 11.5939C33.7332 11.5526 33.9814 11.6764 34.0228 11.759C34.1469 12.0066 33.9401 12.0892 33.6919 12.1717C33.5264 12.1304 33.2369 12.0892 33.2369 12.0066C33.1541 11.7177 33.5264 11.7177 33.6919 11.5939ZM34.0228 13.7813C33.9814 13.8225 33.9814 13.9464 33.9401 13.9464C33.8573 13.9876 33.7746 13.9464 33.6505 13.9464C33.7332 13.8225 33.7746 13.74 33.816 13.74C33.8573 13.74 33.9401 13.7813 34.0228 13.7813ZM33.2782 15.1432C33.361 15.1432 33.4023 15.102 33.4851 15.102C33.6919 15.102 33.8987 15.102 34.1055 15.1432C34.1882 15.1432 34.271 15.267 34.3537 15.3496C34.271 15.4321 34.1882 15.5559 34.1469 15.5559C33.8987 15.5559 33.6505 15.5147 33.4023 15.4734C33.361 15.4734 33.2782 15.3496 33.2782 15.3083C33.1955 15.267 33.2782 15.2258 33.2782 15.1432ZM34.0228 18.4862C33.9401 18.4449 33.8987 18.4449 33.6505 18.3211C33.7746 18.2386 33.816 18.156 33.8987 18.156C33.9814 18.156 34.0642 18.2386 34.1055 18.2798C34.1055 18.3211 34.0641 18.4036 34.0228 18.4862ZM32.7405 18.6513C32.7405 18.7338 32.6578 18.8576 32.575 18.8576C32.4923 18.8576 32.4096 18.7751 32.2441 18.7338C32.3682 18.61 32.4096 18.4862 32.4923 18.4862C32.6164 18.4862 32.7405 18.5687 32.7405 18.6513ZM32.5337 14.5242C32.575 14.5242 32.6991 14.6067 32.6991 14.6067C32.6991 14.6892 32.6578 14.7718 32.6164 14.8543C32.5337 14.8131 32.4923 14.8131 32.2441 14.6892C32.3682 14.648 32.4509 14.5654 32.5337 14.5242ZM30.9205 18.4449C31.0032 18.4449 31.0859 18.4449 31.1687 18.4862C31.3341 18.5275 31.4582 18.61 31.5823 18.6925C31.665 18.7338 31.7478 18.8164 31.8305 18.8576C31.7478 18.9402 31.7064 19.064 31.6237 19.1053C31.5409 19.1878 31.4168 19.1878 31.21 19.2703C31.1273 19.2291 30.9205 19.2291 30.9205 19.1465C30.8791 18.9402 30.9205 18.6925 30.9205 18.4449ZM31.8305 19.2703C31.7478 19.3942 31.7478 19.518 31.665 19.5592C31.6237 19.6005 31.5409 19.5592 31.4582 19.518C31.4996 19.4354 31.4996 19.3529 31.5409 19.2703C31.5823 19.2703 31.665 19.2703 31.8305 19.2703ZM28.3973 18.5687C28.5214 18.61 28.6041 18.61 28.6868 18.61C28.6454 18.6925 28.6454 18.8164 28.6041 18.8576C28.5627 18.8989 28.3973 18.8989 28.3973 18.8576C28.3559 18.8164 28.3973 18.6925 28.3973 18.5687ZM28.3145 19.518C28.3973 19.518 28.5627 19.6005 28.5627 19.6831C28.6041 19.7656 28.5214 19.9307 28.4386 19.9307C28.1077 20.0132 27.7354 20.0958 27.3632 20.1783C27.3218 20.1783 27.1563 20.0958 27.1563 20.0132C27.1563 19.9307 27.1977 19.7656 27.2804 19.7243C27.4459 19.6418 27.6113 19.6418 27.7768 19.6005C27.9836 19.5592 28.1491 19.518 28.3145 19.518ZM27.2391 15.3909C27.2804 15.3909 27.3632 15.4734 27.3632 15.5147C27.3632 15.5147 27.3218 15.6385 27.2804 15.6385C27.2391 15.6385 27.1563 15.5972 27.0322 15.5559C27.1563 15.4734 27.1977 15.3909 27.2391 15.3909ZM26.7013 16.6703C26.7427 16.629 27.0736 16.6703 27.0736 16.7528C27.115 16.8766 27.0322 17.0417 26.9909 17.2481C26.7427 17.2481 26.5772 17.2481 26.3704 17.2481C26.4945 17.0417 26.5772 16.8353 26.7013 16.6703ZM25.8327 19.6831C26.1222 19.5592 26.1222 19.8894 26.205 20.0545C26.2463 20.2609 26.3291 20.5085 26.0395 20.591C25.8327 20.6323 25.6672 20.5497 25.6672 20.3434C25.6672 20.0958 25.5018 19.7656 25.8327 19.6831ZM23.2681 19.8069C23.2267 19.7656 23.2681 19.6831 23.3095 19.6418C23.4336 19.4767 24.3436 19.518 24.3436 19.7243C24.3436 19.8894 24.2608 20.0545 24.1781 20.2196C23.9713 20.2609 23.7645 20.3847 23.6817 20.3434C23.5163 20.2196 23.3922 20.0132 23.2681 19.8069ZM20.2899 22.407C20.2485 22.407 20.2899 22.3244 20.2899 22.2006C20.3726 22.2419 20.4553 22.2419 20.4967 22.2831C20.5381 22.2831 20.4967 22.407 20.4967 22.407C20.414 22.407 20.3726 22.407 20.2899 22.407ZM20.4553 32.0644C20.5794 32.0644 20.7035 32.2295 20.869 32.3533C20.7863 32.5597 20.7863 32.8073 20.7035 32.8073C20.414 32.8898 20.414 32.6009 20.3312 32.4359C20.2899 32.312 20.2072 32.0644 20.4553 32.0644ZM20.7863 25.461C20.869 25.5436 20.9103 25.5848 20.9517 25.6261C20.9517 25.6674 20.9103 25.7086 20.869 25.7499C20.8276 25.7086 20.7449 25.6674 20.7035 25.6261C20.7035 25.6261 20.7449 25.5436 20.7863 25.461ZM20.7449 25.3785C20.7449 25.2547 20.7449 25.1721 20.7863 25.0483C20.7863 25.007 20.869 24.9658 20.9103 24.9245C20.9931 24.8832 21.0758 24.8007 21.1585 24.7594C21.1999 24.7181 21.2826 24.7594 21.3654 24.7594C21.3654 24.842 21.3654 24.9245 21.324 24.9658C21.2413 25.0896 21.1999 25.2134 21.0758 25.2959C21.0344 25.3785 20.869 25.3785 20.7449 25.3785ZM21.5308 28.5976C21.6549 28.5976 21.779 28.5564 21.9031 28.5564C22.3167 28.4738 22.4408 28.5976 22.3995 29.0516C22.3581 29.2992 22.3581 29.4231 22.0272 29.2992C21.779 29.1754 21.4481 29.258 21.1172 29.258C20.9931 29.258 20.869 29.2992 20.7863 29.2992C20.7035 29.2992 20.6208 29.2167 20.5381 29.1754C20.5794 29.1342 20.5794 29.0103 20.6622 29.0103C20.9103 28.8453 21.2413 28.7214 21.5308 28.5976ZM23.7645 25.0483C23.5163 25.3785 23.6817 25.7086 23.7231 26.0388C23.7645 26.2452 23.7645 26.5753 23.6817 26.6166C23.4749 26.7404 23.144 26.823 22.8958 26.7404C22.4822 26.5753 22.1099 26.369 21.779 26.0801C21.6135 25.915 21.5722 25.5848 21.5308 25.3372C21.5308 25.2547 21.7376 25.1309 21.9031 25.0483C22.1513 24.9658 22.3995 24.9245 22.6476 24.842C22.6476 24.842 22.6476 24.842 22.6476 24.8832C22.8958 24.8007 23.1854 24.7181 23.4336 24.6769C23.7231 24.6356 23.9299 24.842 23.7645 25.0483ZM24.0127 26.6992C24.2608 26.4515 24.4263 26.6166 24.5918 26.823C24.9227 27.2357 24.9227 27.3182 24.5918 27.6071C24.4263 27.6897 24.2608 28.0198 23.9713 27.6897C23.6817 27.3595 23.7231 26.9881 24.0127 26.6992ZM22.0685 29.6294C21.9858 29.6707 21.9031 29.6707 21.779 29.6707C21.8204 29.5469 21.8204 29.4643 21.8204 29.3818C21.9031 29.4231 21.9858 29.4231 22.0685 29.4643C22.1099 29.4643 22.1099 29.6294 22.0685 29.6294ZM19.7521 29.1342C19.7935 29.0929 20.0003 29.2167 20.0003 29.2992C20.0003 29.3818 19.959 29.5469 19.8762 29.6294C19.7935 29.6707 19.6694 29.5469 19.4626 29.5056C19.5867 29.2992 19.6281 29.1754 19.7521 29.1342ZM18.6767 34.4581C18.7594 34.4994 18.8421 34.6645 18.9662 34.8296C18.9249 34.9947 18.8421 35.1598 18.7594 35.2836C18.718 35.4074 18.6353 35.4899 18.594 35.6137C18.4285 36.0264 18.0149 36.1503 17.6012 35.9026C17.4771 35.8201 17.2703 35.7375 17.1462 35.7375C16.8153 35.7375 16.6498 35.5725 16.5671 35.2836C16.5257 35.1598 16.5671 34.9534 16.6085 34.9121C16.7326 34.8709 16.9394 34.8296 17.0221 34.9121C17.2703 35.201 17.4358 35.2423 17.5598 34.8296C17.5598 34.6232 18.4285 34.3343 18.6767 34.4581ZM16.0294 38.6678C15.7398 38.7091 15.6157 38.6265 15.7398 38.2964C15.7812 38.1726 15.7398 38.0487 15.7398 37.9249C15.7398 37.8424 15.7398 37.7598 15.7812 37.636C15.9053 37.636 15.9466 37.5948 16.0294 37.5948C16.1948 37.5948 16.3603 37.636 16.5257 37.6773C16.7739 37.6773 16.898 37.8011 16.7326 38.0075C16.5671 38.2551 16.7326 38.4202 16.8567 38.5853C16.9807 38.7503 17.1462 38.9154 17.2703 39.0805C17.3117 39.1631 17.3117 39.2869 17.2703 39.4107C17.2703 39.452 17.1048 39.452 17.0221 39.452C16.9394 39.452 16.8567 39.3694 16.7326 39.3694C16.2776 39.3281 16.2776 39.3281 16.3603 38.9567C16.443 38.6678 16.2776 38.6265 16.0294 38.6678ZM17.4358 29.6294C17.6839 29.712 17.8494 29.7532 18.0149 29.7945C17.808 29.9183 17.6426 30.0834 17.4358 30.2072C17.3944 30.2485 17.1462 30.0421 17.1876 30.0009C17.2289 29.877 17.353 29.7532 17.4358 29.6294ZM16.9807 33.0549C16.9807 32.8486 16.9807 32.6009 16.9807 32.3946C16.9807 32.147 17.0635 32.0231 17.3117 32.0644C17.6012 32.1057 18.0149 31.8993 18.1389 32.312C18.4699 32.6835 18.4699 32.7248 18.1803 33.0137C17.8494 33.3025 17.5598 33.5502 17.2289 33.7978C17.1462 33.8391 16.9807 33.8391 16.8567 33.8391C16.8567 33.7978 16.8567 33.7565 16.8567 33.7565C16.7739 33.7978 16.6498 33.8391 16.4844 33.8803C16.443 33.8803 16.3189 33.8391 16.1535 33.7565C16.0294 33.7153 15.9466 33.6327 15.8226 33.5914C15.533 33.5089 15.5744 33.3851 15.7812 33.2613C15.8226 33.22 15.8639 33.22 15.9053 33.1787C16.0294 33.0136 16.443 32.9311 16.6498 32.9311C16.8153 32.8486 16.898 32.9311 16.9807 33.0549ZM15.7812 31.1564C16.1535 30.8263 16.2776 30.8263 16.5671 31.1977C16.7739 31.4453 16.7326 31.6104 16.5257 31.7755C16.1948 32.0231 15.8639 31.9819 15.6157 31.6517C15.4089 31.3628 15.6571 31.2803 15.7812 31.1564ZM15.2435 35.2836C15.2848 35.2423 15.4089 35.2836 15.4916 35.3248C15.6571 35.4074 15.7812 35.4899 15.9053 35.5725C16.1121 35.6963 16.3603 36.3153 16.1535 36.4804C15.9053 36.6868 15.9466 36.9344 15.9466 37.182C15.9466 37.3059 15.8639 37.4297 15.8226 37.5122C15.7398 37.4297 15.5744 37.3471 15.533 37.2233C15.4089 36.9344 15.3675 36.6455 15.2848 36.3153C15.2021 36.0264 15.1194 35.7788 15.078 35.4899C15.1194 35.4487 15.1607 35.3248 15.2435 35.2836ZM12.8857 31.8168C12.9684 31.7755 12.9684 31.5692 12.9684 31.4453C12.9684 31.3215 12.9271 31.239 12.9271 31.1152C12.8857 30.9088 12.9684 30.7437 13.1752 30.7437C13.2993 30.7437 13.4234 30.9088 13.5889 31.0326C13.5062 31.3215 13.3821 31.5692 13.3407 31.8168C13.2993 32.0231 13.2993 32.2708 13.258 32.4771C13.258 32.5597 13.2166 32.6009 13.1752 32.6835C13.0925 32.6422 12.9684 32.6422 12.9684 32.5597C12.803 32.3533 12.5548 32.1057 12.8857 31.8168ZM9.90747 34.7883C9.94884 34.7058 10.0729 34.5407 10.1557 34.5407C10.4866 34.5407 10.4452 34.8709 10.5279 35.0359C10.5693 35.1185 10.5279 35.3661 10.4452 35.4074C10.2384 35.5725 10.0729 35.4486 9.94884 35.0359C9.90747 34.9947 9.86611 34.8709 9.90747 34.7883ZM8.25291 35.655C8.25291 35.6137 8.33564 35.655 8.45973 35.655C8.41836 35.7375 8.41836 35.8201 8.377 35.8614C8.33564 35.9026 8.29427 35.8614 8.21154 35.8614C8.25291 35.7788 8.25291 35.6963 8.25291 35.655ZM10.9829 39.5758C10.9002 39.617 10.8175 39.5758 10.6934 39.5758C10.6934 39.452 10.7348 39.4107 10.7348 39.3281C10.8175 39.3281 10.9002 39.3281 10.9829 39.3694C10.9829 39.4107 10.9829 39.5758 10.9829 39.5758ZM13.3821 39.6996C13.258 39.6996 13.1339 39.5345 13.0098 39.452C13.0925 39.2043 12.8443 38.8742 13.1752 38.7916C13.4648 38.7503 13.4648 39.1218 13.5475 39.2869C13.6302 39.4932 13.6302 39.6996 13.3821 39.6996ZM14.2507 37.5535C14.0439 37.5948 13.8784 37.636 13.6716 37.6773C13.4648 37.7186 13.2166 37.7598 13.1752 38.09C13.1339 38.2964 12.9684 38.3376 12.803 38.2138C12.3893 37.9249 12.0998 38.0075 11.893 38.4614C11.7275 38.8329 11.1484 38.8742 10.8589 38.5853C10.652 38.3789 10.3625 38.2964 10.0729 38.1726C10.0316 38.1726 9.86611 38.2551 9.86611 38.2964C9.82475 38.6678 9.5352 38.6678 9.28701 38.7091C8.99746 38.7503 8.74928 38.9567 8.50109 38.998C8.04609 39.1218 8.00472 39.0805 7.88063 38.6265C7.83927 38.4614 7.7979 38.3376 7.75654 38.1726C7.71517 38.0075 7.67381 37.8424 7.63245 37.6773C7.54972 37.182 7.63244 37.0995 8.08745 37.0582C8.29427 37.017 8.41836 37.0995 8.50109 37.3059C8.62519 37.5947 8.70791 37.8837 8.87337 38.1726C8.91473 38.2551 9.03883 38.3376 9.08019 38.3376C9.16292 38.2964 9.28701 38.1726 9.28701 38.09C9.20428 37.7186 9.28701 37.3884 9.49383 37.0582C9.57656 36.9757 9.5352 36.7693 9.61793 36.7281C9.78338 36.6455 9.9902 36.563 10.1557 36.6042C10.2798 36.6455 10.3625 36.8519 10.4452 36.9757C10.5279 37.0995 10.652 37.2646 10.7761 37.3059C10.9829 37.3471 11.0243 37.1408 11.0657 36.9757C11.107 36.8106 11.2311 36.6868 11.2725 36.5217C11.3139 36.3153 11.4379 36.2328 11.6034 36.1915C12.348 36.0264 13.0512 35.8201 13.7957 35.655C13.5889 35.4486 13.4234 35.2423 13.2166 35.0359C13.0925 34.9121 12.9684 34.747 12.7616 34.6645C12.5961 34.7883 12.4307 34.9947 12.2239 35.0772C11.9757 35.201 11.8516 34.9947 11.8102 34.7883C11.8516 34.582 11.7689 34.2931 11.9757 34.2518C11.8516 34.0867 11.7275 33.9216 11.6034 33.7565C11.5207 33.674 11.6861 33.3851 11.8102 33.22C11.893 33.1375 12.0998 33.0137 12.1411 33.0549C12.5134 33.2613 13.0925 33.1787 13.258 33.6327C13.4648 33.9216 13.713 34.128 13.5475 34.4581C13.5062 34.5407 13.6302 34.747 13.713 34.8709C13.8371 35.0772 14.0439 35.2836 14.168 35.4899C14.168 35.5312 14.2093 35.5725 14.2093 35.6137H14.2507C14.5403 35.5312 14.6644 35.655 14.7057 35.9026C14.7471 36.0264 14.7471 36.109 14.7884 36.2328C14.8712 36.2741 14.9539 36.3566 15.078 36.5217C15.2021 36.6868 15.4503 36.8519 15.1607 37.0995C15.078 37.182 14.9953 37.2233 14.8712 37.2646C14.7884 37.3059 14.5816 37.4297 14.2507 37.5535ZM9.45247 53.6493C9.16292 53.6493 9.08019 53.5667 8.9561 53.0715C8.9561 53.0302 8.91473 52.9889 8.91473 52.9476C8.91473 52.7413 8.87337 52.4524 8.99746 52.3286C9.20428 52.1222 9.32838 52.4524 9.49383 52.4937C9.82475 52.5349 9.9902 52.6587 9.9902 53.0302C9.9902 53.4842 9.90747 53.608 9.45247 53.6493ZM10.7348 46.0966C10.7761 45.9728 10.8175 45.8077 10.9002 45.8077C10.9829 45.7664 11.107 45.8903 11.1898 45.9728C11.2311 46.0141 11.2725 46.1379 11.2725 46.2204C11.3139 46.4268 11.3966 46.6744 11.107 46.757C10.8175 46.8395 10.7761 46.5919 10.7348 46.4268C10.7761 46.303 10.7348 46.1792 10.7348 46.0966ZM11.0657 48.2427C11.4379 48.1189 11.6448 48.1602 11.8102 48.4903C11.893 48.6554 11.9343 48.8205 11.9343 48.9856C11.9343 49.1507 11.893 49.357 11.7689 49.4396C11.6034 49.5634 11.3552 49.5634 11.1898 49.357C11.0657 49.192 10.9416 49.0269 10.8589 48.9443C10.9002 48.6554 10.7348 48.4078 11.0657 48.2427ZM10.9416 52.7826C10.8175 52.3698 10.9002 52.2873 11.2725 52.1635C11.6448 52.0809 11.6861 52.1222 11.8102 52.5762C11.893 52.9889 11.8516 53.0714 11.4379 53.1953C11.107 53.2365 11.0657 53.1953 10.9416 52.7826ZM12.017 55.2588C12.017 55.3414 11.9343 55.5065 11.8516 55.5477C11.7689 55.589 11.6448 55.4652 11.4793 55.3826C11.6034 55.2176 11.6861 55.0937 11.7275 55.0937C11.8516 55.0525 12.017 55.1763 12.017 55.2588ZM13.6716 56.4557C13.6302 56.6208 13.4648 56.7446 13.4648 56.9922C13.4648 57.2398 13.1752 57.3224 13.0512 57.0748C12.8857 56.7446 12.6375 56.7859 12.3893 56.8684C12.3066 56.8684 12.2239 56.9097 12.1825 56.9097C11.6034 57.0335 11.562 56.9922 11.4379 56.5795C11.3552 56.2493 11.5207 56.043 12.017 55.9192C12.2652 56.0017 12.6789 55.7128 12.9271 56.1255C12.9271 56.1668 13.1752 56.0842 13.1752 56.043C13.2166 55.8779 13.3407 55.6303 13.4648 55.7541C13.6302 55.9192 13.713 56.2493 13.6716 56.4557ZM12.8443 53.9794C12.803 53.9381 12.9271 53.8556 12.9684 53.6905C13.0925 53.8143 13.1752 53.8556 13.2166 53.9381C13.2166 53.9794 13.0925 54.1445 13.0512 54.1445C13.0098 54.1445 12.8857 54.062 12.8443 53.9794ZM14.4162 52.4111C14.0439 52.5349 13.6716 52.6175 13.2993 52.7413C13.0098 52.8238 12.8443 52.7 12.803 52.4111C12.7616 52.1635 12.6375 51.9159 13.0098 51.792C13.2166 51.7508 13.4234 51.6682 13.6302 51.627C13.8784 51.5444 14.0853 51.5031 14.0853 51.173C14.0853 50.8428 14.4575 50.8428 14.6644 50.8841C14.8298 50.8841 14.9539 51.1317 14.9953 51.173C15.1194 51.7508 14.8298 52.2873 14.4162 52.4111ZM14.168 47.4998C14.5403 47.376 14.5403 47.7062 14.623 47.9126C14.7471 48.3253 14.6644 48.4491 14.3334 48.5316C14.0853 48.5729 13.8784 48.6142 13.7957 48.284C13.713 47.83 13.8371 47.5824 14.168 47.4998ZM13.7957 45.849C13.7957 45.8077 13.8371 45.7252 13.8784 45.6839L14.0025 45.7252C14.0025 45.7664 14.0025 45.849 14.0025 45.9728C13.9198 45.9315 13.8371 45.8903 13.7957 45.849ZM14.9539 43.2076C14.9539 43.2902 14.7884 43.3314 14.6644 43.3727C14.4162 43.4965 14.0853 43.4965 14.0439 43.868C14.0439 43.9092 13.9198 43.9505 13.8784 43.9505C13.5889 43.7854 13.258 43.6203 12.9684 43.4553C12.7616 43.3314 12.348 43.4553 12.1411 43.6616C11.9757 43.8267 11.8102 43.9918 11.6448 44.0743C11.562 44.1156 11.3552 44.1156 11.3139 44.0743C11.1484 43.7442 10.9002 43.8267 10.6107 43.7854C10.2798 43.7854 10.0316 43.4553 10.1143 43.1251C10.1143 43.0426 10.2384 42.96 10.2798 42.96C10.7761 42.7949 11.3139 42.6711 11.8516 42.5473C12.0584 42.506 12.3066 42.4235 12.4721 42.6298C12.5134 42.7124 12.6789 42.7124 12.803 42.7124C13.0925 42.6711 13.3821 42.6711 13.6716 42.5886C13.9612 42.506 14.2921 42.4648 14.3334 42.052C14.3334 41.8457 14.5816 41.8044 14.7057 42.0108C14.8712 42.2997 15.1194 42.1759 15.3262 42.1759C15.6157 42.1759 15.7812 42.0933 15.7398 41.7631C15.7398 41.7219 15.8226 41.6393 15.8639 41.5981C15.988 41.5155 16.7739 41.9695 16.7739 42.1346C16.7326 42.2584 16.6498 42.3822 16.5671 42.4235C16.3603 42.506 16.1121 42.5886 15.8639 42.6298C15.4503 42.7537 14.9953 42.6711 14.9539 43.2076ZM17.6426 45.0236C17.5185 45.0648 17.3944 45.1061 17.2703 45.1474C17.1462 45.1887 17.0635 45.1887 16.9394 45.1887C16.8567 45.1887 16.7326 45.1474 16.6498 45.1061C16.6912 45.0236 16.7326 44.941 16.7739 44.8585C16.8567 44.6521 16.9394 44.487 17.0635 44.2807C17.2289 44.4045 17.3944 44.5283 17.6012 44.6521C17.6426 44.6521 17.6839 44.6521 17.7253 44.6934C17.808 44.7347 17.8494 44.8172 17.9321 44.8585C17.808 44.8998 17.7253 44.9823 17.6426 45.0236ZM18.0562 47.3348C18.0562 47.5411 17.9735 47.7062 17.9321 47.9126C17.808 47.7887 17.6426 47.6237 17.4358 47.4586C17.5598 47.2935 17.6426 47.1284 17.7253 47.0871C17.9735 46.9633 18.0562 47.1697 18.0562 47.3348ZM15.7812 51.5444C16.0294 51.2555 16.3603 51.0079 16.443 50.6365C16.443 50.5952 16.5671 50.5126 16.6085 50.5126C16.8567 50.5952 17.0635 50.6365 17.2703 50.7603C17.3944 50.8428 17.4358 51.0079 17.4358 51.0492C17.5598 51.5857 17.5185 51.627 17.1048 51.7508C16.9394 51.792 16.8153 51.8333 16.6498 51.8746C16.4016 51.9159 16.1535 52.0397 16.1535 52.3286C16.1535 52.3698 16.0294 52.4524 15.988 52.4524C15.7812 52.3698 15.6571 51.7095 15.7812 51.5444ZM18.1803 55.4239C17.9735 55.5065 17.7667 55.6715 17.6012 55.3826C17.4771 55.1763 17.3117 55.2176 17.1462 55.2588C16.898 55.3001 16.6498 55.3826 16.4016 55.4239C16.3189 55.4239 16.1535 55.4239 16.1121 55.3414C15.8639 54.9699 16.3189 54.8461 16.443 54.5572C16.5257 54.3509 16.7739 54.3096 16.898 54.5159C17.1462 54.8461 17.353 54.6398 17.6012 54.5572C17.8908 54.4334 17.8494 54.1858 17.7667 53.9794C17.6839 53.6905 17.6839 53.3191 17.2289 53.2365C17.1462 53.2365 17.0635 53.0302 17.0635 52.9064C17.0635 52.8238 17.1876 52.7413 17.2703 52.7C17.6839 52.5349 17.8494 52.6175 18.0149 53.0302C18.0562 53.1953 18.0976 53.3603 18.1389 53.5254C18.1803 53.6905 18.2217 53.8556 18.2217 54.0207C18.3044 54.3096 18.3871 54.6398 18.4699 54.9287C18.5112 55.2176 18.4285 55.3414 18.1803 55.4239ZM20.2485 43.2902C20.0417 43.0838 19.959 42.6711 19.4626 42.8775C19.2971 42.96 19.173 42.7124 19.2971 42.506C19.5453 42.0933 19.8349 42.052 20.1658 42.4235C20.414 42.7124 20.6622 42.96 21.1172 42.96C21.2413 42.96 21.324 43.0425 21.324 43.1664C21.4067 43.2076 21.5308 43.2489 21.6135 43.3315C21.6549 43.3315 21.6135 43.5791 21.5308 43.6616C21.4481 43.7442 21.2826 43.7854 21.1585 43.8267C21.0344 43.8267 20.869 43.868 20.7035 43.8267C20.3726 43.8267 20.0831 43.9918 19.9176 44.2394C19.6281 44.7347 19.1317 44.7347 18.6767 44.7759C18.3458 44.7759 18.3871 44.487 18.3044 44.2807C18.2217 44.0331 18.3458 43.9092 18.5526 43.868C18.8421 43.7854 19.0903 43.7442 19.1317 43.3315C19.173 43.0838 19.8349 43.0013 20.0417 43.1664C20.2485 43.3314 20.3312 43.414 20.3726 43.414C20.3312 43.414 20.2899 43.3727 20.2485 43.2902ZM19.959 40.7726C19.959 40.6901 20.1244 40.6075 20.1658 40.6075C20.414 40.7314 20.6208 40.8964 20.869 41.0203C20.869 41.0203 20.9103 41.1028 20.869 41.1441C20.6622 41.2679 20.4967 41.3917 20.2899 41.4742C20.2072 41.5155 20.0831 41.3092 20.0003 41.2679C19.959 41.0203 19.959 40.8964 19.959 40.7726ZM22.3167 52.6175C22.3581 52.6175 22.3167 52.8238 22.2754 52.8651C22.1926 52.9064 22.0685 52.9064 21.9031 52.9064C21.9444 52.8238 21.9444 52.7413 21.9444 52.6587C21.6963 52.4937 21.3654 52.4111 21.2413 52.0809C21.1585 51.792 21.1585 51.6682 21.6135 51.5444C21.6963 51.5857 21.9444 51.627 22.0685 51.7508C22.3167 51.9984 22.3995 52.2873 22.3167 52.6175ZM21.5308 47.5411C21.2413 47.4998 20.9517 47.4998 20.7035 47.4586C20.6622 47.4586 20.6208 47.2522 20.6622 47.1697C20.7035 47.0871 20.7863 47.0046 20.9517 46.8395C21.0344 46.8395 21.2413 46.757 21.2826 46.8395C21.4481 47.0459 21.4894 47.2522 21.6135 47.4998C21.6135 47.4998 21.5722 47.5411 21.5308 47.5411ZM18.6767 41.887C18.5526 41.887 18.4285 41.8044 18.3044 41.7631C18.3871 41.6393 18.5112 41.5155 18.6353 41.3092C18.8008 41.433 19.0076 41.4742 19.0076 41.5981C19.049 41.8457 18.8421 41.887 18.6767 41.887ZM18.3044 43.5378C18.3044 43.5791 18.3044 43.6616 18.3044 43.7442C18.263 43.7442 18.1803 43.7442 18.1389 43.7442C18.0976 43.7029 18.0976 43.6203 18.0976 43.5378C18.2217 43.4965 18.3044 43.4965 18.3044 43.5378ZM19.173 54.6398C19.0903 54.5985 19.049 54.5572 18.9249 54.5159C19.0076 54.4334 19.0076 54.3509 19.049 54.3096C19.1317 54.3509 19.2144 54.3921 19.2558 54.4747C19.2558 54.5159 19.2144 54.5985 19.173 54.6398ZM20.1244 50.9666C19.7521 51.0492 19.4212 51.173 19.0903 51.2555C18.594 51.3793 18.5112 51.3381 18.4285 50.8428C18.3458 50.6365 18.3871 50.4301 18.6353 50.3063C18.7594 50.2237 19.2971 50.0587 19.4626 50.0999C19.5867 50.1412 19.7108 50.0999 19.7935 50.0999C20.2072 50.1412 20.3312 50.2237 20.3726 50.6365C20.3726 50.8428 20.2899 50.9254 20.1244 50.9666ZM21.1172 54.1858C21.0344 54.2683 20.9103 54.3921 20.869 54.4747C20.8276 54.6398 20.7863 54.8048 20.6208 54.7636C20.4967 54.7223 20.4553 54.5572 20.414 54.5159C20.2899 54.0207 20.6208 53.6905 21.0344 53.8143C21.1999 53.8556 21.2413 54.0207 21.1172 54.1858ZM21.5722 60.5415C21.4894 60.5828 21.3654 60.459 21.1585 60.4177C21.324 60.2526 21.4067 60.1288 21.5308 60.1288C21.6135 60.1288 21.7376 60.2526 21.8204 60.2939C21.7376 60.3764 21.6963 60.5003 21.5722 60.5415ZM22.7304 54.1858C22.3581 54.4334 22.4822 54.7223 22.4408 55.0525C22.4408 55.135 22.3581 55.2176 22.3167 55.3001C22.234 55.2588 22.1513 55.1763 22.1099 55.135C22.0272 54.9287 21.9444 54.7223 21.9031 54.5572C21.7376 54.1445 21.779 54.062 22.2754 53.9381C22.3167 53.9381 22.4408 53.8969 22.5649 53.8969C22.7304 53.8969 22.8545 54.1032 22.7304 54.1858ZM22.8545 45.9728C22.6476 46.1379 22.5235 45.9315 22.3995 45.8077C22.3581 45.7664 22.3167 45.6839 22.234 45.6014C21.9858 45.4363 21.8617 45.0648 21.4067 45.1474C21.1585 45.1887 20.9517 44.941 21.1172 44.7347C21.2826 44.487 20.7863 43.868 21.5308 43.9505C21.9031 43.9918 22.3167 43.9918 22.4822 44.487C22.5235 44.6109 22.6063 44.7347 22.5649 44.8172C22.3581 45.1474 22.6063 45.3125 22.7717 45.5188C22.8958 45.6839 23.0199 45.8077 22.8545 45.9728ZM22.3995 40.6901C22.4822 40.5663 22.5235 40.4837 22.5649 40.4837C22.6476 40.4837 22.7304 40.525 22.8131 40.5663C22.7717 40.6075 22.7717 40.7314 22.7304 40.7314C22.6063 40.7726 22.5235 40.7314 22.3995 40.6901ZM22.8958 41.0203C22.8545 40.9377 22.9372 40.7314 22.9372 40.525C23.1026 40.525 23.2267 40.525 23.3922 40.525C23.3922 40.4837 23.4336 40.4425 23.4749 40.4012C23.6817 40.2774 23.9299 40.1536 24.1367 40.071C24.1781 40.071 24.2195 40.0298 24.2195 40.0298C24.1368 40.0298 24.0954 40.0298 24.0127 39.9885C23.9713 39.9885 24.0127 39.8234 24.054 39.6996C24.1781 39.7409 24.3022 39.7409 24.3436 39.7821C24.3849 39.8234 24.3436 39.9059 24.3436 39.9472C24.4677 39.8647 24.5504 39.7821 24.5504 39.5758C24.5504 39.5345 24.5504 39.4932 24.5504 39.4932C23.9713 39.5345 23.4336 39.452 22.8958 39.2456C22.8958 39.2456 22.8958 39.2456 22.8545 39.2456C22.7717 39.2456 22.6063 39.2456 22.5235 39.2043C22.0272 38.9154 21.6963 38.998 21.4481 39.452C21.2826 39.6996 20.8276 39.8234 20.6208 39.617C20.4553 39.452 20.2899 39.452 20.1244 39.4932C19.8349 39.5758 19.5453 39.617 19.2558 39.6996C19.049 39.7409 18.7594 39.7821 18.6767 39.9885C18.8421 40.0298 18.7594 40.8552 18.6353 40.9377C18.3044 41.1441 18.1803 40.7726 18.0149 40.6075C17.9321 40.5663 17.8908 40.4837 17.8908 40.4425C17.8494 40.4425 17.808 40.4837 17.7667 40.4837C17.1462 40.6488 16.4844 40.8139 15.8639 41.0203C15.5744 41.1028 15.4503 41.0203 15.3262 40.7726C15.0366 40.071 15.2021 39.7821 16.1121 39.5345C16.4016 39.4932 16.7739 39.3281 17.1462 39.5345C17.3944 39.6583 17.7253 39.5345 17.8908 39.2869C17.9735 39.2043 18.0562 39.0805 18.1803 39.0392C19.1317 38.7091 20.0417 38.2964 21.0758 38.2551C21.1172 38.2551 21.1585 38.2551 21.2413 38.2551C20.3312 37.3471 19.9176 36.1503 20.0003 34.9947H19.959C19.8762 34.9534 19.8349 34.8296 19.7935 34.6645C19.7521 34.747 19.7108 34.8296 19.6694 34.8709C19.5453 34.9534 19.4212 34.9947 19.2558 35.0772C19.2558 34.9947 19.173 34.9121 19.2144 34.8709C19.2558 34.7883 19.3799 34.7058 19.4212 34.6232C19.504 34.582 19.5867 34.4994 19.6281 34.4994C19.6694 34.4994 19.7108 34.4994 19.7521 34.5407C19.7521 34.4994 19.7521 34.4581 19.7521 34.4169C19.7521 34.3343 19.959 34.1692 20.0831 34.128C20.1244 34.128 20.1244 34.128 20.1658 34.0867C20.3726 33.3851 20.7449 32.7248 21.2826 32.1882C22.9786 30.4961 25.7086 30.4961 27.4045 32.1882C29.0177 33.7978 29.1005 36.3979 27.6113 38.09C27.6113 38.09 27.6113 38.1313 27.57 38.1313C27.5286 38.1725 27.4872 38.2551 27.4045 38.2964C26.7427 38.9567 25.9154 39.3694 25.0881 39.4932C25.1709 39.5758 25.2536 39.6583 25.3363 39.6583C25.7086 39.6583 25.7086 39.9059 25.75 40.1536H25.7913C25.9154 40.1948 26.0395 40.2361 26.1636 40.2361C26.1222 40.2774 26.1222 40.3599 26.0809 40.3599C25.8327 40.4837 25.7913 40.3186 25.7086 40.1536C25.3777 40.2361 25.0468 40.3186 24.7158 40.3599C24.3436 40.4012 24.054 40.525 23.8472 40.8552C23.7645 41.0203 23.6404 41.1028 23.4749 40.979C23.4336 40.9377 23.3922 40.8965 23.3922 40.8552C23.3508 40.8965 23.3508 40.9377 23.3095 40.979C23.2267 41.0615 23.0613 41.2266 22.8958 41.0203ZM19.7108 36.7693C19.6281 36.8106 19.504 36.7693 19.4212 36.7281C19.3799 36.7281 19.4212 36.5217 19.4626 36.4804C19.5453 36.4392 19.6694 36.4392 19.8349 36.4392C19.7935 36.6042 19.7935 36.7281 19.7108 36.7693ZM20.0417 37.4709C20.1658 37.4709 20.2485 37.3884 20.3312 37.4297C20.4553 37.4709 20.5794 37.5535 20.6208 37.636C20.6622 37.9249 20.4553 38.0075 20.2485 38.0487C20.0417 38.09 19.7935 38.2138 19.7108 37.9249C19.6694 37.8424 19.7521 37.6773 19.8349 37.5948C19.8349 37.5122 19.959 37.5122 20.0417 37.4709ZM25.0881 28.3087C25.3363 28.3087 25.6259 28.1849 25.7086 28.3087C25.9568 28.5151 25.7086 28.6802 25.5431 28.8453C25.3777 29.0103 25.1295 29.2167 24.964 28.8865C24.8813 28.7627 25.0468 28.5151 25.0881 28.3087ZM29.39 33.3851C29.6796 33.1787 29.8036 33.1787 30.0518 33.5089C30.2173 33.674 30.2586 33.8803 30.0105 34.0867C29.7623 34.2931 29.6382 34.2931 29.39 34.0042C29.2245 33.7565 29.1418 33.5914 29.39 33.3851ZM29.2245 32.0644C29.2245 31.9406 29.2659 31.7755 29.3486 31.7342C29.5141 31.6517 29.6382 31.7755 29.6795 31.9406C29.6795 31.9819 29.7209 32.0644 29.7623 32.1882C29.7623 32.1882 29.8036 32.312 29.8036 32.3946C29.7623 32.4771 29.7209 32.6422 29.6382 32.6422C29.5555 32.6422 29.4314 32.5597 29.39 32.4771C29.2659 32.3533 29.2245 32.1882 29.2245 32.0644ZM30.1346 30.6612C30.0932 30.7437 29.845 30.7437 29.8036 30.7025C29.5555 30.4548 29.3073 30.1659 29.1418 29.877C29.1005 29.7945 29.1832 29.6707 29.1832 29.5469C29.3073 29.5881 29.4314 29.5469 29.4727 29.6294C29.6382 29.7532 29.7623 29.9183 29.8864 30.0421C29.9691 30.1247 30.0932 30.1659 30.1346 30.2898C30.1759 30.4136 30.2173 30.5786 30.1346 30.6612ZM29.3073 25.6261C29.2659 25.6261 29.1832 25.5848 29.1418 25.5436C29.0591 25.4198 28.9764 25.2959 28.9764 25.1721C28.9764 25.0896 29.0591 24.9658 29.1005 24.842C29.1832 24.9245 29.3073 24.9658 29.39 25.0483C29.4314 25.0483 29.4314 25.1309 29.4314 25.1721C29.4314 25.2547 29.4727 25.3372 29.4727 25.461C29.4314 25.5023 29.39 25.6261 29.3073 25.6261ZM29.4727 36.6455C29.7209 36.563 30.0105 36.5217 30.1346 36.3153C30.3414 36.0264 30.5068 35.8201 30.8377 36.1503C30.8791 36.1915 31.0859 36.109 31.1273 36.0264C31.2928 35.655 31.665 35.5725 31.9546 35.655C32.12 35.7375 32.2855 36.0677 32.3269 36.3153C32.3682 36.6868 32.1614 36.9344 31.7478 37.017C31.7064 37.017 31.665 37.017 31.7064 37.017C31.4168 37.0995 31.1687 37.2233 30.9618 36.9344C30.8791 36.9757 30.7964 36.9757 30.755 37.017C30.7964 36.9757 30.7964 36.8931 30.8377 36.8519C30.755 36.8519 30.6723 36.9344 30.5896 37.0582C30.3414 37.5535 30.0105 37.5947 29.5141 37.3059C29.39 37.2233 29.1832 37.2646 29.0177 37.2646C28.8523 37.2646 28.6041 37.3884 28.6041 37.0995C28.6041 37.017 28.8109 36.8519 28.935 36.8106C29.0591 36.7281 29.2659 36.7281 29.4727 36.6455ZM30.8791 34.9947C30.8791 34.8709 30.9205 34.747 30.9205 34.6232C31.0446 34.6645 31.1687 34.6645 31.2928 34.747C31.3755 34.7883 31.4168 34.8709 31.5409 34.9534C31.5409 35.0359 31.6237 35.1598 31.5823 35.2836C31.5823 35.3661 31.3755 35.4899 31.3341 35.4486C31.21 35.4074 31.0859 35.2836 31.0032 35.1598C30.9205 35.1598 30.8791 35.0772 30.8791 34.9947ZM33.4851 51.8746C33.6505 51.7095 33.8573 51.627 34.0641 51.8333C34.2296 52.0397 34.5605 52.2048 34.3123 52.5762C34.1882 52.7826 34.1469 53.1127 34.0228 53.3191C33.7746 53.6905 33.6091 53.6905 33.3196 53.3603C33.1541 53.1953 33.03 53.0302 32.8646 52.8238C32.7405 52.6175 32.5337 52.3698 32.3682 52.0809C32.3269 51.9571 32.3269 51.8333 32.2855 51.7095C32.4096 51.7508 32.5337 51.7508 32.6578 51.792C32.6991 51.792 32.7405 51.8333 32.7405 51.8333C32.9887 52.1222 33.2369 52.1222 33.4851 51.8746ZM33.03 51.2555C33.1541 51.0904 33.2369 50.9254 33.4023 50.7603C33.4437 50.719 33.6091 50.719 33.6919 50.7603C33.7332 50.7603 33.7746 50.9254 33.7332 51.0079C33.6919 51.0904 33.5678 51.173 33.4851 51.2968C33.4023 51.3381 33.2782 51.3793 33.1955 51.4206C33.1128 51.3793 32.9887 51.2555 33.03 51.2555ZM34.4778 50.3888C34.5192 50.3888 34.6846 50.3888 34.7673 50.4714C34.8914 50.6364 34.7673 50.719 34.6432 50.8428C34.5605 50.9254 34.5605 51.0904 34.4778 51.173C34.3951 51.2555 34.271 51.3793 34.1882 51.3793C34.1055 51.3793 33.9814 51.2142 33.9401 51.1317C33.8573 50.719 33.9814 50.5126 34.4778 50.3888ZM32.7819 51.2555C32.5337 51.3381 32.3269 51.4206 32.0787 51.5031C31.7064 51.5857 31.2927 51.5857 31.1687 52.0809C31.1273 52.2048 30.7137 52.2873 30.5068 52.2873C30.4241 52.2873 30.3 51.9984 30.2586 51.8333C30.1759 51.5857 30.3414 51.5031 30.5482 51.3793C30.6723 51.3381 30.755 51.2555 30.8791 51.2142C31.4168 51.0904 31.9546 51.0079 32.4509 50.9253C32.5337 50.9253 32.6578 50.8841 32.7405 50.8841C32.8232 50.8841 32.906 50.9666 32.906 51.0079C32.8646 51.0904 32.8232 51.2142 32.7819 51.2555ZM27.0322 51.0492C27.115 51.3381 26.9909 51.7095 26.8254 51.6682C26.66 51.627 26.5772 51.4619 26.4118 51.2968C26.4945 51.1317 26.5359 51.0079 26.6186 50.8841C26.5359 50.8015 26.4118 50.8428 26.2877 50.8015C26.1222 50.7603 25.9568 50.719 25.8327 50.6365C25.4604 50.3063 25.5018 50.1825 25.874 49.8523C26.0395 49.7285 26.1636 49.6872 26.4118 49.811C26.66 49.9348 26.9909 49.7698 27.2391 50.0999C27.4459 50.3888 27.3218 50.5539 27.1977 50.8015C27.1563 50.8841 27.0736 50.9254 27.0322 50.9666C27.0322 50.9666 27.0322 51.0079 27.0322 51.0492ZM25.0054 41.433C25.0468 41.3917 25.1295 41.3504 25.2536 41.3092C25.3777 41.2679 25.5018 41.2679 25.6259 41.2266C25.6259 41.3504 25.5845 41.433 25.5845 41.5568C25.5845 41.6806 25.5431 41.7631 25.5431 41.887C25.5431 42.0108 25.5431 42.1346 25.5018 42.2584C25.3777 42.2171 25.2536 42.1346 25.1709 42.0933C24.7986 41.8457 24.7572 41.6806 25.0054 41.433ZM24.8399 43.1251C24.8399 43.1664 24.7158 43.2076 24.6745 43.2489C24.3849 43.2902 23.8886 42.9187 23.8472 42.6298C23.8472 42.506 23.8058 42.3822 23.8058 42.2997C23.8058 42.0933 24.0127 41.9695 24.1367 42.1346C24.2608 42.3409 24.509 42.3409 24.6331 42.4235C24.7986 42.5886 24.7986 42.8775 24.8399 43.1251ZM25.5845 43.6616C25.6672 43.6203 25.8327 43.7029 25.874 43.7442C25.9154 43.868 25.9568 43.9092 25.9568 43.9092C25.9981 44.0743 26.0809 44.2807 26.1222 44.4458C26.0809 44.4458 25.9981 44.487 25.9568 44.487C25.75 44.322 25.5845 44.1156 25.419 43.9092C25.419 43.868 25.5431 43.6616 25.5845 43.6616ZM26.4945 41.9282C26.5772 41.9695 26.6186 42.0933 26.66 42.1759C26.4531 42.2997 26.2463 42.4235 26.0395 42.5473C25.9981 42.5473 25.7913 42.3409 25.7913 42.2997C25.874 42.1759 25.9981 42.052 26.0395 41.9695C26.3291 41.9282 26.4118 41.887 26.4945 41.9282ZM26.1636 39.6583C26.1636 39.5345 26.3704 39.4107 26.4531 39.3281C26.7013 39.3281 26.8668 39.2869 26.9909 39.2869C27.4045 39.2869 27.4872 39.3694 27.57 39.7409C27.57 39.8647 27.5286 39.9885 27.4872 40.1123C27.4045 40.071 27.2804 40.071 27.1977 40.0298C26.9909 39.9885 26.8254 39.9059 26.6186 39.8647C26.4531 39.7821 26.1636 39.9472 26.1636 39.6583ZM27.4872 41.6806C27.57 41.6393 27.6113 41.5155 27.6113 41.433C27.6113 41.1028 27.8182 41.0615 28.1491 40.979C28.1904 41.0203 28.3973 41.0203 28.4386 41.1441C28.5627 41.3504 28.7282 41.5981 28.48 41.8044C28.4386 41.8457 28.3145 41.887 28.3145 41.9282C28.1491 42.4648 27.9423 42.3822 27.57 42.0933C27.3632 41.9695 27.2391 41.9282 27.4872 41.6806ZM27.4872 45.3125C27.57 45.3125 27.6527 45.3125 27.6941 45.3537C27.7354 45.4363 27.6941 45.5188 27.6941 45.6014C27.6113 45.6014 27.57 45.6014 27.4459 45.6014C27.4872 45.4776 27.4872 45.395 27.4872 45.3125ZM27.6941 51.6682C27.7354 51.627 27.9009 51.6682 28.0663 51.6682C28.025 51.8333 28.025 51.9571 27.9423 51.9984C27.8595 52.0397 27.6941 51.9984 27.6527 51.9571C27.6113 51.9159 27.6113 51.7095 27.6941 51.6682ZM28.025 48.6142C28.1904 48.284 28.3973 47.9126 28.6041 47.5824C28.6868 47.4586 28.7695 47.376 28.8523 47.2935C28.935 47.376 29.0591 47.4998 29.1832 47.6237C29.1005 47.7887 29.0591 47.9538 28.9764 48.1189C28.935 48.2427 28.8523 48.3253 28.8109 48.4491C28.7282 48.6554 28.3145 48.8618 28.1077 48.738C28.025 48.7792 27.9836 48.6554 28.025 48.6142ZM29.1418 41.6806C29.1005 41.5155 29.0177 41.3092 29.2659 41.2679C29.39 41.2679 29.5141 41.433 29.7209 41.5568C29.5968 41.7631 29.5555 42.0108 29.4727 42.052C29.1832 42.1346 29.1832 41.8457 29.1418 41.6806ZM29.5141 39.0805C29.4727 39.0392 29.39 38.8742 29.4314 38.8329C29.5555 38.5853 29.7209 38.3376 29.9277 38.09C29.9277 38.0487 30.0932 38.0487 30.0932 38.09C30.2586 38.4202 30.5896 38.3789 30.8377 38.544C30.9618 38.6265 31.0032 38.9154 30.9618 39.0805C30.9205 39.2043 30.7137 39.2869 30.5482 39.4107C30.1346 39.2869 29.8036 39.2043 29.5141 39.0805ZM30.1346 48.3253C30.1759 48.2427 30.2173 48.1602 30.3 48.0776C30.3827 47.9951 30.5068 47.9126 30.6309 47.9126C30.6723 47.9126 30.7964 48.0364 30.7964 48.1189C30.7964 48.2427 30.7137 48.3665 30.6723 48.4078C30.5068 48.4903 30.4241 48.5316 30.3414 48.5729C30.2586 48.6142 30.1759 48.5729 30.0518 48.5729C30.1346 48.4903 30.1346 48.4078 30.1346 48.3253ZM31.7064 49.4809C31.8305 49.5221 31.9132 49.5634 31.9546 49.6047C31.9959 49.6459 31.9546 49.7285 31.9546 49.811C31.8718 49.811 31.7891 49.7698 31.7064 49.7285C31.665 49.7285 31.7064 49.6459 31.7064 49.4809ZM32.2028 47.7887C32.0787 47.7062 31.9959 47.5824 31.9132 47.4586C31.8305 47.376 31.7891 47.2935 31.7064 47.2109C31.7891 47.1284 31.8719 47.0871 32.0373 47.0046C32.1614 47.0459 32.3682 47.0459 32.4096 47.1284C32.5337 47.2935 32.6164 47.4998 32.6164 47.7062C32.6164 47.8713 32.3269 47.9538 32.2028 47.7887ZM32.1614 41.0203C32.0787 41.1028 32.0787 41.2679 31.9959 41.3092C31.8718 41.3917 31.7478 41.3917 31.6237 41.3917C31.5823 41.3917 31.5409 41.2679 31.4582 41.2266C31.3341 41.1441 31.21 41.0203 31.0859 40.9377C31.21 40.8552 31.3755 40.7314 31.4996 40.6488C31.5823 40.6076 31.7064 40.5663 31.9132 40.4837C31.9959 40.4837 32.2028 40.4837 32.2855 40.5663C32.4509 40.7726 32.3269 40.8964 32.1614 41.0203ZM31.4168 38.2964C31.4996 38.2138 31.6237 38.2138 31.7478 38.1313C31.8305 38.1313 31.9959 38.09 32.0787 38.1313C32.1614 38.1725 32.1614 38.3376 32.2028 38.4614C31.9546 38.4614 31.7064 38.5027 31.4582 38.5027C31.4168 38.4202 31.3755 38.2964 31.4168 38.2964ZM28.7695 27.2357C28.6868 27.277 28.6041 27.3182 28.5214 27.3595C28.4386 27.3595 28.3145 27.4008 28.2318 27.4008C28.1904 27.4008 28.1491 27.3182 28.0663 27.277C28.0663 27.3182 28.1077 27.3595 28.1077 27.4008C28.1904 27.6897 28.1904 28.0198 28.1904 28.3087C28.1904 28.35 28.0663 28.4325 28.025 28.3913C27.6527 28.35 27.4459 27.9373 27.57 27.5659C27.6113 27.4833 27.6527 27.4008 27.6113 27.3595C27.57 27.1531 26.7841 26.5341 26.5359 26.5341C26.4118 26.5341 26.2877 26.4928 26.205 26.4515C26.1636 26.4515 26.205 26.2452 26.2463 26.2039C26.3704 26.1626 26.4945 26.1626 26.6186 26.1626C26.7013 26.1626 26.8254 26.2452 26.9081 26.2039C27.2804 25.9975 27.4045 26.3277 27.6113 26.5341C27.7768 26.7817 27.9423 27.0293 28.0663 27.277C28.1904 27.1944 28.3145 27.0706 28.4386 27.0293C28.5627 26.9881 28.6868 27.0706 28.8523 27.0706C28.8523 27.1119 28.8109 27.2357 28.7695 27.2357ZM26.3704 29.2992C26.4531 29.258 26.6186 29.2992 26.7427 29.3818C26.8668 29.4643 26.9081 29.5881 27.0322 29.6707C27.115 29.7532 27.1563 29.8358 27.2391 29.877C27.4045 30.0834 27.5286 30.2898 27.2391 30.5374C26.9909 30.7437 26.7841 30.8263 26.5359 30.5786C26.4531 30.4961 26.3291 30.4136 26.2463 30.2898C25.7913 29.9183 25.874 29.5056 26.3704 29.2992ZM23.1854 49.7285C23.0613 49.4809 23.0199 49.2745 23.3508 49.1094C23.4336 49.0681 23.4749 48.9443 23.5163 48.8205C23.6817 48.4491 24.1368 48.4078 24.4263 48.6967C24.509 48.7792 24.5504 48.8205 24.6331 48.8618C24.7158 48.9443 24.8399 48.9856 24.9227 49.0269C24.8399 49.1094 24.7572 49.1507 24.6745 49.2332C24.509 49.3983 24.3436 49.5634 24.1367 49.7285C24.054 49.811 23.9299 49.8523 23.8058 49.9348C23.5163 50.0587 23.3095 49.9761 23.1854 49.7285ZM24.5504 59.7574C24.4263 59.8399 24.3022 59.8812 24.0954 59.9637C24.0127 59.9637 23.7645 59.9637 23.6817 59.8812C23.5577 59.6748 23.5577 59.4685 23.5577 59.2209C23.5577 59.1796 23.7231 59.0558 23.7645 59.0558C24.054 59.1796 24.3436 59.3447 24.6331 59.5098C24.6331 59.551 24.5918 59.7161 24.5504 59.7574ZM24.6745 53.6905C24.5504 53.6492 24.4677 53.4842 24.3849 53.4429C24.2195 53.4016 24.0127 53.4016 24.054 53.154C24.0954 53.0302 24.2608 52.9889 24.3849 52.8651C24.5504 52.9064 24.7986 52.9064 24.8399 52.9889C24.964 53.154 24.964 53.3603 24.964 53.5667C25.0054 53.608 24.7986 53.6905 24.6745 53.6905ZM25.0881 52.1222C25.0054 52.1222 24.9227 52.0809 24.7572 52.0397C24.8399 51.9159 24.8813 51.792 24.9227 51.792C25.0054 51.792 25.1295 51.8746 25.1709 51.9159C25.1709 51.9159 25.1295 52.1222 25.0881 52.1222ZM24.964 48.9031C24.7158 48.6142 24.4677 48.284 24.1781 47.9951C23.9299 47.7062 23.6817 47.4173 23.4336 47.1284C23.3095 46.9633 23.2267 46.8395 23.4336 46.6744C23.599 46.5506 23.7231 46.6744 23.8058 46.7982C24.3022 47.376 24.7986 47.9538 25.2949 48.4903C25.4604 48.6554 25.5431 48.8205 25.3363 48.9856C25.2536 49.1507 25.0881 49.0269 24.964 48.9031ZM25.4604 54.4747C25.4604 54.3921 25.5018 54.3096 25.5018 54.227C25.5431 54.2683 25.6672 54.2683 25.6672 54.3096C25.7086 54.3921 25.6672 54.4747 25.6672 54.6398C25.5845 54.5572 25.4604 54.5572 25.4604 54.4747ZM25.8327 59.551C25.7086 59.4272 25.5845 59.3859 25.5845 59.3034C25.5845 59.2209 25.6672 59.1383 25.75 59.097C25.7913 59.097 25.9154 59.1796 25.9568 59.2209C25.9981 59.3034 25.9154 59.3859 25.8327 59.551ZM26.205 53.6905C26.0809 53.4842 26.0395 53.2778 26.1222 53.154C26.1222 53.0714 26.1222 52.9889 26.0809 52.9064C26.205 52.9064 26.3291 52.9064 26.3704 52.9476C26.3704 52.9476 26.4118 52.9476 26.4118 52.9064C26.5772 52.8238 26.7427 52.7826 26.8254 52.5349C26.8254 52.4524 26.9909 52.3286 27.115 52.2873C27.3218 52.2048 27.5286 52.1635 27.7354 52.1222C27.9009 52.0809 28.0663 52.0397 28.2318 51.9984C28.6454 51.9159 28.6868 51.9984 28.7695 52.3698C28.7695 52.4111 28.7695 52.4111 28.7695 52.4524C28.8523 52.4524 28.935 52.4111 28.9764 52.3698C29.1832 52.246 29.39 52.1222 29.5968 51.9984C29.8864 51.8746 30.2173 52.0397 30.2586 52.3698C30.2586 52.4111 30.1346 52.5349 30.0518 52.5349C29.5555 52.5349 29.6382 52.5349 29.5141 52.9889C29.4314 53.4016 29.5141 53.6492 29.8036 53.8969C30.0105 54.1032 30.2173 54.3509 30.0932 54.7223C30.0518 54.8048 30.1346 54.9287 30.1346 55.0525C30.2586 55.0525 30.3414 55.0525 30.4655 55.0112C31.0446 54.8048 31.1273 54.8048 31.4168 55.135C31.7891 55.5477 31.5823 56.2493 31.0446 56.4557C30.7964 56.5382 30.6723 56.4557 30.5482 56.2906C30.2586 55.9604 29.9691 55.6303 29.7209 55.3001C29.5141 55.0525 29.3073 54.8048 29.1005 54.5572C28.8936 54.3096 28.5627 54.1032 28.8109 53.6905C28.8523 53.6492 28.7282 53.4842 28.6868 53.4016C28.5627 53.2365 28.4386 53.1127 28.3559 52.9064V52.8651C27.9423 52.9476 27.5286 53.0714 27.1563 53.1953C26.9081 53.2778 26.5772 53.2778 26.6186 53.6905C26.6186 53.7318 26.4945 53.8143 26.4118 53.8556C26.3291 53.8143 26.2463 53.7318 26.205 53.6905ZM31.1687 61.9035C31.1273 61.986 31.0859 62.0686 31.0032 62.0686C30.9618 62.0686 30.8791 62.0273 30.755 61.986C30.8791 61.9035 30.9205 61.8209 31.0032 61.7797C31.0446 61.8209 31.1273 61.9035 31.1687 61.9035ZM30.1346 57.7351C30.1346 57.7764 30.0518 57.9415 30.0105 57.9415C29.9277 57.9415 29.845 57.8589 29.7209 57.8176C29.8036 57.6938 29.8864 57.57 29.9277 57.6113C29.9691 57.57 30.0932 57.6526 30.1346 57.7351ZM29.5968 59.7574C29.5968 59.7987 29.5555 59.9225 29.5141 59.9225C29.4727 59.9637 29.39 59.8812 29.3073 59.8399C29.39 59.7574 29.4314 59.6748 29.4727 59.6336C29.4727 59.6748 29.5968 59.7161 29.5968 59.7574ZM28.2318 59.551C28.2318 59.5923 28.2318 59.5923 28.2318 59.551C28.2732 59.5098 28.3559 59.4685 28.3559 59.4685C28.4386 59.4685 28.5627 59.5098 28.6454 59.5923C28.6454 59.5923 28.6454 59.6748 28.6454 59.7574C28.5627 59.7161 28.4386 59.7161 28.3559 59.6748C28.3145 59.6748 28.2732 59.6336 28.2318 59.551C28.2318 59.5923 28.2318 59.5923 28.2318 59.551C28.2318 59.5923 28.2318 59.5923 28.2318 59.551C28.025 59.6748 27.8595 59.7161 27.7768 59.6748C27.7768 59.6748 27.7768 59.7161 27.7354 59.7161C27.8182 59.7574 27.9009 59.8399 27.9836 59.8812C28.2318 60.005 28.4386 60.3352 28.3559 60.6241C28.3145 60.7892 28.1077 60.913 27.9423 61.0368C27.6113 61.0781 27.4459 60.9955 27.3218 60.7479C27.1977 60.5415 27.0322 60.5828 26.9495 60.7892C26.8668 60.913 26.9495 61.1606 26.7013 61.0781C26.5359 61.0368 26.3291 60.5003 26.4531 60.3765C26.7841 60.0876 26.66 59.7987 26.5772 59.4685C26.5359 59.1796 26.3704 58.8907 26.7841 58.6843C26.9495 58.6018 26.9495 58.3129 27.115 58.2303C27.1977 58.1891 27.3218 58.3542 27.4459 58.4367C27.4459 58.3954 27.5286 58.3542 27.57 58.3542C27.6941 58.3542 27.8182 58.3954 27.9009 58.478C28.2732 58.478 28.6868 58.4367 28.8523 57.9002C28.8523 57.8589 29.0591 57.8176 29.0591 57.8589C29.3073 58.1891 29.4314 58.5605 29.3486 58.932C29.3073 59.1383 29.1418 59.1796 28.9764 59.0145C28.6454 58.7256 28.6868 58.7669 28.4386 59.0558C28.3559 59.1796 28.2318 59.2209 28.0663 59.3034C28.1491 59.4272 28.1904 59.5098 28.2318 59.551C28.2318 59.5923 28.2318 59.551 28.2318 59.551ZM30.3 62.6051C30.3 62.894 29.9691 62.9765 29.7623 62.9353C29.4727 62.894 29.1832 62.7702 28.935 62.6051C28.8523 62.5638 28.8523 62.3987 28.7695 62.1924C28.8109 62.1098 28.7695 61.8209 28.8936 61.7797C29.1418 61.6559 29.4314 61.4908 29.6795 61.7797C29.7623 61.8622 29.845 61.9448 29.9691 61.9448C30.3414 62.0273 30.3 62.3575 30.3 62.6051ZM30.0518 61.6559C30.0518 61.5733 30.0105 61.4908 30.0105 61.4082C30.0518 61.3257 30.1346 61.2844 30.1759 61.2019C30.2586 61.1606 30.3414 61.0781 30.4241 61.0368C30.5068 61.0368 30.5896 61.0781 30.6723 61.0781C30.6309 61.2019 30.5896 61.367 30.5068 61.4495C30.4241 61.5733 30.2173 61.6146 30.0518 61.6559ZM31.1687 62.9353C31.0032 63.0178 30.8377 63.0178 30.6309 63.0591C30.7137 62.894 30.755 62.6876 30.8377 62.5638C30.8791 62.4813 31.0859 62.5226 31.3755 62.4813C31.2927 62.7289 31.2514 62.894 31.1687 62.9353ZM33.03 61.4495C32.906 61.5733 32.7405 61.6559 32.6164 61.6146C32.575 61.6559 32.575 61.6971 32.5337 61.7384C32.4923 61.7797 32.4096 61.6971 32.3682 61.6559C32.3682 61.6146 32.4096 61.5733 32.4509 61.4908C32.3682 61.4082 32.2855 61.3257 32.1614 61.2431C32.0373 60.9955 31.7478 60.7479 31.9546 60.3765C31.9546 60.3352 31.9959 60.2939 31.9959 60.2526C31.9959 60.0876 31.9959 59.9637 31.9959 59.7987C32.1614 59.8812 32.3269 59.9637 32.4509 60.0876C32.6991 60.3352 32.906 60.6241 33.1541 60.8717C33.3196 61.1193 33.2369 61.2844 33.03 61.4495ZM35.4705 57.0748C35.3051 57.116 35.2223 57.1986 35.1396 57.4049C35.0155 57.6938 34.8087 57.9415 34.6019 58.1478C34.5605 58.1891 34.3951 58.1478 34.3537 58.1065C34.271 58.024 34.2296 57.9002 34.1882 57.8176C34.1055 57.6938 33.9814 57.4875 33.8573 57.4875C33.6091 57.4875 33.361 57.4875 33.2369 57.8176C33.1955 57.9414 33.0714 58.024 33.03 58.1065C32.9887 58.0653 32.9887 58.0653 32.9473 58.024C32.906 58.1065 32.8232 58.1891 32.7405 58.2303C32.6578 58.3129 32.4509 58.2716 32.3269 58.2303C32.2028 58.1891 32.1614 58.0653 31.9959 57.9002C31.9546 57.9827 31.8719 58.0653 31.8719 58.1478C31.8305 58.3542 31.7478 58.5192 31.5409 58.478C31.4168 58.4367 31.2928 58.2716 31.2928 58.2303C31.1687 57.8589 31.1273 57.6526 31.4582 57.5287C31.4996 57.5287 31.5409 57.4462 31.5823 57.4049C31.665 57.3224 31.5823 57.0335 31.7891 57.0335C31.8305 56.9097 31.8305 56.7446 31.7478 56.6208C31.8718 56.5795 31.9959 56.497 32.0787 56.5382C32.2855 56.662 32.4509 56.7859 32.575 56.9509C32.6164 56.8684 32.6164 56.8271 32.6991 56.7446C32.7405 56.7033 32.906 56.7859 32.9473 56.8271C33.1128 57.0748 33.3196 56.9922 33.5264 56.9509C33.9814 56.8271 34.4778 56.7033 34.9328 56.6208C35.181 56.5795 35.3878 56.497 35.3878 56.2081C35.3878 56.1255 35.5119 56.043 35.5533 56.043C35.636 56.043 35.7187 56.1255 35.7601 56.1668C36.091 56.7033 35.9669 56.9097 35.4705 57.0748ZM36.2565 54.8048C36.1737 54.8461 36.0496 54.8874 36.0083 54.8461C35.5533 54.6398 35.1396 54.5572 34.6432 54.7636C34.4778 54.8461 34.1055 54.227 34.2296 54.062C34.271 54.0207 34.3951 53.9794 34.4364 54.0207C34.8501 54.2683 35.0155 53.8969 35.2223 53.6905C35.2637 53.6492 35.181 53.4842 35.0983 53.4016C35.0569 53.3603 34.9328 53.4429 34.8914 53.4016C34.8087 53.3191 34.726 53.1953 34.6846 53.1127C34.7673 53.0714 34.8914 52.9889 34.9742 52.9889C35.6774 53.0714 35.6774 53.0715 36.2565 53.6905C36.2978 53.7318 36.4219 53.8556 36.5046 53.9794C36.6701 54.2683 36.6287 54.5572 36.2565 54.8048ZM35.9255 49.8936C36.1737 49.8523 36.2978 49.9761 36.3805 50.3476C36.4633 50.7603 36.4219 50.8841 36.091 50.9666C35.6774 51.0492 35.4705 50.9253 35.3464 50.4714C35.3051 50.2237 35.5946 49.9761 35.9255 49.8936ZM37.6628 58.1065C37.5387 58.1478 37.3319 58.1065 37.2906 58.024C37.2078 57.8589 37.1665 57.6526 37.1251 57.4462C37.3319 57.5287 37.4974 57.57 37.7869 57.6938C37.7456 57.8589 37.7456 58.0653 37.6628 58.1065ZM37.4974 56.043C37.5387 56.0842 37.4974 56.2493 37.456 56.2906C37.3733 56.3319 37.2078 56.3319 37.1665 56.2493C37.1251 56.2081 37.1665 56.043 37.1665 55.8779C37.3319 55.9604 37.456 55.9604 37.4974 56.043ZM37.3733 49.6872C37.4146 49.6459 37.5801 49.6872 37.6215 49.7698C37.7042 49.8523 37.7042 49.9761 37.7456 50.0999C37.7456 50.1825 37.7456 50.3063 37.7042 50.4301C37.7042 50.4714 37.5387 50.5126 37.5387 50.5126C37.456 50.3475 37.3319 50.1825 37.2906 49.9761C37.2492 49.8936 37.2906 49.7698 37.3733 49.6872ZM38.821 57.116C38.7383 57.116 38.6142 57.116 38.5315 57.0335C38.4901 56.9922 38.5315 56.8684 38.5728 56.7446C38.6969 56.8271 38.821 56.8271 38.9038 56.9097C38.9038 56.9509 38.821 57.116 38.821 57.116ZM39.3174 52.4937C38.9038 52.7 38.4488 52.7826 38.0351 52.8651C37.9937 52.8651 37.8697 52.5349 37.8697 52.3698C37.8697 52.246 37.9937 52.0809 38.0765 52.0397C38.2419 51.9571 38.4488 51.9159 38.6142 51.8746V51.8333C38.8624 51.792 39.1106 51.7508 39.3588 51.7095C39.4001 51.7095 39.5242 51.8333 39.5242 51.8746C39.4829 52.0809 39.4829 52.4111 39.3174 52.4937ZM38.9038 37.6773C39.1933 37.4297 39.276 37.4297 39.5242 37.6773C39.8138 38.0075 39.8138 38.09 39.5242 38.3376C39.1933 38.6265 39.1106 38.6265 38.8624 38.3376C38.6142 38.0075 38.6142 37.9249 38.9038 37.6773ZM39.4415 36.109C39.6897 36.0677 39.7724 36.1915 39.8138 36.3979C39.8965 36.8106 39.8551 36.9344 39.4829 37.0582C39.1519 37.1408 39.0279 37.0995 38.9451 36.7281C38.8624 36.4392 39.0692 36.1503 39.4415 36.109ZM40.0206 42.1759C40.062 42.2584 40.0206 42.3822 40.0206 42.4648C39.8965 42.4648 39.7724 42.506 39.731 42.4235C39.6897 42.3822 39.6897 42.2171 39.6483 42.052C39.8551 42.0933 39.9792 42.0933 40.0206 42.1759ZM38.9038 40.6075C38.9865 40.7314 39.1106 40.8552 39.1519 40.9377C39.1933 41.0615 39.1933 41.2266 39.1106 41.3092C39.0692 41.3917 38.8624 41.3917 38.7383 41.3504C38.5315 41.3092 38.2006 40.8139 38.2006 40.5663C38.2006 40.4425 38.2006 40.3186 38.2006 40.1948C38.3247 40.2361 38.4488 40.2774 38.5728 40.3599C38.7383 40.4425 38.8624 40.5663 38.9038 40.6075ZM39.1519 44.0743C39.2347 44.0743 39.276 44.1569 39.3588 44.1569C39.5242 44.1981 39.8138 43.9918 39.8551 44.2807C39.8965 44.487 39.6897 44.7347 39.6069 44.9823C39.3588 45.0648 39.1519 45.1474 38.9451 45.1887C38.7383 45.1887 38.4901 44.8172 38.5315 44.6521C38.5728 44.2807 38.9038 43.9918 39.1519 44.0743ZM39.0279 49.6459C38.9451 49.6459 38.9038 49.6459 38.821 49.6459C38.7797 49.6459 38.821 49.5634 38.821 49.4396C38.9038 49.4809 38.9865 49.4809 39.0279 49.5221C39.0279 49.5221 39.0279 49.6047 39.0279 49.6459ZM39.8551 49.4809C39.7724 49.5221 39.6897 49.4396 39.5242 49.3983C39.6069 49.2745 39.6897 49.1507 39.731 49.1094C39.8138 49.1094 39.8965 49.192 39.9792 49.2332C39.9792 49.3158 39.9379 49.4396 39.8551 49.4809ZM39.9792 48.0776C40.0206 47.9951 40.0206 47.9126 40.062 47.83C40.1033 47.7887 40.1861 47.83 40.3101 47.83C40.2688 47.9538 40.2274 48.0364 40.186 48.0776C40.1447 48.0776 40.062 48.0776 39.9792 48.0776ZM42.0888 43.9505C42.0061 44.2394 42.1715 44.4458 42.2956 44.6521C42.337 44.7759 42.2956 44.941 42.2956 45.0648C42.1715 45.0648 41.9647 45.0648 41.882 44.9823C41.6338 44.7759 41.427 44.487 41.1374 44.1981C41.0133 44.0331 40.8479 43.868 40.6824 43.6616C40.5583 43.4965 40.4756 43.3727 40.6411 43.2076C40.8065 43.0425 40.972 43.1251 41.0961 43.2489C41.3029 43.4553 41.4683 43.6616 41.7993 43.6203C41.9233 43.6203 42.0888 43.868 42.0888 43.9505ZM41.8406 41.8044C41.8406 41.7219 41.882 41.6393 41.9233 41.5568C42.0888 41.6393 42.2543 41.6806 42.3783 41.8044C42.5024 41.9282 42.6679 42.0933 42.4611 42.2584C42.4197 42.2997 42.2543 42.3409 42.2129 42.2997C42.1302 42.2584 42.0474 42.1346 41.9647 42.0933C41.9233 41.9695 41.8406 41.887 41.8406 41.8044ZM41.5097 50.0587C41.4683 50.1412 41.4683 50.2237 41.427 50.3063C41.427 50.3475 41.2615 50.3063 41.2202 50.265C41.1788 50.2237 41.1374 50.1412 41.0961 50.0174C41.3442 50.0174 41.427 50.0174 41.5097 50.0587ZM40.9306 45.7664C40.5583 45.8903 40.5997 45.5601 40.517 45.3537C40.517 45.2299 40.4756 45.1061 40.517 44.9823C40.517 44.8998 40.6411 44.8172 40.6824 44.7759C40.7651 44.7759 40.8892 44.8172 40.9306 44.8585C41.0133 44.941 41.0547 45.0648 41.0547 45.1887C41.0961 45.4363 41.2202 45.6839 40.9306 45.7664ZM40.8479 40.3187C40.7651 40.3599 40.6824 40.3599 40.5997 40.3187C40.5583 40.2774 40.517 40.1948 40.4756 40.0298C40.7238 40.1123 40.8065 40.1123 40.8892 40.1536C40.9306 40.1536 40.8892 40.3187 40.8479 40.3187ZM40.6824 38.8742C40.5583 38.8329 40.4756 38.7916 40.2688 38.7503C40.3929 38.5853 40.4342 38.4614 40.517 38.3789C40.5583 38.3376 40.7651 38.4614 40.7651 38.5027C40.8065 38.6265 40.7238 38.7503 40.6824 38.8742ZM40.4342 52.3286C40.3929 52.3698 40.3101 52.246 40.1447 52.2048C40.2688 52.0809 40.3515 51.9571 40.4756 51.9159C40.517 51.9159 40.6411 52.0397 40.6824 52.0809C40.6411 52.1635 40.5583 52.246 40.4342 52.3286ZM41.3856 53.0715C41.2615 53.0715 41.0133 53.1953 40.972 53.1127C40.8479 52.9476 40.7651 52.7 40.6411 52.4937C40.7238 52.4524 40.8479 52.4111 40.8892 52.4111C41.0961 52.6587 41.5511 52.1635 41.6338 52.6175C41.6752 52.7413 41.5097 52.9064 41.3856 53.0715ZM42.6265 51.6682C42.5852 51.8333 41.9647 52.0809 41.7993 51.9571C41.6752 51.8746 41.6338 51.6682 41.5511 51.5857C41.5511 51.3793 41.5097 51.2555 41.5097 51.1317C41.5097 50.9666 41.5511 50.8015 41.5511 50.6365C41.6752 50.719 41.7993 50.8428 41.9233 50.8841C42.0061 50.9253 42.0888 50.9254 42.2129 50.9666C42.5024 51.0079 42.7093 51.4206 42.6265 51.6682ZM42.9988 49.6459C42.9161 49.6872 42.792 49.6872 42.7093 49.6872C42.7093 49.6047 42.6679 49.4396 42.7093 49.3983C42.7506 49.357 42.9161 49.357 43.0402 49.357C42.9988 49.4809 43.0402 49.6047 42.9988 49.6459ZM44.1984 47.0871C44.2811 47.376 44.157 47.376 43.9088 47.3348C43.7847 47.2935 43.6193 47.3348 43.4538 47.376C43.2056 47.4173 42.9988 47.2935 43.1229 47.0871C43.2884 46.7982 43.1229 46.6331 43.0402 46.4268C42.9988 46.3442 42.9161 46.2204 42.9574 46.1379C43.0402 45.9315 43.1229 45.7252 43.247 45.5601C43.2884 45.5188 43.5365 45.6426 43.702 45.7252C43.7847 45.7664 43.8675 45.849 43.9502 45.9315C44.0743 46.2204 44.4052 46.4268 44.157 46.8395C44.157 46.8808 44.157 47.0046 44.1984 47.0871ZM44.5293 48.3665C44.4466 48.284 44.3638 48.2427 44.3638 48.1602C44.3638 48.1189 44.4052 48.0364 44.4466 47.9538C44.5293 47.9951 44.612 48.0364 44.6534 48.1189C44.6534 48.1602 44.5707 48.2427 44.5293 48.3665ZM44.9429 44.1156C44.9016 44.1156 44.8602 44.0743 44.7775 44.0331C44.8188 44.2807 44.6947 44.5696 44.4466 44.6109C44.3638 44.6521 44.1984 44.5696 44.1156 44.487C43.9502 44.3632 43.8261 44.1569 43.702 43.9918C43.5365 43.7854 43.3711 43.6203 43.2056 43.414C43.1643 43.3727 43.1643 43.2076 43.2056 43.1664C43.247 43.1251 43.3711 43.0838 43.4538 43.0838C43.6193 43.0838 43.7847 43.1251 43.9502 43.1251C44.0743 43.1664 44.1984 43.1664 44.2397 43.2489C44.4052 43.414 44.5293 43.5791 44.6534 43.7442C44.6947 43.7854 44.7361 43.868 44.7361 43.9505C44.8188 43.9092 44.8602 43.8267 44.9429 43.8267C44.9843 43.8267 45.067 43.9092 45.1084 43.9505C45.067 44.0331 44.9843 44.1156 44.9429 44.1156ZM45.1084 45.6839C45.067 45.6426 45.1084 45.4776 45.1084 45.3125C45.2738 45.395 45.3979 45.395 45.4393 45.4776C45.4807 45.5188 45.4393 45.7252 45.3979 45.7252C45.3152 45.7252 45.1497 45.7252 45.1084 45.6839ZM45.3152 48.1189C45.2738 48.0364 45.2738 47.9126 45.2325 47.83C45.3152 47.83 45.3979 47.8713 45.522 47.8713C45.522 47.9951 45.5634 48.0776 45.5634 48.1602C45.4807 48.1602 45.3566 48.2015 45.3152 48.1189ZM46.1011 39.9885C45.9357 40.1123 45.7702 40.2774 45.6048 40.071C45.5634 39.9885 45.6461 39.8234 45.6875 39.617C45.8943 39.5758 46.1425 39.4932 46.2666 39.5758C46.432 39.7409 46.2252 39.9059 46.1011 39.9885ZM46.6802 47.1284C46.5975 47.1697 46.5148 47.1697 46.432 47.1697C46.432 47.0871 46.3907 47.0046 46.432 46.9633C46.4734 46.922 46.5975 46.8808 46.7216 46.8395C46.6802 47.0046 46.6802 47.1284 46.6802 47.1284ZM47.1766 41.6806C47.0111 41.6393 46.8043 41.5981 46.763 41.5155C46.6389 41.3504 46.3907 41.1028 46.6389 40.8965C46.7216 40.8139 46.9698 40.979 47.0939 40.979C47.218 41.1853 47.3007 41.2679 47.3007 41.3917C47.3007 41.5155 47.218 41.6806 47.1766 41.6806ZM41.7165 37.8837C40.8479 37.017 40.4342 35.9026 40.4342 34.7883C40.3929 34.7883 40.3515 34.747 40.3101 34.7058C39.8965 34.4581 39.1519 34.6232 38.9451 35.0359C38.7797 35.3248 38.2006 35.5312 37.9524 35.2836C37.6628 34.9947 37.4146 35.1598 37.1665 35.201C36.9596 35.2423 36.7528 35.2423 36.6287 35.4486L36.7528 36.4804L36.7942 36.5217C36.9596 36.6455 37.1665 36.7281 37.3319 36.8519C37.1665 36.9757 37.001 37.0995 36.7942 37.2233L36.9183 38.3376C37.001 37.8836 37.0424 37.8837 37.456 38.2138C37.5387 38.2551 37.5801 38.3376 37.6628 38.4202C37.6628 38.4202 37.6628 38.4202 37.6215 38.4614C37.8697 38.7916 38.1178 39.1218 38.366 39.452C38.4074 39.5345 38.4074 39.6583 38.4488 39.7821C38.366 39.7821 38.2419 39.7821 38.1592 39.7409C37.911 39.5758 37.7042 39.452 37.3733 39.4932C37.3319 39.5758 37.2492 39.617 37.1665 39.6996C37.1251 39.6996 37.0837 39.6583 37.0424 39.6583L37.3733 42.7124C37.456 42.6711 37.4974 42.6711 37.5801 42.6711C37.7869 42.6711 38.0351 42.9187 38.2419 43.0838C38.2833 43.1251 38.1592 43.3314 38.0765 43.414C37.911 43.5791 37.7042 43.7442 37.5387 43.9092L37.9937 48.2427C38.1178 48.284 38.1592 48.4078 38.2006 48.5316C38.2006 48.5729 38.1178 48.6554 38.0351 48.738L38.0765 49.1094L34.0641 49.5221L33.9814 48.738C33.9401 48.6967 33.9401 48.6967 33.9401 48.6554C33.9401 48.6142 33.9401 48.5729 33.9814 48.5316L33.7746 46.757C33.7332 46.7982 33.6919 46.8395 33.6505 46.8808C33.5678 46.922 33.4851 46.8808 33.4023 46.8808C33.4023 46.8395 33.4437 46.757 33.4437 46.7157C33.5264 46.6744 33.5678 46.5919 33.6505 46.5919C33.6919 46.5919 33.6919 46.6331 33.7332 46.6331L32.6578 36.7281C32.575 36.7281 32.4923 36.7281 32.4096 36.7281C32.3682 36.6868 32.3682 36.563 32.3682 36.4392C32.4509 36.4392 32.5337 36.4804 32.6164 36.4804L32.3269 32.9311C32.2441 33.0136 32.1614 33.0137 32.0373 33.0549C31.9546 33.0549 31.9132 33.0549 31.8305 33.0962C31.0032 33.22 30.7137 32.9311 30.8377 32.1057C30.8377 32.0231 30.8791 31.9406 30.9618 31.8993C31.1687 31.693 31.4582 31.5692 31.5409 31.239C31.5823 31.0326 31.9132 31.0739 31.9959 31.2803C32.0787 31.5279 32.1614 31.8168 32.2441 32.0644L31.3341 23.6864C31.0032 23.7689 30.6723 23.8514 30.3 23.934C29.8036 24.0578 29.3073 24.2229 28.7695 24.3054C28.2732 24.388 28.2318 24.4292 28.3145 24.8832C28.3145 24.9245 28.3559 25.007 28.3559 25.0483C28.3973 25.2134 28.4386 25.3785 28.2318 25.4198C28.1491 25.4198 28.025 25.2959 27.9836 25.1721C27.9009 25.007 27.8595 24.9245 27.7768 24.842V24.8832C27.7354 24.9245 27.6113 24.8832 27.5286 24.842C27.4872 24.8007 27.4459 24.7594 27.3632 24.6769C27.2391 24.6769 27.115 24.7181 26.9909 24.7594C26.5772 24.8832 26.1222 25.007 25.7086 25.0896C25.7086 25.2134 25.7086 25.2959 25.6672 25.3785C25.5431 25.5436 25.3363 25.461 25.2122 25.2959C25.1709 25.2547 25.1295 25.1721 25.0468 25.1309C24.8399 25.0896 24.5918 24.8832 24.3022 24.7594C24.3849 24.6356 24.4677 24.5531 24.509 24.4705C24.3022 24.2229 24.0954 23.9753 23.8472 23.6864C23.7231 23.5625 23.6404 23.4387 23.599 23.3149C23.5577 23.2736 23.5163 23.2736 23.5163 23.2324C23.3922 23.0673 23.3095 22.9022 23.144 22.8197C22.7717 22.6959 22.4822 22.9435 22.5235 23.3562C22.5235 23.48 22.5649 23.6038 22.5235 23.6864C22.4822 23.7689 22.3167 23.8102 22.234 23.8514C22.0685 23.5213 21.6135 23.7276 21.4481 23.3562C21.4481 23.3149 21.2413 23.2736 21.1585 23.2736C21.0344 23.2736 20.9103 23.3149 20.8276 23.3149C20.6208 23.3562 20.4553 23.3149 20.414 23.1086C20.3726 22.9022 20.5381 22.8197 20.7035 22.7784C20.7449 22.7784 20.7863 22.7784 20.8276 22.7371C20.8276 22.7371 20.8276 22.7371 20.8276 22.7784C21.4481 22.6133 22.1099 22.4482 22.7304 22.3244H22.7717C22.7304 22.2419 22.7304 22.1181 22.689 21.953C22.8545 21.9942 23.0199 21.953 23.0613 22.0355C23.1026 22.0768 23.1026 22.2006 23.0613 22.2831C23.3508 22.2419 23.6404 22.2419 23.9299 22.3657C24.0954 22.4482 24.5918 22.2831 24.6331 22.1593C24.7158 21.7466 25.0468 21.7053 25.3363 21.6228C25.6672 21.5403 26.0395 21.499 26.3704 21.499C26.4531 21.499 26.5359 21.5815 26.6186 21.6641C26.5772 21.7466 26.5359 21.8704 26.4531 21.9117C26.2877 21.9942 26.0809 22.0355 25.9154 22.1181C25.7086 22.2006 25.4604 22.2419 25.419 22.5308C25.419 22.6133 25.3363 22.6959 25.2536 22.7371C24.9227 22.8609 24.5918 22.9022 24.4677 23.3562C24.509 23.4387 24.5504 23.48 24.6331 23.5625C24.7986 23.8102 24.964 24.0165 25.1709 24.2229C25.2122 24.2229 25.2122 24.2229 25.2536 24.1816C25.5431 24.0991 25.8327 24.0991 25.874 23.6864C25.9154 23.5213 26.1222 23.48 26.2463 23.6038C26.4531 23.8514 26.66 23.7689 26.8668 23.6864C27.57 23.5213 28.3145 23.3562 29.0177 23.2324C29.3073 23.1911 29.5141 23.1086 29.7209 23.3975C29.845 23.6038 30.0518 23.5213 30.0932 23.3149C30.1759 23.026 30.3414 22.9847 30.5896 22.9022C30.8377 22.8197 31.0859 22.7784 31.3341 22.6959L31.0446 21.3339C30.7964 21.3752 30.5482 21.4577 30.5068 21.8292C30.5068 21.8704 30.1759 21.9117 30.1346 21.8704C29.9691 21.5815 29.7209 21.6641 29.5141 21.7466C28.9764 21.9117 28.3973 21.8704 27.9009 22.1593C27.9009 22.1593 27.8182 22.1593 27.7768 22.1593C27.57 22.1593 27.2804 22.3657 27.1977 22.0355C27.0736 21.6641 27.4045 21.7053 27.6113 21.6228C27.7768 21.5403 27.9423 21.499 27.9836 21.2514C28.025 20.9625 28.2318 20.9212 28.48 21.1275C28.6868 21.2926 28.7282 21.3339 28.8936 21.0863C29.0177 20.9212 29.2659 20.8386 29.4727 20.7148C29.7209 20.5497 29.845 20.7974 30.0105 20.9212C30.2586 21.0863 31.0446 20.8386 31.21 20.5497C31.3755 20.2609 31.5409 20.1783 31.8719 20.3847C31.9546 20.4259 32.2028 20.3847 32.2441 20.3021C32.4096 20.0132 32.5337 19.9307 32.7405 20.2196C32.9473 20.4259 33.1541 20.3847 33.1955 20.0958C33.2369 19.8481 33.4023 19.8069 33.6091 19.7243C33.9814 19.6005 34.3537 19.518 34.726 19.4354C35.0983 19.3529 35.1396 19.6418 35.2223 19.8481C35.3051 20.1783 35.2223 20.3021 34.8914 20.3434C34.6846 20.3434 34.4778 20.3021 34.3123 20.2196C34.1055 20.0958 33.9401 20.0958 33.816 20.2609C33.7746 20.3434 33.7332 20.4672 33.6919 20.5497L35.1396 20.3847L35.3051 21.9942C35.3878 21.9117 35.4292 21.8704 35.4705 21.8704C35.5119 21.8704 35.5533 21.9117 35.5946 21.953C35.5533 21.9942 35.5119 22.0768 35.4705 22.0768C35.4292 22.0768 35.3878 22.0768 35.3051 22.0355L36.6287 34.4169C36.6701 34.4169 36.7115 34.4169 36.7528 34.3756C37.456 34.1692 38.2006 33.9216 38.9038 33.7565C39.1106 33.7153 39.4001 33.674 39.5656 33.7565C39.9379 33.9629 40.2688 33.9216 40.6411 33.8803C40.8065 33.0962 41.1788 32.3533 41.7993 31.7342C43.4952 30.0421 46.2252 30.0421 47.9211 31.7342C49.6171 33.4264 49.6171 36.1503 47.9211 37.8424C46.1839 39.5758 43.4125 39.5758 41.7165 37.8837ZM37.9524 36.4804C37.5801 36.7693 37.4974 36.7281 37.2078 36.3566C37.001 36.109 37.0837 35.7788 37.456 35.5312C37.7042 35.3661 37.8697 35.4487 38.1178 35.7788C38.3247 36.109 38.3247 36.1915 37.9524 36.4804ZM44.5293 17.6195C44.5707 17.8259 44.4466 17.9497 44.2811 17.9909C44.0329 18.0735 43.7434 18.1147 43.4952 18.1973V18.2386C43.3297 18.2798 43.1643 18.3211 42.9988 18.2798C42.8747 18.2798 42.7093 18.1973 42.7093 18.0735C42.6679 17.9909 42.792 17.7846 42.8747 17.7846C43.2056 17.6608 43.4952 17.5782 43.702 17.2481C43.7847 17.1242 44.1156 17.083 44.3225 17.1242C44.3638 17.1242 44.3638 17.1655 44.4052 17.1655C44.4466 17.2893 44.4879 17.4957 44.5293 17.6195ZM44.4879 29.5881C44.4466 29.6707 44.4052 29.7945 44.3638 29.7945C44.3225 29.8358 44.1984 29.7532 43.9502 29.6294C44.1156 29.5469 44.1984 29.4231 44.2397 29.4231C44.3225 29.4231 44.4052 29.5056 44.4879 29.5881ZM42.9574 19.7656C43.4125 19.6418 43.6606 19.7656 43.7847 20.2196C43.9088 20.6323 43.4952 20.5085 43.3297 20.6323C42.8334 20.7561 42.7506 20.6736 42.6265 20.2609C42.5852 19.972 42.7093 19.8069 42.9574 19.7656ZM44.6947 28.0611C44.7361 27.9786 44.8188 27.8547 44.9016 27.8547C45.067 27.8135 45.6875 28.3913 45.7288 28.5976C45.7288 28.7214 45.7288 28.8453 45.6875 28.9691C45.6048 28.9278 45.4807 28.8865 45.3979 28.8865C45.1084 28.7627 44.7361 28.8865 44.7361 28.4738C44.6947 28.2675 44.6534 28.1436 44.6947 28.0611ZM47.0525 20.3434C47.0939 20.2609 47.1766 20.2609 47.3007 20.0958C47.3007 20.0958 47.3834 20.0132 47.5075 19.972C47.6316 19.9307 47.7557 19.9307 47.8798 19.8894C47.8798 20.0132 47.8798 20.137 47.8798 20.2609C47.8798 20.3847 47.3834 20.7974 47.2593 20.7974C47.1352 20.7974 46.9698 20.7561 46.8457 20.7561C46.9284 20.6323 46.9698 20.5085 47.0525 20.3434ZM46.9698 19.1878C46.9284 19.0227 46.8457 18.8164 47.0939 18.7751C47.218 18.7751 47.342 18.8989 47.5075 19.0227C47.4248 19.2291 47.3834 19.518 47.3007 19.5592C47.0525 19.6418 47.0111 19.3529 46.9698 19.1878ZM48.2934 27.4008C48.4175 27.4008 48.5002 27.5659 48.6243 27.6484C48.6657 27.6897 48.6657 27.7722 48.6657 27.8547C48.6657 27.9373 48.7071 28.0611 48.6657 28.1849C48.583 28.35 48.4175 28.4325 48.2934 28.2675C48.2107 28.1436 48.128 27.9786 48.0866 27.8135C48.0452 27.6484 48.0866 27.442 48.2934 27.4008ZM48.4589 21.7053C48.7484 21.4577 48.8725 21.7053 48.9966 21.8704C49.3275 22.2831 49.3275 22.3657 49.0793 22.572C48.7484 22.8609 48.583 22.8197 48.2934 22.4895C48.0452 22.2419 48.128 21.9942 48.4589 21.7053ZM47.8384 43.4553C47.7557 43.3727 47.673 43.3314 47.5902 43.2902C47.5902 43.2902 47.673 43.1251 47.7143 43.1251C47.7971 43.1251 47.8798 43.1664 47.9625 43.2076C47.9212 43.2902 47.8798 43.3727 47.8384 43.4553ZM49.1621 43.2076C49.038 43.1664 48.8312 43.2076 48.7484 43.1251C48.583 42.8775 48.4589 42.6298 48.0452 42.7537C47.9212 42.7949 47.5902 42.4235 47.5489 42.2171C47.5075 42.0933 47.7557 41.7631 47.9211 41.6806C48.0866 41.6393 48.2934 41.8457 48.5002 41.9282C48.4589 41.9695 48.4589 42.0108 48.4175 42.0108C48.6657 42.2584 48.9139 42.506 49.1207 42.7949C49.2448 42.9187 49.1621 43.0838 49.1621 43.2076ZM49.2862 23.6451C49.038 23.3149 49.038 23.1498 49.4103 22.8609C49.5757 22.7371 49.7412 22.6959 49.8653 22.9022C50.1548 23.2736 50.4857 23.6038 50.7753 23.9753C50.9821 24.2642 50.7339 24.388 50.5685 24.5531C50.403 24.7181 50.1962 24.8007 50.0307 24.5531C49.8653 24.388 49.7412 24.1816 49.5757 24.0165C49.5757 24.0165 49.5757 24.0165 49.6171 23.9753C49.493 23.8927 49.3689 23.7689 49.2862 23.6451ZM50.2375 18.5687C50.2375 18.61 50.2375 18.8164 50.1548 18.8576C49.9894 18.9814 49.948 19.1465 49.948 19.3529C49.948 19.4354 49.8653 19.518 49.7825 19.5592C49.6998 19.5592 49.6171 19.518 49.5757 19.4354C49.3275 19.064 49.4516 18.3624 49.7825 18.1147C49.948 17.9909 50.1548 18.156 50.2375 18.5687ZM50.5271 15.3909C50.6512 15.3083 50.858 15.3496 50.9821 15.3909C51.0235 15.3909 51.1062 15.5972 51.0648 15.6385C50.9821 15.7623 50.8166 15.8448 50.6926 15.9686C50.4857 15.9274 50.1962 15.9274 50.1548 15.8036C49.9894 15.5147 50.3616 15.5147 50.5271 15.3909ZM50.3616 27.2357C50.3616 27.277 50.1548 27.3595 50.1548 27.3182C50.0307 27.2357 49.9894 27.0706 49.9066 26.9468C49.9066 26.7817 49.9066 26.6579 49.9894 26.5341C49.9894 26.4928 50.2375 26.4928 50.2375 26.4928C50.2375 26.7817 50.3203 27.0293 50.3616 27.2357ZM51.2716 34.8296C51.2303 34.8709 51.1062 34.9121 51.0235 34.9121C50.9821 34.9121 50.8994 34.8709 50.858 34.8709C50.8994 34.7883 50.9407 34.7058 50.9821 34.7058C51.0648 34.6645 51.1889 34.6645 51.2716 34.6645C51.2716 34.7058 51.313 34.8296 51.2716 34.8296ZM51.6853 33.8803C51.6439 33.9216 51.5198 33.9216 51.4371 33.9216C51.4371 33.8391 51.4371 33.7153 51.4785 33.674C51.5198 33.6327 51.6439 33.6327 51.768 33.5914C51.7267 33.7565 51.7267 33.8391 51.6853 33.8803ZM52.3058 31.4041C52.223 31.4453 52.1403 31.4866 52.0162 31.4866C51.3544 31.6517 50.6926 31.8168 50.0721 31.9819C49.8653 32.0231 49.6998 32.0644 49.6171 31.8168C49.5344 31.5692 49.6171 31.1564 49.7825 31.1152C49.9066 31.0326 50.0721 31.0326 50.2375 30.9914C50.2375 30.9501 50.2375 30.9501 50.2789 30.9088C50.5271 30.9501 50.8166 31.0326 51.0648 31.0739C51.313 31.1152 51.5612 31.0739 51.8094 31.0739C51.9335 31.0739 52.0576 30.9914 52.223 30.9914C52.3471 30.9914 52.4298 31.1152 52.5126 31.1564C52.4298 31.239 52.3885 31.3628 52.3058 31.4041ZM53.133 37.2233C53.0089 37.2646 52.8435 37.182 52.7608 37.182C52.6367 36.8931 52.3058 36.6868 52.6367 36.4804C52.9262 36.2741 53.0503 36.6455 53.1744 36.7693C53.2985 36.9344 53.3399 37.0995 53.133 37.2233ZM53.4639 41.9695C53.3812 41.9695 53.2985 41.9282 53.2158 41.887C53.2571 41.8457 53.2571 41.7219 53.2985 41.7219C53.3812 41.6806 53.4639 41.7219 53.588 41.7631C53.5467 41.887 53.5053 41.9695 53.4639 41.9695ZM54.0844 30.9501C53.919 31.0326 53.7121 31.0326 53.5053 31.1152C53.3399 31.1564 53.1744 31.1977 53.0089 31.1977C52.9262 31.1977 52.8435 31.1152 52.7608 31.0326C52.8021 30.9501 52.8435 30.8263 52.8848 30.8263C53.2571 30.7025 53.6294 30.6199 54.0017 30.5374C54.0844 30.5374 54.1671 30.6612 54.2499 30.7025C54.2085 30.785 54.1671 30.9088 54.0844 30.9501ZM55.0772 41.1853C55.0358 41.1441 55.0358 41.0615 54.9944 40.9377C55.1185 40.9377 55.2426 40.9377 55.2426 40.979C55.284 41.0615 55.284 41.1441 55.284 41.2266C55.2012 41.2266 55.1185 41.2266 55.0772 41.1853ZM56.1526 37.3059C56.0699 37.3884 55.9044 37.3471 55.739 37.3471C55.7803 37.182 55.7803 37.0582 55.8217 36.8106C56.0285 36.8106 56.194 36.8519 56.3594 36.8519C56.2767 37.017 56.2353 37.2233 56.1526 37.3059ZM61.075 28.804C61.1163 28.804 61.2404 28.8453 61.2404 28.8865C61.2404 28.9691 61.199 29.0516 61.1577 29.0929C61.1163 29.0516 61.0336 29.0516 60.7854 28.9278C60.9509 28.8865 60.9922 28.804 61.075 28.804ZM60.1236 26.9055C60.3718 26.6992 60.4959 26.9881 60.6199 27.1119C60.6613 27.1531 60.7027 27.1944 60.7027 27.2357C60.744 27.3595 60.8268 27.5659 60.7854 27.6484C60.6199 27.8547 60.4959 27.6484 60.3718 27.5659C60.3304 27.5246 60.3304 27.5246 60.289 27.4833C60.1236 27.277 59.8754 27.1119 60.1236 26.9055ZM59.7513 29.0516C59.9168 29.0103 59.9995 28.9691 60.0822 29.0103C60.1649 29.0516 60.289 29.0929 60.3718 29.1342C60.3304 29.2167 60.289 29.3405 60.2063 29.3818C60.1649 29.4231 60.0822 29.4643 59.9995 29.4643C59.834 29.5056 59.5858 29.6294 59.5445 29.3405C59.5031 29.258 59.7099 29.0929 59.7513 29.0516ZM59.2549 30.2072C59.5858 29.9183 59.6686 29.9596 59.9581 30.331C60.0822 30.4961 60.3304 30.6612 60.0409 30.9088C59.7099 31.1977 59.4618 31.1564 59.1722 30.8675C58.9654 30.5374 58.9654 30.4548 59.2549 30.2072ZM57.6417 21.4577C57.7245 21.5403 57.6831 21.6641 57.7245 21.7466C57.6004 21.7466 57.4763 21.8292 57.4349 21.7466C57.3522 21.6641 57.3522 21.5403 57.2695 21.3339C57.4763 21.4164 57.6004 21.3752 57.6417 21.4577ZM56.8558 27.1119C56.9385 27.0293 57.1867 27.0706 57.2695 27.1119C57.559 27.3595 57.8072 27.6897 58.0967 27.9786C58.3449 28.2675 58.5517 28.5151 58.7999 28.804C59.0067 29.0516 58.9654 29.2167 58.7586 29.3818C58.5517 29.5469 58.3449 29.712 58.0967 29.4231C57.8486 29.1342 57.6004 28.8453 57.3522 28.5564C57.1867 28.3913 57.0213 28.2262 57.2281 27.9373C57.3522 27.7309 57.2281 27.6071 56.9799 27.6071C56.8558 27.6071 56.6904 27.5659 56.5663 27.5246C56.649 27.4008 56.7317 27.2357 56.8558 27.1119ZM56.194 30.0009C56.2353 30.1659 56.2353 30.2485 56.194 30.331C56.3181 30.4961 56.4835 30.5786 56.7317 30.4961C56.9385 30.4548 58.014 31.6517 57.9313 31.8168C57.8072 32.0644 57.8072 32.2295 57.9313 32.4771C57.9726 32.5184 57.9313 32.6422 57.8485 32.6835C57.7658 32.7248 57.6417 32.766 57.6004 32.6835C57.3522 32.4359 57.104 32.2708 56.7731 32.3533C56.2353 31.7342 55.6976 31.1564 55.1599 30.5374C55.1599 30.5374 55.1185 30.4961 55.1599 30.4961C55.4908 29.6707 54.6635 29.4643 54.374 28.9691C54.3326 28.8865 54.2085 28.804 54.1258 28.804C53.4639 28.9278 53.3399 28.35 53.0089 28.0198C52.9262 27.9373 52.9676 27.7722 52.9676 27.6484C53.0503 27.3595 52.9676 27.2357 52.678 27.277C52.3885 27.3182 52.3058 27.1944 52.3471 26.9055C52.3885 26.7817 52.3471 26.5753 52.223 26.4515C52.0162 26.1626 51.768 25.8737 51.5198 25.5848C51.3544 25.7086 51.2303 25.915 51.0235 25.6674C50.9821 25.6261 50.9821 25.461 51.0235 25.4198C51.2716 25.2134 51.3544 25.461 51.4785 25.5848C51.6439 25.461 51.768 25.2959 51.9748 25.461C52.0576 25.5023 52.1817 25.5023 52.3058 25.5023C52.7194 25.5023 53.0917 25.8737 53.0503 26.2864C53.0503 26.4103 53.0089 26.6166 53.0917 26.6992C53.4226 27.1119 53.7535 27.5246 54.0844 27.9373C54.2499 28.1024 54.374 28.3087 54.7049 28.1849C54.9117 28.1024 55.0771 28.3087 54.9531 28.5151C54.829 28.804 54.9531 28.9691 55.1185 29.1342C55.2426 29.2992 55.3667 29.4643 55.4908 29.5881C55.9458 29.5469 56.0699 29.6294 56.194 30.0009ZM54.4153 26.6579C54.4567 26.5753 54.4981 26.4928 54.4981 26.4928C54.5394 26.4928 54.6221 26.5341 54.6635 26.5753C54.6221 26.6166 54.6221 26.6992 54.5808 26.6992C54.5394 26.7404 54.4567 26.6992 54.4153 26.6579ZM54.8703 24.9245C54.5394 25.2134 54.4153 25.2134 54.1671 24.9245C53.8362 24.5118 53.8362 24.3467 54.1671 24.0991C54.4567 23.8514 54.5394 23.8927 54.8703 24.2642C55.1599 24.5531 55.1599 24.6356 54.8703 24.9245ZM54.043 17.1242C54.3326 16.8766 54.4567 16.8766 54.6635 17.1655C54.9531 17.4957 54.9117 17.6195 54.6221 17.9084C54.3326 18.156 54.2499 18.1147 54.0017 17.8259C53.7535 17.4957 53.7535 17.3719 54.043 17.1242ZM53.0917 18.8164C53.1744 18.8164 53.2985 18.8989 53.3399 18.9814C53.3399 19.0227 53.2571 19.1878 53.2158 19.1878C53.133 19.1878 53.0503 19.1053 52.8848 19.064C52.9676 18.9402 53.0503 18.8164 53.0917 18.8164ZM52.0162 15.3909C52.0576 15.4321 52.0576 15.4321 52.0989 15.4734C52.1817 15.4734 52.2644 15.4321 52.3471 15.4321C52.5539 15.4734 52.9262 15.4734 52.9262 15.5147C52.9676 15.8036 52.6367 15.8036 52.4712 15.9274C52.4298 15.9686 52.3057 15.9686 52.2644 15.9686C52.0576 15.9686 51.768 16.0512 51.7267 15.8036C51.6439 15.6797 51.8921 15.5147 52.0162 15.3909ZM51.6026 20.3847C51.8921 20.7148 51.8921 20.7974 51.6026 21.045C51.313 21.2926 51.2303 21.2926 50.9821 21.045C50.6925 20.7148 50.6925 20.6323 50.9821 20.3847C51.2716 20.0958 51.3544 20.137 51.6026 20.3847ZM50.7753 13.2447C50.9821 13.2447 51.1476 13.2447 51.2716 13.2447C51.2303 13.3686 51.1889 13.5336 51.1062 13.6162C50.9821 13.74 50.8166 13.9051 50.6926 13.6987C50.6512 13.6162 50.7339 13.4511 50.7753 13.2447ZM50.4444 13.6575C50.5271 13.8225 50.5685 14.0702 50.5685 14.2353C50.5685 14.2353 50.3203 14.3178 50.2375 14.2765C50.1135 14.2353 50.0307 14.1114 49.948 14.0289C49.8653 13.9464 49.7412 13.8638 49.6171 13.7813C49.7412 13.6987 49.8239 13.5749 49.948 13.4924C50.1548 13.5749 50.3616 13.5749 50.4444 13.6575ZM48.5002 10.851C48.583 10.851 48.6657 10.8923 48.7898 10.8923C48.9139 10.8923 48.9966 10.9336 49.1207 10.8923C49.493 10.851 49.6171 11.0986 49.6998 11.3463C49.7412 11.4288 49.5757 11.6352 49.493 11.759C49.2862 11.9653 49.1207 11.8415 48.9139 11.7177C48.8312 11.6764 48.7484 11.5939 48.6657 11.5526C48.6243 11.4288 48.5416 11.305 48.5002 11.1812C48.4589 11.0574 48.5002 10.9336 48.5002 10.851ZM48.3348 16.3401C48.4175 16.4226 48.6657 16.3814 48.8312 16.3814C49.038 16.3401 49.2034 16.2575 49.4103 16.2575C49.493 16.2575 49.6171 16.3401 49.7412 16.4226C49.6584 16.5052 49.6171 16.629 49.5344 16.7115C49.493 16.7528 49.3689 16.7528 49.3275 16.7528C48.9553 16.8353 48.6243 16.9592 48.2521 17.0004C47.9212 17.0417 47.5902 17.1655 47.3421 16.8353C47.3007 16.7941 47.2593 16.7941 47.1766 16.7528C47.0525 16.6703 46.9284 16.629 46.8457 16.5464C46.9698 16.4639 47.0525 16.3401 47.218 16.2988C47.5489 16.1337 47.9625 15.9274 48.3348 16.3401ZM46.6389 14.9369C46.6802 14.9369 46.8457 15.0194 46.8457 15.0607C46.8457 15.1432 46.763 15.267 46.6802 15.3083C46.6389 15.3496 46.5148 15.2258 46.3907 15.1845C46.5148 15.0607 46.5561 14.9781 46.6389 14.9369ZM46.5561 19.0227C46.7216 19.2291 46.8457 19.4767 46.9698 19.7243C46.9698 19.7243 46.9284 19.8069 46.887 19.8069C46.6389 19.7656 46.3493 19.8069 46.1011 19.7243C46.1011 19.8894 46.0598 19.972 45.8943 20.0958C45.7288 20.2196 45.5634 20.3847 45.4393 20.5085C45.3152 20.3021 45.2325 20.137 45.1084 19.9307C45.067 19.8481 44.9429 19.8069 44.8602 19.7656C44.7775 19.7243 44.6947 19.6418 44.612 19.5592C44.6947 19.4767 44.7775 19.3529 44.8602 19.3116C44.9843 19.2291 45.1497 19.1878 45.1911 19.1878C45.6875 19.064 45.8943 19.1053 46.0184 19.2703C46.0598 19.1878 46.1425 19.1465 46.1839 19.064C46.2666 19.064 46.4734 18.9814 46.5561 19.0227ZM45.6461 17.9497C45.7702 18.0735 45.8943 18.1973 45.977 18.3624C46.0184 18.4449 45.977 18.61 45.977 18.7338C45.8529 18.7338 45.7288 18.6925 45.6048 18.6513C45.522 18.61 45.522 18.5275 45.3566 18.3624C45.3979 18.4036 45.2738 18.3211 45.2738 18.2386C45.2325 18.156 45.2325 17.9909 45.3152 17.9497C45.3979 17.9084 45.6048 17.9084 45.6461 17.9497ZM45.3566 16.9592C45.3152 17.0417 45.2325 17.1242 45.1911 17.1242C45.1084 17.1655 44.9843 17.083 44.8188 17.083C44.9843 16.9592 45.0257 16.8353 45.1084 16.8353C45.1911 16.8353 45.2738 16.9179 45.3566 16.9592ZM44.3638 12.3368C44.612 12.1717 44.7775 12.2955 44.9016 12.5019C45.1084 12.7495 45.0257 12.8733 44.6947 13.1209C44.4052 13.3273 44.2811 13.1622 44.1156 12.9558C43.9916 12.7495 44.0743 12.5431 44.3638 12.3368ZM43.7847 11.6764C43.8261 11.7177 43.9088 11.759 43.9088 11.759C43.9088 11.8003 43.8675 11.8828 43.8261 11.9241C43.7847 11.8828 43.702 11.8828 43.702 11.8415C43.7434 11.8003 43.7847 11.759 43.7847 11.6764ZM43.4538 15.3496C43.5365 15.4321 43.6193 15.5147 43.7434 15.6385C43.8261 15.7623 43.9502 15.8861 44.0329 16.0925C44.0743 16.175 44.0743 16.2988 44.0329 16.3401C43.9916 16.3814 43.8675 16.3814 43.7847 16.3814C43.6606 16.3814 43.5365 16.2575 43.4538 16.2988C43.247 16.4226 42.9988 16.5464 42.8747 16.2163C42.7506 15.9274 42.6265 15.6385 42.9161 15.3496C43.0815 15.1432 43.247 15.102 43.4538 15.3496ZM42.792 14.6067C42.9161 14.7718 42.8747 14.8956 42.7093 14.9781C42.5438 15.0607 42.337 15.1432 42.1302 15.1845C42.0888 15.1432 42.0474 15.102 42.0474 15.0607C42.1715 14.8956 42.2543 14.6892 42.4197 14.5242C42.5438 14.3591 42.6679 14.4416 42.792 14.6067ZM41.9233 12.0892C41.9647 12.0479 42.1715 12.1717 42.1715 12.2542C42.1715 12.3368 42.0888 12.4606 42.0474 12.5431C42.0061 12.5844 41.882 12.4606 41.7165 12.3781C41.7579 12.2542 41.8406 12.1304 41.9233 12.0892ZM42.1302 13.7813C42.1715 13.8638 42.1715 14.0289 42.1715 14.1527C42.0474 14.1527 41.882 14.1527 41.7993 14.0702C41.6338 13.9464 41.4683 13.7813 41.3442 13.6162C41.1788 13.4098 41.0547 13.2035 40.7238 13.3273C40.5583 13.3686 40.1033 12.9558 40.1447 12.832C40.2274 12.6257 40.3929 12.4193 40.5583 12.213C40.5997 12.1717 40.8065 12.2542 40.8892 12.3368C41.0961 12.5431 41.2615 12.7908 41.4683 12.9971C41.6752 13.286 41.9233 13.5336 42.1302 13.7813ZM40.4342 7.83822C40.7238 7.63187 40.8479 7.63187 41.0961 7.96203C41.3029 8.20966 41.2615 8.33348 40.972 8.5811C40.7651 8.74619 40.5583 8.82873 40.3929 8.5811C40.1447 8.25093 40.1447 8.12712 40.4342 7.83822Z" fill="#D76700"/>
</svg>
