<svg width="40" height="40" viewBox="0 0 40 40" fill="none" xmlns="http://www.w3.org/2000/svg">
<g clip-path="url(#clip0_5322_29192)">
<circle cx="20" cy="20" r="20" fill="#FEFEFE"/>
<path d="M19.2485 32.5933C19.356 32.5933 19.4635 32.5933 19.5709 32.5933C20.2157 32.5933 20.8605 32.5933 21.5053 32.5933C22.15 32.5933 22.2575 32.3867 22.2575 31.87C22.2575 31.25 22.2575 30.7333 22.2575 30.1133C21.6127 30.2167 21.0754 30.4233 20.4306 30.5267C19.8933 30.63 19.356 30.8367 18.7112 30.94C18.4963 31.0433 18.3888 31.1467 18.1739 31.0433H18.0665C17.8515 31.0433 17.7441 31.1467 17.5291 31.1467C17.3142 31.1467 17.0993 31.25 16.9918 30.94C16.8844 30.63 16.9918 30.32 17.3142 30.2167C17.6366 30.1133 17.959 29.9067 18.2814 29.8033C18.8187 29.5967 19.4635 29.4933 20.1082 29.4933C20.2157 29.4933 20.4306 29.4933 20.4306 29.39C20.753 28.9767 21.1829 29.08 21.5053 28.9767C21.8276 28.8733 22.0426 28.8733 22.365 28.77C22.365 27.9433 22.365 27.22 22.365 26.3933C22.2575 26.4967 22.2575 26.4967 22.15 26.6C21.9351 26.8067 21.7202 26.8067 21.5053 26.6C21.2903 26.3933 21.0754 26.0833 20.8605 25.8767C20.753 25.67 20.5381 25.5667 20.4306 25.36C20.2157 25.1533 20.1082 24.9467 19.7859 25.05C19.5709 25.1533 19.356 24.9467 19.4635 24.74C19.6784 24.43 19.4635 24.2233 19.356 24.0167C19.2485 24.12 19.0336 23.9133 19.2485 23.81C19.356 23.81 19.5709 23.9133 19.6784 24.0167C19.8933 24.2233 20.0008 24.43 20.2157 24.6367C20.4306 24.8433 20.6456 25.1533 21.0754 24.9467C21.1829 24.9467 21.2903 24.9467 21.3978 25.05C21.7202 25.36 22.0426 25.7733 22.2575 26.0833C22.2575 25.1533 22.2575 24.2233 22.2575 23.2933C21.9351 23.2933 21.6127 23.5 21.5053 23.0867C21.3978 22.6733 21.8276 22.6733 22.0426 22.6733C22.15 22.6733 22.15 22.6733 22.2575 22.6733C22.2575 22.4667 22.2575 22.26 22.2575 22.0533C22.2575 21.95 22.2575 21.8467 22.2575 21.8467C22.365 21.8467 22.4724 21.8467 22.4724 21.8467C23.2247 21.8467 24.0844 21.8467 24.8366 21.8467C24.9441 21.7433 25.0515 21.64 25.159 21.64C25.2665 21.64 25.3739 21.7433 25.3739 21.8467C25.3739 21.8467 25.3739 21.8467 25.3739 21.95C25.5888 21.95 25.8038 21.95 26.1262 21.95C26.6635 21.95 26.8784 21.7433 26.8784 21.2267C26.8784 19.9867 26.8784 18.7467 26.8784 17.4033C26.8784 16.8867 26.6635 16.68 26.1262 16.68C24.9441 16.68 23.762 16.68 22.5799 16.68C22.4724 16.68 22.365 16.68 22.365 16.68C22.365 15.75 22.365 14.82 22.365 13.89C22.365 13.6833 22.4724 13.4767 22.5799 13.1667C22.4724 13.27 22.5799 13.1667 22.5799 13.1667C22.365 13.1667 22.0426 13.1667 21.7202 13.0633C21.7202 13.0633 21.6127 12.8567 21.7202 12.7533C21.8276 12.5467 22.0426 12.34 22.15 12.2367C22.2575 12.2367 22.4724 12.34 22.6873 12.4433C22.7948 12.5467 22.7948 12.7533 22.9023 12.8567C23.1172 12.7533 23.3321 12.65 23.6545 12.65C24.5142 12.65 25.3739 12.65 26.3411 12.65C26.7709 12.65 26.9859 12.4433 26.9859 12.03H26.8784C26.6635 12.03 26.556 11.8233 26.556 11.8233C26.1262 11.3067 26.2336 11.2033 26.6635 10.8933C26.7709 10.8933 26.8784 10.79 27.0933 10.79C27.0933 10.5833 27.0933 10.3767 27.0933 10.17C27.0933 10.0667 26.8784 10.0667 26.7709 10.0667C26.7709 10.17 26.6635 10.2733 26.4485 10.3767C26.1262 10.6867 25.9112 10.79 25.8038 10.79C25.6963 10.8933 25.4814 10.8933 25.2665 10.9967C24.8366 11.41 24.5142 10.6867 24.0844 10.6867C24.0844 10.5833 24.0844 10.3767 24.1918 10.3767C24.5142 10.17 24.8366 10.0667 25.159 10.0667C25.159 9.96333 25.0515 9.86 25.159 9.86C25.3739 9.65333 25.5888 9.55 25.8038 9.44667C25.9112 9.44667 26.1262 9.55 26.1262 9.44667C26.556 9.13667 26.6635 9.44667 26.7709 9.75667C26.8784 9.55 26.9859 9.44667 27.2008 9.24C27.2008 9.03333 27.2008 8.82667 27.2008 8.72333C27.2008 8.31 26.9859 8.10333 26.4485 8.10333C25.8038 8.10333 25.2665 8.10333 24.6217 8.10333C24.7291 8.20667 24.7291 8.20667 24.8366 8.31C25.0515 8.51667 25.3739 8.62 25.0515 8.93C24.6217 9.34333 24.4068 9.34333 24.0844 9.03333C23.4396 8.62 23.2247 8.31 22.9023 8C22.15 8 21.2903 8.10333 20.5381 8.41333C20.3232 8.51667 20.1082 8.62 20.0008 8.72333C20.0008 8.93 20.0008 9.03333 20.1082 9.24C20.1082 9.44667 20.2157 9.55 20.2157 9.75667C20.2157 9.86 20.2157 10.0667 20.1082 10.0667C20.0008 10.0667 19.7859 10.0667 19.7859 10.0667C19.4635 9.65333 19.2485 9.44667 19.0336 9.24C18.4963 9.55 18.0665 10.0667 17.6366 10.5833C16.9918 11.6167 16.7769 12.7533 16.7769 13.9933C16.7769 14.82 16.7769 15.6467 16.7769 16.4733C16.7769 16.5767 16.7769 16.68 16.7769 16.68C16.6694 16.68 16.562 16.68 16.562 16.68C15.4873 16.68 14.6276 16.68 13.6605 16.68C13.6605 17.0933 13.9829 17.3 14.1978 17.3C14.6276 17.3 15.165 17.8167 15.2724 18.23C15.2724 18.3333 15.165 18.4367 15.3799 18.4367C15.8097 18.4367 16.1321 18.9533 16.0247 19.3667C15.9172 19.6767 15.9172 19.9867 15.9172 20.2967C15.9172 20.4 16.0247 20.5033 16.0247 20.5033C16.4545 20.4 16.6694 20.6067 17.0993 20.6067C17.5291 20.6067 17.5291 20.6067 17.3142 21.02C17.0993 21.4333 16.6694 21.7433 16.1321 21.95C16.0247 21.95 15.9172 21.8467 15.9172 21.8467C16.1321 21.33 15.7023 21.02 15.4873 20.71C15.2724 20.5033 15.165 20.2967 15.2724 19.9867C15.3799 19.78 15.165 19.5733 14.95 19.6767C14.7351 19.78 14.5202 19.6767 14.4127 19.5733C13.9829 19.16 13.3381 18.7467 13.553 17.92C13.553 17.61 13.1232 17.1967 12.8008 17.1967C12.8008 17.3 12.8008 17.4033 12.8008 17.5067C12.8008 18.7467 12.8008 19.9867 12.8008 21.33C12.8008 21.8467 13.0157 22.0533 13.553 22.0533C14.6276 22.0533 15.5948 22.0533 16.562 22.0533C16.6694 22.0533 16.7769 22.0533 16.7769 22.0533V22.1567V22.26C16.7769 24.5333 16.7769 26.91 16.7769 29.1833C16.8844 29.1833 17.0993 29.08 17.0993 29.1833C17.3142 29.39 17.4217 29.5967 17.5291 29.9067C17.5291 29.9067 17.4217 30.1133 17.3142 30.1133C17.0993 30.1133 16.9918 30.1133 16.7769 30.1133C16.7769 30.7333 16.7769 31.4567 16.7769 32.0767C16.7769 32.5933 16.9918 32.8 17.5291 32.8C18.0665 32.5933 18.6038 32.5933 19.2485 32.5933ZM26.0187 16.7833C26.1262 16.68 26.3411 16.68 26.3411 16.7833C26.4485 16.8867 26.4485 17.0933 26.3411 17.0933C26.3411 17.3 26.1262 17.3 25.9112 17.3C26.0187 17.0933 25.9112 16.8867 26.0187 16.7833ZM25.3739 17.8167C25.4814 17.92 25.6963 18.0233 25.8038 18.1267C25.6963 18.3333 25.6963 18.54 25.5888 18.7467C25.4814 18.6433 25.2665 18.4367 25.2665 18.3333C25.159 18.1267 25.2665 18.0233 25.3739 17.8167ZM15.4873 18.1267C15.3799 17.92 15.165 17.92 15.165 17.8167C15.165 17.7133 15.2724 17.61 15.3799 17.61C15.3799 17.61 15.5948 17.7133 15.5948 17.8167C15.5948 17.8167 15.5948 17.92 15.4873 18.1267ZM22.0426 17.1967C22.0426 17.7133 21.8276 18.23 22.365 18.6433C22.5799 18.9533 22.7948 19.2633 23.2247 19.0567C23.4396 19.2633 23.762 19.47 23.8694 19.78C23.8694 19.8833 23.5471 20.1933 23.3321 20.2967C23.2247 20.2967 23.0097 20.1933 23.0097 20.09C22.5799 19.5733 21.9351 19.16 21.6127 18.54C21.5053 18.3333 21.2903 18.23 21.1829 18.0233C20.8605 17.8167 20.5381 17.5067 20.3232 17.1967C20.2157 17.0933 20.0008 16.8867 20.3232 16.68C20.5381 16.4733 20.753 16.1633 21.0754 16.4733C21.1829 16.4733 21.2903 16.4733 21.3978 16.4733C21.9351 16.4733 22.0426 16.68 22.0426 17.1967ZM18.1739 11.6167C18.1739 11.5133 18.2814 11.3067 18.2814 11.2033C18.2814 10.9967 18.2814 10.6867 18.2814 10.48C18.2814 10.17 18.6038 9.96333 18.9262 10.0667C18.9262 10.0667 19.0336 10.2733 19.0336 10.3767C18.7112 10.6867 18.7112 10.6867 19.1411 10.9967C19.4635 11.3067 19.7859 11.3067 20.2157 11.1C20.5381 10.9967 20.8605 10.8933 21.1829 11.2033C21.1829 11.3067 21.2903 11.3067 21.3978 11.3067C21.3978 11.2033 21.5053 11.1 21.5053 10.9967C21.6127 10.3767 21.6127 10.2733 22.0426 10.17C22.5799 10.0667 23.2247 10.5833 23.1172 11.1C23.1172 11.41 22.9023 11.41 22.6873 11.5133C22.365 11.6167 21.9351 11.72 21.5053 11.8233C21.1829 11.9267 20.8605 12.03 20.4306 12.1333C20.1082 12.1333 19.7859 12.34 19.4635 11.9267C19.4635 11.8233 19.2485 11.9267 19.1411 11.9267C18.9262 11.9267 18.7112 12.03 18.4963 12.03C18.3888 12.03 18.1739 12.03 18.0665 11.9267C18.0665 11.8233 18.1739 11.72 18.1739 11.6167ZM17.3142 12.34C17.2068 12.34 17.0993 12.2367 16.9918 12.1333C16.8844 12.03 17.0993 11.9267 17.2068 11.8233C17.3142 11.9267 17.4217 12.03 17.4217 12.1333L17.3142 12.34ZM17.4217 14.0967C17.5291 13.9933 17.5291 13.7867 17.6366 13.7867C17.6366 13.7867 17.7441 13.7867 17.8515 13.7867C17.959 13.7867 18.0665 13.7867 18.1739 13.7867C18.2814 13.7867 18.4963 13.7867 18.6038 13.7867C18.7112 13.7867 18.8187 13.7867 18.8187 13.7867C19.0336 13.89 19.0336 14.4067 18.8187 14.82C18.7112 15.2333 18.4963 15.0267 18.2814 14.9233C18.1739 14.82 18.0665 14.7167 17.959 14.7167C17.8515 14.51 17.8515 14.4067 17.7441 14.3033C17.7441 14.3033 17.7441 14.3033 17.7441 14.2C17.6366 14.2 17.5291 14.2 17.4217 14.0967ZM17.3142 22.7767C17.3142 22.4667 17.3142 22.1567 17.4217 21.8467L17.5291 21.7433C17.959 21.95 18.6038 21.64 18.9262 22.26C19.0336 22.3633 19.2485 22.6733 19.2485 22.7767C19.2485 22.9833 19.0336 23.19 18.8187 23.2933C18.7112 23.2933 18.4963 23.19 18.3888 23.0867C18.1739 22.88 17.959 22.6733 17.6366 22.7767C17.5291 22.88 17.3142 22.7767 17.3142 22.7767Z" fill="#4267B2"/>
</g>
<defs>
<clipPath id="clip0_5322_29192">
<rect width="40" height="40" fill="white"/>
</clipPath>
</defs>
</svg>
