<svg width="35" height="35" viewBox="0 0 35 35" fill="none" xmlns="http://www.w3.org/2000/svg">
<path d="M13.72 18.4618C13.6715 18.6092 13.6715 18.7075 13.7684 18.8058C13.9139 18.9532 14.0108 19.1498 14.2532 19.1744C14.5198 19.1744 14.6652 19.3463 14.6167 19.6166C14.6167 19.6903 14.5925 19.764 14.641 19.8132C14.7379 19.9606 14.6652 20.0589 14.5683 20.1326C14.3744 20.28 14.3259 20.28 14.132 20.0834C14.0835 20.0097 14.0108 19.936 13.9623 19.8623C13.9623 19.8623 13.9623 19.8623 13.9866 19.8623C13.8896 19.764 13.7684 19.6658 13.72 19.5429C13.6715 19.4201 13.7442 19.2235 13.6715 19.1252C13.623 19.0515 13.4049 19.1252 13.3079 19.0515C13.1625 18.9532 12.9929 18.8304 13.114 18.5847C13.1383 18.5355 13.0898 18.4127 13.0413 18.339C12.9686 18.2407 12.8959 18.1424 12.8232 18.0687H5.89142V21.2874L5.91566 21.3119C5.9399 21.3365 5.9399 21.4102 5.96414 21.4839C5.98837 21.5822 6.01261 21.6805 6.01261 21.7788C6.01261 21.8279 5.96414 21.9016 5.9399 21.9016C5.91566 21.9016 5.89142 21.9016 5.89142 21.9016V23.0564L5.91566 23.081C6.15803 23.3267 6.15803 23.3513 6.44888 23.1547C6.5943 23.0564 6.66701 23.0564 6.81243 23.1793C7.12751 23.4495 7.10327 23.7935 7.0548 24.1621C7.0548 24.1867 7.00633 24.2358 7.03056 24.2604C7.12751 24.8009 6.64277 24.8992 6.35193 25.1449C6.20651 25.2677 6.08532 25.0712 5.96414 24.9729C5.86719 24.8746 5.9399 24.7763 6.01261 24.7026C6.27922 24.3586 6.27922 24.3586 5.98837 24.0392C5.96414 23.9901 5.91566 23.9655 5.89142 23.9164V28.0687C5.89142 28.0687 5.89142 28.0687 5.89142 28.0933C5.89142 28.167 5.91566 28.2161 5.91566 28.2899C5.91566 28.3144 5.89142 28.3636 5.89142 28.3881V28.8058C5.91566 28.8058 5.9399 28.8058 5.9399 28.7813C6.08532 28.7567 6.25498 28.7076 6.37616 28.855C6.47311 28.9533 6.57006 28.9041 6.64277 28.7813C6.83667 28.4618 7.34564 28.3144 7.68496 28.4618C8.02428 28.6093 8.77563 28.4864 9.018 28.2407C9.04223 28.2161 9.06647 28.1424 9.09071 28.0933C9.13918 28.0442 9.18766 27.9459 9.23613 27.9459C9.69663 27.823 10.1571 27.7002 10.6176 27.6019C10.6904 27.5773 10.7873 27.5773 10.86 27.6019C10.9085 27.6019 10.9812 27.651 11.0297 27.7002C11.0539 27.7247 11.0054 27.7985 10.9812 27.8476C10.8358 28.1424 10.6176 28.3144 10.351 28.3144C10.1814 28.3636 10.1087 28.3881 10.0117 28.4127C9.89053 28.4373 9.76934 28.4618 9.69663 28.3144C9.62392 28.1916 9.4785 28.2161 9.4785 28.339C9.45426 28.5601 9.30884 28.6093 9.13918 28.6093C8.77563 28.6093 8.43631 28.7567 8.09699 28.9041C7.97581 28.9532 7.85462 28.9778 7.85462 29.1498C7.85462 29.2972 7.73344 29.2972 7.63649 29.2235C7.46683 29.1252 7.32141 29.027 7.15175 28.9287C7.12751 28.9041 7.03056 28.9778 7.03056 29.0024C7.03056 29.199 6.8609 29.2235 6.71548 29.2727C6.52159 29.3218 6.35193 29.3709 6.15803 29.4447C6.08532 29.4692 6.01261 29.5429 5.96414 29.5921C5.9399 29.6412 5.91566 29.6658 5.86719 29.7149V30.2555C5.98837 30.3292 6.01261 30.3046 6.06108 30.1326C6.10956 29.9606 6.18227 29.9361 6.32769 30.0343C6.47311 30.1326 6.64277 30.2309 6.81243 30.3046C6.83667 30.3046 6.93362 30.2555 6.93362 30.2309C6.93362 30.0343 7.12751 30.0098 7.2487 29.9606C7.39412 29.9115 7.49107 29.9361 7.61225 30.0589C7.73344 30.1818 8.02428 30.108 8.07275 29.9115C8.14547 29.6166 8.41207 29.6904 8.60597 29.6412C8.79986 29.5921 8.92105 29.7149 8.99376 29.8869C9.018 29.9606 9.04223 30.0098 9.06647 30.0835C9.09071 30.108 9.11494 30.1326 9.13918 30.1326C9.16342 30.1326 9.21189 30.0835 9.18766 30.0589C9.18766 29.9606 9.16342 29.8869 9.16342 29.7886C9.11495 29.5184 9.13918 29.4938 9.40579 29.3955C9.50274 29.3709 9.57545 29.3464 9.6724 29.3218C9.76934 29.2972 9.84205 29.2972 9.939 29.2727C10.1087 29.2235 10.2783 29.1744 10.4722 29.1498C10.6176 29.1252 10.7631 29.0761 10.8842 29.2727C10.957 29.3955 11.1024 29.3709 11.1024 29.199C11.1024 29.0761 11.1266 28.9778 11.272 28.9532C11.4659 28.9041 11.6598 28.8795 11.878 28.855C11.878 28.855 11.9507 29.0515 11.9264 29.0761C11.781 29.199 11.8053 29.3464 11.781 29.4938C11.7568 29.7395 11.4659 29.9115 11.3205 29.7395C11.1266 29.4938 10.9327 29.6166 10.7388 29.6658C10.4965 29.7395 10.2783 29.8132 10.036 29.8623C9.86629 29.9115 9.86629 29.9852 9.89053 30.1326C9.96324 30.5012 9.96324 30.4766 9.59968 30.5749C9.13918 30.6977 8.70292 30.8206 8.24241 30.9434C7.87886 31.0417 7.85462 31.0417 7.63649 30.7223C7.61225 30.6732 7.53954 30.6486 7.49107 30.5994C7.46683 30.6732 7.46683 30.7223 7.44259 30.796C7.44259 30.8206 7.44259 30.8697 7.46683 30.8943C7.49107 30.9926 7.5153 31.1154 7.36988 31.14C7.32141 31.14 7.22446 31.0663 7.17599 30.9926C6.95785 30.6732 6.88514 30.624 6.52159 30.7469C6.30345 30.796 6.10956 30.9434 5.89142 30.7469C5.89142 30.7469 5.89142 30.7469 5.86719 30.7469V31.5823H10.3268C10.3026 31.5577 10.2541 31.5331 10.1814 31.5085C10.2541 31.4348 10.2783 31.3857 10.3268 31.3611C10.351 31.3611 10.448 31.4103 10.448 31.4348C10.448 31.484 10.4237 31.5577 10.3753 31.5823H14.9318C14.8106 31.5085 14.7622 31.3857 14.7864 31.1891C14.7864 31.1154 14.7864 31.0171 14.7379 30.968C14.641 30.8206 14.5198 30.6977 14.6167 30.4766C14.6895 30.3292 14.6167 30.1326 14.6167 29.9361C14.6167 29.8623 14.641 29.8132 14.6652 29.7395C14.7379 29.7641 14.8106 29.7641 14.8834 29.8132C14.9803 29.9115 15.0772 30.0343 15.1742 30.1572C15.2711 30.28 15.3923 30.4029 15.4893 30.5257C15.5377 30.5994 15.5862 30.6977 15.562 30.7714C15.4893 30.968 15.562 31.0417 15.7074 31.14C15.8286 31.2137 15.9255 31.3611 16.0225 31.4594C16.0467 31.484 16.071 31.5085 16.071 31.5331H16.2649V30.8451C16.2406 30.8451 16.2406 30.8206 16.2164 30.8206C16.1921 30.796 16.2164 30.6977 16.2406 30.6732C16.2406 30.6732 16.2649 30.6732 16.2649 30.6486V26.6928C16.2164 26.6928 16.1437 26.6437 16.1194 26.6191C16.0952 26.6437 16.071 26.6682 16.071 26.6682C16.0467 26.7419 15.9983 26.7911 15.9255 26.8157C15.9013 26.8157 15.8044 26.7665 15.8044 26.7174C15.8044 26.6437 15.8286 26.57 15.8771 26.5208C15.9013 26.4962 15.9255 26.4471 15.9498 26.4225C15.9255 26.3734 15.9013 26.3242 15.9255 26.226C15.9498 26.1523 15.9498 26.0785 15.9498 26.0048C15.8771 26.0048 15.7801 25.9803 15.7316 26.0294C15.4893 26.1768 15.2954 26.1031 15.15 25.882C15.1257 25.8574 15.1015 25.8083 15.0772 25.7837C15.0772 25.7837 15.053 25.7837 15.053 25.7591C15.053 25.7591 15.053 25.7591 15.053 25.7346C14.9803 25.6609 14.8591 25.5871 14.7137 25.6363C14.6167 25.6609 14.544 25.538 14.641 25.4397C14.7864 25.2677 14.9318 25.0712 15.1257 24.9975C15.2954 24.9483 15.5135 25.0712 15.6832 25.1449C15.8044 25.194 15.8771 25.3169 15.974 25.4152C16.0952 25.538 16.1921 25.5871 16.3376 25.5134V22.221C16.2649 22.1228 16.1679 22.0245 16.0952 21.9262C16.0225 21.8279 15.9498 21.7542 15.7801 21.7788C15.5377 21.8279 15.2227 21.4102 15.2469 21.1645C15.2954 20.8943 15.2711 20.8451 15.0045 20.8943C14.7864 20.9188 14.7379 20.7468 14.6895 20.624C14.6652 20.5748 14.7379 20.452 14.7622 20.3537C14.7622 20.3291 14.8106 20.3046 14.8349 20.28C15.1015 20.0097 15.2469 20.0097 15.4893 20.3046C15.562 20.4029 15.6347 20.4766 15.7074 20.5748C15.7074 20.5748 15.7074 20.5748 15.6832 20.5994C15.7801 20.7223 15.8771 20.8205 15.974 20.9434C16.0225 20.9925 16.071 21.0908 16.0467 21.1154C15.9013 21.3857 16.1194 21.5331 16.2406 21.7051C16.2649 21.7296 16.2891 21.7788 16.3133 21.8034V18.0441H13.5261C13.6715 18.1178 13.7927 18.2898 13.72 18.4618ZM6.32769 19.8377C6.30345 19.8623 6.18227 19.764 6.18227 19.7149C6.18227 19.6412 6.25498 19.5675 6.30345 19.4692C6.44888 19.5183 6.57006 19.5675 6.66701 19.592C6.54582 19.6903 6.44888 19.764 6.32769 19.8377ZM11.7325 31.1154C11.7083 31.1154 11.6598 31.0908 11.5871 31.0663C11.6598 31.0171 11.6841 30.968 11.7325 30.968C11.7568 30.968 11.8053 31.0171 11.8295 31.0171C11.8053 31.0663 11.781 31.1154 11.7325 31.1154ZM15.7074 27.7739C15.9983 27.7002 16.0467 27.7247 16.0952 27.9704C16.0952 28.0933 16.2164 28.2653 15.9983 28.3144C15.7559 28.3636 15.5862 28.2653 15.5135 28.0442C15.4408 27.8476 15.562 27.7985 15.7074 27.7739ZM13.623 22.0982C13.6715 22.1719 13.72 22.1965 13.72 22.2456C13.72 22.2702 13.6715 22.3193 13.6473 22.3439C13.623 22.3193 13.5746 22.2702 13.5503 22.2456C13.5503 22.221 13.5988 22.1719 13.623 22.0982ZM12.5324 21.9508C12.6051 21.9508 12.702 21.9753 12.799 21.9508C12.8959 21.9262 12.9929 21.8771 13.0413 21.9999C13.0656 22.0491 12.9929 22.1473 12.9686 22.1965C12.9444 22.221 12.9202 22.2456 12.8232 22.3193C12.799 22.3193 12.6535 22.4176 12.6293 22.3685C12.5324 22.2702 12.4839 22.1473 12.4354 21.9999C12.4112 22.0245 12.5081 21.9753 12.5324 21.9508ZM12.9444 27.6019C12.8959 27.6265 12.8232 27.5773 12.7263 27.5528C12.7747 27.479 12.8232 27.3808 12.8474 27.3808C12.8959 27.3808 12.9686 27.4299 12.9929 27.4545C13.0171 27.5036 12.9686 27.6019 12.9444 27.6019ZM11.9022 20.1817C11.9507 20.0834 11.9991 19.9606 12.0719 19.8869C12.0961 19.8377 12.1688 19.8377 12.2415 19.8132C12.2658 19.8623 12.3142 19.936 12.29 19.9852C12.2415 20.108 12.1446 20.2309 12.0719 20.3537C12.0476 20.3783 11.9991 20.3783 11.9507 20.3783C11.9264 20.3783 11.9022 20.3291 11.8537 20.3046C11.878 20.2309 11.878 20.2063 11.9022 20.1817ZM12.1688 24.2604C12.1688 24.3095 12.1688 24.3586 12.1446 24.3832C12.0961 24.4078 12.0476 24.4078 11.9991 24.3832C11.9749 24.3586 11.9749 24.3095 11.9507 24.2358C12.0719 24.2604 12.1203 24.2604 12.1688 24.2604ZM11.1509 23.9164C11.2236 23.9164 11.2963 24.0147 11.369 24.0884C11.3205 24.2112 11.272 24.3095 11.2236 24.4078C11.1509 24.3095 11.0539 24.2112 11.0054 24.0884C10.9812 24.0638 11.1024 23.9164 11.1509 23.9164ZM7.53954 21.8771C7.73344 21.7051 7.80615 21.7296 7.97581 21.9262C8.09699 22.0736 8.07275 22.2456 7.87886 22.393C7.73344 22.5159 7.66073 22.4176 7.56378 22.3193C7.36988 22.0736 7.36988 22.0245 7.53954 21.8771ZM7.97581 23.7198C7.92733 23.769 7.9031 23.8181 7.85462 23.8427C7.83038 23.8427 7.78191 23.7935 7.7092 23.7444C7.75767 23.6952 7.80615 23.6215 7.83038 23.6215C7.9031 23.6461 7.92733 23.6953 7.97581 23.7198ZM7.00633 21.4348C7.00633 21.4594 6.90938 21.4594 6.88514 21.4348C6.8609 21.4102 6.8609 21.3611 6.8609 21.2874C6.93362 21.2874 6.95785 21.2874 7.00633 21.2874C7.00633 21.3365 7.03056 21.4102 7.00633 21.4348ZM6.93362 19.5429C7.00633 19.4692 7.03056 19.4201 7.0548 19.4201C7.10327 19.4201 7.12751 19.4692 7.17599 19.4692C7.15175 19.4938 7.15175 19.5675 7.10327 19.5675C7.07904 19.5675 7.03056 19.5429 6.93362 19.5429ZM6.23074 25.4643C6.30345 25.4889 6.37616 25.5134 6.4004 25.5626C6.42464 25.5871 6.37616 25.6854 6.32769 25.7591C6.25498 25.6854 6.18227 25.6609 6.18227 25.6117C6.18227 25.5871 6.20651 25.5134 6.23074 25.4643ZM8.48478 27.5773C8.26665 27.6265 8.02428 27.7002 7.80615 27.7739C7.61225 27.823 7.5153 27.7493 7.49107 27.5528C7.41836 27.6019 7.29717 27.651 7.29717 27.7002C7.29717 27.9459 7.12751 27.9459 6.98209 27.9704C6.88514 27.995 6.78819 28.0196 6.69125 28.0442C6.32769 28.1179 5.98837 27.7739 6.08532 27.4053C6.10956 27.3562 6.18227 27.3071 6.25498 27.2825C6.4004 27.2333 6.57006 27.2579 6.69125 27.1842C7.00633 26.9876 7.20022 27.2825 7.44259 27.3562C7.49107 27.3808 7.49107 27.479 7.5153 27.5282C7.63649 27.479 7.73344 27.4545 7.73344 27.2825C7.73344 27.2088 7.83038 27.1105 7.9031 27.0859C8.07275 27.0368 8.24241 27.0368 8.41207 27.0122C8.60597 26.9876 8.60597 27.1596 8.6302 27.2825C8.65444 27.4299 8.6302 27.5282 8.48478 27.5773ZM8.6302 25.9311C8.48478 26.054 8.46055 26.1768 8.60597 26.2997C8.46055 26.398 8.33936 26.5208 8.19394 26.6191C8.09699 26.6682 7.95157 26.7419 7.9031 26.7174C7.80615 26.6437 7.7092 26.4962 7.68496 26.3488C7.63649 26.1031 7.66073 26.1031 7.41836 26.1768C7.34564 26.2014 7.29717 26.226 7.22446 26.2505C7.20022 26.2505 7.12751 26.226 7.12751 26.226C7.12751 26.0785 7.12751 25.9066 7.15175 25.7591C7.15175 25.71 7.27293 25.6609 7.34564 25.6609C7.58801 25.6363 7.61225 25.5871 7.49107 25.3906C7.44259 25.3414 7.41836 25.2923 7.41836 25.2432C7.36988 25.194 7.32141 25.1449 7.29717 25.1203C7.27293 25.0957 7.27293 24.9975 7.29717 24.9729C7.39412 24.8992 7.5153 24.8255 7.61225 24.7272C7.61225 24.6781 7.61225 24.6535 7.58801 24.6043C7.56378 24.5798 7.61225 24.4815 7.66073 24.4569C7.7092 24.4569 7.80615 24.4569 7.83038 24.5061C8.00004 24.6781 8.12123 24.8746 8.29089 25.0466C8.41207 25.194 8.53326 25.3414 8.65444 25.4643C8.79986 25.6609 8.79986 25.8083 8.6302 25.9311ZM9.64816 27.3316C9.62392 27.3562 9.55121 27.3316 9.50274 27.3316C9.50274 27.2825 9.4785 27.2088 9.52697 27.1596C9.55121 27.1351 9.62392 27.1351 9.72087 27.1351C9.6724 27.2333 9.6724 27.3071 9.64816 27.3316ZM9.50274 24.4078C9.38155 24.5061 9.30884 24.3586 9.21189 24.2849C9.09071 24.1867 9.018 24.0638 8.8241 24.1375C8.72715 24.1621 8.67868 24.0638 8.75139 23.9901C8.84834 23.8672 8.94529 23.769 9.04223 23.6461C8.94529 23.5233 8.84834 23.425 8.77563 23.3021C8.75139 23.2776 8.77563 23.1793 8.79986 23.1547C8.8241 23.1301 8.89681 23.1056 8.92105 23.1301C9.018 23.2284 9.11495 23.3021 9.16342 23.425C9.18766 23.4741 9.09071 23.597 9.04223 23.6707C9.13918 23.769 9.21189 23.8918 9.38155 23.8427C9.43003 23.8181 9.4785 23.8181 9.50274 23.8427C9.59968 23.941 9.79358 24.0392 9.76934 24.1129C9.74511 24.2112 9.59968 24.3341 9.50274 24.4078ZM9.6724 18.7567C9.57545 18.7567 9.45426 18.5847 9.35731 18.4864C9.33308 18.4372 9.40579 18.339 9.43003 18.2407C9.55121 18.2161 9.64816 18.1915 9.74511 18.167C9.76934 18.2407 9.76934 18.339 9.79358 18.4127V18.4372C9.81782 18.5847 9.86629 18.7567 9.6724 18.7567ZM10.448 25.3169C10.4237 25.3906 10.3995 25.4643 10.3753 25.538C10.3026 25.5134 10.2298 25.4889 10.1571 25.4397C10.1087 25.3906 10.0602 25.3414 10.036 25.3169C9.79358 25.022 9.79358 24.9483 9.98748 24.8009C10.0602 24.7518 10.2056 24.6781 10.2541 24.7272C10.351 24.8255 10.4237 24.9483 10.4722 25.0957C10.4965 25.1449 10.448 25.2432 10.448 25.3169ZM10.86 20.108C10.8115 20.1326 10.7146 20.108 10.6661 20.0834C10.6176 20.0589 10.6176 19.9606 10.5934 19.8869C10.6419 19.8869 10.6661 19.8623 10.7146 19.8623C10.7873 19.8869 10.86 19.8869 10.9085 19.9115C10.9085 19.9852 10.9085 20.0834 10.86 20.108ZM11.2963 26.8402C11.272 26.7911 11.2478 26.7665 11.1751 26.6928C11.1751 26.6682 11.1266 26.6191 11.0781 26.57C11.0297 26.4717 10.957 26.3488 11.0054 26.2997C11.0539 26.1523 11.1993 26.2997 11.272 26.2997C11.4902 26.226 11.6114 26.2997 11.7325 26.4717C11.8053 26.2997 11.9264 26.1277 11.9991 26.1523C12.0961 26.1768 12.1446 26.2997 12.2173 26.3488C12.193 26.4717 12.2173 26.6191 12.1688 26.6437C12.0719 26.6928 11.9507 26.7174 11.8295 26.7419C11.8053 26.7911 11.7568 26.8402 11.7083 26.8894C11.5386 26.9631 11.4175 26.9876 11.2963 26.8402ZM11.8537 27.7985C11.8537 27.823 11.7568 27.823 11.7325 27.7985C11.7083 27.7739 11.6841 27.7002 11.6841 27.6756C11.7325 27.6019 11.781 27.5036 11.8053 27.4299C11.6841 27.2825 11.7083 27.1596 11.8295 27.0368C11.9264 26.9385 12.0719 26.8648 12.193 26.7911C12.2173 26.7665 12.3385 26.7911 12.3385 26.8157C12.3627 26.9876 12.4112 27.1596 12.3627 27.3071C12.3627 27.3071 12.3627 27.3071 12.3627 27.3316C12.3142 27.4299 12.1446 27.5282 12.0234 27.5773H11.9991C11.9507 27.6265 11.878 27.6756 11.8537 27.7985ZM12.4112 28.7813C12.4112 28.8058 12.3869 28.855 12.3627 28.8795C12.3627 28.8795 12.3142 28.855 12.2658 28.8304C12.29 28.7813 12.3142 28.7567 12.3627 28.7321C12.3385 28.7567 12.4112 28.7813 12.4112 28.7813ZM12.29 30.9926C12.2658 30.9926 12.193 30.9434 12.1446 30.9189C12.1688 30.8697 12.2173 30.8206 12.2658 30.7469C12.3385 30.796 12.3869 30.8451 12.4112 30.8697C12.3869 30.9189 12.3385 30.9926 12.29 30.9926ZM12.4112 23.7198C12.4597 23.6461 12.4839 23.6215 12.5081 23.5724C12.5566 23.597 12.6051 23.6461 12.6051 23.6707C12.6051 23.6952 12.5808 23.769 12.5566 23.769C12.5324 23.769 12.4839 23.7444 12.4112 23.7198ZM13.0171 28.4127C13.0656 28.511 13.1868 28.5847 13.0656 28.7075C13.0413 28.7321 12.9686 28.7321 12.9444 28.7075C12.799 28.5601 12.9444 28.4864 13.0171 28.4127C12.9929 28.4127 12.9929 28.4127 13.0171 28.4127C12.9929 28.3881 12.9929 28.3881 13.0171 28.4127C12.8717 28.2407 12.7263 28.0933 12.6051 27.9459C12.5566 27.8967 12.5808 27.7739 12.5808 27.7002C12.6535 27.7002 12.7505 27.7002 12.799 27.7247C12.8959 27.7739 12.9929 27.8476 13.0656 27.9459C13.2352 28.1424 13.211 28.167 13.0171 28.4127C13.0171 28.3881 13.0171 28.3881 13.0171 28.4127ZM13.1383 23.3267C13.211 23.1301 13.4291 22.9827 13.4291 22.737C13.4291 22.737 13.5261 22.6879 13.5746 22.7124C13.8412 22.8353 13.9623 23.0564 13.9623 23.3267C13.9623 23.4495 13.9623 23.5478 14.1078 23.5478C14.2047 23.5478 14.3501 23.4741 14.3744 23.6215C14.3986 23.7198 14.3017 23.8181 14.2774 23.8427C14.0108 24.0638 13.9623 24.0638 13.7927 23.8672C13.623 23.6952 13.5261 23.425 13.211 23.5233C13.1868 23.4987 13.114 23.3758 13.1383 23.3267ZM13.72 30.7714C13.623 30.6732 13.5503 30.6486 13.5261 30.5749C13.5261 30.5257 13.5746 30.452 13.5988 30.3783C13.6473 30.4275 13.7442 30.452 13.7684 30.5012C13.7927 30.5749 13.7442 30.6486 13.72 30.7714ZM13.9866 29.4201C13.9381 29.3955 13.8896 29.3709 13.8412 29.3218V29.3464C13.8412 29.4447 13.8654 29.5921 13.72 29.5921C13.6473 29.5921 13.5503 29.4938 13.4776 29.4447C13.4291 29.3955 13.3807 29.3464 13.3564 29.2727C13.211 29.027 13.211 28.9778 13.5018 28.7321C13.5503 28.7321 13.6715 28.683 13.72 28.7321C13.8169 28.8058 13.9139 28.8795 13.9381 29.0024C13.9866 29.0761 14.0351 29.1498 14.0593 29.2235C14.0835 29.2727 14.0108 29.3464 13.9866 29.4201ZM14.641 28.6093C14.5683 28.5601 14.4956 28.4864 14.3986 28.4127C14.4471 28.2899 14.4471 28.1424 14.4956 28.1179C14.6167 28.0687 14.7379 28.0442 14.8834 28.0442C14.9076 28.0442 14.9803 28.1424 14.9561 28.167C14.8591 28.3144 14.7379 28.4618 14.641 28.6093ZM14.6652 26.8648C14.7864 26.8402 14.9076 26.7665 15.0288 26.7665C15.1015 26.7665 15.2227 26.8157 15.2469 26.8648C15.2954 26.9876 15.1984 27.0614 15.1015 27.0859C15.0045 27.1105 14.9318 27.1351 14.8349 27.1596C14.544 27.2333 14.2532 27.3071 13.9623 27.3808C13.7927 27.4299 13.623 27.479 13.5503 27.2579C13.5261 27.2088 13.4534 27.2088 13.4049 27.1842C13.3564 27.1596 13.3079 27.1105 13.2837 27.0614C13.3564 27.0368 13.4534 26.9631 13.4776 26.9876C13.6715 27.1351 13.8654 27.0614 14.0593 27.0122C14.2532 26.9876 14.4471 26.9139 14.6652 26.8648ZM15.9255 24.5798C15.9498 24.6289 15.9255 24.7026 15.9255 24.7518C15.8528 24.7272 15.7801 24.7272 15.7316 24.6781C15.7074 24.6535 15.7074 24.5552 15.7074 24.4324C15.8044 24.5061 15.9013 24.5306 15.9255 24.5798ZM15.1742 23.7935C15.2954 23.7444 15.4166 23.5724 15.5377 23.7198C15.562 23.769 15.465 23.941 15.3923 24.0884C15.2954 24.0638 15.1984 24.0638 15.15 24.0147C15.053 23.941 15.053 23.8181 15.1742 23.7935Z" fill="#171026"/>
<path d="M18.8582 18.2407C18.834 18.2407 18.8098 18.2161 18.7613 18.2161V20.28C18.8098 20.3046 18.8825 20.3291 18.9309 20.3537C19.0279 20.4274 19.0279 20.5257 18.9309 20.624C18.8825 20.6731 18.8098 20.6731 18.7613 20.6485V24.334C18.9067 24.5306 19.0764 24.7026 19.2218 24.8992C19.5853 25.3169 19.9489 25.7345 20.3125 26.1768C20.4094 26.2997 20.5791 26.4225 20.5064 26.6436C20.6518 26.5945 20.7487 26.6191 20.7972 26.8156C20.8457 26.963 20.8214 27.0368 20.676 27.0859C20.8457 27.307 21.088 27.5282 21.1608 27.5282C21.3546 27.5527 21.5243 27.5527 21.7182 27.5773C21.7667 27.5773 21.8152 27.6756 21.8152 27.7247C21.7909 28.1178 22.106 28.4864 22.4695 28.511C22.6634 28.5355 22.7846 28.683 22.7846 28.8549C22.7604 29.0515 22.7604 29.2481 22.7604 29.4446C22.7604 29.4938 22.8331 29.5675 22.8573 29.5675C23.0755 29.4938 23.2209 29.6412 23.3663 29.7395C23.5117 29.8378 23.6087 29.764 23.7056 29.6658C23.8268 29.5675 23.948 29.5429 24.045 29.6658C24.1177 29.7886 24.2389 29.9115 24.0934 30.0835C23.8995 30.3292 23.8995 30.452 24.1419 30.6977C24.36 30.9434 24.5782 31.1645 24.7721 31.3857C24.8205 31.3857 24.8448 31.3857 24.869 31.3857C24.966 31.4102 25.0871 31.4102 25.1841 31.4348C25.1841 31.4594 25.1841 31.5085 25.1599 31.5331H29.1832V29.3955C29.159 29.3463 29.159 29.2972 29.1832 29.2481V28.9778C29.159 28.9532 29.1347 28.9287 29.1347 28.9041C29.0378 28.9532 28.9651 29.0761 28.8439 28.9532C28.8196 28.9287 28.8196 28.8304 28.8439 28.8058C28.9651 28.7075 29.0378 28.8304 29.1105 28.9041C29.1347 28.8795 29.159 28.8795 29.159 28.8549V26.2505C29.1347 26.2259 29.1347 26.2014 29.1105 26.1768C28.9893 26.0048 28.8439 25.8328 28.6742 25.6608C28.6257 25.6117 28.5288 25.5626 28.4561 25.5626C28.141 25.538 28.0683 25.4151 28.0683 25.1203C28.0683 24.9974 27.9956 24.85 27.9229 24.7517C27.632 24.3832 27.3412 24.0638 27.0503 23.6952C26.9776 23.5969 26.8807 23.4987 26.808 23.4004C26.711 23.2284 26.7837 23.1301 26.9534 23.1055C27.0988 23.081 27.2442 23.0564 27.3897 23.0318C27.4624 23.0318 27.5351 23.0318 27.5836 23.0564C27.6078 23.081 27.6078 23.1547 27.5836 23.2038C27.5108 23.4987 27.6805 23.6952 27.9713 23.6707C28.141 23.6461 28.1895 23.7198 28.1652 23.8672C28.141 24.0638 28.2137 24.1621 28.4318 24.1129C28.5773 24.0883 28.7469 24.0883 28.8924 24.0392C29.062 23.9901 29.1105 23.8672 28.9893 23.7198C28.9408 23.6707 28.9166 23.6215 28.8681 23.5478C28.8439 23.5478 28.8439 23.5478 28.8196 23.5724C28.7227 23.5969 28.5773 23.6461 28.4318 23.6707C28.3349 23.6952 28.238 23.6952 28.1895 23.5724C28.141 23.4495 28.2137 23.3758 28.3349 23.3512C28.4803 23.3021 28.6257 23.253 28.6985 23.081C28.6985 23.0564 28.7469 23.0318 28.7954 23.0318C28.8924 22.909 28.9893 22.8598 29.1347 22.9581C29.159 22.9581 29.1832 22.9581 29.2074 22.9581V22.2456C29.1347 22.2702 29.0378 22.2947 28.9408 22.2947C28.8924 22.2947 28.8196 22.2702 28.8196 22.221C28.7954 22.1719 28.8196 22.1227 28.8439 22.0736C28.8924 21.9999 28.9408 21.9016 28.9893 21.8279C29.0378 21.7788 29.0862 21.7296 29.1347 21.705C29.159 21.705 29.1832 21.6805 29.2074 21.6805V19.9851C29.1832 19.9851 29.1832 19.9851 29.159 19.9851C29.0862 19.9851 28.9893 19.9851 28.9408 19.936C28.9408 19.936 28.9408 19.936 28.9166 19.936C28.8924 19.9606 28.8681 19.9606 28.8681 19.9606C28.7469 19.9851 28.5773 20.0588 28.5288 19.8623C28.5046 19.8131 28.6257 19.7149 28.6742 19.6657C28.4803 19.42 28.3591 19.076 28.4076 18.7812C28.4319 18.6584 28.6257 18.5109 28.7469 18.4372C28.8196 18.3881 28.9408 18.5355 28.8681 18.6338C28.7469 18.7812 28.7712 18.9041 28.8924 19.0515C28.9651 19.1498 28.9408 19.2726 29.1105 19.3463C29.159 19.3709 29.1832 19.3709 29.2317 19.3955V18.0441H28.1168C28.1652 18.1178 28.2137 18.1915 28.238 18.2898C28.3107 18.4864 28.1168 18.5601 27.9956 18.6338C27.9229 18.6584 27.7775 18.5846 27.6563 18.5355C27.632 18.4127 27.5836 18.2652 27.6078 18.2161C27.6563 18.167 27.6563 18.0932 27.6805 18.0441H24.9902C25.1114 18.1915 25.2568 18.3389 25.378 18.5109C25.5476 18.7321 25.5476 18.7812 25.378 18.9286C25.1841 19.076 25.1356 19.076 24.9417 18.8795C24.869 18.8058 24.7963 18.7075 24.7236 18.6092C24.5782 18.4127 24.4327 18.2407 24.2631 18.0441H23.1724C23.2451 18.167 23.3421 18.2407 23.5117 18.2898C23.5602 18.3144 23.6329 18.3881 23.6329 18.4372C23.6572 18.6338 23.7783 18.8303 23.5844 19.0023C23.5844 19.0023 23.6572 19.1498 23.7056 19.1498C23.8995 19.1743 24.0692 19.1498 24.2631 19.1498C24.4085 19.1498 24.6024 19.3709 24.5782 19.5183C24.5782 19.6166 24.5297 19.764 24.5539 19.8131C24.6509 19.9114 24.7721 20.0097 24.9175 20.0589C25.2326 20.1571 25.2326 20.2063 25.3295 20.5503C25.4022 20.796 25.6204 21.0171 25.79 21.2382C26.0082 21.5085 26.2263 21.7542 26.4444 22.0245C26.5898 22.1964 26.4202 22.2702 26.2748 22.393C26.1778 22.5159 26.0324 22.4913 25.9112 22.3439C25.8143 22.221 25.6931 22.1227 25.4992 22.1473C25.3538 22.1719 25.2083 21.9016 25.2083 21.705C25.2326 21.4102 24.9175 21.0662 24.6266 21.0662C24.4812 21.0662 24.4085 20.9925 24.457 20.8942C24.5539 20.6977 24.457 20.5994 24.36 20.5011C23.7299 19.764 23.0997 19.0023 22.4938 18.2652C22.4211 18.1915 22.3726 18.1178 22.2999 18.0195H18.8098C18.834 18.1178 18.834 18.167 18.8582 18.2407ZM28.1168 22.3684C28.141 22.3193 28.1895 22.2947 28.238 22.2456C28.3591 22.1473 28.4076 22.1719 28.5773 22.3684C28.7469 22.565 28.7469 22.6141 28.553 22.7616C28.3591 22.909 28.3107 22.909 28.1652 22.7124C28.1168 22.6387 28.0925 22.565 28.0683 22.5159C28.0198 22.565 27.9471 22.565 27.8986 22.5896C27.8259 22.5896 27.7775 22.6141 27.729 22.6141C27.6805 22.5896 27.6563 22.5404 27.632 22.4913C27.7047 22.4176 27.8017 22.3439 27.8744 22.3193C27.9471 22.2702 28.0683 22.221 28.1168 22.3684ZM27.4139 19.4937C27.4381 19.4937 27.5836 19.3955 27.632 19.4446C27.729 19.5183 27.8986 19.6903 27.8744 19.764C27.8502 19.7886 27.8502 19.8377 27.8502 19.8623C27.8502 19.8869 27.8744 19.9114 27.8744 19.936C27.8986 19.9851 27.8986 20.0588 27.8986 20.108C27.9229 20.1817 27.9713 20.2554 27.9956 20.3291C28.0198 20.4028 27.9956 20.5011 27.9471 20.5748C27.8986 20.6485 27.8017 20.6731 27.7047 20.6977C27.6805 20.624 27.6563 20.5257 27.632 20.452C27.6078 20.3783 27.5593 20.28 27.5108 20.2063C27.4624 20.108 27.3654 20.0343 27.3169 19.9606C27.1715 19.764 27.1715 19.7149 27.4139 19.4937ZM27.2927 21.1645C27.3897 21.0662 27.4866 20.9925 27.6078 21.1399C27.7775 21.3365 27.7775 21.4839 27.632 21.6313C27.4381 21.8033 27.3654 21.8033 27.22 21.6313C27.0746 21.4102 27.0746 21.3365 27.2927 21.1645ZM20.7972 25.2677C20.7487 25.2923 20.7002 25.2923 20.6518 25.2923C20.5791 25.2923 20.4821 25.2677 20.4094 25.2677C20.4336 25.1694 20.4579 25.0957 20.4821 25.0712C20.6518 24.8992 20.773 24.85 20.8941 25.022C20.9669 25.1449 20.9426 25.2186 20.7972 25.2677ZM20.773 23.2775C20.7487 23.3267 20.6518 23.3021 20.5064 23.3267C20.5306 23.2038 20.5306 23.1055 20.5791 23.081C20.6275 23.0564 20.7245 23.081 20.7972 23.081C20.7972 23.1301 20.8214 23.2284 20.773 23.2775ZM21.8394 26.4716C21.7909 26.5208 21.694 26.5454 21.6213 26.5699C21.5728 26.5945 21.5243 26.5699 21.4758 26.5699C21.4274 26.5454 21.3789 26.5208 21.3304 26.4716C21.3304 26.5699 21.2819 26.6682 21.185 26.7419C21.1365 26.7665 21.1123 26.8156 21.0638 26.8402C20.9426 26.8893 20.8457 26.8402 20.8699 26.6928C20.8699 26.5699 20.8699 26.4471 20.8941 26.3242C20.9184 26.2014 21.0396 26.1277 21.1365 26.1768C21.2577 26.2259 21.3062 26.3242 21.3304 26.4225C21.3789 26.3734 21.4031 26.3242 21.4516 26.2997C21.4758 26.2751 21.5243 26.2751 21.6213 26.2259C21.6455 26.2259 21.7424 26.2505 21.8152 26.2751C21.8636 26.3242 21.8636 26.4471 21.8394 26.4716ZM22.4938 27.2088C22.4211 27.135 22.3726 27.0859 22.3484 27.0368C22.3484 26.9385 22.3241 26.8893 22.3241 26.8648C22.3241 26.8156 22.3484 26.7665 22.3968 26.7665C22.4211 26.7665 22.4695 26.7911 22.4938 26.8156C22.518 26.8402 22.5423 26.8893 22.5423 26.9385C22.518 27.0122 22.4938 27.1105 22.4938 27.2088ZM22.8331 26.2014C22.8089 26.2259 22.7362 26.1768 22.6634 26.1522C22.7119 26.0785 22.7362 26.0294 22.7846 26.0048C22.8089 25.9802 22.9058 26.054 22.9058 26.0785C22.9058 26.1031 22.8816 26.1768 22.8331 26.2014ZM23.2209 24.8255C23.2209 24.8009 23.2694 24.7272 23.2936 24.7026C23.5602 24.6043 23.8511 24.506 24.1177 24.4323C24.1661 24.4078 24.2873 24.506 24.2873 24.5306C24.2873 24.5797 24.2631 24.6289 24.2388 24.6535C24.2631 24.6535 24.2873 24.678 24.3116 24.678C24.3358 24.7026 24.3116 24.7272 24.3116 24.7763C24.2631 24.7763 24.2388 24.7763 24.1904 24.7517C24.1904 24.7517 24.1904 24.7272 24.1904 24.7026C24.1904 24.7026 24.1904 24.7026 24.1661 24.7026C24.045 24.7517 23.8995 24.7763 23.7056 24.8255C23.6329 24.85 23.4875 24.8746 23.3421 24.8992C23.3178 24.9237 23.2451 24.8746 23.2209 24.8255ZM23.2209 24.0638C23.2694 23.9409 23.3178 23.8181 23.3906 23.7198C23.4148 23.6707 23.536 23.7198 23.6329 23.7198C23.6329 23.8181 23.6087 23.9164 23.6087 24.0638C23.4633 24.0638 23.3421 24.0638 23.2209 24.0638ZM24.2146 26.4716C24.1419 26.5945 24.0207 26.7419 23.8268 26.6682C23.8026 26.6436 23.7541 26.6436 23.7299 26.6191C23.6329 26.5945 23.439 26.6191 23.439 26.5945C23.3906 26.4716 23.3906 26.2997 23.3906 26.1522C23.3906 26.1031 23.439 26.0785 23.4633 26.054C23.4875 26.0294 23.6087 26.0294 23.7056 26.0294C23.8995 25.6608 24.2631 25.5871 24.6266 25.4888C24.8205 25.4397 24.8448 25.5871 24.869 25.7345C24.8932 25.882 24.8932 25.9802 24.7236 26.0294C24.5782 26.0785 24.4085 26.1031 24.2631 26.1522C24.2631 26.1522 24.2631 26.1522 24.2631 26.1277C24.2388 26.1277 24.1904 26.1522 24.1661 26.1522C24.2146 26.2751 24.2631 26.3979 24.2146 26.4716ZM25.0871 28.683C25.0387 28.6584 25.0144 28.511 25.0387 28.4864C25.1356 28.339 25.0144 28.2407 24.9902 28.1178C24.9417 27.9704 24.8205 27.995 24.6751 27.995C24.5297 27.9704 24.3843 27.8476 24.2873 27.7247C24.2631 27.6756 24.3843 27.5036 24.457 27.3562C24.5782 27.3562 24.6751 27.3562 24.7721 27.3807C24.8932 27.4053 25.0629 27.3807 25.1356 27.4545C25.2083 27.5282 25.1114 27.7247 25.1599 27.823C25.2326 27.9704 25.3295 28.1424 25.5476 28.0687C25.5961 28.0441 25.6931 28.1178 25.7415 28.167C25.7658 28.1916 25.7415 28.3144 25.7173 28.339C25.5961 28.4618 25.4507 28.5847 25.281 28.7075C25.2568 28.7321 25.1356 28.7321 25.0871 28.683ZM24.9417 25.538C24.9902 25.538 25.0144 25.538 25.0871 25.538C25.0871 25.6117 25.1114 25.6608 25.0871 25.6854C25.0629 25.71 24.9902 25.71 24.966 25.6854C24.966 25.6363 24.966 25.5871 24.9417 25.538ZM25.9354 31.2874C25.8385 31.2628 25.7658 31.2628 25.7415 31.2137C25.7173 31.1645 25.7415 31.0663 25.7658 31.0417C25.79 31.0171 25.9112 31.0417 25.9354 31.0663C25.9597 31.1154 25.9354 31.1891 25.9354 31.2874ZM26.0809 31.0417C26.0324 30.9925 25.9839 30.968 25.9354 30.9434C25.9597 30.9188 25.9839 30.8451 26.0082 30.8451C26.0566 30.8451 26.1051 30.8697 26.1536 30.8943C26.1293 30.9434 26.1293 30.9925 26.0809 31.0417ZM26.0566 27.4299C25.8627 27.2333 25.6688 27.0368 25.4992 26.8156C25.378 26.6682 25.4992 26.5454 25.5719 26.4471C25.6688 26.3242 25.7658 26.3488 25.887 26.4225C25.9112 26.4471 25.9597 26.4716 25.9839 26.4716C26.3232 26.3979 26.3717 26.4962 26.202 26.7911C26.1778 26.8402 26.2748 26.9876 26.3232 27.0613C26.4202 27.1842 26.4202 27.307 26.2263 27.4299C26.2263 27.4299 26.1051 27.479 26.0566 27.4299ZM26.4202 29.5921C26.3959 29.6166 26.299 29.5921 26.2748 29.5675C26.2505 29.5183 26.2748 29.4446 26.2748 29.3464C26.3717 29.3955 26.4687 29.3955 26.4687 29.4201C26.4929 29.4692 26.4444 29.5429 26.4202 29.5921ZM27.9471 31.4348C27.8017 31.5331 27.7532 31.4102 27.6805 31.312C27.632 31.2137 27.5593 31.14 27.4866 31.0663C27.2927 30.8451 27.2927 30.8206 27.5351 30.624C27.5593 30.5994 27.6078 30.5749 27.6563 30.5503C27.7775 30.5011 27.8744 30.5994 27.8259 30.6731C27.729 30.8943 27.8259 30.9925 27.9471 31.14C28.0198 31.2382 28.0925 31.3611 27.9471 31.4348ZM28.3591 30.28C28.3591 30.3292 28.3107 30.3783 28.3107 30.4274C28.2622 30.4029 28.2137 30.3783 28.1895 30.3537C28.141 30.3046 28.1168 30.2554 28.1168 30.2063C28.0925 30.1326 28.0925 30.0589 28.1168 29.9852C28.1168 29.9606 28.238 29.936 28.2622 29.936C28.3107 29.9606 28.3591 30.0343 28.3834 30.0589C28.3591 30.1572 28.3591 30.2309 28.3591 30.28ZM27.1473 25.022C27.22 24.8992 27.3897 24.85 27.5351 24.8009C27.5593 24.8009 27.6563 24.8992 27.6563 24.9729C27.729 25.1694 27.7532 25.3906 27.8259 25.6117C27.9229 25.6117 28.0441 25.538 28.0925 25.71C28.0925 25.7345 28.0683 25.8083 28.0198 25.8083C27.8502 25.8574 27.8502 25.71 27.8017 25.6117C27.6805 25.6363 27.5593 25.6854 27.4866 25.5134C27.4624 25.4643 27.3654 25.4151 27.2927 25.3906C27.0988 25.3169 27.0988 25.1203 27.1473 25.022ZM27.0746 26.8402C27.1231 26.7911 27.2685 26.7665 27.3169 26.8156C27.4624 26.8893 27.5593 27.0368 27.7532 27.0368C27.7047 27.0122 27.6563 26.9876 27.632 26.9385C27.632 26.9385 27.6805 26.8402 27.7047 26.8402C27.7532 26.8402 27.8017 26.8648 27.8259 26.8893C27.8017 26.9139 27.8017 26.9631 27.7775 27.0122C27.8017 27.0122 27.8259 27.0122 27.8502 27.0122C27.8986 27.0122 27.9713 27.1105 28.0441 27.1842C28.0683 27.2333 28.1168 27.3562 28.0925 27.3807C27.9713 27.5527 28.0925 27.6756 28.1652 27.7984C28.1895 27.8476 28.238 27.8967 28.238 27.9213C28.1652 28.167 28.2622 28.339 28.3834 28.5355C28.4076 28.5601 28.3591 28.6338 28.3349 28.683C28.3107 28.7075 28.238 28.7075 28.2137 28.683C28.141 28.6092 28.0683 28.5355 27.9713 28.4618C27.9229 28.4373 27.8502 28.4373 27.7775 28.4618C27.7532 28.4864 27.7532 28.5601 27.7775 28.6092C27.8017 28.6584 27.8502 28.7075 27.8744 28.7567C27.9956 28.9041 27.9713 29.0269 27.8259 29.1498C27.729 29.1989 27.6078 29.2972 27.5351 29.2726C27.3897 29.1989 27.2927 29.0761 27.3169 28.8795C27.3412 28.6338 27.3654 28.3635 27.4139 28.1178C27.4381 28.0196 27.5351 27.9213 27.6078 27.823C27.632 27.7739 27.6563 27.7002 27.632 27.651C27.632 27.6264 27.5351 27.6019 27.4866 27.6019C27.2927 27.5773 26.9049 27.2825 26.9049 27.0859C26.9049 27.0122 27.0019 26.9139 27.0746 26.8402ZM26.9049 26.3488C26.9292 26.3734 26.9049 26.4716 26.8807 26.4962C26.8322 26.5208 26.7353 26.5208 26.711 26.4962C26.6868 26.4716 26.711 26.3734 26.6868 26.2751C26.808 26.2997 26.8807 26.2997 26.9049 26.3488ZM25.79 20.452C25.7658 20.4765 25.6931 20.4274 25.6204 20.3783C25.6688 20.3046 25.7173 20.2554 25.7658 20.2308C25.79 20.2063 25.8385 20.28 25.887 20.3046C25.8627 20.3537 25.8385 20.4028 25.79 20.452ZM26.0324 20.1817C25.9839 20.1326 25.9839 20.0097 26.0082 19.936C26.0566 19.7149 26.0324 19.6903 25.79 19.6657C25.7415 19.6657 25.6931 19.6412 25.6446 19.6412C25.6688 19.592 25.6688 19.5183 25.6931 19.4937C25.8627 19.2726 25.9597 19.2726 26.1536 19.4937C26.2505 19.6166 26.3717 19.7394 26.4687 19.8623C26.6141 20.0343 26.7837 20.2063 26.9049 20.4028C27.0019 20.5257 26.8564 20.8451 26.711 20.8942C26.6625 20.8942 26.5656 20.8697 26.5414 20.8205C26.3717 20.5994 26.202 20.4028 26.0324 20.1817ZM26.6383 22.6633C26.6625 22.6633 26.7353 22.7124 26.7353 22.737C26.7353 22.7861 26.711 22.8353 26.6625 22.8598C26.6383 22.8844 26.5656 22.8598 26.4929 22.8598C26.5656 22.737 26.5898 22.6879 26.6383 22.6633ZM26.1778 23.9164C26.2505 23.8672 26.3475 23.8426 26.3959 23.8181C26.4929 23.7935 26.5656 23.7689 26.6383 23.7935C26.711 23.8181 26.808 23.8426 26.808 23.8918C26.8322 23.9409 26.7837 24.0392 26.7353 24.0883C26.6625 24.1866 26.3232 24.2358 26.202 24.1866C26.1293 24.1621 26.0809 24.1129 26.0082 24.0883C26.0566 24.0146 26.1051 23.9655 26.1778 23.9164ZM25.0387 22.737C25.281 22.6633 25.3295 22.6879 25.378 22.909C25.4507 23.1547 25.4265 23.2038 25.2083 23.253C24.9902 23.3021 24.9417 23.2775 24.869 23.0564C24.7963 22.8598 24.8205 22.8107 25.0387 22.737ZM24.8205 23.9655C24.869 23.9409 24.9175 23.9164 24.966 23.8918V23.9164C25.2083 23.8672 25.4265 23.8181 25.6688 23.7935C25.7173 23.7935 25.79 23.8181 25.8627 23.8426C25.8385 23.8918 25.8143 23.9655 25.7658 23.9901C25.6446 24.0638 25.5476 24.1375 25.4749 24.2603C25.6688 24.2358 25.7415 24.3095 25.6688 24.5306C25.5961 24.7763 25.5961 24.7763 25.8385 24.7763C25.9839 24.7763 26.2505 24.9974 26.2748 25.1203C26.2748 25.1449 26.2748 25.194 26.2505 25.2186C26.2748 25.2431 26.2748 25.2923 26.299 25.3414C26.3475 25.5871 26.3475 25.6363 26.1051 25.71C25.9112 25.7591 25.7415 25.8083 25.5476 25.8328C25.4022 25.8574 25.3053 25.8083 25.281 25.6608C25.2326 25.5134 25.3053 25.4397 25.4507 25.3906C25.4749 25.3906 25.4992 25.366 25.5234 25.366C25.4022 25.3414 25.3053 25.194 25.2083 25.0712C24.966 24.9483 25.0871 24.7272 25.1114 24.506C25.0387 24.4815 24.966 24.4569 24.9417 24.4078C24.9175 24.3832 24.8932 24.334 24.869 24.3095C24.5297 24.1129 24.5297 24.1129 24.8205 23.9655ZM24.5055 25.4643C24.457 25.4397 24.4085 25.4397 24.36 25.4151C24.3358 25.3906 24.3358 25.3169 24.36 25.2923C24.4085 25.2677 24.457 25.2923 24.5297 25.2923C24.5297 25.366 24.5055 25.4151 24.5055 25.4643ZM23.8268 20.624C24.1661 20.5503 24.2631 20.5994 24.2873 20.8205C24.2873 21.0417 24.2631 21.0662 24.045 20.9925C23.9965 20.9679 23.948 20.9679 23.9238 20.9679C23.8026 20.9679 23.7056 20.9188 23.7299 20.796C23.7056 20.7222 23.8026 20.6485 23.8268 20.624ZM23.9722 22.7616C24.0934 22.9336 24.2388 23.081 24.36 23.253C24.4085 23.3267 24.5539 23.425 24.4085 23.5478C24.36 23.5724 24.2146 23.4987 24.1661 23.425C24.1177 23.3512 24.045 23.3021 23.9965 23.2284V23.253C24.045 23.4987 24.0207 23.5478 23.7299 23.6215C23.536 23.6707 23.3906 23.5232 23.3663 23.2775C23.3421 23.1055 23.4148 23.0318 23.6572 22.9827C23.7056 22.9827 23.7541 22.9581 23.7783 22.9581C23.7056 22.8844 23.6329 22.7861 23.5602 22.7124C23.4633 22.737 23.3421 22.8107 23.2936 22.7861C23.1967 22.7124 23.1239 22.565 23.0755 22.4422C23.0512 22.3193 23.0512 22.1964 23.0755 22.0736C23.0755 22.0245 23.1724 21.9507 23.2209 21.9507C23.3663 21.9507 23.5602 22.2456 23.4875 22.393C23.4148 22.5404 23.4875 22.6141 23.536 22.7124C23.7299 22.5896 23.8511 22.5896 23.9722 22.7616ZM22.9543 19.7394C23.0028 19.7394 23.0512 19.7886 23.0997 19.8131C23.0755 19.8623 23.0512 19.9114 23.0028 19.936C22.9543 19.9606 22.9058 19.9114 22.8331 19.8869C22.9058 19.8132 22.9301 19.7394 22.9543 19.7394ZM22.6877 21.3119C22.9058 21.4348 23.027 21.2874 23.1724 21.1645C23.2694 21.0908 23.3663 21.0417 23.4875 20.9925C23.5117 20.9679 23.5845 20.9925 23.6087 21.0171C23.6329 21.0417 23.6329 21.1154 23.6087 21.1399C23.439 21.4348 23.1482 21.5576 22.8816 21.7296C22.8331 21.7542 22.7362 21.6805 22.6877 21.6559C22.615 21.5576 22.5907 21.5085 22.5665 21.4593C22.518 21.3611 22.5907 21.2628 22.6877 21.3119ZM22.1787 23.5969C22.1787 23.6215 22.1545 23.6215 22.1302 23.6461C22.009 23.7689 21.8636 23.8672 22.009 24.0883C22.1545 24.2849 22.2514 24.5306 22.5423 24.4815C22.615 24.4815 22.7119 24.506 22.7846 24.5798C22.9301 24.7272 23.0755 24.8746 23.1967 25.022C23.2694 25.0957 23.3421 25.2677 23.3178 25.3169C23.2451 25.4397 23.0755 25.5871 23.0028 25.5626C22.7846 25.4888 22.4938 25.6117 22.3241 25.366C22.2999 25.2923 22.2757 25.2186 22.2514 25.1203C22.2272 25.1203 22.1787 25.1203 22.1545 25.0957C22.1787 25.0712 22.2029 25.0466 22.2272 25.022C22.2029 24.85 22.1302 24.7517 21.9606 24.7272C21.694 24.678 21.5728 24.4815 21.5243 24.2112C21.5001 24.2112 21.4516 24.2112 21.4274 24.2112C21.3789 24.2112 21.3062 24.0883 21.2819 24.0638C21.2819 23.9409 21.2577 23.8918 21.2577 23.8181C21.2577 23.7935 21.3304 23.7198 21.3546 23.7444C21.3304 23.6707 21.3304 23.6215 21.4031 23.5478C21.5243 23.4495 21.5728 23.3021 21.7909 23.3512C21.8636 23.3758 21.9606 23.3512 22.0575 23.3512C22.106 23.3512 22.1787 23.4004 22.2272 23.4495C22.2272 23.4741 22.2029 23.5478 22.1787 23.5969ZM21.8152 20.4274C21.8394 20.3783 21.9363 20.4028 22.0575 20.4028C22.0333 20.5257 22.0575 20.624 22.009 20.6485C21.9606 20.6731 21.8394 20.6731 21.8152 20.624C21.7909 20.5748 21.7909 20.4765 21.8152 20.4274ZM21.2335 19.5429C21.2577 19.5674 21.2577 19.6412 21.2577 19.6903C21.2092 19.6903 21.1365 19.7149 21.088 19.6903C21.0638 19.6903 21.0638 19.592 21.0638 19.5183C21.1365 19.5429 21.2092 19.5183 21.2335 19.5429ZM20.264 22.1964C20.4336 21.9999 20.5548 21.9753 20.773 22.1227C20.9184 21.9999 21.0638 21.9016 21.185 21.7542C21.2092 21.7296 21.2335 21.705 21.2577 21.6805C21.2577 21.6559 21.2577 21.6313 21.2335 21.6068C21.2092 21.5085 21.1365 21.3611 21.3062 21.3365C21.3789 21.3365 21.4516 21.4593 21.5728 21.5331C21.5485 21.5822 21.5243 21.6559 21.5001 21.705C21.5243 21.7296 21.5243 21.7542 21.5485 21.7788C21.6697 21.6559 21.8152 21.6068 21.9121 21.7788C21.9606 21.8525 21.9848 21.9507 22.009 22.049C21.9121 22.0245 21.8152 21.9999 21.7424 21.9507C21.6697 21.9016 21.597 21.8279 21.5485 21.7788C21.4031 21.9016 21.2335 22.0245 21.1123 22.1473C20.9669 22.2702 20.8457 22.2456 20.7487 22.1227C20.6275 22.221 20.5306 22.3193 20.4094 22.393C20.3609 22.4176 20.264 22.393 20.1913 22.393C20.2155 22.3193 20.2155 22.2456 20.264 22.1964ZM19.4157 21.3365C19.4399 21.1891 19.5853 21.1645 19.7308 21.2628L19.755 21.2874C19.852 21.3365 20.0458 21.1645 20.0701 21.3611C20.0943 21.4839 19.9489 21.6313 19.9004 21.7296C19.7792 21.7788 19.7065 21.8279 19.6096 21.877C19.5611 21.9016 19.4642 21.877 19.4642 21.877C19.4399 21.705 19.3915 21.5085 19.4157 21.3365ZM19.343 23.3512C19.4157 23.3758 19.4884 23.3758 19.5126 23.4004C19.6096 23.4987 19.6823 23.5969 19.755 23.6952C19.8035 23.7444 19.8762 23.7935 19.9247 23.8672C20.0216 23.9901 20.2397 23.6952 20.2397 23.9655C20.2397 24.0883 20.1913 24.2112 20.264 24.334C20.2882 24.3586 20.264 24.4323 20.2397 24.4569C20.0943 24.6043 19.9247 24.7517 19.7792 24.8746C19.7308 24.8992 19.6581 24.8992 19.5853 24.9237C19.5853 24.8992 19.5611 24.8746 19.5611 24.8255C19.5853 24.7517 19.6096 24.678 19.6581 24.6289C19.9247 24.3095 19.9247 24.3095 19.6823 23.9901C19.5611 23.8426 19.4399 23.6952 19.343 23.5478C19.3187 23.5232 19.343 23.425 19.343 23.3512Z" fill="#171026"/>
<path d="M29.0378 25.4889C29.062 25.4889 29.1105 25.4889 29.159 25.4889V24.1866C29.0378 24.2604 28.9166 24.4815 28.8923 24.6043C28.8681 24.8255 28.9651 25.0712 28.8439 25.2923C28.7712 25.4152 28.8681 25.5134 29.0378 25.4889Z" fill="#171026"/>
<path d="M19.0279 26.2751C18.931 26.2505 18.834 26.2014 18.7855 26.1031H18.7613V28.855C18.8098 28.9287 18.8825 28.9778 18.9309 29.0515C19.1491 29.2727 19.0764 29.5429 18.7855 29.6166H18.7613V31.5085H19.852C19.852 31.3365 19.9247 31.1891 19.8762 30.9926C19.8277 30.8697 20.2155 30.7223 20.3609 30.8206C20.4821 30.9189 20.6518 31.0171 20.7003 31.1646C20.7487 31.2628 20.773 31.3857 20.7972 31.484H23.5602C23.5117 31.4594 23.4633 31.4348 23.4148 31.4348C23.1724 31.3611 23.0512 31.2137 23.0755 30.9434C23.0997 30.7714 23.0028 30.5994 23.0755 30.4029C23.124 30.3046 22.8331 30.0589 22.7119 30.0835C22.5665 30.108 22.4938 30.0343 22.4211 29.9606C22.2757 29.8132 22.1545 29.6412 22.009 29.4692C21.8636 29.2972 21.7182 29.1498 21.5001 29.1498C21.3789 29.1498 21.3304 29.1007 21.3062 28.9533C21.2819 28.8058 21.2819 28.6338 21.185 28.5356C20.9669 28.339 20.8214 28.0442 20.4579 27.9704C20.2397 27.9213 19.9974 27.6756 19.9974 27.3316C19.9974 27.0368 19.852 26.8894 19.5611 26.8648C19.3672 26.8402 19.1976 26.6682 19.2218 26.4717C19.246 26.3242 19.1976 26.2997 19.0279 26.2751ZM22.3241 31.1891C22.3726 31.1891 22.3968 31.2383 22.4453 31.2628C22.4211 31.312 22.3968 31.3611 22.3484 31.4103C22.3241 31.4103 22.2757 31.3611 22.2029 31.312C22.2514 31.2383 22.2757 31.1891 22.3241 31.1891ZM19.9489 28.9778C20.0943 29.1498 20.0701 29.2481 19.8762 29.4201C19.7065 29.5675 19.6338 29.4447 19.5369 29.3218C19.4642 29.2235 19.3187 29.1252 19.4884 28.9778C19.6823 28.8304 19.8277 28.8304 19.9489 28.9778ZM19.4642 28.3881C19.4884 28.4373 19.4884 28.511 19.4884 28.5601C19.4399 28.5601 19.3672 28.5601 19.3187 28.5356C19.2945 28.511 19.2945 28.4373 19.2945 28.2653C19.3672 28.339 19.4399 28.3636 19.4642 28.3881ZM19.3187 29.9115C19.3915 29.8869 19.5369 29.8132 19.5611 29.8623C19.6581 29.9606 19.7308 30.108 19.7792 30.2555C19.8035 30.3537 19.8035 30.4766 19.8035 30.5749C19.8035 30.6486 19.7792 30.7223 19.755 30.7714C19.5853 30.8943 19.4399 31.0171 19.246 31.0663C19.1491 31.0909 19.0037 30.968 18.9309 30.8697C18.9067 30.8451 18.9309 30.6977 18.9794 30.6486C19.1006 30.5012 19.2703 30.4029 19.1733 30.1818C19.1248 30.108 19.246 30.0098 19.3187 29.9115Z" fill="#171026"/>
<path d="M28.5278 8.53564C28.5521 8.63392 28.6248 8.68306 28.7702 8.68306C28.9883 8.65849 29.1822 8.85505 29.158 9.05161C29.1338 9.37103 29.2549 9.49388 29.57 9.56759C29.5943 9.56759 29.6185 9.56759 29.6427 9.59216C29.6185 9.44474 29.6912 9.37103 29.8609 9.34646C30.0548 9.29731 30.2487 9.24817 30.4426 9.19903C30.4426 9.19903 30.4426 9.19903 30.4426 9.2236C30.6364 9.17446 30.8303 9.12532 31 9.07618V8.33908H28.4551C28.4794 8.38822 28.5036 8.46193 28.5278 8.53564Z" fill="#171026"/>
<path d="M4.02424 8.28995V12.3686H4.04847C4.26661 12.3194 4.31508 12.344 4.36355 12.5406C4.43627 12.7863 4.38779 12.86 4.16966 12.9091C4.09695 12.9337 4.04847 12.9337 4 12.9337V13.3022C4.07271 13.3022 4.14542 13.3022 4.16966 13.3514C4.29084 13.4497 4.38779 13.5479 4.53321 13.4742C4.70287 13.376 4.89677 13.3022 4.99372 13.1548C5.16338 12.9337 5.16338 12.9091 5.38151 13.1303C5.42998 13.1794 5.52693 13.1794 5.59964 13.1794C5.74506 13.1548 5.89049 13.1057 6.01167 13.0811C6.20557 13.032 6.39946 13.0565 6.47217 12.7863C6.49641 12.7371 6.56912 12.6634 6.64183 12.6389C7.05386 12.516 7.46589 12.4177 7.87792 12.3194C7.92639 12.2949 8.28995 12.516 8.31419 12.5897C8.31419 12.6143 8.31419 12.688 8.28995 12.7126C8.193 12.7863 8.09605 12.86 7.9991 12.8846C7.32047 13.0565 6.6176 13.2531 5.91472 13.4005C5.50269 13.4988 5.06643 13.5725 4.63016 13.6708C4.4605 13.7199 4.24237 13.7936 4.02424 13.8428V14.5308C4.04847 14.5062 4.07271 14.4816 4.07271 14.4816C4.12118 14.4816 4.1939 14.5062 4.1939 14.5553C4.1939 14.6045 4.16966 14.6536 4.12118 14.7519C4.07271 14.7027 4.02424 14.6782 4 14.6536V15.7101H5.42998C5.45422 15.6364 5.50269 15.5873 5.59964 15.5627C5.67235 15.5381 5.74506 15.5136 5.81777 15.489C5.84201 15.489 5.89049 15.4644 5.91472 15.4644C6.15709 15.4153 6.18133 15.4153 6.25404 15.661C6.25404 15.6855 6.25404 15.7101 6.27828 15.7347H6.54488C6.54488 15.7101 6.52065 15.6855 6.52065 15.661C6.47217 15.4153 6.49641 15.3661 6.71454 15.317C6.95691 15.2679 7.02962 15.317 7.10234 15.5627C7.12657 15.6364 7.12657 15.7101 7.0781 15.7347H12.1679C12.1921 15.6855 12.2406 15.661 12.2891 15.6364C12.4587 15.5873 12.6284 15.5381 12.7738 15.5136C12.7738 15.5136 12.7738 15.5136 12.7738 15.5381C12.9677 15.489 13.1373 15.4398 13.3312 15.3907C13.3797 15.3907 13.4524 15.4398 13.5251 15.4644C13.4767 15.5136 13.4524 15.6118 13.404 15.6364C13.307 15.6855 13.1858 15.7101 13.0646 15.7593H13.9614C13.8887 15.661 13.816 15.5627 13.7917 15.4398C13.7433 15.3416 13.816 15.2679 13.9372 15.2679C14.0584 15.2433 14.1068 15.317 14.1068 15.4153C14.1068 15.5381 14.0826 15.6364 14.0826 15.7593C14.0826 15.7593 14.0826 15.7593 14.0584 15.7593H16.2639V12.0246H17.6697C17.7909 11.9018 17.8878 11.9018 18.009 12.0246H18.7361V13.2531C18.7846 13.2777 18.8573 13.2777 18.9058 13.3022C19.1239 13.376 19.3178 13.5234 19.5117 13.6462C19.4874 13.6708 19.4632 13.6954 19.4632 13.6954C19.8025 13.8674 19.6086 14.1868 19.6571 14.457C19.6571 14.4816 19.5359 14.5799 19.4874 14.5799C19.3905 14.5799 19.2935 14.457 19.2451 14.3588C19.1481 14.3342 19.0512 14.2359 19.0269 14.0639C19.0027 13.9902 19.0269 13.9411 19.0269 13.9165C18.9785 13.9165 18.93 13.9165 18.9058 13.9165C18.8573 13.8674 18.8088 13.7936 18.7603 13.7445V15.7101H20.6266C20.6993 15.6364 20.772 15.5873 20.8447 15.5381C20.8447 15.5381 20.9901 15.661 20.9659 15.6855V15.7101H25.5467C25.5709 15.661 25.6194 15.6364 25.6679 15.5873C25.6921 15.5627 25.7406 15.5136 25.8133 15.489C25.8618 15.489 25.9102 15.489 25.9587 15.5381C25.9345 15.489 25.983 15.4398 25.983 15.3661C26.0557 15.4398 26.1041 15.4644 26.1041 15.489C26.1041 15.5381 26.0799 15.5873 26.0557 15.6364C26.0314 15.6118 25.983 15.6118 25.9587 15.5873C25.983 15.6364 25.983 15.6855 25.9587 15.7101H27.6795C27.6795 15.6855 27.6553 15.6855 27.6553 15.6364C27.6311 15.4398 27.825 15.4644 27.9462 15.4398C28.0673 15.3907 28.1643 15.4398 28.1643 15.5627C28.1643 15.6118 28.1158 15.661 28.0673 15.7101H31V11.7543L30.9758 11.7789C30.8788 11.8526 30.7092 11.9509 30.6365 11.9263C30.5395 11.8772 30.3941 11.6561 30.4183 11.5823C30.4668 11.4103 30.4183 11.2875 30.3214 11.1892C30.2971 11.2384 30.2729 11.2629 30.2487 11.2875C30.176 11.3366 30.1032 11.3366 30.0305 11.3612C29.9821 11.3858 29.8851 11.4349 29.8609 11.4595C29.8366 11.6806 29.6427 11.7052 29.5216 11.7789C29.4004 11.8526 29.2549 12.0737 29.2065 12.0492C29.0611 11.9755 28.9156 11.9509 28.746 11.9755C28.5763 12 28.3824 12.0492 28.2128 12.0737C28.14 12.0737 28.0189 12.0983 27.9946 12.0737C27.8492 11.8526 27.6795 11.9755 27.5099 11.9755C27.4372 11.9755 27.316 11.9509 27.2918 11.9018C27.2433 11.7543 27.3645 11.7298 27.4614 11.7052C27.6311 11.6561 27.8007 11.6315 27.8007 11.4103C27.8007 11.3858 27.8734 11.3366 27.9219 11.3121C28.1885 11.2384 28.4551 11.1892 28.7217 11.1155C28.6733 11.1155 28.6248 11.1401 28.5763 11.1401C28.5036 11.1401 28.4309 11.1155 28.3582 11.0909C28.3824 11.0172 28.4067 10.9435 28.4309 10.8698C28.4551 10.8207 28.5036 10.7715 28.5278 10.747C28.6975 10.5995 28.7944 10.6487 28.8914 10.9189C28.9156 10.9927 28.9399 11.0418 28.9399 11.0664C28.9641 11.0664 28.9883 11.0664 28.9883 11.0909C29.2065 11.3612 29.4731 11.1646 29.6912 11.1401C29.8609 11.0909 30.0063 11.0418 30.1517 11.0418C30.0548 10.9189 29.9578 10.7715 29.7397 10.8452C29.6427 10.8698 29.5943 10.7961 29.6427 10.6978C29.7155 10.575 29.7882 10.4767 29.8366 10.403C29.9336 10.3293 29.9821 10.3047 30.0305 10.2801C30.1517 10.231 30.2729 10.2801 30.2244 10.403C30.1032 10.6978 30.3214 10.8452 30.4668 11.0172C30.588 11.1892 30.7576 11.3121 30.9031 11.4841C30.9273 11.5086 30.9515 11.5332 30.9758 11.5578V9.56759C30.8304 9.69044 30.6365 9.78872 30.5395 9.96071C30.5153 9.98528 30.3941 10.0099 30.3699 9.98528C30.2487 9.81329 30.079 9.887 29.9336 9.91157C29.8124 9.93614 29.7397 9.93614 29.6912 9.887C29.6912 10.0099 29.6912 10.1573 29.6185 10.231C29.57 10.3047 29.3519 10.231 29.2065 10.231C29.1095 10.231 29.0368 10.1818 29.0368 10.1081C29.0126 10.1327 28.9399 10.1573 28.8672 10.1818C28.6006 10.2556 28.3339 10.3293 28.0916 10.3784C27.8007 10.4521 27.5099 10.5258 27.1948 10.5995C27.0494 10.6241 26.9524 10.5995 26.904 10.4521C26.8313 10.2064 26.8555 10.1327 27.0979 10.0836C27.2918 10.0344 27.5099 9.86243 27.7038 10.1327C27.7765 10.2064 27.8977 10.1573 27.8977 10.059C27.8977 9.86243 28.0431 9.83786 28.1643 9.81329C28.3582 9.76415 28.5278 9.71501 28.7217 9.66587C28.7944 9.6413 28.8672 9.6413 28.9156 9.66587C28.649 9.32189 28.3582 8.97791 28.0673 8.6585C27.9946 8.56022 27.9219 8.48651 27.8492 8.38823H26.1526C26.2253 8.24081 26.2738 8.11796 26.3465 7.97053C26.1769 8.19167 25.9587 8.36366 25.6679 8.4128C25.5709 8.4128 25.4497 8.43737 25.4255 8.31452C25.4013 8.1671 25.3043 8.01968 25.474 7.92139C25.5709 7.87225 25.6679 7.82311 25.7648 7.77397V7.79854C25.9345 7.77397 26.1041 7.72483 26.2738 7.70026C26.3465 7.70026 26.4192 7.72483 26.4435 7.77397C26.4919 7.60198 26.5404 7.45456 26.5889 7.28257C26.5162 7.30714 26.4677 7.30714 26.395 7.33171C26.1284 7.38085 26.0557 7.33171 26.0314 7.08601C26.0072 6.93859 26.0557 6.86488 26.1769 6.84031C26.3465 6.79117 26.5162 6.7666 26.6616 6.71746H26.6858C26.8555 5.41524 26.5162 4.16217 25.6436 3.27765C25.0135 2.39312 24.044 2 22.9533 2C21.5718 2 20.1661 2.63882 19.0754 3.74448C18.0575 4.77642 17.6697 6.44719 17.5242 7.87225C17.3788 6.44719 16.991 4.77642 15.9731 3.74448C14.8582 2.63882 13.4524 2 12.0709 2C10.9803 2 10.0108 2.39312 9.3079 3.10565C8.45961 3.96561 8.07182 5.19411 8.24147 6.5209C8.31419 7.11058 8.48384 7.70026 8.77469 8.24081C8.82316 8.19167 8.8474 8.14253 8.89587 8.09339C8.99282 8.14253 9.08977 8.19167 9.11401 8.24081C9.16248 8.36366 9.08977 8.46194 8.96858 8.46194C8.8474 8.46194 8.75045 8.4128 8.62927 8.38823C8.6535 8.36366 8.67774 8.33909 8.70198 8.28995H4.02424ZM5.01795 12.7126C4.89677 12.7126 4.75135 12.8354 4.70287 12.6389C4.70287 12.5897 4.82406 12.4914 4.92101 12.3932C5.01795 12.4423 5.13914 12.4669 5.18761 12.5406C5.23609 12.6634 5.1149 12.688 5.01795 12.7126ZM5.64812 12.516C5.59964 12.5406 5.55117 12.4914 5.45422 12.4669C5.50269 12.3932 5.52693 12.3194 5.5754 12.2949C5.62388 12.2949 5.69659 12.344 5.72083 12.3686C5.72083 12.4177 5.67235 12.516 5.64812 12.516ZM7.02962 9.17447C6.90844 9.22361 6.81149 9.27275 6.69031 9.32189C6.6176 9.34646 6.49641 9.32189 6.47217 9.27275C6.39946 9.1499 6.52065 9.10076 6.6176 9.07619C6.64183 9.07619 6.66607 9.07619 6.69031 9.05162C6.85997 9.05162 6.98115 8.97791 6.95691 8.75678C6.95691 8.73221 7.02962 8.63393 7.05386 8.63393C7.10234 8.63393 7.17505 8.68307 7.19928 8.73221C7.29623 8.92877 7.19928 9.12533 7.02962 9.17447ZM7.85368 11.9263C7.78097 11.8772 7.7325 11.8035 7.68402 11.7789C7.68402 11.6806 7.65979 11.6069 7.65979 11.5578C7.65979 11.5332 7.70826 11.4841 7.7325 11.4841C7.75673 11.4841 7.80521 11.5086 7.80521 11.5086C7.82945 11.5578 7.85368 11.6069 7.85368 11.6561C7.87792 11.7543 7.85368 11.8526 7.85368 11.9263ZM4.79982 14.5308C4.70287 14.5553 4.58169 14.5799 4.55745 14.4325C4.55745 14.3833 4.6544 14.3096 4.75135 14.2113C4.84829 14.2851 4.96948 14.2851 4.99372 14.3342C5.04219 14.5062 4.89677 14.5062 4.79982 14.5308ZM5.52693 14.3342C5.47846 14.3342 5.42998 14.3096 5.33303 14.2605C5.40575 14.1868 5.42998 14.1131 5.47846 14.1131C5.52693 14.1131 5.5754 14.1622 5.59964 14.2113C5.62388 14.2359 5.55117 14.3342 5.52693 14.3342ZM30.6607 15.4153C30.7092 15.4153 30.7576 15.4398 30.8061 15.4644C30.7819 15.489 30.7576 15.5381 30.7334 15.5627C30.7092 15.5873 30.6607 15.5627 30.588 15.5381C30.6122 15.4644 30.6365 15.4153 30.6607 15.4153ZM30.1517 12.172C30.2244 12.1475 30.3214 12.2212 30.4426 12.2703C30.491 12.4914 30.588 12.7126 30.588 12.9091C30.588 13.0074 30.3941 13.1057 30.2487 13.1794C30.1275 13.2531 30.079 13.1303 30.0063 13.0565C29.8366 12.86 29.9336 12.6389 29.8851 12.4177C29.8851 12.3194 30.0548 12.1966 30.1517 12.172ZM29.9578 14.5799C29.9821 14.5799 30.0063 14.5308 30.0305 14.5308C30.1275 14.4816 30.2487 14.4079 30.3456 14.4325C30.491 14.4816 30.3214 14.629 30.3456 14.7027C30.4183 14.9239 30.3456 15.0959 30.2002 15.2433C30.079 15.3661 29.9821 15.3416 29.8851 15.2187C29.6427 14.973 29.667 14.8256 29.9578 14.5799ZM28.9883 14.0148C29.0126 14.0885 28.9399 14.1622 28.9156 14.2359C28.8429 14.1868 28.7702 14.1376 28.6733 14.0639C28.746 13.9656 28.7702 13.8674 28.8187 13.7936C28.8672 13.8674 28.9641 13.9411 28.9883 14.0148ZM28.4309 13.2777C28.4551 13.2285 28.5036 13.1794 28.5521 13.1303C28.6005 13.1057 28.649 13.0565 28.6975 13.0565C28.746 13.0565 28.8429 13.1057 28.8429 13.1057C28.8187 13.1794 28.8187 13.2777 28.7702 13.3022C28.6975 13.376 28.5763 13.4005 28.4794 13.4251C28.4551 13.376 28.4067 13.3022 28.4309 13.2777ZM27.3402 9.12533C27.3887 9.1499 27.4614 9.17447 27.4856 9.22361C27.5099 9.24818 27.4614 9.32189 27.4129 9.3956C27.3402 9.34646 27.2918 9.32189 27.2918 9.27275C27.2675 9.22361 27.316 9.17447 27.3402 9.12533ZM26.0072 5.68552C26.1284 5.63638 26.4192 5.88208 26.395 6.00493C26.3707 6.05407 26.298 6.15235 26.2738 6.15235C26.2011 6.15235 26.1284 6.10321 26.0799 6.07864C26.0072 5.98036 25.9587 5.93122 25.9587 5.85751C25.9102 5.80837 25.9587 5.71009 26.0072 5.68552ZM20.0691 14.8747C20.0449 14.8502 20.0691 14.7519 20.0691 14.6782C20.1418 14.6782 20.2146 14.7027 20.3115 14.7027C20.3357 14.8256 20.36 14.8993 20.36 14.9976C20.263 14.9484 20.1418 14.9239 20.0691 14.8747ZM20.8932 13.9902C20.772 14.0148 20.6266 14.0639 20.5054 14.0885V14.0639C20.4084 14.0885 20.3357 14.1131 20.2388 14.1376C19.9964 14.1868 19.9237 14.1376 19.8752 13.8674C19.851 13.7445 19.8752 13.6708 19.9964 13.6217C20.263 13.5479 20.5296 13.4988 20.7962 13.4251C20.9901 13.376 21.0144 13.5479 21.0386 13.6708C21.0628 13.8182 21.0628 13.9411 20.8932 13.9902ZM21.3052 9.3956C21.2567 9.42017 21.184 9.3956 21.0386 9.37103C21.1113 9.27275 21.1356 9.19904 21.184 9.19904C21.2325 9.17447 21.3052 9.22361 21.3537 9.24818C21.3537 9.29732 21.3537 9.3956 21.3052 9.3956ZM22.614 15.5136C22.5171 15.5627 22.3959 15.5873 22.2747 15.6118C22.3232 15.489 22.3474 15.3661 22.3959 15.1941C22.5171 15.2187 22.5898 15.2433 22.6383 15.2679C22.7352 15.3416 22.711 15.4644 22.614 15.5136ZM24.9892 14.8502C24.965 14.8256 24.9892 14.7027 24.9892 14.629C25.0862 14.6536 25.1589 14.6782 25.2801 14.7273C25.2801 14.8502 25.3043 14.9239 25.3043 15.0222C25.2074 14.973 25.0862 14.9239 24.9892 14.8502ZM26.9524 10.7961C26.9767 10.8207 26.9767 10.9435 26.9282 10.9681C26.8313 11.0418 26.7101 11.0909 26.6131 11.1646C26.6131 11.1646 26.5646 11.1401 26.5646 11.1155C26.6131 10.9927 26.6616 10.8944 26.7343 10.747C26.8312 10.7715 26.904 10.747 26.9524 10.7961ZM26.3465 10.231C26.4677 10.2064 26.6131 10.1081 26.6616 10.3293C26.7101 10.575 26.6616 10.6978 26.4192 10.747C26.2011 10.7961 26.1769 10.7715 26.1284 10.5504C26.0314 10.3293 26.0557 10.3047 26.3465 10.231ZM26.6131 11.7052C26.7101 11.828 26.807 11.9018 26.9524 11.8772C26.9767 11.8772 27.0251 11.9263 27.0494 11.9509C27.0494 12 27.0251 12.0737 27.0009 12.0983C26.8313 12.172 26.6858 12.2457 26.6374 12.4423C26.2011 12.5651 25.7406 12.688 25.3043 12.8108H25.2801C24.9408 12.4423 24.6257 12.7863 24.2864 12.8354C24.2379 12.8354 24.1652 12.8846 24.1409 12.9337C24.044 13.3022 23.7047 13.2285 23.4623 13.3022C23.4138 13.3268 23.3169 13.2777 23.2684 13.2285C23.1472 13.1057 23.0503 13.1303 23.0018 13.3022C22.9533 13.4742 22.8806 13.4742 22.7352 13.376C22.6382 13.3268 22.5413 13.3022 22.4444 13.3022C22.2262 13.3268 22.0323 13.4005 21.8142 13.4497C21.8384 13.5479 21.9111 13.6708 21.7415 13.7199C21.7172 13.7199 21.6203 13.6708 21.6203 13.6462C21.5718 13.4742 21.7172 13.4742 21.8142 13.4497C21.79 13.3514 21.7415 13.2285 21.8627 13.1548C21.9111 13.1303 21.9354 13.0565 21.9839 13.0074C22.0808 12.7863 22.3716 12.7126 22.5655 12.8354C22.6383 12.8846 22.7352 12.9337 22.7837 12.9091C23.0745 12.86 23.3896 12.7863 23.6804 12.688C23.8016 12.6634 23.947 12.6143 23.9713 12.4423C23.9955 12.3194 24.1167 12.2703 24.1894 12.3932C24.3106 12.5406 24.4318 12.4914 24.553 12.4669C24.7953 12.4177 25.062 12.344 25.3043 12.2949C25.4497 12.2457 25.5709 12.2212 25.6194 12.0246C25.6679 11.8772 26.5404 11.6069 26.6131 11.7052ZM22.2747 11.2629C22.4444 11.2384 22.614 11.5086 22.5898 11.6561C22.5898 11.6806 22.5655 11.7298 22.5413 11.7543C22.5413 11.8526 22.6383 12.0246 22.4686 12.0492C22.3716 12.0737 22.2505 11.9509 22.105 11.9018C21.8142 11.9755 21.7172 11.9263 21.6688 11.7052C21.6203 11.4841 21.6445 11.4595 21.9354 11.3612C22.0566 11.3366 22.1293 11.3121 22.1777 11.3366C22.1777 11.3121 22.202 11.2629 22.2747 11.2629ZM25.5467 10.6732C25.5709 10.8207 25.6194 10.9681 25.4013 11.0172C25.1831 11.0664 24.9892 11.1401 24.7711 11.1892C24.6499 11.2138 24.5287 11.2629 24.4076 11.0909C24.3348 10.9681 24.2379 11.0172 24.1894 11.1401C24.1652 11.2138 24.0925 11.2629 24.044 11.3366C23.9955 11.2384 23.9228 11.1646 23.8986 11.0664C23.8986 10.9927 23.947 10.8944 23.9955 10.8698C24.2137 10.7961 24.4318 10.7224 24.6499 10.6732C24.8438 10.6241 25.0377 10.575 25.2316 10.5258C25.4255 10.4521 25.5225 10.5013 25.5467 10.6732ZM24.8438 9.10076C24.8681 9.10076 24.8923 9.07619 24.9165 9.07619C24.9892 9.10076 25.1104 9.10076 25.1347 9.1499C25.2074 9.27275 25.062 9.32189 24.965 9.34646C24.9408 9.34646 24.9165 9.37103 24.8923 9.37103C24.7711 9.3956 24.6257 9.49388 24.5772 9.29732C24.5772 9.12533 24.7469 9.1499 24.8438 9.10076ZM25.4013 5.02212C25.474 5.04669 25.5225 5.04669 25.5467 5.04669C25.5467 5.09583 25.5467 5.14497 25.5225 5.19411C25.4982 5.21868 25.4013 5.19411 25.4013 5.19411C25.377 5.16954 25.377 5.09583 25.4013 5.02212ZM25.1831 6.96316C25.4255 6.91402 25.474 6.93859 25.5225 7.13515C25.5709 7.35628 25.5467 7.40542 25.3286 7.45456C25.1104 7.5037 25.0619 7.47913 25.0135 7.28257C24.9408 7.08601 24.965 7.03687 25.1831 6.96316ZM24.5287 8.36366C24.553 8.28995 24.5772 8.24081 24.5772 8.1671C24.6257 8.01968 24.8196 7.92139 25.0135 7.94597C25.1589 7.97054 25.1831 8.09339 25.1831 8.19167C25.1831 8.24081 25.1589 8.31452 25.1104 8.36366C24.8438 8.60936 24.5045 8.51108 24.2137 8.58479C24.1652 8.58479 24.1167 8.48651 24.044 8.4128C24.0925 8.31452 24.1167 8.21624 24.1652 8.1671C24.1894 8.14253 24.3106 8.21624 24.3833 8.24081C24.4318 8.28995 24.4803 8.33909 24.5287 8.36366ZM22.2989 4.67814C22.2989 4.65357 22.2747 4.57986 22.2747 4.50615C22.2747 4.48158 22.3474 4.40787 22.3474 4.40787C22.4928 4.48158 22.6625 4.53072 22.7837 4.629C22.8321 4.629 22.8806 4.629 22.9291 4.629C23.1957 4.629 23.5835 4.67814 23.8501 4.97298C24.4803 5.61181 24.1894 7.0123 23.2442 7.97053C22.7837 8.43737 21.5476 8.75678 20.0207 8.83049C20.0691 7.55284 20.3357 6.12778 20.8689 5.56266C21.281 5.14497 21.79 4.85013 22.2747 4.70271C22.3232 4.72728 22.3232 4.70271 22.2989 4.67814ZM19.9722 5.34153C20.0207 5.34153 20.0934 5.39067 20.1418 5.43981C20.0934 5.48895 20.0691 5.58723 20.0207 5.61181C19.9722 5.63638 19.8995 5.56266 19.7783 5.53809C19.8752 5.43981 19.9237 5.34153 19.9722 5.34153ZM19.4632 12.2703C19.5359 12.4914 19.5117 12.5406 19.2935 12.5897C19.0512 12.6634 19.0027 12.6389 18.9542 12.4177C18.9058 12.1966 18.93 12.1475 19.1239 12.0983C19.3663 12.0246 19.4147 12.0492 19.4632 12.2703ZM19.3178 7.79854C19.2693 7.79854 19.2208 7.79854 19.1724 7.77397C19.1481 7.77397 19.1481 7.67569 19.1724 7.65112C19.2208 7.62655 19.2693 7.62655 19.342 7.62655C19.342 7.72483 19.342 7.79854 19.3178 7.79854ZM19.1481 4.3833C19.1724 4.3833 19.2693 4.43244 19.2693 4.45701C19.2693 4.50615 19.2208 4.57986 19.1966 4.60443C19.1481 4.629 19.0996 4.55529 19.0027 4.50615C19.0754 4.45701 19.0996 4.40787 19.1481 4.3833ZM18.9058 10.9681C18.9785 10.9927 19.0269 10.9927 19.0754 11.0172C19.0996 11.0172 19.0754 11.1155 19.0512 11.1155C19.0027 11.1401 18.9542 11.1401 18.9058 11.1401C18.8815 11.0909 18.8815 11.0418 18.9058 10.9681ZM18.2514 9.66587C18.4937 9.61673 18.5422 9.6413 18.6149 9.887C18.6634 10.0836 18.6391 10.1327 18.421 10.1818C18.1786 10.231 18.1302 10.2064 18.0817 9.98528C18.009 9.76415 18.0332 9.71501 18.2514 9.66587ZM9.79264 13.8182C9.7684 13.7936 9.71993 13.7691 9.69569 13.7445C9.69569 13.7445 9.71993 13.6954 9.74417 13.6462C9.79264 13.6954 9.81688 13.7199 9.84112 13.7445C9.84112 13.7445 9.79264 13.7691 9.79264 13.8182ZM13.4524 14.0885C13.307 14.1131 13.2343 14.0148 13.1858 13.8182C13.1616 13.6462 13.2828 13.5971 13.404 13.5725C13.5736 13.5479 13.6221 13.5971 13.6706 13.8182C13.719 14.0148 13.5736 14.0394 13.4524 14.0885ZM14.0099 11.2875C13.9614 11.3121 13.9129 11.3366 13.8645 11.3612C13.7917 11.3612 13.719 11.3612 13.6463 11.3612C13.5979 11.3612 13.5251 11.3121 13.4767 11.2875C13.5009 11.2384 13.5494 11.2138 13.5736 11.1646C13.5979 11.1155 13.6463 11.0418 13.6706 10.9927C13.7433 10.7961 13.9129 10.7961 14.0584 10.7961C14.1068 10.7961 14.1795 10.9189 14.228 11.0172C14.228 11.1646 14.1068 11.2384 14.0099 11.2875ZM16.991 11.4349C17.0153 11.3858 17.088 11.3366 17.1122 11.3121C17.1607 11.2629 17.1849 11.2138 17.2334 11.2138C17.3061 11.2138 17.3788 11.2138 17.4515 11.2138C17.4515 11.2875 17.4758 11.3858 17.4273 11.4349C17.3546 11.5332 17.2576 11.5823 17.1607 11.6315C17.1122 11.6561 17.0153 11.6315 17.0153 11.6069C16.9668 11.5578 16.9668 11.4841 16.991 11.4349ZM15.9004 10.059C16.07 9.887 16.1427 9.86243 16.3851 10.0099C16.4578 10.059 16.5063 10.1081 16.5548 10.1573C16.6032 10.231 16.6759 10.3047 16.6759 10.3784C16.6759 10.4521 16.6517 10.5258 16.6032 10.5995C16.5548 10.6732 16.0215 10.575 15.9731 10.4767C15.9246 10.3538 15.7307 10.231 15.9004 10.059ZM15.6822 15.0467C15.7307 15.0713 15.8034 15.1204 15.8277 15.145C15.8277 15.1941 15.7792 15.2433 15.7307 15.3416C15.658 15.2679 15.5853 15.2433 15.5853 15.1941C15.5853 15.145 15.658 15.0959 15.6822 15.0467ZM15.3914 10.4275C15.4399 10.4767 15.5126 10.5258 15.561 10.5995C15.6095 10.6978 15.6338 10.8207 15.4883 10.8452C15.4399 10.8452 15.3672 10.7715 15.2702 10.6978C15.2944 10.5995 15.3429 10.5013 15.3914 10.4275ZM15.149 14.9976C15.1733 15.0467 15.149 15.0959 15.1248 15.145C15.1005 15.1941 15.0036 15.2433 15.0036 15.2924C15.0036 15.4398 15.0278 15.5873 14.8097 15.5873C14.64 15.5873 14.4704 15.5627 14.3734 15.3661C14.3007 15.1941 14.325 15.1204 14.4946 15.0713C14.5673 15.0467 14.6158 15.0222 14.7128 14.9976C14.7855 14.9976 14.9066 14.973 15.0036 14.973C15.0763 14.9239 15.149 14.973 15.149 14.9976ZM10.5682 7.89682C10.5925 7.77397 10.8106 7.70026 10.9318 7.62655C10.956 7.60198 11.0287 7.60198 11.053 7.60198C11.1499 7.57741 11.2469 7.55284 11.3438 7.55284C11.053 7.13515 10.8591 6.66832 10.8106 6.22606C10.7621 5.93122 10.7621 5.39067 11.1257 5.02212C11.3923 4.75185 11.7801 4.67814 12.0467 4.67814C12.2891 4.67814 12.5557 4.72728 12.798 4.82556C13.2585 4.97298 13.6948 5.26782 14.0584 5.63638C14.2522 5.83294 14.3977 6.12778 14.5189 6.49633C14.5673 6.47176 14.6643 6.44719 14.6643 6.44719C14.737 6.59461 14.8824 6.7666 14.8582 6.88945C14.8339 6.96316 14.7612 7.03687 14.6885 7.08601C14.8097 7.65112 14.8824 8.28995 14.9066 8.9042C13.3797 8.83049 12.1679 8.51108 11.6831 8.04425C11.6104 7.97054 11.5377 7.87225 11.465 7.79854C11.4408 7.82311 11.4165 7.84768 11.3923 7.87225C11.2469 7.94596 11.053 7.94596 11.0045 8.14253C11.0045 8.1671 10.8348 8.19167 10.8348 8.1671C10.8348 7.99511 10.5198 8.11796 10.5682 7.89682ZM10.2774 11.828C10.3259 12 10.7136 11.8526 10.6167 12.1475C10.5925 12.2212 10.4713 12.2457 10.3743 12.2949C10.3016 12.2703 10.1804 12.2703 10.1562 12.2212C10.0835 12.0983 10.1077 11.9509 10.0835 11.828C10.1562 11.828 10.2774 11.8035 10.2774 11.828ZM10.132 14.3833C10.3259 14.3342 10.3743 14.3833 10.4228 14.6045C10.4713 14.7519 10.447 14.8747 10.2531 14.9239C10.0108 14.973 9.93806 14.9484 9.88959 14.7027C9.86535 14.5062 9.91383 14.457 10.132 14.3833ZM9.76841 6.81574C9.81688 6.81574 9.88959 6.86488 9.91383 6.91402C9.93806 6.93859 9.88959 7.0123 9.84112 7.08601C9.76841 7.03687 9.71993 6.98773 9.69569 6.93859C9.67146 6.88945 9.74417 6.79117 9.76841 6.81574ZM9.69569 11.2629C9.74417 11.2875 9.79264 11.3121 9.81688 11.3612C9.81688 11.3858 9.79264 11.4349 9.76841 11.4595C9.71993 11.4349 9.69569 11.4103 9.62298 11.3858C9.64722 11.3121 9.67146 11.2875 9.69569 11.2629Z" fill="#171026"/>
</svg>
