<svg width="30" height="30" viewBox="0 0 30 30" fill="none" xmlns="http://www.w3.org/2000/svg">
<path d="M13.4004 3.1V7L10.2004 14H10.1004C10.1004 14 10.1004 14.1 10.0004 14.1V20.4C10.5004 20.3 11.1004 20.1 11.6004 20C11.7004 20 11.9004 20 12.0004 20C12.1004 20 12.2004 20.1 12.3004 20.2C12.3004 20.2 12.3004 20.4 12.2004 20.5C11.9004 21 11.6004 21.3 11.1004 21.3C10.8004 21.4 10.7004 21.4 10.5004 21.4C10.3004 21.5 10.1004 21.5 9.90039 21.3V23C10.0004 23 10.2004 22.9 10.3004 22.9C10.6004 22.8 10.9004 22.7 11.2004 22.7C11.5004 22.6 11.7004 22.6 11.9004 22.9C12.0004 23.1 12.3004 23.1 12.3004 22.8C12.3004 22.6 12.4004 22.4 12.6004 22.4C12.9004 22.3 13.3004 22.3 13.6004 22.2C13.6004 22.2 13.7004 22.5 13.7004 22.6C13.5004 22.8 13.5004 23 13.5004 23.3C13.5004 23.7 13.0004 24 12.7004 23.7C12.3004 23.3 12.0004 23.5 11.7004 23.6C11.3004 23.7 10.9004 23.9 10.5004 24C10.2004 24.1 10.2004 24.2 10.2004 24.5C10.5004 24.9 10.5004 24.9 10.0004 25V26.2C10.3004 26.3 10.6004 26.4 10.9004 26.5C11.0004 26.4 11.0004 26.4 11.1004 26.3C11.2004 26.3 11.3004 26.4 11.3004 26.4V26.5C11.9004 26.6 12.4004 26.7 12.8004 26.7H19.4004C18.9004 26.7 18.7004 26.4 18.8004 25.9C18.8004 25.8 18.8004 25.6 18.7004 25.5C18.5004 25.2 18.3004 25 18.5004 24.6C18.6004 24.4 18.5004 24 18.5004 23.7C18.5004 23.6 18.6004 23.5 18.6004 23.4C18.7004 23.4 18.9004 23.5 19.0004 23.5C19.2004 23.7 19.3004 23.9 19.5004 24.1C19.7004 24.3 19.9004 24.5 20.0004 24.8C20.1004 24.9 20.2004 25.1 20.1004 25.2C20.0004 25.5 20.1004 25.7 20.4004 25.9C20.6004 26 20.8004 26.3 21.0004 26.5C21.1004 26.6 21.1004 26.6 21.2004 26.7H23.2004C23.4004 26.7 23.6004 26.7 23.8004 26.6C23.8004 26.5 23.8004 26.5 23.8004 26.4C24.0004 26.4 24.1004 26.4 24.2004 26.5C24.2004 26.5 24.2004 26.5 24.2004 26.6C25.0004 26.3 25.6004 25.6 25.8004 24.8C25.9004 24.3 25.9004 23.8 25.7004 23.4C25.6004 23.4 25.6004 23.3 25.5004 23.3C25.0004 22.9 25.0004 22.9 24.5004 23.3C24.3004 23.4 24.2004 23.6 24.0004 23.7C23.9004 23.7 23.7004 23.7 23.7004 23.7C23.6004 23.6 23.7004 23.5 23.7004 23.4C23.7004 23.3 23.8004 23.3 23.8004 23.3C24.2004 22.9 24.2004 22.9 23.9004 22.4C23.8004 22.2 23.8004 22 23.9004 21.9C24.1004 21.7 24.4004 21.5 24.3004 21.1L24.5004 21C24.6004 21 24.7004 21.1 24.7004 21.2C25.1004 21.7 25.6004 22.2 26.0004 22.6L26.1004 22.7C26.4004 22.4 26.6004 22.1 26.7004 21.7C26.7004 21.7 26.7004 21.5 26.6004 21.2C26.7004 21.2 26.7004 21.2 26.7004 21.3C26.7004 21.2 26.7004 21.1 26.7004 21C26.7004 20.6 26.6004 20.2 26.4004 19.9C26.8004 19.7 27.1004 19.4 27.4004 19C27.3004 18.9 27.2004 18.9 27.0004 18.9C26.7004 18.9 26.3004 18.5 26.4004 18.2C26.4004 17.9 26.3004 17.8 26.1004 17.8C25.9004 17.8 25.8004 17.7 25.7004 17.5C25.5004 17.6 25.3004 17.6 25.0004 17.7C24.9004 17.7 24.8004 17.6 24.7004 17.5C24.8004 17.4 24.8004 17.3 24.9004 17.3C25.1004 17.2 25.3004 17.2 25.5004 17.1C25.5004 16.9 25.4004 16.8 25.4004 16.6C25.4004 16.6 25.4004 16.5 25.3004 16.5C24.7004 16.5 25.8004 15.4 24.8004 15.7C24.5004 15.4 24.2004 15 23.8004 14.7C23.3004 14.2 22.8004 13.7 22.4004 13.1C22.1004 12.8 21.8004 12.5 22.0004 12C22.0004 11.9 22.0004 11.8 21.9004 11.7C22.1004 11.3 22.0004 11.2 21.9004 11H18.2004C18.4004 10.3 18.7004 9.3 18.9004 8.2C18.8004 8.1 18.7004 8 18.7004 7.9C18.6004 7.8 18.8004 7.6 18.8004 7.4C18.8004 7.3 18.9004 7.3 18.9004 7.3L19.0004 7.2C19.0004 7 19.0004 6.7 19.0004 6.5C19.1004 4.1 17.0004 2 15.7004 2C14.5004 2 13.7004 2.7 13.7004 2.7C13.5004 2.8 13.4004 3 13.4004 3.1ZM11.3004 16C11.3004 16.1 11.2004 16.2 11.2004 16.4C11.1004 16.3 10.9004 16.3 10.8004 16.2C10.7004 16.1 10.6004 16 10.6004 16C10.2004 15.5 10.2004 15.4 10.5004 15.1C10.7004 15 10.9004 14.9 11.0004 15C11.2004 15.2 11.3004 15.4 11.4004 15.6C11.4004 15.7 11.4004 15.9 11.3004 16ZM13.6004 26.1C13.6004 26.1 13.5004 26.1 13.3004 26C13.4004 25.9 13.5004 25.8 13.6004 25.8C13.6004 25.8 13.7004 25.9 13.8004 25.9C13.7004 26 13.7004 26 13.6004 26.1ZM12.6004 13.6C12.7004 13.6 12.8004 13.8 13.0004 13.9C12.9004 14.1 12.8004 14.3 12.7004 14.5C12.6004 14.3 12.4004 14.2 12.3004 14C12.3004 13.9 12.5004 13.6 12.6004 13.6ZM12.8004 18.7C12.8004 18.6 12.7004 18.6 12.6004 18.4C12.6004 18.4 12.5004 18.3 12.5004 18.2C12.4004 18 12.3004 17.8 12.4004 17.7C12.5004 17.5 12.7004 17.7 12.9004 17.7C13.3004 17.6 13.5004 17.7 13.7004 18C13.8004 17.7 14.0004 17.4 14.2004 17.4C14.3004 17.5 14.5004 17.6 14.6004 17.8C14.6004 18 14.6004 18.2 14.5004 18.3C14.3004 18.4 14.1004 18.4 13.9004 18.5C13.9004 18.6 13.8004 18.7 13.7004 18.8C13.3004 18.9 13.0004 18.9 12.8004 18.7ZM14.0004 14.2C14.2004 14.2 14.3004 14.3 14.4004 14.3C14.4004 14.4 14.4004 14.5 14.4004 14.5C14.3004 14.5 14.2004 14.5 14.2004 14.5C14.0004 14.4 14.0004 14.3 14.0004 14.2ZM14.6004 25.9C14.5004 25.9 14.4004 25.8 14.4004 25.8C14.5004 25.7 14.5004 25.6 14.6004 25.5C14.7004 25.6 14.8004 25.6 14.9004 25.7C14.7004 25.7 14.7004 25.8 14.6004 25.9ZM14.5004 22.1C14.6004 22 14.6004 22 14.6004 21.9L14.7004 22C14.7004 22.1 14.7004 22.1 14.6004 22.2C14.7004 22.2 14.6004 22.2 14.5004 22.1ZM15.8004 21.4C15.9004 21.6 16.1004 21.7 15.9004 21.9H15.7004C15.5004 21.6 15.7004 21.5 15.8004 21.4C15.6004 21.1 15.3004 20.9 15.1004 20.6C15.0004 20.5 15.1004 20.3 15.0004 20.2C15.1004 20.2 15.3004 20.2 15.4004 20.2C15.6004 20.3 15.7004 20.4 15.9004 20.6C16.2004 20.9 16.2004 21 15.8004 21.4ZM15.4004 19.9C15.5004 19.8 15.5004 19.6 15.6004 19.6C15.7004 19.6 15.8004 19.7 15.9004 19.7L15.8004 19.9C15.6004 20 15.5004 20 15.4004 19.9ZM16.0004 12.6C16.1004 12.3 16.5004 12 16.5004 11.6C16.5004 11.6 16.7004 11.5 16.8004 11.6C17.3004 11.8 17.5004 12.2 17.5004 12.7C17.5004 12.9 17.5004 13.1 17.8004 13.1C18.0004 13.1 18.2004 13 18.3004 13.2C18.3004 13.4 18.2004 13.5 18.1004 13.6C17.6004 14 17.6004 14 17.3004 13.7C17.0004 13.4 16.8004 13 16.3004 13.1C16.2004 12.9 16.0004 12.7 16.0004 12.6ZM16.8004 10.7C16.8004 10.7 16.8004 10.6 16.9004 10.4C17.0004 10.5 17.1004 10.6 17.1004 10.7C17.1004 10.7 17.0004 10.8 17.0004 10.9C16.9004 10.9 16.9004 10.8 16.8004 10.7ZM17.1004 25.5C16.9004 25.3 16.8004 25.3 16.8004 25.2C16.8004 25.1 16.9004 25 16.9004 24.9C17.0004 25 17.2004 25 17.2004 25.1C17.2004 25.1 17.1004 25.3 17.1004 25.5ZM17.6004 23.1C17.5004 23 17.4004 23 17.3004 22.9C17.3004 23.1 17.3004 23.3 17.1004 23.3C17.0004 23.3 16.8004 23.1 16.7004 23C16.6004 22.9 16.5004 22.8 16.5004 22.7C16.2004 22.3 16.2004 22.2 16.7004 21.7C16.8004 21.7 17.0004 21.6 17.1004 21.7C17.3004 21.8 17.4004 22 17.5004 22.2C17.6004 22.3 17.7004 22.4 17.7004 22.6C17.7004 22.9 17.6004 23 17.6004 23.1ZM18.7004 21.7C18.6004 21.6 18.4004 21.5 18.3004 21.4C18.4004 21.2 18.4004 21 18.5004 20.9C18.7004 20.8 18.9004 20.8 19.2004 20.8C19.2004 20.8 19.4004 21 19.3004 21C19.1004 21.2 18.9004 21.5 18.7004 21.7ZM21.1004 21.2C20.7004 21.3 20.4004 21.1 20.2004 20.7C20.1004 20.4 20.3004 20.3 20.6004 20.2C21.1004 20.1 21.2004 20.1 21.3004 20.6C21.3004 20.8 21.5004 21.1 21.1004 21.2ZM23.0004 26C22.7004 26.2 22.5004 26 22.3004 25.8C22.2004 25.7 22.1004 25.6 22.0004 25.5C21.8004 25.6 21.7004 25.8 21.5004 25.6C21.5004 25.6 21.5004 25.4 21.5004 25.3C21.7004 25.1 21.8004 25.3 22.0004 25.5C22.3004 25.3 22.6004 25 22.9004 24.8C23.2004 24.6 23.3004 24.7 23.3004 25C23.3004 25.1 23.3004 25.2 23.3004 25.3C23.5004 25.7 23.3004 25.8 23.0004 26ZM21.6004 23.9C21.7004 23.8 21.7004 23.7 21.8004 23.7L22.0004 23.8C22.0004 23.9 22.0004 24 21.9004 24.1C21.8004 24 21.7004 24 21.6004 23.9ZM24.6004 18.7C24.7004 18.7 24.8004 18.7 24.9004 18.7C24.9004 18.8 24.9004 18.9 24.8004 19C24.7004 19.1 24.6004 19.2 24.5004 19.3C24.8004 19.2 25.0004 19.2 25.1004 19.6C25.2004 19.9 25.2004 20.1 24.8004 20.2C24.7004 20.2 24.5004 20.3 24.4004 20.4C24.2004 20.5 24.1004 20.5 24.0004 20.4C23.8004 20.6 23.6004 20.8 23.4004 21C23.3004 21.1 23.1004 21.1 23.0004 21C22.9004 20.9 22.8004 20.7 22.9004 20.7C23.0004 20.4 23.0004 20.2 22.8004 20.3C22.9004 20.5 22.9004 20.8 22.6004 20.9C22.5004 20.9 22.3004 20.7 22.2004 20.5C22.2004 20.4 22.3004 20.4 22.3004 20.3C22.2004 20.3 22.0004 20.2 21.8004 20.3C21.8004 20.3 21.6004 20.1 21.6004 20C21.7004 19.8 21.8004 19.7 22.0004 19.5C22.3004 19.5 22.7004 19.4 23.0004 19.5C23.5004 19.7 23.7004 19.5 24.0004 19.2C24.2004 19 24.3004 18.9 24.6004 18.7ZM20.9004 14.8C20.9004 14.9 20.9004 15 20.9004 15.1C20.8004 15.1 20.6004 15.1 20.6004 15C20.5004 15 20.6004 14.8 20.6004 14.6C20.8004 14.7 20.9004 14.7 20.9004 14.8ZM19.6004 13.4C19.8004 13.3 20.0004 13 20.2004 13.3C20.3004 13.4 20.1004 13.7 20.0004 13.9C19.8004 13.9 19.7004 13.9 19.6004 13.8C19.4004 13.7 19.4004 13.5 19.6004 13.4ZM18.6004 16.3C18.9004 16 19.1004 15.6 19.5004 15.5C19.8004 15.4 20.2004 15.6 20.5004 15.8C20.7004 15.9 20.8004 16.1 21.0004 16.2C21.3004 16.5 21.5004 16.5 21.8004 16.2C22.2004 15.9 23.0004 16.1 23.2004 16.5L23.3004 16.6C23.2004 16.9 23.3004 17.2 23.4004 17.5C23.4004 17.5 23.5004 17.5 23.5004 17.6C23.5004 17.6 23.5004 17.7 23.5004 17.8C23.5004 17.8 23.5004 18 23.4004 18C23.4004 18 23.3004 18 23.2004 18C23.0004 18.1 22.7004 18 22.5004 17.9C22.4004 17.8 22.4004 17.8 22.3004 17.8C22.2004 17.8 22.1004 17.8 22.0004 17.8C21.9004 18 21.7004 18.2 21.6004 18.4C21.6004 18.4 21.3004 18.4 21.2004 18.3L21.1004 18.4C21.0004 18.5 21.0004 18.6 20.9004 18.7C20.9004 18.7 20.7004 18.6 20.7004 18.5C20.7004 18.4 20.8004 18.3 20.8004 18.1C20.8004 18 20.9004 18 20.9004 17.9C20.8004 17.8 20.8004 17.7 20.9004 17.6C20.9004 17.5 20.9004 17.3 20.9004 17.2C20.8004 17.2 20.6004 17.2 20.5004 17.2C20.1004 17.4 19.7004 17.3 19.5004 17C19.5004 16.9 19.4004 16.9 19.4004 16.8C19.3004 16.6 19.1004 16.6 18.8004 16.6C18.6004 16.7 18.5004 16.5 18.6004 16.3ZM18.7004 18.7C18.9004 18.6 19.1004 18.6 19.3004 18.5C19.4004 18.5 19.6004 18.6 19.7004 18.7C19.8004 18.9 19.6004 19 19.4004 19.1C19.2004 19.1 19.1004 19.2 18.9004 19.2C18.4004 19.3 17.9004 19.5 17.4004 19.6C17.1004 19.7 16.8004 19.8 16.7004 19.4C16.7004 19.3 16.5004 19.3 16.5004 19.3C16.4004 19.2 16.3004 19.2 16.3004 19.1C16.4004 19.1 16.6004 18.9 16.7004 19C17.0004 19.3 17.4004 19.1 17.7004 19.1C18.0004 18.9 18.4004 18.8 18.7004 18.7ZM15.1004 2.6C15.2004 2.6 15.4004 2.7 15.5004 2.7C15.7004 2.8 15.8004 3.1 15.9004 3.2C16.0004 3.3 16.2004 3.3 16.3004 3.3C16.7004 3.3 17.2004 3.7 17.0004 4.1C17.0004 4.4 17.0004 4.6 17.2004 4.8C17.4004 5 17.6004 5.4 18.0004 5.4C18.5004 5.4 18.7004 5.7 18.6004 6.2C18.6004 6.3 18.6004 6.5 18.6004 6.5C18.8004 6.8 18.7004 6.9 18.5004 7.1C18.1004 7.4 18.1004 7.4 17.8004 7C17.7004 6.9 17.6004 6.8 17.5004 6.6C17.3004 6.4 17.1004 6.2 17.0004 6C16.9004 5.8 17.0004 5.5 16.9004 5.3C16.8004 5.2 16.4004 5.3 16.3004 5.2C16.1004 5 15.7004 4.8 16.0004 4.4C16.1004 4.3 16.0004 4.1 15.9004 4C15.7004 3.7 15.4004 3.4 15.2004 3.1C15.1004 2.9 15.1004 2.8 15.1004 2.6ZM15.0004 10.2C15.1004 10.2 15.3004 10.3 15.4004 10.2C15.6004 10.1 15.7004 10.1 15.8004 10.3C15.8004 10.4 15.7004 10.5 15.7004 10.7C15.7004 10.7 15.6004 10.8 15.5004 10.9C15.5004 10.9 15.2004 11 15.1004 11C14.9004 10.8 14.9004 10.6 14.8004 10.4C14.8004 10.4 14.9004 10.2 15.0004 10.2ZM15.0004 13C15.1004 13.1 15.2004 13.1 15.2004 13.2L15.1004 13.4C15.0004 13.4 14.9004 13.3 14.8004 13.3C14.9004 13.2 14.9004 13.1 15.0004 13ZM14.8004 19.5C14.7004 19.7 14.4004 19.9 14.2004 20C14.2004 20 14.2004 20 14.1004 20C14.0004 20.1 13.9004 20.2 13.8004 20.4C13.8004 20.4 13.6004 20.5 13.6004 20.4L13.5004 20.2C13.6004 20.1 13.7004 19.9 13.7004 19.8C13.5004 19.6 13.5004 19.3 13.7004 19.1C13.9004 18.9 14.1004 18.8 14.3004 18.7C14.4004 18.7 14.6004 18.7 14.6004 18.7C14.8004 18.9 14.9004 19.2 14.8004 19.5ZM13.9004 7.2C14.0004 7 14.1004 6.8 14.2004 6.6C14.3004 6.5 14.4004 6.5 14.5004 6.5C14.5004 6.6 14.6004 6.7 14.6004 6.8C14.5004 7 14.4004 7.2 14.2004 7.4C14.2004 7.4 14.1004 7.5 14.0004 7.4C13.9004 7.4 13.9004 7.3 13.8004 7.3C13.9004 7.3 13.9004 7.2 13.9004 7.2Z" fill="#FEFEFE"/>
<path d="M22.6008 17.4C22.5008 17.3 22.3008 17.1 22.2008 17C22.1008 17 22.0008 16.9 21.9008 17C21.8008 17 21.8008 17.2 21.8008 17.3C21.8008 17.4 21.8008 17.4 21.9008 17.5C22.1008 17.4 22.3008 17.4 22.6008 17.4Z" fill="#FEFEFE"/>
<path d="M23 11.5C23 11.6 23.2 11.9 23.4 12C23.5 12.1 23.7 12 23.8 11.9C24 11.8 24.2 11.6 24.4 11.4C24.5 11.3 24.7 11.4 24.8 11.3C24.8 11.4 24.8 11.7 24.7 11.7C24.1 11.9 24.4 12.4 24.2 12.8C24.1 13 24.3 13.1 24.5 13.1C24.8 13 25 13.2 25.1 13.4C25.6 14 26.1 14.7 26.7 15.3C27.1 15.8 27.6 16.3 28 16.8C27.9 16.4 27.7 16.1 27.4 15.8C27.5 15.7 27.7 15.5 27.8 15.3C27.7 15.4 27.6 15.3 27.5 15.4C27.5 15.3 27.5 15.3 27.5 15.2C27.6 15.1 27.6 15 27.7 14.9C28.2 14.4 28.2 14.4 27.7 13.8C27.5 13.5 27.3 13.3 27.1 13C27 12.9 27.1 12.8 27.1 12.6C27.2 12.6 27.3 12.6 27.4 12.7C27.6 12.8 27.7 13 27.8 13.2C27.9 13.3 28 13.4 28.1 13.5H28.2C28 12.2 26.7 11 25.2 11H23C23.1 11.2 23.1 11.3 23 11.5Z" fill="#FEFEFE"/>
<path d="M8.79961 19.2999L8.89961 19.4V18.7C8.89961 18.7 8.89961 18.7999 8.79961 18.7999C8.69961 18.9999 8.69961 19.0999 8.79961 19.2999Z" fill="#FEFEFE"/>
<path d="M4.5 14.3C4.5 14.4 4.3 14.5 4.2 14.5C4 14.5 3.9 14.3 3.8 14.1C3.6 14.1 3.5 13.9 3.4 13.6C3.4 13.5 3.4 13.4 3.4 13.4C3.3 13.4 3.3 13.4 3.2 13.4C2.7 13.5 2.3 13.7 2 14C2 14.1 2.1 14.3 2 14.3C2 14.4 2 14.5 1.9 14.6C1.8 14.5 1.7 14.4 1.7 14.3C1.3 14.8 1 15.4 1 16.1V25.1C1 25.5 1.1 25.8 1.2 26.2C1.3 26.2 1.4 26.3 1.5 26.3C1.5 26.5 1.6 26.7 1.6 26.8C2.1 27.6 2.9 28 3.8 28H5.4C5.4 27.9 5.4 27.7 5.5 27.6C5.8 27.2 6 27.2 6.4 27.5C6.6 27.3 6.9 27.1 7.1 26.9C7.2 26.9 7.2 26.8 7.2 26.8V26.7C7.2 26.5 7 26.3 7.3 26.2C7.4 26.2 7.6 26.4 7.8 26.5C7.7 26.6 7.7 26.7 7.7 26.8L7.8 26.9C8 26.7 8.2 26.6 8.4 26.9C8.5 27 8.5 27.2 8.6 27.4C8.4 27.3 8.3 27.3 8.1 27.2C8.1 27.2 8 27.1 7.9 27C7.6 27.2 7.4 27.4 7.1 27.6C6.8 27.8 6.7 27.8 6.5 27.5C6.3 27.7 6.1 27.8 5.9 28H7.3C7.9 28 8.5 27.8 9 27.4V20.2C8.8 20 8.7 19.7 8.3 19.9C8 20 8 19.8 8 19.6C8 19.5 8.1 19.5 8.1 19.4C8.3 19.1 8.4 18.9 8.1 18.6C8 18.5 8 18.3 8 18.2C8.2 18 8.4 18 8.6 18.1C8.8 18.2 8.9 18.2 8.9 18.2V13.3H6.9C6.9 13.4 6.8 13.4 6.7 13.5C6.5 13.6 6.2 13.6 6 13.7C5.8 13.7 5.7 13.8 5.5 13.8C5.1 13.9 5 13.8 4.9 13.4H4.5C4.7 13.6 4.5 14 4.5 14.3ZM1.9 20C2.3 19.6 2.5 19.7 2.9 20C2.9 20.2 3 20.2 3 20.3C3 20.5 3.1 20.6 3.1 20.8C3 20.8 2.8 20.7 2.7 20.7C2.5 20.6 2.4 20.5 2.2 20.5C2.1 20.5 2 20.4 1.8 20.4C1.8 20.2 1.8 20.1 1.9 20ZM2.2 23.7C1.9 23.9 1.8 23.6 1.6 23.5C1.4 23.4 1.4 23.2 1.6 23.1C1.7 23 1.9 23.1 2.2 23.1C2.2 23.3 2.3 23.6 2.2 23.7ZM3.2 24.9C3 25.1 2.8 24.9 2.6 24.6C2.6 24.5 2.6 24.4 2.6 24.2C2.8 24.3 3 24.3 3.2 24.4C3.4 24.6 3.4 24.8 3.2 24.9ZM8.3 24.6C8.4 24.5 8.5 24.6 8.7 24.5C8.7 24.7 8.7 24.9 8.6 24.9C8.5 25 8.3 24.9 8.3 24.9C8.2 24.9 8.2 24.7 8.3 24.6ZM7 23.4C7 23.4 7 23.2 7 23.1C7.1 23.1 7.3 23.1 7.3 23.2C7.3 23.3 7.3 23.4 7.3 23.5C7.2 23.4 7.1 23.4 7 23.4ZM6.6 16.1C6.6 16.1 6.8 16.3 6.8 16.4C6.7 16.8 6.7 17 7.2 16.9C7.4 16.9 7.7 17.2 7.8 17.4C8 17.7 7.7 17.8 7.5 18C7.3 18.2 7.1 18.2 6.9 18C6.8 17.8 6.7 17.7 6.5 17.5C6.4 17.3 6.2 17.2 6.1 17C6 16.9 5.9 16.7 6 16.6C6.2 16.4 6.4 16.3 6.6 16.1ZM5.2 14.7C5.3 14.7 5.5 14.7 5.6 14.7C5.6 14.9 5.7 15 5.7 15.2C5.5 15.1 5.3 15.1 5.2 15C5.2 15 5.2 14.8 5.2 14.7ZM4.7 26.1C4.9 26.2 5.2 25.9 5.3 26.2C5.3 26.4 5.1 26.7 5 26.8C4.8 26.9 4.7 27 4.5 27C4.4 27 4.2 27 4.2 27C4.1 26.7 4 26.4 4.1 26.1C4.1 26 4.4 25.9 4.7 26.1C4.7 26.1 4.6 26.1 4.7 26.1Z" fill="#FEFEFE"/>
</svg>
