<svg width="30" height="30" viewBox="0 0 30 30" fill="none" xmlns="http://www.w3.org/2000/svg">
<path d="M5.80078 30H7.90078C7.90078 29.9 8.00078 29.6 8.20078 29.3C7.80078 29.4 7.50078 29.5 7.10078 29.6C6.80078 29.7 6.50078 29.7 6.20078 29.8C6.00078 29.9 5.90078 29.9 5.80078 30Z" fill="#FEFEFE"/>
<path d="M7.50039 0.4C7.50039 0.5 7.50039 0.7 7.50039 0.7C7.70039 1 7.60039 1.2 7.40039 1.3C7.00039 1.6 6.90039 1.6 6.60039 1.2C6.50039 1.1 6.40039 1 6.30039 0.9C6.20039 0.7 6.00039 0.5 5.90039 0.3C5.90039 0.2 5.90039 0.1 5.90039 0H5.00039V6.6C5.20039 6.4 5.40039 6.2 5.40039 5.8C5.40039 5.8 5.60039 5.7 5.70039 5.8C6.10039 6 6.30039 6.4 6.30039 6.9C6.30039 7.1 6.30039 7.3 6.60039 7.3C6.80039 7.3 7.00039 7.2 7.10039 7.4C7.10039 7.6 7.00039 7.7 6.90039 7.8C6.40039 8.1 6.30039 8.1 6.00039 7.8C5.70039 7.5 5.50039 7 5.00039 7.2V25V25.1C5.00039 25.2 5.00039 25.3 5.00039 25.4C5.00039 25.6 5.10039 25.8 4.90039 25.9V29.4C5.00039 29.4 5.10039 29.3 5.20039 29.3C5.50039 29.2 5.70039 29.2 5.90039 28.9C6.10039 28.5 6.60039 28.5 6.90039 28.8C7.10039 29 7.20039 28.9 7.40039 28.7C7.50039 28.6 7.60039 28.4 7.70039 28.4C7.90039 28.3 8.10039 28.3 8.20039 28.4C8.30039 28.5 8.30039 28.5 8.30039 28.6C8.70039 27.5 9.40039 25.9 9.70039 25.1C9.80039 25 9.90039 24.8 10.0004 24.7C9.90039 24.7 9.90039 24.8 9.80039 24.8C9.50039 24.9 9.50039 24.6 9.40039 24.4C9.40039 24.2 9.30039 24.1 9.40039 24H9.30039C9.10039 23.9 9.10039 23.6 9.20039 23.1C9.30039 22.8 9.30039 22.4 9.40039 22.1C9.40039 22 9.40039 22 9.30039 21.9C9.10039 21.7 8.90039 21.4 8.70039 21.3C8.60039 21.2 8.50039 21.2 8.30039 21.1C7.80039 21.1 7.60039 20.8 7.60039 20.3C7.60039 20.2 7.60039 20 7.50039 19.9C7.30039 19.6 7.10039 19.4 7.30039 19C7.40039 18.8 7.30039 18.4 7.30039 18.1C7.30039 18 7.40039 17.9 7.40039 17.8C7.50039 17.8 7.70039 17.9 7.80039 17.9C8.00039 18.1 8.10039 18.3 8.30039 18.5C8.50039 18.7 8.70039 18.9 8.80039 19.2C8.90039 19.3 9.00039 19.5 8.90039 19.6C8.80039 19.9 8.90039 20.1 9.20039 20.3C9.30039 20.4 9.50039 20.5 9.60039 20.6C10.0004 19.8 10.3004 19 10.5004 18.2C10.5004 18.2 10.4004 18.2 10.4004 18.1C10.5004 18.1 10.5004 18 10.6004 18C10.9004 17.1 11.3004 16.1 11.5004 15.1C11.5004 15.1 11.4004 15.2 11.3004 15.2C11.2004 15.2 11.0004 15 10.9004 14.8C10.9004 14.7 11.0004 14.7 11.0004 14.6C10.9004 14.6 10.7004 14.5 10.5004 14.6C10.5004 14.6 10.3004 14.4 10.3004 14.3C10.4004 14.1 10.5004 14 10.7004 13.8C11.0004 13.8 11.4004 13.7 11.7004 13.8C11.8004 13.8 11.8004 13.8 11.9004 13.8C12.1004 13.1 12.4004 12.4 12.6004 11.8C12.8004 11.2 13.1004 10.7 13.1004 10.5C13.1004 10.3 13.1004 10.2 13.1004 10C13.1004 9.7 13.1004 9.4 13.2004 9.1C13.2004 9 13.1004 8.9 12.9004 8.8C12.4004 8.3 11.9004 7.8 11.5004 7.2C11.2004 6.9 10.9004 6.6 11.1004 6.1C11.1004 6 11.1004 5.9 11.0004 5.8C10.7004 5.3 10.3004 4.9 10.0004 4.4C9.80039 4.3 9.70039 4.1 9.40039 4.2C9.00039 4.3 8.40039 3.6 8.50039 3.1C8.60039 2.6 8.50039 2.6 8.10039 2.6C7.70039 2.6 7.60039 2.4 7.50039 2.2C7.40039 2.1 7.60039 1.9 7.60039 1.7C7.60039 1.6 7.70039 1.6 7.70039 1.6C8.20039 1.1 8.40039 1.1 8.80039 1.6C9.00039 1.8 9.20039 2 9.30039 2.1C9.50039 2.3 9.60039 2.5 9.80039 2.7C9.80039 2.8 9.90039 3 9.90039 3.1C9.60039 3.5 10.0004 3.8 10.2004 4.1C10.3004 4.2 10.3004 4.3 10.4004 4.3C10.7004 4.7 11.0004 4.8 11.4004 4.6C11.8004 4.4 11.8004 4.5 11.7004 4.8C11.7004 5.1 11.9004 5.4 11.6004 5.7C11.6004 5.8 11.8004 6.1 12.0004 6.2C12.1004 6.3 12.3004 6.2 12.4004 6.1C12.8004 6 13.0004 5.8 13.2004 5.7C13.3004 5.6 13.5004 5.7 13.6004 5.6C13.6004 5.7 13.6004 6 13.5004 6C13.0004 6.3 13.2004 6.8 13.1004 7.2C13.0004 7.4 13.2004 7.5 13.4004 7.4C13.7004 7.3 13.8004 7.4 13.9004 7.6C14.1004 7.3 14.5004 7 15.1004 6.7C15.9004 6.3 16.9004 6 17.6004 5.8C17.9004 5.7 18.2004 5.6 18.3004 5.5C18.7004 5.3 19.4004 5.2 19.7004 5.4C19.8004 5.4 19.8004 5.5 19.8004 5.5V5.6H19.7004C19.5004 5.7 19.4004 5.9 19.2004 6.1C19.1004 6.2 19.1004 6.3 19.0004 6.3C18.8004 6.5 18.7004 6.6 18.6004 6.8C18.0004 7.4 17.6004 7.8 17.9004 8.9C18.0004 9.3 18.3004 9.4 18.5004 9.5C18.6004 9.5 18.7004 9.6 18.7004 9.6C19.1004 9.8 19.4004 10.1 19.8004 10.6C20.3004 11.3 20.3004 12.3 20.3004 13.1C20.3004 13.2 20.3004 13.3 20.3004 13.4C20.3004 13.8 20.3004 14.3 20.2004 15C20.4004 15.4 20.8004 15.7 21.2004 15.8C21.5004 15.8 21.8004 16.1 21.7004 16.4C21.7004 16.7 21.7004 17.1 21.7004 17.4C21.7004 17.5 21.8004 17.6 21.9004 17.6C22.3004 17.5 22.5004 17.7 22.8004 17.9C23.1004 18.1 23.2004 17.9 23.4004 17.8C23.6004 17.6 23.8004 17.6 24.0004 17.8C24.1004 18 24.3004 18.2 24.1004 18.5C23.7004 18.9 23.8004 19.1 24.2004 19.6C24.6004 20 24.9004 20.4 25.3004 20.8C25.4004 20.8 25.4004 20.8 25.5004 20.8C25.7004 20.8 25.9004 20.9 26.0004 20.9C26.0004 21 26.0004 21 26.0004 21.1C25.9004 21.1 25.8004 21.2 25.7004 21.2C25.9004 21.3 26.1004 21.2 26.2004 21.4V16.2C26.1004 16.2 26.1004 16.2 26.0004 16.2C25.9004 16.1 25.9004 15.9 25.9004 15.8C26.1004 15.5 25.9004 15.4 25.8004 15.2C25.7004 14.9 25.5004 15 25.3004 15C25.0004 15 24.8004 14.7 24.6004 14.5C24.5004 14.4 24.8004 14.1 24.9004 13.9C25.1004 13.9 25.3004 13.9 25.5004 13.9C25.7004 13.9 26.0004 13.9 26.1004 14C26.2004 14.1 26.1004 14.5 26.2004 14.6C26.2004 14.6 26.2004 14.6 26.2004 14.7V10C26.2004 10 26.2004 9.9 26.1004 9.9C25.7004 9.7 25.9004 9.3 25.9004 8.9C25.8004 8.9 25.7004 8.8 25.6004 8.8C25.5004 8.7 25.5004 8.7 25.5004 8.6C25.1004 8.3 25.1004 8.3 25.6004 8C25.7004 8 25.8004 7.9 25.9004 7.9C26.0004 7.9 26.1004 7.9 26.3004 7.8V6.8C25.9004 6.9 25.8004 6.9 25.7004 6.5C25.6004 6.1 25.6004 6 26.0004 5.9C26.1004 5.9 26.2004 5.9 26.3004 5.8V3.8C26.2004 3.4 25.7004 3 25.4004 3C25.1004 3 25.0004 2.9 25.1004 2.7C25.3004 2.4 25.1004 2.2 24.9004 2C24.0004 1.4 23.4004 0.7 22.9004 0H7.40039C7.50039 0.1 7.50039 0.3 7.50039 0.4ZM5.80039 5.2C5.80039 5.1 5.70039 5.1 5.60039 5C5.60039 5 5.60039 4.9 5.70039 4.7C5.80039 4.9 5.90039 4.9 5.90039 5C5.90039 5.1 5.90039 5.1 5.80039 5.2ZM5.50039 16.2C5.60039 16.2 5.80039 16.1 5.90039 16.2C6.10039 16.3 6.20039 16.5 6.30039 16.7C6.40039 16.8 6.50039 16.9 6.50039 17.1C6.50039 17.2 6.40039 17.3 6.40039 17.4C6.30039 17.3 6.20039 17.3 6.10039 17.2C6.10039 17.4 6.10039 17.6 5.90039 17.6C5.80039 17.6 5.60039 17.4 5.50039 17.3C5.40039 17.2 5.30039 17.1 5.30039 17C5.00039 16.7 5.00039 16.6 5.50039 16.2ZM6.00039 19.3C6.00039 19.4 6.00039 19.5 5.90039 19.8C5.70039 19.6 5.60039 19.6 5.60039 19.5C5.60039 19.4 5.70039 19.3 5.70039 19.2C5.80039 19.2 6.00039 19.2 6.00039 19.3ZM5.30039 23.4C5.20039 23.3 5.30039 23.2 5.20039 23C5.40039 23 5.50039 23 5.50039 23.1C5.50039 23.2 5.50039 23.3 5.50039 23.4C5.50039 23.4 5.40039 23.5 5.30039 23.4ZM8.20039 24.2C8.30039 24.3 8.30039 24.5 8.30039 24.6C8.00039 24.8 8.00039 25.1 8.00039 25.4C8.00039 25.5 7.90039 25.6 7.90039 25.6C7.80039 25.6 7.80039 25.5 7.70039 25.5C7.70039 25.5 7.70039 25.4 7.60039 25.4C7.20039 24.9 7.00039 24.8 6.40039 25.1C6.10039 25.2 5.90039 25.2 5.70039 24.9C5.70039 24.8 5.60039 24.8 5.60039 24.7C5.30039 24.4 5.30039 24.4 5.70039 24.2C6.00039 24.1 6.30039 24.1 6.60039 24C6.70039 24 6.90039 24 7.00039 23.9C7.50039 23.6 7.80039 24 8.20039 24.2ZM7.50039 16C7.40039 15.9 7.20039 15.8 7.10039 15.7C7.20039 15.5 7.20039 15.3 7.30039 15.2C7.40039 15.1 7.70039 15 7.90039 15C7.90039 15 8.10039 15.2 8.00039 15.2C7.90039 15.5 7.70039 15.7 7.50039 16ZM8.30039 13.4C8.10039 13.4 8.00039 13.5 7.80039 13.5C7.30039 13.6 6.80039 13.8 6.30039 13.9C6.00039 14 5.70039 14.1 5.50039 13.7C5.50039 13.6 5.30039 13.6 5.30039 13.6C5.20039 13.5 5.10039 13.5 5.10039 13.4C5.20039 13.4 5.40039 13.2 5.50039 13.3C5.80039 13.6 6.20039 13.4 6.50039 13.4C6.90039 13.3 7.20039 13.2 7.60039 13.2C7.80039 13.1 8.00039 13.1 8.20039 13C8.30039 13 8.50039 13.1 8.60039 13.2C8.60039 13.2 8.50039 13.3 8.30039 13.4ZM9.90039 15.5C9.50039 15.6 9.20039 15.4 9.00039 15C8.90039 14.7 9.10039 14.6 9.40039 14.5C9.90039 14.4 10.0004 14.4 10.1004 14.9C10.1004 15.1 10.3004 15.4 9.90039 15.5ZM9.80039 9.1C9.80039 9.2 9.80039 9.3 9.80039 9.4C9.70039 9.4 9.50039 9.4 9.50039 9.3C9.40039 9.3 9.50039 9.1 9.50039 8.9C9.60039 8.9 9.70039 9 9.80039 9.1ZM8.40039 7.7C8.60039 7.6 8.80039 7.3 9.00039 7.6C9.10039 7.7 8.90039 8 8.80039 8.2C8.60039 8.2 8.50039 8.2 8.40039 8.1C8.20039 7.9 8.30039 7.7 8.40039 7.7ZM8.30039 9.9C8.60039 9.8 9.00039 10 9.30039 10.2C9.50039 10.3 9.60039 10.5 9.80039 10.6C10.1004 10.9 10.3004 10.9 10.6004 10.6C11.0004 10.3 11.8004 10.5 12.0004 10.9L12.1004 11C12.0004 11.3 12.1004 11.6 12.2004 11.9C12.2004 11.9 12.3004 11.9 12.3004 12C12.3004 12 12.3004 12.1 12.3004 12.2C12.3004 12.2 12.3004 12.4 12.2004 12.4C12.2004 12.4 12.1004 12.4 12.0004 12.4C11.8004 12.5 11.5004 12.4 11.3004 12.3C11.2004 12.2 11.2004 12.2 11.1004 12.2C11.0004 12.2 10.9004 12.2 10.8004 12.2C10.7004 12.4 10.5004 12.6 10.4004 12.8C10.4004 12.8 10.1004 12.8 10.0004 12.7L9.90039 12.8C9.80039 12.9 9.80039 13 9.70039 13.1C9.70039 13.1 9.50039 13 9.50039 12.9C9.50039 12.8 9.60039 12.7 9.60039 12.5C9.60039 12.4 9.70039 12.4 9.70039 12.3C9.60039 12.2 9.60039 12.1 9.70039 12C9.70039 11.9 9.70039 11.7 9.70039 11.6C9.60039 11.6 9.40039 11.6 9.30039 11.6C8.90039 11.8 8.50039 11.7 8.30039 11.4C8.30039 11.3 8.20039 11.3 8.20039 11.2C8.10039 11 7.90039 10.9 7.60039 11C7.40039 11 7.30039 10.8 7.50039 10.7C7.70039 10.3 8.00039 10 8.30039 9.9ZM21.2004 13.6C21.1004 13.5 21.0004 13.4 20.9004 13.3C20.9004 13.1 20.9004 13.1 20.9004 13C20.9004 12.9 21.0004 12.8 21.0004 12.8C21.0004 12.8 21.1004 12.8 21.2004 12.9C21.2004 13 21.3004 13 21.3004 13.1C21.3004 13.3 21.3004 13.4 21.2004 13.6ZM21.9004 11.9C21.9004 11.9 21.7004 11.9 21.6004 11.8C21.7004 11.7 21.7004 11.6 21.8004 11.5L22.0004 11.6C22.0004 11.7 21.9004 11.8 21.9004 11.9ZM22.5004 9.5L22.6004 9.3C23.1004 9.1 23.6004 9 24.1004 8.8C24.2004 8.8 24.4004 8.9 24.4004 9C24.4004 9.1 24.4004 9.2 24.3004 9.2C24.4004 9.2 24.4004 9.2 24.4004 9.3C24.4004 9.3 24.4004 9.4 24.4004 9.5C24.3004 9.5 24.3004 9.5 24.2004 9.5C24.2004 9.5 24.2004 9.5 24.2004 9.4C24.0004 9.5 23.7004 9.5 23.4004 9.6C23.3004 9.6 23.0004 9.7 22.8004 9.7C22.7004 9.7 22.6004 9.6 22.5004 9.5ZM22.6004 8.2C22.7004 8 22.8004 7.8 22.9004 7.6C23.0004 7.5 23.2004 7.6 23.3004 7.6C23.3004 7.8 23.3004 7.9 23.3004 8.2C23.0004 8.2 22.8004 8.2 22.6004 8.2ZM25.8004 10.7C25.8004 10.8 25.8004 10.9 25.8004 10.9H25.6004C25.6004 10.8 25.6004 10.7 25.6004 10.6C25.6004 10.7 25.7004 10.7 25.8004 10.7ZM25.0004 10.6C25.3004 10.5 25.4004 10.8 25.4004 11C25.5004 11.2 25.5004 11.4 25.2004 11.5C24.9004 11.6 24.7004 11.6 24.4004 11.7C24.3004 11.7 24.3004 11.7 24.2004 11.7C24.2004 11.9 24.3004 12.1 24.2004 12.2C24.1004 12.4 23.9004 12.7 23.5004 12.5C23.4004 12.5 23.4004 12.4 23.3004 12.4C23.1004 12.4 22.8004 12.4 22.8004 12.3C22.7004 12.1 22.7004 11.8 22.7004 11.5C22.7004 11.4 22.8004 11.4 22.8004 11.3C22.9004 11.3 23.0004 11.2 23.2004 11.3C23.8004 10.9 24.4004 10.8 25.0004 10.6ZM24.9004 10.3C24.9004 10.4 24.9004 10.5 24.8004 10.6C24.7004 10.6 24.6004 10.6 24.6004 10.5V10.3C24.6004 10.3 24.7004 10.3 24.9004 10.3ZM24.7004 7.3C24.6004 7.3 24.4004 7.2 24.3004 7.1C24.1004 7 24.0004 6.9 23.9004 6.7C23.9004 6.7 23.9004 6.7 23.9004 6.8C24.0004 7.2 23.9004 7.3 23.4004 7.4C23.1004 7.5 22.8004 7.2 22.8004 6.8C22.8004 6.5 22.9004 6.4 23.3004 6.3C23.4004 6.3 23.5004 6.3 23.5004 6.3C23.4004 6.2 23.3004 6 23.1004 5.9C23.0004 6 22.8004 6.1 22.7004 6C22.5004 5.9 22.4004 5.6 22.3004 5.4C22.2004 5.2 22.3004 5 22.3004 4.8C22.3004 4.7 22.5004 4.6 22.5004 4.6C22.8004 4.6 23.1004 5.1 23.0004 5.4C22.9004 5.6 23.0004 5.8 23.1004 5.9C23.3004 5.6 23.6004 5.6 23.8004 5.9C24.0004 6.2 24.3004 6.5 24.5004 6.8C24.7004 7 24.9004 7.1 24.7004 7.3ZM23.6004 2.2C24.2004 2.1 24.4004 2.2 24.4004 2.5C24.4004 3 24.3004 3 24.0004 2.9C23.9004 2.9 23.8004 2.9 23.8004 2.9C23.6004 2.9 23.4004 2.8 23.4004 2.6C23.4004 2.4 23.6004 2.3 23.6004 2.2ZM22.1004 0.7C22.2004 0.7 22.3004 0.8 22.4004 0.8C22.4004 0.9 22.3004 1 22.2004 1C22.1004 1 22.0004 1 21.9004 0.9C22.0004 0.8 22.0004 0.7 22.1004 0.7ZM21.6004 3.4C22.0004 3.6 22.2004 3.3 22.4004 3.2C22.6004 3.1 22.8004 3 23.0004 2.9C23.1004 2.9 23.2004 2.9 23.2004 2.9V3.1C22.9004 3.6 22.4004 3.8 21.9004 4.1C21.8004 4.1 21.6004 4 21.6004 4C21.5004 3.8 21.4004 3.8 21.4004 3.7C21.3004 3.5 21.5004 3.3 21.6004 3.4ZM20.4004 8.2C20.6004 8.6 20.8004 8.9 21.3004 8.9C21.4004 8.9 21.6004 9 21.7004 9C22.0004 9.2 22.2004 9.5 22.4004 9.8C22.5004 9.9 22.7004 10.2 22.6004 10.3C22.5004 10.5 22.2004 10.8 22.1004 10.7C21.7004 10.6 21.2004 10.8 20.9004 10.3C20.9004 10.2 20.8004 10 20.8004 9.9C20.7004 9.9 20.7004 9.9 20.6004 9.9C20.7004 9.9 20.7004 9.8 20.7004 9.8C20.7004 9.5 20.5004 9.3 20.2004 9.3C19.7004 9.2 19.5004 8.9 19.4004 8.4C19.3004 8.4 19.3004 8.4 19.2004 8.4C19.1004 8.4 19.0004 8.2 18.9004 8.1C18.9004 7.9 18.9004 7.8 18.9004 7.7C18.9004 7.6 19.0004 7.5 19.1004 7.6C19.1004 7.5 19.0004 7.4 19.2004 7.3C19.4004 7.1 19.5004 6.9 19.9004 7C20.0004 7 20.2004 7 20.4004 7C20.5004 7 20.6004 7.1 20.7004 7.2C20.7004 7.3 20.7004 7.4 20.6004 7.5L20.5004 7.6C20.4004 7.7 20.2004 7.8 20.4004 8.2ZM20.1004 1.9C20.2004 1.8 20.3004 1.9 20.5004 1.8C20.5004 2 20.5004 2.2 20.4004 2.2C20.3004 2.3 20.1004 2.2 20.1004 2.2C20.1004 2.2 20.0004 1.9 20.1004 1.9ZM19.1004 0.4C19.1004 0.5 19.1004 0.6 19.1004 0.7C19.0004 0.7 18.9004 0.7 18.8004 0.7C18.8004 0.7 18.8004 0.5 18.8004 0.4C18.9004 0.3 19.0004 0.3 19.1004 0.4ZM17.4004 4.9C17.7004 4.5 17.9004 4.5 18.3004 4.8C18.5004 4.6 18.8004 4.4 19.0004 4.2C19.1004 4.2 19.1004 4.1 19.1004 4.1V4C19.1004 3.8 18.9004 3.6 19.2004 3.5C19.3004 3.5 19.5004 3.7 19.7004 3.8C19.6004 3.9 19.6004 4 19.6004 4.1L19.7004 4.2C19.9004 4 20.1004 3.9 20.3004 4.2C20.4004 4.3 20.4004 4.5 20.5004 4.7C20.3004 4.6 20.2004 4.6 20.0004 4.5C19.9004 4.4 19.8004 4.3 19.6004 4.2C19.3004 4.4 19.1004 4.6 18.8004 4.8C18.5004 5 18.4004 5 18.2004 4.7C18.0004 5 17.9004 5.1 17.6004 5.3C17.5004 5.4 17.4004 5.3 17.2004 5.3C17.3004 5.2 17.3004 5 17.4004 4.9ZM16.4004 3.3C16.5004 3.4 16.5004 3.4 16.4004 3.3C16.7004 3.5 17.0004 3.2 17.0004 3.5C17.0004 3.7 16.8004 4 16.7004 4.1C16.5004 4.2 16.4004 4.3 16.2004 4.3C16.1004 4.3 15.9004 4.3 15.9004 4.3C15.8004 4 15.7004 3.7 15.8004 3.4C15.9004 3.2 16.2004 3.2 16.4004 3.3ZM14.4004 1.5C14.6004 1.6 14.9004 1.6 15.0004 1.8C15.2004 1.9 15.2004 2.1 15.0004 2.2C14.8004 2.4 14.6004 2.2 14.4004 1.9C14.4004 1.8 14.4004 1.7 14.4004 1.5ZM13.4004 0.3C13.5004 0.2 13.7004 0.3 14.0004 0.3C14.0004 0.6 14.1004 0.9 14.0004 0.9C13.7004 1.1 13.6004 0.8 13.4004 0.7C13.2004 0.6 13.2004 0.4 13.4004 0.3ZM12.8004 3.9C12.8004 3.8 12.9004 3.6 12.9004 3.5C13.0004 3.5 13.2004 3.6 13.3004 3.7C13.3004 3.9 13.4004 4.1 13.4004 4.2C13.2004 4.3 13.0004 4.5 12.8004 4.6C12.7004 4.5 12.6004 4.4 12.6004 4.3C12.6004 4.1 12.7004 4 12.8004 3.9ZM12.1004 2.6C12.2004 2.6 12.4004 2.6 12.4004 2.6C12.4004 2.7 12.4004 2.8 12.4004 2.9C12.3004 3 12.2004 3 12.1004 2.9C12.0004 2.9 12.1004 2.8 12.1004 2.6ZM11.1004 1.4C11.3004 1.5 11.4004 1.5 11.4004 1.5V1.7C11.3004 1.7 11.2004 1.8 11.1004 1.7C11.1004 1.8 11.1004 1.6 11.1004 1.4ZM11.0004 3H11.2004C11.2004 3.1 11.2004 3.2 11.3004 3.2C11.2004 3.2 11.2004 3.2 11.1004 3.2C11.0004 3.2 11.0004 3.1 11.0004 3Z" fill="#FEFEFE"/>
<path d="M11.3996 11.6C11.2996 11.5 11.0996 11.3 10.9996 11.2C10.8996 11.2 10.7996 11.1 10.6996 11.2C10.5996 11.2 10.5996 11.4 10.5996 11.5C10.5996 11.6 10.5996 11.6 10.6996 11.7C10.8996 11.6 11.1996 11.6 11.3996 11.6Z" fill="#FEFEFE"/>
<path d="M21.6012 18.7C21.3012 18.8 21.2012 18.6 21.1012 18.5C20.9012 18.2 20.6012 18 20.4012 17.7C20.2012 17.5 20.1012 17.3 19.8012 17.2C19.6012 18.3 19.3012 19.3 19.0012 19.7C18.9012 19.8 18.9012 19.9 18.8012 19.9C18.7012 19.9 18.7012 19.9 18.7012 19.9C18.6012 19.9 18.6012 19.8 18.6012 19.6C18.5012 19.8 18.3012 20.2 18.1012 20.5C18.2012 20.8 18.3012 21.1 18.3012 21.4L18.4012 21.5C18.4012 21.6 18.3012 21.6999 18.3012 21.7999V21.9C18.3012 22.0999 18.0012 22.3 17.8012 22.5C17.7012 22.6 17.6012 22.6999 17.5012 22.7999C17.3012 22.8999 17.1012 23 17.0012 23C16.7012 23.3 16.4012 23.4 16.3012 23.4C16.2012 23.5999 16.1012 23.7 16.0012 23.9C16.0012 23.9999 16.0012 24 16.0012 24.1H15.9012C15.5012 24.6 15.1012 25.1 14.8012 25.2C14.6012 25.3 14.5012 25.2 14.5012 25.2C14.4012 25 14.2012 25 14.1012 25.1C13.9012 25.2 13.7012 25.4 13.5012 25.7C13.8012 25.9 14.1012 26.2 14.3012 26.4C14.3012 26.4 14.3012 26.4 14.2012 26.5C14.6012 27 15.1012 27.4 15.5012 27.9C15.7012 28.0999 15.9012 28.3 15.7012 28.6C15.5012 28.8 15.1012 28.9999 14.8012 28.7999C14.7012 28.7999 14.7012 28.7 14.6012 28.7C14.1012 28.9 14.0012 28.7 14.2012 28.2C14.2012 28.2 14.2012 28.2 14.2012 28.1C14.1012 28.2 14.0012 28.4 13.8012 28.4C13.4012 28.5 13.3012 28.4 13.2012 28C13.1012 27.6 13.2012 27.5999 13.6012 27.4C13.7012 27.4 13.8012 27.4 13.8012 27.4C13.8012 27.2999 13.8012 27.2 13.8012 27.1C13.8012 26.9 13.6012 26.5999 13.4012 26.4C13.3012 26.2999 13.1012 26.5 12.9012 26.5C12.8012 26.5 12.7012 26.6 12.6012 26.6C12.6012 26.6 12.6012 26.6 12.5012 26.6C12.4012 26.8 12.3012 27.0999 12.1012 27.2999C12.0012 27.4999 11.9012 27.6999 11.8012 27.7999C11.9012 27.7999 12.0012 27.7 12.1012 27.7C12.2012 27.7 12.3012 27.7999 12.4012 27.7999C12.3012 27.9 12.3012 28 12.2012 28.1C11.9012 28.2 11.7012 28.2999 11.4012 28.2999C11.3012 28.4 11.3012 28.5 11.3012 28.5C11.3012 28.5 11.2012 28.6 11.2012 28.7C11.2012 28.8 11.2012 28.9 11.2012 28.9C11.2012 28.9 11.1012 29 11.0012 29C10.9012 29.1 10.8012 29.3 10.7012 29.5C11.1012 29.7 11.0012 29.8 10.9012 30H15.9012C15.9012 29.9 15.9012 29.7 15.8012 29.6C15.8012 29.6 15.9012 29.4 16.0012 29.2999C16.1012 29.2999 16.2012 29.2999 16.3012 29.2999C16.4012 29.4 16.4012 29.5 16.5012 29.6C16.6012 29.7 16.8012 29.7999 16.8012 29.7999C17.0012 29.6999 17.2012 29.7999 17.3012 29.9H23.0012L23.6012 29.2999H23.5012C23.4012 29.1999 23.3012 29.1999 23.2012 29.2999C22.8012 29.4 22.8012 29.0999 22.6012 28.9C22.4012 28.7 22.6012 28.5 22.7012 28.4C22.8012 28.2999 23.0012 28.1 23.1012 28C23.2012 27.9 23.4012 27.9 23.5012 27.9C23.5012 28 23.5012 28.1999 23.5012 28.2999C23.5012 28.4 23.6012 28.6 23.6012 28.7C23.7012 28.8 23.8012 28.9 23.9012 29.1L25.9012 27C25.8012 26.9 25.8012 26.8 25.7012 26.7C25.7012 26.6 25.8012 26.4 25.8012 26.4C25.8012 26.4 25.8012 26.4 25.9012 26.4V23.7999H25.8012C25.6012 23.8999 25.5012 23.8 25.3012 23.6C24.7012 22.9 24.2012 22.2 23.5012 21.5C23.3012 21.3 23.0012 21.1 22.7012 21C22.3012 20.9 22.1012 20.6 22.1012 20.1C22.1012 19.8 22.0012 19.5 22.1012 19.2C22.3012 19 21.9012 18.6 21.6012 18.7ZM13.7012 29.9C13.5012 29.9 13.2012 29.9 13.0012 29.9C13.0012 29.7999 13.0012 29.7 13.0012 29.7C13.1012 29.6 13.2012 29.6 13.3012 29.6C13.4012 29.6 13.5012 29.6 13.6012 29.6C13.7012 29.6 13.7012 29.6999 13.7012 29.7999C13.8012 29.7999 13.7012 29.9 13.7012 29.9ZM15.9012 25.9C16.0012 26 16.0012 26.1 16.0012 26.2C15.9012 26.2 15.7012 26.2 15.7012 26.2C15.6012 26.1 15.6012 25.9999 15.5012 25.7999C15.7012 25.7999 15.9012 25.7999 15.9012 25.9ZM17.6012 26.6H17.5012C17.5012 26.6 17.5012 26.6 17.6012 26.6C17.6012 26.7 17.5012 26.7999 17.5012 26.9C17.5012 27 17.4012 27 17.3012 27.1C17.1012 27.5 17.1012 27.4999 16.7012 27.2999C16.5012 27.0999 16.3012 27.2 16.3012 27.5C16.2012 27.8 16.1012 27.8 15.8012 27.6C15.7012 27.5 15.6012 27.5 15.4012 27.4C15.3012 27.4 15.2012 27.3 15.2012 27.2C15.2012 27.1 15.3012 27 15.3012 27C15.4012 26.9 15.5012 26.7 15.6012 26.6C15.7012 26.4 15.9012 26.3 16.0012 26.5C16.2012 26.7 16.4012 26.7 16.6012 26.6C16.8012 26.5 17.0012 26.5 17.2012 26.5C17.2012 26.5 17.2012 26.5 17.3012 26.5C17.3012 26.4 17.3012 26.4 17.3012 26.2C17.5012 26.2 17.6012 26.1999 17.7012 26.2999C17.7012 26.4 17.6012 26.6 17.6012 26.6ZM23.5012 24.9C23.7012 24.5999 23.9012 24.1999 24.4012 24.2999C24.5012 24.2999 24.7012 24.3 24.7012 24.4C24.9012 24.7 25.2012 24.6 25.4012 24.5C25.6012 24.5 25.8012 24.4 25.8012 24.6C25.9012 24.8 25.6012 24.9 25.5012 24.9C25.4012 24.9 25.3012 24.9 25.2012 25C25.0012 25.1 24.5012 25.1 24.4012 25.6C24.4012 25.8 24.0012 25.9 23.9012 25.7C23.9012 25.3 23.1012 25.5 23.5012 24.9ZM21.7012 22.7C21.8012 22.8 22.0012 22.8 22.1012 22.9L22.2012 23C22.2012 23.1 22.2012 23.2 22.2012 23.4C22.1012 23.4 21.9012 23.2999 21.8012 23.2999C21.7012 23.2999 21.7012 23.2 21.6012 23.1C21.6012 23 21.6012 22.8 21.7012 22.7ZM21.2012 21.5C21.3012 21.6 21.4012 21.8 21.5012 21.9C21.6012 22.0999 21.6012 22.2999 21.4012 22.2999C21.3012 22.2999 21.2012 22.2 21.0012 22C21.1012 21.8 21.2012 21.6 21.2012 21.5ZM21.0012 20.5C21.1012 20.5 21.1012 20.6 21.2012 20.6C21.1012 20.7 21.1012 20.7999 21.0012 20.7999C21.0012 20.7999 20.9012 20.7 20.7012 20.6C20.8012 20.6 20.9012 20.5 21.0012 20.5ZM19.0012 26.6C18.8012 26.7 18.6012 26.5999 18.5012 26.2999C18.6012 26.0999 18.6012 25.9 18.7012 25.7C18.8012 25.6 19.5012 26 19.5012 26.2C19.6012 26.5 19.2012 26.5 19.0012 26.6ZM19.3012 23.6C19.1012 23.5 18.7012 23.8 18.6012 23.5C18.5012 23.3 18.7012 22.9999 18.6012 22.7999C18.5012 22.3999 18.8012 22.3 19.0012 22.1C19.1012 22 19.3012 22.1 19.5012 22.1C19.6012 22.2 19.7012 22.3 19.8012 22.5L19.9012 22.6C20.0012 22.8 20.2012 22.9 20.1012 23.2C20.0012 23.5 19.6012 23.7 19.3012 23.6ZM21.8012 27.7999C21.7012 27.7999 21.7012 27.8 21.6012 27.7C21.7012 27.6 21.7012 27.5 21.7012 27.5C21.8012 27.5 21.8012 27.6 21.9012 27.6C21.8012 27.7 21.8012 27.7999 21.8012 27.7999ZM22.4012 24.7999C22.5012 24.5999 22.7012 24.5999 22.8012 24.7999C22.9012 24.8999 22.9012 25 22.9012 25.1C23.1012 25.5 23.0012 25.6 22.6012 25.7H22.5012C22.9012 26.1 22.9012 26.9999 22.4012 27.2999C22.1012 27.4999 22.0012 27.5 21.7012 27.2C21.6012 27.1 21.6012 27 21.5012 27C21.4012 26.9 21.3012 26.8 21.2012 26.7C21.2012 26.6 21.1012 26.5 21.2012 26.4C21.2012 26.4 21.1012 26.4 21.1012 26.2999C21.0012 25.9999 21.0012 25.8 21.1012 25.7C21.0012 25.6 20.8012 25.5 20.6012 25.4C20.5012 25.4 20.4012 25.5 20.3012 25.4C20.1012 25.2 19.9012 24.9999 19.9012 24.7999C19.8012 24.5999 20.4012 24.2999 20.6012 24.2999C20.7012 24.2999 20.9012 24.4 21.0012 24.4C21.5012 24.4 21.8012 24.7999 21.7012 25.2999C21.7012 25.2999 21.7012 25.2999 21.7012 25.4C22.0012 25.2999 22.2012 25.0999 22.4012 24.7999Z" fill="#FEFEFE"/>
<path d="M26.0004 22.6999V22.3999C26.0004 22.3999 26.0004 22.4999 25.9004 22.4999C25.9004 22.4999 25.9004 22.5999 26.0004 22.6999Z" fill="#FEFEFE"/>
<path d="M25.9995 22V21.5C25.9995 21.5 25.9995 21.6 25.9995 21.7C25.8995 21.7 25.9995 21.8 25.9995 22Z" fill="#FEFEFE"/>
<path d="M10.3012 23.8H10.2012C10.2012 23.9 10.3012 23.9 10.3012 24C10.3012 24 10.3012 24 10.3012 24.1C10.3012 24 10.3012 23.9 10.3012 23.8Z" fill="#FEFEFE"/>
</svg>
