<svg width="70" height="70" viewBox="0 0 70 70" fill="none" xmlns="http://www.w3.org/2000/svg">
<path d="M55.9901 57.6676C52.178 57.6676 48.4129 57.6676 44.6008 57.6676C43.9889 57.6676 43.9889 57.6676 43.9889 57.0558C43.9889 56.1145 43.8948 56.2087 44.8361 56.2087C52.3662 56.2087 59.8964 56.2087 67.4265 56.2087C67.8971 56.2087 68.0383 56.3499 67.9913 56.7734C67.9442 57.7618 68.1324 57.7147 67.05 57.7147C63.379 57.6676 59.661 57.6676 55.9901 57.6676Z" fill="#D76700"/>
<path d="M8.03231 56.1618C9.82072 56.1618 11.6091 56.1618 13.3975 56.1618C14.0094 56.1618 14.0094 56.1618 14.0094 56.7736C14.0094 57.7149 14.1505 57.6678 13.1152 57.6678C9.63247 57.6678 6.10271 57.6678 2.62003 57.6678C2.0082 57.6678 2.0082 57.6678 2.0082 57.056C2.0082 56.0206 1.96114 56.1618 2.90241 56.1618C4.59669 56.1618 6.33803 56.1618 8.03231 56.1618Z" fill="#D76700"/>
<path d="M14.0569 63.6446C13.2098 63.6446 12.3627 63.6446 11.5626 63.6446C11.1861 63.6446 11.0449 63.5505 11.0449 63.174C11.0449 61.9033 10.9508 62.1386 12.0803 62.0916C13.5863 62.0916 15.0453 62.0916 16.5513 62.0916C16.9749 62.0916 17.1631 62.1857 17.1161 62.6563C17.069 63.7858 17.2573 63.6446 16.1277 63.6446C15.7983 63.6446 15.4218 63.6446 15.0923 63.6446C14.7158 63.6446 14.3864 63.6446 14.0569 63.6446Z" fill="#D76700"/>
<path d="M55.6137 63.174C55.5667 63.4093 55.5196 63.7858 55.4255 63.8329C55.049 63.927 49.9191 63.8799 49.4955 63.8329C49.4484 63.8329 49.4014 63.6917 49.4014 63.5976C49.4014 63.4564 49.4014 63.3622 49.4014 63.2211C49.4014 62.5622 49.3543 62.3739 49.6367 62.3268C49.7779 62.2798 54.6725 62.3268 55.049 62.2798C55.5196 62.2798 55.6608 62.421 55.6137 62.8445C55.5667 62.9857 55.5667 63.0799 55.6137 63.174C55.5667 63.174 55.5667 63.174 55.6137 63.174Z" fill="#D76700"/>
<path d="M38.1058 66.5156C38.2 66.5156 38.2941 66.6097 38.3411 66.7038C39.0942 66.7038 39.8001 66.7038 40.5531 66.7038C40.8826 66.7038 40.9767 66.6097 40.9767 66.2803C40.9767 65.5743 40.9767 64.8213 40.9767 64.1153C40.9767 63.7388 40.8355 63.6918 40.5061 63.6918C39.8472 63.6918 39.1412 63.6918 38.4823 63.6918C38.1058 63.6918 37.9176 63.5976 37.9176 63.1741C37.9176 59.5031 37.9176 55.8322 37.9176 52.1612C37.9176 51.7847 38.0588 51.6435 38.4353 51.6435C39.0942 51.6435 39.706 51.5965 40.3649 51.6435C40.8355 51.6435 40.9767 51.5024 40.9767 51.0317C40.9296 50.3728 40.9767 49.761 40.9767 49.1021C40.9767 48.7256 41.1179 48.6315 41.4473 48.6315C41.965 48.6315 42.4827 48.6315 43.0004 48.6315C43.0475 48.5844 43.0945 48.4903 43.1416 48.4432C43.1887 48.3962 43.4711 48.4903 43.5181 48.5844C43.5181 48.5844 43.5181 48.5844 43.5181 48.6315C43.8005 48.6315 43.8946 48.4903 43.8946 48.1609C43.8946 47.0313 43.8946 45.9489 43.8946 44.8194C43.8476 44.8194 43.8005 44.8194 43.7064 44.8194C43.7064 44.8194 43.7064 44.8194 43.7064 44.7723C43.4711 44.7252 43.2828 44.7252 43.0475 44.6782C42.8122 44.6311 42.5769 44.584 42.3886 44.9135C42.2945 45.1017 42.0592 45.1017 42.0121 44.8664C41.965 44.537 41.7297 44.537 41.4944 44.4899C41.3061 44.4429 41.0708 44.4429 41.1649 44.2075C41.1649 44.1134 41.4473 44.0663 41.5885 44.0663C41.8238 44.0663 42.1062 44.1134 42.3415 44.1605C42.6239 44.1605 42.9534 44.2546 43.0945 43.8781C43.1416 43.831 43.2828 43.784 43.3299 43.784C43.8005 43.831 44.2241 43.8781 44.6947 43.9722C44.8359 43.9722 44.93 44.0663 44.9771 44.1134C45.3065 44.1134 45.636 44.1134 46.0125 44.1134C46.0125 44.1134 46.0125 44.1134 46.0125 44.0663C45.9654 43.784 45.8713 43.4545 46.2478 43.3133C46.4831 43.2192 46.6714 43.1251 46.8596 43.031C46.8596 40.066 46.8596 37.101 46.8596 34.136C46.8596 33.7124 46.9537 33.5712 47.3773 33.5712C48.0362 33.6183 48.7421 33.6183 49.401 33.5712C49.8246 33.5712 49.9187 33.7124 49.9187 34.0889C49.8717 34.7007 49.9187 35.3596 49.9187 35.9714C49.8717 36.4421 50.0599 36.5362 50.4835 36.5362C51.0953 36.4891 51.7071 36.4891 52.319 36.5362C52.7425 36.5362 52.9308 36.4421 52.8837 35.9714C52.8367 34.3242 52.8837 32.677 52.8837 31.0298C52.8837 30.6062 52.7425 30.5121 52.366 30.5121C51.4718 30.5121 50.5306 30.5121 49.6364 30.5121V30.5592C49.6364 30.8886 49.6364 31.171 50.0129 31.3592C50.107 31.4063 50.0599 31.6416 50.107 31.8769C50.0129 32.0181 49.9187 32.2534 49.7775 32.3005C49.5422 32.3476 49.401 32.2064 49.2598 31.9711C48.8833 31.4534 49.1187 30.9827 49.1657 30.5121C48.5539 30.5121 47.9891 30.5121 47.3773 30.5121C46.9537 30.5121 46.8125 30.418 46.8125 29.9473C46.8596 28.3942 46.8125 26.8412 46.8125 25.2881C46.8125 24.535 46.8126 24.535 47.5656 24.535C47.895 24.535 48.2245 24.535 48.601 24.535C48.601 24.4409 48.601 24.3468 48.601 24.2527C48.601 24.2056 48.7421 24.0644 48.8363 24.1115C48.9304 24.1115 49.0245 24.2056 49.0716 24.2997C49.1187 24.3468 49.0716 24.4409 49.0716 24.535C52.1307 24.535 55.2369 24.535 58.296 24.535C58.6725 24.535 58.8608 24.4409 58.8608 24.0174C58.8608 23.4055 58.8608 22.7937 58.8608 22.1819C58.8608 21.4759 58.8608 21.4759 58.2019 21.4759C57.2606 21.4759 56.2723 21.4759 55.331 21.4759C55.331 21.5701 55.1898 21.6171 55.0957 21.7112C55.0486 21.6171 54.9545 21.523 54.9545 21.4759C53.4485 21.4759 51.9425 21.4759 50.4364 21.4759C50.0129 21.4759 49.9187 21.3347 49.9187 20.9582C49.9658 20.3464 49.9658 19.6875 49.9187 19.0757C49.9187 18.6051 50.0599 18.5109 50.4835 18.5109C54.3898 18.5109 58.296 18.5109 62.2023 18.5109C62.1552 18.4639 62.1081 18.4168 62.0611 18.3697C62.2023 18.2756 62.2964 18.1815 62.3905 18.1815C62.4847 18.1815 62.5788 18.3227 62.5788 18.4168C62.5788 18.4639 62.5317 18.4639 62.5317 18.5109C63.1435 18.5109 63.7083 18.5109 64.3201 18.5109C64.7437 18.5109 64.8849 18.3697 64.8849 17.9462C64.8849 17.805 64.8849 17.6167 64.8849 17.4755C64.8378 17.4285 64.7437 17.3814 64.6966 17.3344C64.5554 17.3344 64.4142 17.2873 64.2731 17.2402C64.226 17.2402 64.1789 17.099 64.1789 17.0049V16.9578C64.0377 16.9108 63.8495 16.9108 63.7083 16.8637C63.5671 16.8167 63.473 16.7225 63.3318 16.6284C63.4259 16.5343 63.52 16.4402 63.6142 16.346C63.7083 16.2519 63.7554 16.1107 63.8024 16.0166C63.8966 15.7813 63.9436 15.5459 64.0377 15.3577C64.1319 15.0753 64.5084 14.9812 64.7437 15.1694C64.7908 15.2165 64.7437 15.4048 64.6966 15.4518C64.3201 15.7813 64.3672 15.7342 64.6496 16.1107C64.6966 16.2048 64.7908 16.299 64.8849 16.3931C64.8849 14.9341 64.8849 13.5222 64.8849 12.0633C64.7908 12.1103 64.6966 12.1574 64.6496 12.2044C64.4613 12.0162 64.2731 11.9221 64.226 11.7809C64.1789 11.5456 64.4142 11.4985 64.6025 11.5456C64.6966 11.5456 64.7908 11.5926 64.8849 11.5926C64.8849 9.5689 64.8849 7.59224 64.8849 5.56851C64.8849 5.23907 64.7908 5.09788 64.6025 5.05082C64.6025 5.05082 64.6025 5.05082 64.5554 5.05082C64.5084 5.05082 64.5084 5.05082 64.4613 5.05082C64.4142 5.05082 64.4142 5.05082 64.3672 5.05082C63.7083 5.05082 63.0965 5.05082 62.4376 5.05082C62.0611 5.05082 61.9199 4.95669 61.967 4.58018C61.967 4.20368 61.967 3.82717 61.967 3.49773C61.9199 3.68598 61.7787 3.73304 61.4963 3.68598C61.4493 4.06249 61.5904 4.43899 61.8258 4.67431C62.1552 4.95669 62.1081 5.19201 61.7316 5.3332C61.5434 5.42732 61.4022 5.56851 61.2139 5.66264C61.1198 5.7097 60.9786 5.85089 60.9316 5.80383C60.8374 5.7097 60.7433 5.61558 60.6962 5.47439C60.6962 5.19201 60.6962 4.86256 60.7433 4.58018C60.7433 4.34487 60.7904 4.15661 60.508 3.96836C60.3668 3.87423 60.2727 3.68598 60.3197 3.49773C60.3197 3.49773 60.3197 3.49773 60.3197 3.45066C60.1315 3.4036 60.0374 3.26241 60.0844 3.02709C60.0844 2.79178 60.2256 2.69765 60.3668 2.69765C60.4139 2.46233 60.4139 2.22702 60.4609 1.9917C58.3431 1.9917 56.2723 1.9917 54.1544 1.9917C54.1544 2.08583 54.1074 2.22702 54.0603 2.27408C53.9191 2.32114 53.7779 2.32114 53.6367 2.32114C53.5426 2.32114 53.4955 2.27408 53.4014 2.22702C53.3544 2.17995 53.3073 2.08583 53.2602 2.03876C52.8837 2.03876 52.5072 2.03876 52.1778 2.03876C52.1778 2.08583 52.1778 2.08583 52.1778 2.13289C52.1307 2.46233 52.0366 2.55646 51.6601 2.5094C51.3777 2.46233 51.1894 2.41527 51.2836 2.08583C50.8129 2.08583 50.3423 2.08583 49.8717 2.08583C46.0595 2.08583 42.2474 2.08583 38.3882 2.08583C37.9646 2.08583 37.8234 2.22702 37.8234 2.65059C37.8234 3.30947 37.8234 3.96836 37.8234 4.62725C37.8234 5.05082 37.6823 5.14494 37.3058 5.14494C36.6469 5.09788 35.988 5.14494 35.3291 5.14494C34.9055 5.14494 34.8114 5.28613 34.8114 5.66264C34.8114 6.55685 34.8114 7.45105 34.8114 8.39232C34.8585 8.34525 34.9055 8.29819 34.9996 8.25113C35.1408 8.20406 35.282 8.06287 35.3762 8.10994C35.4703 8.157 35.5173 8.34525 35.5644 8.48644C35.6115 8.58057 35.5644 8.6747 35.5644 8.76882C35.5644 8.86295 35.5173 8.95708 35.5173 9.0512C35.4232 9.23946 35.4703 9.5689 35.1408 9.52184C35.0467 9.52184 34.9526 9.47477 34.8585 9.47477C34.8585 9.75715 34.8585 10.0395 34.8585 10.3219C34.8585 11.122 34.8585 11.9221 34.8585 12.7221C34.9055 12.6751 34.9996 12.6751 35.0467 12.581C35.3762 12.2986 35.8468 12.4868 36.035 12.8633C36.1762 13.0987 36.2704 13.0987 36.5057 12.9575C36.5998 12.8633 36.741 12.7692 36.8822 12.7692C37.0704 12.7692 37.3528 12.8163 37.3999 12.9575C37.494 13.1457 37.4469 13.381 37.3528 13.5693C37.3528 13.6634 37.1175 13.7105 37.0234 13.7105C36.6469 13.6634 36.2233 13.6163 35.8468 13.5693C35.5644 13.5222 35.282 13.5222 34.9526 13.4752C34.9055 13.4752 34.9055 13.4752 34.8585 13.4752C34.8585 14.0399 34.8585 14.6047 34.8585 15.1224C35.0467 15.0753 35.235 15.0282 35.4703 15.0282C35.6585 15.0282 35.8468 15.1224 36.035 15.1694C36.0821 15.1694 36.1292 15.2636 36.1292 15.3106C36.1292 15.3577 36.0821 15.4048 36.035 15.4048C35.8468 15.4048 35.6585 15.4048 35.3291 15.4048C35.235 15.3577 35.0467 15.2165 34.9055 15.1224C34.9055 15.7342 34.9055 16.299 34.9055 16.9108C34.9996 16.9108 35.0938 16.9108 35.235 16.9578C35.5173 17.0049 35.6115 17.1932 35.5173 17.6638C35.4703 17.9932 35.3291 18.0874 34.9526 17.9932C34.9526 19.9699 34.9526 21.9936 34.9526 23.9703C34.9526 24.6292 34.9526 24.6292 34.2937 24.6292C33.6819 24.6292 33.023 24.6292 32.4112 24.6292C32.0817 24.6292 31.9405 24.7704 31.9405 25.0998C31.9405 25.7587 31.9405 26.4646 31.9405 27.1235C31.9405 27.5471 31.7993 27.6883 31.3758 27.6883C30.5286 27.6883 29.6344 27.6883 28.7873 27.6883C28.7873 27.8765 28.7402 28.0648 28.4578 28.0648C28.3637 28.0648 28.1755 27.8765 28.0343 27.6883C27.9872 27.6883 27.8931 27.6883 27.846 27.6883C27.4695 27.6883 27.3754 27.8295 27.3754 28.1589C27.3754 28.5825 27.3754 29.0061 27.3754 29.4296C27.4695 29.4767 27.5166 29.4767 27.6107 29.5238C27.846 29.6179 28.0343 29.8532 28.2225 29.9003C28.4108 29.9473 28.599 29.712 28.8343 29.665C29.0697 29.6179 29.305 29.665 29.4932 29.7591C29.8227 29.9003 29.9639 30.2768 29.7756 30.5592C29.7285 30.6533 29.5403 30.7003 29.4462 30.7003C29.2109 30.7003 28.9285 30.6533 28.6932 30.6533C28.6932 30.6533 28.6932 30.6533 28.6932 30.6062C28.2696 30.5592 27.799 30.5121 27.3754 30.465C27.3283 30.6533 27.1871 30.7003 26.9047 30.7003C26.4812 30.7003 26.0576 30.7003 25.634 30.7003C24.9281 30.7003 24.1751 30.7003 23.4691 30.7003C23.0456 30.7003 22.9044 30.7945 22.9044 31.2651C22.9514 31.924 22.9044 32.5829 22.9044 33.2418C22.9044 33.6183 22.8102 33.7595 22.4337 33.7595C21.7748 33.7124 21.0689 33.7595 20.41 33.7595C20.0335 33.7595 19.8923 33.8536 19.8923 34.2772C19.8923 34.9831 19.8923 35.6891 19.8923 36.395C19.8923 36.7245 19.7982 36.8186 19.4687 36.8186C19.3275 36.8186 19.2334 36.8186 19.0922 36.8186C19.0452 36.8657 18.9981 36.8657 18.951 36.9127C18.904 36.9127 18.8569 36.9598 18.8099 36.9598C18.6687 37.0539 18.4804 37.2892 18.3863 37.2422C18.198 37.148 18.0568 36.9598 17.8686 36.8186C17.3038 36.8186 16.7391 36.8186 16.2214 36.8186C16.0802 36.9598 15.8919 37.0539 15.6095 37.0068C15.5154 36.9598 15.4213 36.8657 15.3272 36.8186C14.9977 36.8186 14.6683 36.8186 14.3388 36.8186C14.1976 36.8186 14.1035 36.7715 14.0565 36.7715C13.7741 36.7715 13.4917 36.6774 13.2093 36.4421C13.0681 36.348 12.9269 36.2538 12.7387 36.2068C12.5504 36.1597 12.3622 36.1126 12.4092 35.8773C12.4563 35.642 12.3622 35.3596 12.6445 35.2184C12.7857 35.1714 12.8328 35.0302 12.974 34.9361C13.0681 34.889 13.1622 34.8419 13.2564 34.8419C13.3034 34.8419 13.3505 34.9831 13.3976 35.0772C13.3976 35.1243 13.3976 35.1714 13.3976 35.1714C13.3505 35.4537 13.3505 35.7361 13.7741 35.8303H13.8211C13.8211 35.3126 13.8211 34.7478 13.8211 34.2301C13.8211 33.9007 13.727 33.8065 13.3976 33.8065C12.6916 33.8065 11.9857 33.8065 11.2797 33.8065C10.9973 33.8065 10.8561 33.7124 10.8091 33.5242C10.762 33.5242 10.6679 33.5242 10.6208 33.5242C10.5738 33.8536 10.5267 34.136 10.4796 34.4654C10.4326 34.7949 10.2443 34.889 10.009 34.8419C9.96194 35.0772 9.96194 35.3596 9.91487 35.5949C9.86781 35.6891 9.72662 35.7361 9.67956 35.8303C9.63249 35.7361 9.4913 35.642 9.4913 35.5479C9.44424 35.1243 9.63249 34.9361 10.0561 34.889C10.1031 34.5595 10.1502 34.2772 10.1502 33.9477C10.1502 33.6183 10.3384 33.43 10.6679 33.5242C10.6679 33.3359 10.715 33.1947 10.8561 33.1006C10.8561 32.5358 10.8561 31.9711 10.8561 31.4063C10.8561 30.7945 10.8561 30.7945 10.2443 30.7945C9.63249 30.7945 9.02067 30.7474 8.40885 30.7945C7.98528 30.8415 7.89115 30.6533 7.89115 30.2768C7.89115 29.5708 7.89115 28.8649 7.89115 28.1589H7.84409C7.56171 28.1119 7.27933 28.0648 6.94988 28.0177C6.6675 27.9707 6.43219 27.9236 6.24393 28.2531C6.14981 28.3942 6.00862 28.3472 5.96155 28.1589C5.96155 28.0648 5.91449 28.0177 5.91449 27.9236C5.91449 27.5471 5.7733 27.3589 5.34973 27.3118C5.20854 27.3118 5.06735 27.1706 5.02028 27.0765C4.97322 26.8882 5.11441 26.7941 5.30266 26.7C5.91449 26.4176 5.91449 26.4176 5.96155 27.0294C6.00862 27.2177 6.05568 27.3589 6.291 27.4059C6.47925 27.453 6.76163 27.5471 6.85576 27.2647C6.99695 26.8882 7.46758 26.9823 7.7029 26.7C7.7029 26.7 7.79702 26.7 7.89115 26.747C7.89115 26.2764 7.89115 25.8058 7.89115 25.3351C7.89115 24.7704 7.84409 24.7233 7.27933 24.7233C6.6675 24.7233 6.10274 24.7704 5.49092 24.7233C5.06735 24.7233 4.92616 24.8645 4.92616 25.2881C4.92616 27.9236 4.92616 30.5121 4.92616 33.1476C4.92616 35.2184 4.92616 37.2892 4.92616 39.36C4.97322 39.2659 5.06735 39.1718 5.11441 39.0776C5.2556 38.7011 5.30266 38.7011 5.53798 39.0306C5.72624 39.2659 6.05568 39.36 6.10274 39.7365C6.10274 39.7836 6.47925 39.8306 6.71457 39.8306C6.80869 39.8306 6.94988 39.6424 6.94988 39.5012C6.99695 39.2659 6.99695 38.9835 7.09107 38.7482C7.13814 38.607 7.27933 38.5129 7.37345 38.4187C7.42052 38.5599 7.60877 38.7011 7.56171 38.7482C7.32639 39.2659 7.79702 39.5012 7.98528 39.8777C8.0794 40.066 8.26766 40.066 8.36178 39.8777C8.50297 39.5953 8.73829 39.6424 8.97361 39.6424C9.77368 39.7365 10.5267 39.8306 11.3268 39.9248C12.268 40.0189 13.2093 40.113 14.1035 40.2542C14.433 40.3013 14.7624 40.2542 14.9036 40.7248C14.9507 40.9602 16.5037 41.1014 16.692 40.9602C16.9273 40.7719 17.1626 40.5837 17.445 40.3954C17.4921 40.3483 17.6803 40.3954 17.7274 40.4425C18.151 40.9131 18.951 41.0543 19.4217 40.6778C19.657 40.4895 19.9864 40.5366 20.1747 40.7719C20.3629 41.0543 20.5983 41.2896 20.8336 41.5249C20.8806 41.572 21.0689 41.572 21.0689 41.5249C21.2571 41.1955 21.5866 41.1955 21.869 41.1484C22.1513 41.1014 22.1984 40.9131 22.1984 40.6778C22.2455 40.4425 22.3396 40.2542 22.622 40.3013C22.8573 40.3483 23.1397 40.3954 23.1397 40.7248C23.1867 41.2425 23.3279 41.3837 23.8927 41.4308C24.4575 41.4779 25.0222 41.5249 25.587 41.572C25.6811 41.572 25.7752 41.572 25.8223 41.572C26.0576 41.7132 26.2929 41.0072 26.5282 41.572C26.6224 41.8544 27.093 41.7602 27.093 42.1838C27.093 42.2309 27.2813 42.325 27.3754 42.325C27.5636 42.3721 27.7048 42.3721 27.8931 42.3721C28.0813 42.3721 28.3166 42.5133 28.4108 42.2309C28.4578 41.9956 28.6461 41.7132 28.3637 41.5249C28.2225 41.3837 28.0813 41.2896 28.1755 41.1014C28.2225 41.0543 28.3637 40.9602 28.4108 40.9602C28.599 41.0543 28.7873 41.1484 29.0226 41.2896V41.3837C29.0226 41.9014 29.352 42.0426 29.7756 42.1367C30.3874 42.2779 30.3874 42.2779 30.5286 41.619C30.5757 41.4308 30.6228 41.2896 30.8581 41.3367C31.0463 41.3837 31.0934 41.5249 30.9993 41.7132C30.811 42.0897 31.0463 42.2309 31.3287 42.2779C31.6111 42.3721 31.8935 42.4191 32.1758 42.4662C32.4582 42.5133 32.7406 42.5133 32.8818 42.8898C32.9759 43.1251 33.4936 43.1251 33.7289 42.9368C34.0113 42.7015 34.7173 42.7015 34.9996 42.9368C35.0938 43.0309 35.0467 43.1721 35.235 42.9839C35.5173 42.7015 36.035 42.8898 36.2233 43.2192C36.3645 43.4545 36.5527 43.6898 36.741 43.8781C36.7881 43.9252 36.9292 43.9252 36.9292 43.9252C37.1175 43.5957 37.4469 43.5957 37.6823 43.4075C38.0117 43.1721 37.9646 43.1721 38.0588 43.5486C38.1529 44.0193 38.1058 44.4429 37.8705 44.8664C37.8234 44.9135 37.5881 44.9135 37.5881 44.9135C37.3999 44.4429 36.9763 44.4899 36.5998 44.4429C36.3645 44.3958 36.1292 44.3958 36.035 44.0663C35.988 43.8781 35.7527 43.831 35.6585 44.0663C35.5644 44.3017 35.3762 44.3487 35.1879 44.3017C34.5761 44.2546 33.9643 44.3487 33.5407 43.6898C33.3995 43.5016 32.8347 43.5016 32.6935 43.6898C32.5524 43.9252 32.3641 43.8781 32.1758 43.8781C31.6111 43.784 30.9993 43.7369 30.4345 43.6428C29.9639 43.5957 29.4462 43.5016 29.0226 43.831C28.9755 43.8781 28.8343 43.8781 28.7873 43.831C28.599 43.5957 28.4578 43.3604 28.3167 43.1251C28.1284 42.8427 27.9872 42.7956 27.799 43.078C27.6578 43.2663 27.5636 43.2663 27.3754 43.2663C26.4812 43.1721 25.634 43.0309 24.7398 42.9368C24.4575 42.8898 24.128 42.9839 23.8456 43.1251C23.4691 43.3133 23.1397 43.2663 22.8573 42.8898C22.669 42.6544 22.3867 42.5603 22.2455 42.2309C22.1984 42.0897 21.5866 42.0897 21.4454 42.2779C21.3042 42.4662 21.116 42.4662 20.9277 42.4662C20.5983 42.4191 20.2218 42.4191 19.8923 42.325C19.5158 42.2779 19.1864 42.2779 18.904 42.5133C18.7157 42.6544 18.6216 42.6544 18.4333 42.4662C18.2451 42.325 18.0098 42.0897 17.8215 42.0897C17.3038 42.0897 16.8332 41.9014 16.2684 42.1838C15.939 42.3721 15.3742 42.325 14.9977 41.9014C14.6683 41.5249 14.3388 41.5249 13.9153 41.8073C13.6329 41.9956 13.2093 41.9956 13.0211 41.7132C12.8328 41.4779 12.7387 41.4779 12.5034 41.6661C12.221 41.8544 11.8445 41.7602 11.6092 41.5249C11.468 41.4308 11.3268 41.3367 11.1856 41.2425C11.1385 41.2425 11.0915 41.1955 11.0915 41.1955C10.6679 41.572 10.715 40.113 10.1502 40.9602C9.72662 40.9131 9.25599 40.9131 8.83242 40.866C8.12647 40.819 7.46758 40.7719 6.76163 40.7248C6.38512 40.6778 5.91449 40.6778 5.7733 40.1601C5.7733 40.066 5.58505 40.0189 5.49092 40.0189C5.2556 39.9718 5.06735 39.9718 4.83203 39.9248C4.83203 40.5837 4.83203 41.1955 4.83203 41.8544C4.83203 42.5133 4.83203 42.5133 5.49092 42.5133C6.05568 42.5133 6.57338 42.5133 7.13814 42.5133C7.84409 42.5133 7.84409 42.5133 7.84409 43.1721C7.84409 43.5486 7.84409 43.8781 7.84409 44.2546C8.17353 44.2546 8.31472 44.1134 8.36178 43.7369C8.40885 43.2663 9.1148 42.8898 9.53837 43.031C9.58543 43.031 9.63249 43.0309 9.63249 43.078C9.82075 43.4545 10.1973 43.6428 10.5738 43.6898C10.6208 43.6898 10.6679 43.831 10.6208 43.8781C10.6208 43.9252 10.5267 44.0193 10.4796 44.0193C10.2443 44.0193 10.009 44.0193 9.77368 43.9722C9.77368 43.9722 9.77368 43.9722 9.77368 43.9252C9.53837 43.9252 9.25599 43.8781 9.02067 43.8781C8.92654 43.8781 8.83242 43.9722 8.83242 44.0663C8.83242 44.1134 8.87948 44.2546 8.97361 44.3017C9.06773 44.3958 9.20892 44.3958 9.35011 44.4429C9.44424 44.4899 9.58543 44.537 9.58543 44.584C9.63249 44.8194 9.67956 45.0547 9.63249 45.29C9.63249 45.3371 9.39718 45.4312 9.30305 45.4312C9.06773 45.4312 8.78535 45.5253 8.64416 45.1959C8.5971 45.1017 8.50297 45.0076 8.45591 44.9135C8.36178 45.0076 8.22059 45.1017 8.22059 45.1959C8.17353 45.29 8.12647 45.3841 8.0794 45.4782C8.12647 45.4782 8.22059 45.5253 8.31472 45.5253C9.02067 45.5253 9.72662 45.5253 10.4326 45.5253C10.5738 45.5253 10.6679 45.5724 10.762 45.6194C10.9032 45.4312 11.0915 45.29 11.2797 45.1959C11.7503 45.0547 11.7974 44.7252 11.8445 44.3487C11.8915 44.1134 11.8915 43.831 11.9386 43.5957C11.9386 43.5016 12.0798 43.4545 12.1739 43.4075C12.221 43.5016 12.3622 43.5957 12.3622 43.6428C12.3622 43.8781 12.3622 44.0663 12.3151 44.3017C12.268 44.537 12.268 44.7252 12.5034 44.8664C12.5975 44.9135 12.6445 45.1017 12.6916 45.1959C12.6916 45.4782 12.6916 45.8077 12.6445 46.0901C12.6445 46.1842 12.5034 46.3254 12.4092 46.3724C12.3151 46.3724 12.1269 46.2783 12.0798 46.2313C11.9386 45.8077 11.8445 45.7606 11.5621 46.1371C11.4209 46.3254 11.0915 46.3254 10.9503 46.6078C10.9503 46.6078 10.9503 46.6078 10.9032 46.6078C10.9032 47.1255 10.9032 47.6432 10.9032 48.1609C10.9032 48.4903 11.0444 48.6315 11.3738 48.6315C12.0327 48.6315 12.7387 48.6315 13.3976 48.6315C13.8211 48.6315 13.9153 48.7727 13.9153 49.1492C13.9153 49.8081 13.9153 50.514 13.9153 51.1729C13.9153 51.3612 13.9623 51.4553 14.0094 51.5494C14.2447 51.5024 14.48 51.5494 14.7624 51.5965C14.8565 51.5965 14.9036 51.5965 14.9977 51.6435C15.233 51.6906 15.4213 51.5494 15.6566 51.4553C15.7037 51.4553 15.8449 51.5965 15.939 51.6906C16.1272 51.6906 16.2684 51.6906 16.4567 51.6906C16.692 51.6906 16.8332 51.7377 16.8803 51.8789C17.0685 51.8789 17.2568 51.8318 17.445 51.6906C17.7745 51.4553 18.198 51.6435 18.4804 51.973C18.5275 52.0671 18.6216 52.1142 18.6687 52.1612C18.904 52.3495 18.8569 52.4436 18.6216 52.5377C18.5275 52.5848 18.3863 52.6319 18.3392 52.726C18.2451 52.9143 18.151 53.0554 17.9156 53.0554C17.8215 53.0554 17.7745 53.1496 17.6803 53.1966C17.445 53.432 17.1156 53.4319 16.8803 53.2908C16.8803 53.5731 16.8803 53.8085 16.8803 54.0908C16.8803 54.4203 16.9744 54.6085 17.3509 54.5615C17.9627 54.5144 18.5275 54.5615 19.1393 54.5615C20.0335 54.5615 19.9394 54.4203 19.9394 55.3615C19.9394 58.2324 19.9394 61.0562 19.9394 63.9271C20.3159 64.3036 20.8336 64.3507 21.3513 64.0683C21.4454 64.0212 21.6807 64.0212 21.7278 64.0683C21.9631 64.4448 22.3396 64.4918 22.7161 64.5389C23.0456 64.586 23.1867 64.7742 23.1867 65.1037C23.2338 65.4802 23.1397 65.5743 22.7632 65.5272C22.0572 65.4331 21.3983 65.339 20.7394 65.2449C20.5512 65.1978 20.3629 65.1507 20.2218 64.9154C20.1747 64.8213 20.0806 64.7272 19.9394 64.6801C19.9394 65.1507 19.9394 65.6214 19.9394 66.092C19.9394 66.4214 19.9394 66.6568 20.3629 66.6568C22.1043 66.6568 23.7986 66.6568 25.5399 66.6568C25.8223 66.6568 25.9635 66.5156 25.9164 66.2332C25.9164 65.4802 25.9164 64.7742 25.9164 64.0212C25.9164 63.6918 25.8223 63.5976 25.4928 63.5976C24.7869 63.5976 24.0809 63.5976 23.375 63.5976C23.0456 63.5976 22.8573 63.5035 22.8573 63.127C22.8573 62.4211 22.8573 61.7151 22.8573 61.0092C22.8573 60.6797 22.9514 60.5385 23.3279 60.5385C24.0339 60.5385 24.6928 60.5385 25.3987 60.5385C25.8223 60.5385 25.9164 60.3973 25.9164 60.0208C25.8694 59.3619 25.9164 58.703 25.9164 58.0442C25.9164 57.6677 26.0105 57.4794 26.4341 57.5265C27.093 57.5735 27.799 57.5265 28.4578 57.5265C28.7873 57.5265 28.8814 57.3853 28.8814 57.1029C28.8814 56.3969 28.8814 55.691 28.8814 54.985C28.8814 54.6556 29.0226 54.5615 29.305 54.5615C30.0109 54.5615 30.7639 54.5615 31.4699 54.5615C31.7993 54.5615 31.9405 54.6556 31.9405 55.0321C31.9405 55.7381 31.9405 56.444 31.9405 57.15C31.9405 57.4794 32.0347 57.5735 32.3641 57.5735C33.023 57.5735 33.6819 57.5735 34.3408 57.5735C34.9055 57.5735 34.9055 57.5735 34.9055 58.1854C34.9055 60.8209 34.9055 63.4564 34.9055 66.092C34.9055 66.3744 34.9055 66.6568 35.3291 66.6568C35.7997 66.6568 36.3174 66.6568 36.7881 66.6568C36.7881 66.6097 36.741 66.6097 36.741 66.5626C36.8822 66.4685 37.0234 66.3273 37.1175 66.3744C37.2116 66.4214 37.3528 66.6097 37.3528 66.6568C37.494 66.6568 37.6352 66.6568 37.7764 66.6568C37.9646 66.6568 38.0588 66.5156 38.1058 66.5156ZM42.671 46.9372C42.718 46.8901 42.8122 46.6548 42.9534 46.5607C43.1887 46.4666 43.3299 46.6548 43.3769 46.8901C43.3769 46.9372 43.424 46.9843 43.424 47.0313C43.5181 47.2196 43.5652 47.4078 43.6593 47.549C43.424 47.5961 43.2357 47.7373 43.0004 47.7373C42.671 47.7844 42.5768 47.549 42.671 46.9372ZM50.5776 32.3946C50.5776 32.3005 50.7659 32.2534 50.9071 32.2064C50.9071 32.2534 50.9071 32.3005 50.9071 32.3476C51.3306 32.3476 51.8013 32.3946 52.2248 32.3946C52.7896 32.4417 53.0249 32.7241 52.8837 33.1947C52.8367 33.2888 52.7425 33.43 52.6955 33.43C52.6013 33.43 52.4602 33.3359 52.4602 33.2888C52.319 32.9123 52.2248 32.9123 51.9425 33.1947C51.7071 33.4771 51.1424 33.3359 50.9541 33.0535C50.86 32.9594 50.7659 32.8653 50.7188 32.7711C50.6247 32.677 50.5306 32.5358 50.5776 32.3946ZM47.4714 31.5004C47.5656 31.0769 47.8479 31.171 48.1303 31.171C48.4598 31.2651 48.5539 31.5004 48.4598 31.9711C48.4598 32.0181 48.4127 32.0652 48.4127 32.1122C48.5068 32.1593 48.601 32.2534 48.601 32.3476C48.601 32.4417 48.4598 32.4888 48.3656 32.6299C48.3186 32.4888 48.2244 32.3946 48.2244 32.3005C48.1303 32.3476 47.9891 32.3005 47.8479 32.3005C47.4714 32.1593 47.3773 31.9711 47.4714 31.5004ZM64.226 12.2515C64.2731 12.2515 64.3201 12.3456 64.3672 12.3927C64.2731 12.4398 64.226 12.4868 64.1319 12.4868C64.0848 12.4868 64.0377 12.3927 63.9436 12.2986C64.0848 12.2986 64.1319 12.2515 64.226 12.2515ZM57.3547 18.4639C57.3077 18.4639 57.1665 18.3227 57.1665 18.2286C57.1665 18.1344 57.3077 18.0403 57.4489 17.8991C57.543 18.0874 57.6842 18.1815 57.6371 18.2756C57.6371 18.3697 57.4959 18.4639 57.3547 18.4639ZM58.6725 16.3931C58.6255 16.3931 58.5784 16.3931 58.4843 16.3931C58.4843 16.6284 58.3901 16.8637 58.0136 16.9108C58.0136 16.9108 57.9666 16.9108 57.9666 16.9578C57.7783 17.099 57.6842 17.3814 57.4018 17.1461C57.2606 17.0049 57.3077 16.4402 57.4959 16.2519C57.1194 16.2048 56.7429 16.1578 56.3664 16.1107C56.1782 16.0636 55.9899 16.0166 56.084 15.7813C56.1311 15.5459 56.2723 15.593 56.4605 15.6401C56.9312 15.6871 57.4489 15.7342 57.9195 15.7813C57.8724 15.6871 57.8254 15.6401 57.6842 15.5459C57.5901 15.4518 57.543 15.2636 57.543 15.1224C57.543 14.4164 57.5901 13.7105 57.6842 13.0045C57.7313 12.6751 57.8724 12.581 58.5313 12.6751C58.5784 12.7221 58.8608 12.8633 58.8608 13.0045C58.8608 13.334 58.9549 13.8046 58.5313 13.9929C58.1078 14.134 58.1078 14.3223 58.4372 14.5576L58.4843 14.6047C58.4843 15.0282 58.5784 15.4518 58.5313 15.8754C58.5784 15.8754 58.6725 15.8754 58.7196 15.8754C58.9549 15.8754 59.0961 15.9695 59.0961 16.2048C59.049 16.4402 58.8608 16.4402 58.6725 16.3931ZM58.1078 12.1103C58.1548 12.0633 58.2489 11.9691 58.296 12.0162C58.3901 12.0633 58.4372 12.1103 58.4843 12.2044C58.4372 12.2515 58.3901 12.2986 58.296 12.3927C58.2019 12.2515 58.1548 12.1574 58.1078 12.1103ZM59.002 11.3102C58.9549 11.6397 58.6255 11.5456 58.4372 11.4985C58.2019 11.4985 57.9666 11.4514 57.9666 11.122C57.9666 10.8867 58.0136 10.6043 58.0607 10.369C58.0607 10.2278 58.0607 10.0395 58.1078 9.89834C58.1548 9.71009 58.2489 9.5689 58.296 9.38065C58.3901 9.47477 58.5313 9.5689 58.6255 9.66303C58.8137 9.80422 59.0961 9.94541 59.1432 10.0866C59.1432 10.4631 59.049 10.8867 59.002 11.3102ZM58.4372 6.50978C58.4372 6.41566 58.7196 6.2274 58.8137 6.2274C59.049 6.32153 59.2373 6.50978 59.4726 6.65097C59.3314 6.79216 59.1432 6.88629 59.0961 6.93335C58.6725 6.88629 58.3901 6.88629 58.4372 6.50978ZM59.5667 13.381C59.9903 13.1928 60.0374 13.0516 59.6609 12.7692C59.6138 12.7221 59.5667 12.581 59.5667 12.4868C60.0844 12.2986 60.2727 11.4514 61.0257 11.7809C61.2139 11.875 61.4493 11.8279 61.6375 11.9221C61.7316 11.9691 61.8258 12.0633 61.8258 12.1574C61.8258 12.2515 61.7316 12.3927 61.6375 12.4398C60.9786 12.8163 60.508 13.334 60.508 14.134C60.508 14.4164 60.508 14.7459 60.0844 14.6988C59.802 14.6517 59.4726 14.5576 59.2843 14.3694C59.1432 14.1811 59.3314 13.4752 59.5667 13.381ZM61.1669 16.7696C61.0727 16.7696 60.9786 16.8637 60.8845 16.9108C60.7433 16.9578 60.6021 17.099 60.4139 17.099C59.9432 17.099 59.8491 17.0049 59.9432 16.4872C59.9432 16.299 60.0374 16.1578 60.3197 16.0636C60.6021 15.9695 60.7433 15.6401 61.1198 15.7342C61.4493 15.8283 61.4963 16.0166 61.5434 16.2519C61.5904 16.5343 61.4963 16.7696 61.1669 16.7696ZM61.7316 16.5343C61.6846 16.5343 61.5434 16.3931 61.5904 16.3931C61.6375 16.299 61.7316 16.2519 61.8258 16.1578C61.9199 16.2519 61.967 16.346 62.014 16.3931C61.8728 16.4402 61.7787 16.5343 61.7316 16.5343ZM63.4259 6.69804C63.52 6.7451 63.5671 6.79216 63.6142 6.88629C63.5671 6.93335 63.52 6.98042 63.4259 7.07454C63.3789 6.98042 63.2847 6.88629 63.2847 6.83923C63.2847 6.7451 63.3789 6.65097 63.4259 6.69804ZM62.767 16.3931C62.8141 16.5343 62.9082 16.6284 62.9082 16.7225C62.9082 16.8167 62.767 16.9108 62.6729 16.8637C62.6258 16.8637 62.4847 16.7225 62.5317 16.6284C62.5317 16.5343 62.6258 16.4872 62.767 16.3931ZM62.5317 12.2044C62.4847 12.3456 62.4376 12.4868 62.3905 12.5339C62.3435 12.628 62.2493 12.6751 62.2023 12.7221C62.1552 12.628 62.0611 12.581 62.0611 12.4868C62.014 12.3927 62.014 12.2986 62.014 12.2044C62.014 12.0633 62.0611 11.9691 62.1552 11.875C62.2023 11.8279 62.3905 11.8279 62.4376 11.9221C62.4846 12.0162 62.4847 12.1574 62.5317 12.2044ZM60.4609 7.02748C60.555 7.02748 60.6021 6.79216 60.6962 6.69804C60.7904 6.55685 60.9316 6.46272 61.0257 6.41566C61.5904 6.50978 61.8258 6.7451 61.8258 7.21573C61.8258 7.49811 61.8258 7.73343 62.2023 7.87462C62.4846 7.96875 62.4376 8.20406 62.2023 8.29819C61.5904 8.48644 61.4022 9.0512 61.1198 9.52184C61.0257 9.66303 60.9316 9.85128 60.7904 9.99247C60.6492 9.85128 60.508 9.71009 60.3668 9.61596C59.7079 9.33358 59.9432 8.81589 59.9903 8.29819C60.0374 8.10994 60.0374 7.87462 60.0844 7.68637C60.0374 7.40399 60.0374 7.12161 60.4609 7.02748ZM57.4018 2.93297C57.8724 2.41527 58.4843 2.41527 59.0961 2.5094C59.049 2.46233 58.9549 2.41527 58.9078 2.36821C59.0961 2.32114 59.2843 2.22702 59.5197 2.13289C59.6608 2.27408 59.802 2.41527 59.9432 2.5094C59.8491 2.55646 59.7079 2.69765 59.6609 2.74471C59.6609 2.83884 59.6609 2.98003 59.6609 3.07416C59.6138 3.30947 59.5667 3.49773 59.2373 3.45066C58.9549 3.4036 58.6725 3.4036 58.4372 3.35654C58.1078 3.30947 57.8254 3.30947 57.4959 3.21535C57.4489 3.21535 57.3547 3.12122 57.3547 3.07416C57.3077 3.07416 57.3547 2.98003 57.4018 2.93297ZM56.037 2.22702C56.084 2.22702 56.2252 2.36821 56.1782 2.41527C56.1311 2.5094 56.037 2.55646 55.9428 2.60352C55.8958 2.60352 55.8017 2.5094 55.7075 2.41527C55.8958 2.32114 55.9428 2.22702 56.037 2.22702ZM55.5663 12.1574C55.6134 12.0633 55.7546 12.0633 55.8487 12.0162C55.9428 12.0633 55.9899 12.0633 56.037 12.1103C56.1782 12.2044 56.3664 12.2986 56.5076 12.3927C56.4605 12.4398 56.4605 12.5339 56.4135 12.5339C56.1311 12.5339 55.8958 12.5339 55.6134 12.4868C55.6134 12.4868 55.5193 12.2515 55.5663 12.1574ZM55.2369 17.7579C55.0016 17.9462 54.8133 18.0874 54.578 18.2756C54.5309 18.2756 54.3898 18.1815 54.3427 18.0874C54.2956 17.9932 54.3427 17.8521 54.2956 17.6638C54.3427 17.6167 54.4839 17.3814 54.5309 17.4285C54.7663 17.4755 55.0016 17.5697 55.1898 17.6638C55.284 17.6638 55.284 17.7579 55.2369 17.7579ZM54.7192 3.26241C54.7663 3.21535 54.8133 3.12122 54.8604 3.12122C54.9075 3.12122 54.9545 3.21535 55.0016 3.26241C55.0016 3.30947 55.0016 3.4036 55.0016 3.49773C54.9545 3.63892 54.8604 3.78011 54.7663 3.9213C54.7192 3.78011 54.6721 3.63892 54.6251 3.54479C54.7192 3.4036 54.7192 3.35654 54.7192 3.26241ZM53.6838 10.9808C53.6838 10.9337 53.7309 10.8396 53.7779 10.7455C53.825 10.6514 53.9191 10.5572 54.0132 10.4631C54.0603 10.5572 54.1074 10.6514 54.2015 10.7455C54.2486 10.8396 54.3427 10.9337 54.3898 11.0279C54.4839 11.122 54.5309 11.2161 54.6251 11.3102C54.4839 11.3573 54.3898 11.4044 54.2486 11.4044C53.7779 11.4044 53.6367 11.3102 53.6838 10.9808ZM52.8367 15.1694C53.1661 14.9341 53.4485 14.6517 53.8721 14.8871C53.9662 14.9341 54.1074 14.9812 54.1544 15.0753C54.2015 15.4518 54.5309 15.4048 54.7663 15.4518C54.9545 15.4989 55.1428 15.4989 55.1428 15.7342C55.0957 15.9695 54.9074 15.9225 54.7192 15.9225C54.6251 15.9225 54.578 15.8754 54.4368 15.8754C54.1544 15.9225 53.825 15.7342 53.5426 16.1107C53.4014 16.299 53.072 16.2519 53.0249 16.0166C53.0249 15.6871 52.2248 15.593 52.8367 15.1694ZM52.6955 18.1344C52.7425 18.1344 52.8367 18.2756 52.7896 18.3227C52.7425 18.4168 52.6484 18.4639 52.5543 18.5109C52.5072 18.5109 52.4131 18.4639 52.2248 18.3697C52.5543 18.1815 52.6484 18.1344 52.6955 18.1344ZM52.0836 10.1807C52.1307 10.1807 52.1778 10.3219 52.2248 10.369C52.1307 10.416 52.0836 10.5102 51.9895 10.5102C51.9425 10.5102 51.8954 10.369 51.8013 10.2748C51.9425 10.2278 52.0366 10.1807 52.0836 10.1807ZM51.9895 11.2161C52.0366 11.4044 52.1307 11.5456 52.1307 11.7338C52.1307 11.9221 52.1307 12.1103 51.8483 12.0633C51.7542 12.0162 51.6601 11.8279 51.566 11.6397C51.7071 11.4985 51.8483 11.3573 51.9895 11.2161ZM50.8129 14.9341C51.1894 14.9812 51.566 14.9812 51.8483 14.6988C51.9895 14.5576 52.1307 14.6517 52.1778 14.84C52.2248 14.9341 52.2248 15.0282 52.2248 15.1224C52.2719 15.5459 52.1778 15.593 51.7542 15.5459C51.6601 15.5459 51.5659 15.4989 51.4248 15.4989C51.1424 15.4989 50.8129 15.2636 50.5776 15.7342C50.4835 15.9225 50.2482 15.8283 50.2011 15.593C50.154 15.1224 50.2952 14.9341 50.8129 14.9341ZM50.2011 16.9578C50.2482 17.0049 50.2952 17.052 50.3423 17.099C50.2952 17.1461 50.2482 17.1932 50.2011 17.1932C50.154 17.1932 50.107 17.1461 50.0129 17.052C50.107 17.0049 50.2011 16.9578 50.2011 16.9578ZM48.8833 10.2278C48.9304 10.0395 48.8833 9.75715 49.1657 9.80422C49.2598 9.80422 49.3069 10.0395 49.401 10.2278C49.2598 10.369 49.1657 10.6043 49.0716 10.6043C48.7892 10.6514 48.8363 10.416 48.8833 10.2278ZM5.20854 34.889C5.39679 34.7949 5.58505 34.7007 5.82036 34.6537C6.00862 34.6066 6.14981 34.7478 6.10274 34.9831C6.05568 35.2655 5.82036 35.2655 5.44386 35.2184C5.44386 35.1714 5.34973 35.0302 5.20854 34.889ZM6.10274 38.1364C6.00862 38.0893 5.86743 38.0893 5.7733 38.0422C5.67917 37.9481 5.67917 37.7599 5.63211 37.6187C5.58504 37.4775 5.49092 37.3833 5.44386 37.2892C5.58505 37.2422 5.72624 37.1951 5.91449 37.148C6.00862 37.2422 6.24393 37.3363 6.24393 37.4304C6.24393 37.6657 6.14981 37.901 6.10274 38.1364ZM7.79702 31.0298C7.84409 31.0298 7.93821 31.1239 7.98528 31.171C7.89115 31.218 7.84409 31.3122 7.74996 31.3592C7.7029 31.3592 7.60877 31.2651 7.51464 31.171C7.65583 31.1239 7.7029 31.0298 7.79702 31.0298ZM8.45591 35.7361C8.40885 35.8303 8.26766 35.9244 8.26766 35.8773C8.03234 35.6891 7.74996 35.5479 7.60877 35.3126C7.46758 35.1243 7.60877 34.889 7.89115 34.889H7.93821C8.12647 34.8419 8.17353 34.4184 8.40885 34.6066C8.55004 34.7478 8.55004 35.0302 8.64416 35.2655C8.55004 35.4067 8.50297 35.5949 8.45591 35.7361ZM9.77368 31.0769C9.86781 31.2651 10.009 31.3592 10.009 31.4534C10.009 31.5475 9.82075 31.6416 9.72662 31.6416C9.63249 31.6416 9.4913 31.5004 9.4913 31.4063C9.4913 31.3592 9.63249 31.2651 9.77368 31.0769ZM11.2326 35.8303C11.3268 35.9244 11.4209 36.0185 11.4209 36.1126C11.4209 36.2068 11.2797 36.3009 11.1385 36.4421C11.0444 36.2538 10.9032 36.1126 10.9503 36.0656C10.9503 35.9714 11.1385 35.9244 11.2326 35.8303ZM12.0327 39.2188C12.0327 39.3129 11.8915 39.4071 11.8445 39.5012C11.7974 39.4541 11.7503 39.4541 11.7033 39.4071C11.6562 39.3129 11.6092 39.1718 11.6092 39.0776C11.6092 38.3717 11.6092 38.3717 10.9503 38.2776C10.6208 38.2305 10.3384 38.2305 10.009 38.1364C9.91487 38.1364 9.86781 37.9481 9.77368 37.854C9.86781 37.8069 9.96194 37.7128 10.0561 37.7128C10.2914 37.7128 10.4796 37.7599 10.715 37.7599C10.8561 37.7599 10.9973 37.7599 11.1385 37.7599C11.3738 37.8069 11.3738 37.1951 11.6562 37.5245C11.7974 37.7128 11.8915 37.854 12.0798 37.9481C12.1269 37.9481 12.1739 38.0893 12.1739 38.1364C12.1269 38.5129 12.0798 38.8894 12.0327 39.2188ZM13.727 38.5599C13.6799 38.607 13.6329 38.7011 13.5858 38.7482C13.4917 38.8423 13.3505 38.9364 13.2564 38.9835C13.2093 38.8423 13.1152 38.7011 13.1152 38.6541C13.1622 38.2305 13.2093 38.0422 13.5388 38.1364C13.7741 38.1834 13.8682 38.3246 13.727 38.5599ZM15.8919 39.9248C15.8919 40.0189 15.8919 40.113 15.8449 40.2071C15.7507 40.3954 15.5625 40.4425 15.4213 40.2542C15.2801 40.113 15.1389 39.9248 15.0448 39.7836C14.9036 39.5953 14.9977 39.36 15.186 39.3129C15.6095 39.1718 15.986 39.4541 15.8919 39.9248ZM21.3513 34.0889C21.3983 34.0889 21.4925 34.0889 21.5395 34.0419C21.869 33.5242 22.0572 33.6183 22.1984 34.183C22.1984 34.2772 22.4808 34.3242 22.669 34.3713C22.9514 34.4184 23.0456 34.5595 22.9985 34.9361C22.9985 34.9831 22.8573 35.1714 22.7632 35.1714C22.2925 35.1714 21.8219 35.1243 21.3513 35.0302C21.0689 34.9831 21.0218 34.7007 21.0218 34.4654C20.9748 34.2301 21.116 34.0889 21.3513 34.0889ZM23.1867 37.5245C23.1867 37.6187 22.9985 37.7599 22.9044 37.7599C22.8102 37.7599 22.622 37.6657 22.622 37.5716C22.5749 37.2892 22.3396 37.2892 22.1513 37.1951C21.916 37.0539 21.8219 37.2422 21.6337 37.3833C21.4454 37.5245 21.0689 37.5245 20.8336 37.4775C20.7394 37.4775 20.6924 37.101 20.6453 36.8657C20.7865 36.7245 20.9277 36.6303 21.0689 36.5362C21.2571 36.395 21.4454 36.2068 21.5866 36.2068C21.7278 36.2068 21.869 36.5362 22.0572 36.6303C22.2925 36.7245 22.622 36.8657 22.8102 36.4891C22.8573 36.395 23.0456 36.348 23.1397 36.395C23.2338 36.395 23.3279 36.5833 23.3279 36.6303C23.2809 36.9127 23.2338 37.2422 23.1867 37.5245ZM25.3517 37.5245C25.2575 37.4775 25.2105 37.3833 25.1163 37.2422C25.2575 37.1951 25.3987 37.101 25.4458 37.101C25.5399 37.148 25.587 37.2892 25.587 37.3833C25.587 37.4304 25.3987 37.5245 25.3517 37.5245ZM26.5753 40.1601C26.4812 40.1601 26.3871 39.9718 26.4341 39.9248C26.4341 39.8777 26.5753 39.7365 26.6694 39.7836C26.7636 39.7836 26.8106 39.9248 26.9047 40.0189C26.7636 40.066 26.6224 40.1601 26.5753 40.1601ZM26.7636 34.2301C26.5753 34.2301 26.3871 34.2301 26.2459 34.2301C26.1517 34.2301 26.0576 34.3713 26.0105 34.4654C26.0105 34.5125 26.1047 34.6066 26.1988 34.6537C26.2929 34.7007 26.3871 34.7007 26.4812 34.7007C26.8106 34.7478 26.9518 34.9361 26.8577 35.2184C26.8106 35.4067 26.7636 35.6891 26.6224 35.6891C26.3871 35.7832 26.0576 35.7361 25.8694 35.4538C25.634 35.1243 25.3517 34.7949 25.1163 34.4184C25.0222 34.2772 25.0693 34.0419 25.0222 33.8536C24.9752 33.7595 24.9281 33.6653 24.881 33.5712C24.834 33.5242 24.6928 33.6183 24.6457 33.6653C24.4104 33.8536 23.5632 33.9477 23.375 33.7124C23.2809 33.6183 23.2809 33.383 23.2809 33.2418C23.2809 33.1006 23.4221 32.9594 23.5632 32.9123C23.8927 32.8653 24.2221 32.9123 24.4575 32.5829C24.5045 32.5358 24.6928 32.5829 24.881 32.5358C24.9751 32.5829 25.1634 32.6299 25.1634 32.7241C25.2105 33.1006 25.4928 33.0535 25.7282 33.1476C25.8223 33.1476 25.9164 33.1476 25.9635 33.1947C26.1517 33.5712 26.4812 33.7124 26.8577 33.7595C26.9047 33.7595 26.9518 33.9007 26.9518 33.9948C26.9047 34.136 26.8106 34.2301 26.7636 34.2301ZM29.5874 37.901C29.4932 38.1834 29.305 38.0893 29.1167 38.0422C28.9285 37.9952 28.7873 37.9952 28.599 37.9481C28.1284 37.9481 28.0343 37.854 28.1284 37.3363C28.1284 37.2892 28.1284 37.1951 28.1755 37.101C28.2696 36.9127 28.5049 36.9127 28.552 37.0539C28.6461 37.4304 28.9285 37.4304 29.2109 37.4775C29.4462 37.5716 29.6344 37.6187 29.5874 37.901ZM29.6344 34.136C29.352 34.136 29.0697 34.0889 28.7873 34.0419C28.5049 33.9948 28.552 33.7595 28.599 33.5712C28.4578 33.5712 28.2696 33.5242 28.1284 33.5242C28.0813 33.7124 28.1284 33.9477 27.846 33.9007C27.799 33.9007 27.7048 33.7595 27.7048 33.7124C27.7519 33.43 27.9872 33.5242 28.1284 33.5242C28.1755 33.3359 28.1284 33.1006 28.4108 33.1476C28.6932 33.1947 28.599 33.43 28.599 33.6183C28.9755 33.6653 29.352 33.7124 29.6815 33.7595C29.7756 33.7595 29.8227 33.9477 29.9168 34.0419C29.8227 33.9948 29.7285 34.136 29.6344 34.136ZM31.7052 38.4187C31.3758 38.4187 31.0934 38.4187 30.7639 38.607C30.3404 38.8423 29.9168 38.4187 29.9639 37.9481C29.9639 37.901 29.9639 37.8069 30.0109 37.8069C30.3874 37.6187 30.7639 37.4304 31.1875 37.1951C31.3287 37.3833 31.4699 37.4775 31.564 37.6187C31.6581 37.7128 31.7523 37.8069 31.7993 37.901C31.8935 37.9952 31.9876 38.1364 31.9405 38.2305C31.9876 38.3246 31.7993 38.4187 31.7052 38.4187ZM31.3758 35.5949C31.3758 35.5479 31.4699 35.5008 31.6581 35.3596C31.7052 35.4537 31.7523 35.5479 31.7052 35.5949C31.6581 35.642 31.564 35.6891 31.517 35.7361C31.4699 35.7361 31.3758 35.642 31.3758 35.5949ZM32.7406 34.5125C32.27 34.4654 31.7523 34.3713 31.2816 34.3242C31.0934 34.2772 30.9993 34.0889 31.1405 33.9948C31.3287 33.8536 31.564 33.7595 31.6581 33.5242C31.7052 33.4771 31.8935 33.4771 32.0347 33.4771C32.1758 33.5712 32.317 33.7124 32.4582 33.8536C32.5524 33.9477 32.6935 34.0418 32.7877 34.136C32.8347 34.2301 32.9289 34.3242 32.9289 34.4184C32.9289 34.4184 32.7877 34.5125 32.7406 34.5125ZM34.9526 38.7952C34.8585 38.8423 34.7173 38.7952 34.6231 38.8423C34.482 38.7952 34.3408 38.7482 34.2466 38.7011C34.1525 38.6541 34.0584 38.5129 34.0113 38.4187C34.0113 38.3717 34.1525 38.2775 34.1996 38.1834C34.2937 38.0893 34.3878 37.9952 34.4819 37.901C34.529 37.854 34.5761 37.8069 34.6702 37.7599C34.9055 37.6657 35.1879 37.9952 35.3291 38.4187C35.3762 38.7011 35.1408 38.7482 34.9526 38.7952ZM35.235 34.3713C35.1879 34.2772 35.0938 34.183 35.0938 34.136C35.1408 34.0418 35.1879 33.9948 35.282 33.9477C35.3291 33.9948 35.3762 34.0889 35.3762 34.136C35.3762 34.183 35.3291 34.2301 35.235 34.3713ZM34.8114 31.3122C34.2937 31.2651 33.8231 31.171 33.3054 31.1239C32.9759 31.0769 32.5994 30.9827 32.27 30.9827C31.7052 31.0298 31.4699 30.6062 31.1405 30.2768C30.9993 30.1356 31.0934 29.9473 31.2816 29.9473C31.4228 29.9473 31.6111 29.9944 31.7523 29.9944C32.27 29.9944 32.7406 30.0885 33.2112 29.8061C33.4936 29.6179 33.8231 29.8061 34.0584 30.0885C34.1525 30.1827 34.2937 30.2768 34.4349 30.3238C34.5761 30.3709 34.7643 30.3709 34.9055 30.3709C35.1408 30.3709 35.4232 30.2768 35.4232 30.7003C35.3762 31.171 35.235 31.3592 34.8114 31.3122ZM40.6473 44.2075C40.6473 44.3017 40.3649 44.3487 40.1766 44.3487C39.8942 44.3958 39.6119 44.3017 39.4707 44.6311C39.4707 44.6782 39.2824 44.7252 39.2824 44.6782C39.0942 44.4429 38.9059 44.2075 38.7177 43.9722C38.7177 43.9722 38.7177 43.8781 38.7647 43.8781C39.1883 43.7369 39.4236 43.1251 40.0354 43.3133C40.2237 43.4075 40.5061 43.4545 40.6002 43.5957C40.7414 43.7369 40.7414 44.0193 40.6473 44.2075ZM43.8946 43.7369C43.6593 43.6428 43.5181 43.5957 43.424 43.5486C43.3769 43.5016 43.2828 43.4075 43.2828 43.4075C43.4711 43.2192 43.6593 42.9839 43.8946 42.7956C43.9417 42.7486 44.1299 42.7486 44.1299 42.7486C44.177 43.031 44.2711 43.2663 44.2711 43.5486C44.2711 43.6428 43.9888 43.6898 43.8946 43.7369ZM44.8359 41.3837C44.6947 41.4308 44.5535 41.3837 44.4594 41.3837C44.3653 41.3837 44.3182 41.3837 44.2241 41.3367C43.9887 41.2896 43.8476 41.1955 43.9417 40.9602C43.9887 40.819 44.2241 40.7248 44.3653 40.7248C44.5535 40.7248 44.7888 40.819 44.93 40.9131C45.0241 40.9602 45.0712 41.1014 45.0712 41.1955C45.0241 41.2896 44.93 41.3837 44.8359 41.3837ZM45.2124 38.4658C44.6947 38.4187 44.6476 38.7952 44.6476 39.1718C44.6476 39.2659 44.6476 39.4541 44.5535 39.5012C44.4594 39.5483 44.2241 39.5953 44.177 39.5483C43.9887 39.2659 43.8005 38.9835 43.7534 38.7011C43.7064 38.3717 43.5652 37.9481 44.1299 37.8069C44.3182 37.7599 44.4123 37.5245 44.5535 37.3833C44.6006 37.4304 44.6947 37.4775 44.6947 37.5245C44.7418 37.8069 44.93 37.9481 45.2124 38.0422C45.2595 38.0422 45.3536 38.2305 45.3536 38.3246C45.4007 38.3246 45.3065 38.4658 45.2124 38.4658ZM44.9771 28.3472C44.93 28.3001 44.8359 28.1589 44.883 28.0648C44.883 27.9707 45.0241 27.8765 45.1183 27.8765C45.2595 27.8295 45.4477 27.8765 45.636 27.8765C45.8713 27.9236 46.1066 27.9707 46.3419 28.1119C46.5302 28.206 46.5302 28.4413 46.3419 28.5354C46.0125 28.6296 45.2124 28.5825 44.9771 28.3472ZM46.389 19.7346C46.8126 19.7816 46.8596 19.9228 46.8125 20.4405C46.7655 20.817 46.5772 20.9112 46.2478 20.8641C45.7772 20.77 45.683 20.6759 45.7301 20.2052C45.7772 19.7816 45.9183 19.6875 46.389 19.7346ZM46.0125 18.2286C46.1537 18.1344 46.2478 18.0874 46.436 17.9462C46.5772 18.0874 46.7184 18.1815 46.8596 18.3227C46.7184 18.3697 46.5772 18.4639 46.436 18.4639C46.2478 18.4168 46.1537 18.3227 46.0125 18.2286ZM45.8242 24.4409C45.9654 24.4409 46.0595 24.6292 46.2007 24.7704C46.0125 24.8645 45.8242 24.9586 45.5418 25.0998C45.4477 24.8645 45.3536 24.7233 45.2595 24.5821C45.4477 24.488 45.636 24.3939 45.8242 24.4409ZM47.0008 32.5829C47.0008 32.677 46.7184 32.7711 46.6714 32.7711C46.3419 32.7241 46.0595 32.7241 46.1066 32.3946C46.1066 32.3005 46.3419 32.1593 46.436 32.1593C46.6243 32.3005 47.0008 32.2534 47.0008 32.5829ZM48.1303 14.1811C48.2715 14.134 48.7892 14.7459 48.7421 14.9341C48.601 15.3106 48.3186 15.1224 48.0833 15.1224C47.8009 15.1224 47.6597 14.9812 47.7068 14.6517C47.8479 14.5106 47.9421 14.2752 48.1303 14.1811ZM46.5302 10.7925C46.6243 10.9337 46.7184 11.0279 46.6714 11.122C46.6714 11.2161 46.5302 11.2632 46.436 11.2632C46.389 11.2632 46.2949 11.122 46.2949 11.0749C46.2949 11.0279 46.389 10.9337 46.5302 10.7925ZM44.9771 9.71009C45.0241 9.61596 45.0241 9.52184 45.0712 9.47477C45.1183 9.42771 45.2124 9.42771 45.2595 9.38065C45.3065 9.52184 45.3536 9.61596 45.3536 9.75715C45.3536 9.89834 45.2595 10.0395 45.2124 10.1807C45.1653 10.1337 45.0712 10.1337 45.0241 10.0866C44.9771 9.89834 44.9771 9.80422 44.9771 9.71009ZM44.5535 14.2282C44.6947 14.134 44.8359 14.0399 44.9771 13.9458C45.1653 13.8046 45.3065 13.8046 45.3536 14.0399C45.4007 14.3223 45.5889 14.3694 45.8242 14.3694C46.0595 14.3694 46.2478 14.4164 46.4831 14.4635C46.5302 14.4635 46.5302 14.5106 46.5772 14.5106C46.6714 14.4164 46.7655 14.3694 46.9067 14.2752C47.0949 14.5106 47.2361 14.6517 47.3302 14.84C47.142 14.8871 46.9537 15.0282 46.8125 14.9812C46.7184 14.9812 46.6714 14.9341 46.5772 14.8871L46.5302 14.9341C46.436 14.9812 46.3419 14.9812 46.2949 15.0753C45.9654 15.3577 45.9654 15.3577 45.7301 15.0282C45.5418 14.7929 45.4477 14.84 45.2595 15.0753C45.0712 15.3106 44.93 15.3106 44.7888 15.0282C44.7418 14.9341 44.6006 14.84 44.5064 14.7459C44.4594 14.6988 44.4123 14.6047 44.3182 14.5106C44.4594 14.3223 44.5064 14.2752 44.5535 14.2282ZM44.6476 35.4538C45.0712 35.5008 45.1653 35.5949 45.1183 36.0656C45.0712 36.5833 44.93 36.6774 44.5064 36.6303C44.0358 36.5833 43.8946 36.395 43.9417 35.9244C44.0358 35.5008 44.177 35.3596 44.6476 35.4538ZM44.1299 32.0652C44.1299 32.3005 43.9887 32.5829 43.9417 32.8182C43.9417 32.8182 43.6593 32.7711 43.6593 32.7241C43.6122 32.3005 43.2357 32.3476 42.9534 32.3005C42.7651 32.2534 42.4827 32.3005 42.3415 32.2064C42.2003 32.1123 42.1062 31.8299 41.918 31.7828C41.8238 31.7357 41.6356 31.9711 41.4944 32.0652C41.4003 32.1122 41.3061 32.0652 41.212 32.0652C41.0708 32.0181 40.7884 31.9711 40.7414 31.8769C40.6943 31.6416 40.7414 31.3592 40.8355 31.1239C40.8355 31.0769 41.0708 31.0298 41.212 31.0298C41.6356 31.0769 42.0592 31.1239 42.4827 31.171C42.7651 31.218 43.1416 31.218 43.2828 31.6416C43.3299 31.7357 43.5652 31.7828 43.7064 31.8769C43.7064 31.8299 43.7534 31.7828 43.7534 31.7357C43.8946 31.8769 44.1299 31.9711 44.1299 32.0652ZM41.7768 35.3596C41.7768 35.4537 41.6356 35.5479 41.5415 35.6891C41.4003 35.5008 41.3061 35.4067 41.3061 35.3126C41.3061 35.2184 41.4473 35.0772 41.5415 35.0772C41.6356 35.1714 41.7297 35.3126 41.7768 35.3596ZM41.965 16.299C41.7297 16.2519 41.5415 16.1578 41.3061 16.0636C41.3532 15.9695 41.3532 15.8754 41.4003 15.8283C41.4944 15.7813 41.6356 15.8283 41.7768 15.8283C41.8709 15.8754 41.965 15.8754 42.0592 15.9225C42.1062 15.9695 42.1533 16.0636 42.1062 16.1107C42.1062 16.2048 42.0121 16.299 41.965 16.299ZM42.2003 19.0757C42.1533 19.1228 42.1062 19.1698 42.0121 19.264C41.965 19.1698 41.918 19.1228 41.8709 19.0757C41.918 19.0286 42.0121 18.9816 42.0592 18.9345C42.1062 18.9345 42.2003 19.0286 42.2003 19.0757ZM42.3886 14.3223C42.4357 13.9458 42.5298 13.8987 43.0004 13.9458C43.1887 13.9929 43.5181 13.9458 43.4711 14.3223C43.424 14.7459 43.1887 14.9341 42.8122 14.8871C42.3886 14.84 42.3415 14.7459 42.3886 14.3223ZM43.424 4.20368C43.4711 4.20368 43.5652 4.2978 43.5652 4.34487C43.5652 4.43899 43.4711 4.48606 43.3769 4.58018C43.2828 4.43899 43.2828 4.39193 43.2357 4.2978C43.2828 4.25074 43.3769 4.20368 43.424 4.20368ZM41.4003 6.65097C42.1533 6.65097 42.8592 6.65097 43.6122 6.65097C43.8946 6.65097 43.9887 6.7451 43.9887 7.02748C43.9887 7.78049 43.9887 8.53351 43.9887 9.28652C43.9887 9.5689 43.8476 9.66303 43.5652 9.66303C43.3769 9.66303 43.1887 9.66303 42.9534 9.66303C42.9063 9.99247 42.8592 10.3219 42.8122 10.6514C42.8122 10.7455 42.671 10.8396 42.5768 10.9337C42.5298 10.8396 42.3886 10.7925 42.3886 10.6984C42.2945 10.3219 41.965 10.0866 41.7297 9.80422C41.6826 9.75715 41.6356 9.71009 41.6356 9.66303C41.5885 9.66303 41.4944 9.66303 41.4473 9.66303C41.1649 9.66303 41.0238 9.5689 41.0238 9.28652C41.0238 8.91001 41.0238 8.53351 41.0238 8.157C41.0238 7.82756 41.0238 7.45105 41.0238 7.12161C40.9767 6.79216 41.1179 6.65097 41.4003 6.65097ZM40.0354 9.66303C40.0825 9.19239 40.1766 9.09827 40.6473 9.14533C40.9296 9.19239 41.0708 9.33358 41.0238 9.61596C40.9767 9.99247 40.6943 10.2278 40.2707 10.1337C39.8942 10.1337 40.0354 9.85128 40.0354 9.66303ZM39.753 13.1457C40.0825 13.1928 40.4119 13.1928 40.5061 13.5693C40.5061 13.6634 40.7414 13.7105 40.8826 13.7575C41.1179 13.8046 41.4003 13.8046 41.6356 13.8987C41.7297 13.8987 41.7768 14.0399 41.8709 14.134C41.7768 14.1811 41.6826 14.3223 41.6356 14.3223C41.3061 14.3223 41.0238 14.2752 40.6943 14.2282C40.3649 14.2282 40.0825 14.1811 39.753 14.4164C39.5177 14.6047 39 14.4635 38.6235 14.3694C38.5294 14.3223 38.4353 14.0399 38.3882 13.8046C38.3882 13.7105 38.4353 13.4752 38.5294 13.4752C39 13.334 39.3295 12.9104 39.753 13.1457ZM40.2237 35.2184C40.2237 35.2655 40.0825 35.4067 40.0354 35.3596C39.9413 35.3126 39.8472 35.2184 39.8472 35.1714C39.8472 35.1243 39.9413 35.0302 40.0825 34.889C40.1766 35.0772 40.2707 35.1243 40.2237 35.2184ZM39.3765 21.1465C39.3295 21.1465 39.2824 21.1936 39.2824 21.1936C39.2353 21.1936 39.2353 21.1465 39.1883 21.0994C39.2353 21.0524 39.2824 21.0053 39.2824 21.0053C39.3295 21.0524 39.3295 21.0994 39.3765 21.1465ZM38.3411 31.7357C37.7764 31.6416 37.6823 31.5475 37.7764 31.0298C37.8234 30.8415 38.4823 30.2768 38.6235 30.3709C38.8588 30.5592 39.0942 30.8415 39.1883 31.1239C39.2353 31.2651 38.953 31.5475 38.7647 31.6887C38.6235 31.7828 38.3882 31.7357 38.3411 31.7357ZM38.7177 33.9477C38.7177 34.2772 38.3882 34.183 38.2 34.136C38.0117 34.136 37.7293 34.136 37.7764 33.8536C37.7764 33.7124 38.0588 33.6653 38.247 33.5242C38.4353 33.7124 38.7177 33.8536 38.7177 33.9477ZM38.2941 27.5C38.247 27.4059 38.4353 27.2177 38.6235 26.9823C38.8118 27.2647 39 27.4059 38.953 27.5471C38.8588 27.7824 38.7177 28.206 38.5765 28.206C38.2 28.1119 38.3411 27.7354 38.2941 27.5ZM38.4823 3.49773C38.5765 3.59185 38.6706 3.68598 38.6706 3.78011C38.6706 3.87423 38.5294 3.96836 38.3882 4.15661C38.2941 3.96836 38.2 3.82717 38.2 3.73304C38.247 3.63892 38.3882 3.54479 38.4823 3.49773ZM37.0234 9.28652C36.6939 9.28652 36.5057 9.19239 36.5057 8.86295C36.5057 8.76882 36.4586 8.72176 36.4586 8.62763C36.2704 8.25113 36.2704 8.20406 36.741 8.25113C37.0234 8.25113 37.3058 8.29819 37.6352 8.34525C37.7764 8.34525 37.9176 8.39232 38.0588 8.39232C38.6235 8.29819 38.7647 8.72176 39 9.0512C39.0471 9.14533 39 9.38065 38.953 9.42771C38.6706 9.5689 38.5765 9.85128 38.4353 10.0866C38.3882 10.1337 38.3411 10.2278 38.247 10.2278C38.2 10.2278 38.1529 10.1337 38.1058 10.0866C38.1058 10.0395 38.1058 9.99247 38.0588 9.99247C37.8705 9.38065 37.7293 9.23946 37.0234 9.28652ZM37.5411 13.5693C37.6352 13.381 37.9176 13.4281 38.0117 13.6163C38.0588 13.7105 38.0588 13.8517 38.0117 13.9458C37.9176 14.134 37.7764 14.3223 37.6823 14.4635C37.5881 14.2752 37.494 14.134 37.3999 14.0399C37.4469 13.8046 37.494 13.6634 37.5411 13.5693ZM37.8234 18.0874C37.8234 18.1344 37.7293 18.1344 37.6823 18.1815C37.6352 18.1344 37.5881 18.0874 37.5881 17.9932C37.5881 17.9462 37.6823 17.9462 37.7293 17.8521C37.7764 17.9462 37.8234 18.0403 37.8234 18.0874ZM37.494 24.7704C37.6823 24.8174 37.7764 24.7704 37.8705 24.8174C37.9646 24.9116 38.0117 25.0057 38.1058 25.0998C37.9646 25.1469 37.8705 25.1939 37.7764 25.1939C37.7293 25.1939 37.6352 25.1469 37.5411 25.0998C37.3999 25.0057 37.2587 24.9116 37.1175 24.8174C37.2587 24.8174 37.4469 24.7704 37.494 24.7704ZM35.5173 24.3468C35.7056 24.2056 35.8468 24.0644 35.9409 24.0644C36.1762 24.0644 36.1762 24.2997 36.1292 24.488C36.0821 24.6762 36.1292 24.9586 35.8468 24.9116C35.7527 24.8174 35.6585 24.535 35.5173 24.3468ZM36.8351 34.8419C36.5998 35.0302 36.3645 35.2184 36.0821 35.4067C36.035 35.4067 35.8939 35.3126 35.8939 35.2655C35.8468 35.0772 35.7997 34.7949 35.8939 34.6537C35.9409 34.5595 36.2233 34.5595 36.3645 34.5125C36.5527 34.5595 36.6939 34.6066 36.7881 34.7007C36.8351 34.6537 36.8822 34.7949 36.8351 34.8419ZM36.5527 31.5475C36.4586 31.5475 36.4115 31.5475 36.3174 31.5004C36.1762 31.4534 35.9409 31.3592 35.9409 31.2651C35.9409 31.0298 36.035 30.7945 36.1292 30.5592C36.1762 30.465 36.3645 30.465 36.3645 30.3709C36.4586 29.9473 36.6939 30.0885 36.9763 30.1356C37.3999 30.2297 37.3528 30.5121 37.3528 30.7945C37.3528 31.5475 37.2587 31.5946 36.5527 31.5475ZM37.7764 35.1714C37.7764 35.1243 37.7764 35.1714 37.7764 35.1714C37.8234 35.1243 37.8234 35.1243 37.7764 35.1714C37.8234 34.9361 37.8705 34.7478 38.1529 34.7478C38.2941 34.7478 38.3882 34.5595 38.4823 34.4654C38.5765 34.4184 38.6706 34.3713 38.7177 34.3713C38.7647 34.4184 38.8588 34.5125 38.8588 34.6066C38.9059 35.0772 38.7647 35.2655 38.2941 35.2184C38.1529 35.1714 37.9646 35.1714 37.7764 35.1714C37.8234 35.1714 37.8234 35.1243 37.7764 35.1714C37.8234 35.1714 37.7764 35.1714 37.7764 35.1714C37.7293 35.3596 37.7764 35.5949 37.494 35.5479C37.4469 35.5479 37.3528 35.4067 37.3528 35.3596C37.3999 35.0302 37.6352 35.1714 37.7764 35.1714ZM37.7764 39.1247C37.5881 39.0776 37.3058 39.0306 37.3528 38.7482C37.3999 38.5129 37.3058 38.1834 37.7293 38.1364C37.8234 38.1364 37.9176 38.0422 38.0117 37.9481C38.3411 37.6187 38.5765 37.7128 38.8588 38.0422C39.1883 38.3717 39.3765 38.8894 39.9884 38.8423C40.3178 38.8894 40.6943 39.0306 40.8355 38.5599C41.1179 38.607 41.4473 38.5599 41.7297 38.6541C41.8238 38.7011 41.7297 39.1247 41.6826 39.36C41.6826 39.4071 41.4473 39.5012 41.3532 39.5012C40.6943 39.4541 40.0825 39.5483 39.4236 39.2659C39.2353 39.1718 39 39.2188 38.8118 39.2188C38.4823 39.2188 38.1058 39.1718 37.7764 39.1247ZM15.6095 43.8781C15.7037 43.9252 15.7507 44.0193 15.8449 44.0663C15.7507 44.1134 15.7037 44.2075 15.6095 44.2546C15.5625 44.2546 15.4684 44.1605 15.2801 43.9722C15.4213 43.9252 15.5154 43.8781 15.6095 43.8781ZM15.6566 49.8551C15.5625 50.2316 15.3272 50.2316 15.0448 50.1846C14.9036 50.1375 14.7624 50.1846 14.6683 50.1375C14.6212 50.2787 14.6683 50.5611 14.3859 50.514C14.3388 50.514 14.2447 50.3728 14.2447 50.3258C14.2918 50.0434 14.5271 50.1375 14.6683 50.1375C14.7153 49.761 14.7624 49.3845 14.8095 49.0551C14.8565 48.7727 14.9977 48.7256 15.233 48.9609C15.2801 49.008 15.3742 49.1492 15.4213 49.1492C15.8449 49.2904 15.7507 49.5728 15.6566 49.8551ZM16.1743 46.1842C16.1272 46.2783 15.8919 46.3254 15.7507 46.3254C15.1389 46.3254 15.1389 46.3254 15.0448 46.9372C14.9977 47.1255 14.9977 47.3137 14.9507 47.502C14.9036 47.5961 14.8095 47.6902 14.7153 47.6902C14.6212 47.6902 14.5741 47.549 14.5271 47.4549C14.48 47.4078 14.5271 47.3608 14.5271 47.2667C14.5271 46.7019 14.5271 46.7019 14.0094 46.5607C13.7741 46.5136 13.6799 46.3724 13.6799 46.1371C13.6329 45.8548 13.727 45.5253 13.4446 45.3371C13.4446 45.3371 13.4917 45.1488 13.5388 45.1488C13.6329 45.1017 13.727 45.1488 13.8211 45.1488C14.433 45.1959 15.0918 45.2429 15.7037 45.29C16.2214 45.3371 16.4567 45.7606 16.1743 46.1842ZM16.3155 44.584C16.3626 44.2075 16.5508 44.0193 16.8803 44.0663C17.2097 44.1134 17.3509 44.2546 17.3038 44.6782C17.3038 45.0547 17.0214 45.0076 16.7861 44.9605C16.5508 44.9135 16.2684 44.9605 16.3155 44.584ZM16.7861 50.8435C16.7391 50.8435 16.6449 50.7493 16.5508 50.6552C16.692 50.5611 16.7391 50.514 16.8332 50.514C16.8803 50.514 16.9744 50.6552 16.9744 50.7023C16.9744 50.7493 16.8803 50.7964 16.7861 50.8435ZM16.9744 49.9022C16.8803 49.9022 16.7861 49.8081 16.692 49.7139C16.8332 49.6198 16.9273 49.5257 16.9744 49.5257C17.0685 49.5257 17.1156 49.6669 17.1626 49.761C17.1626 49.8081 17.0214 49.9022 16.9744 49.9022ZM18.3392 47.4078C18.2451 47.549 17.9156 47.549 17.7274 47.549C17.6333 47.549 17.5391 47.3137 17.5391 47.2196C17.5391 46.8901 17.6333 46.6078 17.2097 46.4195C17.1156 46.3724 17.1626 46.1371 17.1156 45.9018C17.2097 45.8077 17.3038 45.5253 17.3509 45.5724C17.5862 45.5724 17.8215 45.6665 18.0568 45.8077C18.198 45.9018 18.3392 46.043 18.4333 46.1842C18.4804 46.2783 18.5745 46.3724 18.5745 46.4666C18.5745 46.796 18.5275 47.1255 18.3392 47.4078ZM22.0102 46.4195C22.0572 46.2783 22.2455 46.1842 22.3867 46.1371C22.5279 46.0901 22.669 46.1842 22.8573 46.1842C22.9044 46.1842 22.9514 46.1842 23.0456 46.1842C23.2338 46.2313 23.5162 46.1842 23.5632 46.4666C23.6103 46.796 23.5162 47.1725 23.2338 47.2667C22.9985 47.3608 22.9985 47.7843 22.669 47.6432C22.4808 47.549 22.4337 47.2667 22.2455 47.1725C21.916 46.9372 21.9631 46.6548 22.0102 46.4195ZM22.2925 51.1258C22.3867 51.1258 22.4808 51.22 22.5749 51.3141C22.4808 51.4082 22.4337 51.5024 22.3396 51.5024C22.2455 51.5024 22.1043 51.4082 21.916 51.3141C22.1043 51.22 22.1984 51.1258 22.2925 51.1258ZM19.4687 45.9018C19.7511 45.9018 20.0806 45.8077 20.2688 45.9018C20.6924 46.1371 21.0689 46.4195 21.3983 46.796C21.5395 46.9372 21.3983 47.2667 21.3983 47.549C21.3983 47.549 21.3983 47.549 21.3513 47.549C21.3513 47.6902 21.3513 47.8314 21.3042 47.9726C21.2571 48.1138 21.2101 48.3491 21.0689 48.3962C20.8336 48.4903 20.8336 48.2079 20.7394 48.0667C20.6924 48.0197 20.6453 47.9726 20.5983 47.9726C20.2218 47.9255 19.9864 47.6902 19.7041 47.4549C19.4217 47.2196 19.3275 46.8431 18.9981 46.6548C18.8569 46.5136 19.1864 45.9018 19.4687 45.9018ZM19.5158 50.0434C19.4687 50.0905 19.3746 50.1375 19.2805 50.1375C19.2334 50.1375 19.1864 50.0434 19.1864 49.9493C19.0452 49.4316 19.1393 49.2433 19.7041 49.3374C20.0806 49.3845 20.5512 49.1963 20.8806 49.4786C20.9277 49.5257 20.9748 49.6198 21.0689 49.6669C21.0218 49.7139 20.9748 49.761 20.8806 49.8081C20.6924 49.8551 20.5512 49.8551 20.41 49.9022C20.3159 49.8551 20.2688 49.8551 20.2218 49.8551C19.8923 49.7139 19.657 49.7139 19.5158 50.0434ZM20.5041 56.8676C20.4571 56.7264 20.41 56.6323 20.41 56.5852C20.41 56.5381 20.5041 56.4911 20.5512 56.444C20.5983 56.5381 20.6453 56.5852 20.6453 56.6793C20.6924 56.6793 20.5983 56.7264 20.5041 56.8676ZM21.2571 59.4561C21.163 59.3149 21.0689 59.2207 21.0689 59.1737C21.0689 59.0796 21.2101 58.9854 21.3042 58.9854C21.3983 58.9854 21.4925 59.1266 21.4925 59.1737C21.4454 59.2678 21.3513 59.3619 21.2571 59.4561ZM20.9748 56.2087C20.9748 56.1146 21.0689 56.0675 21.116 56.0204C21.163 56.0675 21.2571 56.1146 21.2571 56.1616C21.2571 56.2558 21.2101 56.3028 21.116 56.444C21.0218 56.3028 20.9277 56.2558 20.9748 56.2087ZM22.1984 61.2445C22.1514 61.2915 22.0102 61.3857 21.916 61.4798C21.869 61.3386 21.7748 61.2445 21.7748 61.1033C21.7748 61.0092 21.7748 60.915 21.8219 60.8209C21.869 60.7268 21.9631 60.6797 22.0572 60.6326C22.1043 60.6797 22.1984 60.7738 22.1984 60.868C22.2455 60.915 22.1984 61.0562 22.1984 61.2445ZM23.3279 53.7143C23.2809 53.7143 23.1867 53.7143 23.1867 53.7614C22.9514 54.232 22.7632 54.185 22.622 53.7143C22.622 53.6673 22.4337 53.6202 22.3867 53.6202C22.1513 53.5261 21.916 53.479 21.7278 53.1966C21.6337 53.0554 21.2571 53.0084 20.9748 53.0084C20.8806 53.0084 20.7865 53.2437 20.6924 53.3849C20.6453 53.479 20.6453 53.5731 20.5983 53.6673C20.5512 53.7143 20.41 53.8085 20.3629 53.8085C20.1747 53.5731 19.8923 53.3378 19.7511 53.1025C19.657 52.9143 19.9864 52.4907 20.2688 52.4907C20.5983 52.4436 20.9748 52.4436 21.3042 52.4436C21.3042 52.4907 21.3042 52.4907 21.3042 52.5377C21.916 52.5848 22.5279 52.6319 23.1867 52.6789C23.4221 52.726 23.7515 52.6789 23.7986 53.0084C23.7986 53.2437 23.6103 53.6202 23.3279 53.7143ZM23.7044 50.7493C23.6574 50.7493 23.5632 50.6552 23.4691 50.5611C23.6103 50.467 23.7044 50.3728 23.7515 50.3728C23.7986 50.3728 23.9398 50.514 23.8927 50.5611C23.8927 50.6552 23.7986 50.7023 23.7044 50.7493ZM24.6457 45.0076C24.6928 45.0076 24.7869 45.0076 24.834 45.0547C24.9281 45.1017 25.0222 45.1959 25.1163 45.29C25.0222 45.3371 24.9281 45.4312 24.7869 45.4782C24.7398 45.4782 24.6928 45.4782 24.5045 45.4782C24.4575 45.4312 24.3633 45.29 24.2692 45.1959C24.3633 45.0547 24.5045 45.0076 24.6457 45.0076ZM26.5753 53.8555C26.5282 53.9967 26.5282 54.185 26.4812 54.3262C26.4341 54.4203 26.34 54.5144 26.2929 54.5144C25.9164 54.4673 25.5399 54.4673 25.2105 54.3262C25.0222 54.232 24.9281 53.9496 24.6928 53.8555C24.6457 53.8555 24.5986 53.6202 24.6457 53.5731C24.6928 53.479 24.7869 53.3849 24.9281 53.3849C25.0693 53.3849 25.2105 53.479 25.3046 53.479C25.4458 53.479 25.634 53.479 25.6811 53.3849C25.8694 52.9613 26.2459 53.0554 26.4812 53.1966C26.6224 53.2908 26.6224 53.6202 26.7165 53.8555C26.6224 53.8555 26.5753 53.8555 26.5753 53.8555ZM27.0459 48.255C26.9047 48.255 26.7636 48.255 26.6224 48.2079C26.5282 48.1609 26.3871 48.0667 26.34 47.9726C26.2929 47.8314 26.34 47.5961 26.1047 47.5961C25.8223 47.5961 25.587 47.6902 25.3517 47.7373C25.2575 47.7373 25.2105 47.9255 25.1634 47.9255C24.9281 47.9255 24.6457 47.8785 24.4575 47.7844C24.3163 47.6902 24.4575 47.1255 24.6457 46.9843C24.7398 46.8901 24.881 46.8431 24.9751 46.749C25.3046 46.4195 25.7752 46.5136 26.0105 46.8901C26.1988 47.2196 26.2929 47.2196 26.4341 46.8901C26.5282 46.6548 26.7165 46.6548 26.9047 46.6548C27.4695 46.7019 27.9872 47.3137 27.8931 47.8785C27.799 48.302 27.7519 48.302 27.3283 48.255C27.2342 48.255 27.1401 48.255 27.0459 48.255C27.0459 48.2079 27.0459 48.2079 27.0459 48.255ZM28.9755 54.3732C28.7873 54.3732 28.6461 54.3262 28.4578 54.3262C28.3637 54.3262 28.2696 54.3262 28.1755 54.3732C28.0343 54.4673 27.799 54.7027 27.7519 54.6556C27.5636 54.5144 27.3754 54.2791 27.2342 54.0908C27.1871 54.0438 27.1871 53.9496 27.2342 53.9496C27.4695 53.7614 27.6578 53.479 27.9401 53.3849C28.2225 53.2908 28.599 53.3849 28.9285 53.3849C29.352 53.3849 29.5874 53.6202 29.5874 53.9496C29.4932 54.3732 29.3991 54.4203 28.9755 54.3732ZM29.7756 51.4082C29.7756 51.4553 29.5403 51.5024 29.5403 51.4553C29.352 51.22 29.2109 50.9847 29.0226 50.7493C29.0226 50.7493 29.1167 50.6082 29.2109 50.6082C29.2579 50.5611 29.352 50.6082 29.5403 50.6082C29.5874 50.6552 29.8227 50.7023 29.8227 50.7964C29.8697 50.9847 29.8227 51.1729 29.7756 51.4082ZM31.517 54.3262C31.3758 54.185 31.0934 54.0438 31.1405 53.9496C31.1875 53.6202 31.564 53.7614 31.7523 53.7143C31.7993 53.7143 31.9876 53.9026 31.9876 54.0438C31.9876 54.2791 31.7993 54.3262 31.517 54.3262ZM32.1758 48.5374C32.1758 48.6315 32.0347 48.7256 31.9405 48.7727C31.8935 48.7727 31.7993 48.6786 31.7523 48.6315C31.564 48.3962 31.3287 48.1138 31.1405 47.8785C31.0934 47.8314 30.9522 47.8785 30.9051 47.9255C30.7639 48.2079 30.5286 48.2079 30.2462 48.1609C30.2462 48.3491 30.2462 48.5374 29.9639 48.5844C29.8697 48.5844 29.7285 48.6786 29.6815 48.7727C29.4932 49.1021 29.2579 48.9139 29.0226 48.8668C28.7402 48.8197 28.7873 48.5844 28.7873 48.3962C28.7873 48.2079 28.7873 48.0197 28.8343 47.8785C28.8814 47.7373 28.9755 47.6432 29.0697 47.549C29.1638 47.6432 29.2109 47.7373 29.305 47.8314C29.3991 47.9255 29.5403 47.9726 29.6344 48.0197C29.8227 48.0667 30.0109 48.0667 30.1992 48.1138C30.1992 47.9726 30.1992 47.8314 30.2462 47.7373C30.3874 47.3137 30.4816 47.2667 30.9051 47.2667C31.2346 47.2667 31.564 47.3137 31.8935 47.3137C32.1288 47.3137 32.27 47.4078 32.2229 47.6902C32.27 47.9726 32.2229 48.255 32.1758 48.5374ZM32.7877 51.4553C32.8347 51.267 32.8347 50.9847 33.1642 51.0317C33.4936 51.0788 33.3995 51.3612 33.3524 51.5494C33.3524 51.7377 33.3054 51.973 33.023 51.9259C32.6935 51.8789 32.7877 51.6435 32.7877 51.4553ZM35.4703 55.2204C35.235 55.1733 34.9526 55.1262 34.7173 55.0792C34.6231 55.0321 34.482 54.985 34.4349 54.8909C34.1054 54.4203 33.8231 54.4203 33.4466 54.7497C33.3524 54.7968 33.2112 54.8909 33.1642 54.8439C33.07 54.7968 33.023 54.6556 33.023 54.5615C32.9759 53.9967 33.2112 53.8555 34.0584 53.9496C34.3878 54.0438 34.7643 54.0438 35.0467 54.4203C35.1408 54.5615 35.4232 54.5144 35.5644 54.5615C35.7527 54.6085 35.9409 54.7027 35.9409 54.938C35.8939 55.3145 35.6585 55.2674 35.4703 55.2204ZM35.282 51.7847C35.282 51.6906 35.3291 51.5965 35.3762 51.5024C35.3762 51.4553 35.4232 51.4082 35.4703 51.3612C35.5173 51.3612 35.6585 51.3612 35.6585 51.4082C35.6585 51.6435 35.6585 51.8789 35.6585 52.0671C35.6585 52.1142 35.5173 52.1612 35.4703 52.1612C35.3762 52.1142 35.3291 52.0201 35.282 51.9259C35.235 51.9259 35.282 51.8318 35.282 51.7847ZM35.988 49.4786C35.988 49.5728 35.8468 49.7139 35.7997 49.7139C35.7056 49.7139 35.6115 49.6198 35.5644 49.5257C35.4703 49.2433 34.9996 49.1962 35.0467 48.8197C34.9526 48.8197 34.8114 48.7727 34.7173 48.8197C34.5761 48.9139 34.529 49.1963 34.3408 49.008C34.2466 48.9139 34.2466 48.6786 34.2466 48.5374C34.2466 48.302 34.3408 48.1609 34.5761 48.1609C34.7643 48.1609 34.9526 48.1138 35.0467 48.1138C35.4232 48.1609 35.7056 48.1609 35.6585 48.5374C35.6585 48.5844 35.7056 48.6786 35.7527 48.7256C36.1762 48.9609 36.035 49.2433 35.988 49.4786ZM37.3528 48.9609C37.3058 48.9609 37.2587 48.8197 37.1646 48.7256C37.3058 48.6786 37.3999 48.5844 37.494 48.6315C37.5411 48.6315 37.6352 48.8197 37.5881 48.8197C37.5411 48.8668 37.4469 48.9609 37.3528 48.9609Z" fill="#D76700"/>
</svg>
