<svg width="22" height="24" viewBox="0 0 22 24" fill="none" xmlns="http://www.w3.org/2000/svg">
<path d="M21.5 11.7252C21.3166 11.8163 21.1332 11.8163 20.9498 11.9074C21.1332 11.9984 21.2249 12.1806 21.4083 12.2716L21.3166 12.3627L6.91921 20.65C6.73581 20.7411 6.6441 20.7411 6.4607 20.8322C6.369 20.9232 6.27729 20.9232 6.18559 21.0143L5.54367 21.3786C5.45197 21.3786 5.36026 21.2875 5.26856 21.1965C4.90175 20.9232 4.16812 21.1054 3.98472 21.4697L3.89301 21.5607C3.98471 21.8339 3.89301 22.1072 3.80131 22.3804L1.14192 23.9285C0.866812 24.1107 0.5 23.9285 0.5 23.5643V23.2911C0.683407 23.2 0.775108 23.0179 0.683405 22.8357C0.683405 22.5625 0.77511 22.4714 0.958515 22.4714C1.14192 22.4714 1.23362 22.3804 1.32533 22.1982C1.50873 22.2893 1.69214 22.2893 1.96725 22.3804C2.05895 22.3804 2.15066 22.2893 2.24236 22.1982C2.15066 22.1072 2.15065 22.0161 2.05895 22.0161C1.87555 21.925 1.69214 21.925 1.50873 21.8339C1.50873 21.6518 1.60044 21.5607 1.60044 21.3786C1.60044 21.3786 1.60044 21.2875 1.69214 21.2875C2.24236 21.2875 1.23362 20.2858 2.15065 20.559C2.42576 20.2858 2.70087 19.9215 3.06769 19.6483C3.5262 19.1929 3.98471 18.7376 4.35153 18.1912C4.62664 17.9179 4.90175 17.6447 4.71834 17.1894C4.71834 17.0983 4.71834 17.0073 4.81004 16.9162C5.17686 16.5519 5.45197 16.0966 5.81878 15.7323C5.91048 15.5501 6.09389 15.4591 6.369 15.5501C6.73581 15.6412 7.28603 15.0037 7.19432 14.5484C7.10262 14.093 7.19432 14.093 7.56114 14.093C7.92795 14.093 8.01965 13.9109 8.11135 13.7287C8.20306 13.6377 8.01965 13.4555 8.01965 13.2734C8.01965 13.1823 7.92795 13.1823 7.92795 13.1823C7.46943 12.727 7.28603 12.727 6.91921 13.1823C6.82751 13.3645 6.6441 13.4555 6.5524 13.6377C6.369 13.8198 6.27729 14.002 6.09389 14.1841C6.00218 14.2752 5.91048 14.4573 6.00218 14.4573C6.27729 14.9127 5.91048 15.0948 5.72707 15.368C5.63537 15.4591 5.63537 15.5501 5.54367 15.5501C5.26856 15.9144 4.99345 16.0055 4.62664 15.8233C4.25982 15.6412 4.25982 15.7323 4.35153 16.0055C4.35153 16.2787 4.16812 16.5519 4.44323 16.8251C4.44323 16.9162 4.25982 17.1894 4.07642 17.2805C3.98472 17.3715 3.80131 17.2805 3.70961 17.1894C3.5262 17.0983 3.34279 16.9162 3.15939 16.734C3.06769 16.643 2.88428 16.734 2.79258 16.643C2.79258 16.734 2.79258 17.0073 2.88428 17.0073C3.4345 17.1894 3.15939 17.6447 3.34279 18.009C3.4345 18.1912 3.25109 18.2822 3.06769 18.2822C2.79258 18.1912 2.60917 18.3733 2.51747 18.5554C2.05895 19.1019 1.60044 19.7393 1.05022 20.2858C0.958515 20.3768 0.866812 20.4679 0.775108 20.559V18.1912C0.775108 18.1912 0.775108 18.1912 0.775108 18.1001C0.866812 18.009 0.775108 17.9179 0.775108 17.7358V3.89323C0.866812 3.80216 0.866812 3.71109 0.958515 3.62002C1.14192 3.62002 1.23362 3.43788 1.32533 3.16467C1.32533 3.0736 1.32533 2.98253 1.32533 2.98253C1.41703 2.98253 1.50873 2.98253 1.50873 2.98253C1.87555 2.61825 2.24236 2.25397 2.51747 1.79863C2.51747 1.79863 2.51747 1.61649 2.42576 1.52542C2.33406 1.52542 2.24236 1.43435 2.15065 1.52542C2.05895 1.61649 1.96725 1.70756 1.87555 1.70756C1.69214 1.88969 1.60044 1.88969 1.32533 1.98076C1.05022 2.07183 0.866812 2.1629 0.683405 2.34504V0.887929C0.683405 0.887929 0.683405 0.887929 0.775108 0.887929C1.14192 0.978999 1.23362 0.978999 1.32533 0.61472C1.41703 0.250441 1.41703 0.159372 1.05022 0.0683022C0.958515 0.0683022 0.958515 0.0683022 0.866812 0.0683022C0.866812 -0.0227674 1.05022 -0.0227674 1.23362 0.0683022L2.24236 0.61472C2.15066 0.796859 2.24236 0.887929 2.42576 1.07007C2.70087 1.25221 2.79258 1.16114 2.97598 1.07007L10.3122 5.25927C10.2205 5.25927 10.2205 5.25927 10.1288 5.25927C10.0371 5.25927 9.94541 5.35034 9.85371 5.35034C9.94541 5.44141 9.94541 5.53248 10.0371 5.62355C10.2205 5.71462 10.4039 5.71462 10.5873 5.80569C10.8624 5.89676 11.0459 5.89676 11.0459 6.16997C11.0459 6.35211 11.5961 6.53425 11.6878 6.44318C11.7795 6.35211 11.7795 6.26104 11.8712 6.16997L21.4083 11.6341L21.5 11.7252ZM6.09389 19.7393C6.09389 19.8304 6.09389 19.9215 6.09389 20.0126C6.18559 20.0126 6.369 20.0126 6.369 19.9215C6.4607 19.9215 6.369 19.7393 6.369 19.5572C6.27729 19.6483 6.18559 19.7393 6.09389 19.7393ZM7.28603 18.5554C7.10262 18.4644 6.91921 18.1912 6.73581 18.4644C6.6441 18.5554 6.82751 18.8286 6.91921 19.0108C7.10262 19.0108 7.19432 19.0108 7.28603 18.9197C7.46943 18.7376 7.46943 18.5554 7.28603 18.5554ZM3.70961 14.2752C3.80131 14.2752 3.89301 14.2752 3.98472 14.1841C3.98472 14.1841 3.98472 14.002 3.98472 13.9109C3.89301 13.9109 3.70961 13.9109 3.70961 13.9109C3.70961 14.002 3.70961 14.1841 3.70961 14.2752ZM1.23362 13.0913C1.05022 13.1823 1.05022 13.3645 1.23362 13.4555C1.41703 13.6377 1.60044 13.4555 1.78384 13.1823C1.78384 13.0913 1.78384 13.0002 1.78384 12.8181C1.60044 13.0002 1.41703 13.0002 1.23362 13.0913ZM1.60044 9.0842C1.50873 9.17527 1.50873 9.17527 1.41703 9.26634C1.41703 9.44847 1.32533 9.53954 1.32533 9.72168C1.41703 9.72168 1.60044 9.63061 1.69214 9.63061C1.87555 9.53955 1.96725 9.44847 2.15065 9.44847C2.24236 9.44847 2.33406 9.35741 2.51747 9.35741C2.51747 9.26634 2.42576 9.0842 2.42576 9.0842C2.15066 8.81099 1.96725 8.81099 1.60044 9.0842ZM2.79258 2.98253C2.70087 3.0736 2.60917 3.0736 2.51747 3.16467C2.33406 3.16467 2.24236 3.71109 2.24236 3.80216C2.33406 3.89323 2.33406 3.9843 2.42576 4.16644C2.51747 4.07537 2.60917 3.9843 2.70087 3.80216C2.70087 3.71109 2.70087 3.71109 2.79258 3.52895C2.79258 3.52895 2.79258 3.43788 2.79258 3.34681C2.88428 3.16467 2.79258 3.0736 2.79258 2.98253ZM2.79258 11.7252C2.70087 11.6341 2.51747 11.7252 2.24236 11.7252C2.24236 11.9984 2.15066 12.2716 2.24236 12.2716C2.51747 12.4538 2.60917 12.1806 2.79258 12.0895C2.88428 12.0895 2.97598 11.9074 2.79258 11.7252ZM2.79258 14.9127C2.79258 15.0948 2.70087 15.2769 2.70087 15.368C2.88428 15.5501 3.06769 15.6412 3.25109 15.7323C3.34279 15.6412 3.4345 15.5501 3.4345 15.4591C3.4345 15.368 3.34279 15.1859 3.25109 15.0948C3.25109 15.0037 3.15939 14.8216 3.15939 14.7305C3.06769 14.7305 2.97598 14.8216 2.79258 14.9127ZM4.07642 3.71109C3.80131 3.62002 3.5262 3.62002 3.34279 3.62002L3.25109 3.71109C3.4345 3.9843 3.5262 4.25751 3.80131 4.43964C4.07642 4.62178 4.07642 4.25751 4.16812 3.9843C4.16812 3.9843 4.16812 3.71109 4.07642 3.71109ZM4.99345 14.5484C4.99345 14.4573 4.99345 14.3662 4.99345 14.3662C4.99345 14.3662 4.81004 14.2752 4.81004 14.3662C4.81004 14.4573 4.81004 14.5484 4.71834 14.5484C4.81004 14.4573 4.81004 14.4573 4.99345 14.5484ZM4.53493 13.1823C4.62664 13.1823 4.71834 13.2734 4.81004 13.1823C4.90175 13.1823 4.81004 13.0002 4.81004 12.8181C4.62664 12.9091 4.53493 12.9091 4.53493 12.9091C4.53493 13.0002 4.53493 13.1823 4.53493 13.1823ZM5.26856 3.9843C5.08515 3.89323 4.99345 3.89323 4.81004 3.89323C4.71834 3.89323 4.62664 3.9843 4.53493 3.9843C4.62664 4.07537 4.62664 4.16644 4.71834 4.2575C4.71834 4.2575 4.81004 4.25751 5.08515 4.34858H5.17686C5.26856 4.34858 5.36026 4.2575 5.45197 4.16644C5.45197 4.16644 5.36026 4.07537 5.26856 3.9843ZM6.09389 7.71815C6.18559 7.71815 6.27729 7.71815 6.369 7.71815C6.369 7.71815 6.369 7.53601 6.369 7.44494C6.18559 7.44494 6.09389 7.44494 6.00218 7.53601L6.09389 7.71815ZM6.4607 4.71285C6.369 4.80392 6.27729 4.80392 6.27729 4.89499C6.27729 4.98606 6.369 5.07713 6.4607 5.1682C6.5524 5.07713 6.6441 4.98606 6.6441 4.89499C6.6441 4.89499 6.5524 4.80392 6.4607 4.71285ZM8.75327 18.5554C9.21179 18.9197 9.21179 18.9197 9.4869 18.6465C9.76201 18.3733 9.94541 18.009 10.4039 18.1001C10.4039 18.1001 10.5873 17.918 10.4956 17.8269C10.4039 17.5537 10.0371 17.2805 10.0371 16.9162C10.0371 16.9162 9.85371 16.8251 9.76201 16.9162C9.30349 17.0983 9.12009 17.4626 9.12009 17.918C9.12009 18.1001 9.12009 18.2822 8.84498 18.2822C8.66157 18.2822 8.47817 18.1912 8.38646 18.3733C8.56987 18.3733 8.75327 18.5554 8.75327 18.5554ZM9.85371 16.0966C9.85371 16.0966 9.85371 16.0055 9.76201 15.8233C9.67031 15.9144 9.5786 16.0055 9.5786 16.0966C9.5786 16.0966 9.67031 16.1876 9.67031 16.2787C9.76201 16.1876 9.85371 16.1876 9.85371 16.0966ZM7.28603 6.26104C7.37773 6.26104 7.46943 6.26104 7.56114 6.26104C7.56114 6.16997 7.65284 6.0789 7.56114 5.98783C7.46943 5.89676 7.37773 5.89676 7.28603 5.89676C7.19432 5.89676 7.19432 5.89676 7.10262 5.98783C7.19432 6.16997 7.19432 6.26104 7.28603 6.26104ZM8.38646 4.71285C8.29476 4.71285 8.20306 4.62178 8.01965 4.62178C7.92795 4.62178 7.74454 4.53071 7.56114 4.53071C7.46943 4.53071 7.37773 4.62178 7.37773 4.62178C7.37773 4.71285 7.37773 4.80392 7.46943 4.89499C7.56114 4.98606 7.65284 5.07713 7.65284 5.1682C7.65284 5.35034 7.65284 5.62355 7.92795 5.62355C8.20306 5.62355 8.47817 5.62355 8.66157 5.25927C8.66157 4.98606 8.66157 4.80392 8.38646 4.71285ZM9.21179 4.98606C9.02838 4.98606 8.93668 5.07713 8.93668 5.25927C8.93668 5.44141 8.93668 5.62355 9.02838 5.80569C9.12009 5.80569 9.12009 5.80569 9.21179 5.80569C9.30349 5.62355 9.4869 5.44141 9.4869 5.25927C9.5786 5.07713 9.3952 5.07713 9.21179 4.98606ZM11.5044 8.71992C11.4127 8.71992 11.2293 8.81099 11.1376 8.81099C10.9541 8.90206 10.8624 9.17527 10.7707 9.26634C10.679 9.3574 10.4956 9.35741 10.4039 9.35741C10.0371 9.35741 9.5786 9.72168 9.76201 10.086C9.85371 10.3592 9.85371 10.4502 9.67031 10.6324C9.3952 10.8145 9.30349 11.1788 8.93668 11.1788C8.47817 11.1788 8.29476 11.452 8.38646 11.9074C8.38646 11.9984 8.38646 12.1806 8.38646 12.1806C8.20306 12.4538 8.29476 12.5448 8.47817 12.727C8.84498 13.0002 8.84498 13.0002 9.12009 12.6359C9.21179 12.5448 9.30349 12.4538 9.3952 12.2716C9.5786 12.0895 9.76201 11.9074 9.85371 11.7252C9.94541 11.5431 9.85371 11.2699 9.94541 11.0877C10.0371 10.9967 10.4039 11.0877 10.4956 10.9967C10.679 10.8145 11.0459 10.6324 10.7707 10.2681C10.679 10.177 10.7707 9.99489 10.8624 9.90382C11.0459 9.63061 11.321 9.3574 11.5044 9.0842C11.5044 8.99313 11.4127 8.81099 11.5044 8.71992ZM11.5044 15.6412C11.4127 15.6412 11.2293 15.7323 11.1376 15.6412C10.9541 15.5501 10.8624 15.5501 10.7707 15.7323C10.7707 15.8233 10.8624 15.9144 10.8624 16.0966C10.8624 16.0966 10.9541 16.1876 11.0459 16.2787C11.0459 16.2787 11.321 16.3698 11.4127 16.3698C11.5961 16.1876 11.5961 16.0055 11.6878 15.8233C11.6878 15.7323 11.5961 15.6412 11.5044 15.6412ZM12.238 13.0913C12.238 13.0913 12.3297 13.1823 12.4214 13.0913C12.5131 13.0913 12.5131 13.0002 12.6048 13.0002C12.6048 12.9091 12.6048 12.9091 12.5131 12.8181C12.4214 12.6359 12.3297 12.4538 12.238 12.3627C12.1463 12.2716 12.0546 12.2716 11.9629 12.2716C11.9629 12.3627 11.8712 12.4538 11.8712 12.5448C12.0546 12.727 12.1463 12.9091 12.238 13.0913ZM12.9716 6.98959C12.8799 6.98959 12.6965 6.89852 12.6965 6.98959C12.6048 7.08066 12.4214 7.2628 12.3297 7.44494C12.1463 7.62708 12.0546 7.80922 11.8712 7.99136C11.8712 8.08243 11.8712 8.1735 11.8712 8.26457C11.9629 8.26457 12.0546 8.26457 12.1463 8.26457C12.4214 7.90029 12.7882 7.62708 13.0633 7.2628C13.0633 7.17173 13.0633 6.98959 12.9716 6.98959ZM14.4389 12.3627C14.3472 12.3627 14.2555 12.4538 14.0721 12.4538C14.0721 12.5448 14.0721 12.727 14.1638 12.727C14.2555 12.727 14.4389 12.727 14.4389 12.6359C14.5306 12.5448 14.5306 12.4538 14.5306 12.3627C14.6223 12.3627 14.5306 12.3627 14.4389 12.3627ZM16.548 9.81275C16.3646 9.72168 16.1812 9.72168 16.0895 9.72168C16.0895 9.81275 16.0895 9.99489 15.9978 10.086C15.9978 10.086 15.9978 10.086 15.9978 10.177C15.9061 10.3592 15.8144 10.7234 16.1812 10.7234C16.3646 10.7234 16.548 10.4502 16.6397 10.2681C16.6397 10.086 16.548 9.90382 16.548 9.81275ZM20.3079 11.6341C20.2162 11.6341 20.2162 11.7252 20.1245 11.7252C20.1245 11.8163 20.2162 11.9074 20.2162 11.9074C20.3079 11.9074 20.3996 11.9074 20.4913 11.9074C20.3996 11.7252 20.3996 11.6341 20.3079 11.6341Z" fill="#D76700"/>
</svg>
