<svg width="70" height="70" viewBox="0 0 70 70" fill="none" xmlns="http://www.w3.org/2000/svg">
<path d="M24.9694 3.13037L10.3672 8.85191C10.5891 8.98497 10.8998 9.11803 11.1217 9.29544C11.1661 9.33979 11.1661 9.47285 11.1217 9.51721C10.8554 9.82768 10.5003 10.1825 10.234 10.493C10.0565 10.4486 9.92333 10.4043 9.79018 10.3599C9.61264 10.2712 9.39072 10.1381 9.21319 9.96074C9.03565 9.82768 9.03565 9.65026 9.25757 9.47285C9.52388 9.33979 9.92333 9.33979 10.0121 8.94062L8.05921 9.69462C8.10359 9.73897 8.19236 9.78332 8.23675 9.82768C8.28113 9.82768 8.28113 10.1381 8.23675 10.2269C8.1036 10.3599 7.92606 10.4486 7.70414 10.493C7.03838 10.626 6.41701 10.7147 5.75126 10.8921C5.6181 10.8921 5.48495 10.8478 5.30742 10.8478C5.30742 10.8478 5.30742 10.8478 5.30742 10.8034L4.15344 11.247C4.02029 11.2913 3.88714 11.38 3.7096 11.4687C3.75399 11.5131 3.84275 11.5574 3.9759 11.5574C4.02029 11.5574 4.10906 11.7349 4.10906 11.7792C4.10906 11.8679 3.9759 11.9566 3.93152 11.9566C3.7096 11.9566 3.4433 12.001 3.22138 11.9123C3.13261 12.2227 2.99946 12.6219 2.99946 13.0654V13.1985C3.08823 13.1542 3.13261 13.1098 3.22138 13.0654C3.26576 13.0654 3.4433 13.1098 3.4433 13.1542C3.4433 13.4646 3.4433 13.8194 3.39892 14.2186C3.39892 14.263 3.177 14.3517 3.13261 14.3073C3.08823 14.263 3.04385 14.2186 3.04385 14.2186V15.7266C3.08823 15.7266 3.13261 15.6823 3.22138 15.6823C3.53207 15.3718 3.93152 16.2145 4.19782 15.6823C4.41974 15.2831 4.77481 15.2831 5.0855 15.1944C5.88441 14.9726 6.7277 14.6622 7.52661 14.4847C7.74852 14.4404 8.10359 14.396 8.28113 14.4847C8.72497 14.7065 9.12442 14.6622 9.56826 14.6178C9.70141 14.6178 9.87895 14.6622 10.0565 14.6622C10.0121 14.7952 9.92333 14.9283 9.87895 15.1057C9.83456 15.1944 9.79018 15.2831 9.74579 15.3718C9.65703 15.6379 9.52388 15.6823 9.25757 15.5049C8.76935 15.2387 7.92606 15.4162 7.70414 15.904C7.52661 16.2145 6.86085 16.4806 6.55016 16.1702C6.23948 15.8597 5.92879 16.0371 5.66249 16.0815C5.39619 16.1258 4.99673 16.1258 4.95235 16.6137C4.86358 17.0572 3.75399 17.2346 3.4433 17.0129C3.39892 16.9242 3.22138 16.7467 3.13261 16.7467C3.08823 16.7467 3.04385 16.7467 2.99946 16.7467V20.3837C3.04385 20.428 3.08823 20.5168 3.13261 20.6055C3.35453 20.8716 3.177 21.0933 2.99946 21.2264V29.3874C3.04385 29.3874 3.04385 29.343 3.08823 29.343C3.39892 28.9438 3.88714 28.7221 3.9759 28.1455C3.9759 28.0568 4.10906 27.9681 4.19782 27.9681C4.37536 27.9237 5.0855 28.5003 5.17427 28.7664C5.17427 28.8551 5.17427 29.1656 5.0855 29.2099C4.86358 29.2986 4.50851 29.4317 4.28659 29.343C3.9759 29.2099 3.75399 29.1656 3.66522 29.5204C3.62083 29.6535 3.48768 29.7422 3.35453 29.7865C3.26576 29.7865 3.13261 29.8309 2.95508 29.8309C2.95508 32.2703 3.177 34.4879 3.57645 36.5282C3.84275 36.6169 4.02029 36.7499 4.46413 37.2378C4.50851 37.2822 4.64166 37.4152 4.73043 37.5483C4.99673 37.9918 4.95235 38.2579 4.55289 38.5241C4.46413 38.5684 4.33097 38.6128 4.28659 38.5684C4.19782 38.5241 4.15344 38.5241 4.06467 38.4797C5.21865 42.915 7.08277 46.3302 9.30196 49.0801C9.47949 49.0357 9.74579 49.0801 9.92333 49.3018C10.0121 49.4349 10.5003 49.3018 10.7666 49.1688C10.8554 49.1244 10.8998 48.7696 10.8554 48.5922C10.811 48.4148 10.7222 48.2817 10.6779 48.1043C10.6335 48.06 10.5891 48.0156 10.5447 47.9713C10.0565 47.439 10.1009 47.1286 10.7666 46.8624C11.0329 46.7737 11.388 46.7737 11.6543 46.7737C11.9206 46.7737 12.0981 47.1729 11.8762 47.3503C11.7874 47.4834 11.6543 47.5721 11.4768 47.7495C11.388 47.8382 11.2548 47.8826 11.1661 47.9713C11.3436 48.3704 11.4324 48.3704 11.965 48.2817C12.1425 48.2817 12.3644 48.2374 12.5864 48.1487C12.6751 48.1043 12.7195 48.0156 12.8083 47.9713C13.2965 47.6608 13.4296 47.7051 13.6959 48.1487C13.7403 48.2374 13.7847 48.2817 13.7847 48.3261C13.9179 48.3261 14.051 48.2374 14.1842 48.1043C14.4949 47.5721 14.6724 47.5277 15.1606 47.8826C15.3825 48.0156 15.4713 47.9713 15.6488 47.7495C15.8708 47.1729 16.4034 47.0398 16.8472 47.439C17.0691 47.6608 17.1579 47.6164 17.3798 47.306C17.5573 46.9068 17.5573 46.9068 17.9124 47.2173C18.2231 47.439 18.4006 47.439 18.5338 47.0842C18.5782 47.0398 18.6225 46.9511 18.6669 46.9068C18.4894 46.8181 18.4006 46.6407 18.5782 46.3746C18.8445 46.0641 19.1552 45.8867 19.4215 46.1084C19.599 46.2415 19.8209 46.4189 19.9541 46.5963C19.9984 46.5963 20.0428 46.6407 20.0872 46.685C20.3535 46.8624 20.531 46.8624 20.6198 46.552C20.6642 46.4633 20.7086 46.3745 20.753 46.2858C21.0193 45.8867 21.0193 45.8867 20.5754 45.7093C20.4423 45.5762 20.3091 45.4431 20.3091 45.3544V45.3101C20.1316 45.1327 19.9984 44.8666 19.7765 44.6891C19.6434 44.5561 19.5102 44.3787 19.3771 44.2013C18.9332 43.6247 18.9776 43.5803 19.4658 43.0924C20.0428 42.4715 20.6198 42.8263 21.1524 43.0037C21.4187 43.0924 21.685 43.3142 22.0401 43.2255C22.262 43.1811 22.7059 43.8021 22.6171 44.0682C22.5283 44.3343 22.0845 44.6448 21.7738 44.5561C21.6406 44.5561 21.5075 44.5561 21.33 44.5561C21.3743 44.6891 21.33 44.8665 21.4187 44.9996C21.5519 45.2214 21.8182 45.4431 21.9957 45.7093V45.7536H22.0845C22.3064 45.7093 22.5727 45.6649 22.839 45.6205C22.7946 45.5762 22.7502 45.5318 22.7502 45.4875C22.5283 45.2214 22.6615 44.9996 22.839 44.7778C23.0609 44.6004 23.2828 44.4674 23.5491 44.7335C23.6823 44.8665 23.8154 44.9996 23.9486 45.1327C24.0817 45.3101 24.1705 45.3988 24.2149 45.5762C24.2593 45.6649 24.3037 45.7536 24.3481 45.798C24.3481 45.798 24.3481 45.798 24.3924 45.798C24.7919 45.7536 25.147 46.0197 25.147 46.4189C25.147 46.5076 25.0582 46.685 24.9694 46.685C24.7031 46.7294 24.4368 46.9068 24.1705 46.7294C24.1261 46.7737 24.0818 46.7737 24.0374 46.8181C23.5048 47.2173 23.5048 47.2173 23.9042 47.7938C23.993 47.9269 24.0817 48.1043 23.9042 48.2817C23.8154 48.3261 23.6379 48.2374 23.5048 48.193C23.3716 48.06 23.2385 47.8826 23.0609 47.7051C22.8834 47.5277 22.7502 47.2616 22.3508 47.439C22.3064 47.439 22.262 47.439 22.2176 47.3947C22.0401 47.3947 21.9069 47.3503 21.7738 47.1729C21.6406 46.9955 21.5519 47.0842 21.4631 47.2616C21.1968 47.8382 20.3091 48.06 19.7765 47.7495C19.3771 47.5277 18.8445 47.7051 18.6225 48.06C18.3562 48.6366 17.6017 48.814 17.0691 48.3704C16.8028 48.193 16.6253 48.193 16.5365 48.5035C16.4477 48.814 16.2702 48.9027 16.0039 48.6366C15.782 48.4148 15.5601 48.4148 15.4713 48.7253C15.4269 48.9914 15.2494 49.0357 14.9831 49.1688C14.2729 49.3462 13.5184 49.568 12.8083 49.7454C12.8083 49.7897 12.8083 49.7897 12.8083 49.7897C12.897 49.8341 13.0746 49.9228 13.119 49.8784C13.5184 49.6123 13.8735 49.568 14.3173 49.6123C14.4505 49.6123 14.628 49.5236 14.7612 49.568C14.9387 49.701 15.1606 49.8784 15.205 50.1002C15.2494 50.2333 15.0718 50.4107 14.9831 50.6324C14.8943 50.8099 14.7612 51.0316 14.8055 51.1647C14.8499 51.3864 15.0718 51.3421 15.3381 51.2977C15.5157 51.2534 15.782 51.2977 15.9595 51.2534C16.1814 51.1647 16.359 51.2534 16.4921 51.4308C17.2023 52.2291 17.868 53.0719 18.5782 53.9146C18.8001 54.1363 18.7113 54.3581 18.4894 54.5355C18.2231 54.7573 17.9124 55.0234 17.6461 55.2008C17.1135 55.5113 16.8472 55.4669 16.4034 55.0234C16.359 54.979 16.3146 54.8903 16.2702 54.846C16.1371 54.8016 16.0039 54.846 15.8264 54.846C15.7376 54.846 15.6932 54.846 15.6488 54.8903C16.3146 55.3339 16.9803 55.733 17.6017 56.1322C17.7793 55.9548 18.0456 55.8217 18.2231 55.6C18.445 55.3782 18.7557 55.1564 19.022 54.9347C19.0664 54.8903 19.2439 54.8903 19.2883 54.9347C19.3327 54.979 19.3771 55.1121 19.3771 55.2008C19.3771 55.3782 19.3327 55.6 19.3327 55.7774C19.3327 56.0435 18.7557 56.6201 18.5338 56.5314C18.445 56.487 18.3562 56.487 18.2675 56.487C18.8001 56.7532 19.3771 57.0636 19.8209 57.2854C19.8209 57.241 19.8209 57.1967 19.7765 57.1523C19.599 56.8419 19.7321 56.5314 19.9541 56.3096C20.0428 56.2209 20.2647 56.1322 20.3535 56.1766C20.4423 56.2653 20.5754 56.487 20.531 56.6201C20.3535 57.0636 20.3979 57.1967 20.9305 57.1523C21.1968 57.108 21.9513 57.862 21.9513 58.2168V58.2612C23.1497 58.749 24.0817 59.0152 24.6587 59.1482C24.7031 59.0595 24.8363 58.9708 24.925 58.9264C25.0582 58.7934 25.2357 58.616 25.4133 58.8821C25.4576 58.9708 25.3689 59.1482 25.3245 59.37C25.3689 59.37 25.3689 59.37 25.3689 59.37C25.502 59.4143 25.5908 59.4143 25.7683 59.4143C25.8571 59.4143 25.9903 59.4143 26.079 59.37L26.6116 59.2813C27.4105 59.1926 28.2094 58.9708 29.0527 58.6603C28.964 58.4829 28.8308 58.2612 28.742 58.0837C28.6977 57.9507 28.5645 57.9063 28.5201 57.7733C28.4757 57.6846 28.5201 57.5959 28.5201 57.5072C28.6089 57.5072 28.6977 57.5072 28.742 57.5515C29.0083 57.7733 29.319 58.0394 29.6297 58.2612C29.6297 58.2612 29.6297 58.2612 29.5853 58.3055C29.6297 58.3499 29.6297 58.3942 29.6741 58.3942C30.0736 58.2168 30.4286 57.995 30.8281 57.7733C30.6505 57.6846 30.5174 57.5515 30.2955 57.5072C30.2955 57.5072 30.2955 57.241 30.3399 57.1967C30.5618 57.108 30.8281 57.0193 31.05 56.9306C30.8725 56.487 30.7393 56.0879 30.5618 55.6C30.473 55.6443 30.473 55.7774 30.473 56.1322C30.473 56.2209 30.4286 56.354 30.3842 56.3983C30.2955 56.4427 30.1623 56.3983 30.1179 56.354C29.9404 56.1322 29.541 55.9548 29.8073 55.5113C29.8516 55.4226 29.7629 55.1121 29.6741 54.979C29.4522 54.5799 28.964 54.3137 29.2303 53.7371C29.319 53.5597 29.0083 53.338 28.742 53.471C28.6533 53.5154 28.5645 53.5597 28.4757 53.6484C28.1651 53.9589 27.8988 53.7371 27.6768 53.5154C27.4105 53.2049 27.5437 52.9832 27.81 52.8057C27.8988 52.7614 27.9431 52.717 27.9875 52.6283C28.0319 52.4953 28.0763 52.3622 28.1207 52.1848C27.9875 52.1848 27.81 52.1404 27.6768 52.1848C27.4105 52.3179 27.233 52.2291 27.0998 52.0517C27.0111 51.9187 26.9223 51.7856 26.8335 51.6526C26.7892 51.6526 26.7448 51.6526 26.7004 51.6526C26.3897 51.6082 26.3009 51.4751 26.4785 51.1647C26.4341 51.1203 26.3897 51.0316 26.3453 50.9873C26.1678 50.7211 26.2566 50.455 26.4785 50.2333C27.0998 49.6567 27.4105 49.6567 27.9875 50.322C28.0763 50.4107 28.1207 50.4994 28.1651 50.5881C28.2094 50.6324 28.2538 50.6768 28.2538 50.7211C28.3426 50.5437 28.4314 50.455 28.5201 50.2776C28.6089 50.3663 28.7864 50.455 28.8308 50.5881C28.8752 50.7211 28.7864 50.8542 28.742 51.076C28.6533 50.9873 28.5201 50.9429 28.3426 50.8099C28.387 50.8542 28.387 50.8986 28.4314 50.9429C28.6089 51.1203 28.6089 51.3421 28.4757 51.5639C28.2982 51.8743 28.387 52.0961 28.6977 52.0074C29.1859 51.9187 29.4966 52.1404 29.7185 52.4953C29.7629 52.5396 29.8073 52.6283 29.8516 52.717C29.7185 51.83 29.6741 50.8542 29.6741 49.9228C29.6741 49.8784 29.6741 49.8784 29.6741 49.8341C29.6297 49.8341 29.6297 49.7897 29.5853 49.7897C29.3634 49.568 29.0527 49.5236 28.742 49.568C28.6977 49.3018 28.742 48.9914 28.6089 48.814C28.3426 48.3704 27.9431 48.0156 27.6325 47.6164C27.5881 47.5277 27.4549 47.4834 27.3661 47.4834C26.5672 47.6164 26.4785 46.8181 26.0346 46.4189C25.9903 46.4189 25.9903 46.3302 25.9903 46.3302C25.9459 46.3302 25.9015 46.3302 25.8571 46.3746C25.7683 46.3746 25.5908 46.2858 25.5908 46.1971C25.5464 46.1084 25.6352 45.931 25.7239 45.931C25.8571 45.8867 25.9903 45.8867 26.1678 45.8423C26.079 45.5762 25.8571 45.3544 25.6352 45.177C25.4576 44.9553 25.1913 44.6891 25.0138 44.4674C24.7919 44.2456 24.6144 43.8908 24.2149 44.0238C24.1261 44.0682 23.993 43.9351 23.9042 43.8464C23.6379 43.536 23.3272 43.1368 23.0165 42.782C22.9722 42.7376 22.8834 42.6045 22.9278 42.5602C23.1053 41.6288 22.2176 41.274 21.9069 40.653C21.8626 40.5643 21.685 40.5643 21.5075 40.5643C20.9749 40.5643 20.6642 40.2538 20.753 39.766C20.7973 39.4998 20.753 39.3224 20.6198 39.145C20.4423 38.9676 20.3091 38.7015 20.0872 38.5241C20.0428 38.4354 19.9097 38.3023 19.9541 38.2579C20.176 37.7701 19.8653 37.7701 19.5546 37.5927C18.8001 37.1491 18.1787 36.6169 17.868 35.7742C17.7349 35.5081 17.868 35.0645 17.9124 34.6654C17.9124 34.621 18.1787 34.5767 18.2231 34.621C18.445 34.7541 18.6669 34.9315 18.8445 35.1532C19.0664 35.4194 19.2883 35.7742 19.5546 36.0847C20.176 36.75 20.7973 37.4152 21.33 38.1249C21.8182 38.6571 22.1732 39.2781 22.6171 39.8547C22.7059 39.9434 22.7059 40.0764 22.7059 40.2538C22.7502 40.7417 22.8834 40.9635 23.1941 41.0965C23.1941 40.9635 23.2385 40.8304 23.416 40.8304C23.5935 40.8304 23.8598 40.9191 24.0374 40.9635C23.9486 41.0522 23.8598 41.1409 23.7267 41.274C23.9486 41.3627 24.1705 41.5401 24.3481 41.7618C24.57 42.028 24.7919 42.3828 24.9694 42.6489C25.1026 42.8707 25.3689 43.0481 25.2357 43.3585C25.1913 43.4473 25.3245 43.669 25.4133 43.669C26.079 43.6247 26.3453 44.2013 26.7448 44.5561C27.2774 45.0883 27.6325 45.7093 28.0763 46.2858C28.2538 46.4633 28.5201 46.5963 28.6533 46.8624C29.0971 47.3947 29.4966 47.9269 29.9404 48.4591C29.9848 47.7938 30.0736 47.1729 30.1623 46.552C29.9848 46.552 29.6741 46.3302 29.4966 46.1084C29.3634 45.9754 29.2303 45.798 29.0083 45.6649C28.8752 45.5762 28.7864 45.5762 28.6977 45.5762C28.5201 45.5762 28.2094 45.5318 28.2094 45.4875C28.2094 45.4431 28.2094 45.3544 28.1651 45.3101C27.6768 44.7335 27.1886 44.1125 26.7004 43.4916C26.6116 43.3585 26.6116 43.1811 26.6116 43.0037C26.6116 42.8707 26.6116 42.6932 26.5672 42.5602C26.4785 42.3828 26.3009 42.161 26.5229 42.028C26.7448 41.8949 27.0555 41.5844 27.3661 41.8505C27.5881 42.028 27.8544 42.2941 28.2094 42.1167C28.4314 42.028 28.964 42.6933 28.8308 42.915C28.5645 43.4029 28.9196 43.6247 29.0971 43.8908C29.1415 43.9795 29.2303 44.0238 29.2747 44.0682C29.6741 44.5117 29.7185 44.5561 30.1623 44.2013C30.2511 44.1569 30.3399 44.0682 30.4286 44.0238C30.473 44.0238 30.5174 44.0238 30.5618 44.0238C30.8281 43.1368 31.1832 42.2054 31.5826 41.3627H31.5382C31.4495 41.407 31.3607 41.5401 31.2719 41.4957C31.1832 41.4957 30.9612 41.3183 30.9612 41.3183C31.2275 40.6974 30.7393 40.4312 30.4286 40.0321C30.2955 39.8547 30.1623 39.6329 30.0292 39.4555C29.9848 39.2781 30.0736 39.0563 30.0736 38.7902C30.3399 38.7902 30.5618 38.7015 30.6949 38.7902C31.0056 38.8789 31.3607 39.0563 31.627 39.2337C31.6714 39.2337 31.7158 39.3224 31.7158 39.3668C31.7158 39.6772 31.7158 40.0764 31.7158 40.4312C31.7158 40.5643 31.7158 40.653 31.7601 40.7417C33.4023 37.4596 36.021 34.6654 39.1278 32.7582C39.1278 32.6695 39.1278 32.5364 39.1278 32.2703C39.3054 32.359 39.4385 32.4034 39.5717 32.4477C41.9684 31.0728 44.6758 30.1414 47.5608 29.8309C47.8714 28.2785 48.1377 26.7262 48.2709 25.2625V23.7545C48.1821 23.7545 48.0934 23.7102 48.049 23.6215C47.7827 23.3553 47.5164 23.0449 47.2945 22.7344C47.0725 22.4683 46.8062 22.1578 46.5843 21.8917C46.4955 21.803 46.4956 21.6256 46.6731 21.4482C46.8506 21.3151 47.1169 20.9603 47.3832 21.2264C47.7827 21.5369 48.0934 21.8917 48.3153 22.2909V13.0654C48.3153 12.2227 47.7827 11.5131 47.0282 11.2026L38.2846 7.83179C38.3733 7.9205 38.4177 8.0092 38.5065 8.05356C38.6396 8.18662 38.7284 8.36403 38.9059 8.54144C39.4385 8.85191 39.2166 9.33979 39.1722 9.82768C39.1278 10.0494 38.9503 10.1381 38.684 9.96074C38.6396 9.91638 38.5952 9.87203 38.5509 9.82768C38.0626 9.25109 37.5744 8.6745 37.0862 8.09791C36.8199 7.78744 36.8199 7.56567 37.0418 7.34391L34.6451 6.27944C34.6451 6.45685 34.5119 6.54555 34.3344 6.63426C34.2456 6.67861 34.0681 6.67861 33.9349 6.63426C33.4911 6.45685 33.2692 6.05767 33.0917 5.70285L26.3897 3.13037C25.9459 2.95296 25.4576 2.95296 24.9694 3.13037ZM7.52661 13.8194C7.43784 13.8638 7.34907 13.8194 7.21592 13.7751C7.30469 13.642 7.34907 13.5533 7.39345 13.5533C7.48222 13.5533 7.57099 13.5977 7.65976 13.642C7.57099 13.6864 7.57099 13.8194 7.52661 13.8194ZM7.48222 11.7349C7.21592 11.7349 6.90523 11.7792 6.81647 11.6905C6.59455 11.4687 6.86085 11.2913 7.03838 11.1583C7.17154 11.0252 7.43784 10.7591 7.61537 11.0696C7.65976 11.2026 7.52661 11.4244 7.48222 11.7349ZM4.41974 34.2218C3.93152 34.3105 3.7096 34.1775 3.57645 33.6452C3.53207 33.4235 3.84275 33.0686 4.19782 33.0243C4.46413 32.9799 4.64166 33.113 4.73043 33.5565C4.86358 34.0444 4.77481 34.1331 4.41974 34.2218ZM17.0247 49.7897C16.936 49.8784 16.714 49.9228 16.5365 49.8784C16.2702 49.7897 16.3146 49.4793 16.6697 49.1688C16.714 49.1244 16.8472 48.9914 16.936 48.9914C17.0691 48.9914 17.2466 49.0357 17.3354 49.1244C17.513 49.4793 17.2023 49.6123 17.0247 49.7897ZM18.7557 51.9187C18.5338 51.83 18.2231 51.7413 18.0456 51.5195C17.8236 51.3421 17.9124 51.076 18.1343 50.8986C18.3562 50.8099 18.7113 50.4994 18.8001 50.8986C18.8888 51.209 18.7557 51.6082 18.7557 51.9187ZM19.3327 56.8419C19.2883 56.8862 19.1552 56.7975 19.022 56.7088C19.1108 56.5757 19.1995 56.487 19.2883 56.4427C19.3327 56.4427 19.5102 56.5314 19.5102 56.5757C19.4658 56.6201 19.4215 56.7088 19.3327 56.8419ZM20.6198 48.947C20.6642 48.8583 20.6642 48.7696 20.7086 48.6366C20.753 48.5035 20.753 48.3704 20.753 48.193C20.8861 48.2374 21.0193 48.2817 21.1968 48.3261C21.33 48.4148 21.4187 48.5035 21.4631 48.5478C21.9957 49.1244 21.9957 49.2575 21.5519 49.6123C21.3743 49.7454 21.1524 50.0559 20.9305 49.7454C20.753 49.568 20.3535 49.3906 20.6198 48.947ZM20.9305 51.3864C20.9305 51.2977 20.8861 51.1647 20.9305 51.1203C21.108 50.8986 21.1968 50.455 21.685 50.6768C21.7738 50.7211 21.9513 50.6324 22.1289 50.5881C22.262 50.5437 22.3508 50.455 22.4396 50.3663C22.6171 50.2333 22.8834 50.1889 22.9722 50.4107C23.0165 50.5437 22.9278 50.7211 22.8834 50.9873C22.4839 51.0316 22.2176 51.0316 21.9513 51.1203C21.7294 51.1647 21.4187 51.2977 21.1968 51.3864C21.0637 51.3864 21.0193 51.3864 20.9305 51.3864ZM21.5519 56.2209C21.4631 56.1322 21.33 56.0879 21.33 56.0879C21.3743 55.9991 21.4187 55.9104 21.4631 55.8661C21.5075 55.8661 21.6406 55.9104 21.6406 55.9548C21.6406 55.9548 21.5963 56.0435 21.5519 56.2209ZM22.2176 55.7774C21.9069 55.9548 21.6406 55.8661 21.3743 55.4669C21.3743 55.4226 21.33 55.2452 21.33 55.0677C21.33 54.9347 21.3743 54.8016 21.33 54.6242C21.2856 54.3137 21.4187 54.225 21.6406 54.4024C21.685 54.4468 21.7294 54.4911 21.8182 54.4911C22.0401 54.5355 22.3952 54.9347 22.4839 55.1121C22.6615 55.4669 22.5283 55.6443 22.2176 55.7774ZM23.0609 52.9388C23.0609 52.9388 23.0165 52.9832 22.9278 53.0275C22.8834 52.9832 22.7946 52.8944 22.7502 52.8057C22.5727 52.5396 22.5283 52.0517 22.0845 51.963C22.0401 51.963 22.0401 51.83 22.0845 51.7856C22.1289 51.7413 22.2176 51.6526 22.3064 51.6969C22.7059 51.7413 23.0609 51.83 23.4604 51.9187C23.5048 51.9187 23.5491 52.0517 23.5935 52.1404C23.1941 52.2735 23.1053 52.5396 23.0609 52.9388ZM25.147 53.7371C24.925 53.5597 24.6587 53.2936 24.4368 53.1162C24.3037 53.0275 24.1261 52.9388 23.9486 52.8501C23.8154 52.8057 23.6823 52.7614 23.4604 52.7614C23.5491 52.584 23.5935 52.4509 23.7267 52.1404C23.9486 52.1404 24.1705 52.1404 24.3481 52.1848C24.5256 52.1848 24.6587 52.2291 24.8807 52.2291C25.2801 52.2735 25.502 52.6283 25.4576 52.9831C25.4576 53.1606 25.4576 53.2936 25.4576 53.5154C25.4576 53.6041 25.4133 53.6928 25.4133 53.7815C25.3245 53.7815 25.1913 53.7815 25.147 53.7371ZM28.0763 56.487C28.1207 56.5314 28.1207 56.7532 28.0319 56.7975C27.9431 56.8419 27.7656 56.8862 27.6325 56.8419C27.5437 56.7975 27.5881 56.6201 27.5881 56.3096C27.81 56.3983 27.9875 56.3983 28.0763 56.487ZM26.7004 57.6846C26.7004 57.6846 26.7004 57.7289 26.7004 57.6846C26.8779 57.6846 27.0111 57.6402 27.233 57.5959C27.7656 57.4628 27.8988 57.5515 27.9875 57.862C28.1207 58.3942 27.9875 58.616 27.5437 58.749C27.1442 58.8377 26.7892 59.0152 26.3897 58.9708C26.079 58.9264 25.7239 58.7047 25.4133 58.5273C25.4133 58.5273 25.4576 58.2612 25.5464 58.2168C25.9015 57.995 26.2566 57.862 26.7004 57.6846ZM26.3453 54.3137C26.3897 54.5799 26.4341 54.846 26.4341 55.0234C26.2122 54.8903 25.9015 54.8016 25.7239 54.5799C25.6796 54.5355 25.7683 54.1807 25.7683 54.1807C26.0346 54.225 26.1678 54.3137 26.3453 54.3137ZM25.502 47.1286C25.6796 47.3947 25.9459 47.6608 26.1678 47.9269C26.5672 48.3704 26.5672 48.4148 26.079 48.7696C25.9459 48.9027 25.8127 48.9914 25.6352 49.0801C25.502 49.1688 25.3689 49.3018 25.1913 49.3906C24.7475 49.7897 24.57 49.701 24.3037 49.2575C24.1705 49.0357 24.2149 48.814 24.3924 48.6809C24.57 48.5035 24.8363 48.2374 24.9694 48.0156C25.147 47.7051 25.0582 47.5721 24.7475 47.5277C24.6144 47.5277 24.4368 47.439 24.2593 47.3947C24.3037 47.2616 24.3481 47.0842 24.4368 46.9068C24.925 46.5963 25.1026 46.5963 25.502 47.1286ZM46.8062 16.4806C46.9838 16.2589 47.1169 16.4363 47.3388 16.5693C47.4276 16.6137 47.5164 16.658 47.5164 16.7467C47.5608 16.8798 47.5164 17.0572 47.5164 17.2346C47.3832 17.2346 47.2501 17.2346 47.0725 17.1903C46.9838 17.1903 46.9394 17.0572 46.8062 16.9242C46.8062 16.7911 46.6731 16.5693 46.8062 16.4806ZM20.2647 6.19073C20.2647 6.14638 20.531 6.14638 20.531 6.14638C20.6198 6.36814 20.6642 6.67861 20.7086 6.94473C20.7086 6.98908 20.4867 7.07779 20.4867 7.03344C20.3535 6.94473 20.3091 6.76732 20.2204 6.58991C20.176 6.45685 20.176 6.32379 20.2647 6.19073ZM18.3562 7.12214C18.4894 7.12214 18.5782 7.29956 18.7557 7.38826C18.8001 7.43261 18.8001 7.52132 18.8001 7.61003C18.8001 7.69873 18.8445 7.83179 18.8001 8.0092C18.7113 8.18662 18.5338 8.27532 18.3562 8.09791C18.2675 7.96485 18.1787 7.78744 18.1343 7.56567C18.0899 7.43261 18.1343 7.1665 18.3562 7.12214ZM17.9568 23.5328C18.1343 23.4884 18.4006 23.7102 18.6225 23.7989C18.6225 23.8432 18.6225 23.8876 18.5782 23.9319C18.8445 24.198 19.1552 24.5085 19.3771 24.819C19.4658 24.9077 19.3771 25.0851 19.3771 25.3069C19.2439 25.2625 18.9776 25.3069 18.8888 25.2182C18.7113 24.952 18.5782 24.6416 18.0899 24.7746C17.9568 24.819 17.5573 24.3755 17.513 24.1537C17.513 24.0206 17.7349 23.6658 17.9568 23.5328ZM16.4921 22.6457C16.5809 22.557 16.8916 22.7344 17.0247 22.7344C17.1579 22.9562 17.2466 23.0449 17.2466 23.2223C17.2466 23.311 17.1579 23.5328 17.1135 23.5328C16.936 23.4884 16.6697 23.444 16.6253 23.3553C16.4921 23.1779 16.1814 22.8675 16.4921 22.6457ZM16.5809 29.5204C16.5365 29.6535 16.5809 29.7865 16.5365 29.8309C16.4477 29.8752 16.359 29.8752 16.2702 29.8752C16.2702 29.7865 16.2258 29.6978 16.2702 29.6535C16.2702 29.5648 16.4034 29.5648 16.5809 29.5204ZM17.2466 30.851C17.291 30.7179 17.291 30.5849 17.3354 30.4075C17.3798 30.2744 17.3798 30.1414 17.4686 30.097C17.5573 30.0526 17.6905 30.1414 17.7793 30.1857C17.9124 30.2744 18.0012 30.3631 18.0456 30.4518C18.4894 30.9841 18.4894 31.2945 18.0899 31.6937C18.0012 31.7381 17.9124 31.8268 17.8236 31.8268C17.5573 31.8268 17.1579 31.1615 17.2466 30.851ZM17.5573 25.3956C17.5573 25.3956 17.6461 25.2182 17.6905 25.2182C17.7793 25.2182 17.868 25.2625 17.9568 25.3069C17.9124 25.3956 17.9124 25.4399 17.8236 25.573C17.7349 25.5286 17.6461 25.4843 17.5573 25.3956ZM15.9151 15.3274C16.0927 15.2387 16.359 15.1944 16.5365 15.1057C16.714 15.017 16.9803 14.9283 17.1579 14.8396C17.1579 14.8396 17.1579 14.8396 17.1579 14.8839C17.2467 14.8839 17.3354 14.7952 17.3798 14.8396C17.513 14.8839 17.6905 14.9726 17.7793 15.0613C17.8236 15.15 17.6905 15.3274 17.6017 15.3718C17.4242 15.4605 17.2023 15.5049 17.0247 15.5049C16.714 15.5492 16.4034 15.6379 16.0927 15.6823C15.9595 15.6823 15.8708 15.5936 15.6932 15.5936C15.7376 15.5936 15.782 15.3718 15.9151 15.3274ZM15.8708 21.6256C15.6932 21.7586 15.4713 21.936 15.2938 21.7143C15.2494 21.6256 15.3381 21.4482 15.3825 21.182C15.6045 21.1377 15.9151 21.049 16.0483 21.1377C16.2258 21.3151 16.0039 21.4925 15.8708 21.6256ZM14.2729 7.87614C14.3173 7.78744 14.4061 7.65438 14.4949 7.65438C14.6724 7.61003 15.3825 8.27532 15.4269 8.49709C15.4269 8.63015 15.4269 8.7632 15.3825 8.94062C15.2938 8.89626 15.1606 8.85191 15.0718 8.85191C14.7612 8.7632 14.3173 8.89626 14.3173 8.40838C14.3173 8.14226 14.2286 7.96485 14.2729 7.87614ZM14.5836 13.2872C14.8055 13.2429 15.0275 13.1542 15.2494 13.1542C15.3381 13.1542 15.5157 13.2429 15.5157 13.3316C15.5157 13.4203 15.4269 13.5977 15.3825 13.5977C15.1162 13.6864 14.7612 13.7307 14.4949 13.8194C14.4949 13.8194 14.4949 13.8194 14.4949 13.8638C14.3173 13.9082 14.051 13.9969 13.8291 13.9969C13.6959 13.9969 13.3853 13.9525 13.3853 13.8638C13.3409 13.642 13.3853 13.3759 13.3853 13.1542C13.4296 13.1542 13.5184 13.1542 13.5628 13.1542C13.9179 13.509 14.2729 13.3759 14.5836 13.2872ZM15.205 30.6736C15.205 30.8066 15.2494 30.8954 15.2494 30.9841C15.1606 30.9841 15.0275 30.9841 14.9831 30.9397C14.9387 30.851 14.9387 30.7179 14.8943 30.6292C15.0275 30.6292 15.1162 30.6736 15.205 30.6736ZM14.7168 28.1455C14.6724 28.1011 14.7168 27.9237 14.7168 27.7019C14.8943 27.7906 15.0275 27.7906 15.1162 27.8793C15.1606 27.9237 15.1162 28.1455 15.0718 28.1455C14.9831 28.1898 14.8055 28.1898 14.7168 28.1455ZM13.4296 19.2305C13.5184 19.3636 13.6072 19.4079 13.6072 19.4966C13.6072 19.5853 13.5184 19.674 13.474 19.7184C13.4296 19.7627 13.3409 19.674 13.2521 19.6297C13.2965 19.541 13.2965 19.4966 13.4296 19.2305ZM13.119 18.3435C13.0746 18.3435 13.119 18.166 13.0746 17.9443C13.2521 17.9886 13.3853 17.9886 13.474 18.033C13.5184 18.0773 13.474 18.2104 13.474 18.2991C13.3409 18.3878 13.2077 18.3878 13.119 18.3435ZM13.5184 16.1258C13.6959 15.9484 13.9179 15.8153 14.1842 15.5492C14.3173 15.6823 14.5836 15.771 14.5836 15.8597C14.5836 15.9927 14.4505 16.1702 14.3173 16.1702C13.9623 16.3032 13.7403 16.2145 13.5184 16.1258ZM13.7403 9.47285C13.8291 9.47285 13.9179 9.56156 14.0066 9.60591C13.9623 9.69462 13.9179 9.82768 13.8735 9.82768C13.8291 9.87203 13.6959 9.78332 13.3853 9.65026C13.5628 9.56156 13.6516 9.47285 13.7403 9.47285ZM12.5864 13.9082C12.7195 13.8194 12.897 13.8194 13.119 13.7751C13.119 13.9082 13.119 14.0412 13.0746 14.2186C13.0746 14.263 13.0302 14.3073 12.9858 14.396C12.9414 14.4847 12.8527 14.6178 12.8083 14.7065C12.7195 14.6178 12.6307 14.4847 12.542 14.396C12.542 14.263 12.4976 13.9969 12.5864 13.9082ZM12.542 25.2625C12.5864 25.2182 12.7195 25.1738 12.8083 25.1738C12.9858 25.1738 13.2077 25.2182 13.3853 25.2182C13.5184 25.2625 13.6516 25.2625 13.6959 25.3512C13.8735 25.5286 14.0066 25.7504 14.1842 25.9278C14.2286 25.9722 14.2729 26.0609 14.2729 26.1496C14.3617 26.1052 14.4061 26.0165 14.4949 26.0165C14.5392 26.0165 14.628 26.1052 14.6724 26.1496C14.628 26.1939 14.5392 26.2826 14.4949 26.327C14.4505 26.327 14.4061 26.2826 14.3173 26.2383C14.3617 26.5044 14.2286 26.8592 13.9179 26.9036C13.8291 26.9479 13.6516 26.8592 13.5184 26.7705C13.3409 26.6375 13.2077 26.3713 13.0302 26.1939C12.8527 25.9722 12.6307 25.7504 12.4532 25.5286C12.4976 25.4843 12.4976 25.3069 12.542 25.2625ZM14.051 31.2502C13.9623 31.1171 13.8735 31.0728 13.8735 31.0284C13.8735 30.9841 13.9179 30.8954 13.9623 30.8066C14.051 30.851 14.1398 30.8954 14.1842 30.9841C14.2286 30.9841 14.0954 31.1171 14.051 31.2502ZM12.6751 28.0124C12.7195 27.9681 12.9858 28.1011 13.2077 28.1898C13.2965 28.2342 13.3853 28.3229 13.474 28.4116C13.6072 28.7221 14.0066 28.9882 13.6959 29.4761C13.6516 29.5648 13.6959 29.6978 13.6959 29.7865C13.7847 30.097 13.6516 30.097 13.3853 30.0526C13.2521 30.0083 13.0746 30.0526 12.8527 30.097C12.5864 30.1414 12.3201 30.0083 12.4532 29.7865C12.6307 29.4761 12.4532 29.2543 12.3644 29.0325C12.3201 28.9438 12.2313 28.8108 12.2757 28.7221C12.4088 28.4559 12.4976 28.1898 12.6751 28.0124ZM12.3644 32.3146C12.3644 32.4477 12.3644 32.5808 12.3201 32.6251C12.2313 32.7138 12.0981 32.7138 11.965 32.7138C11.965 32.6251 11.9206 32.4477 11.965 32.4034C12.0094 32.3146 12.1869 32.359 12.3644 32.3146ZM11.965 16.6137C11.9206 16.658 11.6987 16.6137 11.6543 16.5693C11.6099 16.525 11.6543 16.3476 11.6543 16.1258C11.8318 16.1702 11.965 16.1702 12.0538 16.2589C12.0981 16.3919 12.0094 16.5693 11.965 16.6137ZM9.96771 28.2342C9.52388 28.3672 9.56826 28.0124 9.47949 27.7463C9.47949 27.6132 9.43511 27.4802 9.47949 27.3028C9.47949 27.2141 9.61264 27.1253 9.65703 27.081C9.74579 27.081 9.87895 27.1253 9.92333 27.1697C10.0121 27.2584 10.0565 27.3915 10.0565 27.5689C10.1452 27.8793 10.2784 28.1455 9.96771 28.2342ZM10.6335 33.2017C10.5891 33.2904 10.5891 33.3791 10.5447 33.4678C10.5447 33.5122 10.3672 33.4678 10.3228 33.4235C10.2784 33.3791 10.234 33.2904 10.1896 33.1574C10.4116 33.1574 10.5003 33.1574 10.6335 33.2017ZM9.43511 35.3307C9.47949 35.3307 9.61264 35.4637 9.65703 35.5081C9.56826 35.5968 9.47949 35.6855 9.39072 35.7742C9.34634 35.8185 9.25757 35.6855 9.08004 35.6411C9.25757 35.4637 9.34634 35.3307 9.43511 35.3307ZM9.92333 35.9516C10.1452 36.2177 10.6779 35.6855 10.7666 36.1734C10.811 36.2621 10.5891 36.4395 10.4559 36.6612C10.3228 36.6612 10.0121 36.7943 9.96771 36.7056C9.83456 36.5282 9.74579 36.2177 9.56826 35.9959C9.74579 35.9959 9.92333 35.9072 9.92333 35.9516ZM10.7222 34.8871C10.7222 34.6654 10.6779 34.4879 10.6779 34.3549C10.6779 34.1775 10.7222 33.9557 10.7222 33.7783C10.8554 33.867 10.9885 34.0001 11.1661 34.0444C11.2548 34.0888 11.3436 34.0888 11.4768 34.1331C11.7431 34.2218 12.0094 34.6654 11.965 34.9315C11.9206 35.1089 11.2105 35.4194 11.0329 35.2419C10.8554 35.2419 10.7666 35.0202 10.7222 34.8871ZM11.4768 24.2424C11.388 24.198 11.2992 24.065 11.2105 24.0206C11.1217 23.9319 11.0773 23.8432 11.0329 23.7102C11.0329 23.6215 11.0773 23.5328 11.1217 23.444C11.2992 23.5328 11.5211 23.5771 11.6543 23.7102C11.7874 23.8432 11.965 24.0206 11.7431 24.2424C11.6987 24.2424 11.5211 24.2424 11.4768 24.2424ZM11.8762 12.5776C11.9206 12.6663 11.8762 12.7993 11.8762 12.888C11.7874 12.888 11.6543 12.888 11.6099 12.8437C11.5655 12.7993 11.5655 12.6663 11.5655 12.5332C11.6987 12.5776 11.8762 12.5332 11.8762 12.5776ZM10.6779 14.7952C10.811 14.7509 10.9885 14.8839 11.1217 14.8839C11.5655 15.4162 11.5655 15.6379 11.1661 15.8597C10.7666 16.0371 10.6779 15.9927 10.6335 15.5492C10.6335 15.4605 10.5891 15.3718 10.5891 15.3274C10.4116 15.15 10.4116 14.9283 10.6779 14.7952ZM10.4559 16.7467C10.5003 16.7467 10.5891 16.8355 10.5891 16.8798C10.5891 16.9242 10.5003 17.0129 10.4559 17.0129C10.4116 17.0129 10.3228 16.9685 10.234 16.8798C10.3672 16.7911 10.4116 16.7467 10.4559 16.7467ZM10.1896 25.3512C10.4116 25.573 10.6335 25.8391 10.9885 25.7948C11.0773 25.7948 11.2992 26.0609 11.2548 26.1939C11.1661 26.5044 11.3436 26.7705 11.4768 26.9923C11.5211 27.1253 11.4768 27.3028 11.4768 27.4802C11.3436 27.4802 11.0773 27.4802 10.9885 27.3915C10.7222 27.1697 10.4559 26.8149 10.1452 26.5044C10.0121 26.327 9.83456 26.1052 9.61264 25.8835C9.47949 25.7061 9.39072 25.573 9.56826 25.3512C9.83456 25.1295 10.0121 25.2182 10.1896 25.3512ZM9.96771 21.803C10.0121 21.803 9.96771 21.9804 9.92333 22.0248C9.83456 22.0691 9.74579 22.0691 9.65703 22.0248C9.61264 21.9804 9.56826 21.8917 9.52388 21.7143C9.74579 21.7586 9.83456 21.7586 9.96771 21.803ZM9.47949 19.7627C9.52388 19.7184 9.74579 19.8515 9.74579 19.8958C9.79018 20.0289 9.70141 20.1619 9.65703 20.295C9.52388 20.2506 9.43511 20.2063 9.16881 20.1619C9.34634 19.9402 9.39072 19.8071 9.47949 19.7627ZM9.25757 30.6292C9.21319 30.7623 9.16881 30.851 9.12442 30.8954C9.08004 30.9397 8.99127 30.8954 8.9025 30.8954C8.94689 30.8066 8.94689 30.7179 8.99127 30.6292C8.99127 30.5849 9.08004 30.6292 9.25757 30.6292ZM7.74852 27.5245C7.52661 27.5245 7.21592 27.081 7.2603 26.9036C7.30469 26.5931 7.70414 26.2383 7.97044 26.2826C8.05921 26.2826 8.10359 26.3713 8.19236 26.3713C8.3699 26.4157 8.72497 26.1939 8.76935 26.5044C8.81374 26.7262 8.59182 27.0366 8.50305 27.3028C8.14798 27.3915 7.97044 27.4802 7.74852 27.5245ZM7.79291 32.7138C7.70414 32.7138 7.65976 32.7138 7.57099 32.7138C7.52661 32.7138 7.57099 32.6251 7.57099 32.4921C7.65976 32.5364 7.74853 32.5364 7.79291 32.5808C7.79291 32.5808 7.79291 32.6695 7.79291 32.7138ZM8.6362 32.0929C8.72497 32.0929 8.81374 32.1816 8.9025 32.2259C8.85812 32.3146 8.81374 32.4477 8.76935 32.4921C8.68058 32.5364 8.59182 32.4477 8.3699 32.4034C8.50305 32.2259 8.54743 32.0929 8.6362 32.0929ZM8.94689 24.4642C8.81374 24.4642 8.68058 24.5085 8.6362 24.4198C8.59182 24.3755 8.59182 24.198 8.54743 23.9763C8.72497 24.0206 8.94689 24.0206 8.99127 24.065C8.99127 24.1537 8.94689 24.3311 8.94689 24.4642ZM8.23675 17.1459C8.50305 17.1016 8.6362 17.2346 8.68058 17.4564C8.76935 17.9443 8.72497 18.0773 8.28113 18.2104C7.88168 18.2991 7.74852 18.2547 7.65976 17.8112C7.57099 17.5007 7.83729 17.1903 8.23675 17.1459ZM7.65976 18.9644C7.97044 18.6983 8.1036 18.6983 8.3699 18.9644C8.68058 19.3636 8.68058 19.4523 8.3699 19.7184C7.97044 20.0289 7.88168 20.0289 7.61537 19.7184C7.30469 19.3192 7.30469 19.2305 7.65976 18.9644ZM7.65976 22.3352C7.74852 22.4683 7.88168 22.6013 7.92606 22.7344C7.97044 22.8675 7.97044 23.0449 7.88168 23.1779C7.83729 23.2666 7.61537 23.2666 7.43784 23.2223C7.21592 23.1779 6.81647 22.6013 6.81647 22.3352C6.81647 22.2022 6.81647 22.0691 6.81647 21.8917C6.94962 21.936 7.08277 21.9804 7.2603 22.0691C7.43784 22.1578 7.57099 22.2465 7.65976 22.3352ZM5.92879 16.4806C6.19509 16.3032 6.41701 16.3919 6.68331 16.7467C6.94962 17.1016 6.90523 17.2346 6.50578 17.5451C6.06194 17.8556 5.97317 17.8112 5.66249 17.412C5.39619 17.1459 5.57372 16.7467 5.92879 16.4806ZM3.4433 27.6132C3.35453 27.6132 3.31015 27.6132 3.177 27.6132C3.177 27.4802 3.177 27.3915 3.22138 27.3028C3.22138 27.3028 3.39892 27.3028 3.4433 27.3471C3.4433 27.3915 3.4433 27.5245 3.4433 27.6132ZM4.90796 23.3997C4.50851 23.7102 4.37536 23.7102 4.06467 23.3553C3.84275 23.0892 3.57645 22.7344 3.35453 22.4683C3.177 22.2465 3.22138 22.0248 3.39892 21.803C3.62083 21.5812 3.84275 21.6699 4.02029 21.8473C4.28659 22.1135 4.59728 22.3796 4.86358 22.6013C5.12988 22.8675 5.21865 23.1336 4.90796 23.3997ZM4.77481 18.6983C4.73043 18.6983 4.64166 18.6983 4.55289 18.6983L4.59728 18.7426C4.64166 18.8313 4.59728 19.1418 4.55289 19.1418C4.41974 19.1862 4.24221 19.1862 4.06467 19.0975C3.88714 18.92 3.66522 18.6983 3.4433 18.3878C3.35453 18.2547 3.177 18.0773 2.99946 17.7669C2.95508 17.6782 2.99946 17.5451 3.04385 17.3677C3.04385 17.3233 3.26576 17.3677 3.31015 17.412C3.53207 17.6338 3.79837 17.8999 4.02029 18.1217C4.06467 18.0773 4.06467 18.033 4.10906 17.9443C4.19782 17.7669 4.24221 17.5007 4.33097 17.4564C4.55289 17.412 4.86358 17.4564 5.0855 17.5007L5.21865 17.5895C5.39619 17.7225 5.66249 17.8112 5.84002 17.9886C5.6181 18.166 5.30742 18.3878 5.0855 18.5652C5.0855 18.6539 4.99673 18.6539 4.77481 18.6983ZM5.12988 21.1377C5.21865 21.049 5.3518 20.9603 5.44057 20.8716C5.30742 20.6498 5.21865 20.3393 5.30742 20.1176C5.3518 20.0289 5.39619 19.9845 5.39619 19.8958C5.48495 19.2749 5.52934 19.2749 6.01756 19.7184C6.10633 19.7627 6.15071 19.8515 6.23948 19.9402C6.23948 19.9402 6.23948 19.9402 6.19509 19.9845C6.4614 20.3837 6.77208 20.7385 7.03838 21.1377C7.08277 21.2264 7.08277 21.3595 7.12715 21.5369C7.03838 21.5369 6.90523 21.5369 6.81647 21.4925C6.55016 21.2708 6.28386 21.049 5.92879 21.0933C5.88441 21.182 5.79564 21.2264 5.70687 21.3151C5.44057 21.2264 5.30742 21.182 5.12988 21.1377ZM5.75126 26.4601C5.6181 26.2383 5.39619 26.0609 5.66249 25.7948C5.75126 25.7061 5.75126 25.5286 5.70687 25.3512C5.66249 24.9077 5.97317 24.7303 6.15071 24.7303C6.37263 24.7303 6.68331 24.9964 6.90523 25.2182C6.94962 25.2625 6.81647 25.4843 6.7277 25.6173C6.41701 25.8835 6.06194 26.1496 5.75126 26.4601C5.84002 26.6375 6.15071 26.7705 5.84002 27.0366C5.79564 27.081 5.66249 27.081 5.6181 27.0366C5.3518 26.7262 5.66249 26.6375 5.75126 26.4601ZM5.75126 33.0687C5.70687 32.9799 5.79564 32.8469 5.88441 32.7582C5.92879 32.7138 6.10633 32.7582 6.15071 32.8469C6.23948 32.9356 6.23948 33.0686 6.28386 33.2461C6.28386 33.3348 6.28386 33.4678 6.23948 33.6452C6.23948 33.6896 6.06194 33.7339 6.06194 33.7339C5.92879 33.5122 5.84002 33.2904 5.75126 33.0687ZM5.97317 40.2982C5.88441 40.3425 5.70687 40.3425 5.66249 40.2538C5.6181 40.2095 5.66249 40.0321 5.66249 39.8103C5.84002 39.899 5.97317 39.899 6.06194 39.9434C6.06194 40.1208 6.01756 40.2982 5.97317 40.2982ZM6.19509 42.4271C6.06194 42.4715 5.79564 42.4271 5.75126 42.3384C5.66249 42.161 5.6181 41.8949 5.57372 41.6731C5.79564 41.7618 6.01756 41.8062 6.32824 41.9393C6.32824 42.161 6.32824 42.3828 6.19509 42.4271ZM5.92879 31.8711C5.97317 31.6937 6.01756 31.5606 6.01756 31.4276C6.19509 31.2945 6.28386 31.2502 6.41701 31.2058C6.68331 31.1171 6.86085 31.2945 6.90523 31.5163C6.90523 31.5606 6.77208 31.6937 6.68331 31.7824C6.63893 31.8268 6.55016 31.8268 6.4614 31.8711C6.19509 31.8711 6.06194 31.8711 5.92879 31.8711ZM6.4614 35.8629C6.4614 35.7298 6.59455 35.5524 6.68331 35.4637C6.86085 35.375 7.12715 35.3307 7.30469 35.2863V35.2419C7.57099 35.1976 7.88168 35.1532 8.14798 35.1089C8.19236 35.1089 8.32551 35.2419 8.32551 35.2863C8.28113 35.5081 8.23675 35.9072 8.10359 35.9959C7.61537 36.2177 7.12715 36.3064 6.63893 36.4395C6.63893 36.3951 6.4614 36.0403 6.4614 35.8629ZM7.2603 40.8748C7.39346 40.9635 7.52661 40.9635 7.57099 41.0522C7.61537 41.0965 7.52661 41.274 7.52661 41.3183C7.43784 41.3183 7.30469 41.3183 7.21592 41.2296C7.17154 41.1852 7.21592 41.0522 7.2603 40.8748ZM9.21319 47.9269C9.08004 47.8826 8.99127 47.8382 8.72497 47.7495C8.85812 47.5721 8.94689 47.439 9.03565 47.3503C9.08004 47.306 9.25757 47.439 9.30196 47.5277C9.34634 47.7051 9.25757 47.7938 9.21319 47.9269ZM10.7222 46.1084C10.5447 46.2858 10.3228 46.5076 10.1452 46.685C10.1896 46.685 10.1896 46.7294 10.234 46.7294C10.1896 46.8181 10.1452 46.9511 10.0565 46.9955C10.0121 46.9955 9.92333 46.9511 9.83456 46.9068C9.74579 46.9068 9.65703 46.9068 9.56826 46.7737C9.52388 46.685 9.56826 46.4633 9.61264 46.2858C9.74579 46.0641 9.92333 45.8423 10.1009 45.6649C9.87895 45.5762 9.61264 45.5318 9.39072 45.4431C9.25757 45.3988 9.12442 45.3544 8.99127 45.3988C8.76935 45.4875 8.54743 45.5762 8.3699 45.3544C8.19236 45.1327 7.88168 44.9109 8.05921 44.6004C8.14798 44.3343 8.10359 44.2013 7.83729 44.2013C7.43784 44.2013 7.34907 43.9795 7.52661 43.5803C7.61537 43.3142 7.39346 42.9594 7.70414 42.7376C8.1036 42.4715 8.9025 42.4715 9.21319 42.782C9.34634 42.915 9.47949 43.0924 9.65703 43.3142C9.79018 43.4473 9.92333 43.6247 10.0565 43.8021C10.1896 43.9795 10.3228 44.2456 10.5447 44.3787C11.0773 44.7778 10.8554 45.3101 10.9885 45.8423C10.8554 45.8867 10.7666 46.0641 10.7222 46.1084ZM10.5447 39.5442C10.4559 39.4998 10.234 39.4555 10.1452 39.3668C10.0565 39.1007 10.3228 39.1007 10.5447 39.0563C10.5891 39.0563 10.6779 39.012 10.7222 39.012C10.8554 39.0563 10.9442 39.1007 11.1217 39.145C11.0329 39.2337 10.9885 39.3224 10.8998 39.4111C10.8554 39.4555 10.7666 39.4555 10.5447 39.5442ZM11.4324 41.0522C11.3436 41.0522 11.1661 40.9191 11.1661 40.8304C11.1661 40.7417 11.2548 40.5643 11.3436 40.52C11.4324 40.4756 11.5655 40.6087 11.7874 40.6974C11.5655 40.8748 11.4768 41.0522 11.4324 41.0522ZM12.9858 38.2579C12.9414 38.3023 12.9414 38.3467 12.9414 38.391C12.9414 38.5684 12.9414 38.9676 12.897 38.9676C12.6307 39.012 12.2757 39.012 12.0094 38.9676C11.9206 38.9676 11.7874 38.7015 11.8318 38.6571C11.9206 38.4354 12.0538 38.2136 12.2313 38.0362C12.3644 37.9918 12.4976 37.9031 12.6307 37.9031C12.7639 37.8588 13.0302 37.8144 13.119 37.8588C13.2521 37.9475 13.119 38.1249 12.9858 38.2579ZM12.897 36.5725C12.6751 36.4838 12.7639 36.3064 12.8083 36.0403C12.8527 35.5524 12.897 35.1976 13.3409 34.8871C13.3853 34.8871 13.3853 34.8428 13.3853 34.7984C13.2965 34.8428 13.2521 34.8428 13.1633 34.8871C13.0746 34.8871 12.9858 34.9758 12.8527 34.9758C12.7639 34.9758 12.5864 34.9315 12.542 34.8428C12.4976 34.7541 12.4976 34.621 12.542 34.4436C12.6307 34.2662 12.7195 34.0444 12.8527 33.9114C12.9414 33.8226 13.0746 33.7339 13.1633 33.6896C13.2521 33.6896 13.2965 33.6896 13.3853 33.6452C13.4296 33.5565 13.474 33.4235 13.5628 33.3791C13.6072 33.3348 13.8291 33.3791 13.8735 33.4678C13.9179 33.5122 13.9623 33.5565 14.0066 33.6009C14.2729 33.6009 14.4061 33.7339 14.4505 34.0888C14.4505 34.0888 14.4505 34.0888 14.4505 34.1331C15.2494 34.9758 15.205 35.0202 14.1842 35.6855C13.8735 35.8629 13.6072 36.2177 13.3409 36.4395C13.2077 36.5725 12.9858 36.6169 12.897 36.5725ZM14.2729 39.0563C14.1398 38.9232 14.051 38.7902 13.8735 38.6128C13.9179 38.4354 13.9179 38.3023 14.0066 38.1249C14.051 38.0805 14.2729 38.0805 14.2729 38.1249C14.3617 38.391 14.4061 38.6571 14.4505 38.9232C14.5392 38.9676 14.3173 39.1007 14.2729 39.0563ZM14.4505 40.6974C14.2729 40.653 14.1398 40.6087 14.051 40.6087C13.9179 40.4756 13.8735 40.4313 13.8735 40.3869C13.8291 40.2982 13.8291 40.1651 13.7847 39.9877C13.9179 40.0321 14.051 40.0321 14.1842 40.0764C14.2286 40.0764 14.2729 40.1208 14.2729 40.1651C14.3617 40.3425 14.4061 40.4756 14.4505 40.6974ZM14.4061 43.0481C14.2286 43.2255 13.9179 43.3142 13.6516 43.3585C13.5184 43.3585 13.3853 43.1811 13.2521 43.0924C13.2521 42.8707 13.2521 42.782 13.2521 42.6489C13.2521 42.5158 13.3409 42.4271 13.3853 42.3384C13.474 42.3828 13.5628 42.4271 13.6516 42.4715C13.7847 42.5158 13.9623 42.5602 14.1398 42.6045C14.4505 42.6933 14.5392 42.915 14.4061 43.0481ZM15.5601 42.3384C15.2494 42.161 14.8943 41.8505 14.4505 42.028C14.4061 42.028 14.2729 41.8949 14.2729 41.8949C14.3173 41.7618 14.3617 41.5844 14.4061 41.4957C14.6724 41.274 14.8943 41.0965 15.1606 41.274C15.2494 41.3183 15.4269 41.274 15.6045 41.274C16.0039 41.2296 16.1371 41.5401 16.2258 41.8062C16.2702 41.9393 16.0927 42.2054 15.9595 42.3384C15.9151 42.3828 15.6932 42.3828 15.5601 42.3384ZM15.3825 37.8588C15.4713 37.7701 15.6488 37.7701 15.8264 37.7257C15.8264 37.8144 15.8708 37.9031 15.8264 37.9475C15.782 38.0362 15.6932 38.0805 15.6045 38.1692C15.5601 38.2136 15.4713 38.2579 15.3825 38.3023C15.3381 38.3023 15.2494 38.2579 15.1606 38.2579C15.205 38.1249 15.2494 37.9475 15.3825 37.8588ZM15.5157 36.0403C15.8264 35.7742 15.9595 35.8185 16.3146 36.2621C16.4477 36.4395 16.6253 36.7056 16.3146 36.9717C15.8708 37.2822 15.6488 37.3709 15.4713 37.1048C15.1162 36.6612 15.1606 36.3508 15.5157 36.0403ZM16.6253 42.2497C16.6253 42.3828 16.4921 42.5158 16.4477 42.6933C16.3146 42.6045 16.1814 42.5602 16.0483 42.4271C16.0039 42.3384 16.1371 42.2054 16.2258 41.9393C16.4477 42.1167 16.6253 42.2054 16.6253 42.2497ZM16.5365 43.4916C16.4921 43.536 16.4477 43.5803 16.359 43.5803C16.1814 43.669 15.9595 43.8464 15.8264 43.6247C15.782 43.536 15.9151 43.3585 16.0039 43.1811C16.0483 43.1368 16.0927 43.0924 16.2258 42.9594C16.2702 42.9594 16.4921 42.8707 16.6253 42.9594C16.8472 43.1368 16.714 43.3585 16.5365 43.4916ZM18.3119 44.9996C18.0456 45.2214 17.868 45.2214 17.6461 44.9996C17.6461 45.044 17.6017 45.044 17.6017 45.0883C17.513 45.044 17.4686 44.9996 17.3354 44.9553C17.3798 44.9109 17.4242 44.8666 17.4242 44.8222C17.1579 44.5117 17.2023 44.3787 17.513 44.1125C17.9124 43.8021 18.1787 43.8464 18.4894 44.29C18.7557 44.5117 18.7113 44.7335 18.3119 44.9996ZM17.7349 42.0723C17.7793 41.9836 17.8236 41.9393 17.8236 41.8949C17.868 41.9393 17.9568 41.9836 18.0012 42.028C17.9568 42.0723 17.9568 42.161 17.9124 42.161C17.9124 42.161 17.7793 42.0723 17.7349 42.0723ZM19.599 41.274V41.2296C19.6434 41.0965 19.6878 40.9191 19.7765 40.7861C19.8209 40.7417 20.0428 40.8304 20.176 40.9191C20.6642 41.3183 20.6198 41.4957 20.0872 41.9836C20.0428 41.9836 19.8209 42.1167 19.6434 42.0723C19.599 42.0723 19.5546 42.028 19.5102 41.9836C19.4658 41.9836 19.4658 41.9836 19.4215 42.028C19.3327 42.028 19.2439 42.0723 19.1552 42.0723C18.9332 42.1167 18.7113 42.0723 18.7113 41.8505C18.7113 41.7175 18.8445 41.5844 18.9776 41.4514C19.022 41.407 19.1108 41.407 19.1995 41.3627C19.3771 41.274 19.5102 41.274 19.599 41.274ZM18.8001 39.4111C19.022 39.4998 19.2883 39.7216 19.4215 39.9877C19.4658 40.0764 19.3327 40.3869 19.1995 40.4756C19.022 40.653 18.7113 40.7417 18.4894 40.9191L18.5338 40.9635C18.2675 41.1852 17.9568 41.4957 17.6905 41.6731C17.6017 41.7618 17.4242 41.7175 17.2466 41.7618C17.2466 41.6288 17.2023 41.4957 17.2023 41.3183C17.2023 41.2296 17.2466 41.1409 17.2466 41.0965C17.2466 40.52 17.2467 40.4756 17.8236 40.5643C18.0456 40.6087 18.1343 40.5643 18.1343 40.2982C18.1343 40.1651 18.1343 39.899 18.2675 39.8103C18.3562 39.5885 18.6669 39.3668 18.8001 39.4111ZM18.3119 38.7458C18.3119 38.8345 18.2675 38.9676 18.1787 39.012C18.0012 39.1894 17.7349 39.3224 17.5573 39.5442C17.4242 39.6329 17.3354 39.7216 17.1579 39.8103C16.9803 39.9434 16.8472 40.2538 16.5365 40.0321C16.3146 39.8103 16.0039 39.6329 16.0483 39.1894C16.0927 38.4797 16.359 38.1249 16.936 37.8588C17.4686 37.6814 18.2675 38.2136 18.3119 38.7458ZM19.4658 33.4235C19.3327 33.4678 19.1552 33.3348 18.9776 33.2904C18.9332 33.2461 18.9332 33.2017 18.8888 33.1574C18.8888 33.2461 18.7557 33.3791 18.6225 33.4678C18.4006 33.5565 18.1343 33.6009 17.9124 33.6452C17.9124 33.6452 17.9124 33.6452 17.9124 33.6009C17.6905 33.6896 17.3798 33.7783 17.1579 33.8227C16.714 33.867 16.9803 34.5323 16.5365 34.4436C16.2702 34.3992 16.0927 34.0444 15.7376 34.1775C15.2494 34.2662 15.1162 34.1331 14.9831 33.6896C14.8943 33.4235 14.9387 33.2017 15.205 33.113C15.2494 33.0687 15.3381 33.0687 15.3825 33.0687C15.3825 32.9356 15.3825 32.8469 15.4269 32.6695C15.4713 32.5364 15.4713 32.2703 15.6045 32.2259C15.6932 32.1816 15.9151 32.2703 16.0927 32.359C16.1814 32.4034 16.2702 32.5364 16.359 32.6251C16.4034 32.6695 16.4034 32.7138 16.4477 32.7582C16.9803 32.6251 17.4686 32.4921 17.9568 32.359C18.445 32.2703 18.7113 32.359 18.8001 32.6251C18.8445 32.5808 18.9332 32.5364 18.9776 32.4921C19.1552 32.8912 19.8209 32.2259 19.8653 32.8912C19.9097 33.0687 19.6434 33.3348 19.4658 33.4235ZM21.3743 35.5524C21.1968 35.7298 20.9305 35.8185 20.7086 35.9959C20.6642 35.9072 20.531 35.8185 20.531 35.6855C20.531 35.5524 20.6198 35.4637 20.6198 35.2863C20.6198 35.1089 20.4423 34.8428 20.7086 34.7541C20.8417 34.7097 21.0193 34.8871 21.2856 35.0202C21.33 35.2863 21.4631 35.5081 21.3743 35.5524ZM21.1524 29.4317C21.0193 29.343 20.9305 29.2543 20.8417 29.1656C20.9749 29.0769 21.0637 28.9438 21.108 28.9438C21.7294 28.8108 22.0401 29.0769 21.9069 29.6091C21.8626 29.8309 21.7294 29.8752 21.5075 29.7422C21.3743 29.6091 21.2856 29.5204 21.1524 29.4317ZM21.2856 15.771C21.33 15.6823 21.3743 15.5936 21.4187 15.5936C21.5075 15.5492 21.6406 15.5492 21.7294 15.5492C21.7294 15.6379 21.7294 15.7266 21.685 15.771C21.6406 15.8153 21.5075 15.8597 21.4187 15.8597C21.4631 15.771 21.33 15.771 21.2856 15.771ZM22.0401 36.6169C21.8626 36.7056 21.5963 36.75 21.5519 36.4838C21.5519 36.3951 21.7294 36.2621 21.8626 36.0403C22.0401 36.129 22.1732 36.2177 22.3508 36.2621C22.262 36.3508 22.1732 36.5282 22.0401 36.6169ZM21.9513 14.6178C21.9513 14.5291 21.9513 14.396 21.9957 14.3517C22.0401 14.3073 22.1732 14.3073 22.3064 14.263C22.262 14.4404 22.262 14.5291 22.2176 14.5734C22.1732 14.6178 22.0401 14.6178 21.9513 14.6178ZM20.3979 12.4445C20.176 12.4889 19.9541 12.5332 19.8653 12.2671C19.7765 12.001 19.8653 11.5131 20.0428 11.4687C20.176 11.38 20.3535 11.38 20.5754 11.3357C20.5754 11.2913 20.5754 11.2913 20.6198 11.247C20.8861 11.2913 21.2412 11.38 21.5075 11.4244C21.7738 11.4687 22.0845 11.4244 22.3508 11.4244C22.4839 11.4244 22.6171 11.3357 22.839 11.3357C22.9722 11.3357 23.0609 11.4687 23.1497 11.5131C23.1053 11.6018 23.0609 11.7349 22.9722 11.7792C22.8834 11.8236 22.7946 11.8679 22.6615 11.8679C21.9069 12.001 21.1524 12.2671 20.3979 12.4445ZM23.0165 28.7664C22.9278 28.7664 22.8834 28.7664 22.7946 28.7664C22.7946 28.7664 22.7946 28.6777 22.7946 28.5446C22.8834 28.589 22.9722 28.589 23.0165 28.6334C23.0609 28.6334 23.0165 28.7664 23.0165 28.7664ZM24.9694 39.6329C24.925 39.9434 24.7475 40.0764 24.5256 39.8103C24.0374 39.2781 23.5935 38.7015 23.1053 38.1692C22.9722 37.9918 23.3272 37.2822 23.6379 37.3265C24.0817 37.3709 24.4368 37.5483 24.9694 37.7257C24.9694 37.9918 24.9694 38.258 25.0138 38.4354C25.147 38.8345 25.1026 39.2781 24.9694 39.6329ZM25.3245 31.7824C25.2357 31.7824 25.147 31.7824 25.0582 31.7824C24.8807 31.9598 24.6587 32.0929 24.4812 32.2703C24.3924 32.3146 24.2593 32.2703 23.993 32.2703C23.993 32.2259 23.993 32.1372 23.993 32.0929C23.8598 32.1816 23.6823 32.2259 23.5048 32.2259C23.3716 32.2259 23.2385 32.0485 23.0165 31.9155C23.0609 31.6937 23.0165 31.4276 23.1053 31.3389C23.2828 31.1615 23.416 31.3389 23.5935 31.5163C23.6379 31.5606 23.6379 31.5606 23.6823 31.605C23.7711 31.6494 23.9042 31.6494 23.993 31.6937C23.993 31.5606 24.0374 31.4276 24.0374 31.2502C24.0818 31.0728 24.3037 31.0728 24.5256 31.1615H24.57C24.5256 30.8954 24.7031 30.7179 24.9694 30.6736C25.7683 30.4962 26.6116 30.3631 27.4105 30.1414C27.6325 30.097 27.81 30.2301 27.7212 30.4075C27.5437 30.8066 27.4993 31.2945 26.8779 31.3389C26.656 31.3389 26.3897 31.4276 26.1678 31.5163V31.4719C25.9015 31.605 25.5908 31.6937 25.3245 31.7824ZM24.4368 27.9237C24.5256 27.835 24.8363 27.9237 25.0582 27.9681C25.1026 28.2342 25.1913 28.5446 25.1026 28.6334C24.8807 28.8995 24.7031 28.6334 24.57 28.5003C24.4812 28.2785 24.1705 28.1011 24.4368 27.9237ZM24.2593 23.8876C24.1705 23.8876 24.0817 23.8432 23.993 23.7989C24.0374 23.7545 24.0374 23.6215 24.0817 23.6215C24.1705 23.5771 24.2593 23.6215 24.3924 23.6658C24.3924 23.7989 24.3481 23.8876 24.2593 23.8876ZM24.9694 11.2026C24.7919 11.2913 24.5256 11.2913 24.3037 11.38C24.1261 11.4244 23.9042 11.4687 23.7267 11.4687C23.6379 11.4687 23.5491 11.38 23.4604 11.2913C23.5048 11.2026 23.5491 11.0696 23.5935 11.0696C24.0374 10.9365 24.4368 10.8478 24.8807 10.7591C24.9694 10.7591 25.0582 10.8921 25.147 10.9365C25.147 11.0252 25.1026 11.1583 24.9694 11.2026ZM23.9486 17.8999C24.1261 18.0773 24.1261 18.2991 23.9042 18.4322C23.7711 18.4765 23.5935 18.3878 23.4604 18.3878C23.3272 18.0773 22.9278 17.8112 23.3272 17.5895C23.6379 17.3233 23.7711 17.7225 23.9486 17.8999ZM25.502 29.2099C25.6352 29.2099 25.7239 29.2543 25.8127 29.2543C25.8127 29.343 25.8127 29.4317 25.7683 29.4761C25.6796 29.5204 25.5908 29.4761 25.502 29.4761C25.502 29.3874 25.502 29.343 25.502 29.2099ZM26.0346 22.69C26.1678 22.69 26.3009 22.69 26.3009 22.7344C26.3453 22.8231 26.3453 22.9118 26.3453 23.0005C26.2566 23.0005 26.1678 23.0005 26.1234 22.9562C26.079 23.0005 26.079 22.8231 26.0346 22.69ZM26.8779 18.6096C26.9223 18.4322 26.9223 18.2991 26.9667 17.9886C27.1886 17.9886 27.4105 18.033 27.5881 18.033C27.4993 18.166 27.4993 18.4322 27.3661 18.5209C27.2774 18.6096 27.0111 18.5652 26.8779 18.6096ZM25.9015 34.3992C25.7683 34.1775 25.8571 33.867 26.079 33.9114C26.5229 33.9557 26.9223 33.9114 27.3661 34.2218C27.7656 34.5323 27.5881 34.9315 27.6325 35.2863C27.6768 35.5524 27.3661 35.7298 27.0998 35.5524C26.8335 35.375 26.5672 35.1089 26.3009 34.9315C26.3009 34.9315 26.3009 34.8871 26.3453 34.8871C26.1234 34.7541 25.9902 34.621 25.9015 34.3992ZM27.8544 39.7216C27.8544 39.766 27.81 39.8103 27.81 39.8103C27.5881 40.0321 27.2774 40.2982 27.0111 40.52C26.7892 40.6974 26.5229 40.9635 26.3009 41.1409C26.1678 41.2296 25.9903 41.3183 25.8127 41.274C25.6352 41.1852 25.6352 41.0078 25.7683 40.8304C25.8127 40.7861 25.8127 40.7417 25.8127 40.6974C25.6796 40.3869 25.7683 40.1208 25.9459 39.9434C25.8571 39.8103 25.7239 39.6329 25.6352 39.4111C25.5908 39.3668 25.7239 39.2337 25.7683 39.145C25.9015 39.2337 26.0346 39.3224 26.2566 39.4555C26.2122 39.5885 26.1678 39.6772 26.1234 39.766C26.2122 39.6772 26.3453 39.5885 26.4341 39.4998C26.6116 39.3224 26.8335 39.2337 27.0998 39.4111C27.1442 39.4111 27.1442 39.4111 27.1886 39.4111C27.2774 39.1007 27.0555 38.7458 27.4105 38.6571C27.8544 38.5684 27.81 38.9676 27.8544 39.2337C27.8988 39.4555 27.9875 39.6329 27.8544 39.7216ZM29.1415 36.3508C29.0083 36.5282 28.8752 36.75 28.6977 36.8387C28.2538 37.1491 28.1207 37.1048 27.8544 36.7943C27.5881 36.4838 27.5881 36.3508 27.9875 35.9516C28.0319 35.9072 28.1207 35.8185 28.1207 35.8185C28.2094 35.7298 28.2538 35.6855 28.3426 35.6411C28.5201 35.5081 28.742 35.2419 28.964 35.5081C29.1859 35.7298 29.4522 35.9959 29.1415 36.3508ZM29.0971 33.4678C28.964 33.5122 28.6533 33.2904 28.5201 33.1574C28.3426 33.0243 28.2094 32.7582 28.0319 32.5808C27.8544 32.359 27.9875 32.1372 28.2094 32.0485C28.5201 31.9598 28.8752 31.8268 29.1859 32.359C29.1859 32.359 29.2303 32.4921 29.2303 32.6251C29.2303 32.7138 29.1415 32.8025 29.1415 32.8469C29.1415 33.0687 29.4078 33.4235 29.0971 33.4678ZM28.8308 26.1939C28.5201 25.9278 28.2094 25.573 27.8544 25.2182C27.8544 25.1738 27.8988 24.9964 27.9875 24.9077C28.0763 24.8633 28.2982 24.9077 28.387 24.9521C28.6533 25.2625 28.8752 25.6617 29.0971 26.0165C29.1415 26.0609 29.0971 26.1496 29.1415 26.2383C29.0083 26.2383 28.8752 26.2826 28.8308 26.1939ZM29.7185 38.7015C29.5853 38.6128 29.4966 38.5684 29.4966 38.5241C29.4966 38.4354 29.541 38.3467 29.5853 38.2579C29.6297 38.3023 29.7629 38.3023 29.7629 38.3467C29.7629 38.391 29.7185 38.4797 29.7185 38.7015ZM29.7185 37.9031C29.6741 37.8588 29.6741 37.7701 29.6297 37.637C29.7629 37.637 29.896 37.637 29.896 37.6814C29.9404 37.7701 29.9404 37.8588 29.9404 37.9475C29.8516 37.9475 29.7629 37.9475 29.7185 37.9031ZM30.6062 30.4518C30.2067 30.5405 30.0736 30.4518 29.9848 29.9196C29.9404 29.6978 29.896 29.4317 30.2067 29.343C30.6505 29.2543 30.9612 29.3874 31.05 29.8309C31.1388 30.2301 31.0944 30.3188 30.6062 30.4518ZM31.4938 36.8387C31.3163 36.75 30.9612 37.0604 30.9168 36.7943C30.8725 36.5725 31.1388 36.3064 31.1832 36.1734C31.3607 36.0403 31.4495 35.9516 31.5826 35.9072C31.7158 35.8629 31.8933 35.8629 32.0708 35.8185C32.0708 35.9516 32.0708 36.129 32.0708 36.3064C32.0708 36.3508 32.0264 36.3951 32.0264 36.4395C32.1596 36.883 32.1152 37.1048 31.4938 36.8387ZM31.3607 25.573C31.5826 25.6173 31.6714 25.6173 31.8045 25.6617C31.8045 25.7504 31.8045 25.8391 31.7601 25.8835C31.6714 25.9278 31.5826 25.9278 31.4938 25.8835C31.4051 25.8835 31.4051 25.7504 31.3607 25.573ZM32.204 30.097C32.1596 30.1414 31.9377 30.1414 31.8933 30.097C31.8489 30.0083 31.8933 29.8752 31.8933 29.6091C32.0708 29.6535 32.204 29.6535 32.3371 29.6978C32.3371 29.8309 32.3371 30.0083 32.204 30.097ZM33.1804 25.0851C32.9585 25.0408 32.7366 25.0408 32.6922 24.9521C32.6478 24.819 32.6922 24.6859 32.7366 24.4642C32.8697 24.5085 33.0473 24.5085 33.1804 24.5972C33.2692 24.5972 33.2248 24.819 33.1804 25.0851ZM33.3136 18.4765C33.1804 18.3878 33.136 18.2547 33.0029 18.166C32.9141 18.0773 32.781 17.9443 32.6922 17.9886C32.2484 18.166 32.0708 17.8112 31.8045 17.6782C31.5826 17.5451 31.05 17.4564 31.05 17.3677C31.05 17.0572 30.9612 16.7467 30.7837 16.4806C30.6062 16.2145 30.3399 15.904 30.1623 15.5936C30.0736 15.4605 29.9404 15.2831 29.9848 15.15C30.2511 14.7065 29.896 14.4847 29.7185 14.2186C29.6297 14.0856 29.5853 13.8194 29.6741 13.7307C29.8516 13.509 30.0736 13.7307 30.2067 13.8638C30.4286 14.0856 30.6505 14.4404 31.05 14.263C31.0944 14.2186 31.2275 14.3517 31.3163 14.396C31.7601 14.9283 32.1596 15.4605 32.6034 15.9484C32.6478 15.9927 32.6922 16.0815 32.6478 16.1258C32.3815 16.7467 32.9585 17.0129 33.1804 17.4564C33.4023 17.6782 33.6243 17.9443 33.7574 18.166C33.8018 18.2547 33.8018 18.4322 33.713 18.4765C33.5799 18.5209 33.4023 18.5209 33.3136 18.4765ZM33.8018 29.6535C33.6686 29.5648 33.5799 29.5204 33.5799 29.4761C33.5799 29.3874 33.6243 29.2986 33.6243 29.2099C33.6686 29.2543 33.8018 29.2543 33.8018 29.2986C33.8462 29.3874 33.8018 29.4761 33.8018 29.6535ZM34.6007 33.0243C34.5563 32.9799 34.5563 32.8912 34.5119 32.7582C34.6451 32.7582 34.7782 32.7582 34.7782 32.8025C34.8226 32.8912 34.8226 32.9799 34.8226 33.0687C34.7339 33.0687 34.6451 33.0686 34.6007 33.0243ZM36.1097 32.8025C36.021 32.8025 35.8434 32.8469 35.7991 32.7582C35.7547 32.7138 35.7547 32.5808 35.7547 32.359C35.9322 32.4034 36.0654 32.359 36.1541 32.4477C36.1541 32.5364 36.1097 32.6695 36.1097 32.8025ZM36.0654 28.3229C35.9766 28.3672 35.8434 28.4116 35.7547 28.3672C35.6659 28.3229 35.5771 28.1898 35.444 28.1011C35.3552 27.9237 35.2221 27.6576 35.1333 27.4358C35.0445 27.2584 35.1777 27.0366 35.3108 27.2141C35.6215 27.4358 35.9322 27.7906 36.1985 28.0568C36.1541 28.1011 36.1097 28.2785 36.0654 28.3229ZM37.6632 30.9397C37.3969 30.9397 37.175 30.9841 37.0418 30.8954C36.8199 30.7179 36.9087 30.4518 37.1306 30.3631C37.3081 30.2744 37.5744 30.2744 37.7963 30.2744C37.7963 30.4962 37.7519 30.6736 37.6632 30.9397ZM39.1278 27.5689C39.0835 27.6576 38.9059 27.7463 38.8172 27.7906C38.7728 27.7906 38.684 27.7906 38.6396 27.7906C38.3733 27.7906 38.1958 27.8793 38.1514 28.2342C38.1514 28.5003 37.6188 28.7664 37.3969 28.6777C37.3525 28.6334 37.3081 28.589 37.3081 28.5446C37.2637 28.3229 37.7076 27.6576 37.8851 27.6132C38.1514 27.5245 38.4177 27.4358 38.684 27.3471C38.8172 27.3028 38.9947 27.3028 39.1278 27.3471C39.1278 27.3028 39.1722 27.5245 39.1278 27.5689ZM43.6106 20.6055C43.6994 20.5611 43.8325 20.6055 43.9213 20.6055C43.9213 20.6942 43.9213 20.8272 43.8769 20.8716C43.8325 20.9159 43.6994 20.9159 43.5662 20.9159C43.6106 20.7829 43.5662 20.6055 43.6106 20.6055ZM41.0807 22.0248C41.2139 22.0248 41.3914 21.9804 41.5246 22.0691C41.7909 22.3352 42.1016 22.69 42.3679 23.0005C42.5454 23.2223 42.8117 23.4884 42.9892 23.7102C43.3887 24.1537 43.7438 24.5529 44.0988 24.9964C44.2764 25.2182 44.6314 25.4843 44.3207 25.8835C44.232 26.0609 44.4095 26.2826 44.587 26.1496C44.8977 26.0165 45.1197 26.2383 45.2972 26.4157C45.386 26.5044 45.4303 26.5931 45.5191 26.6375C45.741 26.6818 46.0961 26.6375 46.1849 26.7705C46.2736 26.9036 46.1405 27.2584 46.1849 27.4358C46.4068 27.9237 46.0073 28.0124 45.7854 28.1898C45.5635 28.4116 45.3416 28.2342 45.2084 28.0568C45.0753 27.9237 44.9865 27.7906 44.809 27.6132C44.1876 26.8592 43.5218 26.1496 42.9005 25.3956C42.7229 25.1738 42.4566 24.9521 42.3679 24.6859C42.2791 24.4642 42.4122 24.065 42.2791 23.8432C42.1459 23.6215 41.6577 23.9763 41.4802 23.6215C41.347 23.444 41.1695 23.2223 40.992 23.0449C41.0363 23.1336 41.0364 22.0248 41.0807 22.0248ZM38.6396 19.541C39.0391 19.2305 39.1722 19.2749 39.4829 19.6297C39.7492 19.9402 39.7492 20.0732 39.3941 20.3393C39.1722 20.5168 38.9503 20.7385 38.684 20.3837C38.3289 19.9845 38.3289 19.8515 38.6396 19.541ZM38.684 23.9319C38.8615 23.8432 39.1278 23.6658 39.3054 23.9319C39.4385 24.1537 39.7936 24.3311 39.5717 24.6859C39.5273 24.819 39.5273 25.0851 39.6161 25.1738C39.9268 25.573 40.1487 26.2383 40.8588 25.9278C40.9032 25.9278 41.0807 26.0609 41.1251 26.1496C41.5246 26.5488 41.8796 26.9036 42.2791 27.3471C42.8117 27.9681 43.2555 28.6334 43.7881 29.2986C43.9213 29.4761 44.1876 29.7422 43.8325 30.0083C43.6106 30.1857 43.4331 30.5849 43.078 30.2301C43.0336 30.1857 42.9449 30.1857 42.9005 30.1857C42.5898 30.4075 42.3679 30.2301 42.1903 29.9639C42.0572 29.7422 41.7909 29.5204 42.0572 29.1656C42.1903 28.9438 42.0128 28.6777 41.7465 28.7664C41.2139 28.8995 40.992 28.5446 40.77 28.2342C40.2374 27.6132 39.838 26.9923 39.3498 26.327C39.261 26.1939 39.1278 26.1052 39.0391 26.0165C38.7728 25.7061 38.4177 25.3956 38.1958 25.0851C37.8851 24.5972 37.9295 24.5085 38.4177 24.1093C38.4177 24.065 38.5509 23.9763 38.684 23.9319ZM37.2193 16.9685C37.175 16.9685 37.175 17.0129 37.2193 16.9685C37.4413 17.279 37.7519 17.6338 38.0183 17.9443C38.0626 18.033 38.0626 18.166 38.107 18.3435C37.9739 18.3435 37.8851 18.3435 37.7076 18.3878C37.0418 18.5209 36.5536 17.8999 35.9766 17.8556C35.9322 17.8556 35.7991 17.6338 35.7991 17.5895C35.9766 17.1903 35.7547 16.9685 35.5771 16.7467C35.3108 16.3476 35.3552 16.2589 35.7103 15.9484C35.9766 15.7266 36.2429 15.771 36.4648 16.0371C36.6867 16.3476 36.953 16.658 37.2193 16.9685ZM34.6451 7.1665C34.867 6.98908 35.0889 6.67861 35.3996 6.94473C35.5771 7.07779 35.7991 7.21085 35.9322 7.38826L35.8434 7.43261C36.021 7.69873 36.2873 7.96485 36.4648 8.23097C36.598 8.45273 36.5092 8.6745 36.2873 8.6745C35.6215 8.63015 35.0002 8.40838 34.6451 7.78744C34.5563 7.56567 34.3788 7.34391 34.6451 7.1665ZM34.29 11.3357C34.3344 11.2913 34.4676 11.3357 34.5563 11.3357C34.5563 11.4244 34.5563 11.5574 34.5119 11.6461C34.4676 11.6905 34.3344 11.6461 34.2012 11.6461C34.2012 11.5574 34.2012 11.38 34.29 11.3357ZM33.5799 13.1985C33.8906 13.0654 34.1125 13.2429 34.2456 13.4646C34.4676 13.7307 34.7339 14.0856 35.0002 14.3517C35.2221 14.6178 35.2665 14.8396 34.9558 15.0613C34.5563 15.3274 34.5119 15.3718 34.2012 15.017C33.8018 14.6178 33.4911 14.2186 33.1804 13.7751C32.781 13.2872 32.3815 12.8437 31.9821 12.3558C31.8045 12.134 31.7601 11.9123 32.0264 11.6905C32.3371 11.38 32.559 11.2913 32.8253 11.7349C33.0473 12.0453 33.5799 12.3114 33.3136 12.888C33.1804 13.1098 33.4023 13.2872 33.5799 13.1985ZM32.9585 8.71885C33.0029 8.71885 33.136 8.76321 33.136 8.80756C33.136 8.89626 33.0917 8.98497 33.0473 9.02932C33.0029 8.98497 32.9141 8.98497 32.6034 8.85191C32.8253 8.85191 32.8697 8.71885 32.9585 8.71885ZM31.8933 6.54555C32.1596 6.32379 32.3371 6.63426 32.4703 6.76732C32.5147 6.81167 32.559 6.85603 32.559 6.90038C32.6034 7.03344 32.6922 7.29956 32.6478 7.38826C32.4703 7.61003 32.3371 7.38826 32.1596 7.29956C32.1152 7.2552 32.1152 7.2552 32.0708 7.21085C31.8933 6.98908 31.627 6.81167 31.8933 6.54555ZM31.4495 9.02932C31.627 8.98497 31.7158 8.94062 31.8489 8.98497C31.9377 9.02932 32.0708 9.07368 32.1596 9.11803C32.1152 9.20673 32.0708 9.33979 31.9821 9.38415C31.9377 9.4285 31.8489 9.47285 31.7601 9.47285C31.5826 9.51721 31.2719 9.65026 31.2275 9.33979C31.1832 9.25109 31.4051 9.07368 31.4495 9.02932ZM30.9168 10.3599C31.3163 10.0494 31.4051 10.0938 31.7158 10.493C31.8489 10.6704 32.1596 10.8921 31.8045 11.1583C31.4051 11.4687 31.1388 11.4244 30.8281 11.1139C30.5618 10.7147 30.5618 10.626 30.9168 10.3599ZM28.1651 6.81167C28.2538 6.72297 28.5645 6.76732 28.6533 6.81167C28.964 7.07779 29.2747 7.47697 29.5853 7.78744C29.8516 8.09791 30.1179 8.40838 30.3842 8.71885C30.6062 8.98497 30.5618 9.20673 30.3399 9.38415C30.1179 9.56156 29.8516 9.78332 29.5853 9.4285C29.319 9.11803 29.0083 8.76321 28.742 8.45273C28.5645 8.27532 28.3426 8.05356 28.6089 7.74309C28.742 7.52132 28.6089 7.34391 28.3426 7.34391C28.2094 7.34391 28.0319 7.29956 27.8544 7.2552C27.8988 7.12214 28.0319 6.94473 28.1651 6.81167ZM26.7004 9.73897C27.1442 9.60591 27.2774 9.69462 27.4105 10.1825C27.4549 10.3599 27.4549 10.4486 27.4105 10.5817C27.5437 10.7591 27.7212 10.8478 28.0319 10.7591C28.2538 10.7147 29.4966 12.0897 29.4078 12.2671C29.2747 12.5332 29.2747 12.755 29.4078 13.0211C29.4522 13.0654 29.4078 13.1985 29.319 13.2429C29.2303 13.2872 29.0971 13.3316 29.0527 13.2429C28.7864 12.9767 28.4757 12.755 28.1207 12.8437C27.4993 12.134 26.8779 11.4687 26.2566 10.7591C26.2566 10.7591 26.2122 10.7147 26.2566 10.7147C26.656 9.78332 25.6796 9.51721 25.3689 8.94062C25.3245 8.85191 25.1913 8.7632 25.1026 8.7632C24.3481 8.89626 24.2149 8.23097 23.8154 7.87614C23.7267 7.78744 23.7711 7.61003 23.7711 7.43261C23.8598 7.12214 23.7711 6.94473 23.4604 6.98908C23.1497 7.03344 23.0165 6.90038 23.0609 6.54555C23.1053 6.4125 23.0609 6.14638 22.9278 6.01332C22.7059 5.70285 22.3952 5.34802 22.1289 5.03755C21.9513 5.17061 21.8182 5.43673 21.5519 5.12626C21.5075 5.08191 21.5075 4.90449 21.5519 4.86014C21.8182 4.63838 21.9513 4.90449 22.0845 5.03755C22.262 4.90449 22.3952 4.72708 22.6615 4.90449C22.7502 4.94885 22.8834 4.94885 23.0609 4.94885C23.5491 4.94885 23.9486 5.39238 23.9042 5.83591C23.9042 5.96897 23.8598 6.23508 23.9486 6.32379C24.3481 6.81167 24.7031 7.2552 25.1026 7.74309C25.2801 7.9205 25.4133 8.18662 25.8127 8.0092C26.0346 7.9205 26.2566 8.14226 26.079 8.40838C25.9459 8.71885 26.079 8.94062 26.2566 9.11803C26.3897 9.33979 26.5672 9.56156 26.7004 9.73897ZM25.3689 6.27944C25.4133 6.19073 25.4576 6.10202 25.4576 6.10202C25.502 6.10202 25.5908 6.14638 25.6352 6.19073C25.5908 6.23508 25.5908 6.32379 25.5464 6.32379C25.502 6.36814 25.4133 6.32379 25.3689 6.27944ZM25.9015 3.4852C26.2122 3.88437 26.2122 3.97308 25.9015 4.2392C25.502 4.54967 25.3689 4.54967 25.1026 4.2392C24.7031 3.75132 24.7031 3.5739 25.1026 3.30779C25.4133 2.99731 25.502 3.04167 25.9015 3.4852Z" fill="#D76700"/>
<path d="M10.4551 50.4549C11.9197 52.0516 13.4732 53.3822 15.0266 54.491C14.9822 54.4023 14.9822 54.3136 14.9378 54.1806V54.1362C14.8935 54.0919 14.8935 53.9588 14.8935 53.8258C14.9822 53.2048 14.7603 52.983 14.1833 52.983C13.6951 52.983 13.3844 52.4065 13.5176 51.9186C13.6063 51.6081 13.5619 51.2533 13.5619 50.8541C13.5619 50.8097 13.3844 50.6767 13.34 50.721C12.8962 50.8541 12.8074 50.588 12.5855 50.2775C12.4967 50.1445 12.3636 50.0557 12.2748 49.967C12.0973 50.0114 11.831 50.1001 11.6534 50.1445C11.3428 50.2332 10.9877 50.2775 10.6326 50.3662C10.5438 50.4549 10.4995 50.4549 10.4551 50.4549Z" fill="#D76700"/>
<path d="M23.0605 46.7738C23.1049 46.7738 23.1937 46.7738 23.1937 46.7294V46.6851C23.1493 46.7294 23.1049 46.7294 23.0605 46.7738Z" fill="#D76700"/>
<path d="M30.3835 44.2457C30.2947 44.3344 30.206 44.4231 30.1616 44.5118C30.206 44.5118 30.2503 44.5562 30.2503 44.5562C30.206 44.6005 30.1616 44.6449 30.1172 44.6892C30.1172 44.7336 30.1616 44.7779 30.1616 44.8223C30.206 44.8666 30.206 44.911 30.2503 44.9553C30.2947 44.6892 30.3835 44.3787 30.4279 44.157C30.4279 44.2013 30.4279 44.2457 30.3835 44.2457Z" fill="#D76700"/>
<path d="M32.6924 46.2858C32.7368 46.3745 32.6924 46.5519 32.648 46.5963C32.648 46.5963 32.6037 46.5963 32.5593 46.5963C32.3817 47.5277 32.293 48.5478 32.293 49.5679C32.293 49.7897 32.293 50.0558 32.293 50.2776C32.3374 50.2332 32.4261 50.1445 32.4705 50.1889C32.5593 50.2776 32.648 50.3663 32.6924 50.455C32.6924 50.4106 32.6924 50.3663 32.7368 50.3663C32.7812 50.3219 33.0031 50.2776 33.0475 50.3219C33.3138 50.588 33.6245 50.8985 33.8908 51.1646C33.9352 51.2533 33.9352 51.4751 33.8464 51.5638C33.8464 51.5638 33.802 51.6082 33.7576 51.6082C34.0683 51.6969 34.4234 51.7412 34.7341 51.9186C34.9116 52.0073 34.9116 52.3178 34.8228 52.5839C34.8672 52.5839 34.9116 52.5839 35.0004 52.6283C35.1779 52.6726 35.533 52.6283 35.6218 52.717C35.7105 52.8501 35.6218 53.1605 35.5774 53.3379C35.533 53.5154 35.533 53.7371 35.4886 53.9145C35.3111 53.9589 35.1779 54.0032 35.0004 54.0476C34.956 53.9589 34.956 53.8258 34.9116 53.6484C34.8672 53.3823 34.7785 53.1162 34.379 53.2492C34.2902 53.2936 34.2015 53.2492 34.0683 53.2049C33.9796 53.2936 33.9796 53.471 34.0239 53.8258C34.0239 53.9589 33.9796 54.1363 33.8908 54.225C33.6689 54.3137 33.4026 54.3137 33.1806 54.3137C33.1806 54.2694 33.1806 54.225 33.1806 54.1806V54.225C33.0475 54.5355 33.1806 54.7572 33.3138 54.9346C33.5357 55.2008 33.4913 55.4669 33.2694 55.6886C33.4026 56.1322 33.5801 56.487 33.802 56.8862C33.8464 56.7975 33.8908 56.7088 34.0239 56.5757C34.2902 56.3096 34.5565 56.3983 34.7785 56.6201C34.8228 56.6644 34.8672 56.7088 34.956 56.7975C35.0004 56.8862 35.0891 57.0192 35.1335 57.241C35.3111 57.7732 35.2667 57.8176 34.6897 57.7289C34.5122 57.6845 34.2459 57.7289 34.0683 57.5958C34.956 59.3256 36.1544 60.8779 37.5746 62.2085C37.619 62.1198 37.619 61.9868 37.619 61.8094C37.619 61.632 37.9297 61.3215 38.196 61.1884C38.2848 61.1441 38.6398 61.2771 38.773 61.4102C39.2612 61.9424 39.6607 62.4747 40.1045 62.9625C40.5483 63.4948 40.9922 64.027 41.436 64.5149C41.5248 64.6036 41.5692 64.781 41.5692 64.9584C42.2793 65.3576 43.0338 65.6681 43.7884 65.8898C43.8327 65.7568 43.8327 65.6237 43.8771 65.4463C43.8771 65.3576 43.8771 65.3133 43.8771 65.2245C43.9659 64.9584 43.8327 64.7367 43.6996 64.5592C43.3889 64.1157 43.0338 63.7609 42.7232 63.3174C42.013 62.4747 41.3029 61.6763 40.5927 60.7892C40.4152 60.6118 40.1933 60.3457 39.8382 60.5231C39.5719 60.6118 39.0837 59.9909 39.1281 59.6361C39.1725 59.0151 38.9949 58.7934 38.3735 58.7934C38.0629 58.7934 37.619 58.2611 37.7522 57.995C37.9297 57.5958 37.7522 57.4628 37.5746 57.241C37.4859 57.1079 37.3527 57.0192 37.2639 56.8418C37.2196 56.8418 37.1752 56.8418 37.0864 56.8418C36.6426 56.8418 36.5538 56.7531 36.465 56.3096C36.4207 56.1765 36.465 56.0435 36.5094 55.9991C36.465 55.9548 36.4207 55.9104 36.3763 55.8661C36.2875 55.733 36.1544 55.5999 36.11 55.3782C36.0656 55.2895 36.0212 55.1121 36.11 54.979C36.1987 54.8903 36.3763 54.8459 36.5538 54.8459C36.687 54.8459 36.8201 54.9346 36.9533 54.8903C37.2196 54.7572 37.4415 54.9346 37.5746 55.1121C37.6634 55.2451 37.7522 55.3338 37.8409 55.5112C37.2639 54.3581 36.8645 53.1162 36.5982 51.8743C36.465 51.963 36.2875 52.0073 35.9768 52.0073C35.4886 52.0517 35.3554 51.963 35.3998 51.4751C35.3998 51.2977 35.4886 51.0316 35.6218 50.9872C35.8437 50.8985 36.1987 50.7211 36.4207 50.9872L36.465 51.0316C36.4207 50.4993 36.3763 49.9671 36.3763 49.4349C36.3763 48.1043 36.5538 46.818 36.9533 45.6205C36.8201 45.5318 36.8645 45.31 37.0864 45.0883C37.3971 44.2012 37.7966 43.3142 38.2848 42.5158C38.196 42.5158 38.1072 42.5158 38.0629 42.4715C37.9741 42.5158 37.9741 42.3827 37.9741 42.2053C38.1516 42.2497 38.2848 42.2497 38.3735 42.3384C38.4179 42.3384 38.4179 42.294 38.4623 42.294C40.8147 38.7014 44.9423 36.262 49.647 36.262C55.5944 36.262 60.6542 40.2094 62.3852 45.6205C62.5627 45.6205 62.6958 45.7536 62.9178 45.931C63.0953 46.064 63.1397 46.2415 63.0065 46.5519C62.9178 46.7293 62.9621 46.9955 62.9178 47.2172C62.8734 47.2172 62.829 47.1729 62.829 47.1729C62.9621 47.9712 63.0509 48.8139 63.0509 49.701C63.0509 50.1445 63.0509 50.5437 63.0065 50.9872C63.2284 50.9872 63.4504 50.9429 63.6723 51.1646C64.5156 51.963 65.0482 53.0718 65.8915 53.9145C65.9802 54.0032 66.069 54.1363 66.0246 54.1806C65.8027 54.5798 66.0246 54.8459 66.1578 55.1121C66.7348 53.3823 67.0011 51.6082 67.0011 49.701C67.0011 48.7696 66.9123 47.8382 66.7791 46.9511C66.7348 46.9068 66.7348 46.8624 66.6904 46.8624C66.5572 46.7737 66.4241 46.7293 66.2022 46.685C66.1134 46.6406 65.9802 46.6406 65.8915 46.6406C65.9359 46.5519 65.9359 46.4632 65.9802 46.3745C66.2022 45.9753 66.3797 45.8423 66.6016 46.064C64.915 38.2579 57.9468 32.4033 49.6914 32.4033C41.2585 32.4033 34.2459 38.4353 32.648 46.4632C32.648 46.2415 32.6924 46.2858 32.6924 46.2858ZM42.0574 63.1843C42.1462 63.273 42.2793 63.3617 42.3237 63.4504C42.3237 63.4948 42.2349 63.7165 42.1462 63.7165C42.0574 63.7165 41.9242 63.6278 41.6579 63.4948C41.8799 63.3617 41.9686 63.273 42.0574 63.1843ZM40.859 63.14C40.9034 63.14 40.9922 63.1843 40.9922 63.1843C40.9922 63.2287 40.9478 63.3174 40.9034 63.3617C40.9034 63.3617 40.8147 63.3174 40.7259 63.3174C40.7259 63.2287 40.8147 63.14 40.859 63.14ZM36.3763 54.4468C36.465 54.4468 36.5538 54.5355 36.6426 54.5798C36.5982 54.6685 36.5538 54.8016 36.5094 54.8459C36.4207 54.8903 36.3319 54.8016 36.11 54.7572C36.2431 54.5798 36.2875 54.4468 36.3763 54.4468ZM36.1544 58.2611C36.4207 58.3055 36.7757 58.3055 36.9089 58.4385C37.042 58.5716 36.9089 58.9708 36.9976 59.1482C37.0864 59.3699 37.3083 59.5917 37.4859 59.8135C37.6634 59.9909 37.8853 60.257 38.0185 60.4344C38.0629 60.5231 38.1072 60.7449 38.0185 60.8779C37.9741 60.9667 37.7522 60.9667 37.5746 60.9667C37.3971 60.9667 37.1752 60.9223 36.9976 60.8779C36.8645 60.8336 36.7313 60.7892 36.5538 60.7449C36.5982 60.7005 36.5982 60.6562 36.6426 60.6562C36.2431 60.2127 35.8881 59.7691 35.4886 59.3256C35.2223 58.9264 35.2223 58.6603 35.5774 58.3942C35.7993 58.2611 36.0212 58.2168 36.1544 58.2611ZM64.5156 47.7938C64.56 47.8382 64.6043 47.9269 64.6931 47.9712C64.8707 48.193 65.0926 48.4148 64.7819 48.7252C64.3824 49.0357 64.2493 49.1244 63.8942 48.7696C63.7167 48.6365 63.5835 48.4591 63.406 48.193C63.1397 47.7495 63.2728 47.439 63.7167 47.3059C63.8054 47.2616 63.983 47.3059 64.1161 47.3503C64.2493 47.4833 64.3824 47.6164 64.5156 47.7938ZM63.0065 44.2012C63.1397 43.9795 63.3172 43.802 63.6279 44.0238C63.7167 44.0682 63.7611 44.1125 63.8498 44.1569C64.338 44.2899 64.3824 44.423 64.0274 44.7778C63.7167 45.177 63.2728 45.2657 63.0065 44.8665C62.7402 44.6891 62.8734 44.423 63.0065 44.2012ZM35.3998 48.2817C35.533 48.4148 35.6661 48.4591 35.6661 48.5478C35.6661 48.6365 35.5774 48.7252 35.4886 48.7696C35.4442 48.7696 35.3111 48.6809 35.2667 48.6365C35.2667 48.5478 35.3111 48.4591 35.3998 48.2817ZM34.379 49.701C34.7785 49.6123 34.9116 49.701 35.0004 50.1002C35.0891 50.588 35.0448 50.6768 34.5122 50.8098C34.2902 50.8985 34.0239 50.8985 33.9352 50.5881C33.8464 49.9671 33.9352 49.8341 34.379 49.701Z" fill="#D76700"/>
<path d="M44.1425 63.8053C44.2756 63.8053 44.4088 63.8053 44.542 63.894C44.9414 64.2932 45.2521 64.648 45.6515 65.0472C45.6515 64.8698 45.6072 64.7367 45.6072 64.5149C45.6072 64.3375 45.474 64.1158 45.474 63.9384C45.474 63.8053 45.5628 63.6722 45.6072 63.4948C45.6959 63.5835 45.8291 63.6722 45.8735 63.7609C45.9622 63.9384 45.9622 64.2045 46.051 64.3819C46.0954 64.6036 46.1842 64.8698 46.5392 64.9141C46.5836 64.9141 46.5836 64.9141 46.628 64.9585C46.628 64.8698 46.628 64.8254 46.628 64.7367C46.628 64.648 46.628 64.5149 46.628 64.4262C46.5836 64.1158 46.8055 63.7166 47.1606 63.7166C47.3381 63.7166 47.56 63.8497 47.6932 63.9827C47.9595 64.2045 47.782 64.4706 47.6044 64.6924C47.56 64.7367 47.4713 64.8254 47.4269 64.8698C47.3381 64.9141 47.205 65.0028 47.1162 65.0472C47.0718 65.0472 46.9831 65.0915 46.9387 65.0915C47.0718 65.2246 47.205 65.402 47.4713 65.402C47.4713 65.4907 47.4713 65.6238 47.4269 65.6681C47.205 65.8012 46.8943 65.9342 46.628 66.1117C46.5836 66.1117 46.5836 66.1117 46.5392 66.1117C46.5392 66.2004 46.5392 66.2891 46.4948 66.3778C46.4505 66.4665 46.4948 66.5108 46.4948 66.5552C47.2494 66.6882 48.0483 66.7769 48.8472 66.8213C48.7584 66.7326 48.714 66.6439 48.6696 66.5552C48.5365 66.4221 48.4477 66.2447 48.2702 66.0673C47.782 65.4464 48.137 64.5593 48.8916 64.4262C48.9803 64.4262 49.1579 64.5149 49.2022 64.648C49.3798 64.8698 49.4686 65.1802 49.7349 65.3577C50.3562 65.8012 50.0012 66.3334 50.0455 66.8657C55.5491 66.7769 60.387 64.1158 63.5382 60.0353C63.5382 59.9909 63.5382 59.9466 63.5382 59.9022L63.5826 59.9466C63.6714 59.8579 63.7157 59.7692 63.8045 59.6805C63.7601 59.6805 63.6714 59.6805 63.6714 59.6361C63.627 59.5918 63.627 59.4587 63.5382 59.3256C63.7157 59.37 63.8045 59.37 63.8489 59.4143C63.8933 59.4587 63.8489 59.5031 63.8489 59.5474C64.6922 58.3499 65.3579 57.0636 65.9349 55.6887L65.8905 55.7331C65.8018 55.7774 65.5799 55.733 65.4023 55.6443C65.2248 55.5113 65.0916 55.2452 64.9141 55.0678C64.7809 54.8903 64.6034 54.7573 64.4703 54.5355C64.3815 54.4468 64.3815 54.2694 64.3815 54.092C64.4703 53.5154 64.1596 53.2049 63.627 53.2936C63.3607 53.338 63.1831 53.2493 63.05 53.0719C62.9168 52.8945 62.8281 52.6727 62.6505 52.4509C62.1179 54.7573 61.0083 56.8862 59.4549 58.5273H59.4993C59.4993 58.6603 59.4993 58.7491 59.4105 58.9265C59.3661 59.0152 59.233 59.1039 59.1442 59.1926C58.9667 59.2813 58.8335 59.4144 58.6116 59.5031C58.5672 59.5474 58.4785 59.5474 58.3897 59.5031C56.0373 61.5876 52.9305 62.8295 49.6017 62.8295C48.4477 62.8295 47.3381 62.6965 46.2729 62.386C46.2729 62.4747 46.3173 62.5191 46.2729 62.5634C46.1842 62.7852 46.0954 63.0956 45.9622 63.3174C45.7403 63.14 45.5184 63.0069 45.2965 62.7852C45.2521 62.7408 45.2077 62.6965 45.1633 62.6521C45.0746 62.5191 44.9858 62.4304 44.897 62.2529C44.8526 62.2086 44.8526 62.1642 44.8083 62.1199C44.7639 62.2086 44.7195 62.2973 44.6751 62.5191C44.4976 62.3416 44.3644 62.2086 44.3644 62.0755C44.3644 61.9425 44.4532 61.8981 44.542 61.8094C43.0773 61.1885 41.7014 60.3458 40.5918 59.2369C40.5918 59.8135 40.7249 59.9909 41.3907 59.9909C41.657 59.9909 42.0121 60.4345 41.9677 60.7893C41.9233 61.2772 42.0121 61.3659 42.4559 61.3659C42.7222 61.3659 42.8554 61.5876 42.7222 61.8538C42.6335 62.1199 42.7666 62.2529 43.0329 62.2973C43.5211 62.3416 43.7874 62.6965 43.743 63.14C43.8762 63.6722 43.9206 63.8053 44.1425 63.8053ZM63.4494 57.2854C63.4938 57.2854 63.627 57.3741 63.627 57.4628C63.627 57.5515 63.5826 57.6846 63.5382 57.7733C63.4494 57.7289 63.3607 57.6846 63.05 57.5515C63.2275 57.4185 63.2719 57.3298 63.4494 57.2854ZM62.5174 58.2168C62.6505 58.1725 62.8281 58.2168 63.05 58.2168C63.0944 58.5273 63.0944 58.7491 63.1387 58.9708C62.9168 58.8378 62.6061 58.7491 62.4286 58.5273C62.3842 58.5273 62.4286 58.2168 62.5174 58.2168ZM61.4078 56.8419C61.4966 56.7532 61.6297 56.7975 61.9404 56.7532C61.8072 57.0193 61.7629 57.1967 61.6741 57.2411C61.5853 57.2854 61.4522 57.2411 61.3634 57.2411C61.319 57.108 61.319 56.9306 61.4078 56.8419ZM57.5908 62.4304C57.5908 62.3416 57.6795 62.2086 57.7239 62.2086C57.8127 62.1642 57.9458 62.2086 58.0346 62.2529C58.1234 62.2973 58.1678 62.4304 58.2565 62.5191C58.3453 62.6078 58.4341 62.7408 58.5672 62.8295C58.3453 62.9626 58.1234 63.0957 57.9015 63.14C57.8127 63.14 57.6795 62.9182 57.5908 62.8739C57.5908 62.6521 57.502 62.5191 57.5908 62.4304ZM56.7031 64.5149C56.8363 64.5593 56.9694 64.5593 57.0138 64.6036C57.0582 64.6924 57.0138 64.8254 56.9694 64.9141C56.8806 64.8698 56.7475 64.8698 56.6587 64.8254C56.6143 64.7811 56.6587 64.648 56.7031 64.5149ZM53.9069 64.9141C53.9513 64.8698 54.0845 64.7811 54.1288 64.8254C54.4395 64.9585 54.7502 65.2246 55.1497 65.3133C55.4604 65.402 55.1053 65.6238 55.0609 65.8012C54.8834 65.9786 54.0401 66.1117 53.8182 65.9786C53.7294 65.9342 53.685 65.7568 53.685 65.6681C53.7294 65.3577 53.8182 65.1359 53.9069 64.9141ZM51.9984 63.3174C52.0872 63.2731 52.2203 63.2731 52.3091 63.2731C52.3091 63.4061 52.3535 63.5392 52.2647 63.7166C52.2203 63.7609 52.0428 63.7609 51.8209 63.7609C51.954 63.5835 51.954 63.4061 51.9984 63.3174Z" fill="#D76700"/>
<path d="M33.5358 53.5597C33.4026 53.5153 33.2251 53.4709 33.0476 53.4709C32.9588 53.4709 32.87 53.5153 32.7812 53.5153C32.8256 53.6927 32.87 53.9145 32.9144 54.0475C32.9588 54.0475 32.9588 54.0032 33.0032 54.0032C33.1807 53.9145 33.3139 54.0032 33.4026 54.0919C33.4026 54.0475 33.4026 54.0032 33.4026 53.9588C33.4026 53.8258 33.4914 53.6927 33.5358 53.5597Z" fill="#D76700"/>
<path d="M45.0302 66.422C44.9858 66.422 44.9858 66.422 44.9414 66.3777C44.9414 66.3777 44.9858 66.422 45.0302 66.422Z" fill="#D76700"/>
<path d="M39.1274 57.8176C38.9943 57.6401 38.8611 57.4184 38.6836 57.241C38.6836 57.374 38.728 57.5514 38.8167 57.6845C38.9055 57.7289 39.0387 57.7732 39.1274 57.8176Z" fill="#D76700"/>
<path d="M33.3135 51.83C33.3578 51.7413 33.491 51.7413 33.7129 51.6526C33.6685 51.6526 33.6241 51.6083 33.5798 51.6083C33.4466 51.5195 33.3135 51.3421 33.1359 51.1647C33.0472 51.076 33.0028 50.9873 32.914 50.8986V50.943C32.914 51.0317 32.8696 51.1204 32.8252 51.1647C32.7808 51.2091 32.6033 51.2091 32.6033 51.1647C32.5145 50.943 32.4702 50.6768 32.4258 50.4551C32.4702 51.1204 32.5145 51.7413 32.6033 52.3623C32.8252 52.2736 33.1803 52.2292 33.3135 51.83Z" fill="#D76700"/>
<path d="M57.7243 44.9996C57.4136 44.6005 57.4136 44.5118 57.7687 44.2456C57.9463 44.1126 58.0794 44.0239 58.1682 43.9795L56.0377 41.8506L48.315 50.7212C48.315 50.7212 43.6103 46.8625 43.5215 46.8181L40.9473 49.7898C40.9916 49.9228 46.2733 54.4468 48.0931 56.0435C48.4481 56.354 48.9363 56.3097 49.247 55.9548L50.8448 54.0033C50.7117 54.0477 50.6229 54.0033 50.5342 53.8259C50.4454 53.4267 50.7561 53.5154 50.978 53.4267C51.0224 53.4267 51.0668 53.3824 51.1111 53.3824C51.1555 53.3824 51.2443 53.4267 51.3331 53.4267L52.709 51.8744C52.5314 51.8744 52.2651 51.9187 52.2207 51.6526C52.1764 51.3865 51.9988 51.076 52.3095 50.8986C52.487 50.8099 52.709 50.7212 52.8865 50.6325V50.6768C53.1972 50.6325 53.5523 50.5438 53.8629 50.4994L54.6175 49.6567C54.4399 49.7011 54.218 49.7454 54.0849 49.7898C53.5523 49.8785 53.4191 49.7898 53.3747 49.3019C53.3303 49.0358 53.4191 48.8584 53.641 48.814C53.9517 48.7253 54.3068 48.681 54.5731 48.5922C54.7506 48.5479 55.0169 48.5479 55.1501 48.4592C55.372 48.3261 55.5939 48.3261 55.7271 48.3705L58.3013 45.4432C58.1238 45.3988 57.9463 45.2658 57.7243 44.9996ZM46.7172 52.0518C46.2733 52.1848 45.8739 52.2735 45.43 52.3623C45.3413 52.3623 45.2081 52.3179 45.0306 52.2735C45.1193 52.0518 45.1193 51.8744 45.1637 51.83C45.2081 51.7413 45.3413 51.6526 45.3856 51.5639C45.4744 51.1204 45.6519 51.1204 45.9626 51.4308C46.0958 51.5195 46.4065 51.4752 46.584 51.5195C46.7172 51.5639 47.0278 51.5639 47.0278 51.6526C47.1166 51.9631 46.8947 52.0074 46.7172 52.0518ZM51.6438 51.9187C51.1111 52.4066 50.4454 52.1848 49.9128 52.3623C49.824 52.3623 49.7353 52.1848 49.6021 52.0518C49.6465 51.9631 49.6909 51.7857 49.824 51.6082C49.8684 51.5639 50.0903 51.697 50.2679 51.7413C50.3566 51.7857 50.4454 51.8744 50.5342 51.9187C50.5785 51.7857 50.6229 51.697 50.6229 51.5195C50.7117 51.2534 51.1111 51.0317 51.4662 51.076C51.7325 51.1204 51.7769 51.3421 51.7769 51.5639C51.7769 51.697 51.7325 51.83 51.6438 51.9187ZM51.9988 50.2777C51.555 50.3664 51.4662 50.322 51.3775 49.9672C51.2443 49.5237 51.2887 49.435 51.6881 49.3462C52.1764 49.2575 52.2651 49.3019 52.3539 49.6567C52.487 50.1002 52.4427 50.189 51.9988 50.2777ZM53.8629 47.7495C53.7298 47.7495 53.5966 47.6608 53.4635 47.6165C53.3303 47.4391 53.2416 47.3504 53.2416 47.1729C53.1972 47.0399 53.2416 46.9068 53.3303 46.8625C53.5523 46.7738 54.1292 47.2617 54.0849 47.4834C54.0405 47.5721 53.9073 47.7495 53.8629 47.7495ZM57.1917 43.4473C57.0142 43.6247 56.7035 43.6691 56.4816 43.7578C56.4372 43.4916 56.3484 43.1812 56.3484 42.9151C56.3484 42.8264 56.5704 42.6489 56.6591 42.6489C56.7923 42.6489 56.9254 42.8264 57.1917 42.9151C57.1917 43.0481 57.2805 43.3586 57.1917 43.4473Z" fill="#D76700"/>
</svg>
