<svg width="70" height="70" viewBox="0 0 70 70" fill="none" xmlns="http://www.w3.org/2000/svg">
<path d="M29.7505 57.3961V57.3413C29.7505 57.3413 29.6947 57.3961 29.7505 57.3961C29.6389 57.5603 29.5831 57.7246 29.5273 57.8341C29.6389 57.8341 29.6947 57.8888 29.8063 57.9436C29.6947 57.7793 29.6947 57.5603 29.7505 57.3961Z" fill="#FEFEFE"/>
<path d="M29.1918 27.6573C29.2476 27.712 29.3034 27.7668 29.3034 27.8215C29.6381 27.5478 29.9729 27.2193 30.2518 26.8908C29.6939 26.7813 29.136 26.6718 28.5781 26.5623C28.5781 26.7265 28.5781 26.836 28.6339 26.9455C28.7455 27.2193 29.0244 27.4383 29.1918 27.6573Z" fill="#FEFEFE"/>
<path d="M40.8561 28.0409C41.6374 28.6434 41.8048 29.7387 41.191 30.5055C40.8561 30.9984 40.2422 31.2174 39.6842 31.1627C39.5726 31.4365 39.461 31.7103 39.3493 31.9842C39.0703 31.7651 38.8471 31.6008 38.5681 31.3817C38.5122 31.327 38.4564 31.2722 38.4006 31.2174C38.289 31.0531 38.1774 30.9436 38.0658 30.7793C38.01 30.7245 38.01 30.6698 37.9542 30.615C37.8984 30.7245 37.8426 30.8341 37.7868 31.0531C37.5635 30.8341 37.3961 30.6698 37.3961 30.5602C37.3961 30.4507 37.5635 30.3412 37.6752 30.1769C37.731 30.2316 37.7868 30.2316 37.8426 30.2864C37.8426 30.1769 37.8426 30.1221 37.8984 30.0126C37.5635 29.684 37.2287 29.3006 36.9497 28.9172C36.8939 28.9172 36.8939 28.9172 36.8381 28.9172C36.6706 28.9172 36.4474 28.8077 36.3358 28.6434C36.0568 28.3695 35.8335 28.0409 35.5545 27.7671C35.0522 27.8219 34.55 27.7671 34.1035 27.7123C34.0477 27.8766 33.9361 27.9862 33.8245 28.1505C33.8803 28.1505 33.8803 28.1505 33.9361 28.1505C34.271 28.1505 34.6616 28.6434 34.6058 29.0815C34.55 29.6292 34.6616 29.7387 35.1639 29.7387C35.4987 29.7387 35.6103 30.0126 35.4987 30.2864C35.3871 30.615 35.5545 30.7245 35.8893 30.7793C36.4474 30.8341 36.7822 31.2174 36.7264 31.7651C36.7264 32.0937 36.7822 32.2032 37.0613 32.2032C37.2287 32.2032 37.3961 32.2032 37.5077 32.3128C37.9542 32.7509 38.3448 33.189 38.7913 33.6272C38.7913 33.4081 38.7355 33.2438 38.7355 33.0247C38.7355 32.8057 38.5681 32.5866 38.5681 32.3675C38.5681 32.2032 38.6797 32.0389 38.7355 31.8746C38.8471 31.9842 39.0145 32.0937 39.0703 32.2032C39.1819 32.4223 39.1819 32.6961 39.2935 32.9152C39.3493 33.189 39.461 33.4629 39.8516 33.5176C39.9074 33.5176 39.9074 33.5176 39.9632 33.5724C39.9632 33.4629 39.9632 33.4081 39.9632 33.2986C39.9632 33.189 39.9632 33.0247 39.9632 32.9152C39.9074 32.5318 40.1864 32.0937 40.5771 32.0937C40.8003 32.0937 41.0235 32.258 41.191 32.4223C41.5258 32.6961 41.3026 32.97 41.0793 33.2438C41.0235 33.2986 40.9119 33.4081 40.8561 33.4629C40.7445 33.5176 40.5771 33.6272 40.4655 33.6819C40.3539 33.901 40.2422 33.901 40.1864 33.901C40.3539 34.0653 40.5213 34.2844 40.8003 34.2844C40.8003 34.3939 40.8003 34.5582 40.7445 34.613C40.4655 34.7773 40.1306 34.9416 39.7958 35.1059C39.74 35.1059 39.74 35.1059 39.6842 35.1059C39.6842 35.2154 39.6842 35.325 39.6284 35.4345C39.5168 35.7083 39.74 35.8726 40.0748 35.9274C40.9119 36.0369 41.749 36.968 41.8048 37.7895C41.8606 38.6657 42.8652 40.0349 43.6464 40.3087C43.7581 40.3635 43.9255 40.254 44.0371 40.3087C44.2045 40.3635 44.4277 40.3635 44.5393 40.473C44.651 40.6373 44.8184 40.8016 44.93 40.966C44.9858 40.9112 45.0416 40.9112 45.0416 40.9112C45.5997 40.8017 45.8787 40.9659 45.9903 41.4041C46.0461 41.6232 45.9903 41.8422 45.8229 42.0065C46.1019 42.3351 46.4368 42.6637 46.7158 43.0471C46.8274 43.2114 46.939 43.3757 46.9948 43.54C47.0506 43.6495 47.0506 43.8686 46.9948 43.9781C46.939 44.0329 46.7716 44.0329 46.66 44.0329C45.8787 44.0329 45.2648 43.7591 45.0416 43.2114C44.8184 42.9376 44.651 42.7733 44.5393 42.609C44.3161 42.3899 44.2045 42.1708 44.3719 41.8422C44.5393 41.5684 44.3719 41.2945 44.0929 41.4041C43.5906 41.5684 43.3674 41.2946 43.2 40.966C42.8093 40.1992 42.1397 39.6515 41.5258 39.0491C41.3026 38.83 41.1352 38.611 40.8003 38.7753C40.5213 38.8848 40.3539 38.6657 40.4097 38.3919C40.4655 37.9538 40.5213 37.5156 40.5213 37.0775C40.5213 37.0227 40.2981 36.8584 40.2422 36.9132C39.7958 37.1323 39.6284 36.8037 39.4052 36.5298C39.1261 36.2012 38.7913 35.8726 38.4564 35.544C38.3448 35.4345 38.1216 35.325 37.8984 35.325C37.8426 35.325 37.731 35.325 37.6752 35.2702C37.6193 35.4345 37.3961 35.544 37.0055 35.6536C36.9497 35.6536 36.7822 35.5988 36.559 35.544C36.6148 35.3797 36.6706 35.2702 36.7264 35.1059C36.7822 34.8868 36.8381 34.7225 36.8939 34.5034C36.8939 34.3939 36.8939 34.3391 36.8939 34.2296C37.0055 33.901 36.8381 33.6819 36.6706 33.4629C36.28 32.97 35.8893 32.5318 35.4987 32.0389C34.6616 31.1079 33.8803 30.1769 33.0432 29.2458C32.6526 29.7387 32.2061 30.1769 31.7039 30.615C31.9829 30.9436 32.2619 31.2722 32.4851 31.546C32.9874 32.1485 33.5455 32.7509 34.0477 33.3533C34.1593 33.5176 34.2151 33.7367 34.1593 33.901C34.0477 34.1748 33.7687 34.0653 33.5455 34.0653C33.2106 34.0653 32.9316 34.2296 32.6526 34.3939C32.3177 34.613 32.0945 34.8868 31.7597 35.1059C31.6481 35.2154 31.3132 35.2154 31.2016 35.1059C30.9784 34.9416 30.6435 34.7225 30.811 34.3391C30.8668 34.1748 30.9784 34.0105 31.09 33.8462C31.369 33.3533 31.2574 33.0247 30.7551 33.0247C29.8622 33.0247 29.5832 32.258 29.081 31.8199C28.8577 31.6556 28.9693 31.4365 29.1368 31.2722C29.1926 31.2174 29.2484 31.1079 29.3042 31.0531C29.081 30.9436 28.9135 30.7793 28.7461 30.5602C28.3555 30.0673 28.2997 29.4649 28.4671 28.9172C28.3555 28.8625 28.2439 28.8625 28.1881 28.8077C28.2439 28.7529 28.2439 28.6982 28.2997 28.6982C27.8532 28.2052 27.4068 27.6576 26.9603 27.1647C26.6813 26.8361 26.6255 26.5622 26.7929 26.3432C25.4535 26.1789 24.1142 26.0693 22.8306 26.0693C22.2168 26.2336 21.6587 26.3979 21.0448 26.5075C20.1519 27.6576 19.3706 28.7529 18.7009 29.684C19.259 29.5744 19.9287 29.6292 20.0403 28.8077C20.0403 28.7529 20.3193 28.6434 20.4309 28.5886C21.0448 28.4243 21.6029 28.2052 22.2168 28.0409C23.1097 27.8219 24.0584 27.6576 24.9513 27.4933C25.2303 27.4385 25.5651 27.329 25.7326 27.7671C25.8442 28.0957 26.1232 28.4243 25.621 28.6982C25.5651 28.7529 25.5093 28.8077 25.5093 28.8625C25.5651 29.3006 25.2861 29.4649 24.8955 29.4649H24.8397C24.728 30.0673 25.1187 30.3412 25.5093 30.6698C25.7326 30.8888 25.9558 31.1627 26.0674 31.4365C26.1232 31.6008 26.0116 31.8746 26.0116 32.0937C25.5651 32.3675 25.2861 32.258 25.0629 32.0389C24.8397 31.8199 24.5048 31.6556 24.8397 31.2722C25.1187 30.9436 24.8955 30.7245 24.728 30.5055C24.5606 30.2864 24.3374 30.1221 24.0584 30.3412C23.7793 30.5602 23.5561 30.3959 23.3887 30.1769C23.3329 30.0673 23.2213 30.0126 23.1655 29.903C22.9422 30.0126 22.719 30.0673 22.4958 30.1221C21.6029 30.3412 20.71 30.4507 19.8171 30.6698C19.6497 30.7245 19.4822 30.7793 19.3148 30.8341C18.8684 30.9436 18.3661 31.1627 17.9197 31.2174C17.808 31.2174 17.6964 31.2174 17.6406 31.2174C17.529 31.3817 17.3616 31.546 17.25 31.7103C17.3616 31.6556 17.529 31.6556 17.6406 31.7103C18.1987 31.9294 18.5335 32.5866 18.4219 33.2438C18.3661 33.5724 18.5335 33.7367 18.8126 33.6272C19.2032 33.4629 19.4264 33.6819 19.5939 33.9558C19.8729 34.2844 20.0961 34.5582 20.3751 34.8868C20.5984 35.1607 20.8774 35.3797 20.5984 35.7631C20.5426 35.8726 20.7658 36.1465 20.8216 36.3655C20.8774 36.5846 20.9332 36.8037 20.989 36.968C20.7658 37.0227 20.5426 37.0775 20.3193 37.0775C20.0403 37.0775 19.8171 36.968 19.538 36.9132C19.3148 36.9132 19.1474 36.968 18.9242 36.968C18.8126 36.968 18.5893 36.9132 18.5335 36.8037C18.4777 36.6941 18.5335 36.4751 18.6451 36.4203C18.7568 36.256 18.98 36.1465 19.1474 35.9822C19.259 35.8726 19.3706 35.8179 19.4822 35.7083C19.6497 35.5988 19.7613 35.4893 19.7613 35.325C19.7055 35.325 19.5939 35.3797 19.4822 35.4345C19.259 35.4345 18.9242 35.4345 18.6451 35.4345C18.4219 35.4345 18.2545 35.2154 18.4777 35.1059C18.8126 34.9416 19.1474 34.832 19.4822 34.7225C19.2032 34.4487 19.0916 34.4487 18.6451 34.7225C18.4219 34.8868 18.1429 35.0511 17.9197 35.2154C17.529 35.4893 17.3058 35.3797 17.0268 35.0511C16.7477 34.7773 16.6361 34.5034 16.9709 34.1748C17.0826 34.0653 17.1942 34.0105 17.25 33.901C17.3616 33.901 17.3616 33.7915 17.3616 33.6819C17.3616 33.6272 17.1942 33.5724 17.0826 33.5724C16.6361 33.5724 16.3013 33.3533 16.078 33.0247C14.7945 34.7773 13.9016 35.9274 13.3435 36.6941C13.4551 36.7489 13.6226 36.8037 13.7342 36.8584C13.9016 36.9132 14.1248 36.968 14.2364 37.0775C14.5155 37.3513 14.7945 37.6799 15.0735 37.9538C15.1293 37.899 15.1293 37.899 15.1293 37.8442C15.1851 37.899 15.3526 37.9538 15.3526 38.0085C15.3526 38.0633 15.3526 38.1181 15.2968 38.1728C15.8548 38.7205 16.4129 39.3229 16.9151 39.8706C17.25 40.1992 17.6406 40.5826 17.1384 41.0755C17.0826 41.1302 17.0826 41.2398 17.1384 41.2946C17.4174 41.7875 18.0313 41.185 18.3661 41.5684C18.4777 41.4041 18.6451 41.2398 18.6451 41.1302C18.6451 40.9112 18.5335 40.5826 18.8684 40.5826C19.0916 40.5826 19.3706 40.8016 19.538 41.0207C19.7613 41.2398 19.7055 41.4589 19.4822 41.6232C19.0916 41.897 18.8684 42.1161 19.0916 42.6637C19.2032 42.9376 19.0916 43.3757 19.0358 43.7043C19.0358 43.8138 18.8684 43.9781 18.8126 43.9781C18.3661 43.9234 17.9197 43.8686 17.4732 43.7043C17.1942 43.5948 16.9709 43.2114 16.7477 42.9923C16.5245 42.7733 16.4129 42.5542 16.6361 42.2256C16.8035 41.9518 16.6361 41.6779 16.2455 41.6779C15.4642 41.6232 15.3526 41.5684 15.4642 40.7469C15.4642 40.4183 14.9061 39.7611 14.5713 39.8158C14.0132 39.8706 13.8458 39.8158 14.1248 39.2682C14.2922 38.8848 13.6784 38.2276 13.2319 38.2276C12.8413 38.2276 12.618 38.1181 12.5064 37.899C12.339 38.1181 12.339 38.0633 12.339 38.1181C12.1158 38.4467 11.9484 38.7205 11.7251 39.0491L11.7809 39.1039C11.8368 39.2682 11.8926 39.4325 12.0042 39.6515C12.06 39.9254 12.0042 40.0349 11.6693 39.9801C11.5577 39.9254 11.3903 39.9254 11.2787 39.9254C7.76288 46.6617 9.60449 54.8768 15.52 59.5319C16.3013 59.3129 16.4687 59.4224 16.5803 60.2987C17.3058 60.7916 18.0871 61.2297 18.9242 61.5583C20.1519 62.106 21.4355 62.5989 22.6632 63.037C22.6074 62.7632 22.6074 62.5441 22.8864 62.3798C22.998 62.3251 23.0539 62.106 23.1097 61.9417C23.2771 61.5583 23.6677 61.5583 23.9468 61.6131C24.1142 61.6131 24.2258 61.9417 24.3374 62.1608C24.3932 62.2703 24.2816 62.4894 24.17 62.5441C23.891 62.7632 23.5003 62.9275 23.3329 63.2561C26.1232 64.1871 28.9693 64.7348 31.8713 65.0086C31.8713 64.9539 31.8155 64.8443 31.8155 64.7896C31.8155 64.68 31.7039 64.5157 31.7597 64.4062C31.8155 64.2967 31.9829 64.0776 32.0945 64.0776C32.541 64.0776 32.4851 64.5157 32.5968 64.7348C32.6526 64.7896 32.6526 64.9539 32.5968 65.0086C33.9361 65.1182 35.3313 65.1182 36.7264 65.0634C36.559 64.8991 36.4474 64.7348 36.28 64.5705C36.1126 64.4062 35.9451 64.1871 35.6661 64.0776C35.4429 64.2419 35.2197 64.5157 34.9406 64.6253C34.6058 64.7896 34.4384 64.5157 34.3826 64.2419C34.4384 63.9681 34.3268 63.5847 34.6058 63.5299C34.4384 63.3109 34.271 63.0918 34.1035 62.8727C33.9919 62.7632 34.2151 62.3798 34.3826 62.1608C34.4942 62.0512 34.7732 61.8869 34.829 61.9417C35.3313 62.2155 36.1126 62.106 36.3358 62.7084C36.6148 63.0918 36.9497 63.3656 36.7264 63.8038C36.6706 63.9133 36.8381 64.1871 36.9497 64.3514C37.1171 64.5705 37.3403 64.7896 37.5077 65.0634C38.6239 65.0086 39.6842 64.8991 40.8003 64.68C40.8003 64.6253 40.8561 64.6253 40.8561 64.5705C40.9677 64.5157 41.2468 64.5157 41.3584 64.5705C41.6374 64.5157 41.8606 64.461 42.1397 64.4062C42.3071 64.0776 43.4232 63.749 43.7023 63.9133C43.7581 63.9681 43.8139 63.9681 43.8139 64.0228C44.2603 63.9133 44.7626 63.8038 45.209 63.6942C45.2648 63.5847 45.4881 63.4204 45.6555 63.3656C45.8787 63.2561 46.1019 63.2561 46.3252 63.2013C46.5484 63.1466 46.7716 63.0918 46.9948 63.037C47.1623 62.9823 47.2739 62.9823 47.4413 63.037C48.669 62.5989 49.8968 62.1608 51.1245 61.6131C56.2029 59.3129 59.4397 54.7672 60.2768 49.7834C59.9977 49.8382 59.6629 49.9477 59.3839 50.0025C58.7142 50.1668 58.0445 50.3859 57.319 50.4954C56.6494 50.6049 56.5935 50.6597 56.7052 51.2621C56.7052 51.3169 56.761 51.4264 56.761 51.4812C56.8168 51.7003 56.8726 51.9193 56.5935 51.9741C56.4819 51.9741 56.3145 51.8098 56.2587 51.6455C56.1471 51.4264 56.0913 51.3169 55.9797 51.2074V51.2621C55.9239 51.3169 55.7564 51.2621 55.6448 51.2074C55.589 51.1526 55.5332 51.0978 55.4216 50.9883C55.2542 50.9883 55.0868 51.0431 54.9194 51.0978C54.3613 51.2621 53.7474 51.4264 53.1894 51.536C53.1894 51.7003 53.1894 51.8098 53.1335 51.9193C52.9661 52.1384 52.6871 52.0289 52.5197 51.8098C52.4639 51.755 52.4081 51.6455 52.2964 51.5907C52.0174 51.536 51.6826 51.2621 51.2919 51.0978C51.4035 50.9335 51.5152 50.824 51.571 50.7145C51.2919 50.3859 51.0129 50.0573 50.6781 49.6739C50.5106 49.5096 50.399 49.3453 50.3432 49.181C50.2874 49.1262 50.2316 49.1262 50.2316 49.0715C50.0642 48.8524 49.9526 48.6333 49.7294 48.5238C49.2271 48.3595 48.8364 48.6881 48.8923 49.2358C48.8923 49.4001 48.9481 49.5644 48.8923 49.6739C48.8364 49.7834 48.6132 49.8382 48.5016 49.893C48.2784 49.4548 47.6645 49.7287 47.4413 49.2358C47.4413 49.181 47.1623 49.1262 47.0506 49.1262C46.8832 49.1262 46.7158 49.181 46.6042 49.181C46.3252 49.2358 46.1019 49.181 46.0461 48.9072C45.9903 48.6333 46.2135 48.5238 46.4368 48.469C46.4926 48.469 46.5484 48.469 46.6042 48.4143C46.6042 48.4143 46.6042 48.4143 46.6042 48.469C47.4413 48.25 48.3342 48.0309 49.1713 47.8666H49.2271C49.1713 47.7571 49.1713 47.5928 49.1155 47.3737C49.3387 47.4284 49.5619 47.3737 49.6177 47.4832C49.6735 47.538 49.6735 47.7023 49.6177 47.8118C50.0084 47.7571 50.399 47.7571 50.7897 47.9214C51.0129 48.0309 51.6826 47.8118 51.7384 47.6475C51.85 47.0998 52.2964 47.0451 52.6871 46.9355C53.1335 46.826 53.6358 46.7712 54.0823 46.7712C54.1939 46.7712 54.3055 46.8808 54.4171 46.9903C54.3613 47.0998 54.3055 47.2641 54.1939 47.3189C53.9706 47.4284 53.6916 47.4832 53.4684 47.5928C53.1894 47.7023 52.8545 47.7571 52.7987 48.1404C52.7987 48.25 52.6871 48.3595 52.5755 48.4143C51.9616 48.5786 51.5152 48.6881 51.3477 49.2358C51.4035 49.3453 51.4594 49.4001 51.571 49.5096C51.7942 49.8382 52.0174 50.112 52.2964 50.3859C52.3523 50.3859 52.3523 50.3859 52.4081 50.3311C52.7987 50.2216 53.1894 50.2216 53.2452 49.6739C53.301 49.4548 53.58 49.4001 53.7474 49.5644C54.0264 49.893 54.3055 49.7834 54.5845 49.6739C55.5332 49.4548 56.5377 49.2358 57.4865 49.0715C57.8771 49.0167 58.1561 48.9072 58.4352 49.2905C58.6026 49.5644 58.8816 49.4548 58.9374 49.181C59.049 48.7976 59.2723 48.7429 59.6071 48.6333C59.8861 48.5786 60.1652 48.469 60.4442 48.4143C60.5 47.7571 60.5 47.0451 60.5 46.3879C60.1652 46.4426 59.7745 46.4974 59.7187 47.0451C59.7187 47.0998 59.2723 47.1546 59.2164 47.0998C58.9932 46.7165 58.6584 46.826 58.3794 46.9355C57.6539 47.1546 56.8726 47.0998 56.2029 47.4832C56.0913 47.5928 55.9797 47.5928 55.9239 47.5928C55.6448 47.5928 55.2542 47.8666 55.1426 47.4284C54.9752 46.9355 55.4216 46.9903 55.7006 46.8808C55.9239 46.7712 56.1471 46.7165 56.2029 46.3879C56.2587 46.0045 56.5377 45.9497 56.8726 46.2236C57.1516 46.4426 57.2074 46.4974 57.4306 46.1688C57.5981 45.9497 57.9329 45.8402 58.2119 45.6759C58.5468 45.4568 58.7142 45.7854 58.9374 45.9497C59.2164 46.114 60.0535 45.895 60.4442 45.6211C60.1652 43.0471 59.2723 40.473 57.6539 38.1728C57.6539 38.1181 57.9329 38.5562 48.669 26.0693C46.8274 25.905 44.8184 26.0693 42.8652 26.3432C42.9768 26.7265 42.7535 27.1099 42.1955 27.2742C41.8048 27.3837 41.4142 27.2194 41.0235 27.1647C40.9677 27.1647 40.9119 26.8908 40.9677 26.7813C40.9677 26.7265 41.0235 26.7265 41.0793 26.6718C40.6329 26.7813 40.1864 26.8361 39.74 26.9456C40.019 27.2742 40.4097 27.7123 40.8561 28.0409ZM33.2106 31.8199C33.2106 31.8199 33.099 31.7651 32.9874 31.7651C33.0432 31.6556 33.099 31.6008 33.1548 31.546C33.2106 31.546 33.3222 31.6008 33.3222 31.6008C33.3222 31.7103 33.2664 31.7651 33.2106 31.8199ZM22.2726 27.3837C22.1609 27.4385 21.8261 27.3837 21.7703 27.329C21.6029 27.0551 21.2122 26.7813 21.5471 26.4527C21.6587 26.3432 21.9935 26.5075 22.0493 26.5622C22.3842 26.8908 22.6074 27.1099 22.2726 27.3837ZM25.1187 26.6718C25.1187 26.7265 24.8955 26.6718 24.728 26.6718C24.7839 26.5075 24.7839 26.3432 24.8397 26.2884C24.8955 26.2336 25.0629 26.2884 25.1745 26.2884C25.1187 26.3979 25.1745 26.5622 25.1187 26.6718ZM14.9061 36.5298C14.7387 36.5298 14.6271 36.3655 14.4597 36.256C14.5713 36.0917 14.6829 35.9274 14.7945 35.8726C14.9061 35.8179 15.0735 35.9822 15.2968 36.1465C15.1293 36.3655 14.9619 36.5846 14.9061 36.5298ZM18.1429 39.9254C18.0871 39.8706 18.0313 39.8706 18.0313 39.8158C18.0313 39.7611 18.0871 39.7611 18.0871 39.7063C18.1429 39.7063 18.1987 39.7611 18.1987 39.7611C18.1987 39.8158 18.1429 39.8706 18.1429 39.9254ZM11.1113 51.0431C11.0555 51.0978 10.9438 51.0978 10.7764 51.1526C10.7764 50.9883 10.7764 50.8788 10.8322 50.824C10.888 50.7692 10.9997 50.824 11.1113 50.824C11.1113 50.8788 11.1113 50.9883 11.1113 51.0431ZM11.2229 44.1972C10.7764 44.1972 10.3858 44.0877 9.93933 44.0329C9.88353 44.0329 9.88353 43.9234 9.88353 43.9234C10.1068 43.6495 10.2742 43.3757 10.4974 43.1566C10.6648 43.0471 10.9438 43.2114 11.0555 43.2662C11.2229 43.54 11.3345 43.6495 11.3345 43.8138C11.3903 43.9234 11.2787 44.1972 11.2229 44.1972ZM56.761 42.828C56.9284 42.8828 57.04 42.8828 57.1516 42.8828C57.0958 42.9923 57.0958 43.1566 57.04 43.2114C56.9842 43.2662 56.761 43.2662 56.761 43.2114C56.7052 43.1566 56.761 42.9923 56.761 42.828ZM56.6494 44.0877C56.761 44.0877 56.9842 44.1972 56.9842 44.3067C57.04 44.4163 56.9284 44.6353 56.8168 44.6353C56.3703 44.7449 55.8681 44.8544 55.3658 44.9639C55.31 44.9639 55.0868 44.8544 55.0868 44.7449C55.0868 44.6353 55.1426 44.4163 55.2542 44.3615C55.4774 44.252 55.7006 44.252 55.9239 44.1972C56.1471 44.1424 56.4261 44.0877 56.6494 44.0877ZM55.1984 38.611C55.2542 38.611 55.3658 38.7205 55.3658 38.7753C55.3658 38.7753 55.31 38.9396 55.2542 38.9396C55.1984 38.9396 55.0868 38.8848 54.9194 38.83C55.0868 38.7205 55.1426 38.611 55.1984 38.611ZM54.4729 40.3087C54.5287 40.254 54.9752 40.3087 54.9752 40.4183C55.031 40.5826 54.9193 40.8016 54.8635 41.0755C54.5287 41.0755 54.3055 41.0755 54.0264 41.0755C54.1939 40.8016 54.3055 40.5278 54.4729 40.3087ZM53.8032 44.7996C53.859 45.0735 53.9706 45.4021 53.58 45.5116C53.301 45.5664 53.0777 45.4568 53.0777 45.183C53.0777 44.9092 52.8545 44.471 53.301 44.3067C53.6916 44.1424 53.6916 44.5806 53.8032 44.7996ZM51.85 33.1343C52.0174 33.189 52.1848 33.189 52.2406 33.2438C52.2964 33.3533 52.2406 33.5176 52.1848 33.6272C52.0732 33.5724 51.9058 33.5724 51.7942 33.5176C51.7384 33.4629 51.7942 33.2986 51.85 33.1343ZM51.9058 39.2682C52.0732 39.1586 52.2964 39.1039 52.5197 38.9943C52.6871 38.9943 52.9661 38.9943 53.1894 38.9943C53.58 39.0491 53.58 39.1039 53.3568 39.4325C53.301 39.542 53.1894 39.6515 53.1335 39.7611C52.9661 40.3087 52.6313 40.5826 52.129 40.4183C51.9616 40.3635 51.7942 40.0897 51.6826 39.9254C51.6268 39.7063 51.571 39.4325 51.9058 39.2682ZM41.191 39.3777C41.3026 39.3777 41.4142 39.4325 41.5258 39.4872C41.47 39.5968 41.4142 39.7611 41.3026 39.8158C41.2468 39.8706 41.0793 39.7611 40.9119 39.6515C41.0793 39.542 41.1352 39.3777 41.191 39.3777ZM34.6058 31.6008C34.7174 31.7103 34.8848 31.8199 34.9406 31.9294C34.9406 31.9842 34.829 32.258 34.7174 32.258C34.6058 32.258 34.4384 32.1485 34.1593 31.9842C34.3826 31.8199 34.4942 31.7103 34.6058 31.6008ZM33.3222 48.0309C33.3781 48.0309 33.4339 48.0309 33.4897 48.0857C33.2664 47.7571 33.3222 47.6475 33.6571 47.3737C34.1035 46.9903 34.3826 47.0451 34.7732 47.538C34.9964 47.8118 34.9964 47.9214 34.55 48.3047C34.1035 48.6881 33.9361 48.6881 33.6013 48.1952C33.6571 48.3047 33.6571 48.3595 33.7129 48.469C33.8245 48.7429 33.8245 49.0167 34.271 49.0167C34.7732 48.9619 35.1081 48.7976 35.1639 48.3595C35.2197 48.0857 35.3313 47.9214 35.6103 47.9214C35.8893 47.8666 36.1684 47.8118 36.4474 47.8118C36.8939 47.8118 37.3403 48.25 37.3403 48.6333C37.3403 48.7429 37.1729 48.9619 37.0055 49.0167C36.7264 49.1262 36.3916 49.181 36.1126 49.2358C35.8335 49.2905 35.6103 49.3453 35.4987 49.7287C35.3871 49.9477 34.9964 50.112 34.7174 50.2216C34.3268 50.3859 33.8803 50.3311 33.8245 50.9335C33.8245 51.0431 33.5455 51.1526 33.3781 51.2074C32.541 51.4264 31.6481 51.6455 30.811 51.8098C30.6435 51.8646 30.4203 51.7003 30.2529 51.6455C29.918 51.536 29.8064 51.4264 29.639 51.4264C29.4158 51.4264 29.1368 51.536 29.081 51.2074C29.0251 50.8788 28.9135 50.4954 29.36 50.2763C29.6948 50.112 30.0297 50.0025 30.0855 49.5644C30.0855 49.5644 30.0855 49.5096 30.1413 49.5096C30.0297 49.5096 29.8622 49.5644 29.7506 49.6191C29.6948 49.6191 29.5274 49.5644 29.4158 49.4548C28.9135 48.9072 28.4671 48.3595 27.9648 47.8118C27.5742 47.3189 27.5742 47.1546 28.0764 46.7712C28.2997 46.5522 28.4671 46.4974 28.8577 46.6069C29.3042 46.7712 29.8064 46.7712 30.2529 46.7712C30.6435 46.7712 30.811 46.8808 30.6993 47.2642C30.5319 47.6475 30.6435 47.7571 31.09 47.7571C31.7597 47.7571 32.1503 48.3047 32.0387 48.9072C31.8713 48.9619 31.8713 49.1262 31.8713 49.2358C31.8713 49.4548 31.7597 49.5644 31.5922 49.5644C31.8713 49.6191 32.1503 49.5096 32.4293 49.4548C32.541 49.4548 32.6526 49.4001 32.7642 49.4001C33.4339 49.2358 33.4339 49.2358 33.3222 48.5786C33.3222 48.469 33.2664 48.3047 33.2664 48.1952C33.2106 48.1404 33.2664 48.0309 33.3222 48.0309ZM35.1639 41.0207C35.2197 41.1302 35.1081 41.2945 35.0522 41.6232C34.829 41.4589 34.6616 41.3493 34.6058 41.2398C34.4942 41.4041 34.271 41.5136 34.1035 41.5136C33.8803 41.5684 33.4897 40.9112 33.5455 40.6373C33.5455 40.5826 33.6013 40.5826 33.6571 40.5278C34.0477 40.5826 34.3826 40.6373 34.7732 40.6921V40.7469C34.9406 40.8564 35.1081 40.9112 35.1639 41.0207ZM33.7687 43.8138C33.9361 43.7043 34.1035 43.5948 34.271 43.5948C34.6616 43.4852 35.0522 43.4852 35.1639 42.9376C35.2755 42.4994 36.0568 42.4994 36.4474 42.828C36.7264 43.0471 37.1171 43.2114 37.5077 43.3757C37.5635 43.3757 37.731 43.1566 37.8426 43.0471C38.0658 42.828 38.2332 42.828 38.4006 43.1019C38.5122 43.3757 38.6239 43.6495 38.6797 43.9234C38.7913 44.5258 38.7355 44.5806 37.9542 44.7449C37.8984 44.6901 37.6751 44.6353 37.5077 44.5258C37.1171 44.3615 36.7264 44.0877 36.28 43.9781C35.9452 43.9234 35.5545 43.9234 35.3313 44.3615C35.2755 44.471 34.9406 44.6353 34.8848 44.5806C34.55 44.3067 34.2151 44.4163 33.8245 44.3615C33.6571 44.3615 33.5455 44.252 33.4339 44.1972C33.5455 44.0329 33.6571 43.9234 33.7687 43.8138ZM38.6239 46.4426C38.5122 46.4974 38.289 46.4974 38.2332 46.4426C38.1774 46.3879 38.2332 46.1688 38.2332 45.9497C38.4564 46.0045 38.6239 46.0593 38.6797 46.114C38.7355 46.1688 38.6797 46.4426 38.6239 46.4426ZM39.2377 47.7023C39.2935 47.7023 39.461 47.7023 39.461 47.7023C39.6284 48.1404 39.8516 48.5786 39.9074 49.0167C39.9632 49.3453 39.8516 49.4548 39.3493 49.5644C38.9029 49.7834 38.7355 49.4001 38.6239 49.0715C38.289 48.4143 38.5681 47.8118 39.2377 47.7023ZM26.4022 45.9497C26.5139 45.7854 26.5139 45.6759 26.5697 45.6759C26.6813 45.6759 26.7929 45.7307 26.9045 45.7854C26.8487 45.8402 26.8487 45.9497 26.7371 46.0045C26.6813 46.0045 26.5697 46.0045 26.4022 45.9497ZM26.458 49.6739C26.458 49.6739 26.2906 49.6739 26.1232 49.6739C26.1232 49.5096 26.1232 49.4001 26.179 49.2905C26.179 49.2358 26.4022 49.2905 26.458 49.3453C26.5139 49.4548 26.5139 49.5644 26.458 49.6739ZM27.0161 49.4001C27.1277 49.3453 27.0719 49.0715 27.1835 48.9619C27.2393 48.8524 27.351 48.6333 27.4068 48.6333C27.5742 48.6881 27.7416 48.7976 27.7974 48.9072C27.909 49.2905 28.0206 49.6739 28.1322 50.112C28.2439 50.4406 28.3555 50.824 28.4113 51.1526C28.4113 51.3169 28.4113 51.5907 28.2997 51.7003C28.1322 51.8646 27.909 51.755 27.7974 51.536C27.7974 51.4812 27.7416 51.4264 27.6858 51.4264C26.9045 51.3717 26.9603 50.7145 26.7929 50.2216C26.7371 49.893 26.7371 49.6191 27.0161 49.4001ZM32.3177 39.8158C32.3177 39.7063 32.4851 39.542 32.541 39.4325C32.6526 39.4872 32.7642 39.542 32.82 39.6515C32.8758 39.6515 32.9874 39.6515 33.0432 39.6515C33.0432 39.8158 32.9874 39.9801 32.9874 40.254C32.8758 40.254 32.82 40.254 32.7642 40.254C32.7642 40.254 32.7642 40.3087 32.7084 40.3087C32.7084 40.254 32.6526 40.254 32.6526 40.254C32.541 40.254 32.4293 40.254 32.3177 40.254C32.3735 40.1444 32.3735 40.0897 32.4293 39.9801C32.3177 39.9254 32.3177 39.8706 32.3177 39.8158ZM32.0387 43.9781C32.1503 44.0329 32.2619 44.0877 32.3735 44.1424C32.7642 44.3067 32.9316 44.6353 32.7642 45.0187C32.5968 45.3473 31.9829 45.5116 31.7039 45.4021C31.5922 45.4021 31.4806 45.4021 31.3132 45.4021C31.3132 45.3473 31.369 45.2925 31.369 45.2378C31.3132 45.2378 31.2574 45.183 31.2016 45.183C31.1458 45.3473 31.1458 45.5664 31.09 45.7307C31.09 45.8402 31.1458 46.0045 31.09 46.114C31.0342 46.2236 30.7551 46.3331 30.7551 46.3331C30.2529 45.7307 29.6948 46.114 29.1926 46.2236C28.9135 46.2783 28.6903 46.3331 28.4113 46.2783C28.188 46.2236 28.0206 46.0593 27.7416 45.895C27.7974 45.7854 27.7974 45.6759 27.8532 45.5664C27.5184 45.183 27.9648 45.0187 28.1322 44.8544C28.2439 44.7449 28.3555 44.6353 28.4671 44.6353C28.5229 44.6353 28.6345 44.6353 28.7461 44.6353C28.8019 44.5806 28.8577 44.5258 28.9693 44.471C29.0251 44.4163 29.1368 44.4163 29.1926 44.4163C29.5274 44.5806 29.918 44.7449 30.2529 44.9092C30.6435 45.1282 30.811 45.0187 30.811 44.5806C30.811 44.3067 30.6993 43.9781 31.09 43.8138C31.5364 43.54 31.5922 43.54 32.0387 43.9781ZM28.5787 37.1323C28.4671 37.0775 28.2997 36.968 28.1881 36.8584C28.1322 36.7489 28.1322 36.6394 28.0206 36.4203C28.0206 36.3655 27.9648 36.256 27.9648 36.0917C27.9648 35.9822 28.0764 35.8726 28.1322 35.8726C28.2439 35.8726 28.4113 35.8726 28.4671 35.9822C28.5787 36.2012 28.7461 36.4203 28.8019 36.6941C28.8019 36.8584 28.6345 37.0227 28.5787 37.1323ZM28.6345 40.9112C28.6345 40.9112 28.4671 40.9112 28.4113 40.9112C28.3555 40.8564 28.3555 40.7469 28.2997 40.5826C28.4671 40.6373 28.6345 40.6373 28.6345 40.6921C28.6903 40.6921 28.6345 40.8017 28.6345 40.9112ZM30.4203 42.0065C30.5319 42.0065 30.6435 42.1161 30.7551 42.2256C30.6993 42.3351 30.6435 42.4994 30.5319 42.5542C30.4203 42.5542 30.3087 42.4447 30.0855 42.3899C30.2529 42.1708 30.3087 42.0065 30.4203 42.0065ZM30.2529 40.3087C30.3645 40.1444 30.4203 39.9801 30.5319 39.9254C30.6435 39.9254 30.811 40.0349 30.8668 40.0897C30.9226 40.1992 30.811 40.3635 30.6993 40.4183C30.5877 40.473 30.4203 40.3635 30.2529 40.3087ZM28.8577 32.6414L28.9135 32.6961C28.8019 32.97 28.6345 33.2986 28.4671 33.5724C28.4113 33.6819 28.1881 33.7367 28.1881 33.7367C28.0206 33.5724 27.909 33.4081 27.7416 33.189C27.7974 33.0247 27.8532 32.6961 27.9648 32.6961C28.2439 32.5866 28.5229 32.6414 28.8577 32.6414ZM27.63 29.684C27.909 29.7387 28.1322 29.684 28.2439 29.7935C28.5787 30.1221 28.2439 30.2864 28.0206 30.5055C27.8532 30.6698 27.5742 30.9436 27.4068 30.615C27.2951 30.3959 27.5184 30.0673 27.63 29.684ZM26.6255 32.5866C26.6255 32.5866 26.6813 32.4771 26.7371 32.4771C26.9603 32.5866 27.2393 32.6414 27.4068 32.8057C27.5184 32.9152 27.5742 33.189 27.5184 33.3533C27.2951 33.901 27.2951 33.901 27.9648 33.9558C28.3555 34.0105 28.7461 34.0105 29.081 34.1201C29.4158 34.2844 29.7506 34.5582 29.6948 34.9964C29.639 35.325 29.7506 35.3797 30.0855 35.3797C30.4761 35.3797 31.0342 35.7631 31.0342 36.1465C31.0342 36.3108 30.8668 36.4751 30.811 36.6941C30.4761 36.968 30.1413 36.968 29.8622 36.6941C29.6948 36.5298 29.5274 36.4203 29.36 36.3108C28.9693 35.9822 28.1322 35.7083 27.5742 35.7631C27.2951 35.8179 27.0719 35.7083 27.1835 35.4345C27.4068 34.832 27.1277 34.3939 26.7929 34.0105C26.4022 33.5724 26.7929 33.0795 26.6255 32.5866ZM26.179 33.0795C26.2906 33.0795 26.5139 33.2438 26.5139 33.3533C26.5139 33.4629 26.3464 33.7367 26.2906 33.7367C26.1232 33.7367 25.9558 33.6272 25.621 33.4629C25.9 33.2438 26.0116 33.0795 26.179 33.0795ZM25.3977 37.8442C25.2861 37.8442 25.0629 37.899 24.8955 37.7895C24.6722 37.6799 24.8955 37.1323 25.2303 36.968C25.3419 36.9132 25.6768 36.9132 25.7326 37.0227C26.0116 37.3513 25.7326 37.5704 25.3977 37.8442ZM24.8955 33.0795C25.0629 32.97 25.1745 32.8604 25.2303 32.8604C25.3419 32.8604 25.3977 32.8604 25.5093 32.8604C25.5093 32.97 25.5093 33.0795 25.4535 33.1343C25.3977 33.2438 25.3419 33.2986 25.2303 33.3533C25.0629 33.4629 24.8397 33.5176 24.6164 33.5724C24.7839 33.4081 24.8397 33.189 24.8955 33.0795ZM24.3932 36.8584C24.5048 36.8584 24.6164 36.968 24.728 37.0227C24.6722 37.1323 24.6164 37.2966 24.5606 37.3513C24.449 37.4061 24.3374 37.2966 24.1142 37.2418C24.2258 37.0227 24.2816 36.8584 24.3932 36.8584ZM24.0584 38.3919C24.17 38.3919 24.2816 38.4467 24.3932 38.5014C24.3374 38.5562 24.2816 38.6657 24.2258 38.7205C24.17 38.7753 24.0584 38.7205 23.891 38.6657C23.9468 38.5014 24.0026 38.3919 24.0584 38.3919ZM22.998 34.0105C23.1655 34.1748 23.3887 34.3391 23.6119 34.5034C23.4445 34.7773 23.3887 35.0511 23.2771 35.1059C22.998 35.2154 22.7748 35.0511 22.7748 34.7225C22.7748 34.5034 22.8864 34.2296 22.998 34.0105ZM20.8774 38.9943C21.3797 38.5562 21.8261 38.1728 22.3284 37.7895C22.5516 37.5704 22.7748 37.6799 22.9422 37.899C23.2213 38.2276 23.4445 38.5014 23.7235 38.83C23.7235 38.83 23.7793 38.83 23.7793 38.7753C24.0026 39.0491 24.2816 39.3229 24.5048 39.5968C24.6722 39.7611 24.728 39.9254 24.6164 40.254C24.3932 40.9112 24.7839 41.3493 25.4535 41.185C25.7884 41.1303 25.9558 41.2398 25.8442 41.5684C25.7326 42.2256 26.1232 42.7185 26.7371 42.7185C27.1835 42.7185 27.1277 42.8828 26.9603 43.1566C26.7929 43.4852 26.5139 43.7591 26.6255 44.252C26.7371 44.6353 25.9 45.0735 25.4535 44.9639C25.2303 44.9092 24.6722 44.1972 24.5606 44.0329C24.1142 43.3209 24.3374 42.3899 23.6119 41.7875C23.3329 41.5684 23.1097 41.4041 22.7748 41.6232C22.6074 41.7327 22.44 41.7875 22.2726 41.7875C22.1609 41.7875 21.9935 41.5684 21.9935 41.5684C22.2168 41.1302 21.8819 40.4183 22.5516 40.1444C22.6074 40.0897 22.6074 39.8706 22.5516 39.7611C22.5516 39.7063 22.3284 39.6515 22.2168 39.6515C22.0493 39.6515 21.9377 39.7611 21.7703 39.8158C21.4355 39.9254 20.8216 39.6515 20.7658 39.3229C20.7658 39.2134 20.7658 39.0491 20.8774 38.9943ZM24.6722 47.3189C24.17 47.4284 24.0584 47.3737 23.891 46.7712C23.8351 46.6617 23.8351 46.5522 23.8351 46.5522C23.7793 46.3879 23.7793 46.3331 23.7793 46.2236C23.7235 45.9497 23.5561 45.6211 23.9468 45.5116C24.2816 45.4021 24.6722 45.3473 24.8955 45.7307C25.0071 45.9497 25.1187 46.1688 25.1745 46.4426C25.2861 47.0998 25.1745 47.2094 24.6722 47.3189ZM19.3148 39.7063C19.4822 39.542 19.538 39.4325 19.5939 39.3229C19.7055 39.4325 19.8729 39.4872 19.9287 39.5968C19.9845 39.6515 19.8171 39.9254 19.7613 39.9254C19.6497 39.9254 19.538 39.7611 19.3148 39.7063ZM19.0916 53.5624C19.1474 53.3981 19.4264 53.2885 19.6497 53.1242C19.8171 53.179 20.1519 53.179 20.1519 53.2885C20.2635 53.5624 20.2635 53.891 20.2635 54.1648C20.1519 54.1648 19.9845 54.2196 19.8729 54.2196C19.7613 54.1648 19.6497 54.0005 19.538 53.9457C19.3706 53.8362 18.98 53.9457 19.0916 53.5624ZM20.4309 54.3291C20.4868 54.4386 20.4309 54.6029 20.3751 54.7125C20.3193 54.7672 20.1519 54.7125 19.9287 54.7672C19.9845 54.5482 19.9845 54.3839 20.0403 54.3291C20.1519 54.2743 20.3751 54.3291 20.4309 54.3291ZM18.2545 46.6069C18.4777 46.9355 18.2545 47.0998 18.0313 47.2642C17.9755 47.3189 17.8639 47.3737 17.808 47.3737C17.9197 47.4832 17.9755 47.5927 18.0313 47.7023C18.1429 47.9761 18.1987 48.3047 18.2545 48.5786C18.2545 48.6881 18.1429 48.8524 18.0313 49.0715C17.6406 48.8524 17.3058 48.6881 17.0268 48.469C16.8593 48.3047 16.9709 48.0857 17.1384 47.9761C17.1942 47.9214 17.3058 47.8118 17.3058 47.7571C17.3616 47.7023 17.3616 47.5928 17.4174 47.538C17.1942 47.538 16.9151 47.4285 16.7477 47.2094C16.5803 46.9903 16.6361 46.826 16.9709 46.4974C17.529 46.0593 17.8639 46.114 18.2545 46.6069ZM13.79 46.4426C13.7342 46.2783 14.0132 46.0593 14.1248 45.8402C14.4597 45.9497 14.7945 45.9497 14.8503 46.114C15.0177 46.4426 14.6271 46.4974 14.4038 46.5522C14.2364 46.6069 13.9016 46.7712 13.79 46.4426ZM13.9574 48.3047C13.9574 48.4143 13.9016 48.469 13.8458 48.5238C13.8458 48.5238 13.7342 48.469 13.6226 48.4143C13.7342 48.3047 13.7342 48.25 13.8458 48.1952C13.8458 48.1952 14.0132 48.3047 13.9574 48.3047ZM13.1203 42.4994C13.0645 42.4447 13.0087 42.3899 13.0087 42.3351C13.1203 42.1161 13.2319 41.8422 13.3993 41.6232C13.5668 41.4041 13.79 41.3493 14.0132 41.5684C14.1806 41.7875 14.1806 42.0065 13.9574 42.1708C13.6226 42.3351 13.3435 42.3899 13.1203 42.4994ZM14.6271 49.2905C14.6271 49.181 14.7387 49.1262 14.7945 49.0167C14.9619 48.7429 14.5155 48.3595 15.0177 48.1952C15.2968 48.1404 15.6316 48.1952 15.9106 48.1952C16.1897 48.1952 16.4129 48.4143 16.2455 48.6333C15.9664 49.0167 16.2455 49.2358 16.4129 49.5644C16.5245 49.7287 16.6361 50.0573 16.5803 50.1668C16.4129 50.4406 16.1897 50.3311 15.9106 50.2216C15.6316 50.0573 15.2968 50.0025 14.9619 49.893C14.8503 49.8382 14.7387 49.7287 14.5713 49.6739C14.6271 49.5644 14.5713 49.4001 14.6271 49.2905ZM15.6874 45.9497C15.799 45.8402 15.8548 45.7307 15.9106 45.6211C15.9664 45.6759 16.1339 45.7307 16.1339 45.7854C16.1339 45.895 16.078 46.0045 16.0222 46.0593C15.9106 46.0593 15.799 46.0045 15.6874 45.9497ZM16.6361 51.0431C16.9709 51.0431 17.3616 51.0978 17.6964 51.1526C17.7522 51.1526 17.808 51.2074 17.9197 51.3169C17.9197 51.4264 17.9755 51.5907 17.9197 51.6455C17.8639 51.755 17.6964 51.8646 17.529 51.8646C17.1942 51.8646 16.8593 51.8098 16.5245 51.7003C16.4129 51.6455 16.3013 51.4264 16.2455 51.2621C16.3013 51.2621 16.5245 51.0431 16.6361 51.0431ZM15.9664 43.0471C16.1897 43.2114 16.3013 43.3757 16.1897 43.6495C16.0222 44.0329 16.1897 44.1424 16.5803 44.1972C17.0826 44.252 17.1384 44.4163 16.8035 44.7996C16.5803 45.0735 16.3013 45.2378 16.0222 45.4021C15.9106 45.4568 15.6874 45.4021 15.52 45.2925C15.1851 45.0735 14.9061 44.7996 14.6271 44.5258C14.0132 43.9234 14.0132 43.5948 14.6271 43.0471C15.0735 42.6637 15.52 42.6637 15.9664 43.0471ZM12.7297 41.0207C13.2319 40.9112 13.6784 40.8564 14.1806 40.8016C14.2922 40.8016 14.348 40.8564 14.4597 40.9112C14.4038 41.0207 14.348 41.1303 14.2922 41.185C13.8458 41.3493 13.3435 41.5136 12.7297 41.6779C12.6738 41.6232 12.5064 41.5136 12.4506 41.4041C12.4506 41.2398 12.618 41.0207 12.7297 41.0207ZM12.5622 45.2378C12.7297 45.183 12.9529 45.2378 13.1761 45.2925C13.2877 45.3473 13.4551 45.4021 13.6226 45.4021C13.5668 45.5664 13.5109 45.7307 13.4551 45.895C13.4551 45.9497 13.3435 46.0045 13.1761 46.1688C13.1203 46.1688 12.7855 46.3879 12.6738 46.3331C12.4506 46.114 12.339 45.8402 12.1716 45.5664C12.1716 45.4568 12.3948 45.2378 12.5622 45.2378ZM13.2319 55.2054C13.1203 55.0958 12.9529 54.9863 12.8413 54.9315C12.7297 54.822 12.5622 54.7125 12.5622 54.6577C12.5622 54.5482 12.7297 54.4386 12.8413 54.3291C13.0087 54.2196 13.1761 54.2196 13.2877 54.1648C14.069 54.0005 14.4038 54.1648 14.5713 54.7125C14.6271 54.822 14.6271 54.9863 14.5713 55.0958C14.348 55.3149 13.4551 55.4244 13.2319 55.2054ZM15.52 57.6151C15.4642 57.6699 15.4084 57.8342 15.4084 57.9437C15.2409 58.3271 15.0177 58.3818 14.6829 58.1628C14.5155 58.0532 14.348 57.9985 14.2364 57.8889C14.069 57.7794 13.8458 57.6151 13.9016 57.5056C13.9016 57.3413 14.1248 57.2317 14.2364 57.1222C14.348 57.0127 14.5155 57.0127 14.6829 56.9579C14.7945 56.9579 14.9061 56.9031 15.0735 56.9031C15.2968 56.9579 15.6316 56.9031 15.7432 57.0674C15.9106 57.2865 15.6874 57.4508 15.52 57.6151ZM16.5803 54.6577C16.3013 54.6577 16.1339 54.7125 15.9664 54.6577C15.8548 54.6029 15.9106 54.3839 15.8548 54.2196C16.3013 54.1648 16.0222 53.2337 16.6919 53.5076C16.8593 53.5624 16.9709 54.0005 16.9709 54.2743C16.9709 54.3839 16.6919 54.4934 16.5803 54.6577ZM18.7568 60.0796C18.1429 60.1892 17.8639 60.0248 17.6964 59.4772C17.5848 59.039 17.6964 58.9295 18.3103 58.7652C18.5893 58.7104 18.9242 58.6009 19.0358 59.0938C19.2032 59.751 19.0916 59.9701 18.7568 60.0796ZM22.3842 60.463C22.0493 60.6273 21.7145 60.7916 21.2122 60.5178C20.8774 60.3535 20.6542 60.1344 20.4868 59.8605C20.431 59.9701 20.3193 60.0249 20.2077 60.0796C20.0961 60.1892 19.9845 60.2987 19.8729 60.3535C19.8729 60.4082 19.9287 60.463 19.9287 60.5178C19.9287 60.6273 19.9845 60.7368 19.9287 60.7916C19.9287 60.8464 19.8171 60.9011 19.7613 61.0107C19.6497 60.8464 19.538 60.6821 19.4822 60.5178C19.4264 60.3535 19.538 60.1892 19.538 60.0248C19.538 59.8605 19.5939 59.6963 19.6497 59.5319C19.9287 59.5319 20.2077 59.4772 20.3751 59.5319C20.3193 59.3676 20.3193 59.1486 20.3193 58.9843C20.3751 58.3818 21.3239 57.7794 21.8819 58.0532C21.9935 58.108 22.0493 58.2175 22.1051 58.3271C22.2168 58.6009 22.2726 58.9295 22.3284 59.2033C22.3284 59.2033 22.3284 59.2033 22.2726 59.2033C22.3284 59.3676 22.3842 59.5319 22.3842 59.6962C22.4958 59.9701 22.719 60.2987 22.3842 60.463ZM22.2168 57.2865C22.161 57.177 22.161 57.0127 22.2168 56.9031C22.2168 56.8484 22.4958 56.8484 22.5516 56.9031C22.6074 57.0127 22.6074 57.177 22.6632 57.396C22.44 57.2865 22.2726 57.3413 22.2168 57.2865ZM24.3932 60.5178C24.2258 60.463 24.0584 60.4082 23.9468 60.3535C23.8351 60.2987 23.7793 60.2439 23.6677 60.1892C23.1097 59.9701 23.0539 59.9153 23.3329 59.5319C23.2771 59.4224 23.2771 59.2033 23.3329 59.039C23.3329 58.9843 23.3329 58.9295 23.3329 58.9295C23.1655 58.8747 22.9422 58.7104 22.8864 58.5461C22.7748 58.3271 22.6632 57.8889 22.7748 57.7794C22.998 57.5603 23.3329 57.4508 23.6677 57.4508C23.7793 57.4508 24.0026 57.7246 24.0584 57.8889C24.1142 57.9985 24.1142 58.1628 24.1142 58.3271C24.3932 58.3271 24.6722 58.108 24.9513 58.0532C25.0629 58.0532 25.1745 58.0532 25.2861 58.108C25.2861 58.2175 25.2861 58.3271 25.2303 58.3818C25.0071 58.7652 24.8397 59.2033 24.5048 59.4772C24.449 59.4772 24.449 59.5319 24.3932 59.5319C24.449 59.6963 24.5048 59.8605 24.5048 60.0248C24.5606 60.1892 24.449 60.4082 24.3932 60.5178ZM24.728 57.5056C24.728 57.396 24.8955 57.2317 25.0629 57.177C25.6768 56.9031 25.9 57.0127 26.0674 57.8342C26.0674 57.8889 26.0674 58.1628 25.9558 58.2723C25.7326 58.4914 25.5651 58.2723 25.3977 58.108C25.3419 57.9985 25.1745 58.0532 25.0629 57.9437C24.8955 57.7794 24.728 57.6151 24.728 57.5056ZM25.6768 62.9275C25.5651 62.9275 25.4535 62.6537 25.3419 62.5441C25.2861 62.4894 25.2861 62.3798 25.2303 62.1608C25.2303 62.106 25.2861 61.8322 25.3977 61.7774C25.7326 61.6679 25.8442 61.8869 25.9 62.1608C25.9 62.2155 25.9 62.3251 25.9558 62.3798C25.9 62.5989 26.0116 62.8727 25.6768 62.9275ZM26.0674 60.4082C25.9558 60.6273 25.7326 60.7368 25.621 60.9011C25.5093 61.0107 25.4535 61.0654 25.3419 61.1202C25.1745 61.175 24.9513 61.175 24.7839 61.2297C24.7839 61.0654 24.728 60.7916 24.8397 60.6821C25.1187 60.4082 25.3977 60.1892 25.7326 59.9701C25.8442 59.9153 26.0674 59.9701 26.1232 60.0248C26.179 60.0796 26.1232 60.2987 26.0674 60.4082ZM27.8532 63.3109C27.4626 63.5847 27.2951 63.5299 26.9603 63.0918C26.6813 62.7084 26.6813 62.5441 27.1277 62.2155C27.63 61.8322 27.8532 61.8869 28.2439 62.3798C28.5229 62.7084 28.4113 62.9275 27.8532 63.3109ZM27.63 60.5178C28.0206 60.4082 28.188 60.5725 28.2997 61.1202C28.4113 61.5583 28.2997 61.7226 27.6858 61.8869C27.1277 61.9965 27.0161 61.9417 26.9045 61.4488C26.8487 60.9011 27.0161 60.6273 27.63 60.5178ZM31.9271 60.6273C31.5364 60.9559 31.1458 61.2297 30.7551 61.5583C30.7551 61.6131 30.7551 61.6679 30.6993 61.6679C30.6435 61.6679 30.5877 61.7226 30.5319 61.6679C30.5319 61.6679 30.5319 61.6679 30.4761 61.6679C30.2529 61.8322 29.9739 61.9965 29.7506 61.6131C29.5832 61.2845 29.5832 61.0107 29.6948 60.8464C29.639 60.6821 29.639 60.5178 29.5832 60.3535C29.6948 60.463 29.8622 60.5178 29.9739 60.6273C30.2529 60.463 30.5877 60.4082 30.7551 60.2987C31.1458 60.2439 31.369 60.1344 31.6481 60.1344C31.7597 60.1344 31.8713 60.2439 31.9271 60.3535C32.0387 60.4082 31.9829 60.5725 31.9271 60.6273ZM34.55 60.7368C34.3268 60.7916 33.9919 61.0107 33.7687 60.8464C33.7129 60.9011 33.6013 60.9559 33.5455 61.0107C33.4339 61.0654 33.2106 60.9559 33.099 60.8464C32.7084 60.463 32.3735 60.0249 32.0387 59.6415C31.7597 59.3129 31.5364 59.039 31.2574 58.7104C31.09 58.5461 30.9784 58.3818 30.7551 58.3271C30.5319 58.3818 30.3087 58.5461 30.3087 58.9295C30.3087 58.9843 30.0855 59.0938 29.9181 59.1486C29.5274 59.2581 29.1368 59.3676 28.8019 59.4224C28.5787 59.4772 28.3555 59.5319 28.1322 59.5867C27.351 59.751 27.2951 59.6962 27.0161 58.9295C26.6813 58.0532 27.2951 57.6151 27.7416 57.1222C27.9648 56.8484 28.3555 56.7936 28.4671 56.3555C28.4671 56.3555 28.4671 56.3555 28.4671 56.3007C28.2997 56.1912 28.188 56.0269 28.0764 55.8626C27.9648 55.6983 27.7974 55.534 27.6858 55.3697C27.5184 55.2054 27.4626 55.0411 27.5184 54.822C26.6813 54.3291 25.9558 54.9863 25.1745 55.0411C25.0629 55.0411 24.9513 55.2054 24.8955 55.3697C24.6722 55.8626 24.1142 56.0816 23.6677 55.6983C23.4445 55.4792 23.2213 55.4792 22.9422 55.534C22.6632 55.5887 22.3284 55.6983 22.0493 55.753C21.9377 55.753 21.7145 55.8078 21.6587 55.753C21.268 55.2601 21.1006 55.5887 20.7658 55.8626C19.9845 56.4102 19.0358 56.7388 18.0313 56.7388C17.6406 56.7388 17.3058 56.3555 16.9709 56.1364C16.9151 56.1364 17.0268 55.8078 17.0826 55.753C17.3616 55.5887 17.6406 55.4792 17.9197 55.4244C18.3661 55.3149 18.8126 55.3149 19.2032 55.1506C20.2077 54.8768 21.2122 54.5482 22.2168 54.3291C22.998 54.11 23.7793 54.0005 24.6164 53.891C24.728 53.891 24.8955 53.891 25.0629 53.9457C25.7326 54.2196 26.0116 54.0553 26.5139 53.5624C26.5697 53.5076 26.6255 53.4528 26.7371 53.398C26.6813 53.2337 26.5139 53.179 26.179 53.179C25.7884 53.179 25.5651 52.9599 25.5093 52.7408C25.4535 52.5765 25.4535 52.4122 25.3977 52.2479C24.8397 52.4122 24.3374 52.5218 23.7793 52.6313C23.5003 52.6861 22.998 51.9193 23.1655 51.6455C23.3329 51.3717 23.5561 51.1526 23.8351 50.8788C23.6677 50.7145 23.5561 50.5502 23.6677 50.2216C23.8351 49.7287 23.3887 49.2358 22.8864 49.2905C22.4958 49.3453 22.3284 49.181 22.161 48.9619C21.8819 48.6333 21.6029 48.3047 21.3239 47.9761H21.268C20.989 47.9761 20.71 47.7571 20.8774 47.5928C20.9332 47.538 20.9332 47.4832 20.989 47.4284C20.9332 47.3189 20.989 47.1546 21.1006 46.9355C21.1564 46.8808 21.0448 46.6617 20.9332 46.5522C20.7658 46.3331 20.5426 46.114 20.3751 45.895C20.0403 45.4568 20.0403 45.3473 20.4868 44.9092C20.5984 44.8544 20.71 44.8544 20.8216 44.7996C20.71 44.7996 20.5984 44.8544 20.4868 44.8544C20.2077 44.9092 20.0961 44.7996 20.0403 44.6353C19.9845 44.6901 19.9287 44.6901 19.8729 44.7449C19.5939 44.9092 19.3706 44.7996 19.3148 44.5258C19.1474 44.1972 19.4822 44.0877 19.7055 43.9781C19.9287 43.8686 20.0961 43.5948 20.3751 43.7591C20.4868 43.6495 20.6542 43.5948 20.8774 43.5948C20.8774 43.5948 21.0448 43.6495 21.1564 43.7043C21.268 43.7591 21.268 43.8686 21.3797 43.9234C21.6029 44.0329 21.9935 43.9234 21.9377 44.3067C21.8819 44.471 21.5471 44.6353 21.3239 44.7449C21.268 44.7996 21.1564 44.7996 21.1006 44.7996C21.1564 44.7996 21.2122 44.7996 21.268 44.7996C21.5471 44.8544 21.8819 45.6211 21.7703 45.895C21.6029 46.3331 21.7145 46.4426 22.1051 46.3879C22.2726 46.3331 22.44 46.3879 22.5516 46.4426C22.7748 46.4974 22.9422 46.6069 23.1655 46.7165C23.3887 46.7712 23.4445 47.0451 23.3329 47.2642C23.7235 47.7023 24.1142 48.1952 24.5048 48.6333C24.728 48.9072 24.9513 49.1262 24.8955 49.5644C24.8397 49.7834 25.0071 50.0025 25.1187 50.2216C25.2303 50.4406 25.3419 50.6597 25.1745 50.8788C25.5651 50.9883 25.9 51.2074 26.2348 51.4264C26.6813 51.4812 27.1277 51.4264 27.351 51.9741C27.4068 52.1384 27.5184 52.2479 27.5184 52.4122C27.5742 52.6861 27.5742 52.9051 27.6858 53.1242C28.0764 53.0147 28.5229 53.0147 28.9135 52.9599C28.9693 52.9599 29.0251 52.9599 29.1368 52.9051C28.9693 52.6861 28.7461 52.4122 29.0251 52.1932C29.1368 52.0836 29.5274 52.3027 29.7506 52.4122C29.8622 52.6861 30.0297 52.9051 29.8064 53.0694C29.9181 53.1242 30.1413 53.0694 30.1971 53.0147C30.4761 52.3027 31.2016 52.3027 31.7597 52.1384C32.541 51.8646 33.3781 51.8098 34.2151 51.5907C34.4942 51.536 34.7732 51.3717 35.1081 51.2621C36.3358 50.9883 37.6193 50.7145 38.8471 50.4406C39.7958 50.2216 40.7445 49.9477 41.5816 49.7834C41.5258 49.7287 41.5816 49.5644 41.5816 49.4548C41.6932 49.4548 41.8606 49.5096 42.0839 49.5096C42.0839 49.5644 42.0839 49.6191 42.0281 49.6739C42.5861 49.5096 43.0326 49.3453 43.4232 49.2358C43.9255 49.0715 44.7068 49.2358 44.9858 49.6739C45.0416 49.7287 44.9858 50.0025 44.93 50.0573C44.7068 50.2216 44.4277 50.3311 44.2045 50.4406C43.8697 50.6049 43.5348 50.6049 43.4232 51.0978C43.3674 51.4264 42.4187 51.5907 42.1955 51.3717C41.9164 51.0978 41.6374 51.1526 41.3584 51.2074C41.0793 51.2621 40.9119 51.2621 40.6887 50.9883C40.2981 50.6049 39.6284 50.7692 39.3493 51.2621C39.2377 51.4264 39.0703 51.6455 38.9029 51.755C38.5122 51.9193 38.3448 52.1384 38.2332 52.5218C37.9542 52.4122 37.6193 52.2479 37.3403 52.2479C36.7264 52.3027 36.1684 52.5218 35.6103 52.6861C35.4987 52.7408 35.3313 52.7956 35.3313 52.9051C35.2197 53.3433 34.9406 53.4528 34.6616 53.5624C34.6058 53.5624 34.6058 53.6171 34.55 53.6719C34.271 54.0005 33.8803 54.2743 33.3222 53.891C33.1548 53.7814 32.9316 53.8362 32.7084 53.7814C32.7642 53.6719 32.82 53.5076 32.9316 53.398C32.6526 53.398 32.3177 53.5076 32.0387 53.5624C31.7039 53.6171 31.3132 53.7267 30.9784 53.8362C30.5877 53.9457 30.1971 53.9457 30.1413 54.4934C30.1413 54.6029 29.9181 54.7125 29.8064 54.7672C30.0297 54.9863 30.2529 55.2601 30.1971 55.4792C29.9739 56.1364 30.4203 56.4102 30.7551 56.7388C31.0342 57.0127 31.369 57.2865 31.6481 57.5603C31.9271 57.8342 32.0945 58.0532 32.541 58.108C32.541 58.108 32.541 58.108 32.5968 58.108C32.541 57.8342 32.4851 57.5603 32.82 57.396C32.9316 57.3413 33.0432 57.0674 32.9874 57.0127C32.8758 56.9031 32.7084 56.7936 32.541 56.7936C32.2061 56.7936 31.8155 56.8484 31.4806 56.9031C31.0342 57.0127 30.9226 56.7936 30.811 56.465C30.6993 56.1364 30.6993 55.8626 31.1458 55.753C31.369 55.6983 31.5922 55.5887 31.7039 55.5887C31.9829 55.534 32.0945 55.4792 32.2619 55.4792C33.2106 55.3697 33.3222 55.4792 33.5455 56.3555C33.7129 57.0674 33.7129 57.0674 34.4942 56.9579C34.7174 56.9579 34.9406 56.9031 34.9406 57.177C34.9406 57.2865 34.7732 57.4508 34.6058 57.5056C34.3826 57.6151 34.1593 57.6151 33.9361 57.6699C33.6571 57.7794 33.3222 57.7794 33.2664 58.2175C33.2664 58.2723 33.2106 58.3271 33.1548 58.3818C33.2664 58.6009 33.3222 58.8747 33.2106 59.1486C33.099 59.5319 33.2106 59.6415 33.6013 59.6415C33.6571 59.6415 33.7129 59.6415 33.7129 59.6415C33.8245 59.5867 33.9361 59.5319 33.9361 59.5319C34.829 59.3129 34.9406 59.3129 35.0522 59.9701C34.7732 60.2987 34.9964 60.6273 34.55 60.7368ZM21.5471 51.0978C21.7703 51.1526 21.9377 51.1526 21.9935 51.2074C22.0493 51.2621 21.9935 51.4264 21.9935 51.536C21.8819 51.536 21.7703 51.536 21.7145 51.4812C21.6587 51.4812 21.6587 51.3169 21.5471 51.0978ZM23.1655 53.7814C23.2771 53.5076 23.2771 53.2885 23.3887 53.2337C23.5003 53.179 23.7235 53.2337 23.8351 53.2337C23.8351 53.3981 23.8351 53.6171 23.7793 53.6719C23.7235 53.7267 23.5003 53.7267 23.1655 53.7814ZM40.4655 48.469C40.6329 48.5786 40.8003 48.5786 40.8561 48.6881C40.9119 48.7429 40.8561 48.8524 40.8561 48.9619C40.7445 48.9072 40.6329 48.9072 40.5213 48.8524C40.4655 48.7976 40.4655 48.6881 40.4655 48.469ZM41.3026 47.2642C41.5258 47.3189 41.6374 47.538 41.9164 47.7571C41.749 48.0309 41.6932 48.25 41.5258 48.3595C41.3026 48.469 41.1352 48.3047 41.0793 48.0857C40.9677 47.7023 41.0793 47.2094 41.3026 47.2642ZM43.9813 52.0289C43.9813 52.1932 43.9813 52.4122 43.9255 52.5218C43.8139 52.6313 43.6464 52.5765 43.3116 52.6313C43.4232 52.3575 43.4232 52.1384 43.5348 52.0289C43.5906 51.9741 43.8139 52.0289 43.9813 52.0289ZM35.3313 56.7388C35.2197 56.4102 35.1081 56.0816 34.9406 55.8078C34.7174 55.4244 34.55 55.4792 34.3268 55.8626C34.2152 56.0269 34.1035 56.1364 33.9919 56.2459C33.8803 56.0816 33.7129 55.9721 33.6013 55.8078C33.3222 55.0958 33.4339 54.9863 34.1593 54.822C34.3826 54.7672 34.6058 54.7125 34.829 54.6577C34.7174 54.4934 34.7174 54.2743 34.829 54.0553C34.9964 53.6171 35.3871 53.5076 35.8335 53.6171C35.9451 53.6719 36.1126 53.6171 36.2242 53.6719C36.3916 53.7267 36.6706 53.7267 36.7264 53.891C36.7822 54.0005 36.6706 54.2743 36.559 54.4386C36.5032 54.5482 36.3916 54.6029 36.28 54.7125C36.2242 54.7672 36.1684 54.7672 36.1126 54.822C36.1126 54.8768 36.1684 54.9863 36.1684 55.0411C36.2242 55.2601 36.28 55.4244 36.3358 55.6435C36.3916 55.8626 36.4474 56.0269 36.5032 56.2459C36.6706 56.8484 36.5032 57.0127 35.8893 57.0674C35.5545 57.177 35.3871 57.0127 35.3313 56.7388ZM36.3916 60.4082C36.3358 60.6821 36.3358 61.0107 36.28 61.2845C36.28 61.394 36.2242 61.4488 36.1684 61.5583C36.0568 61.5036 35.8893 61.5036 35.8893 61.394C35.7219 61.0654 35.3313 60.7916 35.8335 60.4082C35.9451 60.3535 35.9451 60.0796 35.9451 59.9153C35.9451 59.751 35.8893 59.6415 35.8893 59.4772C35.8335 59.2033 35.9451 58.9843 36.2242 58.9843C36.3916 58.9843 36.559 59.2033 36.7822 59.3676C36.6148 59.8058 36.5032 60.0796 36.3916 60.4082ZM42.921 61.9965C42.4745 62.3798 42.0839 62.7084 41.6374 63.037C41.5258 63.0918 41.3026 63.0918 41.1352 63.0918C41.1352 63.037 41.1352 62.9823 41.1352 62.9823C41.0235 63.037 40.8561 63.0918 40.6329 63.1466C40.5771 63.1466 40.4097 63.0918 40.1864 62.9823C40.019 62.9275 39.9074 62.818 39.74 62.7632C39.3493 62.6537 39.4052 62.4894 39.6842 62.3251C39.74 62.2703 39.7958 62.2703 39.8516 62.2155C40.019 61.9965 40.5771 61.8869 40.8561 61.8869C41.1352 61.8869 41.3026 61.9965 41.3584 62.1608C41.3584 61.8869 41.3584 61.5583 41.3584 61.2845C41.3584 60.9559 41.47 60.7916 41.8048 60.8464C42.1955 60.9011 42.7535 60.6273 42.921 61.175C43.3674 61.5583 43.3674 61.6131 42.921 61.9965ZM39.74 59.5319C40.2422 59.0938 40.4097 59.0938 40.8003 59.5319C41.0793 59.8605 41.0235 60.0796 40.7445 60.2987C40.2981 60.6273 39.8516 60.5725 39.5168 60.1344C39.2377 59.8058 39.5726 59.6963 39.74 59.5319ZM41.6374 57.9985C41.6932 57.8342 41.8606 57.6699 41.9722 57.5056C42.3071 57.6151 42.5303 57.6699 42.7535 57.7246C42.4745 57.8889 42.2513 58.108 41.9722 58.2723C41.9722 58.2723 41.6374 58.0532 41.6374 57.9985ZM45.209 57.4508C45.0974 57.5056 44.93 57.3413 44.651 57.2865C44.8184 57.0674 44.93 56.9031 45.0416 56.8484C45.0974 56.7936 45.3764 56.9579 45.3764 57.0674C45.4322 57.177 45.3206 57.396 45.209 57.4508ZM48.2226 57.5056C48.111 57.5603 47.9993 57.5603 47.8319 57.5603C47.8877 57.396 47.8877 57.2865 47.8877 57.177C47.9993 57.2317 48.111 57.2317 48.2226 57.2865C48.2784 57.2865 48.2784 57.5056 48.2226 57.5056ZM52.0732 60.3535C51.9616 60.2987 51.7942 60.2439 51.7384 60.1892C51.6826 60.0796 51.7384 59.9153 51.7942 59.6962C51.9616 59.8058 52.129 59.8605 52.129 59.9701C52.1848 60.0796 52.129 60.1892 52.0732 60.3535ZM57.6539 51.1526C57.7655 51.2621 57.9329 51.3169 58.0445 51.4264C58.1003 51.4264 58.1003 51.536 58.1003 51.5907C58.1003 51.7003 58.1561 51.8098 58.1561 51.9741C58.1561 52.0836 58.1003 52.1932 58.0445 52.1932C57.9887 52.1932 57.8771 52.1384 57.8213 52.0836C57.7097 51.9193 57.5981 51.755 57.5981 51.5907C57.4865 51.4264 57.5981 51.3169 57.6539 51.1526ZM53.9148 52.9599C54.0823 52.9051 54.2497 52.9051 54.4171 52.9051C54.5287 52.9051 54.6961 53.0147 54.8077 52.9599C55.31 52.6861 55.4774 53.1242 55.7565 53.398C55.9797 53.7267 56.2029 54.0553 56.3703 54.3839C56.5377 54.2743 56.7052 54.11 56.8726 54.0553C57.04 54.0005 57.2074 54.11 57.4306 54.11C57.3748 54.2196 57.3748 54.3291 57.319 54.3839C57.2074 54.4386 57.0958 54.4934 56.9842 54.5482C56.8726 54.5482 56.7052 54.6029 56.5935 54.6029C56.5377 54.6029 56.4819 54.4934 56.3703 54.4386C56.3703 54.4934 56.4261 54.5482 56.4261 54.6029C56.5377 54.9863 56.5377 55.4244 56.5377 55.8078C56.5377 55.8626 56.3703 55.9721 56.3145 55.9173C55.8123 55.8626 55.5332 55.3149 55.7006 54.822C55.7564 54.7125 55.8123 54.6029 55.7565 54.5482C55.7006 54.2743 54.6403 53.4528 54.3055 53.4528C54.1381 53.4528 53.9706 53.398 53.859 53.3433C53.8032 53.2885 53.8032 53.0147 53.9148 52.9599ZM54.0264 57.0674C54.1381 57.0127 54.3613 57.0674 54.5287 57.177C54.6961 57.2865 54.7519 57.4508 54.9194 57.5603C55.031 57.6699 55.0868 57.7794 55.1984 57.8342C55.4216 58.108 55.589 58.3818 55.1984 58.7104C54.8635 58.9843 54.5845 59.0938 54.2497 58.7652C54.1381 58.6557 53.9706 58.5461 53.859 58.3818C53.2452 57.8889 53.3568 57.3413 54.0264 57.0674ZM52.2964 55.753C52.6313 55.753 53.0219 55.5887 53.1335 55.753C53.4684 56.0269 53.1335 56.2459 52.9103 56.465C52.6871 56.6841 52.3523 56.9579 52.129 56.5198C52.0174 56.3555 52.1848 56.0269 52.2964 55.753ZM50.8455 53.6171C51.1803 53.2885 51.4035 53.5076 51.6268 53.7814C52.0732 54.3291 52.0732 54.4386 51.6268 54.822C51.4035 54.9315 51.1803 55.3697 50.7897 54.9315C50.399 54.4934 50.4548 54.0005 50.8455 53.6171ZM48.0552 51.4264C48.39 51.3169 48.7248 51.2621 49.0597 51.1526C49.0597 51.1526 49.0597 51.1526 49.0597 51.2074C49.3945 51.0978 49.7852 50.9883 50.12 50.9335C50.5106 50.8788 50.7339 51.1526 50.5664 51.4264C50.2316 51.8646 50.4548 52.3027 50.5106 52.7408C50.5664 53.0147 50.5664 53.4528 50.4548 53.5076C50.1758 53.6719 49.7294 53.7814 49.3945 53.6719C48.8364 53.4528 48.3342 53.179 47.8877 52.7956C47.6645 52.5765 47.6087 52.1384 47.5529 51.8098C47.5529 51.7003 47.8319 51.536 48.0552 51.4264ZM46.4926 51.4264C46.4926 51.3717 46.6042 51.3169 46.66 51.2621C46.7716 51.2074 46.8832 51.0978 46.9948 51.0431C47.0506 50.9883 47.1623 51.0431 47.2739 51.0431C47.2739 51.1526 47.2739 51.2621 47.2181 51.3169C47.1064 51.4812 47.0506 51.6455 46.8832 51.755C46.7716 51.8098 46.5484 51.8098 46.4368 51.8098C46.4368 51.7003 46.4368 51.5907 46.4926 51.4264ZM46.4926 51.9741C46.6042 52.0836 46.66 52.1384 46.7158 52.1932C46.7158 52.2479 46.66 52.3027 46.6042 52.3575C46.5484 52.3027 46.4368 52.2479 46.381 52.1932C46.381 52.1932 46.4368 52.0836 46.4926 51.9741ZM46.2693 56.6293C46.66 56.465 47.0506 56.2459 47.4413 56.0816V56.1364C47.6087 56.0816 47.7203 56.0269 47.8877 56.0269C48.4458 55.9173 48.6132 56.0816 48.5574 56.6841C48.5016 57.0127 48.5016 57.177 48.0552 57.0127C47.7203 56.8484 47.2739 56.9579 46.8274 56.9579C46.66 56.9579 46.4926 57.0127 46.381 57.0127C46.2693 57.0127 46.1577 56.9031 46.0461 56.8484C46.1577 56.7936 46.2135 56.6841 46.2693 56.6293ZM46.0461 60.7368C46.2135 60.7368 46.381 60.9559 46.6042 61.1202C46.4926 61.394 46.4926 61.7226 46.381 61.7226C45.9903 61.8322 45.9903 61.4488 45.8787 61.2297C45.8229 61.0654 45.7113 60.7368 46.0461 60.7368ZM45.9903 54.3839C45.9903 54.4934 45.8787 54.6577 45.8229 54.6577C45.4881 54.7672 45.0974 55.0411 44.7626 54.6029C44.651 54.4934 44.3719 54.4934 44.1487 54.4934C43.6464 54.5482 43.1442 54.8768 42.6419 54.2743C42.4745 54.0553 42.1397 54.3291 42.1397 54.6029C42.1397 54.7125 42.1397 54.8768 42.1955 54.9863C42.3629 55.4792 42.0281 55.5887 41.6374 55.6983C41.191 55.8078 41.0235 55.5887 40.9677 55.2054C40.9677 55.0958 40.9119 54.9863 40.8561 54.9315C40.7445 54.822 40.6329 54.7125 40.5213 54.6029C40.4655 54.7672 40.2981 54.8768 40.2981 55.0411C40.2981 55.3697 40.1306 55.534 39.8516 55.5887C39.4052 55.6435 38.9029 55.753 38.4564 55.8078C38.5122 55.8626 38.5681 55.9721 38.6239 56.0269C38.7355 56.1912 38.8471 56.3555 39.0145 56.465C39.6284 56.8484 39.461 57.3413 39.3493 57.8342C39.5726 57.6699 39.9074 57.6151 40.2422 57.8342C40.4097 57.9437 40.5771 57.9985 40.8003 58.108C40.9119 58.1628 40.9677 58.2175 41.0793 58.2723C41.0235 58.3271 40.9677 58.4366 40.9119 58.4914C40.5771 58.6557 40.2422 58.7652 39.9074 58.9295C39.74 59.039 39.5168 59.1486 39.3493 59.3129C39.2377 59.4224 39.1261 59.5867 39.0145 59.6962C38.9029 59.5319 38.7355 59.3676 38.5122 59.1486C38.6239 58.9295 38.7355 58.7104 38.8471 58.5461C38.9029 58.4914 38.9587 58.3818 39.0145 58.3271C38.9587 58.3271 38.9587 58.3271 38.9587 58.3271C38.5122 58.1628 38.1774 58.3818 37.7868 58.4914C37.731 58.5461 37.5635 58.4914 37.5077 58.4366C37.4519 58.3818 37.5077 58.2723 37.5077 58.1628C37.5077 58.108 37.5635 58.0532 37.5635 57.9985C37.9542 57.2317 37.9542 57.0127 37.2287 56.465C36.8939 56.1912 36.7822 55.9173 37.1171 55.534C37.1729 55.4792 37.2287 55.3697 37.2845 55.2601C37.3961 54.9315 37.4519 54.822 37.5635 54.822C37.5077 54.2743 37.7868 54.0005 38.5122 53.7814C38.6239 53.7267 38.7913 53.7266 38.9029 53.7266C39.0703 53.6719 39.2377 53.6171 39.461 53.6171C39.74 53.5623 39.9074 53.6171 40.1306 53.891C40.3539 54.2743 40.6329 54.2196 40.6887 53.891C40.8003 53.3433 41.2468 53.179 41.6932 53.0694C42.1955 52.9599 42.6977 52.9051 43.2558 52.7956C43.7581 52.6861 44.3161 52.6861 44.4277 52.0289C44.4277 51.9741 44.8184 51.8646 44.8184 51.9193C44.9858 52.1932 45.209 52.2479 45.5439 52.3027C45.9903 52.3575 46.1577 53.0694 45.8229 53.398C45.3206 53.891 45.3206 53.9457 45.9345 54.2196C45.8229 54.1648 45.9903 54.2743 45.9903 54.3839ZM46.1019 47.9214C46.0461 47.9214 45.9345 47.9214 45.8229 47.9214C45.7671 47.9214 45.8229 47.8118 45.8229 47.6475C45.9345 47.7023 46.0461 47.7023 46.1019 47.7571V47.9214ZM50.7339 39.5968C51.0129 39.4325 51.2361 39.7063 51.2361 39.9801C51.2919 40.254 51.4035 40.5826 51.0129 40.6921C50.6223 40.8016 50.5664 40.473 50.399 40.0897C50.4548 39.9254 50.5664 39.6515 50.7339 39.5968ZM51.2919 44.3615C51.2919 44.5806 51.1803 44.7996 51.0687 45.0187C50.7897 45.0735 50.5106 45.2378 50.399 45.183C50.1758 45.0187 49.9526 44.7449 49.7852 44.471C49.7293 44.4163 49.7852 44.3067 49.841 44.252C50.0642 44.0329 51.2919 44.0877 51.2919 44.3615ZM49.0039 27.4933C49.1155 27.4933 49.3387 27.6576 49.3387 27.7123C49.3387 27.8766 49.1713 27.9862 49.1155 28.0957C49.0039 27.9862 48.8923 27.9314 48.7248 27.8219C48.8364 27.6576 48.8923 27.4933 49.0039 27.4933ZM48.5016 33.5724C48.5574 33.5176 48.7248 33.4081 48.7806 33.4629C49.1713 33.6272 49.5061 33.901 50.0084 34.0105C50.399 34.1201 49.9526 34.3939 49.8968 34.5582C49.6735 34.7773 48.669 34.9416 48.4458 34.7773C48.3342 34.7225 48.2784 34.5034 48.2784 34.3939C48.3342 34.1201 48.39 33.8462 48.5016 33.5724ZM47.5529 40.5278C47.7203 40.6921 47.8877 40.8564 48.111 41.0755C47.9435 41.2945 47.8877 41.4589 47.7761 41.6232C47.6645 41.5136 47.4413 41.4041 47.4413 41.2946C47.3855 41.0755 47.4971 40.8016 47.5529 40.5278ZM47.4971 45.6759C47.4971 45.6211 47.4971 45.5664 47.4971 45.5664C47.4971 45.5116 47.6645 45.3473 47.7203 45.3473C48.0552 45.4021 48.39 45.2925 48.669 45.4021C48.8923 45.3473 49.1155 45.2925 49.2829 45.2378C49.7293 45.1282 49.8968 45.3473 50.0084 45.6759C50.12 46.0593 50.0642 46.3331 49.6177 46.4426C49.4503 46.4974 49.2829 46.5522 49.1155 46.6069C48.669 46.6617 48.2784 46.8808 47.8877 46.3879C47.7203 46.114 46.9948 46.4426 46.8832 46.7712C46.7158 47.1546 46.1019 47.4832 45.7113 47.3737C45.5439 47.3189 45.4323 47.0998 45.4323 46.8808C45.3764 46.9355 45.0974 47.2094 45.0416 47.1546C44.651 46.9903 44.3719 47.1546 44.0929 47.2642C44.2045 47.3189 44.2603 47.4285 44.3719 47.4832C44.2045 47.5928 44.0929 47.7571 43.9255 47.8666C43.8697 47.9214 43.8139 47.9214 43.7581 47.9214C43.4232 47.9761 43.0884 48.0857 42.921 47.6475C42.8652 47.538 42.6419 47.5928 42.5303 47.4832C42.4187 47.3737 42.3071 47.2094 42.3071 47.0451C42.3071 46.9355 42.4745 46.7712 42.5861 46.7712C42.7535 46.7712 42.921 46.7165 43.0884 46.7165C43.0884 46.6617 43.0884 46.6069 43.1442 46.4974C43.4232 45.8402 42.9768 45.5664 42.6977 45.2378C42.3071 44.7996 41.9164 44.4163 41.5258 43.9781C41.2468 43.6495 41.0793 43.7591 40.8003 43.9234C40.1306 44.4163 40.1306 44.4163 39.5726 43.7591C38.8471 42.9376 38.1216 42.1161 37.3961 41.2946C37.2287 41.1302 37.1729 41.0207 37.0613 40.9112C36.8939 40.9112 36.7822 40.8016 36.6148 40.6921C36.6706 40.5826 36.7264 40.3635 36.8381 40.3087C36.8939 40.254 36.9497 40.254 37.0055 40.1992C37.0613 40.0897 37.1171 39.9801 37.2287 39.8158C37.2845 39.7063 37.2845 39.542 37.3403 39.3777C37.1729 39.4325 37.0613 39.4325 36.8939 39.4872C36.8381 39.4872 36.7822 39.5968 36.6706 39.5968C36.4474 39.7063 36.2242 39.9254 36.0568 39.6515C36.001 39.542 36.0568 39.2682 36.1684 39.1039C36.6706 38.3371 36.6148 38.1728 36.001 37.4609C35.6661 37.0775 35.1639 36.8037 35.3313 36.1465C35.3871 35.8726 35.1081 35.8179 34.829 35.9274C34.4384 36.0917 34.0477 36.256 33.6571 35.8726C33.3781 35.6536 33.3222 35.3797 33.6013 35.1607C33.8245 34.9416 34.1035 34.6677 34.3826 34.4487C34.6058 34.2844 34.829 34.1748 35.1081 34.3939C35.2197 34.5034 35.4987 34.4487 35.6661 34.5034C36.1126 34.5034 36.5032 34.9964 36.3916 35.4893C36.28 35.9822 36.3358 36.0369 36.7822 35.9822C37.2287 35.9274 37.2845 36.0369 37.2287 36.4203C37.1729 36.8584 37.1729 37.2418 37.1729 37.6799C37.1729 37.7347 37.3961 37.8442 37.4519 37.8442C37.8984 37.6799 38.0658 38.0085 38.3448 38.2276C38.6239 38.4467 38.6797 38.7205 38.5122 39.0491C38.3448 39.4325 38.8471 39.9801 39.2935 39.8706C40.019 39.7611 40.1306 40.3087 40.4097 40.6921C40.6887 41.0755 40.5771 41.4589 40.2981 41.7875C40.1864 41.897 40.0748 42.0065 39.9632 42.1161C39.9074 42.1708 39.9074 42.2804 39.9632 42.3351C40.019 42.3899 40.1306 42.3899 40.1864 42.3899C40.3539 42.2804 40.5771 42.1708 40.7445 42.0613C41.2468 41.7327 41.3584 41.7327 41.749 42.1161C41.749 42.0065 41.8048 41.8422 41.8606 41.7875C42.2513 41.5684 42.6977 41.4041 43.1442 41.2946C43.2558 41.2398 43.5906 41.4589 43.5906 41.5684C43.6464 41.8422 43.5348 42.1161 43.479 42.3899C43.479 42.3899 43.3116 42.4447 43.2558 42.3899C42.8093 41.897 42.3071 42.1161 41.8048 42.2256C41.9164 42.3899 42.0281 42.4994 42.1955 42.6637C42.3071 42.828 42.4745 42.9923 42.5861 43.1566C42.8652 43.4852 43.1442 43.8138 43.4232 44.1424C43.6464 44.4163 43.8697 44.6901 43.5906 45.1282C43.4232 45.4021 43.5906 45.6759 43.9813 45.5116C44.2603 45.4021 44.4835 45.3473 44.7068 45.6211C44.9858 46.0045 45.2648 46.3331 45.4881 46.7712C45.4881 46.5522 45.4881 46.2783 45.5997 46.114C45.7113 45.9497 45.8229 45.7307 45.8787 45.5664C45.9903 45.2378 46.3252 45.1282 46.4926 45.4021C46.7158 45.895 47.0506 45.7307 47.3855 45.6759C47.4413 45.6759 47.4971 45.6759 47.4971 45.6759ZM46.66 32.2032C46.6042 32.258 46.381 32.2032 46.1577 32.258C46.2135 32.0389 46.2135 31.8746 46.2693 31.8199C46.381 31.7103 46.5484 31.7103 46.66 31.7103C46.66 31.8746 46.7158 32.0389 46.66 32.2032ZM45.8229 26.1789C45.9903 26.1789 46.1577 26.2336 46.4368 26.2336C46.4368 26.5075 46.6042 26.8361 46.4926 26.9456C46.2135 27.2194 45.9903 26.8908 45.8787 26.7265C45.7671 26.5622 45.8229 26.3432 45.8229 26.1789ZM43.9813 29.2458C43.9813 29.0268 44.0371 28.8077 44.0929 28.5886C44.2045 28.3148 44.3161 28.0957 44.4835 27.8766C44.7068 27.8219 44.93 27.7123 44.93 27.7671C45.0416 27.8766 45.0416 28.0409 45.0974 28.2052C45.0974 28.3148 44.9858 28.4791 44.9858 28.5886C45.3206 29.1911 44.8184 29.4101 44.4835 29.6292C44.3719 29.684 44.1487 29.684 43.9813 29.6292C43.9813 29.6292 43.9813 29.4101 43.9813 29.2458ZM43.2 27.329C43.3116 27.2194 43.5348 27.2194 43.8697 27.1099C43.8139 27.4385 43.8139 27.6576 43.7581 27.7123C43.5906 27.7671 43.3674 27.7671 43.2 27.6576C43.1442 27.7123 43.0884 27.3837 43.2 27.329ZM42.4745 33.2438C42.5861 33.2438 42.8093 33.3533 42.8652 33.5176C43.0884 33.7915 43.2 34.1201 43.479 34.3391C44.2045 34.832 43.8139 35.4893 43.8697 36.0917C43.8697 36.2012 43.7023 36.3108 43.5906 36.4203C43.8139 36.5846 43.9813 36.8037 44.3161 36.6394C44.4835 36.5846 44.8184 36.6941 44.93 36.8037C45.209 37.0775 45.3764 37.4609 45.5997 37.7895C45.8229 38.1728 45.4881 38.3371 45.2648 38.5562C45.0416 38.7753 44.8184 38.7753 44.5952 38.5562C44.2045 38.1181 43.8697 37.7347 43.479 37.2966C43.1442 36.9132 43.2 36.6394 43.5906 36.4203C43.4232 36.3108 43.2 36.0917 43.0884 36.1465C42.5861 36.3655 42.4187 36.0369 42.1955 35.7631C42.0281 35.5988 41.9164 35.3797 41.749 35.2154C41.2468 34.5034 41.6374 33.4081 42.4745 33.2438Z" fill="#FEFEFE"/>
<path d="M48.9476 19.7164C48.8918 19.7164 48.836 19.6616 48.7802 19.6616C48.5011 19.5521 48.2779 19.1687 48.0547 18.9496C47.664 18.9496 47.385 18.9496 47.106 18.9496L47.1618 19.0044C47.385 19.1687 47.4966 19.333 47.385 19.6068C47.2176 19.9902 47.385 20.0997 47.7756 20.1545C48.2779 20.2093 48.3337 20.3736 47.9989 20.7569C47.7756 21.0308 47.4966 21.1951 47.2176 21.3594C47.106 21.4141 46.8827 21.3594 46.7153 21.2498C46.3805 21.0308 46.1014 20.7569 45.8224 20.4831C45.2085 19.8807 45.2085 19.5521 45.8224 19.0044C46.1014 18.7853 46.3247 18.6758 46.6037 18.7306C46.9385 18.2924 47.2176 17.9638 47.4408 17.6352C46.7711 17.5804 46.7153 17.4709 46.7711 16.7042C46.7711 16.3756 46.2131 15.7184 45.8782 15.7731C45.3202 15.8279 45.1527 15.7731 45.4318 15.2255C45.5992 14.8421 44.9853 14.1849 44.5389 14.1849C43.925 14.1849 43.646 13.9111 43.7576 13.3086C43.8134 12.8157 43.3669 12.1585 42.9205 12.2133C42.3066 12.3228 42.0834 11.9395 41.9718 11.6108C41.916 11.3918 42.195 11.0084 42.3624 10.7346C42.6972 10.6798 43.0879 10.4607 43.3111 10.5703C43.646 10.7346 43.925 11.0084 43.925 11.5013C43.8692 12.2133 44.4272 12.761 45.1527 12.9253C45.3202 12.98 45.5434 13.0348 45.655 13.1443C45.934 13.4182 46.2131 13.7468 46.4921 14.0206C46.5479 13.9658 46.5479 13.9658 46.5479 13.9111C46.6037 13.9658 46.7711 14.0206 46.7711 14.0754C46.7711 14.1301 46.7711 14.1849 46.7153 14.2397C47.2734 14.7873 47.8314 15.3898 48.3337 15.9374C48.4453 16.047 48.5569 16.1565 48.6127 16.3208C49.2266 15.4993 49.0034 15.7731 50.6218 13.692C50.7892 13.4729 50.9566 13.2539 51.124 13.0348C51.0682 13.0348 50.9566 12.98 50.9008 12.98C50.6776 12.98 50.5102 13.0348 50.2869 13.0348C50.1753 13.0348 49.9521 12.98 49.8963 12.8705C49.8405 12.761 49.8963 12.5419 50.0079 12.4871C50.1195 12.3228 50.3427 12.2133 50.5102 12.049C50.6218 11.9395 50.7334 11.8847 50.845 11.7751C51.0124 11.6656 51.124 11.5561 51.124 11.3918C51.0682 11.3918 50.9566 11.4465 50.845 11.5013C50.6218 11.5013 50.2869 11.5013 50.0079 11.5013C49.7847 11.5013 49.6173 11.2822 49.8405 11.1727C50.1753 11.0084 50.5102 10.8989 50.845 10.7893C50.566 10.5155 50.4543 10.5155 50.0079 10.7893C49.7847 10.9536 49.5056 11.1179 49.2824 11.2822C48.8918 11.5561 48.6685 11.4465 48.3895 11.1179C48.1105 10.8441 47.9989 10.5703 48.3337 10.2417C48.4453 10.1321 48.5569 10.0774 48.6127 9.96784C48.6127 9.80354 48.6127 9.69401 48.6127 9.58447C48.6127 9.5297 48.4453 9.47494 48.3337 9.47494C47.8314 9.47494 47.385 9.2011 47.2734 8.76297C47.1618 8.3796 47.4408 8.2153 47.664 8.051C47.9989 7.77716 48.2779 7.33903 48.7802 7.50333C49.3382 7.72239 49.6731 8.3796 49.5614 9.0368C49.5056 9.3654 49.6731 9.5297 49.9521 9.42017C50.4543 9.31064 50.6218 9.58447 50.845 9.80354C51.124 10.1321 51.3473 10.406 51.6263 10.7346C51.6821 10.7893 51.7379 10.8441 51.7937 10.9536C52.0169 9.42017 51.5147 7.83193 50.5102 6.68182C50.0637 6.79136 49.6173 7.01042 49.115 7.06519C48.4453 7.17472 48.3895 7.06519 48.1663 6.35322C48.1663 6.29845 48.1663 6.07938 48.1663 5.91508C48.1663 5.64125 48.1105 5.36741 48.4453 5.31265C47.8314 5.03881 47.1618 4.87451 46.3805 4.87451C45.8782 4.87451 45.4318 5.09358 45.0411 5.42218C45.0411 5.42218 43.3669 7.11996 40.5208 8.16053C40.7998 8.43436 41.0789 8.7082 41.3021 8.98203C41.5811 9.25587 41.8602 9.5297 41.4695 9.80354C41.2463 9.96784 40.8556 10.1869 40.6882 10.1321C40.465 10.0226 40.1302 9.5297 40.186 9.3654C40.2976 8.98203 40.186 8.7082 39.9627 8.48913C39.9069 8.59867 39.8511 8.65343 39.7953 8.7082C39.6279 8.81773 39.4605 8.81773 39.2931 8.8725C39.1814 8.92727 38.9582 9.0368 38.9024 9.09157C38.8466 9.58447 38.4002 9.63924 38.1211 9.80354C37.8421 9.96784 37.5072 10.4607 37.3956 10.406C37.0608 10.2417 36.726 10.1869 36.3353 10.2417C35.9447 10.2964 35.4982 10.406 35.1076 10.4607C34.9401 10.4607 34.6611 10.5155 34.6053 10.4607C34.2705 9.96784 33.8798 10.2417 33.4892 10.2417C33.3218 10.2417 33.0427 10.1869 32.9869 10.0774C32.8753 9.74877 33.1543 9.694 33.3776 9.63924C33.7682 9.5297 34.1589 9.47494 34.2147 8.98203C34.2147 8.92727 34.3821 8.81773 34.4937 8.76297C35.1076 8.59867 35.7214 8.48913 36.3353 8.32483C36.2237 8.32483 36.1121 8.3796 36.0005 8.3796C35.8331 8.3796 35.6656 8.32483 35.4982 8.27006C35.554 8.10576 35.6098 7.94146 35.6656 7.77716C35.7214 7.66763 35.8331 7.55809 35.8889 7.50333C36.2795 7.17472 36.5027 7.28426 36.726 7.88669C36.7818 8.051 36.8376 8.16053 36.8376 8.2153C36.8934 8.2153 36.9492 8.2153 36.9492 8.27006C37.4514 8.8725 38.0653 8.43436 38.5676 8.3796C38.9024 8.27006 39.2372 8.2153 39.5163 8.16053C39.4047 7.99623 39.2931 7.83193 39.1814 7.72239C39.1256 7.61286 38.9582 7.55809 38.735 7.66763C38.5118 7.72239 38.4002 7.55809 38.5118 7.33903C38.5676 7.22949 38.6234 7.11996 38.6792 7.06519C38.3443 6.73659 38.0095 6.46275 37.6747 6.24369C37.6189 6.24369 37.5631 6.24369 37.5072 6.24369C37.284 6.24369 37.1166 6.13415 37.1166 5.96985C37.005 5.96985 36.8934 6.02462 36.726 6.07938C36.1121 6.24369 35.4982 6.40799 34.9401 6.51752C34.2147 6.73659 33.545 6.90089 32.8753 7.06519C32.5405 7.11996 32.3172 7.06519 32.2056 6.73659C32.1498 6.57229 32.1498 6.46275 32.1498 6.35322C31.9266 6.51752 31.7592 6.68182 31.536 6.84612C31.536 7.22949 31.3685 7.39379 30.9221 7.50333C30.8663 7.50333 30.8663 7.50333 30.8663 7.50333C30.643 7.77716 30.364 8.10576 30.1966 8.43436C29.7501 8.27006 29.3037 8.16053 28.913 7.99623C28.8572 8.051 28.8014 8.051 28.6898 8.10576C28.1876 8.2153 27.7411 8.3796 27.2389 8.48913C26.9598 8.5439 26.625 8.65343 26.4018 8.27006C26.2343 7.99623 26.0111 8.10576 25.8995 8.3796C25.8437 8.5439 25.6763 8.65343 25.5647 8.81773C25.453 8.59867 25.2856 8.43436 25.2298 8.2153C25.2298 8.051 25.3414 7.83193 25.453 7.77716C25.9553 7.61286 26.4576 7.44856 26.9598 7.33903C27.0714 7.33903 27.183 7.28426 27.2389 7.28426C25.7321 6.29845 24.895 5.47695 24.895 5.42218C24.5601 5.03881 24.0579 4.87451 23.5556 4.87451C19.0353 4.87451 16.524 10.1321 19.4259 13.5277C23.6114 19.0044 23.6672 19.5521 23.9463 19.9354C24.3369 20.5926 25.174 22.2904 25.174 22.4547C25.2298 22.3452 25.3414 22.2356 25.5089 22.1261C25.8995 21.7975 25.9553 21.7975 26.4576 22.3452C26.5134 22.4547 26.625 22.5095 26.6808 22.619C29.1363 22.9476 31.4801 23.4953 33.6008 24.0429C33.8798 23.6048 33.6008 23.331 33.3776 23.0571C33.2101 22.8928 33.0985 22.6738 32.9869 22.4547C32.9869 22.3999 33.1543 22.2904 33.266 22.1809C33.266 22.1809 33.3218 22.1809 33.3218 22.2356C34.0472 22.7833 34.6611 23.3857 35.0518 24.2073C35.0518 24.262 35.0518 24.262 35.1076 24.3168C35.275 24.3168 35.4424 24.3168 35.6098 24.262C38.456 23.4405 41.8602 22.6738 45.2643 22.4547C45.2085 22.3999 45.2085 22.3999 45.1527 22.2904C45.0969 22.1261 45.376 21.907 45.4876 21.688C45.8224 21.7975 46.1572 21.7975 46.2131 21.9618C46.3805 22.2904 46.0456 22.3452 45.8224 22.3999C46.6595 22.3452 48.4453 22.3999 48.5569 22.3452C48.3337 21.5784 48.6685 20.4831 48.9476 19.7164ZM46.1573 12.4324C45.9898 12.4324 45.8782 12.2681 45.7108 12.1585C45.8224 11.9942 45.934 11.8299 46.0456 11.7751C46.1573 11.7204 46.3247 11.8847 46.5479 12.049C46.3805 12.2681 46.2131 12.4871 46.1573 12.4324ZM44.7621 6.24369C44.8737 6.07938 45.0411 6.02462 45.1527 5.86032C45.2085 5.80555 45.3202 5.69602 45.376 5.64125C45.934 5.20311 46.4921 5.36741 46.7153 6.02462C46.7711 6.13415 46.7153 6.40799 46.6037 6.40799C46.3247 6.51752 45.9898 6.62705 45.655 6.68182C45.4876 6.73659 45.2643 6.73659 45.0411 6.73659C44.8737 6.73659 44.6505 6.68182 44.5947 6.57229C44.5947 6.57229 44.6505 6.35322 44.7621 6.24369ZM43.0879 7.99623C43.1437 8.10576 43.1437 8.3796 43.0321 8.43436C42.9205 8.48913 42.6973 8.5439 42.5856 8.43436C42.474 8.3796 42.5298 8.16053 42.5298 7.88669C42.8089 7.94146 43.0321 7.94146 43.0879 7.99623ZM31.7034 7.50333C31.9266 7.55809 32.094 7.50333 32.2056 7.61286C32.2614 7.66763 32.2614 7.94146 32.1498 7.99623C31.9266 8.16053 31.6476 8.27006 31.4243 8.43436C31.4243 8.43436 31.3127 8.3796 31.3127 8.32483C31.4243 8.051 31.536 7.77716 31.7034 7.50333ZM20.6537 8.81773C20.9327 8.76297 21.1001 8.7082 21.2118 8.76297C21.2118 8.65343 21.2676 8.59867 21.435 8.59867C21.8256 8.5439 22.2163 9.14633 22.1605 9.47494C22.1605 9.5297 22.1047 9.63924 22.0489 9.694C22.0489 9.91307 22.2721 10.2964 21.8814 10.3512C21.6582 10.406 21.3792 10.1321 21.0443 10.0226C20.3747 10.1869 20.1514 10.0774 20.0398 9.58447C19.9282 9.09157 19.984 8.98203 20.6537 8.81773ZM27.6853 16.5946C27.6295 16.5399 27.6853 16.266 27.6853 16.1017C27.9085 16.1565 28.076 16.2113 28.355 16.3208C28.355 16.5946 28.4108 16.7589 28.4108 16.978C28.1318 16.8685 27.9085 16.7589 27.6853 16.5946ZM29.9176 18.4567C29.7501 18.6758 29.5269 18.8401 29.3037 18.9496C29.1921 19.0044 28.9689 18.9496 28.8014 18.9496C28.8014 18.7853 28.8014 18.621 28.8572 18.4567C28.913 18.3472 29.0247 18.2924 29.1363 18.1829C29.1921 18.1281 29.3037 18.0186 29.4711 17.9638C29.5827 17.9638 29.6943 17.9638 29.806 18.0734C29.7501 17.9638 29.8618 17.8543 29.8618 17.69C30.0292 17.8543 30.1408 17.909 30.1408 17.9638C30.1408 18.0733 30.085 18.1829 30.0292 18.2924C29.9734 18.2377 29.8618 18.2377 29.806 18.1829C29.9734 18.2924 29.9734 18.4567 29.9176 18.4567ZM31.4801 20.9212C31.4243 21.0855 31.4801 21.3046 31.4243 21.4689C31.2011 21.3594 30.9779 21.2498 30.7547 21.1403C30.5872 21.0308 30.4756 20.8665 30.364 20.7569C29.9734 20.3188 29.9734 20.1545 30.5314 19.7164C30.5872 19.7164 30.9779 19.5521 31.0337 19.6068C31.2569 19.8807 31.4243 20.2093 31.5918 20.5926C31.6476 20.6474 31.4801 20.7569 31.4801 20.9212ZM30.8105 19.2235C30.8105 19.1139 30.8663 19.0044 30.9221 18.8401C30.9779 18.8949 31.1453 18.8949 31.1453 19.0044C31.2011 19.1139 31.1453 19.2235 31.1453 19.333C31.0895 19.3878 31.0337 19.4425 30.9779 19.4973C30.9221 19.4425 30.8105 19.333 30.8105 19.2235ZM32.3172 10.4607C31.9266 10.625 31.5918 10.7893 31.4801 11.2275C30.4756 11.5013 29.4153 11.7751 28.4108 12.049H28.355C27.5737 11.2275 26.8482 11.9942 26.0669 12.1038C25.9553 12.1038 25.7879 12.2133 25.7321 12.3228C25.5089 13.1443 24.7276 12.98 24.1695 13.1443C24.0579 13.1991 23.8347 13.0896 23.723 12.98C23.444 12.7062 23.2208 12.761 23.1092 13.1443C22.9976 13.5277 22.8301 13.5277 22.4953 13.3086C22.3279 13.1991 22.1047 13.1443 21.8814 13.1443C21.3792 13.1991 20.9327 13.3634 20.4305 13.4729C20.4863 13.692 20.6537 13.9658 20.263 14.0754C20.2072 14.0754 19.984 13.9658 19.984 13.9111C19.8724 13.5277 20.2072 13.5277 20.4305 13.4729C20.3747 13.2539 20.263 12.98 20.5421 12.8157C20.6537 12.761 20.7095 12.5967 20.8211 12.4871C21.0443 11.9942 21.714 11.8299 22.1605 12.1038C22.3279 12.2133 22.5511 12.3228 22.6627 12.2681C23.3324 12.1585 24.0579 11.9942 24.7276 11.8299C25.0066 11.7751 25.3414 11.6656 25.3972 11.2822C25.453 11.0084 25.7321 10.8989 25.8995 11.1727C26.1785 11.5013 26.4576 11.3918 26.7366 11.337C27.2947 11.2275 27.9085 11.0632 28.4666 10.9536C28.8014 10.8441 29.0805 10.7893 29.1921 10.3512C29.2479 10.0774 31.3127 9.47494 31.4801 9.694C31.7034 9.96784 31.9266 10.1321 32.2614 10.0774C32.3172 10.0774 32.4289 10.1869 32.4847 10.2964C32.4289 10.2964 32.373 10.4607 32.3172 10.4607ZM34.7169 18.621C34.3263 18.5663 33.8798 18.8949 33.824 18.402C33.7682 17.9638 34.2147 18.0186 34.4937 17.9638C34.7727 17.8543 34.996 17.9638 34.996 18.2377C34.996 18.3472 34.8285 18.5115 34.7169 18.621ZM35.6098 13.0896C35.6656 12.98 35.7772 12.8705 35.8889 12.761C36.0005 12.7062 36.1121 12.5967 36.2237 12.5967C36.3353 12.5967 36.5585 12.7062 36.5585 12.7062C36.5027 12.8705 36.5027 13.0896 36.3911 13.1443C36.2237 13.3086 35.9447 13.3634 35.7214 13.4182C35.6656 13.3086 35.554 13.1991 35.6098 13.0896ZM36.726 15.2802C36.5585 15.1707 36.3911 15.0612 36.1679 14.8969C36.3353 14.6778 36.3911 14.4587 36.5027 14.2944C36.6143 14.4587 36.8376 14.5683 36.8934 14.7873C36.8934 14.8969 36.7818 15.1159 36.726 15.2802ZM39.9627 16.3208C40.1302 16.8137 39.9627 17.1971 39.6279 17.5257C39.3489 17.7995 39.1256 17.7447 38.9024 17.4709C38.456 16.9232 38.456 16.5946 39.1256 16.1017C39.1814 16.1017 39.2372 15.9922 39.2931 15.9922C39.5163 15.8827 39.7953 15.7184 40.0185 15.7731C40.2976 15.8279 39.9069 16.1565 39.9627 16.3208ZM39.7953 12.8705C39.5163 13.0348 39.4047 12.761 39.2372 12.5967C38.8466 12.1585 39.0698 11.6656 38.9582 11.1727C38.9582 11.0084 39.3489 10.7346 39.5721 10.625C39.7395 10.5703 39.9627 10.7346 40.2418 10.8441C40.3534 11.337 40.5766 11.8299 40.5208 12.2681C40.5208 12.4871 40.0743 12.7062 39.7953 12.8705ZM40.8556 18.1829C40.7998 18.2377 40.6882 18.1829 40.5208 18.1281C40.6324 17.9638 40.6882 17.8543 40.6882 17.8543C40.7998 17.8543 40.9114 17.909 41.0231 17.9638C40.9672 18.0733 40.9672 18.1829 40.8556 18.1829ZM42.474 20.0997C42.0276 20.0997 41.6369 19.9902 41.1905 19.9354C41.1347 19.9354 41.1347 19.8259 41.1347 19.8259C41.3579 19.5521 41.5253 19.2782 41.7485 19.0592C41.8602 19.0044 42.1392 19.1139 42.2508 19.1687C42.4182 19.4425 42.5298 19.5521 42.5298 19.7164C42.6414 19.8259 42.5298 20.0997 42.474 20.0997ZM42.9763 15.8279C42.8089 15.7731 42.6414 15.7184 42.5298 15.7731C42.0834 15.8827 41.9718 15.7184 42.1392 15.335C42.195 15.2802 42.195 15.1707 42.195 15.1159C42.195 14.8969 42.195 14.6778 42.195 14.5135C42.4182 14.623 42.6414 14.7326 42.8647 14.8421C42.9205 14.8969 42.9763 14.9516 43.0879 15.0064C43.1437 15.1707 43.1995 15.335 43.3111 15.5541C43.3669 15.8279 43.3111 15.9374 42.9763 15.8279ZM43.9808 16.9232C44.4831 16.8137 44.9295 16.7589 45.4318 16.7042C45.5434 16.7042 45.5992 16.7589 45.7108 16.8137C45.655 16.9232 45.5992 17.0328 45.5434 17.0875C45.0969 17.2518 44.5947 17.4161 43.9808 17.5804C43.925 17.5257 43.7576 17.4161 43.7018 17.3066C43.7018 17.1423 43.8692 16.9232 43.9808 16.9232ZM44.7063 21.7975C44.6505 21.8523 44.5947 21.907 44.4272 22.0713C44.3714 22.0713 44.0366 22.2904 43.925 22.2356C43.7018 22.0166 43.5902 21.7427 43.4227 21.4689C43.4227 21.4141 43.646 21.1951 43.7576 21.1951C43.925 21.1403 44.1482 21.1951 44.3714 21.2498C44.5389 21.3046 44.7063 21.3594 44.8737 21.3594C44.8179 21.4689 44.7621 21.6332 44.7063 21.7975ZM45.0969 18.1281C44.8737 18.2377 44.5947 18.3472 44.3156 18.402C44.2598 18.3472 44.204 18.2924 44.204 18.2377C44.3156 18.0186 44.4272 17.7447 44.5947 17.5257C44.7621 17.3066 44.9853 17.2518 45.2085 17.4709C45.376 17.7447 45.3202 17.9638 45.0969 18.1281ZM47.2176 22.0166C47.1618 21.9618 47.0502 21.9618 46.8827 21.8523C46.9944 21.7427 47.0502 21.6332 47.106 21.5237C47.1618 21.5784 47.3292 21.6332 47.3292 21.688C47.385 21.7975 47.2734 21.907 47.2176 22.0166Z" fill="#FEFEFE"/>
<path d="M35.5526 5.09354C35.1621 4.98404 34.7716 4.98404 34.4368 5.09354C34.3811 5.09354 33.7674 5.31254 32.9863 5.80529C33.3769 5.69579 33.7674 5.53154 34.1021 5.96954C34.2695 6.13379 34.5484 6.02429 34.5484 5.80529C34.5484 5.36729 34.8832 5.31254 35.1621 5.25779C35.3295 5.20304 35.4968 5.20304 35.6642 5.14829C35.6084 5.09354 35.5526 5.09354 35.5526 5.09354Z" fill="#FEFEFE"/>
</svg>
