<svg width="70" height="70" viewBox="0 0 70 70" fill="none" xmlns="http://www.w3.org/2000/svg">
<path d="M27.9839 20.0837L27.2788 24.3941C27.5138 24.671 27.7488 24.9478 27.9839 25.2246C28.5714 25.8969 29.1589 26.5692 29.7465 27.281C29.864 27.4392 30.0207 27.5973 30.0598 27.7951L30.7257 27.4392C30.7649 27.3996 30.8432 27.3205 30.9216 27.3205L33.1934 26.1342C33.115 26.0946 33.0759 26.0551 32.9975 25.976C32.9584 25.8573 32.9192 25.7387 32.88 25.5805C32.8409 25.5805 32.7625 25.5805 32.7233 25.541C32.7625 25.5014 32.8017 25.4619 32.8409 25.4223C32.8017 25.1455 32.6842 24.9873 32.41 24.9082C31.9791 24.8291 31.7833 24.5128 31.7049 24.0778C31.6658 24.0778 31.5874 24.0778 31.5483 24.0778C31.4699 24.0778 31.3524 23.8801 31.3133 23.8405C31.3133 23.6428 31.2741 23.5637 31.2741 23.4451C31.2741 23.4055 31.3916 23.2869 31.4308 23.3264C31.3916 23.2078 31.3916 23.1287 31.5091 23.0101C31.7049 22.8519 31.7833 22.6146 32.1358 22.6937C32.2533 22.7332 32.41 22.6937 32.5667 22.6937C32.645 22.6937 32.7625 22.7728 32.8409 22.8519C32.88 22.8914 32.8017 23.0101 32.8017 23.0891C32.8017 23.1287 32.7625 23.1287 32.7233 23.1682C32.5275 23.366 32.2925 23.5241 32.5275 23.8801C32.7625 24.1964 32.9192 24.5919 33.3892 24.5128C33.5067 24.5128 33.6634 24.5523 33.7809 24.671C34.0159 24.9082 34.251 25.1455 34.4468 25.3828C34.4468 25.3828 34.4468 25.4223 34.486 25.4223L34.8385 25.2246C34.7993 25.2246 34.7602 25.2246 34.721 25.2246C34.6426 25.2246 34.5251 25.1455 34.486 25.0664C34.486 25.0269 34.5643 24.9082 34.6035 24.8687C35.0343 24.7105 35.5044 24.5523 35.9352 24.4337C36.0136 24.3941 36.2094 24.5523 36.2094 24.5919C36.2094 24.671 36.1702 24.7501 36.1311 24.7896C36.1702 24.7896 36.2094 24.8291 36.2486 24.8291C36.2878 24.8687 36.2486 24.9082 36.2486 24.9873C36.1703 24.9873 36.1311 24.9873 36.0527 24.9478C36.0527 24.9478 36.0527 24.9082 36.0527 24.8687C36.0527 24.8687 36.0527 24.8687 36.0136 24.8687C35.8177 24.9478 35.5827 24.9873 35.2694 25.0664C35.2302 25.0664 35.1518 25.106 35.0735 25.106L36.3269 25.7782C36.4053 25.7782 36.4444 25.7782 36.5619 25.7782C36.5619 25.8178 36.5619 25.8573 36.5228 25.8969L37.2278 26.2528C37.2278 26.2132 37.2278 26.2132 37.2278 26.1737C37.3062 26.1737 37.3453 26.1737 37.4628 26.1737C37.4628 26.2528 37.4628 26.3319 37.4628 26.3714L37.8545 26.5692C37.7762 26.5296 37.737 26.4505 37.6979 26.3319C37.6195 26.0946 37.737 25.976 37.972 25.8969C38.0112 25.8969 38.0504 25.8573 38.0895 25.8573C37.8545 25.9364 37.737 25.7387 37.5412 25.541C37.1495 25.3432 37.3453 24.9873 37.3845 24.6314C37.267 24.5919 37.1495 24.5523 37.1103 24.4732C37.0711 24.4337 37.032 24.3546 36.9928 24.3151C36.6011 24.0382 36.6011 23.9987 37.0711 23.801C37.1495 23.7614 37.2278 23.7219 37.3062 23.6823V23.7219C37.6979 23.6428 38.0504 23.5637 38.4421 23.5241C38.5204 23.5241 38.6379 23.5637 38.7554 23.6032C38.7163 23.6823 38.6771 23.801 38.5987 23.8405C38.4029 23.9591 38.2462 24.0778 38.1287 24.2755C38.4421 24.236 38.5596 24.3546 38.4421 24.7105C38.3246 25.106 38.3246 25.106 38.7163 25.106C38.9513 25.106 39.3821 25.4619 39.4213 25.6596C39.4213 25.6992 39.4213 25.7782 39.3821 25.8178C39.4213 25.8573 39.4213 25.9364 39.4605 26.0155C39.5388 26.411 39.5388 26.4901 39.1471 26.6087C38.8338 26.6878 38.5596 26.7669 38.2462 26.8064C38.1287 26.846 38.0504 26.8064 37.972 26.7669L41.0272 28.3882C41.0664 28.3882 41.1056 28.3883 41.1448 28.4278C41.2231 28.4673 41.2623 28.5069 41.3406 28.5464L41.7715 28.7837C41.8106 28.7837 41.8498 28.7837 41.889 28.7837C41.8106 28.7442 41.7323 28.7046 41.6931 28.6255C41.6931 28.6255 41.7715 28.4673 41.8106 28.4673C41.889 28.4673 41.9673 28.5069 42.0065 28.5464C41.9673 28.586 41.9673 28.6651 41.9281 28.7442C41.9673 28.7442 42.0065 28.7442 42.0456 28.7442C42.124 28.7442 42.2415 28.9023 42.359 29.021C42.359 29.021 42.359 29.0605 42.3982 29.1001L43.7691 29.8119L43.1816 26.411C43.1424 26.411 43.1032 26.411 43.0641 26.3714C42.5549 26.3319 42.4373 26.1342 42.4373 25.6596C42.4373 25.4619 42.3198 25.2246 42.2023 25.0664C41.7323 24.4732 41.2623 23.9591 40.7922 23.366C40.6747 23.2078 40.518 23.0496 40.4005 22.8914C40.2439 22.6146 40.3614 22.4564 40.6356 22.4169C40.8706 22.3773 41.1056 22.3378 41.3406 22.2982C41.4581 22.2982 41.5756 22.2982 41.654 22.3378C41.6931 22.3773 41.6931 22.496 41.654 22.5751C41.5364 23.0496 41.8106 23.366 42.2807 23.3264C42.5549 23.2869 42.6332 23.4055 42.594 23.6428C42.5549 23.9196 42.6332 24.0382 42.829 24.0382L42.7115 23.2473C42.6724 23.2078 42.6332 23.1682 42.6332 23.1287C42.594 23.0101 42.594 22.931 42.6332 22.8914L42.1632 21.5073C42.0848 21.5469 42.0456 21.5469 41.9673 21.5864C41.8498 21.5864 41.7715 21.626 41.6931 21.626C41.6148 21.5864 41.5756 21.5073 41.5364 21.4282C41.654 21.3096 41.8106 21.191 41.9281 21.1514C41.9673 21.1119 42.0457 21.1119 42.0848 21.1119L41.9281 20.1232L44.2 17.9087C44.2 17.8691 44.2 17.8296 44.2 17.7505C44.2783 17.4737 44.1608 17.3946 43.9258 17.4341C43.8083 17.4341 43.6516 17.4341 43.5733 17.355C43.5733 17.355 43.5733 17.355 43.5341 17.355C43.4949 17.3946 43.4557 17.3946 43.4557 17.3946C43.2599 17.4341 42.9857 17.5528 42.9074 17.2364C42.8682 17.1573 43.0641 16.9991 43.1424 16.92C42.829 16.5246 42.6332 15.9709 42.7115 15.4964C42.7507 15.2987 43.0641 15.0614 43.2599 14.9428C43.3774 14.8637 43.5733 15.1009 43.4557 15.2591C43.2599 15.4964 43.2991 15.6941 43.4949 15.9314C43.6124 16.0896 43.5733 16.2873 43.8474 16.4059C43.9258 16.4455 44.0041 16.485 44.0825 16.5246V16.485C44.1216 16.3269 44.3566 16.2082 44.5525 16.0896C44.5525 16.1291 44.5917 16.1687 44.5917 16.2082C44.905 16.1291 45.2184 16.0105 45.5317 15.9314C45.6101 15.9314 45.7667 16.05 45.8842 16.0896C45.8059 16.2082 45.7276 16.3664 45.6492 16.3664C45.375 16.4059 45.14 16.406 45.0617 16.8014C45.0617 16.8805 44.7875 16.9991 44.5525 16.9991C44.6308 17.0782 44.67 17.1573 44.7483 17.2364C44.7875 17.276 44.7875 17.276 44.8267 17.3155L48.9395 13.2819L40.0872 11.9768V12.0164C40.1264 12.0559 40.0088 12.1746 39.9697 12.2537C39.9305 12.3723 39.9697 12.5305 39.9305 12.6491C39.7738 12.57 39.6171 12.4909 39.4605 12.4118C39.343 12.3328 39.2646 12.2141 39.1863 12.135C38.9904 11.8978 38.9513 11.7791 39.108 11.5418L38.6771 10.6718C38.5987 10.7509 38.5204 10.7905 38.4421 10.8696C38.3637 10.9091 38.2071 10.8696 38.0895 10.8696C38.0895 10.7509 38.0895 10.6323 38.1287 10.5137C38.1679 10.4346 38.2462 10.395 38.3246 10.3159C38.3637 10.3159 38.4029 10.2764 38.4421 10.2368L36.3661 5.84729C36.2878 5.88684 36.2094 5.88684 36.1311 5.88684C36.0527 5.88684 35.9352 5.96593 35.8961 6.04502C35.7394 6.6382 35.191 6.51956 34.7993 6.6382C34.721 6.67775 34.5643 6.59866 34.486 6.51956C34.2901 6.32184 34.1334 6.36138 34.0551 6.6382C33.9768 6.91502 33.8593 6.91502 33.6242 6.75684C33.5067 6.67775 33.3501 6.6382 33.1934 6.6382L31.1174 10.9091C31.1566 10.9091 31.1566 10.9091 31.1957 10.9091C31.3524 10.8696 31.6266 11.1859 31.7441 11.3837C31.9008 11.6209 31.6266 11.7396 31.5091 11.8978C31.3133 12.0955 31.1566 12.0955 30.9999 11.8582C30.9216 11.7791 30.8824 11.7 30.8041 11.5814L30.6865 11.7791L21.0117 13.2423L27.9839 20.0837ZM40.7531 25.5014C40.8706 25.3037 41.1448 25.2246 41.3798 25.1455C41.4189 25.1455 41.5756 25.3037 41.5756 25.4223C41.6931 25.7387 41.7323 26.0946 41.8106 26.4505C41.9673 26.4505 42.1632 26.3319 42.2415 26.6087C42.2415 26.6482 42.2023 26.7669 42.124 26.7669C41.8498 26.846 41.8498 26.6087 41.7715 26.4505C41.5756 26.4901 41.3798 26.5692 41.2623 26.2923C41.2231 26.2132 41.0664 26.1342 40.9489 26.0946C40.7139 25.976 40.6747 25.6596 40.7531 25.5014ZM30.4907 25.8969C30.4124 25.8969 30.334 25.9364 30.2949 25.9364C30.1773 25.9364 30.0207 25.8969 29.9032 25.8969C29.9423 25.7387 29.9815 25.6201 30.0207 25.5805C30.2949 25.3037 30.4907 25.2246 30.6865 25.5014C30.8041 25.6992 30.7649 25.8178 30.4907 25.8969ZM30.4907 22.6541C30.4515 22.7332 30.2948 22.6937 30.0598 22.7332C30.099 22.5355 30.099 22.3773 30.1773 22.3378C30.2557 22.2982 30.4124 22.3378 30.5299 22.3378C30.4907 22.4564 30.5299 22.5751 30.4907 22.6541ZM33.5851 20.0837C33.4676 19.9255 33.4284 19.8464 33.3892 19.7673C33.3109 19.5696 33.4284 19.4114 33.5851 19.4905C33.9376 19.6882 34.1334 19.451 34.3685 19.2532C34.5251 19.1346 34.6818 19.0555 34.8777 18.9764C34.9168 18.9369 35.0343 18.9764 35.0735 19.016C35.1127 19.0555 35.1127 19.1741 35.0735 19.2137C34.7993 19.6882 34.3293 19.886 33.8984 20.1628C33.8201 20.2814 33.6242 20.1232 33.5851 20.0837ZM33.8593 17.2364C33.9376 17.1178 33.9768 16.9991 34.0159 16.9991C34.0943 16.9991 34.1726 17.0782 34.251 17.1178C34.2118 17.1969 34.1726 17.276 34.0943 17.3155C34.0551 17.355 33.9768 17.276 33.8593 17.2364ZM35.0735 23.9591C34.7993 23.9591 34.6426 23.9591 34.4468 23.9591C34.5251 23.7614 34.6035 23.5637 34.721 23.4055C34.7602 23.3264 34.956 23.4055 35.1127 23.4055C35.1127 23.5241 35.1127 23.6823 35.0735 23.9591ZM36.3661 23.1287C36.2878 23.1682 36.0527 23.0496 35.9744 22.931C35.8961 22.8123 35.7786 22.7332 35.7002 22.6146V22.6541C35.7786 23.0496 35.7394 23.1287 35.2694 23.2473C34.956 23.3264 34.721 23.0891 34.6818 22.6937C34.6426 22.4169 34.7602 22.2982 35.1518 22.2191C35.2302 22.2191 35.3085 22.1796 35.3477 22.1796C35.2302 22.061 35.1127 21.9028 35.0343 21.7841C34.8777 21.8237 34.6818 21.9423 34.6035 21.9028C34.4468 21.7841 34.3293 21.5469 34.251 21.3491C34.2118 21.1514 34.2118 20.9537 34.251 20.756C34.251 20.6769 34.4076 20.5582 34.486 20.5582C34.721 20.5582 35.0343 21.0328 34.9168 21.2701C34.7993 21.5073 34.9168 21.626 34.9952 21.7841C35.2302 21.5073 35.426 21.5073 35.6219 21.8237C35.8177 22.1005 36.0527 22.3378 36.2486 22.6146C36.3661 22.8123 36.6011 22.9705 36.3661 23.1287ZM35.191 18.6996C35.191 18.581 35.3869 18.4623 35.3869 18.4228C35.9352 18.3041 36.0919 18.3832 36.1311 18.7391C36.1311 19.095 36.0919 19.1346 35.7394 19.016C35.661 18.9764 35.5827 18.9764 35.5435 18.9764C35.3477 18.9764 35.1518 18.8973 35.191 18.6996ZM37.6195 22.6541C37.267 22.7332 37.1887 22.6937 37.0711 22.3378C36.9928 21.9819 37.032 21.9028 37.3453 21.8237C37.737 21.7051 37.8154 21.7446 37.8937 22.1005C38.0112 22.496 37.972 22.5751 37.6195 22.6541ZM40.4005 27.6369C40.4397 27.6764 40.4005 27.8346 40.3614 27.8742C40.283 27.9137 40.1264 27.9137 40.0872 27.8742C40.048 27.8346 40.0872 27.6764 40.048 27.5182C40.2047 27.5578 40.3222 27.5578 40.4005 27.6369ZM40.2047 23.6823C40.2439 23.7614 40.1655 23.9196 40.0872 23.9987C39.9697 24.1569 39.4213 24.236 39.2255 24.1569C39.108 24.1173 39.0296 24.0382 38.9121 23.9987C38.9904 23.9196 39.0688 23.801 39.1863 23.7614C39.3038 23.6823 39.4605 23.6428 39.5388 23.6032C39.6955 23.5637 39.813 23.5241 39.9305 23.5637C40.0088 23.5241 40.1655 23.6032 40.2047 23.6823ZM39.6955 21.9819C39.8522 21.7841 39.8913 21.7051 39.9697 21.6655C40.0088 21.6655 40.1264 21.7446 40.0872 21.7841C40.0872 21.8632 40.048 21.9423 39.9697 21.9819C39.9305 22.0214 39.8522 22.0214 39.6955 21.9819ZM41.1839 13.2028C41.1839 13.2028 41.2231 13.2028 41.2231 13.2423C41.7323 13.6378 42.1632 14.0728 42.4373 14.6659C42.5549 14.9823 42.2415 15.1009 42.0456 15.2196C41.9281 15.2591 41.6931 15.1405 41.4973 15.0614C41.4581 14.8637 41.3798 14.6264 41.4189 14.5473C41.654 14.2309 41.4581 14.0332 41.2623 13.7959C41.1448 13.6773 41.0664 13.5191 40.9881 13.3609C40.9881 13.3609 41.1448 13.2423 41.1839 13.2028ZM41.2231 16.6037C41.2623 16.6037 41.4973 16.4455 41.5756 16.5246C41.7323 16.6432 42.0065 16.92 41.9673 17.0387C41.9281 17.0782 41.9281 17.1573 41.9281 17.1969C41.9281 17.2364 41.9673 17.276 41.9673 17.3155C42.0065 17.3946 42.0065 17.5132 42.0065 17.5923C42.0456 17.711 42.124 17.8296 42.1632 17.9482C42.2023 18.0669 42.1632 18.225 42.0848 18.3437C42.0065 18.4623 41.8498 18.5019 41.6931 18.5414C41.654 18.4228 41.6148 18.2646 41.5756 18.146C41.5364 18.0273 41.4581 17.8691 41.3798 17.7505C41.3014 17.5923 41.1448 17.4737 41.0664 17.355C40.8314 17.0387 40.8314 16.9596 41.2231 16.6037ZM41.0272 19.2928C41.1839 19.1346 41.3406 19.016 41.5364 19.2532C41.8106 19.5696 41.8106 19.8069 41.5756 20.0441C41.2623 20.321 41.1448 20.321 40.9097 20.0441C40.6356 19.6882 40.6747 19.5696 41.0272 19.2928ZM38.5596 13.9146C38.6771 13.9937 38.7946 13.9937 38.8338 14.0728C38.8729 14.1123 38.8338 14.1914 38.7946 14.2705C38.7163 14.2309 38.6379 14.2309 38.5596 14.1914C38.5204 14.1519 38.5596 14.0332 38.5596 13.9146ZM38.4421 16.6037C38.7163 16.2478 38.8729 16.2478 39.1863 16.6037C39.343 16.8014 39.5388 16.9991 39.6955 17.1969C39.9305 17.4737 40.2047 17.7505 40.4005 18.0669C40.5572 18.2646 40.3222 18.7787 40.0872 18.8578C40.0088 18.8578 39.8522 18.8182 39.813 18.7391C39.5388 18.4228 39.2255 18.1064 38.9904 17.7505C38.9121 17.6714 38.9121 17.4737 38.9513 17.355C39.0296 16.9991 38.9904 16.9596 38.5987 16.92C38.5204 16.92 38.4421 16.8805 38.3637 16.8805C38.3637 16.7619 38.4029 16.6432 38.4421 16.6037ZM38.5596 17.79C38.5987 17.7505 38.6771 17.8691 38.7554 17.9087C38.7163 17.9878 38.6771 18.1064 38.5987 18.146C38.5596 18.1855 38.4421 18.1064 38.3246 18.0273C38.4421 17.9087 38.4812 17.79 38.5596 17.79ZM37.3062 8.77366C37.4628 8.81321 37.5803 8.85275 37.7762 8.93184C37.7762 9.12957 37.8154 9.24821 37.8154 9.40639C37.6587 9.3273 37.4628 9.24821 37.3062 9.12957C37.267 9.05048 37.3062 8.8923 37.3062 8.77366ZM35.8177 13.1632C36.0919 12.9259 36.1311 12.9259 36.4836 13.3214C36.7186 13.5982 36.9536 13.875 37.1887 14.1519C37.4237 14.4287 37.6979 14.7055 37.9329 15.0219C38.2071 15.3778 38.2071 15.4569 37.9329 15.6941C37.6195 15.9314 37.5412 15.9314 37.2278 15.615C37.1103 15.4964 36.9928 15.3382 36.8753 15.18C36.5228 14.745 36.1703 14.3496 35.8569 13.9146C35.4652 13.4796 35.5044 13.4005 35.8177 13.1632ZM33.115 9.64366C33.3109 9.68321 33.4284 9.72275 33.5067 9.80184C33.6634 9.92048 33.6242 10.0787 33.4676 10.1578C33.3109 10.2368 33.0759 10.2764 32.9192 10.3159C32.9584 10.1182 33.0367 9.92048 33.115 9.64366ZM31.94 13.44C31.9791 13.3609 32.0183 13.3214 32.0575 13.2423C32.2925 12.9655 32.3317 12.7282 32.0575 12.4514C31.9791 12.3723 31.94 12.1746 31.9791 12.0559C32.0575 11.8978 32.2141 11.8978 32.41 11.9768C32.9975 12.1746 32.9975 12.1746 32.645 12.6491C32.5275 12.8073 32.4883 12.9655 32.645 13.1237C32.7625 13.2819 32.88 13.5191 33.115 13.4005C33.4676 13.2028 33.7418 13.5982 34.0551 13.5587C34.0943 13.5587 34.1726 13.7564 34.1726 13.8355C34.2118 14.2705 34.4076 14.5078 34.8385 14.6659C34.9168 14.7055 35.0343 14.8241 35.0343 14.9032C35.0735 15.2196 35.2694 15.5359 34.956 15.8128C34.956 15.8128 35.0735 16.05 35.1518 16.05C35.4652 16.0896 35.7394 16.05 36.0527 16.0896C36.2878 16.0896 36.6011 16.4455 36.5619 16.6828C36.5619 16.841 36.4836 17.0782 36.5228 17.1573C36.6795 17.3155 36.8753 17.4737 37.1103 17.5528C37.6195 17.711 37.6195 17.79 37.7762 18.3437C37.8937 18.7391 38.2462 19.095 38.5204 19.451C38.8338 19.886 39.2255 20.2814 39.578 20.7164C39.813 20.9932 39.5388 21.1119 39.3038 21.3096C39.1471 21.5073 38.9121 21.4678 38.7163 21.2305C38.5596 21.0328 38.3637 20.8746 38.0504 20.9141C37.8154 20.9537 37.5803 20.5187 37.5803 20.2023C37.6195 19.7278 37.1103 19.1741 36.6403 19.1741C36.4053 19.1741 36.2878 19.0555 36.3661 18.8973C36.5228 18.581 36.3661 18.4228 36.2094 18.2646C35.191 17.0782 34.1726 15.8523 33.1934 14.6659C32.9975 14.4287 32.8409 14.2309 32.645 13.9937C32.4883 13.7959 32.3317 13.5587 31.9791 13.6773C31.94 13.7564 31.8616 13.5982 31.94 13.44ZM32.5667 18.0273C32.5275 18.225 32.5667 18.3832 32.4883 18.4228C32.41 18.4623 32.2141 18.4623 32.175 18.3832C32.1358 18.3041 32.0966 18.146 32.175 18.0669C32.2141 18.0273 32.3708 18.0669 32.5667 18.0273ZM31.2349 16.6828C31.2741 16.7223 31.2741 16.841 31.2741 16.92C31.1957 16.92 31.0782 16.9596 30.9999 16.92C30.9607 16.92 30.9607 16.7619 30.9607 16.6432C31.0782 16.6432 31.1957 16.6432 31.2349 16.6828ZM29.629 20.9141C29.9032 20.5978 30.099 20.5582 30.4515 20.7955C30.6865 20.5978 30.9216 20.4396 31.1174 20.2023C31.1566 20.1628 31.1957 20.1232 31.2349 20.0837C31.2349 20.0441 31.2349 20.0046 31.1957 19.965C31.1566 19.8069 31.0391 19.5696 31.3133 19.53C31.4308 19.53 31.5483 19.7278 31.7441 19.8464C31.7049 19.9255 31.6658 20.0441 31.6266 20.1232C31.6658 20.1628 31.6658 20.2023 31.7049 20.2419C31.9008 20.0441 32.1358 19.965 32.2925 20.2419C32.3708 20.3605 32.41 20.5187 32.4492 20.6769C32.2925 20.6373 32.1358 20.5978 32.0183 20.5187C31.9008 20.4396 31.7833 20.321 31.7049 20.2419C31.4699 20.4396 31.1957 20.6373 30.9999 20.835C30.7649 21.0328 30.569 20.9932 30.4124 20.7955C30.2165 20.9537 30.0598 21.1119 29.864 21.2305C29.7856 21.2701 29.629 21.2305 29.5115 21.2305C29.5898 21.1514 29.5898 20.9932 29.629 20.9141ZM28.2972 19.5696C28.3364 19.3323 28.5714 19.2928 28.8064 19.451L28.8456 19.4905C29.0023 19.5696 29.3156 19.2928 29.3548 19.6091C29.394 19.8069 29.1589 20.0441 29.0806 20.2023C28.8848 20.2814 28.7672 20.3605 28.6106 20.4396C28.5322 20.4791 28.3756 20.4396 28.3756 20.4396C28.3364 20.1232 28.258 19.8464 28.2972 19.5696ZM28.1797 22.8123C28.2972 22.8519 28.4147 22.8519 28.4539 22.8914C28.6106 23.0496 28.7281 23.2078 28.8456 23.366C28.9239 23.4451 29.0414 23.5241 29.1198 23.6428C29.2764 23.8405 29.629 23.366 29.629 23.801C29.629 23.9987 29.5506 24.1964 29.6681 24.3941C29.7073 24.4337 29.6681 24.5523 29.629 24.5919C29.394 24.8291 29.1198 25.0664 28.8848 25.2642C28.8064 25.3037 28.6889 25.3037 28.5714 25.3432C28.5714 25.3037 28.5322 25.2642 28.5322 25.1851C28.5714 25.0664 28.6106 24.9478 28.6889 24.8687C29.1198 24.3546 29.1198 24.3546 28.7281 23.8405C28.5322 23.6032 28.3364 23.366 28.1797 23.1287C28.1405 23.0496 28.1797 22.931 28.1797 22.8123ZM27.4747 18.3832C27.2396 18.5414 27.083 18.3832 26.8871 18.1064C26.8871 18.0273 26.8871 17.8691 26.9263 17.711C27.1221 17.79 27.318 17.8296 27.5138 17.9482C27.6705 18.0669 27.6705 18.2646 27.4747 18.3832ZM26.2212 13.8355C26.6129 13.5191 26.7304 13.5191 27.1221 13.875C27.2005 13.9541 27.2788 14.0332 27.2788 14.1123C27.318 14.2705 27.318 14.4287 27.3572 14.5869C27.2396 14.5473 27.083 14.5078 26.9655 14.4682C26.8088 14.3891 26.6521 14.31 26.4954 14.2705C26.3779 14.2309 26.2604 14.2309 26.1429 14.1914C26.1821 13.9937 26.2212 13.875 26.2212 13.8355ZM25.9862 16.5641C26.1037 16.485 26.2996 16.5641 26.5346 16.6037C26.5346 16.8805 26.6129 17.1178 26.5346 17.1969C26.2996 17.3946 26.1429 17.0782 25.9862 16.9991C25.8295 16.8805 25.7904 16.6828 25.9862 16.5641Z" fill="#FEFEFE"/>
<path d="M27.1218 26.8064C27.1218 26.6483 27.0435 26.4901 27.0043 26.3319C27.0043 26.2924 26.9652 26.2528 26.9652 26.2528L26.8477 26.9251C26.926 26.846 27.0435 26.846 27.1218 26.8064Z" fill="#FEFEFE"/>
<path d="M27.6715 27.4787C27.5148 27.4391 27.3581 27.36 27.2798 27.2018C27.1231 27.2414 26.9273 27.2809 26.7706 27.3205L26.4572 29.2582C26.4964 29.4955 26.4964 29.6537 26.3789 29.7723L28.6899 28.5464C28.6507 28.5464 28.6116 28.5464 28.5724 28.5068C28.259 28.4673 27.9849 28.1905 28.024 27.8741C28.024 27.5973 27.9457 27.5182 27.6715 27.4787Z" fill="#FEFEFE"/>
<path d="M33.7819 5.96592C34.2519 5.88683 34.7611 5.76819 35.2312 5.64955C35.427 5.61001 35.662 5.53092 35.7012 5.2541C35.7404 5.09591 35.897 5.01682 36.0145 5.09591L34.957 3L33.5469 5.88683C33.6252 5.92637 33.7036 5.96592 33.7819 5.96592Z" fill="#FEFEFE"/>
<path d="M28.4591 53.3354C28.761 53.691 29.0126 53.9958 29.3145 54.3514C29.5157 54.5546 29.6164 54.7577 29.3648 54.9609C29.1635 55.1641 28.9623 55.0117 28.8113 54.8593C28.5094 54.5038 28.2075 54.0974 27.8553 53.7418C27.6541 53.4878 27.4528 53.2338 27.2516 52.9798L19.3019 50.2875C19.2013 50.2875 19.1509 50.3383 19.0503 50.3383C18.9497 50.3383 18.7987 50.2875 18.6981 50.2368C18.6981 50.186 18.7484 50.1352 18.7484 50.1352L13.4151 48.3572C13.3145 48.408 13.2642 48.4588 13.2138 48.5096C13.0126 48.7128 12.8113 48.916 12.6101 49.0176C12.5094 49.0684 12.2579 49.0684 12.2075 49.0176C12.0063 48.6112 11.7044 48.7128 11.3522 48.662C11.2013 48.662 11.1006 48.6112 11 48.5096V58.974L11.7547 59.2279C11.7547 59.0248 11.9057 58.974 12.2579 58.8724C12.7107 58.7708 12.761 58.8216 12.9119 59.3803C12.9119 59.4819 12.9623 59.5327 12.9623 59.6343L19.7044 61.9202C19.7547 61.8694 19.805 61.8694 19.8553 61.8186C20.2075 61.6662 20.1572 61.3614 20.0566 61.1075C19.956 60.7519 19.956 60.2947 19.4025 60.1931C19.3019 60.1931 19.2013 59.9391 19.2013 59.7867C19.2013 59.6851 19.3522 59.5835 19.4528 59.5327C19.956 59.3295 20.1572 59.4311 20.3585 59.9391C20.4088 60.1423 20.4591 60.3455 20.5094 60.5487C20.5597 60.7519 20.6101 60.9551 20.6101 61.1583C20.7107 61.5138 20.761 61.8694 20.8616 62.225L33.1887 66.3904C33.3396 66.2888 33.4403 66.1364 33.5409 65.8824C33.5409 65.8316 33.7925 65.7808 33.7925 65.8316C33.9937 66.0856 34.1447 66.3904 34.1447 66.6952L35.0503 67L36.6101 66.4412C36.5597 66.3904 36.5094 66.2888 36.4591 66.2888C36.3082 65.8316 36.2579 65.5777 36.6604 65.4253C36.7107 65.4253 36.761 65.3237 36.8113 65.2729C36.9119 65.1713 36.8113 64.8157 37.0629 64.8157C37.1132 64.6633 37.1132 64.4601 37.0126 64.3077C37.1635 64.2569 37.3145 64.1553 37.4151 64.2061C37.6667 64.3585 37.8679 64.5109 38.0189 64.7141C38.0692 64.6125 38.0692 64.5617 38.1698 64.4601C38.2201 64.4093 38.4214 64.5109 38.4717 64.5617C38.673 64.8665 38.9245 64.7649 39.1761 64.7141C39.7296 64.5617 40.3333 64.4093 40.8868 64.3077C41.1887 64.2569 41.4403 64.1553 41.4403 63.7997C41.4403 63.6981 41.5912 63.5965 41.6415 63.5965C41.7421 63.5965 41.8428 63.6981 41.8931 63.7489C42.1447 64.1045 42.1447 64.3585 41.9434 64.5109L50.195 61.6662C50.2956 61.5138 50.3962 61.3614 50.4969 61.2091C50.6478 61.1583 50.7987 61.0567 50.8994 61.0567C51.0503 61.0059 51.3019 60.9551 51.4025 61.0059C51.5031 61.0567 51.5031 61.1583 51.5031 61.2091L54.0692 60.3455C54.0189 60.2947 54.0189 60.2947 53.9686 60.2439C53.6164 59.7867 53.6667 59.4819 54.0692 59.1263C54.4214 58.8216 54.522 58.8724 54.9245 59.3803C55.0755 59.5835 55.2767 59.7867 54.9748 60.0915L57.088 59.3803C56.8365 59.0756 56.5849 58.7708 56.434 58.3644C56.283 58.0596 56.434 57.6024 56.4843 57.196C56.4843 57.1452 56.7862 57.0944 56.8365 57.1452C57.088 57.2976 57.2893 57.5008 57.4906 57.704C57.7421 58.0088 57.9434 58.3644 58.2453 58.72C58.2956 58.7708 58.3459 58.8216 58.3962 58.8724L58.8491 58.72V47.2397L58.195 47.4429C58.195 47.4937 58.195 47.5953 58.195 47.6461C58.0943 47.6461 57.8931 47.6461 57.7924 47.5953L34.8994 55.3165L28.4591 53.3354ZM11.5031 51.4051C11.5535 51.2527 11.6038 51.0495 11.7044 51.0495C11.805 50.9987 11.956 51.1511 12.0566 51.2527C12.1069 51.3035 12.1572 51.4559 12.1572 51.5575C12.2075 51.8115 12.3082 52.1163 11.956 52.2179C11.6038 52.3195 11.5535 52.0147 11.5031 51.8115C11.5535 51.6083 11.5031 51.5067 11.5031 51.4051ZM12.8113 55.5197C12.6101 55.6721 12.3082 55.6721 12.1069 55.4181C11.956 55.2149 11.805 55.0117 11.7044 54.9101C11.7044 54.5038 11.5031 54.199 11.9057 54.0466C12.3585 53.8942 12.6101 53.945 12.8113 54.3514C12.9119 54.5546 12.9623 54.7577 12.9623 54.9609C13.0126 55.1641 12.9119 55.4181 12.8113 55.5197ZM15.3774 50.8463L15.5283 50.8971C15.5283 50.9479 15.5283 51.0495 15.5283 51.2019C15.3774 51.1003 15.2767 51.1003 15.2767 50.9987C15.2264 50.9987 15.327 50.8971 15.3774 50.8463ZM15.6792 53.0814C16.1321 52.929 16.1321 53.3354 16.2327 53.5894C16.3836 54.0974 16.283 54.2498 15.8805 54.3514C15.5786 54.4022 15.327 54.453 15.2264 54.0466C15.1258 53.4878 15.2767 53.183 15.6792 53.0814ZM15.9811 59.1771C15.5283 59.3295 15.0755 59.4311 14.6226 59.5835C14.2704 59.6851 14.0692 59.5327 14.0189 59.1771C13.9686 58.8724 13.8176 58.5676 14.2704 58.4152C14.522 58.3644 14.7736 58.2628 15.0252 58.212C15.327 58.1104 15.5786 58.0596 15.5786 57.6532C15.5786 57.2468 16.0314 57.2468 16.283 57.2976C16.4843 57.2976 16.6352 57.6024 16.6855 57.6532C16.8868 58.3136 16.4843 59.0248 15.9811 59.1771ZM19.2516 58.3136C19.0503 58.3644 18.8994 58.4152 18.6981 58.466C18.3962 58.5168 18.0943 58.6692 18.0943 59.0248C18.0943 59.0755 17.9434 59.1771 17.8931 59.1771C17.6415 59.1263 17.4403 58.3136 17.6415 58.1104C17.9434 57.7548 18.3459 57.45 18.4465 56.9928C18.4465 56.942 18.5975 56.8405 18.6478 56.8405C18.9497 56.942 19.2013 56.9928 19.4528 57.1452C19.6038 57.2468 19.6541 57.45 19.6541 57.5008C19.8553 58.1104 19.805 58.1612 19.2516 58.3136ZM20.2579 53.5894C20.1069 53.437 19.9057 53.2338 19.6541 53.0306C19.805 52.8274 19.9057 52.6242 20.0063 52.5734C20.2579 52.4718 20.4088 52.7258 20.4088 52.929C20.4088 53.1322 20.3082 53.3862 20.2579 53.5894ZM23.5786 52.675C23.6289 52.5734 23.7296 52.4718 23.9308 52.2687C24.0314 52.2687 24.283 52.1671 24.3333 52.2687C24.5346 52.5226 24.5849 52.7766 24.7358 53.0814C24.7358 53.0814 24.6855 53.183 24.6352 53.183C24.283 53.1322 23.9308 53.1322 23.6289 53.0814C23.5786 53.0306 23.5283 52.7766 23.5786 52.675ZM21.7673 61.9202C21.6667 61.8694 21.6164 61.8186 21.4654 61.7678C21.566 61.6662 21.566 61.5646 21.6164 61.5138C21.717 61.5646 21.8176 61.6154 21.8679 61.717C21.9182 61.717 21.8176 61.8186 21.7673 61.9202ZM22.9245 57.3484C22.4717 57.45 22.0692 57.6024 21.6667 57.704C21.0629 57.8564 20.9623 57.8056 20.8616 57.196C20.761 56.942 20.8113 56.6881 21.1132 56.5357C21.2642 56.4341 21.9182 56.2309 22.1195 56.2817C22.2704 56.3325 22.4214 56.2817 22.522 56.2817C23.0252 56.3325 23.1761 56.4341 23.2264 56.942C23.2264 57.196 23.1258 57.2976 22.9245 57.3484ZM24.1321 61.3107C24.0314 61.4122 23.8805 61.5646 23.8302 61.6662C23.7799 61.8694 23.7296 62.0726 23.5283 62.0218C23.3774 61.971 23.327 61.7678 23.2767 61.717C23.1258 61.1075 23.5283 60.7011 24.0314 60.8535C24.2327 60.9551 24.283 61.1075 24.1321 61.3107ZM24.3333 58.7708C24.2327 58.4152 24.2327 58.2628 24.7862 58.1104C24.8868 58.1612 25.1887 58.212 25.3396 58.3644C25.6415 58.6692 25.6918 59.0248 25.5912 59.3803C25.6415 59.3803 25.5912 59.6343 25.5409 59.6851C25.4403 59.7359 25.2893 59.7359 25.088 59.7359C25.1384 59.6343 25.1384 59.5327 25.1384 59.4311C24.8365 59.2787 24.434 59.1771 24.3333 58.7708ZM26.0943 61.3614C25.6415 61.6662 25.7925 62.0218 25.7421 62.4282C25.7421 62.5298 25.6415 62.6314 25.5912 62.733C25.4906 62.6822 25.3899 62.5806 25.3396 62.5298C25.239 62.2758 25.1384 62.0218 25.088 61.8186C24.8868 61.3107 24.9371 61.2091 25.5409 61.0567C25.5912 61.0567 25.7421 61.0059 25.8931 61.0059C26.1447 61.0059 26.2453 61.2598 26.0943 61.3614ZM26.6478 55.8245C26.4969 55.5197 26.4465 55.2657 26.8491 55.0625C26.9497 55.0117 27 54.8593 27.0503 54.7069C27.2516 54.2498 27.805 54.199 28.1572 54.5546C28.2579 54.6562 28.3082 54.7069 28.4088 54.7577C28.5094 54.8593 28.6604 54.9101 28.761 54.9609C28.6604 55.0625 28.5597 55.1133 28.4591 55.2149C28.2579 55.4181 28.0566 55.6213 27.805 55.8245C27.7044 55.9261 27.5535 55.9769 27.4025 56.0785C27.0503 56.2817 26.7987 56.1801 26.6478 55.8245ZM28.5094 60.7011C28.3585 60.6503 28.2579 60.4471 28.1572 60.3963C27.956 60.3455 27.7044 60.3455 27.7547 60.0407C27.805 59.8883 28.0063 59.8375 28.1572 59.6851C28.3585 59.7359 28.6604 59.7359 28.7107 59.8375C28.8616 60.0407 28.8616 60.2947 28.8616 60.5487C28.8616 60.6503 28.6101 60.7519 28.5094 60.7011ZM28.9623 58.7708C28.8616 58.7708 28.761 58.72 28.5597 58.6692C28.6604 58.5168 28.7107 58.3644 28.761 58.3644C28.8616 58.3644 29.0126 58.466 29.0629 58.5168C29.1132 58.5676 29.0126 58.7708 28.9623 58.7708ZM32.1321 58.2628C32.1824 58.212 32.3836 58.2628 32.5849 58.2628C32.5346 58.466 32.5346 58.6184 32.434 58.6692C32.3333 58.72 32.1321 58.6692 32.0818 58.6184C32.0314 58.5168 32.0818 58.3136 32.1321 58.2628ZM29.717 61.9202C29.566 61.8186 29.4654 61.7678 29.4654 61.717C29.4654 61.6154 29.5157 61.5138 29.5157 61.4122C29.566 61.463 29.717 61.463 29.717 61.5138C29.717 61.6154 29.717 61.717 29.717 61.9202ZM29.9686 55.9769C30.1698 55.8245 30.3208 55.7737 30.6226 55.9261C30.9245 56.0785 31.327 55.8753 31.6289 56.2817C31.8805 56.6373 31.7296 56.8405 31.5786 57.1452C31.5283 57.2468 31.4277 57.2976 31.3774 57.3484C31.3774 57.3992 31.4277 57.3992 31.4277 57.45C31.5283 57.8056 31.3774 58.2628 31.1761 58.212C30.9748 58.1612 30.8742 57.958 30.673 57.7548C30.7736 57.5516 30.8239 57.3992 30.9245 57.2468C30.8239 57.1452 30.673 57.196 30.522 57.1452C30.3208 57.0944 30.1195 57.0436 29.9686 56.942C29.4654 56.5357 29.4654 56.3833 29.9686 55.9769ZM34.9497 65.9332C34.8491 65.9332 34.7484 65.8316 34.5975 65.7808C34.6981 65.6285 34.7987 65.4761 34.8491 65.5269C34.9497 65.5269 35.0503 65.6285 35.1509 65.7301C35.1509 65.7301 35 65.9332 34.9497 65.9332ZM55.9811 53.7418C56.0314 53.5894 56.0314 53.437 56.0818 53.2846C56.1321 53.1322 56.1321 52.9798 56.2327 52.929C56.3333 52.8782 56.4843 52.9798 56.5849 53.0306C56.7358 53.1322 56.8365 53.2338 56.8868 53.3354C57.3396 53.8942 57.3396 54.2498 56.9371 54.6561C56.8365 54.7069 56.7358 54.8085 56.6352 54.8085C56.3333 54.7577 55.8805 54.0466 55.9811 53.7418ZM54.9245 52.4718C54.9748 52.421 55.1258 52.3703 55.2767 52.3195C55.2264 52.4718 55.2767 52.6242 55.2264 52.675C55.1258 52.7258 55.0252 52.7258 54.9245 52.7258C54.9245 52.6242 54.8742 52.5226 54.9245 52.4718ZM54.2704 55.2657C54.3711 55.2149 54.6226 55.3165 54.7736 55.4181C54.8742 55.4689 54.9748 55.6213 55.0755 55.7229C55.1258 55.7737 55.1258 55.8245 55.1761 55.8753C55.7296 55.7229 56.283 55.5705 56.7862 55.4689C57.2893 55.3673 57.5912 55.4689 57.6918 55.7737C57.7421 55.7229 57.8428 55.6721 57.8931 55.6213C58.0943 56.0277 58.7987 55.3165 58.8491 56.0277C58.8491 56.1801 58.5472 56.4341 58.3459 56.5357C58.195 56.5865 57.9937 56.4341 57.8428 56.3833C57.7924 56.3325 57.7924 56.2817 57.7421 56.2309C57.7421 56.3325 57.5912 56.4849 57.4403 56.5865C57.1887 56.6881 56.9371 56.7389 56.6855 56.7897C56.6855 56.7897 56.6855 56.7897 56.6855 56.7389C56.434 56.8405 56.1321 56.942 55.8805 56.9928C55.4277 57.0436 55.6792 57.7548 55.2264 57.6532C54.9245 57.6024 54.7736 57.2468 54.3711 57.3484C53.8679 57.45 53.717 57.2976 53.566 56.8405C53.4654 56.5357 53.5157 56.3325 53.8176 56.2309C53.8679 56.1801 53.9686 56.1801 54.0189 56.1801C54.0189 56.0277 54.0189 55.9261 54.0692 55.7737C54.1195 55.5705 54.1698 55.3165 54.2704 55.2657ZM53.8679 53.945C53.7673 53.945 53.6163 53.945 53.566 53.8942C53.5157 53.7926 53.5157 53.6402 53.4654 53.5386C53.566 53.5386 53.6667 53.5894 53.8176 53.5894C53.8679 53.691 53.8679 53.8434 53.8679 53.945ZM53.3145 50.3891C53.5157 50.4907 53.6667 50.4907 53.717 50.5923C53.7673 50.6431 53.717 50.8971 53.6667 50.8971C53.566 50.9479 53.3648 50.9479 53.3145 50.8463C53.2641 50.7955 53.3145 50.6431 53.3145 50.3891ZM53.0629 57.196C53.0629 57.2468 53.0629 57.2468 53.0629 57.196C53.9182 58.1104 53.8679 58.212 52.761 58.9232C52.4088 59.1263 52.1572 59.4819 51.8553 59.7359C51.7044 59.8375 51.5031 59.9391 51.3522 59.8883C51.1006 59.7867 51.2013 59.5835 51.2516 59.3295C51.3019 58.8216 51.3522 58.4152 51.805 58.1104C51.8553 58.1104 51.8553 58.0596 51.8553 58.0088C51.7547 58.0596 51.7044 58.0596 51.6038 58.1104C51.5031 58.1104 51.4025 58.212 51.2516 58.212C51.1509 58.212 50.9497 58.1612 50.8994 58.0596C50.8491 57.958 50.8491 57.8056 50.8994 57.6532C51 57.45 51.1006 57.2468 51.2516 57.0944C51.3522 56.9928 51.5031 56.8913 51.6038 56.8405C51.7044 56.8405 51.7547 56.8404 51.8553 56.7897C51.9057 56.6881 51.956 56.5357 52.0566 56.4849C52.1069 56.4341 52.3585 56.4849 52.4088 56.5865C52.4591 56.6373 52.5094 56.6881 52.5597 56.7389C52.9119 56.6881 52.9623 56.8405 53.0629 57.196ZM52.5094 53.6402C52.6101 53.691 52.7107 53.7418 52.761 53.8434C52.8113 53.8942 52.7107 53.9958 52.6604 54.1482C52.5597 54.0466 52.4591 53.9958 52.4591 53.8942C52.4088 53.8434 52.4591 53.7418 52.5094 53.6402ZM51.1509 50.6939C51.2013 50.6431 51.5031 50.7955 51.7044 50.8971C51.805 50.9479 51.9057 51.0495 52.0063 51.1511C52.1572 51.5067 52.5597 51.7607 52.2579 52.2687C52.2075 52.3703 52.2579 52.5226 52.2579 52.6242C52.3585 52.9798 52.2075 52.9798 51.9057 52.929C51.7547 52.8782 51.5535 52.929 51.3522 52.9798C51.0503 53.0306 50.7987 52.8782 50.9497 52.6242C51.1509 52.2687 50.9497 52.0655 50.8491 51.8115C50.7987 51.7099 50.6981 51.5575 50.7484 51.4559C50.8491 51.1511 50.9497 50.8971 51.1509 50.6939ZM50.3962 55.4181C50.4465 55.3673 50.6478 55.3673 50.7987 55.3673C50.7987 55.5197 50.7987 55.6721 50.7484 55.7229C50.6478 55.7737 50.4969 55.7737 50.3962 55.7737C50.3459 55.6721 50.2956 55.4689 50.3962 55.4181ZM49.0377 56.8912C49.1887 56.9928 49.3396 57.1452 49.4906 57.196C49.5912 57.2468 49.6918 57.2468 49.8428 57.2976C50.1446 57.3992 50.3962 57.8564 50.3459 58.1612C50.2956 58.3644 49.5409 58.6692 49.3396 58.5168C49.1887 58.4152 49.1384 58.1612 49.0377 58.0596C49.0377 57.8056 48.9874 57.6532 48.9874 57.5008C48.9874 57.2976 49.0377 57.0944 49.0377 56.8912ZM48.9371 56.2309C48.8868 56.3325 48.8868 56.4341 48.8365 56.5357C48.8365 56.5865 48.6352 56.5357 48.5849 56.4849C48.5346 56.4341 48.4843 56.3325 48.434 56.1801C48.7358 56.2309 48.8365 56.2309 48.9371 56.2309ZM48.2327 59.1771C48.4843 59.4819 49.0377 58.8724 49.1384 59.4311C49.1887 59.5327 48.9371 59.7359 48.7862 59.9391C48.6352 59.9391 48.3333 60.0915 48.283 59.9899C48.1321 59.7867 48.0314 59.4819 47.8805 59.2279C48.0314 59.2279 48.1824 59.1263 48.2327 59.1771ZM47.7296 58.5168C47.7799 58.5168 47.9308 58.6692 47.9811 58.72C47.8805 58.8216 47.7799 58.9232 47.6792 59.0248C47.6289 59.0755 47.5283 58.9232 47.327 58.8724C47.478 58.72 47.5786 58.5676 47.7296 58.5168ZM47.1761 53.4878C47.2264 53.437 47.327 53.4878 47.478 53.4878C47.4277 53.6402 47.3774 53.7418 47.327 53.7926C47.2767 53.8434 47.1761 53.7926 47.0755 53.7926C47.1258 53.691 47.1258 53.5894 47.1761 53.4878ZM46.8239 55.0625C46.9245 55.0625 47.0252 55.1641 47.1258 55.2149C47.0755 55.3165 47.0252 55.4689 46.9748 55.5197C46.8742 55.5705 46.7736 55.4689 46.5723 55.4181C46.673 55.2657 46.7233 55.1133 46.8239 55.0625ZM45.9182 55.5705C45.9686 55.5705 45.9182 55.6721 45.9182 55.7737C45.8176 55.7737 45.7673 55.7737 45.6667 55.7737C45.6164 55.7737 45.6667 55.6721 45.6667 55.5197C45.7673 55.5197 45.8679 55.5197 45.9182 55.5705ZM46.3208 58.3136C46.3711 58.3136 46.522 58.466 46.522 58.5168C46.4717 58.7708 46.4214 59.1771 46.2704 59.2787C45.7673 59.5327 45.2138 59.6343 44.7107 59.7359C44.6604 59.7359 44.5094 59.3295 44.5094 59.1263C44.5094 58.974 44.6604 58.7708 44.761 58.72C44.9623 58.6184 45.2138 58.5676 45.4151 58.5168V58.466C45.7673 58.4152 46.0189 58.3136 46.3208 58.3136ZM44.0566 54.3514C44.2579 54.199 44.3585 54.1482 44.4591 54.0974C44.761 53.9958 44.9119 54.199 44.9623 54.453C44.9623 54.5038 44.8113 54.6561 44.7107 54.7577C44.6604 54.8085 44.5597 54.8085 44.4591 54.8593C44.3082 54.8593 44.1069 54.8593 43.956 54.8593C44.0063 54.6562 44.0063 54.453 44.0566 54.3514ZM43.9057 55.8245C43.956 55.7737 44.1572 55.8245 44.2075 55.9261C44.3082 56.0277 44.3082 56.1801 44.3585 56.3325C44.3585 56.4341 44.3585 56.5865 44.3082 56.7389C44.3082 56.7897 44.1069 56.8405 44.1069 56.8405C44.0063 56.6373 43.8553 56.4341 43.805 56.1801C43.7547 56.0785 43.8553 55.8753 43.9057 55.8245ZM43.7044 63.4442C43.9057 63.5457 44.0566 63.5458 44.1069 63.5965C44.1572 63.6473 44.1069 63.8505 44.0566 63.9013C43.956 63.9521 43.7547 63.9521 43.7044 63.8505C43.6038 63.7997 43.7044 63.6473 43.7044 63.4442ZM42.1447 56.0785C42.4465 56.0277 42.5975 56.1801 42.6981 56.6373C42.7987 57.1452 42.7484 57.2976 42.3459 57.3992C41.8428 57.5008 41.5912 57.3484 41.4403 56.7897C41.4403 56.4849 41.7421 56.1293 42.1447 56.0785ZM42.4465 60.6503C42.4969 60.7011 42.6478 60.8535 42.7484 61.0059C43.0503 61.463 43 61.7678 42.5472 62.0726C42.4465 62.1234 42.2956 62.1742 42.2453 62.1234C41.6918 61.8694 41.1887 61.7678 40.5849 62.0218C40.3836 62.1234 39.9308 61.3614 40.0818 61.1583C40.1321 61.1075 40.283 61.0567 40.3333 61.1075C40.8365 61.4122 41.0377 60.9551 41.2893 60.7011C41.3396 60.6503 41.239 60.4471 41.1384 60.3455C41.088 60.2947 40.9371 60.3963 40.8868 60.3455C40.7862 60.2439 40.6855 60.0915 40.6352 59.9899C40.7358 59.9391 40.8868 59.8375 40.9874 59.8375C41.7421 59.8883 41.7421 59.8883 42.4465 60.6503ZM40.7358 54.8593C40.7862 54.8593 40.8365 54.9609 40.8868 55.0117C40.8365 55.0625 40.7862 55.1641 40.6855 55.1641C40.6352 55.1641 40.5346 55.1133 40.3836 55.0625C40.5849 54.9609 40.6352 54.9101 40.7358 54.8593ZM39.9308 54.2498C40.0314 54.3006 40.2327 54.3514 40.2327 54.453C40.283 54.5546 40.1824 54.7069 40.1321 54.9609C39.9308 54.8085 39.7799 54.7577 39.7799 54.6561C39.7296 54.5038 39.8805 54.4022 39.9308 54.2498ZM40.3836 56.6373C40.434 56.6373 40.6352 56.6373 40.7358 56.7389C40.8868 56.942 40.7358 57.0436 40.5849 57.196C40.4843 57.2976 40.4843 57.5008 40.3836 57.6024C40.283 57.704 40.1321 57.8564 40.0314 57.8564C39.9308 57.8564 39.7799 57.6532 39.7296 57.5516C39.6289 57.0436 39.7799 56.8405 40.3836 56.6373ZM39.8805 58.466C40.0818 58.72 40.4843 58.9232 40.1824 59.3803C40.0314 59.6343 39.9811 60.0407 39.8302 60.2947C39.5283 60.7519 39.327 60.7519 38.9748 60.3455C38.7736 60.1423 38.6226 59.9391 38.4214 59.6851C38.2704 59.4311 38.0189 59.1263 37.8176 58.7708C37.7673 58.6184 37.7673 58.466 37.717 58.3136C37.8679 58.3644 38.0189 58.3644 38.1698 58.4152C38.2201 58.4152 38.2704 58.466 38.2704 58.466C38.5723 58.72 38.8742 58.7708 39.1761 58.466C39.3774 58.3136 39.6289 58.212 39.8805 58.466ZM39.0252 57.1452C39.0755 57.0944 39.2767 57.0944 39.3774 57.1452C39.4277 57.1452 39.478 57.3484 39.4277 57.45C39.3774 57.5516 39.2264 57.6532 39.1258 57.8056C39.0252 57.8564 38.8742 57.9072 38.7736 57.958C38.7233 57.958 38.5723 57.8056 38.5723 57.8056C38.7233 57.5516 38.8742 57.2976 39.0252 57.1452ZM37.0126 55.5705C37.1635 55.6213 37.2641 55.6721 37.3145 55.7229C37.3648 55.7737 37.3145 55.8753 37.3145 55.9769C37.2138 55.9769 37.1132 55.9261 37.0126 55.8753C36.9623 55.8753 37.0126 55.7229 37.0126 55.5705ZM35.5535 57.8564C35.7044 57.8056 35.805 57.704 35.956 57.6532C36.6101 57.5008 37.2642 57.3992 37.8679 57.2976C37.9686 57.2976 38.1195 57.2468 38.2201 57.2468C38.3208 57.2468 38.4214 57.3484 38.4214 57.3992C38.4214 57.5008 38.3711 57.6532 38.3208 57.704C38.0189 57.8056 37.7673 57.9072 37.4654 58.0088C37.0126 58.1104 36.5094 58.1104 36.3585 58.72C36.3082 58.8724 35.805 58.974 35.5535 58.974C35.4528 58.974 35.3019 58.6184 35.2516 58.4152C35.1509 58.1104 35.3522 57.958 35.5535 57.8564ZM35.3522 59.0248C35.3522 59.0755 35.2013 59.2279 35.1006 59.2279C34.4969 59.2279 34.5975 59.2279 34.4465 59.7867C34.3459 60.2947 34.4465 60.5995 34.7987 60.9043C35.0503 61.1583 35.3019 61.463 35.1509 61.9202C35.1006 62.0218 35.2013 62.1742 35.2013 62.3266C35.3522 62.3266 35.4528 62.3266 35.6038 62.2758C36.3082 62.0218 36.4088 62.0218 36.761 62.4282C37.2138 62.9362 36.9623 63.7997 36.3082 64.0537C36.0063 64.1553 35.8553 64.0537 35.7044 63.8505C35.3522 63.4442 35 63.0378 34.6981 62.6314C34.4465 62.3266 34.195 62.0218 33.9434 61.717C33.6918 61.4122 33.2893 61.1583 33.5912 60.6503C33.6415 60.5995 33.4906 60.3963 33.4402 60.2947C33.2893 60.0915 33.1384 59.9391 33.0377 59.6851V59.6343C32.5346 59.7359 32.0314 59.8883 31.5786 60.0407C31.2767 60.1423 30.8742 60.1423 30.9245 60.6503C30.9245 60.7011 30.7736 60.8027 30.673 60.8535C30.6226 60.8535 30.522 60.7519 30.4717 60.7011C30.3208 60.4471 30.2704 60.1931 30.3711 60.0407C30.3711 59.9391 30.3711 59.8375 30.3208 59.7359C30.4717 59.7359 30.6226 59.7359 30.673 59.7867C30.673 59.7867 30.7233 59.7867 30.7233 59.7359C30.9245 59.6343 31.1258 59.5835 31.2264 59.2787C31.2264 59.1771 31.4277 59.0248 31.5786 58.974C31.8302 58.8724 32.0818 58.8216 32.3333 58.7708C32.5346 58.72 32.7358 58.6692 32.9371 58.6184C33.4402 58.5168 33.4906 58.6184 33.5912 59.0755C33.5912 59.1263 33.5912 59.1263 33.5912 59.1771C33.6918 59.1771 33.7925 59.1263 33.8428 59.0755C34.0943 58.9232 34.3459 58.7708 34.5975 58.6184C34.8994 58.466 35.3019 58.6692 35.3522 59.0248Z" fill="#FEFEFE"/>
<path d="M37.3638 65.9841C37.3135 66.0857 37.2129 66.1873 37.2129 66.2888C37.2129 66.3396 37.2129 66.3397 37.2129 66.3904L37.6154 66.2381C37.5651 66.1365 37.4645 66.0857 37.3638 65.9841Z" fill="#FEFEFE"/>
<path d="M38.9238 65.7809L39.7289 65.5269C39.6785 65.5269 39.6785 65.4761 39.6282 65.4761C39.3767 65.4761 39.0748 65.4761 38.9238 65.7809Z" fill="#FEFEFE"/>
<path d="M11 47.4419V47.543C11.0499 47.543 11.1496 47.4924 11.1994 47.4924L11 47.4419Z" fill="#FEFEFE"/>
<path d="M58.9497 33.8958C58.7484 33.6926 58.5975 33.4894 58.7987 33.1338C58.8994 32.9307 58.7484 32.7783 58.4465 32.7783C57.7924 32.7783 57.5409 32.4227 57.5912 31.7115C57.5912 31.5083 57.4906 31.3051 57.3899 31.1019C57.2893 30.8987 57.0377 30.6956 57.3396 30.5432C57.4402 30.4924 57.7421 30.6448 57.8428 30.7464C58.044 30.8987 58.195 31.1527 58.3962 31.3051C58.5975 31.5083 58.7484 31.7115 59 31.8131V29.9336L52.7107 32.0671C52.761 32.1179 52.8113 32.1687 52.8616 32.2195C52.8616 32.2703 52.9623 32.5243 52.8616 32.6767C52.7107 32.9307 52.5094 33.2354 52.1069 33.0831C52.0063 33.0323 51.956 32.9307 51.8553 32.9307C51.3522 33.0323 51.2013 32.8799 51.2013 32.5751L40.9874 36.0293C41.1887 36.1817 41.088 36.3849 40.8868 36.5373C40.5849 36.7913 40.1321 36.8421 40.0818 36.6389C40.0818 36.5373 40.0818 36.4357 40.1321 36.2833L38.4717 36.8421C38.4717 36.8421 38.4717 36.8421 38.522 36.8421C38.7233 36.9945 38.8742 37.1469 39.1761 37.0961C39.2767 37.0453 39.478 37.1977 39.5786 37.2993C39.6289 37.3501 39.6289 37.3501 39.6792 37.4009C40.0818 37.1977 40.6352 37.0961 41.1384 37.0961C41.239 37.0961 41.3396 37.2485 41.4906 37.2993C41.7421 37.3501 41.9937 37.4517 42.195 37.4517C42.4465 37.4517 42.4969 37.2993 42.4969 37.0961C42.4465 36.9437 42.4465 36.7913 42.4465 36.5881C42.4465 36.2325 42.5975 36.1817 42.8994 36.2833C43.0503 36.3341 43.2013 36.4357 43.3019 36.4865C43.6541 36.6389 43.7044 36.7913 43.5031 37.0961C43.4025 37.1977 43.3019 37.2993 43.3019 37.4517C43.3019 37.8072 43.0503 37.858 42.7987 37.9088C42.0943 38.0612 41.4402 38.2644 40.7358 38.4168C40.6855 38.4168 40.6352 38.4168 40.5849 38.4676C40.8365 38.8232 40.7862 38.9248 40.434 39.2296C40.1824 39.4328 39.9811 39.4328 39.7799 39.1788C39.6792 39.0264 39.5283 38.9248 39.4277 38.7724C39.1258 38.8232 38.8239 38.9248 38.5723 38.9756C38.4214 39.0264 38.1698 38.9248 38.1195 38.7724C38.0189 38.5184 38.1698 38.366 38.3711 38.3152C38.5723 38.2644 38.673 38.1628 38.8239 38.0612C38.7233 37.9596 38.673 37.858 38.5723 37.7564C38.3711 37.5024 38.1698 37.1469 37.717 37.4009C37.6667 37.4517 37.5157 37.3501 37.4151 37.2485C37.4151 37.2485 37.4151 37.1977 37.4151 37.1469L35 37.9596L27.6038 35.6229C27.6038 35.6737 27.6038 35.6737 27.6038 35.7245C27.7547 35.9277 27.805 36.1817 27.7547 36.4357V36.4865C28.1572 36.1309 28.4591 36.1817 28.6101 36.6897C28.6604 36.7913 28.5094 36.9945 28.5094 36.9945C27.9057 36.9945 27.5535 37.4009 27.1509 37.7564C26.9497 37.9088 25.9434 37.9596 25.8428 37.7564C25.7925 37.5532 25.8931 37.2993 25.9434 37.0961C26.195 36.9945 26.3962 36.8421 26.4969 36.8929C26.8491 37.0961 27.0503 37.0453 27.3019 36.8929C27.2516 36.8421 27.2516 36.8421 27.2013 36.7913C27.1006 36.6389 27.1006 36.4357 27.0503 36.2325C27.0503 36.1309 27 36.0293 27 35.9785C27 35.8261 26.9497 35.5721 27 35.4197L25.1887 34.8102C25.1384 34.9118 25.1384 35.0134 25.1384 35.0642C25.3396 35.5213 25.088 35.6737 24.7358 35.8769C24.5849 35.9277 24.434 36.0801 24.3333 36.1817C24.1321 36.3341 23.9308 36.4865 24.0314 36.8421C24.0818 36.9437 23.9308 37.1469 23.8302 37.2993C24.3333 37.1977 24.7358 37.1469 25.1384 37.0961C25.239 37.0961 25.3396 37.1469 25.4403 37.1977C25.3899 37.2993 25.3396 37.4009 25.2893 37.4517C24.9371 37.6548 24.5346 37.7564 24.3836 38.1628C24.434 38.2644 24.5346 38.366 24.4843 38.366C24.1824 38.8232 24.5346 39.1788 24.7358 39.5344C24.7862 39.5852 24.7358 39.7884 24.6352 39.8391C24.5849 39.8899 24.434 39.8899 24.3836 39.8899C23.7799 39.5852 23.327 39.0264 23.0252 38.4168C22.9748 38.3152 23.0252 38.0612 23.1258 37.9596C23.1761 37.9088 23.2264 37.858 23.2767 37.8072C23.2264 37.7564 23.1761 37.6548 23.2264 37.5533C23.2264 37.4517 23.478 37.3501 23.5283 37.3501C23.5786 37.3501 23.6289 37.3501 23.6792 37.2993C23.5786 37.1977 23.478 37.0453 23.3774 36.9437C23.2264 36.7405 23.2264 36.5881 23.3774 36.3341C23.5786 36.0293 23.8302 35.8261 23.6792 35.3689C23.5786 35.115 23.8805 34.9118 24.2327 35.0642C24.5346 35.2166 24.6352 35.115 24.5849 34.8102C24.5849 34.7594 24.5849 34.7594 24.5849 34.7086L23.0755 34.099C22.8742 34.2514 22.673 34.1498 22.4717 33.9466C22.4214 33.8958 22.4214 33.8958 22.4214 33.845L20.3082 33.1338C20.4088 33.2862 20.5597 33.4386 20.6604 33.591C20.9119 33.845 21.0629 34.2514 21.5157 33.9974C21.5157 33.9974 21.717 34.1498 21.717 34.2514C21.717 34.7086 21.6667 35.115 21.6667 35.5721C21.6667 35.6737 21.8176 35.8261 21.9182 35.9277C22.0692 36.1309 22.2201 36.2833 22.3208 36.5373C22.3711 36.6897 22.4214 36.9437 22.3208 37.0453C22.1195 37.2485 21.9182 37.1469 21.7673 36.9437C21.6667 36.8421 21.566 36.6897 21.4151 36.5373C21.2642 36.3341 21.1132 36.1309 21.0126 35.9277C20.8616 35.6229 20.7107 35.4705 20.3082 35.4705C20.0566 35.4705 19.7044 35.2674 19.5535 35.0642C19.3019 34.7594 19.6541 34.607 19.805 34.4038C19.8553 34.3022 19.956 34.2514 20.0063 34.2006C20.0566 34.099 20.0566 33.9974 20.0566 33.8958C19.956 33.8958 19.805 33.7942 19.7044 33.845C19.1006 33.9974 18.1447 33.6926 17.8428 33.1846C17.6918 32.8799 17.5409 32.6259 17.7421 32.3211L13.6667 30.9495L13.6164 31.0003C13.5157 31.1527 13.4151 31.3051 13.2642 31.3559C13.1132 31.4575 12.9623 31.4575 12.8113 31.5083C12.2075 31.6607 12.0063 31.6607 11.805 31.3051C11.805 31.3051 11.7547 31.3051 11.7547 31.2543C11.7547 31.2543 11.7547 31.2035 11.7547 31.1019C11.7044 31.0003 11.7044 30.8987 11.6541 30.7972C11.7044 30.6448 11.7044 30.4416 11.7547 30.2384L11 29.9844V38.62C11.3522 38.6708 11.7044 38.874 11.8553 39.2296C11.956 39.5852 11.9057 39.9915 11.805 40.3471C11.7547 40.6011 11.5031 40.4995 11.3522 40.3471C11.2516 40.2455 11.1509 40.1439 11.0503 40.0423V41.4647L16.8868 43.4458C17.2893 43.1918 17.7925 43.141 18.2956 42.9886C18.5975 42.887 18.9497 42.887 19 42.4298C19 42.3282 19.3019 42.2774 19.4528 42.2266C19.5031 42.2266 19.5535 42.2774 19.6541 42.3282C20.1572 42.5314 22.1698 42.0234 22.522 41.5663C22.673 41.3631 22.7736 41.3631 22.9748 41.5155C23.4277 41.8711 23.9308 41.7187 24.1824 41.2107C24.2327 41.1091 24.3836 41.0075 24.4843 40.9059C24.5849 41.0075 24.6855 41.1599 24.7358 41.2615C24.9371 41.7695 24.8868 41.8711 24.3333 42.0234C24.0818 42.125 23.8805 42.1758 23.8302 42.5314C23.7799 42.6838 23.5786 42.8362 23.3774 42.887C22.8742 43.0394 22.3711 43.141 21.8679 43.2934C21.5157 43.395 21.1132 43.395 21.0629 43.903C21.0629 43.9538 20.7107 44.0554 20.7107 44.0046C20.5094 43.5474 19.8553 43.8522 19.6038 43.395C19.4528 43.141 18.2453 43.4966 18.0943 43.8014C18.0943 43.8014 18.0943 43.8014 18.0943 43.8522L25.9434 46.4936H25.9937C25.6918 45.4269 25.6918 45.3761 26.7987 45.1221C28.2075 44.7665 28.0063 44.6649 28.4088 46.0873C28.4088 46.1381 28.4088 46.1889 28.4591 46.2397C28.6604 47.0524 28.6604 47.154 28.0566 47.2556L31.8302 48.5256V48.4748C31.9308 48.4748 32.0314 48.4748 32.3333 48.424C32.283 48.5256 32.2327 48.5764 32.2327 48.6271L34.2956 49.3383C34.2956 49.3383 34.2956 49.3383 34.3459 49.3383C34.3962 49.3383 34.4969 49.3891 34.5975 49.4399L35.1509 49.6431L36.9119 49.0335C36.8616 48.9827 36.8616 48.8811 36.8616 48.8303C36.9119 48.6779 37.0126 48.5764 37.0629 48.4748C37.1635 48.2716 37.3145 48.0684 37.2641 47.916C37.1132 47.662 36.9623 47.3572 36.5597 47.408C36.4088 47.408 36.2579 47.3572 36.1069 47.3064C36.1572 47.154 36.2075 47.0016 36.2579 46.8492C36.3082 46.7476 36.4591 46.646 36.5597 46.5444C36.7107 46.4428 36.8113 46.3413 36.9623 46.2905C37.0629 46.2397 37.2138 46.2397 37.3648 46.2905C37.4151 46.2905 37.4151 46.5444 37.4151 46.5952C37.2138 46.9 37.4151 47.1032 37.566 47.3064C37.8176 47.6112 38.1195 47.9668 38.3711 48.2716C38.4214 48.2716 38.522 48.2208 38.5723 48.2208C38.7233 48.2208 38.9748 48.2208 39.0755 48.2716L40.5346 47.7636L40.5849 47.7128L40.6352 47.7636L45.717 46.0365C45.7673 45.9349 45.8679 45.8333 46.0189 45.7317C46.1698 45.6301 46.3711 45.6301 46.5723 45.7317L50.5472 44.3601C50.5472 43.9538 50.4969 43.7506 50.044 43.8522C49.8931 43.8522 49.6918 43.8014 49.5912 43.649C49.4402 43.4966 49.2893 43.1918 49.3396 43.0394C49.5409 42.7346 49.7421 43.0394 49.9434 43.141C50.4465 43.2934 50.9497 43.649 51.5535 43.4458C51.6541 43.395 51.805 43.4966 51.8553 43.5474C51.9057 43.5982 51.9057 43.6998 51.9057 43.8522L58.9497 41.4647V33.8958ZM14.7233 39.1788C14.5723 38.9756 14.4214 38.874 14.3711 38.7724C14.3711 38.6708 14.4717 38.5692 14.5723 38.4676C14.673 38.5692 14.8239 38.62 14.8239 38.7216C14.8239 38.7724 14.7736 38.9248 14.7233 39.1788ZM17.7925 34.861C17.8428 34.8102 17.8931 34.8102 17.9434 34.7594C17.9434 34.8102 17.9937 34.861 17.9937 34.861C17.9937 34.9118 17.9434 34.9118 17.8931 34.9118C17.8428 34.9118 17.8428 34.9118 17.7925 34.861ZM18.4465 39.6868C18.2956 39.6868 18.1447 39.4836 17.9937 39.3312C18.0943 39.128 18.1447 38.9248 18.2453 38.874C18.5472 38.7724 18.5975 39.0264 18.6478 39.2296C18.6478 39.382 18.7484 39.636 18.4465 39.6868ZM21.8679 38.8232C21.566 39.0264 21.1635 39.1788 20.761 39.1788C20.3585 39.2296 20.4088 38.8232 20.3082 38.5692C20.2075 38.366 20.2075 38.1628 20.4591 38.0612C20.6101 38.0104 20.7107 37.9596 20.9119 37.9088C21.0629 37.9088 21.2641 37.858 21.4654 37.9088C21.6667 37.9596 21.9686 38.0104 21.9686 38.112C22.0692 38.366 22.0692 38.7216 21.8679 38.8232ZM28.1069 44.1062C28.0063 44.1569 27.805 44.157 27.7044 44.0554C27.4528 43.8014 27.2516 43.4966 27 43.2426C27 43.2426 26.9497 43.2426 26.9497 43.2934C26.6981 42.9378 26.4969 42.5314 26.2453 42.2266C26.044 41.9219 25.8428 41.5155 25.3396 41.7187C25.239 41.7695 25.0377 41.6171 24.9874 41.5155C24.6855 41.0075 25.0377 40.0931 25.5912 39.9407C25.7421 39.8899 25.9434 39.9915 26.0943 40.0931C26.2453 40.1947 26.3962 40.3471 26.4465 40.4995C26.4969 40.4487 26.5472 40.4487 26.5975 40.4487C26.6981 40.4487 26.7987 40.5503 26.8491 40.6011C26.8994 40.6519 26.7987 40.7535 26.7484 40.8551C26.6981 40.8551 26.6478 40.8043 26.4969 40.7535C26.4969 40.8043 26.4969 40.8551 26.4465 40.9059C26.2453 41.5155 26.5472 41.8711 27.1509 41.8203C27.5535 41.7695 28.3585 42.5822 28.2579 43.0394C28.2075 43.2934 28.1572 43.5474 28.2579 43.8014C28.3082 43.8522 28.2075 44.0554 28.1069 44.1062ZM58.0943 35.115C58.0943 35.2166 57.8931 35.3181 57.7924 35.4197C57.6415 35.1658 57.4906 34.861 57.3396 34.607C57.4402 34.5562 57.5409 34.5054 57.5912 34.5054C57.6918 34.5562 57.7924 34.6578 57.9434 34.7594C57.9937 34.861 58.1446 35.0134 58.0943 35.115ZM55.8805 32.5243C56.2327 32.5243 56.5849 32.5751 56.9874 32.6767C57.0377 32.6767 57.088 32.8291 57.088 32.8291C56.8868 33.0831 56.9371 33.337 56.9874 33.591C56.9874 33.4894 56.9874 33.3878 56.9874 33.2862C57.088 33.2862 57.239 33.2862 57.239 33.337C57.2893 33.7434 57.9937 33.4894 57.9434 33.9466C57.9434 34.0482 57.6918 34.1498 57.4906 34.3022C57.3396 34.2514 57.0377 34.2006 57.0377 34.099C57.0377 34.0482 57.0377 33.9974 57.0377 33.9466C56.9874 34.099 56.7358 34.3022 56.5346 34.353C56.3836 34.4038 56.1824 34.2006 55.9308 34.0482C55.8805 33.6418 55.7799 33.1846 55.7296 32.7783C55.6289 32.6767 55.7799 32.4735 55.8805 32.5243ZM52.5094 33.7434C52.6604 33.591 52.8616 33.3878 53.0629 33.6418C53.1132 33.7434 53.0629 33.9466 53.0126 34.2006C53.0629 34.1498 53.1635 34.099 53.3145 33.9974C53.4151 33.8958 53.6164 33.845 53.6667 33.7434C53.8679 33.3878 54.0189 33.337 54.3711 33.591C54.522 33.6926 54.7736 33.6418 54.9748 33.591C55.5786 33.4894 55.5786 33.4894 55.7799 34.2514C55.7799 34.3022 55.7799 34.5562 55.6792 34.6578C55.478 34.9118 54.8239 34.9626 54.6226 34.7594C54.3711 34.4546 54.2704 34.4038 54.1195 34.8102C54.0189 35.1658 53.7673 35.1658 53.4654 34.9118C53.4151 34.861 53.3648 34.8102 53.3145 34.7594C52.9623 34.5562 52.8113 34.4546 52.8616 34.3022C52.6101 34.3022 52.3585 34.353 52.2579 34.2514C52.0566 34.0482 52.3585 33.8958 52.5094 33.7434ZM55.4277 36.7405C55.327 36.9945 55.1258 36.9437 54.8742 36.8421C54.7736 36.7913 54.5723 36.8421 54.4717 36.7913C54.3208 36.6897 54.2704 36.5373 54.1698 36.3849C54.1698 36.3341 54.2704 36.2325 54.2704 36.1309C54.3208 35.9277 54.3711 35.7245 54.3711 35.5721C54.5723 35.6737 54.7736 35.7753 54.9245 35.8769C55.0252 35.9785 55.1258 36.0801 55.327 36.2833C55.3774 36.3849 55.478 36.5881 55.4277 36.7405ZM51.3522 34.6578C51.4528 34.6578 51.5535 34.7086 51.6038 34.8102C51.6541 34.861 51.6038 35.0134 51.6038 35.1658C51.3522 34.9626 51.3019 34.9118 51.2013 34.8102C51.2013 34.8102 51.3019 34.6578 51.3522 34.6578ZM44.1069 36.3341C44.6101 36.3341 45.1132 36.3849 45.566 36.4357C45.717 36.4357 45.8679 36.4865 46.0189 36.5373C45.9686 36.6897 45.9182 36.8929 45.8176 37.0961C45.566 37.0961 45.3648 37.1469 45.1635 37.1469C45.0126 37.1469 44.8616 37.1469 44.6604 37.1469C44.3585 37.1469 43.9057 36.7913 43.956 36.4865C43.9057 36.4865 44.0063 36.3341 44.1069 36.3341ZM44.5597 40.9059C44.5597 41.0075 44.4591 41.1091 44.4088 41.3123C44.2579 41.1599 44.1069 41.1091 44.1069 41.0075C44.1069 40.9059 44.2075 40.8043 44.3082 40.7027C44.3585 40.8043 44.5094 40.8551 44.5597 40.9059ZM35.3019 38.7216C35.5535 38.6708 36.0063 38.5184 36.0566 38.6708C36.3585 39.0772 36.6604 38.9756 37.0126 38.874C37.0629 38.874 37.1132 38.8232 37.1635 38.874C37.3145 38.9248 37.4151 39.0264 37.5157 39.0772C37.4654 39.1788 37.3648 39.3312 37.3145 39.382C37.0126 39.4836 36.7107 39.5344 36.4088 39.636C36.2075 39.6868 36.0566 39.7375 35.8553 39.7883C35.3522 39.9407 35.2516 39.8391 35.1509 39.3312C35.1006 39.0772 35 38.8232 35.3019 38.7216ZM31.5283 39.0772C31.7799 38.9756 32.0314 38.9248 32.283 38.874C32.283 38.874 32.283 38.874 32.283 38.8232C32.5346 38.7724 32.7358 38.7216 32.9874 38.6708C33.2893 38.62 33.5912 38.5184 33.8428 38.8232C33.8931 38.874 33.9937 38.9248 34.0943 38.9248C34.2956 38.9756 34.5975 38.9248 34.5472 39.2296C34.4969 39.382 34.2453 39.4836 34.0943 39.5852C33.8428 39.6868 33.5912 39.7375 33.3396 39.7883C33.239 39.8391 33.088 39.8391 33.0377 39.9407C32.8868 40.1947 32.8868 40.7535 32.3836 40.1947C32.1824 39.9915 31.6792 40.1947 31.6289 39.6868C31.6289 39.5852 31.5786 39.4836 31.478 39.4328C31.1258 39.1788 31.1258 39.1788 31.5283 39.0772ZM30.7736 39.5344C30.8742 39.4836 31.0252 39.5344 31.1258 39.636C31.1761 39.6868 31.1258 39.8899 31.0755 39.9407C30.9748 39.9915 30.8239 39.9915 30.6226 39.9915C30.673 39.7375 30.673 39.5852 30.7736 39.5344ZM29.0629 37.7056C29.2138 37.5025 29.4654 37.3501 29.717 37.1977C29.7673 37.1469 30.0189 37.2993 30.0189 37.3501C30.0189 37.7564 30.0189 38.1628 29.9686 38.5692C29.9686 38.62 29.717 38.6708 29.6667 38.62C29.5157 38.5692 29.4151 38.4168 29.2138 38.2136C29.1635 38.112 29.0126 37.8072 29.0629 37.7056ZM29.2138 40.7535C29.2642 40.2455 29.6164 40.0931 29.9686 39.9407C30.3208 39.8391 30.4717 40.0423 30.5723 40.3471C30.7233 40.8551 30.673 41.0075 30.3208 41.1599C30.2704 41.1599 30.2704 41.1599 30.2201 41.2107C30.5723 41.2615 30.8239 41.0075 31.0755 40.8043C31.3774 40.6011 31.6289 40.2455 32.0818 40.6519C32.2327 40.8043 32.5849 40.6519 32.7862 40.7535C32.8868 40.8043 32.6855 41.2615 32.7862 41.4139C33.088 41.9219 33.2893 42.6838 34.1447 42.5314C34.195 42.5314 34.3459 42.7346 34.2956 42.7854C34.0943 43.2426 33.7421 43.5474 33.239 43.6998C32.9874 43.8014 32.8365 43.5982 32.9371 43.2934C33.088 42.7854 33.088 42.7854 32.5849 42.7346C32.3333 42.6838 32.1321 42.4806 31.9308 42.379C31.7799 42.3282 31.6289 42.2774 31.478 42.2774C31.478 42.4298 31.4277 42.5314 31.4277 42.6838C31.4277 43.0394 31.1761 43.4966 30.8239 43.5474C30.6226 43.5982 30.3711 43.395 30.1698 43.2934C29.9686 42.9886 29.9182 42.7346 30.1195 42.4298C30.2704 42.1758 30.1698 42.0234 29.8679 42.0234C29.717 42.0234 29.4654 42.2266 29.4151 41.8711C29.4151 41.7695 29.5157 41.5663 29.6667 41.4139C29.4654 41.4139 29.1635 41.5155 29.0629 41.4139C28.7107 41.0075 29.1635 40.9059 29.2138 40.7535ZM30.8742 47.3064C30.7736 47.2556 30.673 47.2556 30.5723 47.2048C30.522 47.154 30.5723 47.0524 30.522 46.8492C30.673 46.9 30.8239 46.9508 30.8742 47.0016C30.9245 47.1032 30.8742 47.2048 30.8742 47.3064ZM34.6478 44.4109C34.6478 44.5633 34.7484 44.7157 34.7484 44.8681C34.7987 45.1221 34.9497 45.4269 34.5975 45.6301C34.195 45.8333 33.7925 45.7317 33.4906 45.4269C33.4403 45.3253 33.2893 45.3253 33.239 45.2745C33.1887 45.3761 33.088 45.4777 33.088 45.6301C33.088 45.9349 32.9371 46.0365 32.6855 46.0873C31.8805 46.2905 31.1258 46.4936 30.3208 46.6968C30.0692 46.7476 29.8176 46.7984 29.566 46.7984C29.3648 46.7984 29.0629 46.9508 28.9623 46.5952C28.9119 46.392 28.8616 46.2397 28.9119 46.0365C28.8616 45.7317 28.8616 45.4269 28.8616 45.0713C28.8616 44.9697 29.0629 44.8681 29.2138 44.6649C29.2642 44.6649 29.3145 44.6141 29.3648 44.6141C29.4654 44.3093 29.717 44.1569 30.1698 44.1062C30.673 43.9538 31.1761 43.8014 31.7296 43.6998C32.0818 43.649 32.4843 43.4458 32.7862 43.9538C32.9371 44.2585 33.6918 43.9538 33.8931 43.5982C33.9937 43.4458 34.1447 43.2934 34.2956 43.1918C34.3962 43.141 34.5975 43.1918 34.7484 43.2426V43.2934C34.8994 43.3442 35.0503 43.3442 35.0503 43.395C35.1006 43.4966 35.0503 43.649 35 43.7506C35 43.8014 34.7484 43.7506 34.6981 43.6998C34.6981 43.649 34.6478 43.5982 34.6478 43.5474C34.6478 43.5982 34.6478 43.649 34.6478 43.6998C34.6981 43.9538 34.6478 44.2078 34.6478 44.4109ZM36.3082 48.7287C36.3585 48.7795 36.3082 48.9319 36.3082 49.0335C36.2075 49.0335 36.1069 49.0335 36.0566 48.9827C36.0063 48.9319 36.0063 48.7795 35.956 48.5764C36.1069 48.6779 36.2579 48.6779 36.3082 48.7287ZM35.8553 46.0365C35.7044 46.0365 35.5535 45.9349 35.4528 45.9857C35.2013 46.0873 35 46.0873 34.8994 45.8333C34.8491 45.6809 35 45.4777 35 45.4269C35.3522 45.1221 35.5535 44.9189 35.8553 45.2237C35.9057 45.2745 35.956 45.2745 36.0566 45.3253C36.2579 45.3761 36.5094 45.0713 36.6101 45.4269C36.7107 45.6301 36.1572 46.0365 35.8553 46.0365ZM44.0566 43.1918C44.0063 43.2426 43.8553 43.2426 43.805 43.2426C43.6038 43.2934 43.4025 43.3442 43.2013 43.3442C42.8994 43.395 42.6981 43.2426 42.6478 42.9886C42.4465 42.3282 41.8931 42.2266 41.3899 42.0234C41.4403 42.125 41.4402 42.2266 41.4906 42.379C41.6918 43.2426 41.5409 43.4966 40.6352 43.5474C40.2327 43.5474 39.9811 43.5474 39.9308 44.0554C39.8805 44.4109 39.0755 44.6141 38.7736 44.3601C38.5723 44.2077 38.522 44.157 38.3711 44.4109C37.9182 45.0205 37.2138 45.0713 36.4591 44.8173C35.956 44.6649 35.805 44.0554 35.3019 44.0554C35.3019 44.0554 35.2013 43.8522 35.2516 43.8014C35.6541 43.4966 35.6541 42.7854 36.3585 42.7854C36.7107 42.7854 37.0629 42.5314 37.4151 42.4298C37.566 42.379 37.717 42.2774 37.8679 42.2774C38.4214 42.2774 38.8742 42.125 39.327 41.9219C39.6289 41.8203 39.9811 41.6679 40.1824 42.125C40.2327 42.2266 40.434 42.2774 40.5849 42.2774C40.8365 42.2774 41.1384 42.1758 41.3899 42.125C41.2893 41.8711 41.3396 41.6679 41.5409 41.5155C41.4906 41.4139 41.4403 41.3631 41.3899 41.2615C41.3396 41.1599 41.6415 40.9059 41.7925 40.7027C41.9937 40.4487 42.2453 40.6011 42.4465 40.7535C42.5472 40.8551 42.6981 40.9059 42.7987 41.0075C43.0503 41.3631 43.3522 41.7187 43.6038 42.0742C43.6541 42.0742 43.7044 42.0234 43.805 42.0234C44.1069 41.9219 44.3585 41.9219 44.4591 42.3282C44.6101 42.8362 44.6101 42.9886 44.2075 43.141C44.1069 43.141 44.1069 43.1918 44.0566 43.1918ZM45.717 45.0205C45.6163 45.2237 45.4151 45.1729 45.2138 45.0713C45.0629 45.0205 44.9119 45.1221 44.761 45.0713C44.6101 45.0205 44.4088 44.9697 44.3585 44.8173C44.3082 44.7157 44.4088 44.5125 44.5094 44.4109C44.9119 44.0554 45.2138 44.0554 45.6164 44.5633C45.6667 44.7157 45.7673 44.9189 45.717 45.0205ZM47.3774 44.3601C47.2767 44.3093 47.1761 44.3093 47.1258 44.2585C47.0755 44.2077 47.0755 44.1062 47.0755 43.9538C47.2264 44.0554 47.3774 44.0554 47.4277 44.157C47.4277 44.2078 47.3774 44.3093 47.3774 44.3601ZM47.5786 43.4966C47.478 43.5982 47.327 43.5474 47.0755 43.5982C47.1258 43.3442 47.1258 43.141 47.1761 43.141C47.2767 43.0902 47.478 43.141 47.5786 43.141C47.6289 43.2426 47.6289 43.4458 47.5786 43.4966ZM58.195 37.7056C57.8931 38.2136 57.3899 38.62 57.5912 39.3312C57.6415 39.4328 57.4402 39.636 57.3396 39.6868C56.7862 39.8391 56.283 39.9915 55.7296 40.0423C55.6289 40.0423 55.478 39.7883 55.3774 39.636C55.1258 39.6868 54.8742 39.7376 54.6226 39.8391C54.4717 39.8899 54.2704 39.9915 54.2201 40.0931C54.1195 40.7535 53.566 40.7027 53.1635 40.8551C52.8616 41.0075 52.3585 41.1091 52.1572 40.9567C51.6541 40.4995 51.4528 40.6011 51.2013 41.1599C51.1006 41.4139 50.5975 41.4647 50.2453 41.2615C50.0943 41.2107 49.7924 41.2107 49.7421 41.2615C49.6415 41.4647 49.4906 41.5663 49.3899 41.6679C49.4403 41.7187 49.3396 41.8203 49.3396 41.9219C49.239 41.8711 49.1384 41.8711 49.088 41.8203C48.8365 41.9219 48.5346 41.9726 48.3333 42.0742C47.7296 42.379 47.0252 42.4806 46.3711 42.633C46.0692 42.6838 45.7673 42.6838 45.4654 42.5822C45.0629 42.4806 44.9119 42.0742 45.0629 41.6679C45.1132 41.5155 45.2138 41.3123 45.2138 41.1599C45.2641 40.3979 45.2641 40.3471 46.0189 40.1947C46.7233 39.9915 46.7233 39.9915 46.9748 40.7027C47.0755 40.9567 47.1761 41.0583 47.4277 41.0583C47.327 41.0075 47.2264 40.8043 47.2767 40.6519C47.327 40.4487 47.4277 40.2963 47.478 40.1439C47.5283 40.0423 47.5786 39.8899 47.6289 39.7883C47.7296 39.8391 47.8805 39.9407 48.0818 40.0423C48.1321 40.1947 48.2327 40.3979 48.1321 40.5503C48.0314 40.7535 47.8805 40.9059 47.6792 41.0583C47.9811 40.9567 48.283 40.9059 48.5849 40.8551C48.9371 40.7535 49.3396 40.8043 49.3899 40.2455C49.3899 39.9915 49.6415 39.9915 49.8931 40.1439C50.4969 40.6011 50.7484 40.4995 51.1006 39.8899C51.1509 39.7376 51.3522 39.636 51.5031 39.5852C52.2579 39.382 53.0126 39.1788 53.7673 38.9756C54.1195 38.874 54.4214 38.874 54.4717 38.4168C54.4717 38.366 54.6226 38.2644 54.673 38.2644C54.7233 38.2644 54.8239 38.366 54.8742 38.4168C55.0252 38.874 55.2264 39.2804 55.3774 39.7375C55.7296 39.2804 56.1321 38.9248 56.6855 38.6708C56.9371 38.5692 57.0377 38.112 57.1887 37.8072C57.3396 37.4517 57.7421 37.1977 58.0943 37.2993C58.3459 37.2993 58.3459 37.4517 58.195 37.7056Z" fill="#FEFEFE"/>
</svg>
