<svg width="70" height="70" viewBox="0 0 70 70" fill="none" xmlns="http://www.w3.org/2000/svg">
<path d="M38.9164 49.4792C38.8327 49.3962 38.707 49.3132 38.707 49.2303C38.707 48.8984 38.5395 48.7739 38.3301 48.6909C38.372 48.7739 38.4138 48.8569 38.4138 48.9398C38.4138 49.3132 38.6651 49.5622 39.0002 49.5622C38.9583 49.5622 38.9164 49.5207 38.9164 49.4792Z" fill="#D76700"/>
<path d="M24.1738 58.0671C24.2995 58.1501 24.3832 58.2331 24.467 58.2746C24.4251 58.1501 24.3414 58.0671 24.1738 58.0671Z" fill="#D76700"/>
<path d="M37.8691 48.1103C37.6178 48.0273 37.3665 47.9443 37.1152 47.8613C37.1571 47.9028 37.1571 47.9858 37.1571 48.0273C37.199 48.5251 37.199 48.5251 37.6597 48.4422C37.7435 48.4422 37.7854 48.4422 37.8691 48.4422C37.8272 48.3177 37.8272 48.1932 37.8691 48.1103Z" fill="#D76700"/>
<path d="M14.7085 6.20744C14.6247 6.58083 14.4991 6.66381 14.164 6.58083C14.0384 6.53934 13.9546 6.45637 13.8708 6.37339C13.7871 6.37339 13.7033 6.41488 13.6195 6.41488C13.4939 6.41488 13.4101 6.29041 13.3683 6.29041C13.3264 6.16595 13.2845 6.16595 13.2426 6.12446C13.2426 6.08298 13.2007 6.08298 13.2007 6.04149H12.74C12.74 6.20744 12.74 6.37339 12.6562 6.49785V9.402H12.9494C12.8238 9.31903 12.6562 9.19456 12.6981 9.0701C12.74 8.86266 12.9075 8.65522 13.0332 8.44778C13.0332 8.44778 13.0751 8.44778 13.0751 8.40629C13.2845 8.28183 13.452 8.15737 13.6614 8.07439C13.7033 8.36481 13.7871 8.61373 13.829 8.90415C13.829 8.94564 13.7871 9.02861 13.7871 9.19456C13.7871 9.23605 13.7452 9.31903 13.7033 9.402H15.7555C15.7555 9.36052 15.7555 9.31903 15.7555 9.27754C15.7555 9.11159 15.8812 8.94564 16.0487 9.02861C16.1744 9.11159 16.1744 9.27754 16.2581 9.44349C16.1744 9.52647 16.1325 9.56795 16.1325 9.60944C16.1744 10.5222 16.2581 11.3934 16.3419 12.2647C16.5094 12.3891 16.6351 12.5136 16.8026 12.6795C16.8445 12.721 16.7607 12.97 16.7188 13.1359C16.8864 13.2604 17.0539 13.3848 17.2214 13.5093C17.3471 13.5923 17.5146 13.6752 17.5984 13.6338C18.0591 13.3848 18.3523 13.7582 18.6454 13.9242C18.8967 14.0486 19.2318 14.3391 19.2318 14.505C19.1899 15.0443 19.3574 15.1273 19.86 15.0029C20.0694 14.9614 20.3626 15.2518 20.4464 15.5837C20.4464 15.6667 20.5301 15.7496 20.6139 15.8326C20.0694 14.0072 19.6925 11.9328 19.6087 9.48498H23.42C23.42 9.44349 23.42 9.44349 23.42 9.44349C23.5457 9.36051 23.6713 9.31903 23.8389 9.27754C23.8389 9.31903 23.8389 9.36051 23.8389 9.44349H30.205C30.3306 9.31903 30.4563 9.19456 30.5819 9.0701C30.7495 8.86266 30.8751 8.65522 30.6657 8.40629C30.4982 8.15737 30.6657 8.0329 30.8751 7.86695C31.0426 7.74249 31.2102 7.65951 31.4196 7.82546C31.5871 7.94993 31.7546 8.11588 31.629 8.36481C31.5033 8.57225 31.3777 8.7382 31.252 8.90415C31.0845 9.0701 31.0845 9.19456 31.1683 9.402V9.44349H33.3462C33.3043 9.402 33.3043 9.402 33.2624 9.36051C33.2205 9.31903 33.3462 9.11159 33.3462 9.11159C33.5975 9.15308 33.8488 9.19456 34.1001 9.27754C34.1001 9.27754 34.1419 9.36051 34.1419 9.44349H42.3928C42.3509 9.402 42.3509 9.36051 42.309 9.31903C41.9739 8.94564 42.1415 8.15737 42.5603 7.90844C42.8116 7.78398 42.8954 7.65951 42.6441 7.41059C42.5603 7.32761 42.5184 7.28612 42.4765 7.20315C42.2671 6.82976 42.2671 6.87124 41.9321 7.12017C41.8483 7.16166 41.6808 7.24464 41.6389 7.20315C41.5551 7.16166 41.4714 7.0372 41.4714 6.91273C41.3038 6.45637 41.5551 6.24893 42.0158 6.29041C42.4765 6.3319 42.5184 6.37339 42.6441 6.04149H38.4558C38.5815 6.12446 38.5815 6.29041 38.5396 6.45637C38.5396 6.53934 38.4977 6.62232 38.4558 6.70529C38.4139 6.91273 38.2883 7.07868 38.0789 6.95422C37.9951 6.91273 37.9114 6.70529 37.8695 6.58083C37.8276 6.49785 37.8695 6.41488 37.9114 6.3319C37.9532 6.20744 37.9532 6.08298 38.037 6H36.6968C36.6968 6.04149 36.6968 6.08298 36.6968 6.08298C36.5292 6.20744 36.3617 6.29041 36.2361 6.3319C36.1523 6.3319 35.9848 6.12446 35.9848 6.08298C35.9848 6.04149 36.0266 6 36.0266 6H31.0845C30.917 6.08298 30.7495 6.16595 30.7076 6.41488C30.6238 6.82976 30.4144 6.87124 29.9956 6.87124C29.7443 6.82976 29.5767 6.70529 29.6186 6.45637C29.6186 6.37339 29.6605 6.24893 29.6605 6.16595C29.6605 6.12446 29.6605 6.08298 29.7024 6.04149H26.0167C26.1424 6.12446 26.268 6.20744 26.3937 6.3319C26.5193 6.45637 26.8125 6.58083 26.645 6.82976C26.5193 7.07868 26.4356 7.3691 25.9749 7.24464C25.7236 7.16166 25.4304 7.45207 25.1372 7.16166C24.8022 6.91273 24.6765 6.41488 24.8022 6.04149H16.8445C16.8026 6.08298 16.7188 6.16595 16.677 6.20744C16.6351 6.16595 16.5932 6.08298 16.5513 6.04149H14.7504C14.7504 6.08298 14.7085 6.16595 14.7085 6.20744ZM40.173 9.02861C40.2149 9.02861 40.2568 9.11159 40.2987 9.19456C40.2149 9.23605 40.173 9.27754 40.0474 9.36051C40.0055 9.27754 39.9636 9.19456 39.9217 9.15308C40.0474 9.11159 40.0892 9.02861 40.173 9.02861ZM37.9532 7.61803C37.9951 7.65951 38.037 7.701 37.9951 7.74249C37.9951 7.78398 37.9114 7.82546 37.8695 7.86695C37.8276 7.78398 37.7857 7.74249 37.7857 7.701C37.8276 7.701 37.9114 7.65951 37.9532 7.61803ZM37.6182 8.86266C37.7019 8.94564 37.7857 9.0701 37.8695 9.19456C37.7438 9.27754 37.6182 9.36051 37.4925 9.36051C37.4088 9.36051 37.325 9.19456 37.1994 9.02861C37.4088 8.98712 37.5344 8.86266 37.6182 8.86266ZM29.2417 8.32332C29.2836 8.11588 29.4092 7.90844 29.4511 7.701C29.5767 7.32761 29.7024 7.28612 30.0793 7.41059C30.3306 7.45207 30.4144 7.57654 30.3725 7.82546C30.3306 8.11588 30.2469 8.44778 30.205 8.82117C30.205 8.90415 30.205 9.02861 30.1212 9.11159C30.0793 9.19456 29.9537 9.31903 29.8699 9.31903C29.7862 9.31903 29.6605 9.23605 29.5767 9.15308C29.4511 9.02861 29.3255 8.86266 29.2417 8.69671C29.2417 8.61373 29.1998 8.44778 29.2417 8.32332ZM28.5716 6.29041C28.6135 6.29041 28.6135 6.41488 28.6553 6.53934C28.5297 6.49785 28.404 6.49785 28.3622 6.45637C28.3203 6.41488 28.3203 6.3319 28.3203 6.24893C28.4459 6.29041 28.5297 6.24893 28.5716 6.29041ZM27.3989 6.41488C27.4407 6.41488 27.4826 6.49785 27.6083 6.62232C27.4826 6.66381 27.3989 6.70529 27.357 6.70529C27.3151 6.70529 27.2732 6.62232 27.1895 6.53934C27.2732 6.49785 27.3151 6.41488 27.3989 6.41488ZM26.6869 7.53505C27.0638 6.99571 27.1895 6.99571 27.692 7.3691C27.8596 7.49356 28.0271 7.61803 28.1946 7.74249C28.404 7.90844 28.6553 8.07439 28.8229 8.24034C28.9485 8.32332 28.9904 8.44778 28.9904 8.53076C28.9904 8.61373 28.8229 8.65522 28.7391 8.65522C28.3203 8.69671 27.9015 8.69671 27.4826 8.7382C27.1476 8.77969 26.4356 8.28183 26.4775 7.99142C26.4356 7.86695 26.5612 7.65951 26.6869 7.53505ZM22.5405 8.61373C22.5405 8.53076 22.6662 8.44778 22.7499 8.40629C22.8756 8.36481 23.0012 8.40629 23.1269 8.40629C23.3363 8.44778 23.6294 8.44778 23.5876 8.77969C23.5457 9.15308 23.2525 8.98712 23.0012 8.98712C22.8756 8.94564 22.708 8.94564 22.6243 8.86266C22.5824 8.82117 22.5405 8.69671 22.5405 8.61373ZM19.6087 6.3319C19.7763 6.12446 19.9438 6.24893 20.1113 6.37339C20.2789 6.49785 20.5301 6.62232 20.3207 6.87124C20.1532 7.16166 19.9857 6.95422 19.7763 6.87124C19.6506 6.70529 19.3993 6.62232 19.6087 6.3319ZM17.3471 8.7382C17.389 8.77969 17.389 8.90415 17.4308 8.98712C17.3471 8.98712 17.2633 9.02861 17.2214 9.02861C17.1796 8.98712 17.1377 8.90415 17.0539 8.77969C17.2214 8.7382 17.3471 8.69671 17.3471 8.7382Z" fill="#D76700"/>
<path d="M43.6494 6.70507C43.44 6.74655 43.4819 6.87102 43.6076 6.99548C43.9845 7.45185 43.817 8.24012 43.3144 8.57202C43.0212 8.73797 42.9374 9.15285 43.0631 9.44326H47.6283C47.6702 9.36029 47.8377 9.3188 48.0052 9.23582C48.0052 9.3188 48.0052 9.40178 48.0052 9.44326H50.3088C50.1412 12.6378 49.5967 15.2101 48.7591 17.3674H47.377C47.3351 17.4089 47.2932 17.4504 47.2095 17.5334C47.1257 17.5749 46.9163 17.6579 46.9163 17.6993C46.9163 18.2387 46.3299 18.3217 46.1205 18.6951C45.953 18.9855 45.6598 18.8195 45.4085 18.778C45.2829 18.7365 45.1153 18.5706 45.1153 18.4876C45.1572 18.2387 45.241 17.8653 45.4504 17.7823C45.7017 17.6579 45.8273 17.5749 45.7854 17.4089H43.2725C43.2306 17.4919 43.1887 17.5749 43.105 17.6579C42.6443 18.0312 42.8956 18.4461 42.8537 18.861C42.8118 19.027 44.152 20.0642 44.3196 19.9812C44.6965 19.8152 44.9059 19.8152 44.8222 20.3131C44.7803 20.5205 45.241 20.8939 45.4504 20.8109C45.576 20.7694 45.7436 20.5205 45.8273 20.3131C45.7854 20.3131 45.7017 20.3131 45.576 20.2716C45.5342 20.2301 45.3247 20.0642 45.3247 19.9397C45.3247 19.6493 45.576 19.6493 45.8273 19.6908H45.8692C45.9111 19.6493 46.0367 19.6493 46.288 19.6078C47.0838 19.5248 47.377 20.1471 47.8796 20.5205C48.089 20.6865 47.7958 21.1013 47.4607 21.1428C47.1257 21.1843 46.7906 21.3088 46.4975 21.3918C46.3718 21.4333 46.288 21.5577 46.2043 21.6822C46.1624 21.7652 46.1205 21.9311 46.1624 21.9726C46.2043 22.0141 46.3718 22.0556 46.4556 22.0556C46.8744 21.9726 47.5026 22.263 47.5864 22.6364C47.6283 22.8023 47.5445 23.0098 47.4189 23.1757C47.2513 23.4247 47.3351 23.5906 47.5445 23.7566C47.712 23.5491 47.8377 23.3832 48.0052 23.1757C47.8377 23.0098 47.7539 22.7609 47.8377 22.5119C47.9215 22.263 48.0471 22.2215 48.424 22.3045C48.9266 22.429 48.9685 22.5119 48.8429 22.9268C48.801 23.0513 48.801 23.1757 48.7591 23.3002C48.801 23.5491 48.9685 23.6736 49.136 23.7981C49.2617 23.6321 49.3873 23.4247 49.513 23.2587C49.4711 23.1757 49.4711 23.0098 49.513 22.8853C49.5549 22.6779 49.6386 22.4704 49.9318 22.4704C49.9737 22.4704 50.0156 22.4704 50.0156 22.4704C50.56 21.5992 51.0626 20.6865 51.5652 19.6493C51.7746 18.861 51.9422 18.0727 52.1516 17.2845C52.2353 17.0355 52.361 16.9941 52.5285 16.9941C52.6123 16.7036 52.6961 16.3717 52.8217 16.0398C52.4866 15.9154 52.4448 15.7909 52.5704 15.4175C52.6123 15.293 52.7379 15.2101 52.8217 15.1271C52.8636 15.2101 52.9473 15.2516 52.9892 15.3345C53.2824 14.0484 53.5337 12.6378 53.6593 11.1443C53.3243 11.0198 53.4499 10.7294 53.4499 10.3975C53.5337 10.356 53.6175 10.19 53.7431 10.19C53.7431 9.94112 53.785 9.69219 53.785 9.40178H54.2457L54.3295 9.36029C54.3713 9.36029 54.4132 9.40178 54.4551 9.40178H57.2194V6.04126H55.2928C55.3765 6.16572 55.4184 6.33167 55.3765 6.53911C55.3346 6.87102 55.2928 7.2859 55.1252 7.57631C55.0415 7.70077 54.9158 7.82524 54.7902 7.90821C54.9158 8.03268 54.8739 8.19863 54.6645 8.44755C54.4551 8.73797 54.3295 8.73797 54.0363 8.53053C53.7012 8.24012 53.6593 8.11565 53.8688 7.82524C53.9525 7.70077 54.0363 7.65929 54.1201 7.6178C54.1201 7.32738 54.1619 7.03697 54.1619 6.78804C54.1619 6.78804 54.1619 6.78804 54.2038 6.78804C54.2457 6.62209 54.2876 6.49763 54.2876 6.33167C54.3295 6.20721 54.3295 6.12424 54.3713 6.08275H50.8532C50.7695 6.16572 50.6857 6.20721 50.6019 6.2487C50.56 6.29019 50.3925 6.29019 50.3506 6.2487C50.3088 6.20721 50.3088 6.16572 50.3088 6.08275H48.2565C48.2565 6.12424 48.2565 6.16572 48.2565 6.20721C48.2146 6.41465 48.1727 6.62209 48.1727 6.87102C47.9215 6.78804 47.6283 6.70507 47.377 6.5806C47.2513 6.37316 47 6.2487 47.1257 6.04126H44.1102C44.1102 6.12424 44.0683 6.20721 44.0683 6.29019C44.0683 6.53911 43.9426 6.66358 43.6494 6.70507ZM49.0104 20.5205C49.0104 20.3546 48.9685 20.2716 48.9685 20.1471C48.9685 20.1056 49.0942 20.0227 49.136 20.0227C49.2198 20.0642 49.2617 20.1471 49.3036 20.1886C49.3036 20.3131 49.2198 20.3546 49.0104 20.5205ZM49.5967 18.0312C49.5549 18.0312 49.513 18.0312 49.4711 18.0727C49.3036 18.1557 49.2198 18.5706 48.9685 18.3217C48.8429 18.1557 48.8848 17.8653 48.801 17.5334C48.9685 17.3674 49.136 17.1185 49.3036 17.077C49.4711 17.0355 49.8062 17.0355 49.8899 17.326C50.0156 17.5749 49.848 17.9483 49.5967 18.0312ZM51.9422 6.33167C52.1935 6.33167 52.4866 6.29019 52.7379 6.41465C52.9892 6.53911 53.3662 6.62209 53.1986 7.07846C53.1568 7.20292 53.2405 7.41036 53.2824 7.57631C53.1986 7.6178 53.1568 7.65929 53.1149 7.6178C52.8636 7.53482 52.696 7.6178 52.5285 7.78375C52.4866 7.82524 52.361 7.78375 52.2772 7.74226C52.2353 7.70077 52.1935 7.57631 52.2353 7.53482C52.4866 7.20292 52.2353 6.99548 51.9841 6.82953C51.9003 6.78804 51.7746 6.70507 51.7746 6.62209C51.8165 6.49763 51.9003 6.33167 51.9422 6.33167ZM50.7276 10.1486C50.8113 10.19 50.8532 10.273 50.8951 10.356C50.8113 10.3975 50.6857 10.4805 50.6857 10.4805C50.6438 10.439 50.56 10.356 50.56 10.273C50.56 10.2315 50.6857 10.1486 50.7276 10.1486ZM50.3506 12.14C50.4344 12.1815 50.5182 12.3059 50.5182 12.3889C50.5182 12.4304 50.3925 12.5134 50.2669 12.5963C50.225 12.4719 50.1412 12.3474 50.1412 12.2644C50.1412 12.2229 50.3506 12.0985 50.3506 12.14ZM47.4607 7.99119C47.6702 7.70077 47.8796 7.41036 48.1309 7.16143C48.1727 7.11994 48.2984 7.16143 48.3822 7.16143C48.3822 7.49333 48.5916 7.70077 48.8429 7.86672C48.8429 7.86672 48.8429 7.9497 48.8429 8.03268C48.7591 8.03268 48.6753 8.07416 48.5916 8.11565C48.2565 8.11565 47.8796 7.9497 47.6283 8.24012C47.6283 8.24012 47.5026 8.24012 47.4607 8.19863C47.4607 8.11565 47.4607 8.03268 47.4607 7.99119ZM46.2043 6.45614C46.2462 6.41465 46.4137 6.37316 46.4556 6.41465C46.4974 6.49763 46.5812 6.62209 46.5393 6.70507C46.4975 6.78804 46.3718 6.78804 46.2043 6.82953C46.2043 6.66358 46.1624 6.53911 46.2043 6.45614Z" fill="#D76700"/>
<path d="M47.5443 23.7568C47.3768 23.8813 47.3349 24.1717 47.0417 24.0472C46.7904 23.9228 46.4554 23.7568 46.4973 23.4249C46.5391 23.0515 46.3716 23.01 46.0365 23.0515C45.9109 23.0515 45.8271 23.0515 45.7853 23.01C45.7434 23.093 45.6596 23.176 45.5758 23.2175C45.3664 23.3834 44.8638 23.093 44.7801 22.7611C44.7382 22.4707 44.6963 22.2218 44.445 21.9728C44.3194 21.8484 44.445 21.5165 44.445 21.309H44.4869C44.5288 21.1846 44.5288 21.0186 44.5707 20.8942C44.2356 20.5623 43.733 20.2304 43.6074 20.3133C42.8535 20.6037 42.2671 20.3548 41.6808 19.9399C41.5132 19.8155 41.4295 19.691 41.5132 19.4421C41.597 19.1517 41.4714 19.0272 41.1782 19.0687C41.2201 19.2346 41.2619 19.4006 41.2201 19.5665C41.1782 20.1474 41.0525 20.7282 41.0107 21.2676C41.0107 21.5165 41.2201 21.7654 41.1782 21.9728C41.1363 22.0973 41.0107 22.2218 40.885 22.3047C40.9688 22.3462 41.0107 22.3462 41.0944 22.3877C41.3038 22.6367 41.4714 22.8026 41.597 23.01C41.6389 23.0515 41.6389 23.2175 41.597 23.259C41.5132 23.3005 41.3876 23.3419 41.3038 23.3005C41.0944 23.176 40.885 23.01 40.6337 23.0515C40.6337 23.1345 40.5918 23.2175 40.5918 23.3419C40.5499 23.5494 40.5499 23.7568 40.2987 23.7983C39.8798 23.7983 39.8798 24.1302 39.8379 24.3791C39.7961 24.6281 39.7542 24.877 39.6704 25.1259C39.7123 25.0844 39.7542 25.0429 39.7542 25.0015C39.8798 24.877 40.0055 24.711 40.2149 24.877C40.3824 25.0015 40.5081 25.2089 40.5918 25.4163C40.6756 25.5408 40.6756 25.7067 40.7175 25.8727C40.7175 25.9557 40.8012 26.0801 40.7594 26.1216C40.5081 26.5365 40.885 26.661 41.0944 26.8684C41.262 27.0344 41.597 27.0758 41.5132 27.4078C41.3038 27.3248 41.0944 27.2418 40.9269 27.1173C40.6756 26.9514 40.4662 26.7025 40.0892 26.9099C39.9636 26.9929 39.6704 26.7439 39.4191 26.661C38.9584 26.4535 39.0003 25.9557 38.8328 25.6238C38.749 25.4163 38.9165 25.2089 39.0841 25.2919C39.1259 25.2919 39.1259 25.2919 39.1678 25.2919C39.0841 24.96 38.9584 24.96 38.6652 25.1674C38.5396 25.2504 38.4139 25.2919 38.2883 25.2919C38.0789 25.4578 37.9114 25.4578 37.7019 25.2504C37.5763 25.1674 37.4925 24.9185 37.5344 24.8355C37.4506 24.711 37.2831 24.6281 37.1575 24.5451C36.9062 24.4206 36.8224 24.2962 36.8224 24.0887C36.7386 23.9643 36.6549 23.7568 36.5711 23.6324C36.7386 23.6738 36.8643 23.6738 37.0318 23.7153C37.1156 23.6738 37.2412 23.7153 37.3669 23.7153C37.7438 23.7568 38.1627 23.7983 38.5815 23.8398C39.0003 23.8813 39.1259 23.4664 39.461 23.3419C39.461 23.3419 39.461 23.1345 39.3772 23.093C39.0841 22.9686 39.1678 22.7196 39.1259 22.4707C39.1259 22.2218 39.1678 22.0558 39.5029 22.0558C39.7542 22.0143 39.8798 21.8899 39.7961 21.6824C39.7961 21.7239 39.7961 21.7654 39.7542 21.8069C39.6704 21.8899 39.5448 21.8484 39.4191 21.8899C39.4191 21.7654 39.3354 21.5995 39.4191 21.5165C39.461 21.475 39.5448 21.475 39.6704 21.4335C39.461 21.1431 39.2097 20.8942 39.0422 20.5208C39.0003 20.4793 38.9584 20.4378 38.9165 20.3963C38.9165 20.4378 38.9165 20.4793 38.9584 20.5208C38.9584 20.6452 38.9584 20.7282 38.9584 20.8527C39.0422 21.1431 38.9584 21.4335 38.7071 21.558C38.4139 21.6824 38.1627 21.475 38.0789 21.2676C37.9951 21.0601 38.1627 20.8112 38.2045 20.5623C38.2464 20.5623 38.2464 20.5623 38.2883 20.5623C38.3721 20.4793 38.4558 20.3963 38.5396 20.3133C38.5815 20.3133 38.6234 20.2718 38.6234 20.2718C38.5396 20.2304 38.4558 20.2304 38.4139 20.1889C38.4139 20.1889 38.4139 20.2304 38.3721 20.2304C38.2883 20.2304 38.2045 20.1889 38.1208 20.1889C37.6601 20.1059 37.4925 19.691 37.8276 19.3176C37.9951 19.1102 38.5815 19.2346 38.7071 19.5251C38.7909 19.774 38.9584 19.857 39.1678 19.8985C39.5029 19.9814 39.6704 19.8985 39.7542 19.5665C39.6285 19.4836 39.5029 19.3591 39.4191 19.2346C39.4191 19.1932 39.6285 18.9027 39.6704 18.9442C39.7542 18.9857 39.8379 18.9857 39.8798 18.9857C39.9636 18.6538 40.0474 18.2804 40.173 17.9485C40.0892 17.9485 39.9636 17.8655 39.8798 17.8241C39.7123 17.7411 39.5448 17.6581 39.3772 17.5751C39.2516 17.5336 39.0841 17.4507 38.9584 17.4507C38.749 17.4922 38.6234 17.4507 38.4977 17.3262H34.3095C34.4351 17.4922 34.5608 17.6166 34.7283 17.7826C34.6864 17.8241 34.6026 17.8655 34.5608 17.8655C34.4351 17.8241 34.3513 17.7411 34.2676 17.6996C34.2257 17.6166 34.1001 17.5336 34.1001 17.4922C34.1001 17.4092 34.1419 17.3677 34.1838 17.3262H25.7655C25.7655 17.4092 25.7655 17.4507 25.7655 17.4922C25.7236 17.5751 25.5142 17.6166 25.4304 17.6166C25.1791 17.5751 25.0116 17.4922 24.9697 17.3262H23.2525L23.2944 17.3677C23.4619 17.5336 23.6294 17.7411 23.7132 17.9485C23.8389 18.2389 23.6294 18.5708 23.3363 18.6538C23.2106 18.6953 23.0431 18.7368 22.9174 18.8198C22.373 19.1932 22.373 19.1932 21.8704 18.7783C21.4097 18.4049 21.3678 18.4049 21.7029 17.907C21.8285 17.6996 21.8285 17.5751 21.7029 17.4507C21.7447 17.5751 21.661 17.6996 21.5353 17.7411C21.4097 17.7826 21.2421 17.8241 21.0746 17.8655C20.9909 17.907 20.8652 17.907 20.7814 17.9485C20.7814 17.8241 20.7396 17.7411 20.6977 17.5336C20.7814 17.4507 20.8652 17.2432 20.9909 17.2432C21.0327 17.2432 21.0746 17.2432 21.1165 17.2432C21.0746 17.1188 21.0327 16.9943 20.9909 16.8698C20.9909 16.8698 20.949 16.8698 20.949 16.8284C20.6977 16.6624 20.5301 16.372 20.1532 16.6209C19.9438 16.7869 19.7763 16.6624 19.7763 16.4135C19.7763 15.8326 19.5669 15.6667 18.9805 15.7912C18.8548 15.8326 18.6873 15.7497 18.5617 15.6667C18.0591 15.2933 17.5146 14.9199 17.012 14.505C16.8864 14.4221 16.7607 14.2976 16.6351 14.2561C17.8497 20.5623 20.7814 24.2962 23.5876 27.0344C24.2996 27.7397 25.0116 28.362 25.6398 28.9428C26.8544 30.0215 27.8177 30.9342 28.4878 31.8055C28.5716 31.764 28.6553 31.764 28.6553 31.764C28.9485 32.1789 29.4092 32.1789 29.828 32.2618C30.0375 32.3033 30.5819 32.9256 30.4982 33.0916C30.4144 33.216 30.1631 33.299 30.0375 33.382C29.828 33.2575 29.6605 33.1746 29.6186 33.0916C29.5768 32.7597 29.4092 32.6352 29.1998 32.5937C29.1998 32.6352 29.1998 32.6767 29.1998 32.6767C29.1998 32.7182 29.1579 32.7182 29.1579 32.7597C29.493 33.3405 29.6605 33.9628 29.7024 34.6681C29.7443 34.6681 29.828 34.7096 29.8699 34.7511C29.9956 34.7926 30.1212 34.8341 30.2888 34.8756C30.4982 34.9171 30.7076 34.9585 30.8751 34.7511C30.9589 34.6681 31.0845 34.6681 31.2521 34.6681C30.9589 34.3777 30.6657 34.1703 30.4144 33.9213C30.3725 33.8799 30.3725 33.7554 30.3306 33.6724C30.4144 33.6724 30.54 33.6309 30.5819 33.6309C30.8751 33.7554 31.1683 33.9628 31.5033 33.8799C31.5452 33.7969 31.5452 33.7139 31.5871 33.7139C32.0478 33.6724 32.0897 33.2575 32.2153 32.9671C32.2572 32.9256 32.3829 32.8427 32.4666 32.8841C32.5085 32.8841 32.5923 32.9671 32.6342 33.0501C32.7179 33.6309 32.6342 34.1703 32.3829 34.6681C32.341 34.7511 32.1735 34.8341 32.0478 34.8341C31.9641 34.8341 31.9222 34.8341 31.8384 34.7926C31.8384 34.8341 31.7965 34.9171 31.7128 34.9585C31.629 35 31.4196 34.8756 31.4196 34.8756C31.3777 34.8341 31.3358 34.8341 31.3358 34.7926C31.2939 34.9171 31.2939 35.0415 31.2521 35.166C31.2102 35.3734 31.0845 35.4564 30.8751 35.4564C30.5819 35.4564 30.2888 35.4149 30.0793 35.7468C29.9956 35.8713 29.7862 35.8713 29.6605 35.7053C29.6186 36.0787 29.493 36.4106 29.3673 36.7425C29.4092 36.7425 29.4511 36.7425 29.493 36.7425C29.7862 36.784 29.8699 36.95 29.828 37.2404C29.7862 37.8212 29.2417 37.9457 28.9066 38.1946C28.6972 38.3191 28.4459 38.3605 28.2365 38.485C28.1528 38.6095 28.0271 38.6924 27.9433 38.8169C27.8596 39.0243 27.8596 39.2733 27.7758 39.4807C27.7758 39.5222 27.7758 39.5637 27.7758 39.6052C27.6502 39.8541 27.7758 40.269 27.357 40.269C27.2313 40.269 27.0638 40.0615 26.9382 39.8126C26.8544 39.8956 26.7706 39.9786 26.6869 40.0615C26.7287 40.0615 26.8125 40.0201 26.8544 39.9786C26.8963 40.0615 27.0219 40.2275 27.0219 40.269C26.9382 40.4764 26.8125 40.6839 26.6869 40.8498C26.7287 40.8498 26.8125 40.8083 26.8125 40.8498C26.8963 40.8913 26.9382 41.0158 26.9382 41.0987C26.9382 41.1402 26.9382 41.2232 26.9382 41.2647C26.98 41.1817 27.0638 41.0987 27.1057 41.0158C27.1476 40.9328 27.2313 40.8498 27.2732 40.8083C27.3989 40.7254 27.6083 40.5594 27.692 40.6009C27.8596 40.7254 28.0271 40.8913 28.1528 41.0987C28.2365 41.2647 28.2784 41.4721 28.2365 41.6381C28.1946 41.887 28.1109 42.1359 27.9852 42.3019C27.9433 42.3434 27.692 42.3019 27.5245 42.2189C27.3989 42.1774 27.3151 42.1359 27.2313 42.053C27.0219 41.887 26.8963 41.7626 26.8544 41.6796C26.7287 42.2604 26.645 42.2604 26.0586 42.1359C25.933 42.0944 25.7655 42.0944 25.6398 42.0115C25.5142 41.97 25.4304 41.8455 25.3466 41.7625C25.4304 41.6796 25.5142 41.6381 25.5979 41.5551C25.6398 41.5136 25.7236 41.4721 25.7655 41.4306C25.6398 41.3892 25.5142 41.3062 25.3885 41.1817C24.4671 42.0115 23.5038 42.9242 22.5405 43.9614C22.8337 44.1688 23.1269 44.3348 23.0012 44.7912C22.9593 44.9571 23.1687 45.0816 23.3782 44.9571C23.7132 44.7497 23.8389 44.8741 23.7551 45.206C23.7132 45.4965 23.9645 45.5794 24.0902 45.7454C24.2996 45.9943 24.2577 46.0773 23.9645 46.2017C23.7551 46.2847 23.5876 46.4507 23.42 46.5751C23.1687 46.8241 23.0431 46.8241 22.708 46.5751C22.4567 46.4092 22.2892 46.2017 22.5405 45.9113C22.6243 45.8284 22.6243 45.7454 22.708 45.6624C22.8337 45.4965 22.8337 45.3305 22.6662 45.206C22.4986 45.0816 22.3311 44.8326 22.0379 45.0816C21.996 45.1231 21.996 45.1231 21.9542 45.1646C21.7029 45.372 21.4516 45.4135 21.2421 45.3305C20.1951 46.6581 19.1899 48.1517 18.3523 49.9771C18.3523 49.9771 18.3523 50.0186 18.3941 50.0186H18.3523C18.101 50.5165 17.8916 51.0558 17.6821 51.6367C17.724 51.6367 17.7659 51.5952 17.8078 51.5952C18.3104 51.5952 18.4779 51.7611 18.3523 52.3419C18.3104 52.3834 18.2266 52.4664 18.1428 52.5909C18.0591 52.5079 17.9334 52.3834 17.8497 52.3005C17.7659 52.2175 17.6821 52.093 17.5984 52.01C17.5984 52.01 17.5984 51.9686 17.5565 51.9686C17.4308 52.3834 17.2633 52.7983 17.1377 53.2132C17.1796 53.2547 17.2214 53.2962 17.2633 53.3377C17.4308 53.5451 17.5984 53.6696 17.8916 53.5866C18.101 53.5451 18.3941 53.6696 18.5617 53.794C18.813 53.96 18.5617 54.1674 18.4779 54.3334C18.436 54.4163 18.3941 54.4578 18.3523 54.5408C18.3523 54.6238 18.3523 54.7068 18.3523 54.7897C18.436 54.7897 18.5617 54.7897 18.6454 54.7482C18.7711 54.7068 18.8967 54.6653 19.0224 54.6238C19.1899 54.3749 19.4412 54.1674 19.6925 53.96C19.9438 53.794 20.4464 54.1674 20.4464 54.4993C20.4464 54.6653 20.4045 54.8312 20.3626 55.0387C20.5301 55.2461 20.6139 55.4535 20.4883 55.744C20.4045 55.9099 20.4883 56.1588 20.4464 56.3248C20.4045 56.4492 20.3207 56.6982 20.1951 56.6982C20.0276 56.7397 19.86 56.5737 19.9019 56.3663C19.9438 56.2003 19.9438 56.0759 19.9019 56.0344C19.86 56.0344 19.8181 56.0759 19.7763 56.0759C19.7344 56.0759 19.6925 56.4492 19.7344 56.5322C19.9857 56.7397 19.9438 56.9471 19.9019 57.196C19.7344 58.0673 19.525 58.98 19.3574 59.8512C19.525 60.0172 19.4412 60.1417 19.2318 60.4321C19.1061 61.0959 18.9805 61.8012 18.813 62.465C18.7711 62.6309 18.7292 62.7969 18.6873 63.0043C18.6454 63.2118 18.6036 63.4607 18.2685 63.3777C17.9334 63.3362 17.724 63.1288 17.724 62.7969C17.724 61.8842 17.8916 61.0129 18.3104 60.2246C18.3104 60.1832 18.3523 60.1831 18.3523 60.1417C18.3104 59.9757 18.2685 59.7683 18.2685 59.6023C18.2685 59.5193 18.2685 59.3949 18.3104 59.3534C18.3523 59.1874 18.436 59.0215 18.4779 58.814C18.6873 57.9843 18.813 57.1545 18.9805 56.3248C19.0224 56.2003 19.0224 56.0344 18.9386 55.9929C18.8967 55.9514 18.8548 55.9099 18.813 55.8684C18.5198 55.6195 18.1847 55.4121 17.8916 55.1631C17.6821 54.9972 17.4727 54.7068 17.1377 54.9972C17.1377 54.9972 16.9701 54.8727 16.9283 54.8312C16.8864 54.6238 16.8445 54.4163 16.8026 54.2089C16.7188 54.5823 16.6351 54.9972 16.5513 55.3706C16.7188 55.578 16.7607 55.7854 16.7607 56.0344C17.012 55.9929 17.3471 56.4907 17.3052 56.6982C17.2633 56.9471 17.0539 57.0716 16.7607 57.0301C16.7607 57.1545 16.7607 57.279 16.8026 57.362C16.9283 57.6109 17.2214 57.7769 17.4727 57.9843C17.5146 58.0258 17.5565 58.0258 17.5565 58.0673C17.724 58.2747 18.1428 58.3577 17.9753 58.7311C17.8916 58.9385 17.1377 58.98 16.9283 58.814C16.6351 58.6066 16.3838 58.3577 16.0906 58.1502C16.0068 58.897 15.9231 59.6853 15.9231 60.5565H12.6562V63.9585H13.7871C13.8708 63.7511 14.0384 63.5852 14.2059 63.5022C14.3734 63.4192 14.5828 63.5022 14.7923 63.3362C15.0017 63.1703 15.2111 63.3777 15.1273 63.5852C15.0435 63.7511 15.0435 63.8756 15.0854 63.9585H17.8916C17.9334 63.9585 17.9334 63.9585 17.9753 63.9585H23.5457C23.5038 63.7511 23.5038 63.5437 23.4619 63.3777C23.4619 63.3777 23.6294 63.3362 23.7132 63.3362C23.8389 63.3777 24.0064 63.4607 24.132 63.5437C24.2158 63.6266 24.2577 63.6681 24.2996 63.7096C24.3414 63.7926 24.3833 63.8756 24.4252 63.9585H25.8073C25.8073 63.9171 25.7655 63.8756 25.7655 63.8341C25.7655 63.7926 25.7655 63.7096 25.8073 63.5852C25.8073 63.5437 25.8492 63.3777 25.933 63.2947C25.9749 63.2118 26.0586 63.1288 26.1424 63.1288C26.6031 63.1288 26.3937 63.6681 26.6869 63.7926C26.645 63.8756 26.6031 63.9171 26.6031 64H34.1419L34.1838 63.9585C33.9744 63.8341 33.765 63.6681 33.5975 63.5022C33.5975 63.5022 33.5975 63.5022 33.5975 63.5437C33.3462 63.3362 33.0949 63.1288 32.8855 62.9214C32.8436 62.8799 32.8017 62.6724 32.8436 62.6724C32.9273 62.6309 33.053 62.548 33.1368 62.5894C33.4299 62.7554 33.6393 62.9628 34.0163 62.7554C34.0163 62.7554 34.1838 62.8384 34.1838 62.8799C34.0582 63.2533 34.3513 63.4607 34.5608 63.6681C34.6026 63.7096 34.6445 63.7926 34.6445 63.8756C34.7702 63.8756 34.8958 63.9171 34.9796 64H35.8172C35.7335 63.9171 35.7754 63.7926 35.8172 63.6266C35.901 63.2533 36.0266 63.1703 36.3617 63.2118C36.6968 63.2947 36.8224 63.5437 36.7386 63.8756C36.7386 63.9171 36.6968 63.9171 36.6968 63.9585H42.4347C42.4347 63.9171 42.4347 63.8341 42.4765 63.7926C42.5603 63.4192 42.6441 63.3777 43.021 63.4607C43.398 63.5437 43.4398 63.6266 43.398 63.9585H57.3448V61.0959C57.3029 61.0959 57.261 61.0959 57.2192 61.1374C57.2192 61.0544 57.2192 60.9714 57.2192 60.9299C57.2192 60.9299 57.261 60.8884 57.3029 60.8884V60.5565H53.8267C53.7848 59.3534 53.6591 58.2332 53.5335 57.196C53.2822 57.0716 53.2403 57.1545 53.1984 57.6109C53.1566 57.8598 52.989 57.9428 52.654 57.9843C52.6959 58.1502 52.7796 58.3577 52.7796 58.5236C52.7796 58.6066 52.6121 58.6896 52.5283 58.7726C52.4446 58.6481 52.3608 58.4821 52.277 58.3162C52.4027 58.1917 52.5283 58.0673 52.6121 57.9843C52.5702 57.9843 52.5283 57.9843 52.4864 57.9843C52.2351 57.9843 52.1933 57.8598 52.2351 57.6109C52.3189 57.196 51.942 57.1131 51.6907 56.9056C51.565 56.7812 51.3556 56.7397 51.23 56.6567C50.853 56.3248 50.853 56.2003 51.1462 55.7854C51.2719 55.6195 51.3975 55.495 51.4813 55.2876C51.5231 55.2046 51.5231 55.0801 51.4813 55.0387C51.4394 54.9972 51.3137 54.9557 51.23 54.9972C50.853 55.0801 50.3923 54.9972 50.1829 55.495C50.141 55.5365 49.8479 55.578 49.7222 55.495C49.5547 55.3291 49.2196 55.1631 49.3871 54.8312C49.429 54.7482 49.4709 54.7068 49.5128 54.6238C49.5547 54.4993 49.5966 54.3334 49.6384 54.2089C49.5128 54.2089 49.3453 54.1674 49.2196 54.2089C48.9683 54.2504 48.8427 54.1259 48.9264 53.877C48.9683 53.7525 49.0102 53.6281 49.094 53.5036C49.3871 53.1302 49.7222 52.7568 50.0573 52.4249C50.2248 52.259 50.4342 52.3005 50.4761 52.5494C50.4761 52.6324 50.4342 52.7153 50.4761 52.7568C50.6017 52.9643 50.7693 53.2132 50.9368 53.3377C51.23 53.5036 51.3137 53.1717 51.4813 53.0472C51.565 53.0058 51.6907 52.9643 51.7744 52.9643C51.7326 53.0887 51.7326 53.1717 51.6907 53.2962C51.6069 53.4206 51.5231 53.5451 51.3975 53.6696C51.2719 53.877 51.0624 54.0844 51.3137 54.2919C51.5231 54.4993 51.6907 54.7482 52.0676 54.5823C52.1514 54.5408 52.3189 54.5823 52.4027 54.6238C52.4027 54.7482 52.4027 54.8312 52.3608 54.9557C52.277 55.0802 52.1933 55.2046 52.1095 55.3291C51.942 55.5365 51.7326 55.7439 51.942 56.0344C51.9839 56.0759 51.942 56.1588 51.942 56.2003C51.942 56.3663 51.8582 56.5737 51.942 56.6567C52.0676 56.7811 52.277 56.8641 52.4446 56.9056C52.6959 56.9471 52.989 56.5322 52.9471 56.2003C52.9471 56.0344 52.9472 55.9099 52.989 55.8269C52.9472 55.7439 52.9053 55.7025 52.9053 55.6195C52.9053 55.5365 52.9053 55.4535 52.9471 55.2876C52.989 55.2461 53.0309 55.2046 53.1147 55.1216C52.0257 50.0601 49.806 46.7411 47.5024 44.2103C47.4605 44.3348 47.4606 44.5007 47.4187 44.6252C47.3768 44.8326 47.293 44.9986 47.0417 44.9986C46.7904 44.9986 46.7067 45.1231 46.7067 45.3305C46.7067 45.4135 46.7067 45.5379 46.7067 45.6209C46.6648 45.8284 46.5391 45.9113 46.3716 45.8284C46.2878 45.7869 46.2041 45.6209 46.2041 45.4965C46.2041 45.372 46.3297 45.2475 46.3716 45.1231C46.4135 44.7912 46.6229 44.4593 46.1622 44.2518C46.0784 44.2103 46.0365 44.0029 46.0365 43.8784C46.0784 43.5465 46.1203 43.2146 46.3297 42.9657C45.7853 42.5508 45.3664 42.1359 44.9057 41.7211C44.8638 41.887 44.822 42.053 44.7801 42.2189H44.7382C44.6963 42.5093 44.6125 42.7997 44.5707 43.0902C44.5288 43.4635 44.2775 43.4635 43.9843 43.3806C43.6911 43.3391 43.6074 43.1731 43.6493 42.8827C43.733 42.4678 43.7749 42.0115 43.8168 41.5966C43.8587 41.3062 43.9424 41.0987 44.0681 40.9743C43.4817 40.4349 42.9372 39.9371 42.4347 39.4807C42.1834 39.6052 42.2252 39.8541 42.1415 40.0201C41.974 40.3105 41.8902 40.3105 41.6389 40.103C41.4714 39.9786 41.262 39.8541 41.0525 39.7711C40.7175 39.6467 40.6337 39.5637 40.7175 39.1488C40.7594 38.8584 40.8431 38.6095 41.262 38.6924C41.3457 38.7339 41.4714 38.7339 41.5551 38.7339C41.5551 38.6924 41.5551 38.651 41.5551 38.6095C41.1782 38.1946 40.8431 37.7797 40.6337 37.3233C40.3405 37.4063 40.0474 37.4478 39.7542 37.4893C39.6704 37.4893 39.5448 37.4063 39.5029 37.3648C39.4191 37.1159 39.3772 36.8255 39.3772 36.5766C39.3772 36.4936 39.5029 36.4106 39.5867 36.3276C39.5029 36.2862 39.461 36.2032 39.4191 36.2032C38.749 36.2861 38.3721 35.7883 37.9114 35.4564C37.7019 35.2904 37.4925 35.083 37.1994 35.2904C37.1575 35.3319 36.9481 35.2075 36.8224 35.1245C36.7805 35.1245 36.8224 35 36.7805 34.9585C36.6549 34.5437 35.2728 33.465 34.8121 33.465C34.6026 33.465 34.5608 33.4235 34.5608 33.2161C34.5189 32.7597 34.1838 32.5108 33.765 32.5522C33.6393 32.5522 33.5137 32.5108 33.3881 32.5108C33.4299 32.3863 33.4299 32.2618 33.4718 32.1374C33.6812 31.764 33.765 31.764 34.1419 32.0129C34.3513 32.1374 34.477 32.2203 34.7283 32.0959C34.8539 32.0544 35.0634 32.1374 35.189 32.2203C35.5659 32.4693 35.8591 32.7182 36.2361 32.9671C36.4874 33.1331 36.6968 33.4235 37.0737 33.1746C37.1156 33.1331 37.325 33.3405 37.325 33.3405C37.1156 33.7139 37.6601 33.9628 37.4925 34.3777C37.4088 34.5852 38.2464 35.2075 38.5396 35.166C38.8747 35.1245 39.2097 35.083 39.5029 35.0415C39.5448 35.0415 39.6285 35.1245 39.6285 35.1245C39.5029 35.4149 39.7961 35.6638 39.7961 35.9128C39.7961 36.0372 39.6704 36.1617 39.5867 36.2862C39.7542 36.3276 39.9636 36.4106 40.0474 36.3276C40.0892 36.2862 40.1311 36.2447 40.173 36.2447C40.0474 35.8298 40.0055 35.4149 40.0055 35C40.0055 34.2947 40.173 33.6724 40.4243 33.0501C39.8379 32.6352 39.2516 32.2618 38.7071 31.8055C38.2883 31.4736 38.3302 31.4321 38.6652 30.9757C38.7071 30.8927 38.749 30.8512 38.7909 30.8098C38.8328 30.7683 38.8747 30.7268 38.9165 30.6853C39.3354 30.063 39.7961 30.0215 40.3824 30.6853C40.5918 30.8927 40.5918 31.1002 40.4243 31.3076C40.2987 31.4736 40.1311 31.6395 40.0474 31.847C40.0055 31.9299 40.0474 32.0959 40.0474 32.1789C40.1311 32.1374 40.2987 32.1374 40.3405 32.0959C40.5081 31.9299 40.6337 31.764 40.7594 31.598C40.7594 31.5565 40.7594 31.5565 40.7175 31.515C40.885 31.3906 41.0107 31.2661 41.1363 31.1831C41.1363 31.2661 41.1782 31.3076 41.1782 31.3906C41.2201 31.3906 41.262 31.4321 41.3038 31.4736C41.3457 31.515 41.3876 31.5565 41.4295 31.598C41.974 30.9342 42.7278 30.2704 43.5655 29.4821C43.2723 29.1917 42.9373 28.9428 42.5184 28.7769C42.2252 28.6524 42.0577 28.3205 41.8064 28.0716C41.7645 28.0301 41.7645 27.8641 41.8064 27.8226C41.8483 27.7811 42.0158 27.7397 42.0577 27.7811C42.2671 27.8641 42.4347 27.9886 42.5603 28.0716C43.021 28.4864 43.4398 28.8598 43.8587 29.2332C43.9005 29.1917 43.9424 29.1502 43.9843 29.1088C45.3664 27.8641 46.958 26.4535 48.382 24.6281C48.2144 24.2547 47.8794 24.0057 47.5443 23.7568ZM20.572 22.0558C20.5301 22.0973 20.4045 22.0558 20.3626 22.0143C20.1113 21.6824 19.9019 21.3505 19.6506 21.0186C19.5669 20.8942 19.525 20.7697 19.4831 20.6867C19.6087 20.6452 19.7763 20.6037 19.9438 20.5208C20.0694 20.6867 20.1951 20.8112 20.3207 20.9356C20.4045 21.0186 20.4883 21.1431 20.572 21.2676C20.7814 21.4335 20.7396 21.9314 20.572 22.0558ZM53.4497 61.3448C53.5754 61.1789 53.701 61.1374 53.9104 61.2618C54.1199 61.4278 54.3293 61.5523 54.5387 61.6767C54.6643 61.7597 54.7481 61.8427 54.8737 61.9256C54.9156 61.9256 54.9156 61.9671 54.9575 61.9671C55.0413 61.6767 55.0832 61.4278 55.4182 61.4693C55.7114 61.5108 55.6276 61.7597 55.5857 61.9256C55.5439 62.1331 55.5439 62.465 55.1669 62.3405C55.1669 62.3405 55.1669 62.3405 55.125 62.3405C55.125 62.548 55.0832 62.7554 55.2088 62.9214C55.0832 62.9628 54.9575 63.0873 54.8737 63.0458C54.2455 62.7969 53.701 62.3405 53.2822 61.8012C53.1147 61.6767 53.3241 61.5108 53.4497 61.3448ZM52.5702 60.764C52.7796 60.7225 52.989 60.6395 53.1147 60.7225C53.2822 60.764 53.2822 60.9299 53.1566 61.0959C52.9471 61.3448 52.6121 61.5108 52.5283 61.3448C52.5283 61.1789 52.5702 61.0129 52.5702 60.764ZM50.8111 59.3534C50.9787 59.146 51.1043 59.1045 51.3556 59.2704C51.6488 59.5193 51.6907 59.8098 51.3975 60.1002C51.3137 60.1832 51.1043 60.1417 51.0206 60.1417C50.5598 59.8512 50.5598 59.6853 50.8111 59.3534ZM49.7641 58.3162C49.7641 58.2747 49.9735 58.2747 50.0154 58.3162C50.0573 58.3577 50.0573 58.4822 50.141 58.6481C49.9735 58.6066 49.8478 58.6481 49.806 58.5651C49.7222 58.5236 49.7222 58.3992 49.7641 58.3162ZM38.5815 21.8899C38.6652 21.9314 38.749 22.0973 38.7071 22.1803C38.6652 22.2633 38.5396 22.3462 38.4558 22.3462C38.2883 22.3462 38.1627 22.3047 37.9951 22.2633C37.9951 22.2633 37.9951 22.2633 37.9951 22.3047C37.8276 22.2633 37.6182 22.2218 37.4925 22.1388C37.4088 22.0973 37.2831 21.9728 37.325 21.8899C37.325 21.8069 37.4506 21.7239 37.5344 21.6824C37.8695 21.558 38.2464 21.7239 38.5815 21.8899ZM37.6601 20.0644C37.7438 20.1474 37.6601 20.3133 37.6601 20.4793C37.4925 20.5623 37.3669 20.6037 37.2831 20.6452C37.2831 20.5623 37.2412 20.4378 37.2412 20.3548C37.2412 20.3133 37.2412 20.2718 37.2412 20.2304C37.2412 20.1059 37.2412 19.9814 37.2831 19.857C37.4088 19.8985 37.5763 19.9399 37.6601 20.0644ZM36.3198 19.1102C36.613 19.0272 36.9062 18.9857 37.1994 18.9857C37.2412 18.9857 37.3669 19.1517 37.325 19.1932C37.2831 19.4006 37.1994 19.608 37.0737 19.774C36.9899 19.857 36.7386 19.8155 36.6549 19.8155C36.4874 19.6495 36.4036 19.5251 36.3198 19.4421C36.2779 19.3176 36.3198 19.1102 36.3198 19.1102ZM36.1523 23.259C36.0266 23.4249 35.901 23.4664 35.6916 23.3419C35.3984 23.1345 35.3146 22.8026 35.5241 22.5537C35.7335 22.3047 35.8591 22.3047 36.1523 22.5122C36.4455 22.7611 36.4455 22.9271 36.1523 23.259ZM34.8958 18.3219C34.9377 18.2389 35.0215 18.156 35.0634 18.156C35.189 18.156 35.3565 18.156 35.4822 18.1974C35.5659 18.2389 35.6916 18.2389 35.8172 18.3219C35.8591 18.3634 35.901 18.4464 35.8591 18.5294C35.8591 18.5708 35.7754 18.6953 35.6916 18.6953C35.4403 18.6538 35.189 18.6123 34.9377 18.5708C34.9377 18.5294 34.8958 18.3634 34.8958 18.3219ZM34.8958 19.6495C34.9796 19.6495 35.0634 19.691 35.2309 19.691C35.189 19.691 35.2728 19.691 35.3146 19.7325C35.3565 19.774 35.3984 19.857 35.4822 19.9399C35.3984 19.9814 35.3565 20.0229 35.2728 20.0229C35.1471 20.0229 34.9796 20.0229 34.8539 19.9399C34.7702 19.8985 34.7283 19.774 34.6445 19.691C34.7283 19.7325 34.8121 19.691 34.8958 19.6495ZM34.6445 21.7654C34.7702 21.6824 34.9377 21.5995 35.0215 21.558C35.3146 21.7239 35.6497 21.7239 35.5659 22.0973C35.5241 22.5122 35.3984 22.6366 34.9796 22.6366C34.8121 22.6366 34.6445 22.5537 34.477 22.5122C34.0163 22.3047 34.0163 22.2218 34.4351 21.9728C34.477 21.9314 34.5608 21.8484 34.6445 21.7654ZM34.2676 23.5909C34.4351 23.5909 34.5189 23.5494 34.5608 23.5494C34.6026 23.5909 34.6864 23.6738 34.6864 23.7568C34.6864 23.7983 34.6026 23.8398 34.5608 23.8813C34.477 23.8398 34.4351 23.7983 34.2676 23.5909ZM34.3513 25.3334C34.3513 25.3748 34.2676 25.4163 34.1419 25.5408C34.1001 25.4163 34.0582 25.2919 34.0582 25.2504C34.0582 25.2089 34.1838 25.1674 34.2257 25.1259C34.3095 25.1674 34.3513 25.2504 34.3513 25.3334ZM33.765 21.558C33.8488 21.475 34.0163 21.4335 34.1001 21.475C34.1838 21.5165 34.1838 21.6824 34.2257 21.8899C34.0163 21.8899 33.8488 21.8899 33.765 21.8484C33.765 21.8069 33.7231 21.5995 33.765 21.558ZM32.4248 20.8527C32.4666 20.8112 32.5504 20.7697 32.6342 20.7282C32.6761 20.7697 32.7179 20.8527 32.7179 20.8942C32.7179 20.9771 32.6342 21.0186 32.5085 21.1431C32.4666 20.9771 32.3829 20.8942 32.4248 20.8527ZM30.4144 21.2261C30.7076 21.1846 30.7495 20.9771 30.7913 20.7697C30.8751 20.4378 30.9589 20.1059 31.0008 19.774C30.9589 19.7325 30.8751 19.691 30.8751 19.6495C30.7913 19.5251 30.6238 19.3176 30.6657 19.2346C30.7495 19.0687 30.9589 18.9442 31.1264 18.8198C31.0845 18.7783 31.0426 18.7368 30.9589 18.6953C30.917 18.6538 30.8332 18.5294 30.8751 18.4464C30.917 18.3634 31.0008 18.3219 31.0845 18.3219C31.629 18.2389 31.7965 18.4464 31.6709 18.9857C31.629 19.1932 31.6709 19.2761 31.8384 19.4421C32.0478 19.691 32.1735 19.9814 32.2991 20.2718C32.341 20.3133 32.2153 20.4793 32.1735 20.4793C32.0897 20.5208 31.9222 20.4793 31.8384 20.5208C31.6709 20.5623 31.4196 20.5623 31.3777 20.6452C31.2939 20.8527 31.1264 21.1016 31.3777 21.3505C31.4615 21.4335 31.5033 21.558 31.5452 21.6824C31.4196 21.7239 31.2939 21.7654 31.1683 21.8069C31.0426 21.8069 30.917 21.8069 30.7913 21.7654C30.6657 21.7239 30.4982 21.6824 30.4144 21.6409C30.3306 21.5995 30.2469 21.475 30.205 21.392C30.205 21.3505 30.3306 21.2261 30.4144 21.2261ZM30.8751 22.4707C30.9589 22.5537 30.9589 22.7196 31.0426 22.7611C31.2102 22.8856 31.3358 23.01 31.2102 23.176C31.1264 23.3005 30.917 23.3005 30.8751 23.3005C30.4982 23.259 30.2469 23.176 30.3306 22.8441C30.3306 22.8026 30.3306 22.7196 30.2888 22.6781C30.2469 22.5537 29.9118 22.5122 30.0793 22.2633C30.1631 22.1388 30.7495 22.3047 30.8751 22.4707ZM29.5349 18.156C29.5349 18.1145 29.6186 18.0315 29.6605 18.0315C29.7862 17.99 29.9118 17.9485 30.0375 17.907C30.0375 18.0315 30.0375 18.1974 29.9956 18.3219C29.9956 18.3634 29.9537 18.4049 29.828 18.5708C29.7443 18.5708 29.5768 18.6123 29.4511 18.6123C29.5349 18.4464 29.5349 18.2804 29.5349 18.156ZM23.085 19.4421C23.1269 19.4006 23.2525 19.4006 23.42 19.3591C23.42 19.5251 23.42 19.6495 23.3782 19.691C23.3363 19.7325 23.1687 19.7325 23.085 19.7325C23.085 19.608 23.0431 19.4836 23.085 19.4421ZM22.6662 24.4621C22.5405 24.5866 22.3311 24.5866 22.1217 24.6696C21.996 24.5036 21.8285 24.3377 21.8285 24.2132C21.8285 24.0057 21.996 23.9228 22.2054 23.9643C22.4986 24.0887 22.7918 24.3377 22.6662 24.4621ZM24.7184 27.0344C24.6346 26.9929 24.5927 26.9514 24.509 26.8684C24.5509 26.8269 24.6346 26.7439 24.6765 26.7439C24.7603 26.7439 24.844 26.8269 24.9697 26.9099C24.8022 26.9929 24.7603 27.0344 24.7184 27.0344ZM25.1372 24.711C25.0534 24.9185 24.844 24.877 24.6765 24.794C24.5509 24.711 24.4252 24.6696 24.2996 24.6281C24.2996 24.711 24.2577 24.8355 24.2577 24.9185C24.2158 25.1674 24.0902 25.4578 24.4671 25.6238C24.509 25.6653 24.5509 25.7897 24.509 25.8727C24.509 25.9142 24.3833 25.9557 24.2996 25.9557C23.8389 25.9972 23.6294 25.7897 23.6713 25.3748C23.6713 25.1674 23.7132 25.0015 23.5038 24.8355C23.42 24.794 23.3782 24.5866 23.42 24.4621C23.42 24.4206 23.42 24.3791 23.42 24.3377C23.0431 24.1717 22.7499 23.8813 22.4567 23.5494C22.4149 23.4664 22.4567 23.3419 22.4149 23.2175C22.3311 23.01 22.2473 22.8441 22.1217 22.6781C21.996 22.5122 21.8704 22.5537 21.7447 22.6781C21.661 22.7611 21.5353 22.8856 21.4516 22.9686C21.2421 23.1345 21.1165 23.093 21.0327 22.8441C20.9909 22.7196 20.9909 22.5952 20.949 22.4707C20.8652 22.1803 20.949 22.0558 21.2421 22.0143C21.3678 22.0143 21.4934 22.0558 21.5772 21.9728C21.8285 21.8069 21.9542 21.9728 22.1217 22.0973C22.5824 22.4707 23.0431 22.8026 23.5038 23.176C23.5457 23.2175 23.5457 23.2175 23.5876 23.259C23.6713 22.9271 23.797 22.8856 24.1739 22.9686C24.4252 23.01 24.5509 23.176 24.4671 23.4249C24.4252 23.5494 24.4252 23.7153 24.3833 23.8398C24.5927 24.0057 24.7603 24.1302 24.9697 24.2962C25.0953 24.3791 25.1791 24.5866 25.1372 24.711ZM24.9697 21.1431C24.9278 21.2261 24.9278 21.309 24.8859 21.3505C24.844 21.4335 24.509 21.392 24.3414 21.392C24.0902 21.3505 24.0483 21.1431 24.0483 20.9356C24.0483 20.8112 24.0064 20.6867 24.0483 20.5623C24.132 20.2304 24.2577 19.857 24.3414 19.5251C24.2996 19.4836 24.2577 19.4421 24.2158 19.4421C24.0064 19.3176 23.8807 19.1517 24.0902 18.8613C24.3414 18.5294 24.4671 18.4464 24.7603 18.6123C24.8022 18.6123 24.8022 18.6123 24.8022 18.6123C24.844 18.6538 24.9278 18.6953 24.9697 18.7783C25.0953 18.9027 25.221 19.0272 25.3885 19.1102C25.5979 19.2761 25.5979 19.4421 25.4304 19.6495C25.0953 20.1059 25.3047 20.5208 25.4723 20.9356C25.5142 20.8527 25.5979 20.7697 25.6398 20.6867C26.1005 20.1059 26.3518 20.1059 26.8125 20.6452C27.0219 20.8942 27.1476 21.0601 27.5245 20.8527C27.7758 20.6867 28.3203 21.1431 28.3203 21.475C28.3203 21.6824 28.3203 21.7239 28.5716 21.7239C29.1998 21.7239 29.5768 22.1388 29.828 22.7611C29.9956 23.176 29.6605 23.5494 29.9537 23.9228C29.9537 23.9228 29.8699 24.0887 29.828 24.0887C29.4092 24.0057 28.9485 24.3377 28.5716 23.8813C28.3622 23.6738 28.069 23.5494 27.7758 23.3834C27.6502 23.3005 27.5245 23.259 27.4407 23.1345C27.1895 22.8026 26.8125 22.5537 26.4356 22.3462C26.2262 22.2218 25.933 22.0558 26.1424 21.6824C26.1843 21.5995 26.1005 21.4335 26.0167 21.3505C25.8492 21.1846 25.6817 21.0601 25.5142 20.8942C25.3047 21.1431 25.1791 21.2261 24.9697 21.1431ZM26.8544 26.3706C26.7287 26.495 26.6031 26.661 26.4356 26.5365C26.268 26.412 25.9749 26.1631 25.9749 26.0801C26.0586 25.7067 25.8492 25.5408 25.5979 25.3748C25.556 25.3334 25.5142 25.3334 25.5142 25.2919C25.4723 25.1674 25.4723 25.0429 25.4723 24.9185C25.5979 24.9185 25.7236 24.877 25.8073 24.9185C26.0167 25.0429 26.2262 25.2089 26.4356 25.3748C26.5612 25.4578 26.6869 25.5823 26.8125 25.6653C27.1476 25.9557 27.1476 26.0387 26.8544 26.3706ZM28.069 28.4449C27.9015 28.3205 27.7758 28.196 27.6083 28.0716C27.3989 27.9056 27.1895 27.7811 27.2732 27.4492C27.2732 27.3663 27.2732 27.2833 27.2313 27.2418C27.1476 27.0758 26.98 26.9099 27.1895 26.7854C27.3151 26.7439 27.5245 26.8269 27.6502 26.9099C27.8177 26.9929 27.9852 27.1588 28.1946 27.2833C28.2784 27.3248 28.3622 27.4078 28.4459 27.4078C28.6972 27.3663 29.0742 27.1173 28.9485 27.6982C28.9066 27.9471 29.2836 28.1545 28.9904 28.4449C28.9485 28.4864 28.9066 28.5694 28.9066 28.6524C28.8647 29.0258 28.8648 29.0258 28.5716 28.8183C28.404 28.6939 28.2365 28.5694 28.069 28.4449ZM29.1998 30.7683C29.1579 30.8512 29.0323 31.1002 28.9485 31.1002C28.7391 31.1002 28.4878 31.0172 28.2784 30.9342C28.2365 30.9342 28.1946 30.6853 28.2365 30.6853C28.4878 30.4779 28.781 30.2704 29.0742 30.1045C29.116 30.1045 29.2417 30.1874 29.2836 30.2704C29.2836 30.3949 29.2417 30.5193 29.1998 30.7683ZM29.2836 29.0673C29.1998 29.0258 29.1579 28.9013 29.1579 28.8183C29.1579 28.7769 29.3255 28.6939 29.3673 28.6939C29.4511 28.7354 29.493 28.8183 29.6186 28.9428C29.4511 29.0258 29.3255 29.1088 29.2836 29.0673ZM31.4615 28.113C31.2102 28.113 31.1683 28.279 31.3358 28.4864C31.4196 28.6109 31.6709 28.6524 31.5033 28.8598C31.4196 28.9428 31.2521 28.9428 31.0845 28.9428C31.2102 29.0673 31.3777 29.2332 31.3777 29.3577C31.3358 29.6481 31.0426 29.3992 30.917 29.4821C30.5819 29.6896 30.2888 29.5651 29.9956 29.3992C29.7443 29.2332 29.7862 29.0258 29.9537 28.8183C30.205 28.4864 30.3306 28.4035 30.6238 28.5694C30.6657 28.5694 30.6657 28.6109 30.7076 28.6109C30.54 28.362 30.2469 28.3205 29.9956 28.279C29.7024 28.196 29.3673 28.196 29.3673 27.7397C29.3673 27.5737 29.0742 27.4078 29.0742 27.2418C29.0742 27.1588 29.4511 27.0758 29.493 26.9099C29.6605 26.4535 30.0375 25.9557 29.5349 25.4578C29.493 25.4163 29.5768 25.2504 29.6186 25.2504C30.0375 25.1674 30.4144 25.2504 30.7495 25.4578C30.917 25.5823 30.8751 25.7482 30.6657 25.8312C30.2469 25.9972 30.2888 25.9972 30.4982 26.3291C30.5819 26.495 30.54 26.7439 30.6238 26.9514C30.6657 27.0758 30.7076 27.2003 30.7913 27.2833C30.8751 27.2418 31.0008 27.2003 31.0845 27.1173C31.2939 26.9514 31.7128 26.8684 31.9641 27.0758C32.0897 27.2003 32.0897 27.4492 32.1735 27.6152C31.8803 27.9471 31.7546 28.113 31.4615 28.113ZM20.572 59.063C20.8233 58.7311 20.949 58.7311 21.284 58.98C21.5772 59.1874 21.5772 59.3949 21.284 59.7683C21.1165 59.9757 20.949 60.0172 20.7396 59.8512C20.4045 59.5193 20.3207 59.3119 20.572 59.063ZM21.1165 61.2203C21.0746 61.1789 21.0327 61.0544 21.0327 60.9714C21.1165 60.9299 21.2421 60.8884 21.284 60.8884C21.3678 60.9299 21.3678 61.0544 21.4516 61.1789C21.284 61.2203 21.1584 61.2618 21.1165 61.2203ZM21.9123 62.7554C21.8704 62.8384 21.8285 62.9213 21.7866 62.9628C21.7029 63.0458 21.661 63.1288 21.5772 63.1703C21.5353 63.2118 21.4516 63.2118 21.3678 63.2533C21.3678 63.1703 21.284 63.0873 21.3259 63.0043C21.4516 62.6724 21.7029 62.382 21.4097 62.0501C21.4097 62.0501 21.4516 61.8842 21.5353 61.8842C21.6191 61.8427 21.7447 61.8842 21.7866 61.8842C22.0379 61.9671 22.1217 62.3405 21.9123 62.7554ZM22.2892 62.3405C22.2473 62.2161 22.1636 62.0916 22.1636 62.0086C22.1636 61.9671 22.3311 61.8842 22.373 61.8842C22.4567 61.9256 22.4986 62.0501 22.5405 62.1331C22.5405 62.1746 22.4149 62.2161 22.2892 62.3405ZM22.7499 58.6066C22.6662 58.6481 22.5405 58.6481 22.4567 58.6066C22.2473 58.4821 22.0798 58.3162 21.9123 58.1917C21.7866 58.1088 21.661 57.9843 21.5353 57.9013C21.284 57.7354 21.1584 57.5279 21.4097 57.2375C21.6191 56.9471 21.8285 56.9471 22.0798 57.1131C22.4567 57.3205 22.7499 57.4864 22.6662 57.9843C22.6662 58.1088 22.7499 58.2332 22.7918 58.3577C22.7918 58.3992 22.7918 58.5651 22.7499 58.6066ZM22.8756 61.2618C22.8337 61.2618 22.8756 61.1789 22.8756 61.1374C22.9593 61.1374 23.0012 61.1374 23.0431 61.1374C23.085 61.1374 23.085 61.2203 23.1269 61.3448C23.0012 61.2618 22.9174 61.2618 22.8756 61.2618ZM24.2158 62.382C24.0902 62.2575 24.0064 62.2161 23.9645 62.1331C23.9226 62.0916 23.9645 62.0086 23.9645 61.9671C24.0064 61.9256 24.0902 61.9256 24.132 61.9256C24.2158 61.9671 24.2996 62.0086 24.3833 62.0501C24.4671 62.1746 24.5509 62.299 24.6346 62.4235C24.4671 62.4235 24.3414 62.382 24.2158 62.382ZM25.7655 60.9714C25.5979 61.0129 25.3466 60.8055 25.1791 60.7225C25.1372 60.681 25.0953 60.6395 25.0534 60.598C24.844 60.4321 24.5509 60.3076 24.6765 59.9342C24.7184 59.7683 24.6346 59.6438 24.4671 59.5608L24.4252 59.6023C24.4252 59.5608 24.4252 59.5608 24.3833 59.5193C24.2577 59.4364 24.0902 59.4364 23.9226 59.4779C23.5038 59.6023 23.1269 59.2704 23.2106 58.814C23.2106 58.7311 23.2525 58.6066 23.2106 58.5236C23.0431 58.2332 23.085 58.1088 23.4619 58.1917C23.5457 58.1917 23.6294 58.1917 23.6713 58.1502C23.7132 58.1088 23.797 58.0673 23.8389 58.0258C23.7551 58.0258 23.7132 58.0258 23.6713 57.9843C23.5876 57.9428 23.5038 57.8598 23.5038 57.7769C23.5038 57.6939 23.6294 57.6109 23.6713 57.6109C24.0483 57.6524 24.4671 57.6109 24.8022 57.7769C25.0534 57.9013 25.1791 58.2747 25.3466 58.5651C25.3466 58.6066 25.221 58.814 25.1372 58.814C24.844 58.814 24.7603 58.9385 24.6765 59.146C24.7603 59.3119 24.9278 59.4364 25.0953 59.5193C25.3047 59.6023 25.4723 59.7268 25.6398 59.8512C25.8073 59.9757 25.933 60.1002 25.8073 60.3491C25.8073 60.3906 25.7655 60.4321 25.7655 60.4736C25.8911 60.598 26.1005 60.8884 25.7655 60.9714ZM25.2629 55.578C25.3466 55.578 25.4304 55.578 25.5142 55.6195C25.556 55.661 25.556 55.744 25.556 55.8684C25.4304 55.8269 25.3047 55.8269 25.2629 55.7854C25.2629 55.7025 25.2629 55.6195 25.2629 55.578ZM25.8492 52.9228C25.8073 52.7568 25.7236 52.6324 25.7236 52.5494C25.7655 52.4664 25.8911 52.4249 26.0167 52.4249C26.0586 52.4249 26.1424 52.5909 26.1424 52.6324C26.1005 52.7568 25.9749 52.8398 25.8492 52.9228ZM27.5664 62.0501C27.4407 62.1746 27.3151 62.3405 27.1057 62.1746C26.9382 62.0086 26.6031 61.9671 26.7287 61.5937C26.7706 61.5108 26.7706 61.3863 26.7706 61.3033C26.7706 61.1789 26.7706 61.0129 26.7706 60.8884C26.9382 60.9299 27.1057 60.9299 27.2732 60.9714C27.357 60.9714 27.3989 61.0544 27.3989 61.0544C27.9433 61.5108 27.9433 61.6352 27.5664 62.0501ZM27.2313 53.0472C27.1057 52.9228 27.0219 52.8813 27.0219 52.8398C26.98 52.7983 26.98 52.6739 26.98 52.6324C27.0219 52.5909 27.1057 52.5909 27.1895 52.5909C27.2732 52.5909 27.357 52.6324 27.3989 52.7153C27.4826 52.8398 27.5664 52.9643 27.6502 53.1302C27.4826 53.0887 27.3151 53.0472 27.2313 53.0472ZM27.6083 57.5279C27.6083 57.5694 27.4826 57.6524 27.357 57.6939C27.2732 57.5694 27.1895 57.4864 27.2313 57.445C27.2732 57.362 27.3989 57.3205 27.4826 57.2375C27.4826 57.362 27.5664 57.445 27.6083 57.5279ZM28.2784 53.3377C28.1946 53.3377 28.1109 53.1302 28.069 53.0472C28.3203 52.6739 28.404 52.3419 27.9433 52.176C27.9015 52.176 27.9433 51.9686 27.9433 51.8856C28.1528 51.8856 28.3203 51.8441 28.5297 51.9271C28.6553 51.9686 28.781 52.1345 28.781 52.259C28.7391 52.5909 28.6553 52.9228 28.9904 53.1717C29.0323 53.1717 28.9904 53.3377 28.9904 53.3377C28.7391 53.2962 28.4878 53.3791 28.2784 53.3377ZM30.0793 63.5852C30.0375 63.6681 29.828 63.6266 29.7024 63.6266C29.4511 63.2533 29.2417 63.0458 28.8648 63.3777C28.8229 63.4192 28.6972 63.2947 28.5716 63.2533C28.6553 63.0873 28.6972 62.8799 28.8229 62.7554C28.9066 62.6724 29.116 62.6309 29.1998 62.6724C29.493 62.8384 29.7443 63.0873 30.0793 62.8799C30.1212 62.8799 30.205 62.9213 30.205 62.9628C30.205 63.1703 30.1631 63.3777 30.0793 63.5852ZM30.205 61.3863C30.1631 61.2203 30.1212 61.1374 30.1631 61.0544C30.1631 61.0129 30.2888 60.9714 30.3306 60.9299C30.3725 61.0129 30.4563 61.0959 30.4563 61.1374C30.4144 61.2203 30.3306 61.2618 30.205 61.3863ZM30.205 57.445C30.1631 57.5279 30.0375 57.6109 29.9537 57.6939C29.9118 57.5694 29.7862 57.4864 29.7862 57.362C29.828 57.0716 29.8699 56.8226 29.9537 56.5322C29.9537 56.5322 29.9537 56.5322 29.9118 56.5322C29.9956 56.2418 30.0793 55.9099 30.1631 55.6195C30.205 55.5365 30.3306 55.4535 30.3725 55.4535C30.3725 55.3706 30.4144 55.3291 30.4563 55.2461C30.4982 55.2046 30.6238 55.1631 30.6657 55.2046C30.7076 55.2876 30.7495 55.3706 30.7076 55.4535C30.7076 55.495 30.5819 55.5365 30.54 55.578C30.5819 55.6195 30.5819 55.661 30.5819 55.7025C30.54 56.0344 30.4982 56.3248 30.8332 56.5737C30.8332 56.5737 30.7913 56.7397 30.7913 56.7811C30.3725 56.8226 30.3306 57.1545 30.205 57.445ZM30.7076 58.897C30.6657 58.8141 30.6238 58.7311 30.6238 58.6896C30.6238 58.6481 30.7076 58.6481 30.7495 58.6066C30.7913 58.6481 30.8332 58.7311 30.8332 58.7726C30.8751 58.8141 30.7913 58.8141 30.7076 58.897ZM31.4615 55.4535C31.4196 55.4121 31.3358 55.3291 31.3777 55.2876C31.4196 55.2046 31.5033 55.1631 31.5452 55.1216C31.5871 55.1631 31.629 55.2461 31.7128 55.3291C31.5871 55.3706 31.5452 55.4121 31.4615 55.4535ZM31.3358 54.3334C31.3358 54.2504 31.3358 54.1259 31.3777 54.0429C31.4196 54.0015 31.5452 54.043 31.6709 54.0015C31.629 54.1674 31.629 54.2504 31.5871 54.3334C31.5452 54.3749 31.4196 54.3334 31.3358 54.3334ZM33.053 61.7182C33.0111 61.6767 33.0111 61.5523 32.9692 61.4693C33.053 61.4693 33.0949 61.4278 33.2205 61.4278C33.2205 61.5522 33.2205 61.6352 33.2624 61.7182C33.2205 61.7182 33.0949 61.7597 33.053 61.7182ZM33.1786 55.661C33.053 55.7854 32.9273 56.1173 32.6761 55.9514C32.3829 55.744 32.7598 55.578 32.7598 55.3706C32.8436 55.2876 32.8855 55.2046 32.9692 55.1631C33.0111 55.1216 33.1368 55.1216 33.1786 55.1631C33.2205 55.2046 33.3043 55.3291 33.2624 55.412C33.3043 55.495 33.2624 55.578 33.1786 55.661ZM36.6549 58.1502C36.613 58.2332 36.5292 58.2332 36.4036 58.3162C36.4036 58.1917 36.3617 58.0673 36.4036 58.0673C36.4455 58.0258 36.5711 57.9843 36.613 57.9843C36.6549 58.0258 36.6968 58.1088 36.6549 58.1502ZM37.1994 61.3033C37.0737 61.1789 36.9481 61.0544 36.8643 60.9714C37.0318 60.9299 37.1994 60.8884 37.3669 60.8884C37.4925 60.8884 37.5763 61.0129 37.7019 61.0959C37.5344 61.1374 37.3669 61.2203 37.1994 61.3033ZM40.885 59.2289C40.7175 59.3119 40.5918 59.3534 40.4243 59.3949C40.4662 59.2289 40.5081 59.063 40.5918 58.9385C40.6337 58.8555 40.8012 58.8141 40.9269 58.7311C40.9269 58.897 40.885 59.0215 40.885 59.2289ZM40.2987 51.6367C40.2987 51.5122 40.2987 51.3877 40.3824 51.2633C40.4243 51.1803 40.5918 51.1388 40.8012 51.0558C40.7594 51.3048 40.7594 51.4707 40.6756 51.5122C40.5918 51.5952 40.4243 51.5952 40.2987 51.6367ZM41.7227 53.6281C41.4714 53.5451 41.3457 53.5036 41.1782 53.4621C40.9688 53.3377 40.9688 53.2132 41.1363 53.0472C41.2201 53.0058 41.3038 52.9643 41.3457 52.9228C41.3038 52.8813 41.3038 52.8813 41.262 52.8398C41.0944 52.6739 41.0944 52.5079 41.262 52.3005C41.4714 52.259 41.6808 52.093 41.8064 52.1345C42.0158 52.2175 42.3509 52.3419 42.2671 52.7153C42.2671 52.7568 42.2671 52.7983 42.2671 52.8398C42.309 52.8813 42.3509 52.9643 42.3928 53.0472C42.4765 53.1302 42.5603 53.1717 42.6022 53.2547C42.6441 53.3791 42.7278 53.5036 42.686 53.5866C42.6441 53.6696 42.4765 53.711 42.3509 53.7525C42.2252 53.794 42.0996 53.794 41.974 53.794C41.974 53.7525 41.8064 53.6696 41.7227 53.6281C41.7645 53.6281 41.7645 53.6281 41.7227 53.6281ZM42.6022 50.4335C42.686 50.392 42.7697 50.309 42.8116 50.309C42.8954 50.3505 42.9372 50.4335 43.021 50.558C42.8954 50.5995 42.7697 50.6824 42.7278 50.6824C42.686 50.6409 42.686 50.5165 42.6022 50.4335ZM42.4347 62.8799C42.3509 62.9628 42.309 63.0458 42.2252 63.0873C42.1834 63.1288 42.0158 63.1288 42.0158 63.1288C41.974 63.0043 41.9321 62.8799 41.974 62.7969C42.0996 62.6309 42.1415 62.3405 42.4765 62.4235C42.5184 62.4235 42.5184 62.6724 42.5184 62.7969C42.5184 62.7969 42.4765 62.8384 42.4347 62.8799ZM42.8954 61.4693C42.686 61.7182 42.5184 61.6767 42.309 61.5108C42.0158 61.2618 41.974 61.1374 42.1834 60.8884C42.3928 60.6395 42.686 60.6395 42.9373 60.847C43.1467 61.0129 43.1467 61.1789 42.8954 61.4693ZM43.9424 59.6438C43.6492 59.7268 43.6911 60.0172 43.5655 60.1832C43.4817 60.2661 43.398 60.4321 43.2723 60.4321C43.1885 60.4321 43.0629 60.3076 42.9791 60.2246C42.8954 60.1417 42.8116 60.0172 42.7697 59.8927C42.7278 59.7683 42.7278 59.5608 42.7697 59.5193C43.1467 59.3949 43.1885 59.063 43.3142 58.7726C43.398 58.5651 43.5655 58.4821 43.8168 58.5236C43.9424 58.6896 44.1937 58.8141 44.2356 58.98C44.3194 59.2289 44.3194 59.5608 43.9424 59.6438ZM44.2775 57.6109C44.1518 57.5694 44.11 57.4035 44.0262 57.3205C44.1518 57.279 44.2775 57.196 44.4031 57.2375C44.4869 57.2375 44.5707 57.362 44.7801 57.5279C44.5288 57.5694 44.3612 57.6524 44.2775 57.6109ZM47.6281 59.8512C47.5024 59.9342 47.3768 59.9757 47.2093 60.0587C47.0836 60.1002 46.9998 60.1417 46.8742 60.1832C46.8323 60.0587 46.7904 59.9342 46.7904 59.8098C46.7904 59.7683 46.7904 59.7268 46.7904 59.6853C46.8742 59.3534 47.3349 59.146 47.67 59.3534C47.8375 59.4779 47.8375 59.7683 47.6281 59.8512ZM48.005 57.7769C47.9631 57.7354 47.9631 57.6109 47.9631 57.5279C47.9631 57.4864 48.1307 57.445 48.1307 57.4864C48.1726 57.5279 48.1726 57.6524 48.2563 57.8598C48.1307 57.8598 48.005 57.8598 48.005 57.7769ZM48.1307 54.4578C48.0888 54.2919 48.005 54.2089 48.005 54.1259C48.005 54.0844 48.1726 53.96 48.2144 54.0015C48.2982 54.043 48.382 54.1674 48.382 54.2504C48.382 54.2919 48.2563 54.3749 48.1307 54.4578ZM45.1151 44.6252C45.1989 44.6667 45.1989 44.8326 45.2408 44.9571C45.0733 44.9571 44.9057 44.9986 44.6963 44.9986C44.6125 44.7912 44.5707 44.6252 44.5288 44.5007C44.6963 44.5422 44.9057 44.5422 45.1151 44.6252ZM42.6022 42.8412C42.686 42.8827 42.7278 42.9242 42.7697 43.0072C42.8116 43.0902 42.7697 43.1731 42.8116 43.2561C42.7278 43.2561 42.6441 43.2976 42.6022 43.2561C42.5184 43.2146 42.4765 43.1731 42.309 43.0902C42.2671 43.0072 42.2252 42.8827 42.1834 42.7583C42.3509 42.7583 42.4765 42.7583 42.6022 42.8412ZM35.2728 37.1574C35.3984 37.0329 35.5241 36.8255 35.6916 36.9914C35.7754 37.0744 35.6916 37.2819 35.6916 37.4893C35.5241 37.5308 35.3565 37.6138 35.2728 37.5723C35.0215 37.4478 35.189 37.2819 35.2728 37.1574ZM34.5189 47.5294C34.5608 47.4049 34.6864 47.2804 34.7702 47.156C34.7283 47.1145 34.6445 47.073 34.6445 47.0315C34.6445 46.9485 34.6445 46.8241 34.6864 46.7411C34.6864 46.7411 34.7702 46.7411 34.8539 46.7411C34.8539 46.8241 34.8539 46.9485 34.8539 47.0315C34.8539 47.073 34.8121 47.1145 34.7702 47.156C34.8958 47.2389 35.0215 47.2804 35.1052 47.3634C35.4822 47.7783 35.9429 47.5708 36.4036 47.5294C36.4874 47.5294 36.5711 47.5294 36.6968 47.5294V35C36.6968 37.5723 37.8276 39.3977 39.3354 41.0987C39.4191 41.0573 39.5029 41.0158 39.6285 40.9743C39.7961 40.8913 39.8798 41.0987 39.8379 41.3062C39.8379 41.3892 39.7961 41.5136 39.7961 41.5966C39.9636 41.7625 40.173 41.97 40.3405 42.1359C40.3824 42.1359 40.3824 42.0945 40.4243 42.0945C40.5918 42.053 40.7175 42.0115 40.7594 41.887C40.6756 41.8455 40.5918 41.7626 40.5499 41.6796C40.5081 41.6381 40.6337 41.4306 40.7175 41.4306C40.7594 41.4306 40.8012 41.4306 40.8431 41.4306C40.885 41.2647 41.0107 41.1817 41.262 41.2232C41.7645 41.3062 41.9321 41.4306 41.8483 41.7625C41.8064 41.97 41.7645 42.2189 41.4714 42.3019C41.3876 42.3019 41.3457 42.5093 41.3038 42.5923C41.4295 42.6338 41.5132 42.7168 41.597 42.6753C41.7645 42.6338 41.8902 42.3849 42.0577 42.5923C42.1415 42.7168 42.0996 42.9242 42.0996 43.0902C42.0996 43.2146 42.0577 43.3806 42.0158 43.505C42.0158 43.5465 42.0158 43.5465 41.974 43.588C42.6022 44.1274 43.2304 44.7082 43.8587 45.3305C43.9843 45.372 44.11 45.4135 44.11 45.5794C44.6963 46.1603 45.2408 46.7826 45.7853 47.4464C45.869 47.2389 45.9528 47.0315 46.1203 46.907C46.3297 46.7411 46.5391 46.5337 46.7904 46.4507C46.8742 46.4092 47.0836 46.7826 47.2093 46.99C47.293 47.1145 47.3349 47.2389 47.3768 47.4049C47.3768 47.5294 47.3349 47.6953 47.3349 47.8198C47.2093 48.4006 47.1255 48.5251 46.6648 48.4836C47.4605 49.6452 48.2144 50.9314 48.8427 52.4664L45.7853 51.2218C45.869 51.4707 46.0784 51.6367 46.2041 51.8441C46.4135 52.176 46.4135 52.5909 46.1203 52.7568C45.7015 53.0058 45.7015 53.0058 45.9947 53.4206C46.2041 53.6696 46.0784 54.1674 45.7853 54.3334C45.4502 54.4993 45.3245 54.8312 45.4502 55.1216C45.7015 54.8727 45.7853 54.8727 46.1203 55.1216C46.4135 55.3291 46.3297 55.5365 46.1203 55.744C45.9528 55.9929 45.8271 56.0344 45.5758 55.8684C45.4921 56.0344 45.3245 56.1588 45.0733 56.1588C44.9057 56.1588 44.6963 56.1588 44.5288 56.1173C44.1937 56.0759 44.0262 55.8684 44.0681 55.5365C44.1518 54.9972 44.2775 54.4993 44.3612 53.96C44.445 53.4621 44.7382 52.9228 44.3612 52.4249C44.3194 52.3419 44.445 52.1345 44.5288 52.01C44.6544 51.8026 44.822 51.6781 44.9476 51.4707C44.9895 51.3877 44.9895 51.1803 44.9057 51.0973C44.822 50.9729 44.7801 50.8484 44.7382 50.7654L40.1311 48.857C40.0892 48.8985 40.0055 48.9399 39.9636 48.9814C39.7542 49.1474 39.6704 49.3548 39.9217 49.5208C40.2568 49.7697 40.0892 50.0601 40.0474 50.3505C40.0055 50.6409 40.0055 50.9314 39.5867 51.0143C39.461 51.0143 39.4191 51.3048 39.2935 51.4707C39.2097 51.5952 39.1259 51.7611 39.0422 51.7611C38.9165 51.7611 38.7909 51.6367 38.6652 51.5537C38.5815 51.5122 38.5396 51.3877 38.4558 51.3462C38.1627 51.0143 38.2045 50.9314 38.5815 50.7654C38.6234 50.7654 38.6234 50.7239 38.6652 50.7239C38.2883 50.475 37.9114 50.1846 37.5344 49.9357C37.1156 49.6452 36.7805 49.1889 36.1523 49.2718C36.0685 49.2718 35.9429 49.1059 35.8591 48.9814C35.7335 48.774 35.6916 48.5666 35.5659 48.4006C35.5241 48.3176 35.3146 48.2761 35.2309 48.2761C34.6026 48.3591 34.3932 48.1102 34.5189 47.5294ZM37.4506 50.3505C37.5344 50.309 37.6601 50.2676 37.7438 50.2676C37.7857 50.2676 37.8276 50.392 37.9114 50.5165C37.7438 50.558 37.6601 50.5995 37.5763 50.558C37.4925 50.558 37.4925 50.4335 37.4506 50.3505ZM37.5344 52.4664C37.4925 52.5494 37.4506 52.6324 37.3669 52.6739C37.2831 52.7153 37.1575 52.6739 37.0737 52.6739C36.9062 52.5909 36.5292 52.6324 36.5711 52.3419C36.613 51.9686 36.9481 52.2175 37.1575 52.176C37.2412 52.2175 37.3669 52.2175 37.4506 52.3005C37.4925 52.3005 37.5344 52.3834 37.5344 52.4664ZM36.1104 50.2676C36.0685 50.2676 35.9848 50.1846 35.901 50.1431C35.901 50.1016 35.9429 50.0186 35.9429 49.9771C36.0266 49.9771 36.1104 49.9357 36.1523 49.9357C36.1942 49.9357 36.2779 50.0601 36.2779 50.1016C36.2779 50.1846 36.1942 50.2676 36.1104 50.2676ZM36.2361 51.4707C36.2779 51.6781 36.1104 51.8856 36.0685 52.01C35.901 52.176 35.7754 52.3005 35.6916 52.3834C35.4822 52.5494 35.3565 52.4664 35.3146 52.259C35.2728 52.1345 35.3146 52.01 35.2309 51.9271C34.9796 51.5952 35.1471 51.4292 35.3984 51.2218C35.6916 51.0143 36.1523 51.1388 36.2361 51.4707ZM34.4351 53.96C34.477 53.9185 34.477 53.877 34.5189 53.877C34.6864 53.7525 34.7702 53.4621 35.0215 53.6281C35.3146 53.794 35.0215 54.0015 34.9377 54.1674C34.8539 54.3334 34.7283 54.4578 34.9377 54.6238C35.1471 54.7897 35.2728 55.0802 35.6078 54.9557C35.901 54.8727 36.1942 54.8312 36.4874 54.7897C36.7386 54.7482 37.4506 55.3706 37.4925 55.661C37.4925 55.744 37.5344 55.8269 37.5344 55.9099C37.6182 55.8684 37.7019 55.8684 37.7857 55.8684C38.037 55.8684 38.2883 55.9514 38.5815 55.9929C38.6652 55.9929 38.749 55.8684 38.8328 55.8269C38.7909 55.7439 38.7071 55.6195 38.6652 55.6195C38.1208 55.578 38.0789 55.1216 37.8276 54.8312C37.5344 54.4163 37.6601 54.0429 37.7438 53.6281C37.8276 53.2962 37.8695 53.0058 37.9532 52.7153C38.037 52.4249 38.4139 52.3834 38.4977 52.6324C38.6234 53.0472 38.9165 53.0472 39.2516 53.1302C39.2935 53.1302 39.3354 53.1302 39.3772 53.1717C39.5448 53.2547 39.8798 53.2132 39.8379 53.5036C39.7961 53.8355 39.5029 53.6696 39.2935 53.6696C39.1259 53.6696 38.9165 53.6281 38.8747 53.877C38.8328 54.1259 38.6234 54.3749 38.8747 54.6653C39.0841 54.8727 39.2516 55.1216 39.4191 55.3706C39.5867 55.578 39.2935 56.5322 39.0841 56.6567C38.9584 56.7397 38.8747 56.8226 38.749 56.8641L37.9951 57.8183C37.8695 57.8598 37.7438 57.9428 37.6182 57.9013C37.2412 57.8598 37.1156 57.7769 37.1156 57.445C37.0737 57.362 37.0318 57.279 36.9899 57.1545C36.9481 56.9056 36.8224 56.8226 36.5711 56.8641C36.5292 56.8641 36.5292 56.8641 36.4874 56.8641C36.4455 56.9056 36.4036 56.9471 36.3617 56.9471C36.2779 56.9471 36.1942 56.8641 36.0685 56.7811C36.1523 56.7397 36.2361 56.6567 36.2779 56.6567C36.2779 56.5737 36.3198 56.4907 36.3617 56.4078C36.4874 56.2003 36.6549 55.9929 36.7805 55.7854C36.8224 55.7025 36.7386 55.578 36.7386 55.495C36.6549 55.495 36.5292 55.495 36.4874 55.5365C36.2361 55.9929 35.8172 55.8269 35.4403 55.9099C34.9796 55.9929 34.6864 55.7439 34.3513 55.495C34.1001 55.2876 33.8488 55.1216 33.5975 54.9142C33.3881 54.7068 33.4718 54.3749 33.7231 54.4163C34.1419 54.4578 34.2676 54.2089 34.4351 53.96ZM33.5556 46.7411C33.5137 46.6996 33.5137 46.5751 33.5137 46.4922C33.5975 46.4922 33.7231 46.4507 33.8069 46.4507C33.8488 46.4507 33.8488 46.6166 33.8906 46.7411C33.765 46.7411 33.6393 46.7826 33.5556 46.7411ZM33.9325 49.5623C33.9325 49.6867 33.9325 49.8527 33.8906 49.8527C33.8069 49.8942 33.6812 49.8942 33.5975 49.8942C33.5975 49.8112 33.5556 49.6867 33.5975 49.6452C33.6812 49.6038 33.765 49.6038 33.9325 49.5623ZM34.1838 35.7053C34.4351 35.9542 34.1001 36.1202 34.0163 36.2862C33.9325 36.4521 33.8069 36.5766 33.5975 36.4521C33.5137 36.4106 33.3881 36.3276 33.2624 36.2447V44.7497C33.3043 44.7497 33.3043 44.7912 33.3462 44.7912C33.765 45.1231 33.8488 45.2475 33.7231 45.5379V45.5794C33.7231 45.6209 33.6812 45.6209 33.6393 45.6624C33.5975 45.7454 33.5556 45.8284 33.5137 45.9113C33.4299 45.9528 33.3881 45.9943 33.3043 46.0358V47.7368C32.7598 47.8613 32.2572 47.9857 31.7546 48.1932L31.5871 48.2346C31.4196 48.4421 31.2521 48.5666 31.0426 48.4836L29.3673 49.1474C29.4092 49.3133 29.4511 49.4378 29.493 49.6037C29.493 49.6867 29.493 49.7697 29.493 49.7697C29.4511 49.8942 29.4511 50.0186 29.4092 50.1016C29.4511 50.1016 29.493 50.1016 29.5349 50.1016C29.6605 50.1016 29.828 50.1016 29.9537 50.1846C30.1631 50.309 30.3306 50.475 30.54 50.5995C30.6657 50.6824 30.8332 50.7654 30.917 50.7239C31.3777 50.5165 31.3358 50.7654 31.2939 51.0558C31.2521 51.2633 31.3358 51.4707 31.3777 51.6781C31.4196 51.9271 31.5871 52.093 31.8384 51.9271C32.2153 51.7196 32.3829 52.01 32.5923 52.176C32.8017 52.3419 33.0949 52.4664 32.9692 52.8398C32.9273 52.9643 33.1786 53.1302 33.2624 53.2962C33.3462 53.4206 33.4718 53.5451 33.4299 53.6281C33.3881 53.7525 33.2205 53.794 33.0949 53.877C33.0111 53.9185 32.9273 53.9185 32.8017 53.96C32.4248 54.0429 32.2991 54.0015 32.341 53.5866C32.3829 53.0887 31.7546 52.5909 31.2939 52.7153C31.1683 52.7568 31.0426 52.8398 30.9589 52.7983C30.6238 52.5909 30.4144 52.7983 30.205 53.0472C29.9956 53.2962 29.5349 53.1302 29.493 52.8398C29.4511 52.6324 29.6186 52.5494 29.7862 52.5909C30.1631 52.6324 30.2469 52.5494 30.1212 52.176C30.0793 51.9686 30.2469 51.7196 30.2888 51.4707C30.3306 51.3462 30.3306 51.2218 30.3306 51.0973C30.205 51.0973 30.0375 51.0558 29.9118 51.0973C29.6605 51.1803 29.3673 51.0558 29.0742 51.3048C29.0323 51.3462 28.6553 51.0973 28.4878 50.9314C28.404 50.8484 28.4459 50.5995 28.5297 50.475C28.5716 50.4335 28.5716 50.392 28.6135 50.3505C28.4459 50.309 28.2784 50.2261 28.3203 50.0186C28.3622 49.8942 28.3203 49.7282 28.404 49.6037L27.6502 49.8942C27.6083 50.0186 27.5245 50.1846 27.3151 50.392C27.2313 50.5165 27.1476 50.6409 27.0219 50.7654C26.98 50.8069 26.8125 50.8069 26.7706 50.7654C26.7287 50.7239 26.7287 50.5995 26.7287 50.5165C26.7287 50.475 26.7706 50.4335 26.8125 50.3505C26.8544 50.2676 26.9382 50.2261 26.98 50.1431L25.4723 50.7654C25.5142 50.8484 25.556 50.9314 25.5979 50.9729C25.4723 51.0143 25.3466 51.0558 25.221 51.0973C25.1791 51.0973 25.0953 51.0973 25.0534 51.0558C24.9697 51.0558 24.9278 51.0143 24.844 50.9729L21.2421 52.4664C21.3259 52.2175 21.4516 51.9686 21.5353 51.7196C21.4934 51.7196 21.4934 51.7611 21.4516 51.7611C21.2421 51.8856 21.2003 52.0515 21.1584 52.2175C21.0746 52.5909 20.9909 53.0058 20.9071 53.3791C20.8652 53.6281 20.7814 53.8355 20.4883 53.7525C20.237 53.6696 19.9019 53.6281 19.9438 53.2132C19.9857 52.9643 20.0276 52.7153 20.1113 52.4664C20.1532 52.1345 20.1532 51.8026 20.1951 51.4707C20.237 51.1803 20.3207 50.9314 20.3626 50.6409C20.4464 50.2261 20.4883 49.7697 20.572 49.3548C20.572 49.2719 20.5301 49.2304 20.4883 49.1474C20.1532 48.691 20.237 48.2761 20.7396 48.0272C20.949 47.9027 21.1584 47.7783 21.3678 47.6123C21.5353 47.4879 21.4934 47.3634 21.3678 47.1975C21.3259 47.1145 21.3259 46.9485 21.3259 46.8241C21.5353 46.8241 21.7029 46.7826 21.9123 46.8241C22.0379 46.8656 22.1217 46.99 22.1636 47.073C22.2054 47.156 22.1636 47.2804 22.1217 47.3634C21.9542 48.1102 21.7866 48.857 21.6191 49.6452C21.5772 49.9357 21.4934 50.2261 21.4516 50.5165C21.4516 50.6409 21.4934 50.7654 21.5772 50.8899C21.661 50.9729 21.7029 51.0973 21.7029 51.1803C23.0012 48.5251 24.6765 46.6166 26.3518 44.9986C26.3518 44.9986 26.3518 44.9986 26.3099 44.9986C26.268 44.9571 26.1843 44.9156 26.1424 44.8741C26.1424 44.9156 26.1424 44.9156 26.1424 44.9571C26.1424 45.2475 25.8073 45.455 25.3885 45.455C25.3047 45.455 25.1791 45.4135 25.1372 45.4135C25.0116 45.372 24.9278 45.372 24.8859 45.3305C24.844 45.289 24.8022 45.206 24.7184 45.1646C24.8022 45.1231 24.844 45.0401 24.9278 44.9986C25.2629 44.9571 25.6398 45.0816 25.8492 44.6252C25.8492 44.6252 25.8911 44.6252 25.933 44.6252C25.7655 44.3763 25.8073 44.0859 26.0586 43.8369C26.2262 43.671 26.3518 43.671 26.5193 43.7955C26.5193 43.7955 26.5612 43.7955 26.5612 43.8369L26.6031 43.7955C26.645 43.8369 26.7706 43.9199 26.7706 43.9614C26.8963 44.0444 26.98 44.1274 27.1057 44.2103C27.3989 43.9614 27.6502 43.7125 27.9015 43.4635H27.8596C27.5664 43.4221 27.4826 43.2561 27.5664 43.0072C27.692 42.5508 27.8596 42.3849 28.1946 42.4678C28.3203 42.5093 28.404 42.5093 28.4459 42.5508C28.4459 42.4264 28.5297 42.4263 28.8229 42.4263C28.9066 42.4263 28.9904 42.4263 29.0742 42.4263C29.493 42.053 29.8699 41.6796 30.2469 41.3062C30.205 41.3062 30.1212 41.2647 30.1212 41.2647C29.9956 41.0987 30.0793 40.8913 30.2888 40.8498C30.5819 40.7668 30.7076 40.7254 30.4144 40.4349C30.3306 40.352 30.2888 40.1445 30.2888 40.0201C30.3725 39.5222 30.4982 39.0243 30.5819 38.485C30.6657 38.1946 30.7913 37.9042 30.4144 37.6967C30.4144 37.6967 30.4144 37.4893 30.4982 37.4478C30.7913 37.2404 31.0845 37.0329 31.3777 36.8255C31.4615 36.7425 31.4615 36.6181 31.5033 36.4936C31.5452 36.2862 31.5871 36.0787 31.6709 35.9128C31.7128 35.7883 31.8803 35.6638 32.0059 35.6638C32.2572 35.6638 32.2572 35.8713 32.2153 36.0787C32.1735 36.2032 32.1735 36.3691 32.1316 36.4936C32.1316 36.4936 32.1316 36.4936 32.1735 36.4936C32.0897 36.701 32.0478 36.867 31.9641 37.0744C31.8384 37.3233 31.8384 37.5308 32.0478 37.7797C32.1735 37.9457 32.2153 38.2776 32.1735 38.485C32.1316 38.7754 31.7965 38.651 31.5871 38.651C31.5033 38.651 31.4196 38.6095 31.3358 38.651C31.252 38.651 31.1683 38.7339 31.0845 38.7754C31.1264 38.8584 31.1683 38.9829 31.2521 39.0243C31.4196 39.1488 31.5871 39.3563 31.6709 39.6052C32.4248 38.568 32.9273 37.4063 33.1368 36.0372C33.053 35.9543 32.9692 35.8713 32.9273 35.7883C32.8436 35.6638 32.7598 35.4149 32.8017 35.3734C32.9273 35.2904 33.053 35.166 33.2205 35.1245C33.2205 35.0415 33.2205 35 33.2205 34.9171V35.1245C33.2624 35.1245 33.3462 35.083 33.3881 35.1245C33.6812 35.2904 33.9744 35.4979 34.1838 35.7053ZM32.7598 49.0644C32.5923 49.1889 32.4248 49.2719 32.2153 49.3548C32.2153 49.1474 32.2572 48.9814 32.2572 48.691C32.4248 48.691 32.5923 48.6495 32.6761 48.691C32.8855 48.774 32.8855 48.9814 32.7598 49.0644ZM33.5975 29.6481H33.6393C33.5137 29.98 33.3881 30.3119 33.3043 30.6438C33.2205 30.9342 33.053 31.2661 33.4718 31.4736C33.5137 31.515 33.5556 31.7225 33.5137 31.8055C33.3462 32.2203 32.5504 32.4693 32.2153 32.2203C32.1316 32.1374 32.0478 31.9714 32.0897 31.8055C32.0897 31.681 32.0897 31.515 32.1316 31.3491C32.0897 31.3491 32.0478 31.3076 32.0478 31.3076C32.0059 31.2661 32.0059 31.1417 32.0059 31.0587C32.0059 31.0172 32.1316 31.0172 32.2153 31.0172C32.2153 31.0587 32.2572 31.1417 32.2572 31.2246C32.2991 31.1831 32.341 31.1831 32.3829 31.1831C32.8855 31.0172 32.9692 30.6438 32.6342 30.2704C32.4248 30.0215 32.5085 29.0673 32.8436 28.9428C33.053 28.8598 33.2205 28.7769 33.3462 28.5694C33.3881 28.4864 33.5556 28.4449 33.6393 28.4864C33.7231 28.5279 33.8069 28.6524 33.8069 28.7769C33.7231 29.0673 33.6393 29.3577 33.5975 29.6481ZM33.4299 27.4492C33.3881 27.4492 33.3881 27.4078 33.3043 27.3663C33.053 27.4492 32.8436 27.3663 32.5504 27.1173C32.2153 26.8684 31.8384 26.578 31.5033 26.2876C31.2939 26.0801 30.9589 25.9142 31.1264 25.4578C31.2102 25.2089 30.6657 24.877 30.3306 24.9185C30.1631 24.96 29.9956 24.9185 29.8699 24.8355C29.7862 24.794 29.7443 24.6281 29.6605 24.5451C29.6605 24.5451 29.7024 24.5451 29.7024 24.5036C29.6605 24.3791 29.5768 24.2962 29.5768 24.2547C29.6186 24.1717 29.7443 24.1302 29.828 24.0887C29.8699 24.0887 29.9537 24.2547 29.9537 24.2962C29.9537 24.3377 29.9118 24.3791 29.8699 24.3791C29.9118 24.3791 29.9537 24.3377 29.9537 24.3377C30.1212 24.2132 30.2469 24.1302 30.4144 24.0057C30.4982 23.9228 30.5819 23.7983 30.6657 23.6738C30.7913 23.5079 30.917 23.259 31.2102 23.3834C31.5452 23.5079 31.7128 23.8398 31.6709 24.1717C31.6709 24.2547 31.6709 24.3377 31.7128 24.4206C31.7965 24.4206 31.9641 24.4206 32.0059 24.3377C32.2153 24.1717 32.341 24.2132 32.5085 24.3377C33.053 24.7525 33.5975 25.1674 34.1419 25.5823C34.3095 25.7067 34.477 25.8727 34.6026 25.9972C34.7283 26.1216 34.9796 26.2461 34.8121 26.495C34.7283 26.6195 34.6026 26.7439 34.477 26.8269C34.3095 27.0344 34.1001 27.2003 33.8906 27.3248C33.8069 27.5322 33.6393 27.4492 33.4299 27.4492ZM39.0422 29.7726C38.9165 29.98 38.6234 30.3119 38.4977 30.2704C38.1627 30.1874 38.037 30.3534 37.8695 30.5608C37.7857 30.6853 37.5344 30.8098 37.4506 30.7683C37.2412 30.6023 36.9899 30.3949 36.9062 30.1874C36.8224 29.9385 36.9062 29.6066 36.8643 29.3162C36.8643 29.2332 36.7805 29.1088 36.6968 29.0258C36.5711 28.9013 36.4036 28.7769 36.2361 28.6524C35.6916 29.3992 35.6916 29.3992 34.9377 28.8598C33.9744 28.1545 34.0163 28.3205 34.7283 27.3248C34.7702 27.2833 34.7702 27.2833 34.8121 27.2418C35.3146 26.6195 35.2728 26.6195 35.901 27.1588C36.3198 27.5322 36.8224 27.8641 37.2831 28.196C37.8276 28.5694 38.3302 28.9843 38.8747 29.3992C39.0003 29.4821 39.1259 29.7311 39.0422 29.7726ZM41.9321 29.0673C42.0577 29.2332 42.2252 29.3577 42.2252 29.4821C42.1834 29.7311 41.974 29.6896 41.8064 29.6066C41.6389 29.5651 41.3457 29.5651 41.4295 29.2747C41.4295 29.1917 41.7227 29.1917 41.9321 29.0673ZM42.7278 26.2461C42.6441 26.2461 42.6022 26.1216 42.5184 26.0387C42.6022 25.9557 42.7278 25.8727 42.8116 25.8727C42.8535 25.8727 42.9372 25.9972 43.0629 26.1216C42.9372 26.1631 42.8116 26.2461 42.7278 26.2461ZM45.5758 26.1631C45.5758 26.412 45.3664 26.661 45.1151 26.8269C44.9057 26.9514 44.7382 27.2833 44.4031 27.1173C44.3613 27.2833 44.3194 27.4078 44.3194 27.5737C44.4869 27.6567 44.7382 27.6152 44.6963 27.9056C44.6963 27.9471 44.5288 28.0716 44.4869 28.0301C44.1937 27.9471 44.3194 27.7397 44.3194 27.5737C44.2775 27.5737 44.1937 27.5737 44.1518 27.5322C44.0681 27.4492 43.9843 27.3663 43.9424 27.2418C44.0681 27.2003 44.1518 27.1173 44.2775 27.0758C44.3194 27.0758 44.4031 27.0758 44.445 27.0758C44.4869 26.8684 44.5707 26.661 44.2775 26.578C43.8587 26.4535 43.8168 25.9972 43.7749 25.7068C43.733 25.2919 43.733 24.7525 44.2356 24.5036C44.2775 24.4621 44.3194 24.3791 44.3612 24.3377C44.5707 24.0472 45.1989 24.0057 45.3664 24.2962C45.4921 24.4621 45.4083 24.6281 45.1989 24.711C44.822 24.877 44.822 24.877 45.0733 25.1674C45.2408 25.3748 45.3664 25.6238 45.4502 25.8727C45.4921 25.8727 45.4921 25.8727 45.534 25.8312C45.534 25.9972 45.6177 26.1216 45.5758 26.1631Z" fill="#D76700"/>
<path d="M40.2142 17.6166C40.2142 17.5336 40.2561 17.4507 40.298 17.3677H39.9629C40.0048 17.4092 40.0467 17.4507 40.0885 17.4921C40.1723 17.4921 40.2142 17.5336 40.2142 17.6166Z" fill="#D76700"/>
<path d="M16.7181 13.053C16.6343 13.053 16.5506 13.053 16.4668 13.053C16.4668 13.1774 16.5087 13.3019 16.5087 13.4264C16.5924 13.3019 16.6343 13.1774 16.7181 13.053C16.7181 13.0945 16.7181 13.053 16.7181 13.053Z" fill="#D76700"/>
</svg>
